<svg width="1024" height="117" viewBox="0 0 1024 117" fill="none" xmlns="http://www.w3.org/2000/svg">
<rect width="1024" height="117" fill="white"/>
<rect width="1024" height="50" fill="#0B0C0C"/>
<g clip-path="url(#clip0_14602_116936)" filter="url(#filter0_d_14602_116936)">
<rect width="960" height="50" transform="translate(32)" fill="#0B0C0C"/>
<rect width="154" height="50" transform="translate(32)" fill="#0B0C0C"/>
<rect width="154" height="36" transform="translate(32 7)" fill="#0B0C0C"/>
<path fill-rule="evenodd" clip-rule="evenodd" d="M38.7922 19.1893C39.7788 19.5913 40.8995 19.1318 41.3008 18.1664C41.7051 17.2041 41.2425 16.0855 40.256 15.6855C39.2881 15.2918 38.1633 15.7606 37.761 16.727C37.3587 17.6883 37.8244 18.7966 38.7922 19.1893Z" fill="white"/>
<path fill-rule="evenodd" clip-rule="evenodd" d="M34.448 21.7072C35.4356 22.1102 36.5542 21.6496 36.9565 20.6842C37.3609 19.7219 36.8983 18.6033 35.9107 18.2023C34.9439 17.8096 33.8191 18.2795 33.4167 19.2459C33.0144 20.2061 33.4802 21.3144 34.448 21.7072Z" fill="white"/>
<path fill-rule="evenodd" clip-rule="evenodd" d="M35.6856 25.4617C36.09 24.4994 35.6274 23.3808 34.6408 22.9799C33.673 22.5871 32.5481 23.0559 32.1448 24.0224C31.7425 24.9836 32.2082 26.0919 33.176 26.4837C34.1636 26.8867 35.2833 26.4261 35.6856 25.4617Z" fill="white"/>
<path fill-rule="evenodd" clip-rule="evenodd" d="M43.6404 20.7031C44.627 21.1051 45.7476 20.6455 46.1489 19.6801C46.5533 18.7178 46.0907 17.5992 45.1041 17.1983C44.1363 16.8055 43.0114 17.2744 42.6091 18.2418C42.2068 19.2021 42.6725 20.3104 43.6404 20.7031Z" fill="white"/>
<path fill-rule="evenodd" clip-rule="evenodd" d="M61.208 19.1893C62.1758 18.7966 62.6416 17.6883 62.2382 16.727C61.8359 15.7606 60.7121 15.2918 59.7432 15.6855C58.7567 16.0855 58.2951 17.2041 58.6984 18.1664C59.1008 19.1318 60.2204 19.5913 61.208 19.1893Z" fill="white"/>
<path fill-rule="evenodd" clip-rule="evenodd" d="M65.5521 21.7072C66.52 21.3144 66.9857 20.2061 66.5834 19.2459C66.1811 18.2795 65.0562 17.8096 64.0884 18.2023C63.1018 18.6033 62.6392 19.7219 63.0436 20.6842C63.4449 21.6496 64.5656 22.1102 65.5521 21.7072Z" fill="white"/>
<path fill-rule="evenodd" clip-rule="evenodd" d="M67.8544 24.0224C67.4521 23.0559 66.3272 22.5871 65.3594 22.9799C64.3728 23.3808 63.9102 24.4994 64.3146 25.4617C64.7159 26.4261 65.8366 26.8867 66.8231 26.4837C67.792 26.093 68.2577 24.9836 67.8544 24.0224Z" fill="white"/>
<path fill-rule="evenodd" clip-rule="evenodd" d="M56.3592 20.7031C57.3271 20.3104 57.7928 19.2021 57.3894 18.2418C56.9882 17.2744 55.8633 16.8055 54.8955 17.1983C53.9089 17.5992 53.4463 18.7178 53.8497 19.6801C54.252 20.6455 55.3716 21.1051 56.3592 20.7031Z" fill="white"/>
<path fill-rule="evenodd" clip-rule="evenodd" d="M48.9801 15.8054C49.0518 15.8989 49.136 15.9812 49.2306 16.0511L47.8376 20.2067C47.8366 20.2119 47.8345 20.217 47.8335 20.2222L47.8314 20.2263L47.8324 20.2273C47.7669 20.4339 47.7316 20.655 47.7316 20.8832C47.7316 22.007 48.5716 22.9353 49.6631 23.0947C49.6787 23.0968 49.6953 23.0998 49.712 23.1019C49.8055 23.1142 49.8991 23.1214 49.9958 23.1214C50.0925 23.1214 50.1871 23.1142 50.2796 23.1019C50.2962 23.0998 50.3129 23.0968 50.3284 23.0947C51.42 22.9353 52.26 22.007 52.26 20.8832C52.26 20.655 52.2246 20.4339 52.1602 20.2273V20.2263L52.1591 20.2222C52.1581 20.217 52.156 20.2119 52.1539 20.2067L50.7609 16.0511C50.8555 15.9812 50.9397 15.8989 51.0125 15.8054L51.0177 15.8002L53.443 17.0597V13.524L51.0208 14.2828L51.0135 14.2756C50.946 14.1882 50.8669 14.109 50.7786 14.0412L50.7713 14.034L51.7464 11L49.9958 11.001L48.2451 11L49.2203 14.034L49.213 14.0412C49.1246 14.109 49.0456 14.1882 48.978 14.2756L48.9708 14.2828L46.5485 13.524V17.0597L48.9749 15.8002L48.9801 15.8054Z" fill="white"/>
<path fill-rule="evenodd" clip-rule="evenodd" d="M64.0744 29.7631C63.644 29.3478 63.2365 28.5818 62.9184 27.4129L61.6542 31.5757C62.4235 31.0524 63.0161 30.7141 63.6949 30.6987C62.4921 33.2608 60.9889 33.9208 60.0148 33.7429C58.8255 33.527 58.2787 32.4784 58.4638 31.589C58.7372 30.3286 60.045 30.0006 60.6552 31.4667C61.8247 29.1103 59.8422 28.3752 58.5667 29.0733C60.5253 27.1404 60.7498 25.4224 59.1686 23.3436C56.9647 25.0091 56.9397 26.6593 57.9305 28.9797C56.6435 27.5229 54.6423 28.3053 55.3658 30.6586C56.2931 29.2378 57.5219 30.1312 57.3285 31.4811C57.1653 32.6562 55.5966 33.6062 53.6412 33.4376C50.8405 33.1867 50.6742 31.2744 50.6035 29.6922C51.2917 29.5657 52.5319 30.198 53.5892 31.6662L53.979 27.2504C52.8292 28.4358 51.7834 28.661 50.6222 28.698C51.0089 27.5054 52.7856 25.5509 52.7856 25.5509H47.2124C47.2124 25.5509 48.989 27.5054 49.3758 28.698C48.2145 28.661 47.1687 28.4358 46.019 27.2504L46.4078 31.6662C47.466 30.198 48.7052 29.5667 49.3945 29.6922C49.3248 31.2744 49.1585 33.1867 46.3568 33.4376C44.4014 33.6062 42.8316 32.6562 42.6694 31.4811C42.4761 30.1312 43.7048 29.2378 44.6332 30.6586C45.3557 28.3053 43.3535 27.5229 42.0675 28.9797C43.0582 26.6593 43.0322 25.0091 40.8294 23.3436C39.2482 25.4224 39.4727 27.1404 41.4313 29.0733C40.1557 28.3752 38.1743 29.1103 39.3417 31.4667C39.953 30.0006 41.2618 30.3286 41.5342 31.589C41.7182 32.4784 41.1714 33.5281 39.9832 33.7429C39.0091 33.9208 37.5069 33.2608 36.303 30.6987C36.9819 30.7141 37.5744 31.0524 38.3437 31.5757L37.0796 27.4129C36.7615 28.5818 36.354 29.3478 35.9236 29.7631C35.6325 28.9211 35.6741 28.3114 35.9329 27.0006L33.3257 27.9197C34.7104 29.7898 36.0525 32.4156 37.1545 36.999C41.0362 36.45 45.3921 36.1415 49.9964 36.1415C54.6007 36.1415 58.9596 36.45 62.8435 37C63.9455 32.4156 65.2865 29.7898 66.6723 27.9197L64.064 27.0006C64.3239 28.3114 64.3644 28.9211 64.0744 29.7631Z" fill="white"/>
<path d="M80.5222 25.5557C80.5222 26.4541 80.6345 27.3184 80.8591 28.1484C81.0837 28.9785 81.4255 29.7109 81.8845 30.3457C82.3435 30.9805 82.9294 31.4932 83.6423 31.8838C84.3552 32.2646 85.2048 32.4551 86.1912 32.4551C87.1384 32.4551 87.9246 32.3037 88.5496 32.001C89.1843 31.6982 89.6873 31.3223 90.0583 30.873C90.4392 30.4141 90.7029 29.9209 90.8494 29.3936C91.0056 28.8662 91.0837 28.3779 91.0837 27.9287V27.7236H85.7078V24.4863H95.2146V36H91.4939V33.5391C91.2302 33.9492 90.9031 34.3252 90.5125 34.667C90.1218 34.999 89.6824 35.2871 89.1941 35.5312C88.7058 35.7656 88.1687 35.9512 87.5828 36.0879C87.0066 36.2246 86.3914 36.293 85.7371 36.293C84.2039 36.293 82.8416 36.0146 81.6501 35.458C80.4587 34.9014 79.4529 34.1348 78.6326 33.1582C77.822 32.1816 77.2019 31.0391 76.7722 29.7305C76.3523 28.4219 76.1423 27.0107 76.1423 25.4971C76.1423 23.9932 76.3767 22.5869 76.8455 21.2783C77.324 19.96 77.9978 18.8174 78.8669 17.8506C79.7458 16.874 80.8005 16.1074 82.031 15.5508C83.2712 14.9844 84.658 14.7012 86.1912 14.7012C87.1873 14.7012 88.1296 14.8184 89.0183 15.0527C89.9167 15.2773 90.7322 15.6045 91.4646 16.0342C92.2068 16.4541 92.8611 16.9668 93.4275 17.5723C93.9939 18.168 94.4529 18.832 94.8044 19.5645L91.0837 21.6592C90.8591 21.21 90.5955 20.7949 90.2927 20.4141C89.99 20.0234 89.6384 19.6914 89.238 19.418C88.8474 19.1348 88.3982 18.915 87.8904 18.7588C87.3826 18.5928 86.8162 18.5098 86.1912 18.5098C85.2048 18.5098 84.3552 18.7051 83.6423 19.0957C82.9294 19.4766 82.3435 19.9844 81.8845 20.6191C81.4255 21.2539 81.0837 21.9912 80.8591 22.8311C80.6345 23.6611 80.5222 24.5205 80.5222 25.4092V25.5557ZM107.929 14.7012C109.492 14.7012 110.893 14.9844 112.134 15.5508C113.374 16.1074 114.424 16.874 115.283 17.8506C116.152 18.8174 116.811 19.96 117.26 21.2783C117.719 22.5869 117.949 23.9932 117.949 25.4971C117.949 27.0107 117.719 28.4219 117.26 29.7305C116.811 31.0391 116.152 32.1816 115.283 33.1582C114.424 34.1348 113.374 34.9014 112.134 35.458C110.893 36.0146 109.492 36.293 107.929 36.293C106.357 36.293 104.951 36.0146 103.711 35.458C102.48 34.9014 101.43 34.1348 100.561 33.1582C99.7019 32.1816 99.0427 31.0391 98.5837 29.7305C98.1345 28.4219 97.9099 27.0107 97.9099 25.4971C97.9099 23.9932 98.1345 22.5869 98.5837 21.2783C99.0427 19.96 99.7019 18.8174 100.561 17.8506C101.43 16.874 102.48 16.1074 103.711 15.5508C104.951 14.9844 106.357 14.7012 107.929 14.7012ZM107.929 32.4551C108.847 32.4551 109.653 32.2842 110.346 31.9424C111.05 31.5908 111.64 31.1074 112.119 30.4922C112.597 29.877 112.959 29.1494 113.203 28.3096C113.447 27.4697 113.569 26.5518 113.569 25.5557V25.4385C113.569 24.4521 113.447 23.5391 113.203 22.6992C112.959 21.8496 112.597 21.1172 112.119 20.502C111.64 19.8867 111.05 19.4082 110.346 19.0664C109.653 18.7148 108.847 18.5391 107.929 18.5391C107.011 18.5391 106.201 18.7148 105.498 19.0664C104.795 19.4082 104.204 19.8867 103.725 20.502C103.257 21.1172 102.9 21.8496 102.656 22.6992C102.412 23.5391 102.29 24.4521 102.29 25.4385V25.5557C102.29 26.5518 102.412 27.4697 102.656 28.3096C102.9 29.1494 103.257 29.877 103.725 30.4922C104.204 31.1074 104.795 31.5908 105.498 31.9424C106.201 32.2842 107.011 32.4551 107.929 32.4551ZM125.508 36L119.575 14.9941H124.336L128.393 30.7852H128.54L132.51 14.9941H137.212L131.279 36H125.508ZM137.812 33.627C137.812 33.2656 137.881 32.9287 138.017 32.6162C138.164 32.2939 138.359 32.0156 138.603 31.7812C138.847 31.5371 139.131 31.3467 139.453 31.21C139.785 31.0635 140.132 30.9902 140.493 30.9902C140.854 30.9902 141.196 31.0635 141.518 31.21C141.841 31.3467 142.124 31.5371 142.368 31.7812C142.612 32.0156 142.802 32.2939 142.939 32.6162C143.086 32.9287 143.159 33.2656 143.159 33.627C143.159 33.998 143.086 34.3447 142.939 34.667C142.802 34.9893 142.612 35.2725 142.368 35.5166C142.124 35.7607 141.841 35.9512 141.518 36.0879C141.196 36.2246 140.854 36.293 140.493 36.293C140.132 36.293 139.785 36.2246 139.453 36.0879C139.131 35.9512 138.847 35.7607 138.603 35.5166C138.359 35.2725 138.164 34.9893 138.017 34.667C137.881 34.3447 137.812 33.998 137.812 33.627ZM155.112 32.4551C155.727 32.4551 156.299 32.3672 156.826 32.1914C157.363 32.0059 157.822 31.7324 158.203 31.3711C158.594 31 158.901 30.5361 159.126 29.9795C159.35 29.4131 159.463 28.749 159.463 27.9873V14.9648H163.652V28.6172C163.652 29.7891 163.437 30.8486 163.008 31.7959C162.588 32.7432 161.997 33.5488 161.235 34.2129C160.483 34.877 159.585 35.3896 158.54 35.751C157.495 36.1123 156.352 36.293 155.112 36.293C153.872 36.293 152.729 36.1123 151.684 35.751C150.639 35.3896 149.736 34.877 148.974 34.2129C148.213 33.5488 147.617 32.7432 147.187 31.7959C146.767 30.8486 146.557 29.7891 146.557 28.6172V14.9648H150.761V27.9873C150.761 28.749 150.874 29.4131 151.098 29.9795C151.323 30.5361 151.626 31 152.007 31.3711C152.397 31.7324 152.856 32.0059 153.384 32.1914C153.921 32.3672 154.497 32.4551 155.112 32.4551ZM167.812 14.9941H172.06V24.0908L179.56 14.9941H184.79L177.495 23.3438L185.259 36H180.322L174.77 26.5811L172.06 29.6133V36H167.812V14.9941Z" fill="white"/>
<rect width="301" height="60" transform="translate(691 -5)" fill="#0B0C0C"/>
<line x1="691.5" y1="10" x2="691.5" y2="40" stroke="#B1B4B6"/>
<path d="M724.258 24.4297C724.258 24.9089 724.318 25.3698 724.438 25.8125C724.557 26.2552 724.74 26.6458 724.984 26.9844C725.229 27.3229 725.542 27.5964 725.922 27.8047C726.302 28.0078 726.755 28.1094 727.281 28.1094C727.786 28.1094 728.206 28.0286 728.539 27.8672C728.878 27.7057 729.146 27.5052 729.344 27.2656C729.547 27.0208 729.688 26.7578 729.766 26.4766C729.849 26.1953 729.891 25.9349 729.891 25.6953V25.5859H727.023V23.8594H732.094V30H730.109V28.6875C729.969 28.9062 729.794 29.1068 729.586 29.2891C729.378 29.4661 729.143 29.6198 728.883 29.75C728.622 29.875 728.336 29.974 728.023 30.0469C727.716 30.1198 727.388 30.1562 727.039 30.1562C726.221 30.1562 725.495 30.0078 724.859 29.7109C724.224 29.4141 723.688 29.0052 723.25 28.4844C722.818 27.9635 722.487 27.3542 722.258 26.6562C722.034 25.9583 721.922 25.2057 721.922 24.3984C721.922 23.5964 722.047 22.8464 722.297 22.1484C722.552 21.4453 722.911 20.8359 723.375 20.3203C723.844 19.7995 724.406 19.3906 725.062 19.0938C725.724 18.7917 726.464 18.6406 727.281 18.6406C727.812 18.6406 728.315 18.7031 728.789 18.8281C729.268 18.9479 729.703 19.1224 730.094 19.3516C730.49 19.5755 730.839 19.849 731.141 20.1719C731.443 20.4896 731.688 20.8438 731.875 21.2344L729.891 22.3516C729.771 22.112 729.63 21.8906 729.469 21.6875C729.307 21.4792 729.12 21.3021 728.906 21.1562C728.698 21.0052 728.458 20.888 728.188 20.8047C727.917 20.7161 727.615 20.6719 727.281 20.6719C726.755 20.6719 726.302 20.776 725.922 20.9844C725.542 21.1875 725.229 21.4583 724.984 21.7969C724.74 22.1354 724.557 22.5286 724.438 22.9766C724.318 23.4193 724.258 23.8776 724.258 24.3516V24.4297ZM738.875 18.6406C739.708 18.6406 740.456 18.7917 741.117 19.0938C741.779 19.3906 742.339 19.7995 742.797 20.3203C743.26 20.8359 743.612 21.4453 743.852 22.1484C744.096 22.8464 744.219 23.5964 744.219 24.3984C744.219 25.2057 744.096 25.9583 743.852 26.6562C743.612 27.3542 743.26 27.9635 742.797 28.4844C742.339 29.0052 741.779 29.4141 741.117 29.7109C740.456 30.0078 739.708 30.1562 738.875 30.1562C738.036 30.1562 737.286 30.0078 736.625 29.7109C735.969 29.4141 735.409 29.0052 734.945 28.4844C734.487 27.9635 734.135 27.3542 733.891 26.6562C733.651 25.9583 733.531 25.2057 733.531 24.3984C733.531 23.5964 733.651 22.8464 733.891 22.1484C734.135 21.4453 734.487 20.8359 734.945 20.3203C735.409 19.7995 735.969 19.3906 736.625 19.0938C737.286 18.7917 738.036 18.6406 738.875 18.6406ZM738.875 28.1094C739.365 28.1094 739.794 28.0182 740.164 27.8359C740.539 27.6484 740.854 27.3906 741.109 27.0625C741.365 26.7344 741.557 26.3464 741.688 25.8984C741.818 25.4505 741.883 24.9609 741.883 24.4297V24.3672C741.883 23.8411 741.818 23.3542 741.688 22.9062C741.557 22.4531 741.365 22.0625 741.109 21.7344C740.854 21.4062 740.539 21.151 740.164 20.9688C739.794 20.7812 739.365 20.6875 738.875 20.6875C738.385 20.6875 737.953 20.7812 737.578 20.9688C737.203 21.151 736.888 21.4062 736.633 21.7344C736.383 22.0625 736.193 22.4531 736.062 22.9062C735.932 23.3542 735.867 23.8411 735.867 24.3672V24.4297C735.867 24.9609 735.932 25.4505 736.062 25.8984C736.193 26.3464 736.383 26.7344 736.633 27.0625C736.888 27.3906 737.203 27.6484 737.578 27.8359C737.953 28.0182 738.385 28.1094 738.875 28.1094ZM748.25 30L745.086 18.7969H747.625L749.789 27.2188H749.867L751.984 18.7969H754.492L751.328 30H748.25ZM754.812 28.7344C754.812 28.5417 754.849 28.362 754.922 28.1953C755 28.0234 755.104 27.875 755.234 27.75C755.365 27.6198 755.516 27.5182 755.688 27.4453C755.865 27.3672 756.049 27.3281 756.242 27.3281C756.435 27.3281 756.617 27.3672 756.789 27.4453C756.961 27.5182 757.112 27.6198 757.242 27.75C757.372 27.875 757.474 28.0234 757.547 28.1953C757.625 28.362 757.664 28.5417 757.664 28.7344C757.664 28.9323 757.625 29.1172 757.547 29.2891C757.474 29.4609 757.372 29.612 757.242 29.7422C757.112 29.8724 756.961 29.974 756.789 30.0469C756.617 30.1198 756.435 30.1562 756.242 30.1562C756.049 30.1562 755.865 30.1198 755.688 30.0469C755.516 29.974 755.365 29.8724 755.234 29.7422C755.104 29.612 755 29.4609 754.922 29.2891C754.849 29.1172 754.812 28.9323 754.812 28.7344ZM764.039 28.1094C764.367 28.1094 764.672 28.0625 764.953 27.9688C765.24 27.8698 765.484 27.724 765.688 27.5312C765.896 27.3333 766.06 27.0859 766.18 26.7891C766.299 26.487 766.359 26.1328 766.359 25.7266V18.7812H768.594V26.0625C768.594 26.6875 768.479 27.2526 768.25 27.7578C768.026 28.263 767.711 28.6927 767.305 29.0469C766.904 29.401 766.424 29.6745 765.867 29.8672C765.31 30.0599 764.701 30.1562 764.039 30.1562C763.378 30.1562 762.768 30.0599 762.211 29.8672C761.654 29.6745 761.172 29.401 760.766 29.0469C760.359 28.6927 760.042 28.263 759.812 27.7578C759.589 27.2526 759.477 26.6875 759.477 26.0625V18.7812H761.719V25.7266C761.719 26.1328 761.779 26.487 761.898 26.7891C762.018 27.0859 762.18 27.3333 762.383 27.5312C762.591 27.724 762.836 27.8698 763.117 27.9688C763.404 28.0625 763.711 28.1094 764.039 28.1094ZM770.812 18.7969H773.078V23.6484L777.078 18.7969H779.867L775.977 23.25L780.117 30H777.484L774.523 24.9766L773.078 26.5938V30H770.812V18.7969ZM788.922 18.6406C789.755 18.6406 790.503 18.7917 791.164 19.0938C791.826 19.3906 792.385 19.7995 792.844 20.3203C793.307 20.8359 793.659 21.4453 793.898 22.1484C794.143 22.8464 794.266 23.5964 794.266 24.3984C794.266 25.2057 794.143 25.9583 793.898 26.6562C793.659 27.3542 793.307 27.9635 792.844 28.4844C792.385 29.0052 791.826 29.4141 791.164 29.7109C790.503 30.0078 789.755 30.1562 788.922 30.1562C788.083 30.1562 787.333 30.0078 786.672 29.7109C786.016 29.4141 785.456 29.0052 784.992 28.4844C784.534 27.9635 784.182 27.3542 783.938 26.6562C783.698 25.9583 783.578 25.2057 783.578 24.3984C783.578 23.5964 783.698 22.8464 783.938 22.1484C784.182 21.4453 784.534 20.8359 784.992 20.3203C785.456 19.7995 786.016 19.3906 786.672 19.0938C787.333 18.7917 788.083 18.6406 788.922 18.6406ZM788.922 28.1094C789.411 28.1094 789.841 28.0182 790.211 27.8359C790.586 27.6484 790.901 27.3906 791.156 27.0625C791.411 26.7344 791.604 26.3464 791.734 25.8984C791.865 25.4505 791.93 24.9609 791.93 24.4297V24.3672C791.93 23.8411 791.865 23.3542 791.734 22.9062C791.604 22.4531 791.411 22.0625 791.156 21.7344C790.901 21.4062 790.586 21.151 790.211 20.9688C789.841 20.7812 789.411 20.6875 788.922 20.6875C788.432 20.6875 788 20.7812 787.625 20.9688C787.25 21.151 786.935 21.4062 786.68 21.7344C786.43 22.0625 786.24 22.4531 786.109 22.9062C785.979 23.3542 785.914 23.8411 785.914 24.3672V24.4297C785.914 24.9609 785.979 25.4505 786.109 25.8984C786.24 26.3464 786.43 26.7344 786.68 27.0625C786.935 27.3906 787.25 27.6484 787.625 27.8359C788 28.0182 788.432 28.1094 788.922 28.1094ZM795.789 21.6328H797.945V22.3516C798.06 22.237 798.188 22.1276 798.328 22.0234C798.474 21.9141 798.633 21.8203 798.805 21.7422C798.977 21.6589 799.167 21.5938 799.375 21.5469C799.589 21.4948 799.823 21.4688 800.078 21.4688C800.531 21.4688 800.938 21.5443 801.297 21.6953C801.656 21.8411 801.958 22.0443 802.203 22.3047C802.453 22.5651 802.643 22.8698 802.773 23.2188C802.904 23.5677 802.969 23.9453 802.969 24.3516V30H800.812V25.1328C800.812 24.8359 800.779 24.5859 800.711 24.3828C800.643 24.1745 800.549 24.0078 800.43 23.8828C800.315 23.7526 800.177 23.6589 800.016 23.6016C799.859 23.5391 799.688 23.5078 799.5 23.5078C799.281 23.5078 799.076 23.5469 798.883 23.625C798.695 23.7031 798.531 23.8229 798.391 23.9844C798.25 24.1406 798.141 24.3385 798.062 24.5781C797.984 24.8177 797.945 25.099 797.945 25.4219V30H795.789V21.6328ZM806.578 26.5625C806.615 26.8125 806.693 27.0417 806.812 27.25C806.938 27.4583 807.094 27.638 807.281 27.7891C807.469 27.9349 807.685 28.0495 807.93 28.1328C808.174 28.2161 808.435 28.2578 808.711 28.2578C809.029 28.2578 809.372 28.1979 809.742 28.0781C810.112 27.9531 810.451 27.7734 810.758 27.5391L811.797 29.0547C811.406 29.3828 810.927 29.6484 810.359 29.8516C809.792 30.0547 809.188 30.1562 808.547 30.1562C807.969 30.1562 807.424 30.0573 806.914 29.8594C806.404 29.6615 805.956 29.375 805.57 29C805.19 28.625 804.888 28.1693 804.664 27.6328C804.445 27.0964 804.336 26.4922 804.336 25.8203C804.336 25.2057 804.432 24.6328 804.625 24.1016C804.823 23.5703 805.096 23.1094 805.445 22.7188C805.799 22.3281 806.221 22.0234 806.711 21.8047C807.201 21.5807 807.742 21.4688 808.336 21.4688C808.888 21.4688 809.401 21.5703 809.875 21.7734C810.349 21.9714 810.76 22.2526 811.109 22.6172C811.458 22.9766 811.732 23.4089 811.93 23.9141C812.128 24.4193 812.227 24.9766 812.227 25.5859V26.5625H806.578ZM808.328 23.3438C807.865 23.3438 807.471 23.5 807.148 23.8125C806.831 24.1198 806.646 24.4922 806.594 24.9297H809.969C809.958 24.487 809.797 24.112 809.484 23.8047C809.172 23.4974 808.786 23.3438 808.328 23.3438ZM816.734 18.7969H819V27.9062H823.438V30H816.734V18.7969ZM828.281 21.4688C828.901 21.4688 829.464 21.5807 829.969 21.8047C830.474 22.0234 830.906 22.3281 831.266 22.7188C831.625 23.1094 831.901 23.5703 832.094 24.1016C832.292 24.6328 832.391 25.2057 832.391 25.8203C832.391 26.4401 832.292 27.0156 832.094 27.5469C831.896 28.0729 831.617 28.5286 831.258 28.9141C830.898 29.2995 830.466 29.6042 829.961 29.8281C829.456 30.0469 828.896 30.1562 828.281 30.1562C827.661 30.1562 827.099 30.0469 826.594 29.8281C826.089 29.6042 825.656 29.2995 825.297 28.9141C824.938 28.5286 824.659 28.0729 824.461 27.5469C824.263 27.0156 824.164 26.4401 824.164 25.8203C824.164 25.2057 824.26 24.6328 824.453 24.1016C824.651 23.5703 824.93 23.1094 825.289 22.7188C825.648 22.3281 826.081 22.0234 826.586 21.8047C827.096 21.5807 827.661 21.4688 828.281 21.4688ZM828.281 28.1562C828.589 28.1562 828.859 28.099 829.094 27.9844C829.333 27.8698 829.534 27.7109 829.695 27.5078C829.857 27.3047 829.979 27.0625 830.062 26.7812C830.146 26.4948 830.188 26.1823 830.188 25.8438V25.7891C830.188 25.4505 830.146 25.1406 830.062 24.8594C829.979 24.5729 829.857 24.3281 829.695 24.125C829.534 23.9167 829.333 23.7552 829.094 23.6406C828.859 23.526 828.589 23.4688 828.281 23.4688C827.974 23.4688 827.701 23.526 827.461 23.6406C827.227 23.7552 827.029 23.9167 826.867 24.125C826.706 24.3281 826.583 24.5729 826.5 24.8594C826.417 25.1406 826.375 25.4505 826.375 25.7891V25.8438C826.375 26.1823 826.417 26.4948 826.5 26.7812C826.583 27.0625 826.706 27.3047 826.867 27.5078C827.029 27.7109 827.227 27.8698 827.461 27.9844C827.701 28.099 827.974 28.1562 828.281 28.1562ZM838.906 28.5156C838.714 28.75 838.443 28.9375 838.094 29.0781C837.75 29.2135 837.375 29.2812 836.969 29.2812C836.406 29.2812 835.906 29.1823 835.469 28.9844C835.031 28.7865 834.661 28.5156 834.359 28.1719C834.062 27.8229 833.833 27.4115 833.672 26.9375C833.516 26.4635 833.438 25.9427 833.438 25.375C833.438 24.8229 833.516 24.3073 833.672 23.8281C833.833 23.3438 834.062 22.9297 834.359 22.5859C834.661 22.237 835.031 21.9635 835.469 21.7656C835.906 21.5677 836.406 21.4688 836.969 21.4688C837.375 21.4688 837.75 21.5391 838.094 21.6797C838.443 21.8203 838.714 22.0078 838.906 22.2422V21.6328H841.07V29.9219C841.07 30.4323 840.974 30.8698 840.781 31.2344C840.589 31.6042 840.323 31.9062 839.984 32.1406C839.651 32.375 839.263 32.5443 838.82 32.6484C838.378 32.7578 837.906 32.8125 837.406 32.8125C836.797 32.8125 836.161 32.7396 835.5 32.5938C834.839 32.4531 834.268 32.276 833.789 32.0625L834.398 30.3203C834.544 30.3828 834.724 30.4505 834.938 30.5234C835.151 30.6016 835.38 30.6693 835.625 30.7266C835.87 30.7839 836.125 30.8307 836.391 30.8672C836.661 30.9089 836.924 30.9297 837.18 30.9297C837.404 30.9297 837.62 30.9062 837.828 30.8594C838.036 30.8177 838.219 30.7448 838.375 30.6406C838.536 30.5417 838.664 30.4089 838.758 30.2422C838.857 30.0807 838.906 29.8724 838.906 29.6172V28.5156ZM835.656 25.4062C835.656 25.6823 835.685 25.9427 835.742 26.1875C835.805 26.4271 835.901 26.6328 836.031 26.8047C836.167 26.9714 836.339 27.1042 836.547 27.2031C836.755 27.2969 837.008 27.3438 837.305 27.3438C837.893 27.3438 838.312 27.1589 838.562 26.7891C838.812 26.4141 838.938 25.9531 838.938 25.4062V25.3438C838.938 25.0677 838.909 24.8099 838.852 24.5703C838.794 24.3307 838.701 24.125 838.57 23.9531C838.44 23.7812 838.271 23.6484 838.062 23.5547C837.859 23.4557 837.607 23.4062 837.305 23.4062C836.721 23.4062 836.299 23.5911 836.039 23.9609C835.784 24.3307 835.656 24.7917 835.656 25.3438V25.4062ZM845.086 30H842.93V21.6328H845.086V30ZM842.703 19.4375C842.703 19.2604 842.737 19.0938 842.805 18.9375C842.872 18.776 842.964 18.638 843.078 18.5234C843.198 18.4036 843.336 18.3099 843.492 18.2422C843.648 18.1745 843.818 18.1406 844 18.1406C844.177 18.1406 844.344 18.1745 844.5 18.2422C844.661 18.3099 844.799 18.4036 844.914 18.5234C845.034 18.638 845.128 18.776 845.195 18.9375C845.263 19.0938 845.297 19.2604 845.297 19.4375C845.297 19.6198 845.263 19.7891 845.195 19.9453C845.128 20.1016 845.034 20.2396 844.914 20.3594C844.799 20.474 844.661 20.5651 844.5 20.6328C844.344 20.7005 844.177 20.7344 844 20.7344C843.818 20.7344 843.648 20.7005 843.492 20.6328C843.336 20.5651 843.198 20.474 843.078 20.3594C842.964 20.2396 842.872 20.1016 842.805 19.9453C842.737 19.7891 842.703 19.6198 842.703 19.4375ZM846.945 21.6328H849.102V22.3516C849.216 22.237 849.344 22.1276 849.484 22.0234C849.63 21.9141 849.789 21.8203 849.961 21.7422C850.133 21.6589 850.323 21.5938 850.531 21.5469C850.745 21.4948 850.979 21.4688 851.234 21.4688C851.688 21.4688 852.094 21.5443 852.453 21.6953C852.812 21.8411 853.115 22.0443 853.359 22.3047C853.609 22.5651 853.799 22.8698 853.93 23.2188C854.06 23.5677 854.125 23.9453 854.125 24.3516V30H851.969V25.1328C851.969 24.8359 851.935 24.5859 851.867 24.3828C851.799 24.1745 851.706 24.0078 851.586 23.8828C851.471 23.7526 851.333 23.6589 851.172 23.6016C851.016 23.5391 850.844 23.5078 850.656 23.5078C850.438 23.5078 850.232 23.5469 850.039 23.625C849.852 23.7031 849.688 23.8229 849.547 23.9844C849.406 24.1406 849.297 24.3385 849.219 24.5781C849.141 24.8177 849.102 25.099 849.102 25.4219V30H846.945V21.6328Z" fill="white"/>
<circle cx="871" cy="25" r="11" fill="white"/>
<path fill-rule="evenodd" clip-rule="evenodd" d="M863.293 32.8487C864.233 29.4753 867.327 27 871 27C874.673 27 877.768 29.4749 878.708 32.848C877.806 33.7338 876.752 34.4654 875.589 35H871H866.411C865.248 34.4655 864.195 33.7342 863.293 32.8487Z" fill="#1D70B8"/>
<circle cx="871" cy="21.75" r="3.75" fill="#1D70B8"/>
<circle cx="871" cy="25" r="10" stroke="white" stroke-width="2"/>
<line x1="907.5" y1="10" x2="907.5" y2="40" stroke="#B1B4B6"/>
<path d="M936.062 26.8516C936.208 27.0182 936.385 27.1823 936.594 27.3438C936.802 27.5052 937.031 27.651 937.281 27.7812C937.536 27.9062 937.812 28.0078 938.109 28.0859C938.406 28.1589 938.727 28.1953 939.07 28.1953C939.711 28.1953 940.201 28.0625 940.539 27.7969C940.883 27.526 941.055 27.1979 941.055 26.8125C941.055 26.4115 940.904 26.1068 940.602 25.8984C940.305 25.6901 939.831 25.526 939.18 25.4062L938.828 25.3438C938.359 25.2604 937.893 25.151 937.43 25.0156C936.966 24.8802 936.547 24.6849 936.172 24.4297C935.797 24.1745 935.492 23.849 935.258 23.4531C935.023 23.0521 934.906 22.5469 934.906 21.9375C934.906 21.5833 934.984 21.2135 935.141 20.8281C935.297 20.4375 935.544 20.0807 935.883 19.7578C936.227 19.4297 936.667 19.1615 937.203 18.9531C937.745 18.7448 938.398 18.6406 939.164 18.6406C940.07 18.6406 940.878 18.7917 941.586 19.0938C942.299 19.3906 942.875 19.7839 943.312 20.2734L941.805 21.6797C941.497 21.3411 941.102 21.0755 940.617 20.8828C940.138 20.6901 939.643 20.5938 939.133 20.5938C938.544 20.5938 938.083 20.7057 937.75 20.9297C937.422 21.1536 937.258 21.4453 937.258 21.8047C937.258 22.0391 937.31 22.2344 937.414 22.3906C937.523 22.5469 937.674 22.6771 937.867 22.7812C938.06 22.8802 938.292 22.9635 938.562 23.0312C938.833 23.099 939.135 23.1667 939.469 23.2344L939.648 23.2656C940.096 23.349 940.542 23.4557 940.984 23.5859C941.427 23.7109 941.828 23.8984 942.188 24.1484C942.552 24.3932 942.846 24.7161 943.07 25.1172C943.294 25.513 943.406 26.0208 943.406 26.6406C943.406 27.2031 943.289 27.7005 943.055 28.1328C942.82 28.5651 942.51 28.9349 942.125 29.2422C941.74 29.5443 941.294 29.7734 940.789 29.9297C940.284 30.0807 939.758 30.1562 939.211 30.1562C938.659 30.1562 938.146 30.1094 937.672 30.0156C937.203 29.9219 936.776 29.7891 936.391 29.6172C936.01 29.4453 935.669 29.2526 935.367 29.0391C935.07 28.8255 934.81 28.5964 934.586 28.3516L936.062 26.8516ZM947.242 30H945.086V21.6328H947.242V30ZM944.859 19.4375C944.859 19.2604 944.893 19.0938 944.961 18.9375C945.029 18.776 945.12 18.638 945.234 18.5234C945.354 18.4036 945.492 18.3099 945.648 18.2422C945.805 18.1745 945.974 18.1406 946.156 18.1406C946.333 18.1406 946.5 18.1745 946.656 18.2422C946.818 18.3099 946.956 18.4036 947.07 18.5234C947.19 18.638 947.284 18.776 947.352 18.9375C947.419 19.0938 947.453 19.2604 947.453 19.4375C947.453 19.6198 947.419 19.7891 947.352 19.9453C947.284 20.1016 947.19 20.2396 947.07 20.3594C946.956 20.474 946.818 20.5651 946.656 20.6328C946.5 20.7005 946.333 20.7344 946.156 20.7344C945.974 20.7344 945.805 20.7005 945.648 20.6328C945.492 20.5651 945.354 20.474 945.234 20.3594C945.12 20.2396 945.029 20.1016 944.961 19.9453C944.893 19.7891 944.859 19.6198 944.859 19.4375ZM954.188 28.5156C953.995 28.75 953.724 28.9375 953.375 29.0781C953.031 29.2135 952.656 29.2812 952.25 29.2812C951.688 29.2812 951.188 29.1823 950.75 28.9844C950.312 28.7865 949.943 28.5156 949.641 28.1719C949.344 27.8229 949.115 27.4115 948.953 26.9375C948.797 26.4635 948.719 25.9427 948.719 25.375C948.719 24.8229 948.797 24.3073 948.953 23.8281C949.115 23.3438 949.344 22.9297 949.641 22.5859C949.943 22.237 950.312 21.9635 950.75 21.7656C951.188 21.5677 951.688 21.4688 952.25 21.4688C952.656 21.4688 953.031 21.5391 953.375 21.6797C953.724 21.8203 953.995 22.0078 954.188 22.2422V21.6328H956.352V29.9219C956.352 30.4323 956.255 30.8698 956.062 31.2344C955.87 31.6042 955.604 31.9062 955.266 32.1406C954.932 32.375 954.544 32.5443 954.102 32.6484C953.659 32.7578 953.188 32.8125 952.688 32.8125C952.078 32.8125 951.443 32.7396 950.781 32.5938C950.12 32.4531 949.549 32.276 949.07 32.0625L949.68 30.3203C949.826 30.3828 950.005 30.4505 950.219 30.5234C950.432 30.6016 950.661 30.6693 950.906 30.7266C951.151 30.7839 951.406 30.8307 951.672 30.8672C951.943 30.9089 952.206 30.9297 952.461 30.9297C952.685 30.9297 952.901 30.9062 953.109 30.8594C953.318 30.8177 953.5 30.7448 953.656 30.6406C953.818 30.5417 953.945 30.4089 954.039 30.2422C954.138 30.0807 954.188 29.8724 954.188 29.6172V28.5156ZM950.938 25.4062C950.938 25.6823 950.966 25.9427 951.023 26.1875C951.086 26.4271 951.182 26.6328 951.312 26.8047C951.448 26.9714 951.62 27.1042 951.828 27.2031C952.036 27.2969 952.289 27.3438 952.586 27.3438C953.174 27.3438 953.594 27.1589 953.844 26.7891C954.094 26.4141 954.219 25.9531 954.219 25.4062V25.3438C954.219 25.0677 954.19 24.8099 954.133 24.5703C954.076 24.3307 953.982 24.125 953.852 23.9531C953.721 23.7812 953.552 23.6484 953.344 23.5547C953.141 23.4557 952.888 23.4062 952.586 23.4062C952.003 23.4062 951.581 23.5911 951.32 23.9609C951.065 24.3307 950.938 24.7917 950.938 25.3438V25.4062ZM958.211 21.6328H960.367V22.3516C960.482 22.237 960.609 22.1276 960.75 22.0234C960.896 21.9141 961.055 21.8203 961.227 21.7422C961.398 21.6589 961.589 21.5938 961.797 21.5469C962.01 21.4948 962.245 21.4688 962.5 21.4688C962.953 21.4688 963.359 21.5443 963.719 21.6953C964.078 21.8411 964.38 22.0443 964.625 22.3047C964.875 22.5651 965.065 22.8698 965.195 23.2188C965.326 23.5677 965.391 23.9453 965.391 24.3516V30H963.234V25.1328C963.234 24.8359 963.201 24.5859 963.133 24.3828C963.065 24.1745 962.971 24.0078 962.852 23.8828C962.737 23.7526 962.599 23.6589 962.438 23.6016C962.281 23.5391 962.109 23.5078 961.922 23.5078C961.703 23.5078 961.497 23.5469 961.305 23.625C961.117 23.7031 960.953 23.8229 960.812 23.9844C960.672 24.1406 960.562 24.3385 960.484 24.5781C960.406 24.8177 960.367 25.099 960.367 25.4219V30H958.211V21.6328ZM973.766 21.4688C974.385 21.4688 974.948 21.5807 975.453 21.8047C975.958 22.0234 976.391 22.3281 976.75 22.7188C977.109 23.1094 977.385 23.5703 977.578 24.1016C977.776 24.6328 977.875 25.2057 977.875 25.8203C977.875 26.4401 977.776 27.0156 977.578 27.5469C977.38 28.0729 977.102 28.5286 976.742 28.9141C976.383 29.2995 975.951 29.6042 975.445 29.8281C974.94 30.0469 974.38 30.1562 973.766 30.1562C973.146 30.1562 972.583 30.0469 972.078 29.8281C971.573 29.6042 971.141 29.2995 970.781 28.9141C970.422 28.5286 970.143 28.0729 969.945 27.5469C969.747 27.0156 969.648 26.4401 969.648 25.8203C969.648 25.2057 969.745 24.6328 969.938 24.1016C970.135 23.5703 970.414 23.1094 970.773 22.7188C971.133 22.3281 971.565 22.0234 972.07 21.8047C972.581 21.5807 973.146 21.4688 973.766 21.4688ZM973.766 28.1562C974.073 28.1562 974.344 28.099 974.578 27.9844C974.818 27.8698 975.018 27.7109 975.18 27.5078C975.341 27.3047 975.464 27.0625 975.547 26.7812C975.63 26.4948 975.672 26.1823 975.672 25.8438V25.7891C975.672 25.4505 975.63 25.1406 975.547 24.8594C975.464 24.5729 975.341 24.3281 975.18 24.125C975.018 23.9167 974.818 23.7552 974.578 23.6406C974.344 23.526 974.073 23.4688 973.766 23.4688C973.458 23.4688 973.185 23.526 972.945 23.6406C972.711 23.7552 972.513 23.9167 972.352 24.125C972.19 24.3281 972.068 24.5729 971.984 24.8594C971.901 25.1406 971.859 25.4505 971.859 25.7891V25.8438C971.859 26.1823 971.901 26.4948 971.984 26.7812C972.068 27.0625 972.19 27.3047 972.352 27.5078C972.513 27.7109 972.711 27.8698 972.945 27.9844C973.185 28.099 973.458 28.1562 973.766 28.1562ZM986.422 30H984.266V29.2812C984.146 29.3958 984.016 29.5078 983.875 29.6172C983.734 29.7214 983.578 29.8151 983.406 29.8984C983.234 29.9766 983.042 30.0391 982.828 30.0859C982.62 30.1328 982.388 30.1562 982.133 30.1562C981.68 30.1562 981.273 30.0833 980.914 29.9375C980.555 29.7865 980.25 29.5833 980 29.3281C979.755 29.0677 979.568 28.763 979.438 28.4141C979.307 28.0651 979.242 27.6875 979.242 27.2812V21.6328H981.398V26.4922C981.398 26.7891 981.43 27.0417 981.492 27.25C981.56 27.4583 981.651 27.6276 981.766 27.7578C981.885 27.8828 982.026 27.9766 982.188 28.0391C982.349 28.0964 982.523 28.125 982.711 28.125C982.93 28.125 983.133 28.0859 983.32 28.0078C983.513 27.9297 983.68 27.8125 983.82 27.6562C983.961 27.4948 984.07 27.2943 984.148 27.0547C984.227 26.8151 984.266 26.5339 984.266 26.2109V21.6328H986.422V30ZM991.375 27.5078C991.375 27.6068 991.388 27.7005 991.414 27.7891C991.44 27.8776 991.484 27.9557 991.547 28.0234C991.615 28.0859 991.708 28.1354 991.828 28.1719C991.948 28.2083 992.102 28.2266 992.289 28.2266C992.367 28.2266 992.456 28.224 992.555 28.2188C992.654 28.2083 992.753 28.1979 992.852 28.1875C992.951 28.1771 993.042 28.1641 993.125 28.1484C993.214 28.1328 993.286 28.1198 993.344 28.1094L993.539 30.0156C993.336 30.0417 993.125 30.0651 992.906 30.0859C992.719 30.1068 992.51 30.1224 992.281 30.1328C992.052 30.1484 991.82 30.1562 991.586 30.1562C990.841 30.1562 990.26 29.987 989.844 29.6484C989.427 29.3099 989.219 28.7708 989.219 28.0312V23.5078H987.711V21.6328H989.219V19.2656L991.375 18.6875V21.6328H993.57V23.5078H991.375V27.5078Z" fill="white"/>
</g>
<rect y="50" width="1024" height="10" fill="#1D70B8"/>
<g filter="url(#filter1_i_14602_116936)">
<rect width="1024" height="57" transform="translate(0 60)" fill="#F3F2F1"/>
<path d="M34.2822 93.2612C34.4554 93.4591 34.6657 93.654 34.9131 93.8457C35.1605 94.0374 35.4326 94.2106 35.7295 94.3652C36.0326 94.5137 36.3604 94.6343 36.7129 94.7271C37.0654 94.8136 37.4458 94.8569 37.854 94.8569C38.6147 94.8569 39.1961 94.6992 39.5981 94.3838C40.0063 94.0622 40.2104 93.6725 40.2104 93.2148C40.2104 92.7386 40.0311 92.3768 39.6724 92.1294C39.3198 91.882 38.757 91.6872 37.9839 91.5449L37.5664 91.4707C37.0098 91.3717 36.4562 91.2419 35.9058 91.0811C35.3553 90.9202 34.8574 90.6883 34.4121 90.3853C33.9668 90.0822 33.605 89.6956 33.3267 89.2256C33.0483 88.7493 32.9092 88.1494 32.9092 87.4258C32.9092 87.0052 33.002 86.5661 33.1875 86.1084C33.373 85.6445 33.6668 85.2209 34.0688 84.8374C34.4771 84.4478 34.9997 84.1292 35.6367 83.8818C36.2799 83.6344 37.0562 83.5107 37.9653 83.5107C39.0415 83.5107 40.0002 83.6901 40.8413 84.0488C41.6886 84.4014 42.3721 84.8683 42.8916 85.4497L41.1011 87.1196C40.7362 86.7176 40.2661 86.4022 39.6909 86.1733C39.1219 85.9445 38.5343 85.8301 37.9282 85.8301C37.2293 85.8301 36.682 85.9631 36.2861 86.229C35.8965 86.495 35.7017 86.8413 35.7017 87.2681C35.7017 87.5464 35.7635 87.7783 35.8872 87.9639C36.0171 88.1494 36.1965 88.304 36.4253 88.4277C36.6541 88.5452 36.9294 88.6442 37.251 88.7246C37.5726 88.805 37.9313 88.8854 38.3271 88.9658L38.5405 89.0029C39.0724 89.1019 39.6012 89.2287 40.127 89.3833C40.6527 89.5317 41.1289 89.7544 41.5557 90.0513C41.9886 90.342 42.3381 90.7254 42.604 91.2017C42.87 91.6717 43.0029 92.2747 43.0029 93.0107C43.0029 93.6787 42.8638 94.2694 42.5854 94.7827C42.3071 95.2961 41.9391 95.7352 41.4814 96.1001C41.0238 96.4588 40.495 96.731 39.895 96.9165C39.2951 97.0959 38.6704 97.1855 38.021 97.1855C37.3654 97.1855 36.7562 97.1299 36.1934 97.0186C35.6367 96.9072 35.1296 96.7495 34.6719 96.5454C34.2204 96.3413 33.8153 96.1125 33.4565 95.8589C33.104 95.6053 32.7948 95.3332 32.5288 95.0425L34.2822 93.2612ZM47.1406 92.918C47.1839 93.2148 47.2767 93.487 47.4189 93.7344C47.5674 93.9818 47.7529 94.1951 47.9756 94.3745C48.1982 94.5477 48.4549 94.6838 48.7456 94.7827C49.0363 94.8817 49.3455 94.9312 49.6733 94.9312C50.0506 94.9312 50.4588 94.86 50.8979 94.7178C51.3371 94.5693 51.7391 94.356 52.104 94.0776L53.3379 95.8774C52.874 96.2671 52.305 96.5825 51.6309 96.8237C50.9567 97.0649 50.2393 97.1855 49.4785 97.1855C48.792 97.1855 48.1457 97.068 47.5396 96.833C46.9334 96.598 46.4015 96.2578 45.9438 95.8125C45.4924 95.3672 45.1336 94.826 44.8677 94.189C44.6079 93.5519 44.478 92.8345 44.478 92.0366C44.478 91.3068 44.5924 90.6265 44.8213 89.9956C45.0563 89.3647 45.381 88.8174 45.7954 88.3535C46.216 87.8896 46.717 87.5278 47.2983 87.2681C47.8797 87.0021 48.5229 86.8691 49.228 86.8691C49.8836 86.8691 50.4928 86.9897 51.0557 87.231C51.6185 87.466 52.1071 87.8 52.5215 88.2329C52.9359 88.6597 53.2606 89.173 53.4956 89.7729C53.7306 90.3729 53.8481 91.0347 53.8481 91.7583V92.918H47.1406ZM49.2188 89.0957C48.6683 89.0957 48.2013 89.2812 47.8179 89.6523C47.4406 90.0173 47.221 90.4595 47.1592 90.979H51.167C51.1546 90.4533 50.9629 90.008 50.5918 89.6431C50.2207 89.2782 49.763 89.0957 49.2188 89.0957ZM61.0659 89.5503H60.7969C60.432 89.5503 60.0825 89.5874 59.7485 89.6616C59.4207 89.7358 59.13 89.8719 58.8765 90.0698C58.6229 90.2616 58.4188 90.5275 58.2642 90.8677C58.1157 91.2078 58.0415 91.6439 58.0415 92.1758V97H55.481V87.064H58.0415V88.1865C58.1466 88.0195 58.2827 87.8587 58.4497 87.7041C58.6167 87.5495 58.8115 87.4134 59.0342 87.2959C59.2568 87.1722 59.5073 87.0732 59.7856 86.999C60.064 86.9248 60.3639 86.8877 60.6855 86.8877H61.0659V89.5503ZM64.7676 97L61.7246 87.064H64.582L66.3633 93.9014L68.1909 87.064H71.002L67.9775 97H64.7676ZM74.8335 97H72.2729V87.064H74.8335V97ZM72.0039 84.457C72.0039 84.2467 72.0441 84.0488 72.1245 83.8633C72.2049 83.6715 72.3132 83.5076 72.4492 83.3716C72.5915 83.2293 72.7554 83.118 72.9409 83.0376C73.1265 82.9572 73.3275 82.917 73.5439 82.917C73.7542 82.917 73.9521 82.9572 74.1377 83.0376C74.3294 83.118 74.4933 83.2293 74.6294 83.3716C74.7716 83.5076 74.883 83.6715 74.9634 83.8633C75.0438 84.0488 75.084 84.2467 75.084 84.457C75.084 84.6735 75.0438 84.8745 74.9634 85.0601C74.883 85.2456 74.7716 85.4095 74.6294 85.5518C74.4933 85.6878 74.3294 85.7961 74.1377 85.8765C73.9521 85.9569 73.7542 85.9971 73.5439 85.9971C73.3275 85.9971 73.1265 85.9569 72.9409 85.8765C72.7554 85.7961 72.5915 85.6878 72.4492 85.5518C72.3132 85.4095 72.2049 85.2456 72.1245 85.0601C72.0441 84.8745 72.0039 84.6735 72.0039 84.457ZM79.166 92.083C79.166 92.4046 79.2093 92.7293 79.2959 93.0571C79.3825 93.3787 79.5155 93.6694 79.6948 93.9292C79.8742 94.189 80.103 94.4023 80.3813 94.5693C80.6659 94.7301 81.0029 94.8105 81.3926 94.8105C81.6462 94.8105 81.875 94.7765 82.0791 94.7085C82.2894 94.6405 82.4749 94.5477 82.6357 94.4302C82.8027 94.3065 82.9481 94.1642 83.0718 94.0034C83.2017 93.8364 83.313 93.6571 83.4058 93.4653L85.6509 94.625C85.4901 95.0146 85.2674 95.3672 84.9829 95.6826C84.7046 95.998 84.3799 96.2671 84.0088 96.4897C83.6377 96.7124 83.2264 96.8825 82.7749 97C82.3234 97.1237 81.8441 97.1855 81.3369 97.1855C80.638 97.1855 79.9948 97.0557 79.4072 96.7959C78.8197 96.5299 78.3125 96.1681 77.8857 95.7104C77.459 95.2528 77.125 94.7116 76.8838 94.0869C76.6426 93.4561 76.522 92.7726 76.522 92.0366C76.522 91.3068 76.6426 90.6265 76.8838 89.9956C77.125 89.3647 77.459 88.8174 77.8857 88.3535C78.3125 87.8896 78.8197 87.5278 79.4072 87.2681C79.9948 87.0021 80.638 86.8691 81.3369 86.8691C81.8441 86.8691 82.3234 86.931 82.7749 87.0547C83.2264 87.1722 83.6377 87.3454 84.0088 87.5742C84.3799 87.7969 84.7046 88.0659 84.9829 88.3813C85.2674 88.6968 85.4901 89.0493 85.6509 89.439L83.4058 90.5986C83.313 90.4069 83.2017 90.2306 83.0718 90.0698C82.9481 89.9028 82.8027 89.7606 82.6357 89.6431C82.4749 89.5194 82.2894 89.4235 82.0791 89.3555C81.875 89.2812 81.6462 89.2441 81.3926 89.2441C81.0029 89.2441 80.6659 89.3276 80.3813 89.4946C80.103 89.6554 79.8742 89.8688 79.6948 90.1348C79.5155 90.3945 79.3825 90.6883 79.2959 91.0161C79.2093 91.3439 79.166 91.6717 79.166 91.9995V92.083ZM89.3711 92.918C89.4144 93.2148 89.5072 93.487 89.6494 93.7344C89.7979 93.9818 89.9834 94.1951 90.2061 94.3745C90.4287 94.5477 90.6854 94.6838 90.9761 94.7827C91.2668 94.8817 91.576 94.9312 91.9038 94.9312C92.2811 94.9312 92.6893 94.86 93.1284 94.7178C93.5675 94.5693 93.9696 94.356 94.3345 94.0776L95.5684 95.8774C95.1045 96.2671 94.5355 96.5825 93.8613 96.8237C93.1872 97.0649 92.4697 97.1855 91.709 97.1855C91.0225 97.1855 90.3761 97.068 89.77 96.833C89.1639 96.598 88.632 96.2578 88.1743 95.8125C87.7228 95.3672 87.3641 94.826 87.0981 94.189C86.8384 93.5519 86.7085 92.8345 86.7085 92.0366C86.7085 91.3068 86.8229 90.6265 87.0518 89.9956C87.2868 89.3647 87.6115 88.8174 88.0259 88.3535C88.4465 87.8896 88.9474 87.5278 89.5288 87.2681C90.1102 87.0021 90.7534 86.8691 91.4585 86.8691C92.1141 86.8691 92.7233 86.9897 93.2861 87.231C93.849 87.466 94.3376 87.8 94.752 88.2329C95.1663 88.6597 95.491 89.173 95.7261 89.7729C95.9611 90.3729 96.0786 91.0347 96.0786 91.7583V92.918H89.3711ZM91.4492 89.0957C90.8988 89.0957 90.4318 89.2812 90.0483 89.6523C89.6711 90.0173 89.4515 90.4595 89.3896 90.979H93.3975C93.3851 90.4533 93.1934 90.008 92.8223 89.6431C92.4512 89.2782 91.9935 89.0957 91.4492 89.0957ZM101.144 87.064H103.705V87.9175C103.841 87.7814 103.992 87.6515 104.159 87.5278C104.332 87.3979 104.521 87.2866 104.725 87.1938C104.929 87.0949 105.155 87.0176 105.402 86.9619C105.656 86.9001 105.934 86.8691 106.237 86.8691C106.775 86.8691 107.258 86.9588 107.685 87.1382C108.111 87.3114 108.47 87.5526 108.761 87.8618C109.058 88.1711 109.283 88.5329 109.438 88.9473C109.593 89.3617 109.67 89.8101 109.67 90.2925V97H107.109V91.2202C107.109 90.8677 107.069 90.5708 106.989 90.3296C106.908 90.0822 106.797 89.8843 106.655 89.7358C106.519 89.5812 106.355 89.4699 106.163 89.4019C105.978 89.3276 105.773 89.2905 105.551 89.2905C105.291 89.2905 105.047 89.3369 104.818 89.4297C104.595 89.5225 104.4 89.6647 104.233 89.8564C104.066 90.042 103.937 90.277 103.844 90.5615C103.751 90.846 103.705 91.18 103.705 91.5635V97H101.144V87.064ZM115.023 92.9644C114.708 93.0138 114.454 93.1252 114.262 93.2983C114.07 93.4653 113.975 93.6942 113.975 93.9849C113.975 94.3065 114.092 94.5848 114.327 94.8198C114.562 95.0487 114.909 95.1631 115.366 95.1631C115.849 95.1631 116.229 95.0239 116.507 94.7456C116.786 94.4673 116.925 94.0993 116.925 93.6416V92.6396L115.023 92.9644ZM117.342 96.063C117.237 96.1805 117.107 96.3073 116.953 96.4434C116.804 96.5732 116.625 96.6938 116.415 96.8052C116.21 96.9103 115.969 97 115.691 97.0742C115.413 97.1484 115.1 97.1855 114.754 97.1855C114.259 97.1855 113.801 97.1082 113.381 96.9536C112.966 96.7928 112.602 96.5701 112.286 96.2856C111.971 96.0011 111.723 95.6733 111.544 95.3022C111.365 94.925 111.275 94.5168 111.275 94.0776C111.275 93.2798 111.522 92.6273 112.017 92.1201C112.512 91.613 113.195 91.2944 114.067 91.1646L116.925 90.7471V90.5615C116.925 90.1162 116.789 89.7637 116.517 89.5039C116.244 89.2441 115.802 89.1143 115.19 89.1143C114.936 89.1143 114.68 89.1452 114.42 89.207C114.16 89.2627 113.91 89.3276 113.668 89.4019C113.433 89.4761 113.214 89.5627 113.01 89.6616C112.806 89.7544 112.626 89.8379 112.472 89.9121L111.47 87.9546C112.039 87.6392 112.67 87.3794 113.362 87.1753C114.061 86.9712 114.785 86.8691 115.533 86.8691C115.991 86.8691 116.452 86.9186 116.916 87.0176C117.386 87.1104 117.809 87.2835 118.187 87.5371C118.57 87.7907 118.882 88.137 119.124 88.5762C119.365 89.0091 119.485 89.5627 119.485 90.2368V94.3188C119.485 94.6095 119.56 94.826 119.708 94.9683C119.863 95.1043 120.073 95.2311 120.339 95.3486L119.179 97.1855C118.709 97.1361 118.332 97.0155 118.047 96.8237C117.763 96.6258 117.528 96.3722 117.342 96.063ZM130.006 97H127.436V91.2202C127.436 90.8677 127.396 90.5708 127.315 90.3296C127.241 90.0822 127.136 89.8843 127 89.7358C126.864 89.5812 126.706 89.473 126.527 89.4111C126.347 89.3431 126.153 89.3091 125.942 89.3091C125.695 89.3091 125.463 89.3524 125.247 89.439C125.036 89.5256 124.851 89.6616 124.69 89.8472C124.535 90.0327 124.412 90.2708 124.319 90.5615C124.232 90.846 124.189 91.1862 124.189 91.582V97H121.628V87.064H124.189V87.936C124.517 87.5711 124.897 87.3021 125.33 87.1289C125.769 86.9557 126.239 86.8691 126.74 86.8691C127.254 86.8691 127.733 86.9743 128.178 87.1846C128.63 87.3949 129.004 87.7412 129.301 88.2236C129.474 87.9762 129.672 87.766 129.895 87.5928C130.123 87.4196 130.368 87.2804 130.627 87.1753C130.887 87.0701 131.156 86.9928 131.435 86.9434C131.719 86.8939 132.01 86.8691 132.307 86.8691C132.863 86.8691 133.358 86.9619 133.791 87.1475C134.23 87.3268 134.601 87.5711 134.904 87.8804C135.207 88.1896 135.439 88.5452 135.6 88.9473C135.761 89.3493 135.841 89.7729 135.841 90.2183V97H133.253V91.2202C133.253 90.8677 133.213 90.5708 133.132 90.3296C133.058 90.0822 132.953 89.8843 132.817 89.7358C132.681 89.5812 132.52 89.473 132.334 89.4111C132.155 89.3431 131.96 89.3091 131.75 89.3091C131.503 89.3091 131.274 89.3524 131.063 89.439C130.853 89.5256 130.668 89.6616 130.507 89.8472C130.352 90.0327 130.229 90.2708 130.136 90.5615C130.049 90.846 130.006 91.1862 130.006 91.582V97ZM140.118 92.918C140.161 93.2148 140.254 93.487 140.396 93.7344C140.545 93.9818 140.73 94.1951 140.953 94.3745C141.176 94.5477 141.432 94.6838 141.723 94.7827C142.014 94.8817 142.323 94.9312 142.651 94.9312C143.028 94.9312 143.436 94.86 143.875 94.7178C144.315 94.5693 144.717 94.356 145.082 94.0776L146.315 95.8774C145.852 96.2671 145.283 96.5825 144.608 96.8237C143.934 97.0649 143.217 97.1855 142.456 97.1855C141.77 97.1855 141.123 97.068 140.517 96.833C139.911 96.598 139.379 96.2578 138.921 95.8125C138.47 95.3672 138.111 94.826 137.845 94.189C137.585 93.5519 137.456 92.8345 137.456 92.0366C137.456 91.3068 137.57 90.6265 137.799 89.9956C138.034 89.3647 138.359 88.8174 138.773 88.3535C139.194 87.8896 139.694 87.5278 140.276 87.2681C140.857 87.0021 141.5 86.8691 142.206 86.8691C142.861 86.8691 143.47 86.9897 144.033 87.231C144.596 87.466 145.085 87.8 145.499 88.2329C145.913 88.6597 146.238 89.173 146.473 89.7729C146.708 90.3729 146.826 91.0347 146.826 91.7583V92.918H140.118ZM142.196 89.0957C141.646 89.0957 141.179 89.2812 140.795 89.6523C140.418 90.0173 140.199 90.4595 140.137 90.979H144.145C144.132 90.4533 143.94 90.008 143.569 89.6431C143.198 89.2782 142.741 89.0957 142.196 89.0957Z" fill="#0B0C0C"/>
</g>
<defs>
<filter id="filter0_d_14602_116936" x="32" y="0" width="960" height="60" filterUnits="userSpaceOnUse" color-interpolation-filters="sRGB">
<feFlood flood-opacity="0" result="BackgroundImageFix"/>
<feColorMatrix in="SourceAlpha" type="matrix" values="0 0 0 0 0 0 0 0 0 0 0 0 0 0 0 0 0 0 127 0" result="hardAlpha"/>
<feOffset dy="10"/>
<feComposite in2="hardAlpha" operator="out"/>
<feColorMatrix type="matrix" values="0 0 0 0 0.113725 0 0 0 0 0.439216 0 0 0 0 0.721569 0 0 0 1 0"/>
<feBlend mode="normal" in2="BackgroundImageFix" result="effect1_dropShadow_14602_116936"/>
<feBlend mode="normal" in="SourceGraphic" in2="effect1_dropShadow_14602_116936" result="shape"/>
</filter>
<filter id="filter1_i_14602_116936" x="0" y="60" width="1024" height="57" filterUnits="userSpaceOnUse" color-interpolation-filters="sRGB">
<feFlood flood-opacity="0" result="BackgroundImageFix"/>
<feBlend mode="normal" in="SourceGraphic" in2="BackgroundImageFix" result="shape"/>
<feColorMatrix in="SourceAlpha" type="matrix" values="0 0 0 0 0 0 0 0 0 0 0 0 0 0 0 0 0 0 127 0" result="hardAlpha"/>
<feOffset dy="-1"/>
<feComposite in2="hardAlpha" operator="arithmetic" k2="-1" k3="1"/>
<feColorMatrix type="matrix" values="0 0 0 0 0.694118 0 0 0 0 0.705882 0 0 0 0 0.713726 0 0 0 1 0"/>
<feBlend mode="normal" in2="shape" result="effect1_innerShadow_14602_116936"/>
</filter>
<clipPath id="clip0_14602_116936">
<rect width="960" height="50" fill="white" transform="translate(32)"/>
</clipPath>
</defs>
</svg>
