<?xml version="1.0" encoding="utf-8"?>
<!-- Generator: Adobe Illustrator 28.2.0, SVG Export Plug-In . SVG Version: 6.00 Build 0)  -->
<svg version="1.1" id="Layer_1" xmlns="http://www.w3.org/2000/svg" xmlns:xlink="http://www.w3.org/1999/xlink" x="0px" y="0px"
	 viewBox="0 0 375 147" style="enable-background:new 0 0 375 147;" xml:space="preserve">
<style type="text/css">
	.st0{fill:#FFFFFF;}
	.st1{fill:#0B0C0C;}
	.st2{fill:none;stroke:#FFFFFF;stroke-width:2;}
	.st3{fill-rule:evenodd;clip-rule:evenodd;fill:#1D70B8;}
	.st4{fill:#1D70B8;}
	.st5{fill:#F3F2F1;}
	.st6{fill:none;stroke:#1D70B8;stroke-width:2.5;}
	.st7{fill:#B1B4B6;}
	.st8{fill-rule:evenodd;clip-rule:evenodd;fill:#FFFFFF;}
</style>
<rect y="0" class="st0" width="375" height="147"/>
<rect y="0" class="st1" width="375" height="47"/>
<path class="st0" d="M62.5,22.6c0,0.9,0.1,1.8,0.3,2.6c0.2,0.8,0.6,1.6,1,2.2c0.5,0.6,1,1.1,1.8,1.5c0.7,0.4,1.6,0.6,2.5,0.6
	c0.9,0,1.7-0.2,2.4-0.5c0.6-0.3,1.1-0.7,1.5-1.1c0.4-0.5,0.6-1,0.8-1.5c0.2-0.5,0.2-1,0.2-1.5v-0.2h-5.4v-3.2h9.5V33h-3.7v-2.5
	c-0.3,0.4-0.6,0.8-1,1.1c-0.4,0.3-0.8,0.6-1.3,0.9c-0.5,0.2-1,0.4-1.6,0.6c-0.6,0.1-1.2,0.2-1.8,0.2c-1.5,0-2.9-0.3-4.1-0.8
	c-1.2-0.6-2.2-1.3-3-2.3c-0.8-1-1.4-2.1-1.9-3.4c-0.4-1.3-0.6-2.7-0.6-4.2c0-1.5,0.2-2.9,0.7-4.2c0.5-1.3,1.2-2.5,2-3.4
	c0.9-1,1.9-1.7,3.2-2.3c1.2-0.6,2.6-0.8,4.2-0.8c1,0,1.9,0.1,2.8,0.4c0.9,0.2,1.7,0.6,2.4,1c0.7,0.4,1.4,0.9,2,1.5
	c0.6,0.6,1,1.3,1.4,2l-3.7,2.1c-0.2-0.4-0.5-0.9-0.8-1.2c-0.3-0.4-0.7-0.7-1.1-1c-0.4-0.3-0.8-0.5-1.3-0.7c-0.5-0.2-1.1-0.2-1.7-0.2
	c-1,0-1.8,0.2-2.5,0.6c-0.7,0.4-1.3,0.9-1.8,1.5c-0.5,0.6-0.8,1.4-1,2.2c-0.2,0.8-0.3,1.7-0.3,2.6V22.6z M89.9,11.7
	c1.6,0,3,0.3,4.2,0.8c1.2,0.6,2.3,1.3,3.1,2.3c0.9,1,1.5,2.1,2,3.4c0.5,1.3,0.7,2.7,0.7,4.2c0,1.5-0.2,2.9-0.7,4.2
	c-0.4,1.3-1.1,2.5-2,3.4c-0.9,1-1.9,1.7-3.1,2.3c-1.2,0.6-2.6,0.8-4.2,0.8c-1.6,0-3-0.3-4.2-0.8c-1.2-0.6-2.3-1.3-3.1-2.3
	c-0.9-1-1.5-2.1-2-3.4c-0.4-1.3-0.7-2.7-0.7-4.2c0-1.5,0.2-2.9,0.7-4.2c0.5-1.3,1.1-2.5,2-3.4c0.9-1,1.9-1.7,3.1-2.3
	C87,12,88.4,11.7,89.9,11.7z M89.9,29.5c0.9,0,1.7-0.2,2.4-0.5c0.7-0.4,1.3-0.8,1.8-1.5c0.5-0.6,0.8-1.3,1.1-2.2
	c0.2-0.8,0.4-1.8,0.4-2.8v-0.1c0-1-0.1-1.9-0.4-2.7c-0.2-0.8-0.6-1.6-1.1-2.2c-0.5-0.6-1.1-1.1-1.8-1.4c-0.7-0.4-1.5-0.5-2.4-0.5
	s-1.7,0.2-2.4,0.5c-0.7,0.3-1.3,0.8-1.8,1.4c-0.5,0.6-0.8,1.3-1.1,2.2c-0.2,0.8-0.4,1.8-0.4,2.7v0.1c0,1,0.1,1.9,0.4,2.8
	c0.2,0.8,0.6,1.6,1.1,2.2c0.5,0.6,1.1,1.1,1.8,1.5C88.2,29.3,89,29.5,89.9,29.5z M107.5,33l-5.9-21h4.8l4.1,15.8h0.1l4-15.8h4.7
	l-5.9,21H107.5z M119.8,30.6c0-0.4,0.1-0.7,0.2-1c0.1-0.3,0.3-0.6,0.6-0.8c0.2-0.2,0.5-0.4,0.8-0.6c0.3-0.1,0.7-0.2,1-0.2
	c0.4,0,0.7,0.1,1,0.2c0.3,0.1,0.6,0.3,0.8,0.6c0.2,0.2,0.4,0.5,0.6,0.8c0.1,0.3,0.2,0.6,0.2,1c0,0.4-0.1,0.7-0.2,1
	c-0.1,0.3-0.3,0.6-0.6,0.8c-0.2,0.2-0.5,0.4-0.8,0.6c-0.3,0.1-0.7,0.2-1,0.2c-0.4,0-0.7-0.1-1-0.2c-0.3-0.1-0.6-0.3-0.8-0.6
	c-0.2-0.2-0.4-0.5-0.6-0.8C119.9,31.3,119.8,31,119.8,30.6z M137.1,29.5c0.6,0,1.2-0.1,1.7-0.3c0.5-0.2,1-0.5,1.4-0.8
	c0.4-0.4,0.7-0.8,0.9-1.4c0.2-0.6,0.3-1.2,0.3-2V12h4.2v13.7c0,1.2-0.2,2.2-0.6,3.2c-0.4,0.9-1,1.8-1.8,2.4
	c-0.8,0.7-1.6,1.2-2.7,1.5c-1,0.4-2.2,0.5-3.4,0.5c-1.2,0-2.4-0.2-3.4-0.5c-1-0.4-1.9-0.9-2.7-1.5c-0.8-0.7-1.4-1.5-1.8-2.4
	c-0.4-0.9-0.6-2-0.6-3.2V12h4.2v13c0,0.8,0.1,1.4,0.3,2c0.2,0.6,0.5,1,0.9,1.4c0.4,0.4,0.8,0.6,1.4,0.8
	C135.9,29.4,136.5,29.5,137.1,29.5z M149.8,12h4.2v9.1l7.5-9.1h5.2l-7.3,8.3l7.8,12.7h-4.9l-5.6-9.4l-2.7,3V33h-4.2V12z"/>
<path class="st2" d="M226,18.5l6.5,7l6.5-7"/>
<path class="st0" d="M256.9,15.6c0.8,0,1.6,0.2,2.2,0.5c0.7,0.3,1.2,0.7,1.7,1.2c0.5,0.5,0.8,1.1,1.1,1.8c0.2,0.7,0.4,1.4,0.4,2.2
	c0,0.8-0.1,1.6-0.4,2.3c-0.2,0.7-0.6,1.3-1.1,1.8c-0.5,0.5-1,0.9-1.7,1.2c-0.7,0.3-1.4,0.4-2.2,0.4c-0.8,0-1.6-0.1-2.2-0.4
	c-0.7-0.3-1.2-0.7-1.7-1.2c-0.5-0.5-0.8-1.1-1.1-1.8c-0.2-0.7-0.4-1.5-0.4-2.3c0-0.8,0.1-1.6,0.4-2.2c0.2-0.7,0.6-1.3,1.1-1.8
	c0.5-0.5,1-0.9,1.7-1.2C255.3,15.8,256.1,15.6,256.9,15.6z M256.9,25.1c0.5,0,0.9-0.1,1.3-0.3c0.4-0.2,0.7-0.4,0.9-0.8
	s0.4-0.7,0.6-1.2c0.1-0.4,0.2-0.9,0.2-1.5v-0.1c0-0.5-0.1-1-0.2-1.5c-0.1-0.5-0.3-0.8-0.6-1.2c-0.3-0.3-0.6-0.6-0.9-0.8
	c-0.4-0.2-0.8-0.3-1.3-0.3c-0.5,0-0.9,0.1-1.3,0.3c-0.4,0.2-0.7,0.4-0.9,0.8c-0.2,0.3-0.4,0.7-0.6,1.2c-0.1,0.4-0.2,0.9-0.2,1.5v0.1
	c0,0.5,0.1,1,0.2,1.5c0.1,0.4,0.3,0.8,0.6,1.2c0.3,0.3,0.6,0.6,0.9,0.8C256,25,256.4,25.1,256.9,25.1z M263.8,18.6h2.2v0.7
	c0.1-0.1,0.2-0.2,0.4-0.3c0.1-0.1,0.3-0.2,0.5-0.3c0.2-0.1,0.4-0.1,0.6-0.2c0.2-0.1,0.4-0.1,0.7-0.1c0.5,0,0.9,0.1,1.2,0.2
	c0.4,0.1,0.7,0.3,0.9,0.6c0.2,0.3,0.4,0.6,0.6,0.9c0.1,0.3,0.2,0.7,0.2,1.1V27h-2.2v-4.9c0-0.3,0-0.5-0.1-0.8
	c-0.1-0.2-0.2-0.4-0.3-0.5c-0.1-0.1-0.3-0.2-0.4-0.3c-0.2-0.1-0.3-0.1-0.5-0.1c-0.2,0-0.4,0-0.6,0.1c-0.2,0.1-0.4,0.2-0.5,0.4
	c-0.1,0.2-0.2,0.4-0.3,0.6c-0.1,0.2-0.1,0.5-0.1,0.8V27h-2.2V18.6z M274.6,23.6c0,0.2,0.1,0.5,0.2,0.7c0.1,0.2,0.3,0.4,0.5,0.5
	c0.2,0.1,0.4,0.3,0.6,0.3c0.2,0.1,0.5,0.1,0.8,0.1c0.3,0,0.7-0.1,1-0.2c0.4-0.1,0.7-0.3,1-0.5l1,1.5c-0.4,0.3-0.9,0.6-1.4,0.8
	c-0.6,0.2-1.2,0.3-1.8,0.3c-0.6,0-1.1-0.1-1.6-0.3c-0.5-0.2-1-0.5-1.3-0.9c-0.4-0.4-0.7-0.8-0.9-1.4c-0.2-0.5-0.3-1.1-0.3-1.8
	c0-0.6,0.1-1.2,0.3-1.7c0.2-0.5,0.5-1,0.8-1.4c0.4-0.4,0.8-0.7,1.3-0.9c0.5-0.2,1-0.3,1.6-0.3c0.6,0,1.1,0.1,1.5,0.3
	c0.5,0.2,0.9,0.5,1.2,0.8c0.3,0.4,0.6,0.8,0.8,1.3c0.2,0.5,0.3,1.1,0.3,1.7v1H274.6z M276.3,20.3c-0.5,0-0.9,0.2-1.2,0.5
	c-0.3,0.3-0.5,0.7-0.6,1.1h3.4c0-0.4-0.2-0.8-0.5-1.1C277.2,20.5,276.8,20.3,276.3,20.3z M284.7,15.8h2.3v9.1h4.4V27h-6.7V15.8z
	 M296.3,18.5c0.6,0,1.2,0.1,1.7,0.3c0.5,0.2,0.9,0.5,1.3,0.9c0.4,0.4,0.6,0.9,0.8,1.4c0.2,0.5,0.3,1.1,0.3,1.7
	c0,0.6-0.1,1.2-0.3,1.7c-0.2,0.5-0.5,1-0.8,1.4c-0.4,0.4-0.8,0.7-1.3,0.9c-0.5,0.2-1.1,0.3-1.7,0.3c-0.6,0-1.2-0.1-1.7-0.3
	c-0.5-0.2-0.9-0.5-1.3-0.9c-0.4-0.4-0.6-0.8-0.8-1.4c-0.2-0.5-0.3-1.1-0.3-1.7c0-0.6,0.1-1.2,0.3-1.7c0.2-0.5,0.5-1,0.8-1.4
	c0.4-0.4,0.8-0.7,1.3-0.9C295.1,18.6,295.7,18.5,296.3,18.5z M296.3,25.2c0.3,0,0.6-0.1,0.8-0.2c0.2-0.1,0.4-0.3,0.6-0.5
	c0.2-0.2,0.3-0.4,0.4-0.7c0.1-0.3,0.1-0.6,0.1-0.9v-0.1c0-0.3,0-0.6-0.1-0.9c-0.1-0.3-0.2-0.5-0.4-0.7c-0.2-0.2-0.4-0.4-0.6-0.5
	c-0.2-0.1-0.5-0.2-0.8-0.2c-0.3,0-0.6,0.1-0.8,0.2c-0.2,0.1-0.4,0.3-0.6,0.5c-0.2,0.2-0.3,0.4-0.4,0.7c-0.1,0.3-0.1,0.6-0.1,0.9v0.1
	c0,0.3,0,0.7,0.1,0.9c0.1,0.3,0.2,0.5,0.4,0.7c0.2,0.2,0.4,0.4,0.6,0.5C295.7,25.1,296,25.2,296.3,25.2z M306.9,25.5
	c-0.2,0.2-0.5,0.4-0.8,0.6c-0.3,0.1-0.7,0.2-1.1,0.2c-0.6,0-1.1-0.1-1.5-0.3c-0.4-0.2-0.8-0.5-1.1-0.8c-0.3-0.3-0.5-0.8-0.7-1.2
	c-0.2-0.5-0.2-1-0.2-1.6c0-0.6,0.1-1.1,0.2-1.5c0.2-0.5,0.4-0.9,0.7-1.2c0.3-0.3,0.7-0.6,1.1-0.8c0.4-0.2,0.9-0.3,1.5-0.3
	c0.4,0,0.8,0.1,1.1,0.2c0.3,0.1,0.6,0.3,0.8,0.6v-0.6h2.2v8.3c0,0.5-0.1,0.9-0.3,1.3c-0.2,0.4-0.5,0.7-0.8,0.9
	c-0.3,0.2-0.7,0.4-1.2,0.5c-0.4,0.1-0.9,0.2-1.4,0.2c-0.6,0-1.2-0.1-1.9-0.2c-0.7-0.1-1.2-0.3-1.7-0.5l0.6-1.7
	c0.1,0.1,0.3,0.1,0.5,0.2c0.2,0.1,0.4,0.1,0.7,0.2c0.2,0.1,0.5,0.1,0.8,0.1c0.3,0,0.5,0.1,0.8,0.1c0.2,0,0.4,0,0.6-0.1
	c0.2,0,0.4-0.1,0.5-0.2c0.2-0.1,0.3-0.2,0.4-0.4c0.1-0.2,0.1-0.4,0.1-0.6V25.5z M303.7,22.4c0,0.3,0,0.5,0.1,0.8
	c0.1,0.2,0.2,0.4,0.3,0.6c0.1,0.2,0.3,0.3,0.5,0.4c0.2,0.1,0.5,0.1,0.8,0.1c0.6,0,1-0.2,1.3-0.6c0.2-0.4,0.4-0.8,0.4-1.4v-0.1
	c0-0.3,0-0.5-0.1-0.8c-0.1-0.2-0.2-0.4-0.3-0.6c-0.1-0.2-0.3-0.3-0.5-0.4c-0.2-0.1-0.5-0.1-0.8-0.1c-0.6,0-1,0.2-1.3,0.6
	C303.8,21.3,303.7,21.8,303.7,22.4L303.7,22.4z M313.1,27h-2.2v-8.4h2.2V27z M310.7,16.4c0-0.2,0-0.3,0.1-0.5
	c0.1-0.2,0.2-0.3,0.3-0.4c0.1-0.1,0.3-0.2,0.4-0.3c0.2-0.1,0.3-0.1,0.5-0.1c0.2,0,0.3,0,0.5,0.1c0.2,0.1,0.3,0.2,0.4,0.3
	c0.1,0.1,0.2,0.3,0.3,0.4c0.1,0.2,0.1,0.3,0.1,0.5c0,0.2,0,0.4-0.1,0.5c-0.1,0.2-0.2,0.3-0.3,0.4c-0.1,0.1-0.3,0.2-0.4,0.3
	c-0.2,0.1-0.3,0.1-0.5,0.1c-0.2,0-0.4,0-0.5-0.1c-0.2-0.1-0.3-0.2-0.4-0.3c-0.1-0.1-0.2-0.3-0.3-0.4
	C310.7,16.8,310.7,16.6,310.7,16.4z M314.9,18.6h2.2v0.7c0.1-0.1,0.2-0.2,0.4-0.3c0.1-0.1,0.3-0.2,0.5-0.3c0.2-0.1,0.4-0.1,0.6-0.2
	c0.2-0.1,0.4-0.1,0.7-0.1c0.5,0,0.9,0.1,1.2,0.2c0.4,0.1,0.7,0.3,0.9,0.6c0.2,0.3,0.4,0.6,0.6,0.9c0.1,0.3,0.2,0.7,0.2,1.1V27H320
	v-4.9c0-0.3,0-0.5-0.1-0.8c-0.1-0.2-0.2-0.4-0.3-0.5c-0.1-0.1-0.3-0.2-0.4-0.3c-0.2-0.1-0.3-0.1-0.5-0.1c-0.2,0-0.4,0-0.6,0.1
	c-0.2,0.1-0.4,0.2-0.5,0.4c-0.1,0.2-0.2,0.4-0.3,0.6c-0.1,0.2-0.1,0.5-0.1,0.8V27h-2.2V18.6z"/>
<circle class="st0" cx="344" cy="22" r="11"/>
<path class="st3" d="M336.3,29.8c0.9-3.4,4-5.8,7.7-5.8s6.8,2.5,7.7,5.8c-0.9,0.9-2,1.6-3.1,2.2H344h-4.6
	C338.2,31.5,337.2,30.7,336.3,29.8z"/>
<circle class="st4" cx="344" cy="18.8" r="3.8"/>
<circle class="st2" cx="344" cy="22" r="10"/>
<rect y="47" class="st4" width="375" height="10"/>
<rect y="57" class="st5" width="375" height="44"/>
<path class="st1" d="M17.3,80.3c0.2,0.2,0.4,0.4,0.6,0.6c0.2,0.2,0.5,0.4,0.8,0.5c0.3,0.1,0.6,0.3,1,0.4c0.4,0.1,0.7,0.1,1.1,0.1
	c0.8,0,1.3-0.2,1.7-0.5c0.4-0.3,0.6-0.7,0.6-1.2c0-0.5-0.2-0.8-0.5-1.1c-0.4-0.2-0.9-0.4-1.7-0.6l-0.4-0.1c-0.6-0.1-1.1-0.2-1.7-0.4
	c-0.6-0.2-1-0.4-1.5-0.7c-0.4-0.3-0.8-0.7-1.1-1.2c-0.3-0.5-0.4-1.1-0.4-1.8c0-0.4,0.1-0.9,0.3-1.3c0.2-0.5,0.5-0.9,0.9-1.3
	c0.4-0.4,0.9-0.7,1.6-1c0.6-0.2,1.4-0.4,2.3-0.4c1.1,0,2,0.2,2.9,0.5c0.8,0.4,1.5,0.8,2.1,1.4l-1.8,1.7c-0.4-0.4-0.8-0.7-1.4-0.9
	c-0.6-0.2-1.2-0.3-1.8-0.3c-0.7,0-1.2,0.1-1.6,0.4c-0.4,0.3-0.6,0.6-0.6,1c0,0.3,0.1,0.5,0.2,0.7c0.1,0.2,0.3,0.3,0.5,0.5
	c0.2,0.1,0.5,0.2,0.8,0.3s0.7,0.2,1.1,0.2l0.2,0c0.5,0.1,1.1,0.2,1.6,0.4c0.5,0.1,1,0.4,1.4,0.7c0.4,0.3,0.8,0.7,1,1.2
	c0.3,0.5,0.4,1.1,0.4,1.8c0,0.7-0.1,1.3-0.4,1.8c-0.3,0.5-0.6,1-1.1,1.3c-0.5,0.4-1,0.6-1.6,0.8c-0.6,0.2-1.2,0.3-1.9,0.3
	c-0.7,0-1.3-0.1-1.8-0.2c-0.6-0.1-1.1-0.3-1.5-0.5c-0.5-0.2-0.9-0.4-1.2-0.7c-0.4-0.3-0.7-0.5-0.9-0.8L17.3,80.3z M30.1,79.9
	c0,0.3,0.1,0.6,0.3,0.8c0.1,0.2,0.3,0.5,0.6,0.6c0.2,0.2,0.5,0.3,0.8,0.4c0.3,0.1,0.6,0.1,0.9,0.1c0.4,0,0.8-0.1,1.2-0.2
	c0.4-0.1,0.8-0.4,1.2-0.6l1.2,1.8c-0.5,0.4-1,0.7-1.7,0.9c-0.7,0.2-1.4,0.4-2.2,0.4c-0.7,0-1.3-0.1-1.9-0.4c-0.6-0.2-1.1-0.6-1.6-1
	c-0.5-0.4-0.8-1-1.1-1.6c-0.3-0.6-0.4-1.4-0.4-2.2c0-0.7,0.1-1.4,0.3-2c0.2-0.6,0.6-1.2,1-1.6c0.4-0.5,0.9-0.8,1.5-1.1
	c0.6-0.3,1.2-0.4,1.9-0.4c0.7,0,1.3,0.1,1.8,0.4c0.6,0.2,1.1,0.6,1.5,1c0.4,0.4,0.7,0.9,1,1.5c0.2,0.6,0.4,1.3,0.4,2v1.2H30.1z
	 M32.2,76.1c-0.6,0-1,0.2-1.4,0.6c-0.4,0.4-0.6,0.8-0.7,1.3h4c0-0.5-0.2-1-0.6-1.3C33.2,76.3,32.8,76.1,32.2,76.1z M44.1,76.6h-0.3
	c-0.4,0-0.7,0-1,0.1c-0.3,0.1-0.6,0.2-0.9,0.4c-0.3,0.2-0.5,0.5-0.6,0.8c-0.1,0.3-0.2,0.8-0.2,1.3V84h-2.6v-9.9H41v1.1
	c0.1-0.2,0.2-0.3,0.4-0.5s0.4-0.3,0.6-0.4c0.2-0.1,0.5-0.2,0.8-0.3c0.3-0.1,0.6-0.1,0.9-0.1h0.4V76.6z M47.8,84l-3-9.9h2.9l1.8,6.8
	l1.8-6.8H54L51,84H47.8z M57.8,84h-2.6v-9.9h2.6V84z M55,71.5c0-0.2,0-0.4,0.1-0.6c0.1-0.2,0.2-0.4,0.3-0.5c0.1-0.1,0.3-0.3,0.5-0.3
	c0.2-0.1,0.4-0.1,0.6-0.1c0.2,0,0.4,0,0.6,0.1c0.2,0.1,0.4,0.2,0.5,0.3c0.1,0.1,0.3,0.3,0.3,0.5c0.1,0.2,0.1,0.4,0.1,0.6
	c0,0.2,0,0.4-0.1,0.6c-0.1,0.2-0.2,0.3-0.3,0.5c-0.1,0.1-0.3,0.2-0.5,0.3C57,73,56.8,73,56.5,73c-0.2,0-0.4,0-0.6-0.1
	c-0.2-0.1-0.3-0.2-0.5-0.3c-0.1-0.1-0.2-0.3-0.3-0.5C55,71.9,55,71.7,55,71.5z M62.2,79.1c0,0.3,0,0.6,0.1,1
	c0.1,0.3,0.2,0.6,0.4,0.9c0.2,0.3,0.4,0.5,0.7,0.6c0.3,0.2,0.6,0.2,1,0.2c0.3,0,0.5,0,0.7-0.1c0.2-0.1,0.4-0.2,0.6-0.3
	c0.2-0.1,0.3-0.3,0.4-0.4c0.1-0.2,0.2-0.3,0.3-0.5l2.2,1.2c-0.2,0.4-0.4,0.7-0.7,1.1c-0.3,0.3-0.6,0.6-1,0.8
	c-0.4,0.2-0.8,0.4-1.2,0.5c-0.5,0.1-0.9,0.2-1.4,0.2c-0.7,0-1.3-0.1-1.9-0.4c-0.6-0.3-1.1-0.6-1.5-1.1c-0.4-0.5-0.8-1-1-1.6
	c-0.2-0.6-0.4-1.3-0.4-2.1c0-0.7,0.1-1.4,0.4-2c0.2-0.6,0.6-1.2,1-1.6c0.4-0.5,0.9-0.8,1.5-1.1c0.6-0.3,1.2-0.4,1.9-0.4
	c0.5,0,1,0.1,1.4,0.2c0.5,0.1,0.9,0.3,1.2,0.5c0.4,0.2,0.7,0.5,1,0.8c0.3,0.3,0.5,0.7,0.7,1.1l-2.2,1.2c-0.1-0.2-0.2-0.4-0.3-0.5
	c-0.1-0.2-0.3-0.3-0.4-0.4c-0.2-0.1-0.3-0.2-0.6-0.3c-0.2-0.1-0.4-0.1-0.7-0.1c-0.4,0-0.7,0.1-1,0.3c-0.3,0.2-0.5,0.4-0.7,0.6
	c-0.2,0.3-0.3,0.6-0.4,0.9C62.2,78.3,62.2,78.7,62.2,79.1L62.2,79.1z M72.4,79.9c0,0.3,0.1,0.6,0.3,0.8c0.1,0.2,0.3,0.5,0.6,0.6
	c0.2,0.2,0.5,0.3,0.8,0.4c0.3,0.1,0.6,0.1,0.9,0.1c0.4,0,0.8-0.1,1.2-0.2c0.4-0.1,0.8-0.4,1.2-0.6l1.2,1.8c-0.5,0.4-1,0.7-1.7,0.9
	c-0.7,0.2-1.4,0.4-2.2,0.4c-0.7,0-1.3-0.1-1.9-0.4c-0.6-0.2-1.1-0.6-1.6-1c-0.5-0.4-0.8-1-1.1-1.6c-0.3-0.6-0.4-1.4-0.4-2.2
	c0-0.7,0.1-1.4,0.3-2c0.2-0.6,0.6-1.2,1-1.6c0.4-0.5,0.9-0.8,1.5-1.1c0.6-0.3,1.2-0.4,1.9-0.4c0.7,0,1.3,0.1,1.8,0.4
	c0.6,0.2,1.1,0.6,1.5,1c0.4,0.4,0.7,0.9,1,1.5c0.2,0.6,0.4,1.3,0.4,2v1.2H72.4z M74.4,76.1c-0.6,0-1,0.2-1.4,0.6
	c-0.4,0.4-0.6,0.8-0.7,1.3h4c0-0.5-0.2-1-0.6-1.3C75.5,76.3,75,76.1,74.4,76.1z M84.1,74.1h2.6v0.9c0.1-0.1,0.3-0.3,0.5-0.4
	c0.2-0.1,0.4-0.2,0.6-0.3c0.2-0.1,0.4-0.2,0.7-0.2c0.3-0.1,0.5-0.1,0.8-0.1c0.5,0,1,0.1,1.4,0.3c0.4,0.2,0.8,0.4,1.1,0.7
	c0.3,0.3,0.5,0.7,0.7,1.1c0.2,0.4,0.2,0.9,0.2,1.3V84h-2.6v-5.8c0-0.4,0-0.6-0.1-0.9c-0.1-0.2-0.2-0.4-0.3-0.6
	c-0.1-0.2-0.3-0.3-0.5-0.3c-0.2-0.1-0.4-0.1-0.6-0.1c-0.3,0-0.5,0-0.7,0.1c-0.2,0.1-0.4,0.2-0.6,0.4c-0.2,0.2-0.3,0.4-0.4,0.7
	c-0.1,0.3-0.1,0.6-0.1,1V84h-2.6V74.1z M98,80c-0.3,0-0.6,0.2-0.8,0.3C97.1,80.5,97,80.7,97,81c0,0.3,0.1,0.6,0.4,0.8
	c0.2,0.2,0.6,0.3,1,0.3c0.5,0,0.9-0.1,1.1-0.4c0.3-0.3,0.4-0.6,0.4-1.1v-1L98,80z M100.3,83.1c-0.1,0.1-0.2,0.2-0.4,0.4
	c-0.1,0.1-0.3,0.3-0.5,0.4c-0.2,0.1-0.4,0.2-0.7,0.3c-0.3,0.1-0.6,0.1-0.9,0.1c-0.5,0-1-0.1-1.4-0.2c-0.4-0.2-0.8-0.4-1.1-0.7
	c-0.3-0.3-0.6-0.6-0.7-1c-0.2-0.4-0.3-0.8-0.3-1.2c0-0.8,0.2-1.5,0.7-2c0.5-0.5,1.2-0.8,2.1-1l2.9-0.4v-0.2c0-0.4-0.1-0.8-0.4-1.1
	c-0.3-0.3-0.7-0.4-1.3-0.4c-0.3,0-0.5,0-0.8,0.1c-0.3,0.1-0.5,0.1-0.8,0.2c-0.2,0.1-0.5,0.2-0.7,0.3c-0.2,0.1-0.4,0.2-0.5,0.3l-1-2
	c0.6-0.3,1.2-0.6,1.9-0.8c0.7-0.2,1.4-0.3,2.2-0.3c0.5,0,0.9,0,1.4,0.1c0.5,0.1,0.9,0.3,1.3,0.5c0.4,0.3,0.7,0.6,0.9,1
	c0.2,0.4,0.4,1,0.4,1.7v4.1c0,0.3,0.1,0.5,0.2,0.6c0.2,0.1,0.4,0.3,0.6,0.4l-1.2,1.8c-0.5,0-0.8-0.2-1.1-0.4
	C100.8,83.6,100.5,83.4,100.3,83.1z M113,84h-2.6v-5.8c0-0.4,0-0.6-0.1-0.9c-0.1-0.2-0.2-0.4-0.3-0.6c-0.1-0.2-0.3-0.3-0.5-0.3
	c-0.2-0.1-0.4-0.1-0.6-0.1c-0.2,0-0.5,0-0.7,0.1c-0.2,0.1-0.4,0.2-0.6,0.4c-0.2,0.2-0.3,0.4-0.4,0.7c-0.1,0.3-0.1,0.6-0.1,1V84h-2.6
	v-9.9h2.6v0.9c0.3-0.4,0.7-0.6,1.1-0.8c0.4-0.2,0.9-0.3,1.4-0.3c0.5,0,1,0.1,1.4,0.3c0.5,0.2,0.8,0.6,1.1,1c0.2-0.2,0.4-0.5,0.6-0.6
	c0.2-0.2,0.5-0.3,0.7-0.4c0.3-0.1,0.5-0.2,0.8-0.2c0.3,0,0.6-0.1,0.9-0.1c0.6,0,1.1,0.1,1.5,0.3c0.4,0.2,0.8,0.4,1.1,0.7
	c0.3,0.3,0.5,0.7,0.7,1.1c0.2,0.4,0.2,0.8,0.2,1.3V84h-2.6v-5.8c0-0.4,0-0.6-0.1-0.9c-0.1-0.2-0.2-0.4-0.3-0.6
	c-0.1-0.2-0.3-0.3-0.5-0.3c-0.2-0.1-0.4-0.1-0.6-0.1c-0.2,0-0.5,0-0.7,0.1c-0.2,0.1-0.4,0.2-0.6,0.4c-0.2,0.2-0.3,0.4-0.4,0.7
	c-0.1,0.3-0.1,0.6-0.1,1V84z M123.1,79.9c0,0.3,0.1,0.6,0.3,0.8c0.1,0.2,0.3,0.5,0.6,0.6c0.2,0.2,0.5,0.3,0.8,0.4
	c0.3,0.1,0.6,0.1,0.9,0.1c0.4,0,0.8-0.1,1.2-0.2c0.4-0.1,0.8-0.4,1.2-0.6l1.2,1.8c-0.5,0.4-1,0.7-1.7,0.9c-0.7,0.2-1.4,0.4-2.2,0.4
	c-0.7,0-1.3-0.1-1.9-0.4c-0.6-0.2-1.1-0.6-1.6-1c-0.5-0.4-0.8-1-1.1-1.6c-0.3-0.6-0.4-1.4-0.4-2.2c0-0.7,0.1-1.4,0.3-2
	c0.2-0.6,0.6-1.2,1-1.6c0.4-0.5,0.9-0.8,1.5-1.1c0.6-0.3,1.2-0.4,1.9-0.4c0.7,0,1.3,0.1,1.8,0.4c0.6,0.2,1.1,0.6,1.5,1
	c0.4,0.4,0.7,0.9,1,1.5c0.2,0.6,0.4,1.3,0.4,2v1.2H123.1z M125.2,76.1c-0.5,0-1,0.2-1.4,0.6c-0.4,0.4-0.6,0.8-0.7,1.3h4
	c0-0.5-0.2-1-0.6-1.3C126.2,76.3,125.7,76.1,125.2,76.1z"/>
<rect y="101" class="st5" width="375" height="45"/>
<path class="st6" d="M15,120l6.5,7l6.5-7"/>
<path class="st4" d="M44.8,124.4l-3.3-4.1v7.8h-2.3v-11.2h2.3l3.3,4.4l3.4-4.4h2.2V128h-2.3v-7.8L44.8,124.4L44.8,124.4z
	 M54.3,124.6c0,0.2,0.1,0.5,0.2,0.7c0.1,0.2,0.3,0.4,0.5,0.5c0.2,0.1,0.4,0.3,0.6,0.3c0.2,0.1,0.5,0.1,0.8,0.1c0.3,0,0.7-0.1,1-0.2
	c0.4-0.1,0.7-0.3,1-0.5l1,1.5c-0.4,0.3-0.9,0.6-1.4,0.8c-0.6,0.2-1.2,0.3-1.8,0.3c-0.6,0-1.1-0.1-1.6-0.3c-0.5-0.2-1-0.5-1.3-0.9
	c-0.4-0.4-0.7-0.8-0.9-1.4c-0.2-0.5-0.3-1.1-0.3-1.8c0-0.6,0.1-1.2,0.3-1.7c0.2-0.5,0.5-1,0.8-1.4c0.4-0.4,0.8-0.7,1.3-0.9
	c0.5-0.2,1-0.3,1.6-0.3c0.6,0,1.1,0.1,1.5,0.3c0.5,0.2,0.9,0.5,1.2,0.8c0.3,0.4,0.6,0.8,0.8,1.3c0.2,0.5,0.3,1.1,0.3,1.7v1H54.3z
	 M56.1,121.3c-0.5,0-0.9,0.2-1.2,0.5c-0.3,0.3-0.5,0.7-0.6,1.1h3.4c0-0.4-0.2-0.8-0.5-1.1C56.9,121.5,56.5,121.3,56.1,121.3z
	 M61.3,119.6h2.2v0.7c0.1-0.1,0.2-0.2,0.4-0.3c0.1-0.1,0.3-0.2,0.5-0.3c0.2-0.1,0.4-0.1,0.6-0.2c0.2-0.1,0.4-0.1,0.7-0.1
	c0.5,0,0.9,0.1,1.2,0.2c0.4,0.1,0.7,0.3,0.9,0.6c0.2,0.3,0.4,0.6,0.6,0.9c0.1,0.3,0.2,0.7,0.2,1.1v5.6h-2.2v-4.9
	c0-0.3,0-0.5-0.1-0.8c-0.1-0.2-0.2-0.4-0.3-0.5c-0.1-0.1-0.3-0.2-0.4-0.3c-0.2-0.1-0.3-0.1-0.5-0.1c-0.2,0-0.4,0-0.6,0.1
	c-0.2,0.1-0.4,0.2-0.5,0.4c-0.1,0.2-0.2,0.4-0.3,0.6c-0.1,0.2-0.1,0.5-0.1,0.8v4.6h-2.2V119.6z M77.4,128h-2.2v-0.7
	c-0.1,0.1-0.2,0.2-0.4,0.3c-0.1,0.1-0.3,0.2-0.5,0.3c-0.2,0.1-0.4,0.1-0.6,0.2c-0.2,0-0.4,0.1-0.7,0.1c-0.5,0-0.9-0.1-1.2-0.2
	c-0.4-0.2-0.7-0.4-0.9-0.6c-0.2-0.3-0.4-0.6-0.6-0.9c-0.1-0.3-0.2-0.7-0.2-1.1v-5.6h2.2v4.9c0,0.3,0,0.6,0.1,0.8
	c0.1,0.2,0.2,0.4,0.3,0.5c0.1,0.1,0.3,0.2,0.4,0.3c0.2,0.1,0.3,0.1,0.5,0.1c0.2,0,0.4,0,0.6-0.1c0.2-0.1,0.4-0.2,0.5-0.4
	c0.1-0.2,0.2-0.4,0.3-0.6c0.1-0.2,0.1-0.5,0.1-0.8v-4.6h2.2V128z"/>
<rect y="146" class="st7" width="375" height="1"/>
<path class="st8" d="M39.7,17.1c-1,0.4-2-0.1-2.4-1c-0.4-0.9,0.1-2,1-2.4c0.9-0.4,2,0.1,2.4,1C41.1,15.6,40.6,16.7,39.7,17.1
	 M33.8,23.8c-0.9,0.4-2-0.1-2.4-1s0.1-2,1-2.4c0.9-0.4,2,0.1,2.4,1S34.7,23.4,33.8,23.8 M44.6,20.1c-1,0.4-2-0.1-2.4-1
	c-0.4-0.9,0.1-2,1-2.4c0.9-0.4,2,0.1,2.4,1S45.6,19.7,44.6,20.1 M47.9,24.9c-1,0.4-2-0.1-2.4-1c-0.4-0.9,0.1-2,1-2.4
	c0.9-0.4,2,0.1,2.4,1C49.3,23.4,48.8,24.5,47.9,24.9 M34.1,11.4l2.3,1.2V9.2l-2.3,0.7l-0.2-0.2l0.9-3h-3.4l0.9,3l-0.2,0.2
	C32,10,29.8,9.2,29.8,9.2v3.4l2.3-1.2c0.1,0.1,0.1,0.2,0.2,0.2l-1.3,4c-0.1,0.2-0.1,0.4-0.1,0.6c0,1.1,0.8,2,1.9,2.2h0.7
	c1-0.2,1.9-1.1,1.9-2.1c0-0.2,0-0.4-0.1-0.6l-1.3-4C33.9,11.5,34,11.5,34.1,11.4 M26.5,17.1c0.9,0.4,2-0.1,2.4-1
	c0.4-0.9-0.1-2-1-2.4c-0.9-0.4-2,0.1-2.4,1C25.1,15.6,25.5,16.7,26.5,17.1 M21.5,20.1c0.9,0.4,2-0.1,2.4-1c0.4-0.9-0.1-2-1-2.4
	c-0.9-0.4-2,0.1-2.4,1S20.6,19.7,21.5,20.1 M18.3,24.9c0.9,0.4,2-0.1,2.4-1c0.4-0.9-0.1-2-1-2.4c-0.9-0.4-2,0.1-2.4,1
	C16.9,23.4,17.3,24.5,18.3,24.9 M33.1,35.9c4.4,0,8.6,0.3,12.3,0.8c1.1-4.5,2.4-7,3.7-8.8L46.6,27c0.2,1.3,0.3,1.9,0,2.7
	c-0.4-0.4-0.8-1.1-1.1-2.3l-1.2,4c0.7-0.5,1.3-0.8,2-0.9c-1.1,2.5-2.6,3.1-3.5,3c-1.1-0.2-1.7-1.2-1.5-2.1c0.3-1.2,1.5-1.5,2.1-0.1
	c1.1-2.3-0.8-3-2-2.3c1.9-1.9,2.1-3.5,0.6-5.6c-2.1,1.6-2.1,3.2-1.2,5.5c-1.2-1.4-3.2-0.6-2.5,1.6c0.9-1.4,2.1-0.5,1.9,0.8
	c-0.2,1.1-1.7,2.1-3.5,1.9c-2.7-0.2-2.9-2.1-2.9-3.6c0.7-0.1,1.9,0.5,2.9,1.9l0.4-4.3c-1.1,1.1-2.1,1.4-3.2,1.4c0.4-1.2,2.1-3,2.1-3
	h-5.4c0,0,1.7,1.9,2.1,3c-1.1,0-2.1-0.2-3.2-1.4l0.4,4.3c1-1.4,2.2-2,2.9-1.9c-0.1,1.5-0.2,3.4-2.9,3.6c-1.9,0.2-3.4-0.8-3.5-1.9
	c-0.2-1.3,1-2.2,1.9-0.8c0.7-2.3-1.2-3-2.5-1.6c0.9-2.2,0.9-3.9-1.2-5.5c-1.5,2-1.3,3.7,0.6,5.6c-1.2-0.7-3.1,0-2,2.3
	c0.6-1.4,1.8-1.1,2.1,0.1c0.2,0.9-0.3,1.9-1.5,2.1c-0.9,0.2-2.4-0.5-3.5-3c0.6,0,1.2,0.3,2,0.9l-1.2-4c-0.3,1.1-0.7,1.9-1.1,2.3
	c-0.3-0.8-0.2-1.4,0-2.7l-2.9,0.9c1.3,1.8,2.6,4.3,3.7,8.8C24.5,36.2,28.7,35.9,33.1,35.9"/>
</svg>
