<svg width="375" height="319" viewBox="0 0 375 319" fill="none" xmlns="http://www.w3.org/2000/svg">
<rect width="375" height="319" fill="white"/>
<rect width="375" height="47" fill="#0B0C0C"/>
<path fill-rule="evenodd" clip-rule="evenodd" d="M21.5336 15.6765C22.4826 16.0675 23.5606 15.6205 23.9466 14.6815C24.3356 13.7455 23.8906 12.6575 22.9416 12.2685C22.0106 11.8855 20.9286 12.3415 20.5416 13.2815C20.1546 14.2165 20.6026 15.2945 21.5336 15.6765Z" fill="white"/>
<path fill-rule="evenodd" clip-rule="evenodd" d="M17.3549 18.1254C18.3049 18.5174 19.3809 18.0694 19.7679 17.1304C20.1569 16.1944 19.7119 15.1064 18.7619 14.7164C17.8319 14.3344 16.7499 14.7914 16.3629 15.7314C15.9759 16.6654 16.4239 17.7434 17.3549 18.1254Z" fill="white"/>
<path fill-rule="evenodd" clip-rule="evenodd" d="M18.5453 21.7774C18.9343 20.8414 18.4893 19.7534 17.5403 19.3634C16.6093 18.9814 15.5273 19.4374 15.1393 20.3774C14.7523 21.3124 15.2003 22.3904 16.1313 22.7714C17.0813 23.1634 18.1583 22.7154 18.5453 21.7774Z" fill="white"/>
<path fill-rule="evenodd" clip-rule="evenodd" d="M26.1972 17.1488C27.1462 17.5398 28.2242 17.0928 28.6102 16.1538C28.9992 15.2178 28.5542 14.1298 27.6052 13.7398C26.6742 13.3578 25.5922 13.8138 25.2052 14.7548C24.8182 15.6888 25.2662 16.7668 26.1972 17.1488Z" fill="white"/>
<path fill-rule="evenodd" clip-rule="evenodd" d="M43.0962 15.6765C44.0272 15.2945 44.4752 14.2165 44.0872 13.2815C43.7002 12.3415 42.6192 11.8855 41.6872 12.2685C40.7382 12.6575 40.2942 13.7455 40.6822 14.6815C41.0692 15.6205 42.1462 16.0675 43.0962 15.6765Z" fill="white"/>
<path fill-rule="evenodd" clip-rule="evenodd" d="M47.2748 18.1254C48.2058 17.7434 48.6538 16.6654 48.2668 15.7314C47.8798 14.7914 46.7978 14.3344 45.8668 14.7164C44.9178 15.1064 44.4728 16.1944 44.8618 17.1304C45.2478 18.0694 46.3258 18.5174 47.2748 18.1254Z" fill="white"/>
<path fill-rule="evenodd" clip-rule="evenodd" d="M49.4894 20.3774C49.1024 19.4374 48.0204 18.9814 47.0894 19.3634C46.1404 19.7534 45.6954 20.8414 46.0844 21.7774C46.4704 22.7154 47.5484 23.1634 48.4974 22.7714C49.4294 22.3914 49.8774 21.3124 49.4894 20.3774Z" fill="white"/>
<path fill-rule="evenodd" clip-rule="evenodd" d="M38.4319 17.1488C39.3629 16.7668 39.8109 15.6888 39.4229 14.7548C39.0369 13.8138 37.9549 13.3578 37.0239 13.7398C36.0749 14.1298 35.6299 15.2178 36.0179 16.1538C36.4049 17.0928 37.4819 17.5398 38.4319 17.1488Z" fill="white"/>
<path fill-rule="evenodd" clip-rule="evenodd" d="M31.3336 12.3851C31.4026 12.4761 31.4836 12.5561 31.5746 12.6241L30.2346 16.6661C30.2336 16.6711 30.2316 16.6761 30.2306 16.6811L30.2286 16.6851L30.2296 16.6861C30.1666 16.8871 30.1326 17.1021 30.1326 17.3241C30.1326 18.4171 30.9406 19.3201 31.9906 19.4751C32.0056 19.4771 32.0216 19.4801 32.0376 19.4821C32.1276 19.4941 32.2176 19.5011 32.3106 19.5011C32.4036 19.5011 32.4946 19.4941 32.5836 19.4821C32.5996 19.4801 32.6156 19.4771 32.6306 19.4751C33.6806 19.3201 34.4886 18.4171 34.4886 17.3241C34.4886 17.1021 34.4546 16.8871 34.3926 16.6861V16.6851L34.3916 16.6811C34.3906 16.6761 34.3886 16.6711 34.3866 16.6661L33.0466 12.6241C33.1376 12.5561 33.2186 12.4761 33.2886 12.3851L33.2936 12.3801L35.6266 13.6051V10.1661L33.2966 10.9041L33.2896 10.8971C33.2246 10.8121 33.1486 10.7351 33.0636 10.6691L33.0566 10.6621L33.9946 7.71106L32.3106 7.71206L30.6266 7.71106L31.5646 10.6621L31.5576 10.6691C31.4726 10.7351 31.3966 10.8121 31.3316 10.8971L31.3246 10.9041L28.9946 10.1661V13.6051L31.3286 12.3801L31.3336 12.3851Z" fill="white"/>
<path fill-rule="evenodd" clip-rule="evenodd" d="M45.8534 25.9612C45.4394 25.5572 45.0474 24.8122 44.7414 23.6752L43.5254 27.7242C44.2654 27.2152 44.8354 26.8862 45.4884 26.8712C44.3314 29.3632 42.8854 30.0052 41.9484 29.8322C40.8044 29.6222 40.2784 28.6022 40.4564 27.7372C40.7194 26.5112 41.9774 26.1922 42.5644 27.6182C43.6894 25.3262 41.7824 24.6112 40.5554 25.2902C42.4394 23.4102 42.6554 21.7392 41.1344 19.7172C39.0144 21.3372 38.9904 22.9422 39.9434 25.1992C38.7054 23.7822 36.7804 24.5432 37.4764 26.8322C38.3684 25.4502 39.5504 26.3192 39.3644 27.6322C39.2074 28.7752 37.6984 29.6992 35.8174 29.5352C33.1234 29.2912 32.9634 27.4312 32.8954 25.8922C33.5574 25.7692 34.7504 26.3842 35.7674 27.8122L36.1424 23.5172C35.0364 24.6702 34.0304 24.8892 32.9134 24.9252C33.2854 23.7652 34.9944 21.8642 34.9944 21.8642H32.5114H32.5104H32.5084H29.6334C29.6334 21.8642 31.3424 23.7652 31.7144 24.9252C30.5974 24.8892 29.5914 24.6702 28.4854 23.5172L28.8594 27.8122C29.8774 26.3842 31.0694 25.7702 31.7324 25.8922C31.6654 27.4312 31.5054 29.2912 28.8104 29.5352C26.9294 29.6992 25.4194 28.7752 25.2634 27.6322C25.0774 26.3192 26.2594 25.4502 27.1524 26.8322C27.8474 24.5432 25.9214 23.7822 24.6844 25.1992C25.6374 22.9422 25.6124 21.3372 23.4934 19.7172C21.9724 21.7392 22.1884 23.4102 24.0724 25.2902C22.8454 24.6112 20.9394 25.3262 22.0624 27.6182C22.6504 26.1922 23.9094 26.5112 24.1714 27.7372C24.3484 28.6022 23.8224 29.6232 22.6794 29.8322C21.7424 30.0052 20.2974 29.3632 19.1394 26.8712C19.7924 26.8862 20.3624 27.2152 21.1024 27.7242L19.8864 23.6752C19.5804 24.8122 19.1884 25.5572 18.7744 25.9612C18.4944 25.1422 18.5344 24.5492 18.7834 23.2742L16.2754 24.1682C17.6074 25.9872 18.8984 28.5412 19.9584 32.9992C23.6924 32.4652 27.8824 32.1652 32.3114 32.1652C36.7404 32.1652 40.9334 32.4652 44.6694 33.0002C45.7294 28.5412 47.0194 25.9872 48.3524 24.1682L45.8434 23.2742C46.0934 24.5492 46.1324 25.1422 45.8534 25.9612Z" fill="white"/>
<path d="M62.5225 22.5557C62.5225 23.4541 62.6348 24.3184 62.8594 25.1484C63.084 25.9785 63.4258 26.7109 63.8848 27.3457C64.3438 27.9805 64.9297 28.4932 65.6426 28.8838C66.3555 29.2646 67.2051 29.4551 68.1914 29.4551C69.1387 29.4551 69.9248 29.3037 70.5498 29.001C71.1846 28.6982 71.6875 28.3223 72.0586 27.873C72.4395 27.4141 72.7031 26.9209 72.8496 26.3936C73.0059 25.8662 73.084 25.3779 73.084 24.9287V24.7236H67.708V21.4863H77.2148V33H73.4941V30.5391C73.2305 30.9492 72.9033 31.3252 72.5127 31.667C72.1221 31.999 71.6826 32.2871 71.1943 32.5312C70.7061 32.7656 70.1689 32.9512 69.583 33.0879C69.0068 33.2246 68.3916 33.293 67.7373 33.293C66.2041 33.293 64.8418 33.0146 63.6504 32.458C62.459 31.9014 61.4531 31.1348 60.6328 30.1582C59.8223 29.1816 59.2021 28.0391 58.7725 26.7305C58.3525 25.4219 58.1426 24.0107 58.1426 22.4971C58.1426 20.9932 58.377 19.5869 58.8457 18.2783C59.3242 16.96 59.998 15.8174 60.8672 14.8506C61.7461 13.874 62.8008 13.1074 64.0312 12.5508C65.2715 11.9844 66.6582 11.7012 68.1914 11.7012C69.1875 11.7012 70.1299 11.8184 71.0186 12.0527C71.917 12.2773 72.7324 12.6045 73.4648 13.0342C74.207 13.4541 74.8613 13.9668 75.4277 14.5723C75.9941 15.168 76.4531 15.832 76.8047 16.5645L73.084 18.6592C72.8594 18.21 72.5957 17.7949 72.293 17.4141C71.9902 17.0234 71.6387 16.6914 71.2383 16.418C70.8477 16.1348 70.3984 15.915 69.8906 15.7588C69.3828 15.5928 68.8164 15.5098 68.1914 15.5098C67.2051 15.5098 66.3555 15.7051 65.6426 16.0957C64.9297 16.4766 64.3438 16.9844 63.8848 17.6191C63.4258 18.2539 63.084 18.9912 62.8594 19.8311C62.6348 20.6611 62.5225 21.5205 62.5225 22.4092V22.5557ZM89.9297 11.7012C91.4922 11.7012 92.8936 11.9844 94.1338 12.5508C95.374 13.1074 96.4238 13.874 97.2832 14.8506C98.1523 15.8174 98.8115 16.96 99.2607 18.2783C99.7197 19.5869 99.9492 20.9932 99.9492 22.4971C99.9492 24.0107 99.7197 25.4219 99.2607 26.7305C98.8115 28.0391 98.1523 29.1816 97.2832 30.1582C96.4238 31.1348 95.374 31.9014 94.1338 32.458C92.8936 33.0146 91.4922 33.293 89.9297 33.293C88.3574 33.293 86.9512 33.0146 85.7109 32.458C84.4805 31.9014 83.4307 31.1348 82.5615 30.1582C81.7021 29.1816 81.043 28.0391 80.584 26.7305C80.1348 25.4219 79.9102 24.0107 79.9102 22.4971C79.9102 20.9932 80.1348 19.5869 80.584 18.2783C81.043 16.96 81.7021 15.8174 82.5615 14.8506C83.4307 13.874 84.4805 13.1074 85.7109 12.5508C86.9512 11.9844 88.3574 11.7012 89.9297 11.7012ZM89.9297 29.4551C90.8477 29.4551 91.6533 29.2842 92.3467 28.9424C93.0498 28.5908 93.6406 28.1074 94.1191 27.4922C94.5977 26.877 94.959 26.1494 95.2031 25.3096C95.4473 24.4697 95.5693 23.5518 95.5693 22.5557V22.4385C95.5693 21.4521 95.4473 20.5391 95.2031 19.6992C94.959 18.8496 94.5977 18.1172 94.1191 17.502C93.6406 16.8867 93.0498 16.4082 92.3467 16.0664C91.6533 15.7148 90.8477 15.5391 89.9297 15.5391C89.0117 15.5391 88.2012 15.7148 87.498 16.0664C86.7949 16.4082 86.2041 16.8867 85.7256 17.502C85.2568 18.1172 84.9004 18.8496 84.6562 19.6992C84.4121 20.5391 84.29 21.4521 84.29 22.4385V22.5557C84.29 23.5518 84.4121 24.4697 84.6562 25.3096C84.9004 26.1494 85.2568 26.877 85.7256 27.4922C86.2041 28.1074 86.7949 28.5908 87.498 28.9424C88.2012 29.2842 89.0117 29.4551 89.9297 29.4551ZM107.508 33L101.575 11.9941H106.336L110.394 27.7852H110.54L114.51 11.9941H119.212L113.279 33H107.508ZM119.812 30.627C119.812 30.2656 119.881 29.9287 120.018 29.6162C120.164 29.2939 120.359 29.0156 120.604 28.7812C120.848 28.5371 121.131 28.3467 121.453 28.21C121.785 28.0635 122.132 27.9902 122.493 27.9902C122.854 27.9902 123.196 28.0635 123.519 28.21C123.841 28.3467 124.124 28.5371 124.368 28.7812C124.612 29.0156 124.803 29.2939 124.939 29.6162C125.086 29.9287 125.159 30.2656 125.159 30.627C125.159 30.998 125.086 31.3447 124.939 31.667C124.803 31.9893 124.612 32.2725 124.368 32.5166C124.124 32.7607 123.841 32.9512 123.519 33.0879C123.196 33.2246 122.854 33.293 122.493 33.293C122.132 33.293 121.785 33.2246 121.453 33.0879C121.131 32.9512 120.848 32.7607 120.604 32.5166C120.359 32.2725 120.164 31.9893 120.018 31.667C119.881 31.3447 119.812 30.998 119.812 30.627ZM137.112 29.4551C137.728 29.4551 138.299 29.3672 138.826 29.1914C139.363 29.0059 139.822 28.7324 140.203 28.3711C140.594 28 140.901 27.5361 141.126 26.9795C141.351 26.4131 141.463 25.749 141.463 24.9873V11.9648H145.652V25.6172C145.652 26.7891 145.438 27.8486 145.008 28.7959C144.588 29.7432 143.997 30.5488 143.235 31.2129C142.483 31.877 141.585 32.3896 140.54 32.751C139.495 33.1123 138.353 33.293 137.112 33.293C135.872 33.293 134.729 33.1123 133.685 32.751C132.64 32.3896 131.736 31.877 130.975 31.2129C130.213 30.5488 129.617 29.7432 129.188 28.7959C128.768 27.8486 128.558 26.7891 128.558 25.6172V11.9648H132.762V24.9873C132.762 25.749 132.874 26.4131 133.099 26.9795C133.323 27.5361 133.626 28 134.007 28.3711C134.397 28.7324 134.856 29.0059 135.384 29.1914C135.921 29.3672 136.497 29.4551 137.112 29.4551ZM149.812 11.9941H154.061V21.0908L161.561 11.9941H166.79L159.495 20.3438L167.259 33H162.322L156.771 23.5811L154.061 26.6133V33H149.812V11.9941Z" fill="white"/>
<path d="M237 25.5L230.5 18.5L224 25.5" stroke="white" stroke-width="2"/>
<path d="M254.922 15.6406C255.755 15.6406 256.503 15.7917 257.164 16.0938C257.826 16.3906 258.385 16.7995 258.844 17.3203C259.307 17.8359 259.659 18.4453 259.898 19.1484C260.143 19.8464 260.266 20.5964 260.266 21.3984C260.266 22.2057 260.143 22.9583 259.898 23.6562C259.659 24.3542 259.307 24.9635 258.844 25.4844C258.385 26.0052 257.826 26.4141 257.164 26.7109C256.503 27.0078 255.755 27.1562 254.922 27.1562C254.083 27.1562 253.333 27.0078 252.672 26.7109C252.016 26.4141 251.456 26.0052 250.992 25.4844C250.534 24.9635 250.182 24.3542 249.938 23.6562C249.698 22.9583 249.578 22.2057 249.578 21.3984C249.578 20.5964 249.698 19.8464 249.938 19.1484C250.182 18.4453 250.534 17.8359 250.992 17.3203C251.456 16.7995 252.016 16.3906 252.672 16.0938C253.333 15.7917 254.083 15.6406 254.922 15.6406ZM254.922 25.1094C255.411 25.1094 255.841 25.0182 256.211 24.8359C256.586 24.6484 256.901 24.3906 257.156 24.0625C257.411 23.7344 257.604 23.3464 257.734 22.8984C257.865 22.4505 257.93 21.9609 257.93 21.4297V21.3672C257.93 20.8411 257.865 20.3542 257.734 19.9062C257.604 19.4531 257.411 19.0625 257.156 18.7344C256.901 18.4062 256.586 18.151 256.211 17.9688C255.841 17.7812 255.411 17.6875 254.922 17.6875C254.432 17.6875 254 17.7812 253.625 17.9688C253.25 18.151 252.935 18.4062 252.68 18.7344C252.43 19.0625 252.24 19.4531 252.109 19.9062C251.979 20.3542 251.914 20.8411 251.914 21.3672V21.4297C251.914 21.9609 251.979 22.4505 252.109 22.8984C252.24 23.3464 252.43 23.7344 252.68 24.0625C252.935 24.3906 253.25 24.6484 253.625 24.8359C254 25.0182 254.432 25.1094 254.922 25.1094ZM261.789 18.6328H263.945V19.3516C264.06 19.237 264.188 19.1276 264.328 19.0234C264.474 18.9141 264.633 18.8203 264.805 18.7422C264.977 18.6589 265.167 18.5938 265.375 18.5469C265.589 18.4948 265.823 18.4688 266.078 18.4688C266.531 18.4688 266.938 18.5443 267.297 18.6953C267.656 18.8411 267.958 19.0443 268.203 19.3047C268.453 19.5651 268.643 19.8698 268.773 20.2188C268.904 20.5677 268.969 20.9453 268.969 21.3516V27H266.812V22.1328C266.812 21.8359 266.779 21.5859 266.711 21.3828C266.643 21.1745 266.549 21.0078 266.43 20.8828C266.315 20.7526 266.177 20.6589 266.016 20.6016C265.859 20.5391 265.688 20.5078 265.5 20.5078C265.281 20.5078 265.076 20.5469 264.883 20.625C264.695 20.7031 264.531 20.8229 264.391 20.9844C264.25 21.1406 264.141 21.3385 264.062 21.5781C263.984 21.8177 263.945 22.099 263.945 22.4219V27H261.789V18.6328ZM272.578 23.5625C272.615 23.8125 272.693 24.0417 272.812 24.25C272.938 24.4583 273.094 24.638 273.281 24.7891C273.469 24.9349 273.685 25.0495 273.93 25.1328C274.174 25.2161 274.435 25.2578 274.711 25.2578C275.029 25.2578 275.372 25.1979 275.742 25.0781C276.112 24.9531 276.451 24.7734 276.758 24.5391L277.797 26.0547C277.406 26.3828 276.927 26.6484 276.359 26.8516C275.792 27.0547 275.188 27.1562 274.547 27.1562C273.969 27.1562 273.424 27.0573 272.914 26.8594C272.404 26.6615 271.956 26.375 271.57 26C271.19 25.625 270.888 25.1693 270.664 24.6328C270.445 24.0964 270.336 23.4922 270.336 22.8203C270.336 22.2057 270.432 21.6328 270.625 21.1016C270.823 20.5703 271.096 20.1094 271.445 19.7188C271.799 19.3281 272.221 19.0234 272.711 18.8047C273.201 18.5807 273.742 18.4688 274.336 18.4688C274.888 18.4688 275.401 18.5703 275.875 18.7734C276.349 18.9714 276.76 19.2526 277.109 19.6172C277.458 19.9766 277.732 20.4089 277.93 20.9141C278.128 21.4193 278.227 21.9766 278.227 22.5859V23.5625H272.578ZM274.328 20.3438C273.865 20.3438 273.471 20.5 273.148 20.8125C272.831 21.1198 272.646 21.4922 272.594 21.9297H275.969C275.958 21.487 275.797 21.112 275.484 20.8047C275.172 20.4974 274.786 20.3438 274.328 20.3438ZM282.734 15.7969H285V24.9062H289.438V27H282.734V15.7969ZM294.281 18.4688C294.901 18.4688 295.464 18.5807 295.969 18.8047C296.474 19.0234 296.906 19.3281 297.266 19.7188C297.625 20.1094 297.901 20.5703 298.094 21.1016C298.292 21.6328 298.391 22.2057 298.391 22.8203C298.391 23.4401 298.292 24.0156 298.094 24.5469C297.896 25.0729 297.617 25.5286 297.258 25.9141C296.898 26.2995 296.466 26.6042 295.961 26.8281C295.456 27.0469 294.896 27.1562 294.281 27.1562C293.661 27.1562 293.099 27.0469 292.594 26.8281C292.089 26.6042 291.656 26.2995 291.297 25.9141C290.938 25.5286 290.659 25.0729 290.461 24.5469C290.263 24.0156 290.164 23.4401 290.164 22.8203C290.164 22.2057 290.26 21.6328 290.453 21.1016C290.651 20.5703 290.93 20.1094 291.289 19.7188C291.648 19.3281 292.081 19.0234 292.586 18.8047C293.096 18.5807 293.661 18.4688 294.281 18.4688ZM294.281 25.1562C294.589 25.1562 294.859 25.099 295.094 24.9844C295.333 24.8698 295.534 24.7109 295.695 24.5078C295.857 24.3047 295.979 24.0625 296.062 23.7812C296.146 23.4948 296.188 23.1823 296.188 22.8438V22.7891C296.188 22.4505 296.146 22.1406 296.062 21.8594C295.979 21.5729 295.857 21.3281 295.695 21.125C295.534 20.9167 295.333 20.7552 295.094 20.6406C294.859 20.526 294.589 20.4688 294.281 20.4688C293.974 20.4688 293.701 20.526 293.461 20.6406C293.227 20.7552 293.029 20.9167 292.867 21.125C292.706 21.3281 292.583 21.5729 292.5 21.8594C292.417 22.1406 292.375 22.4505 292.375 22.7891V22.8438C292.375 23.1823 292.417 23.4948 292.5 23.7812C292.583 24.0625 292.706 24.3047 292.867 24.5078C293.029 24.7109 293.227 24.8698 293.461 24.9844C293.701 25.099 293.974 25.1562 294.281 25.1562ZM304.906 25.5156C304.714 25.75 304.443 25.9375 304.094 26.0781C303.75 26.2135 303.375 26.2812 302.969 26.2812C302.406 26.2812 301.906 26.1823 301.469 25.9844C301.031 25.7865 300.661 25.5156 300.359 25.1719C300.062 24.8229 299.833 24.4115 299.672 23.9375C299.516 23.4635 299.438 22.9427 299.438 22.375C299.438 21.8229 299.516 21.3073 299.672 20.8281C299.833 20.3438 300.062 19.9297 300.359 19.5859C300.661 19.237 301.031 18.9635 301.469 18.7656C301.906 18.5677 302.406 18.4688 302.969 18.4688C303.375 18.4688 303.75 18.5391 304.094 18.6797C304.443 18.8203 304.714 19.0078 304.906 19.2422V18.6328H307.07V26.9219C307.07 27.4323 306.974 27.8698 306.781 28.2344C306.589 28.6042 306.323 28.9062 305.984 29.1406C305.651 29.375 305.263 29.5443 304.82 29.6484C304.378 29.7578 303.906 29.8125 303.406 29.8125C302.797 29.8125 302.161 29.7396 301.5 29.5938C300.839 29.4531 300.268 29.276 299.789 29.0625L300.398 27.3203C300.544 27.3828 300.724 27.4505 300.938 27.5234C301.151 27.6016 301.38 27.6693 301.625 27.7266C301.87 27.7839 302.125 27.8307 302.391 27.8672C302.661 27.9089 302.924 27.9297 303.18 27.9297C303.404 27.9297 303.62 27.9062 303.828 27.8594C304.036 27.8177 304.219 27.7448 304.375 27.6406C304.536 27.5417 304.664 27.4089 304.758 27.2422C304.857 27.0807 304.906 26.8724 304.906 26.6172V25.5156ZM301.656 22.4062C301.656 22.6823 301.685 22.9427 301.742 23.1875C301.805 23.4271 301.901 23.6328 302.031 23.8047C302.167 23.9714 302.339 24.1042 302.547 24.2031C302.755 24.2969 303.008 24.3438 303.305 24.3438C303.893 24.3438 304.312 24.1589 304.562 23.7891C304.812 23.4141 304.938 22.9531 304.938 22.4062V22.3438C304.938 22.0677 304.909 21.8099 304.852 21.5703C304.794 21.3307 304.701 21.125 304.57 20.9531C304.44 20.7812 304.271 20.6484 304.062 20.5547C303.859 20.4557 303.607 20.4062 303.305 20.4062C302.721 20.4062 302.299 20.5911 302.039 20.9609C301.784 21.3307 301.656 21.7917 301.656 22.3438V22.4062ZM311.086 27H308.93V18.6328H311.086V27ZM308.703 16.4375C308.703 16.2604 308.737 16.0938 308.805 15.9375C308.872 15.776 308.964 15.638 309.078 15.5234C309.198 15.4036 309.336 15.3099 309.492 15.2422C309.648 15.1745 309.818 15.1406 310 15.1406C310.177 15.1406 310.344 15.1745 310.5 15.2422C310.661 15.3099 310.799 15.4036 310.914 15.5234C311.034 15.638 311.128 15.776 311.195 15.9375C311.263 16.0938 311.297 16.2604 311.297 16.4375C311.297 16.6198 311.263 16.7891 311.195 16.9453C311.128 17.1016 311.034 17.2396 310.914 17.3594C310.799 17.474 310.661 17.5651 310.5 17.6328C310.344 17.7005 310.177 17.7344 310 17.7344C309.818 17.7344 309.648 17.7005 309.492 17.6328C309.336 17.5651 309.198 17.474 309.078 17.3594C308.964 17.2396 308.872 17.1016 308.805 16.9453C308.737 16.7891 308.703 16.6198 308.703 16.4375ZM312.945 18.6328H315.102V19.3516C315.216 19.237 315.344 19.1276 315.484 19.0234C315.63 18.9141 315.789 18.8203 315.961 18.7422C316.133 18.6589 316.323 18.5938 316.531 18.5469C316.745 18.4948 316.979 18.4688 317.234 18.4688C317.688 18.4688 318.094 18.5443 318.453 18.6953C318.812 18.8411 319.115 19.0443 319.359 19.3047C319.609 19.5651 319.799 19.8698 319.93 20.2188C320.06 20.5677 320.125 20.9453 320.125 21.3516V27H317.969V22.1328C317.969 21.8359 317.935 21.5859 317.867 21.3828C317.799 21.1745 317.706 21.0078 317.586 20.8828C317.471 20.7526 317.333 20.6589 317.172 20.6016C317.016 20.5391 316.844 20.5078 316.656 20.5078C316.438 20.5078 316.232 20.5469 316.039 20.625C315.852 20.7031 315.688 20.8229 315.547 20.9844C315.406 21.1406 315.297 21.3385 315.219 21.5781C315.141 21.8177 315.102 22.099 315.102 22.4219V27H312.945V18.6328Z" fill="white"/>
<circle cx="342" cy="22" r="11" fill="white"/>
<path fill-rule="evenodd" clip-rule="evenodd" d="M334.293 29.8487C335.233 26.4753 338.327 24 342 24C345.673 24 348.768 26.4749 349.708 29.848C348.806 30.7338 347.752 31.4654 346.589 32H342H337.411C336.248 31.4655 335.195 30.7342 334.293 29.8487Z" fill="#1D70B8"/>
<circle cx="342" cy="18.75" r="3.75" fill="#1D70B8"/>
<circle cx="342" cy="22" r="10" stroke="white" stroke-width="2"/>
<rect width="375" height="82" transform="translate(0 47)" fill="#0B0C0C"/>
<path d="M17.9453 67.4297C17.9453 67.9089 18.0052 68.3698 18.125 68.8125C18.2448 69.2552 18.4271 69.6458 18.6719 69.9844C18.9167 70.3229 19.2292 70.5964 19.6094 70.8047C19.9896 71.0078 20.4427 71.1094 20.9688 71.1094C21.474 71.1094 21.8932 71.0286 22.2266 70.8672C22.5651 70.7057 22.8333 70.5052 23.0312 70.2656C23.2344 70.0208 23.375 69.7578 23.4531 69.4766C23.5365 69.1953 23.5781 68.9349 23.5781 68.6953V68.5859H20.7109V66.8594H25.7812V73H23.7969V71.6875C23.6562 71.9062 23.4818 72.1068 23.2734 72.2891C23.0651 72.4661 22.8307 72.6198 22.5703 72.75C22.3099 72.875 22.0234 72.974 21.7109 73.0469C21.4036 73.1198 21.0755 73.1562 20.7266 73.1562C19.9089 73.1562 19.1823 73.0078 18.5469 72.7109C17.9115 72.4141 17.375 72.0052 16.9375 71.4844C16.5052 70.9635 16.1745 70.3542 15.9453 69.6562C15.7214 68.9583 15.6094 68.2057 15.6094 67.3984C15.6094 66.5964 15.7344 65.8464 15.9844 65.1484C16.2396 64.4453 16.599 63.8359 17.0625 63.3203C17.5312 62.7995 18.0938 62.3906 18.75 62.0938C19.4115 61.7917 20.151 61.6406 20.9688 61.6406C21.5 61.6406 22.0026 61.7031 22.4766 61.8281C22.9557 61.9479 23.3906 62.1224 23.7812 62.3516C24.1771 62.5755 24.526 62.849 24.8281 63.1719C25.1302 63.4896 25.375 63.8438 25.5625 64.2344L23.5781 65.3516C23.4583 65.112 23.3177 64.8906 23.1562 64.6875C22.9948 64.4792 22.8073 64.3021 22.5938 64.1562C22.3854 64.0052 22.1458 63.888 21.875 63.8047C21.6042 63.7161 21.3021 63.6719 20.9688 63.6719C20.4427 63.6719 19.9896 63.776 19.6094 63.9844C19.2292 64.1875 18.9167 64.4583 18.6719 64.7969C18.4271 65.1354 18.2448 65.5286 18.125 65.9766C18.0052 66.4193 17.9453 66.8776 17.9453 67.3516V67.4297ZM32.5625 61.6406C33.3958 61.6406 34.1432 61.7917 34.8047 62.0938C35.4661 62.3906 36.026 62.7995 36.4844 63.3203C36.9479 63.8359 37.2995 64.4453 37.5391 65.1484C37.7839 65.8464 37.9062 66.5964 37.9062 67.3984C37.9062 68.2057 37.7839 68.9583 37.5391 69.6562C37.2995 70.3542 36.9479 70.9635 36.4844 71.4844C36.026 72.0052 35.4661 72.4141 34.8047 72.7109C34.1432 73.0078 33.3958 73.1562 32.5625 73.1562C31.724 73.1562 30.974 73.0078 30.3125 72.7109C29.6562 72.4141 29.0964 72.0052 28.6328 71.4844C28.1745 70.9635 27.8229 70.3542 27.5781 69.6562C27.3385 68.9583 27.2188 68.2057 27.2188 67.3984C27.2188 66.5964 27.3385 65.8464 27.5781 65.1484C27.8229 64.4453 28.1745 63.8359 28.6328 63.3203C29.0964 62.7995 29.6562 62.3906 30.3125 62.0938C30.974 61.7917 31.724 61.6406 32.5625 61.6406ZM32.5625 71.1094C33.0521 71.1094 33.4818 71.0182 33.8516 70.8359C34.2266 70.6484 34.5417 70.3906 34.7969 70.0625C35.0521 69.7344 35.2448 69.3464 35.375 68.8984C35.5052 68.4505 35.5703 67.9609 35.5703 67.4297V67.3672C35.5703 66.8411 35.5052 66.3542 35.375 65.9062C35.2448 65.4531 35.0521 65.0625 34.7969 64.7344C34.5417 64.4062 34.2266 64.151 33.8516 63.9688C33.4818 63.7812 33.0521 63.6875 32.5625 63.6875C32.0729 63.6875 31.6406 63.7812 31.2656 63.9688C30.8906 64.151 30.5755 64.4062 30.3203 64.7344C30.0703 65.0625 29.8802 65.4531 29.75 65.9062C29.6198 66.3542 29.5547 66.8411 29.5547 67.3672V67.4297C29.5547 67.9609 29.6198 68.4505 29.75 68.8984C29.8802 69.3464 30.0703 69.7344 30.3203 70.0625C30.5755 70.3906 30.8906 70.6484 31.2656 70.8359C31.6406 71.0182 32.0729 71.1094 32.5625 71.1094ZM41.9375 73L38.7734 61.7969H41.3125L43.4766 70.2188H43.5547L45.6719 61.7969H48.1797L45.0156 73H41.9375ZM48.5 71.7344C48.5 71.5417 48.5365 71.362 48.6094 71.1953C48.6875 71.0234 48.7917 70.875 48.9219 70.75C49.0521 70.6198 49.2031 70.5182 49.375 70.4453C49.5521 70.3672 49.737 70.3281 49.9297 70.3281C50.1224 70.3281 50.3047 70.3672 50.4766 70.4453C50.6484 70.5182 50.7995 70.6198 50.9297 70.75C51.0599 70.875 51.1615 71.0234 51.2344 71.1953C51.3125 71.362 51.3516 71.5417 51.3516 71.7344C51.3516 71.9323 51.3125 72.1172 51.2344 72.2891C51.1615 72.4609 51.0599 72.612 50.9297 72.7422C50.7995 72.8724 50.6484 72.974 50.4766 73.0469C50.3047 73.1198 50.1224 73.1562 49.9297 73.1562C49.737 73.1562 49.5521 73.1198 49.375 73.0469C49.2031 72.974 49.0521 72.8724 48.9219 72.7422C48.7917 72.612 48.6875 72.4609 48.6094 72.2891C48.5365 72.1172 48.5 71.9323 48.5 71.7344ZM57.7266 71.1094C58.0547 71.1094 58.3594 71.0625 58.6406 70.9688C58.9271 70.8698 59.1719 70.724 59.375 70.5312C59.5833 70.3333 59.7474 70.0859 59.8672 69.7891C59.987 69.487 60.0469 69.1328 60.0469 68.7266V61.7812H62.2812V69.0625C62.2812 69.6875 62.1667 70.2526 61.9375 70.7578C61.7135 71.263 61.3984 71.6927 60.9922 72.0469C60.5911 72.401 60.112 72.6745 59.5547 72.8672C58.9974 73.0599 58.388 73.1562 57.7266 73.1562C57.0651 73.1562 56.4557 73.0599 55.8984 72.8672C55.3411 72.6745 54.8594 72.401 54.4531 72.0469C54.0469 71.6927 53.7292 71.263 53.5 70.7578C53.276 70.2526 53.1641 69.6875 53.1641 69.0625V61.7812H55.4062V68.7266C55.4062 69.1328 55.4661 69.487 55.5859 69.7891C55.7057 70.0859 55.8672 70.3333 56.0703 70.5312C56.2786 70.724 56.5234 70.8698 56.8047 70.9688C57.0911 71.0625 57.3984 71.1094 57.7266 71.1094ZM64.5 61.7969H66.7656V66.6484L70.7656 61.7969H73.5547L69.6641 66.25L73.8047 73H71.1719L68.2109 67.9766L66.7656 69.5938V73H64.5V61.7969ZM82.6094 61.6406C83.4427 61.6406 84.1901 61.7917 84.8516 62.0938C85.513 62.3906 86.0729 62.7995 86.5312 63.3203C86.9948 63.8359 87.3464 64.4453 87.5859 65.1484C87.8307 65.8464 87.9531 66.5964 87.9531 67.3984C87.9531 68.2057 87.8307 68.9583 87.5859 69.6562C87.3464 70.3542 86.9948 70.9635 86.5312 71.4844C86.0729 72.0052 85.513 72.4141 84.8516 72.7109C84.1901 73.0078 83.4427 73.1562 82.6094 73.1562C81.7708 73.1562 81.0208 73.0078 80.3594 72.7109C79.7031 72.4141 79.1432 72.0052 78.6797 71.4844C78.2214 70.9635 77.8698 70.3542 77.625 69.6562C77.3854 68.9583 77.2656 68.2057 77.2656 67.3984C77.2656 66.5964 77.3854 65.8464 77.625 65.1484C77.8698 64.4453 78.2214 63.8359 78.6797 63.3203C79.1432 62.7995 79.7031 62.3906 80.3594 62.0938C81.0208 61.7917 81.7708 61.6406 82.6094 61.6406ZM82.6094 71.1094C83.099 71.1094 83.5286 71.0182 83.8984 70.8359C84.2734 70.6484 84.5885 70.3906 84.8438 70.0625C85.099 69.7344 85.2917 69.3464 85.4219 68.8984C85.5521 68.4505 85.6172 67.9609 85.6172 67.4297V67.3672C85.6172 66.8411 85.5521 66.3542 85.4219 65.9062C85.2917 65.4531 85.099 65.0625 84.8438 64.7344C84.5885 64.4062 84.2734 64.151 83.8984 63.9688C83.5286 63.7812 83.099 63.6875 82.6094 63.6875C82.1198 63.6875 81.6875 63.7812 81.3125 63.9688C80.9375 64.151 80.6224 64.4062 80.3672 64.7344C80.1172 65.0625 79.9271 65.4531 79.7969 65.9062C79.6667 66.3542 79.6016 66.8411 79.6016 67.3672V67.4297C79.6016 67.9609 79.6667 68.4505 79.7969 68.8984C79.9271 69.3464 80.1172 69.7344 80.3672 70.0625C80.6224 70.3906 80.9375 70.6484 81.3125 70.8359C81.6875 71.0182 82.1198 71.1094 82.6094 71.1094ZM89.4766 64.6328H91.6328V65.3516C91.7474 65.237 91.875 65.1276 92.0156 65.0234C92.1615 64.9141 92.3203 64.8203 92.4922 64.7422C92.6641 64.6589 92.8542 64.5938 93.0625 64.5469C93.276 64.4948 93.5104 64.4688 93.7656 64.4688C94.2188 64.4688 94.625 64.5443 94.9844 64.6953C95.3438 64.8411 95.6458 65.0443 95.8906 65.3047C96.1406 65.5651 96.3307 65.8698 96.4609 66.2188C96.5911 66.5677 96.6562 66.9453 96.6562 67.3516V73H94.5V68.1328C94.5 67.8359 94.4661 67.5859 94.3984 67.3828C94.3307 67.1745 94.237 67.0078 94.1172 66.8828C94.0026 66.7526 93.8646 66.6589 93.7031 66.6016C93.5469 66.5391 93.375 66.5078 93.1875 66.5078C92.9688 66.5078 92.763 66.5469 92.5703 66.625C92.3828 66.7031 92.2188 66.8229 92.0781 66.9844C91.9375 67.1406 91.8281 67.3385 91.75 67.5781C91.6719 67.8177 91.6328 68.099 91.6328 68.4219V73H89.4766V64.6328ZM100.266 69.5625C100.302 69.8125 100.38 70.0417 100.5 70.25C100.625 70.4583 100.781 70.638 100.969 70.7891C101.156 70.9349 101.372 71.0495 101.617 71.1328C101.862 71.2161 102.122 71.2578 102.398 71.2578C102.716 71.2578 103.06 71.1979 103.43 71.0781C103.799 70.9531 104.138 70.7734 104.445 70.5391L105.484 72.0547C105.094 72.3828 104.615 72.6484 104.047 72.8516C103.479 73.0547 102.875 73.1562 102.234 73.1562C101.656 73.1562 101.112 73.0573 100.602 72.8594C100.091 72.6615 99.6432 72.375 99.2578 72C98.8776 71.625 98.5755 71.1693 98.3516 70.6328C98.1328 70.0964 98.0234 69.4922 98.0234 68.8203C98.0234 68.2057 98.1198 67.6328 98.3125 67.1016C98.5104 66.5703 98.7839 66.1094 99.1328 65.7188C99.487 65.3281 99.9089 65.0234 100.398 64.8047C100.888 64.5807 101.43 64.4688 102.023 64.4688C102.576 64.4688 103.089 64.5703 103.562 64.7734C104.036 64.9714 104.448 65.2526 104.797 65.6172C105.146 65.9766 105.419 66.4089 105.617 66.9141C105.815 67.4193 105.914 67.9766 105.914 68.5859V69.5625H100.266ZM102.016 66.3438C101.552 66.3438 101.159 66.5 100.836 66.8125C100.518 67.1198 100.333 67.4922 100.281 67.9297H103.656C103.646 67.487 103.484 67.112 103.172 66.8047C102.859 66.4974 102.474 66.3438 102.016 66.3438ZM110.422 61.7969H112.688V70.9062H117.125V73H110.422V61.7969ZM121.969 64.4688C122.589 64.4688 123.151 64.5807 123.656 64.8047C124.161 65.0234 124.594 65.3281 124.953 65.7188C125.312 66.1094 125.589 66.5703 125.781 67.1016C125.979 67.6328 126.078 68.2057 126.078 68.8203C126.078 69.4401 125.979 70.0156 125.781 70.5469C125.583 71.0729 125.305 71.5286 124.945 71.9141C124.586 72.2995 124.154 72.6042 123.648 72.8281C123.143 73.0469 122.583 73.1562 121.969 73.1562C121.349 73.1562 120.786 73.0469 120.281 72.8281C119.776 72.6042 119.344 72.2995 118.984 71.9141C118.625 71.5286 118.346 71.0729 118.148 70.5469C117.951 70.0156 117.852 69.4401 117.852 68.8203C117.852 68.2057 117.948 67.6328 118.141 67.1016C118.339 66.5703 118.617 66.1094 118.977 65.7188C119.336 65.3281 119.768 65.0234 120.273 64.8047C120.784 64.5807 121.349 64.4688 121.969 64.4688ZM121.969 71.1562C122.276 71.1562 122.547 71.099 122.781 70.9844C123.021 70.8698 123.221 70.7109 123.383 70.5078C123.544 70.3047 123.667 70.0625 123.75 69.7812C123.833 69.4948 123.875 69.1823 123.875 68.8438V68.7891C123.875 68.4505 123.833 68.1406 123.75 67.8594C123.667 67.5729 123.544 67.3281 123.383 67.125C123.221 66.9167 123.021 66.7552 122.781 66.6406C122.547 66.526 122.276 66.4688 121.969 66.4688C121.661 66.4688 121.388 66.526 121.148 66.6406C120.914 66.7552 120.716 66.9167 120.555 67.125C120.393 67.3281 120.271 67.5729 120.188 67.8594C120.104 68.1406 120.062 68.4505 120.062 68.7891V68.8438C120.062 69.1823 120.104 69.4948 120.188 69.7812C120.271 70.0625 120.393 70.3047 120.555 70.5078C120.716 70.7109 120.914 70.8698 121.148 70.9844C121.388 71.099 121.661 71.1562 121.969 71.1562ZM132.594 71.5156C132.401 71.75 132.13 71.9375 131.781 72.0781C131.438 72.2135 131.062 72.2812 130.656 72.2812C130.094 72.2812 129.594 72.1823 129.156 71.9844C128.719 71.7865 128.349 71.5156 128.047 71.1719C127.75 70.8229 127.521 70.4115 127.359 69.9375C127.203 69.4635 127.125 68.9427 127.125 68.375C127.125 67.8229 127.203 67.3073 127.359 66.8281C127.521 66.3438 127.75 65.9297 128.047 65.5859C128.349 65.237 128.719 64.9635 129.156 64.7656C129.594 64.5677 130.094 64.4688 130.656 64.4688C131.062 64.4688 131.438 64.5391 131.781 64.6797C132.13 64.8203 132.401 65.0078 132.594 65.2422V64.6328H134.758V72.9219C134.758 73.4323 134.661 73.8698 134.469 74.2344C134.276 74.6042 134.01 74.9062 133.672 75.1406C133.339 75.375 132.951 75.5443 132.508 75.6484C132.065 75.7578 131.594 75.8125 131.094 75.8125C130.484 75.8125 129.849 75.7396 129.188 75.5938C128.526 75.4531 127.956 75.276 127.477 75.0625L128.086 73.3203C128.232 73.3828 128.411 73.4505 128.625 73.5234C128.839 73.6016 129.068 73.6693 129.312 73.7266C129.557 73.7839 129.812 73.8307 130.078 73.8672C130.349 73.9089 130.612 73.9297 130.867 73.9297C131.091 73.9297 131.307 73.9062 131.516 73.8594C131.724 73.8177 131.906 73.7448 132.062 73.6406C132.224 73.5417 132.352 73.4089 132.445 73.2422C132.544 73.0807 132.594 72.8724 132.594 72.6172V71.5156ZM129.344 68.4062C129.344 68.6823 129.372 68.9427 129.43 69.1875C129.492 69.4271 129.589 69.6328 129.719 69.8047C129.854 69.9714 130.026 70.1042 130.234 70.2031C130.443 70.2969 130.695 70.3438 130.992 70.3438C131.581 70.3438 132 70.1589 132.25 69.7891C132.5 69.4141 132.625 68.9531 132.625 68.4062V68.3438C132.625 68.0677 132.596 67.8099 132.539 67.5703C132.482 67.3307 132.388 67.125 132.258 66.9531C132.128 66.7812 131.958 66.6484 131.75 66.5547C131.547 66.4557 131.294 66.4062 130.992 66.4062C130.409 66.4062 129.987 66.5911 129.727 66.9609C129.471 67.3307 129.344 67.7917 129.344 68.3438V68.4062ZM138.773 73H136.617V64.6328H138.773V73ZM136.391 62.4375C136.391 62.2604 136.424 62.0938 136.492 61.9375C136.56 61.776 136.651 61.638 136.766 61.5234C136.885 61.4036 137.023 61.3099 137.18 61.2422C137.336 61.1745 137.505 61.1406 137.688 61.1406C137.865 61.1406 138.031 61.1745 138.188 61.2422C138.349 61.3099 138.487 61.4036 138.602 61.5234C138.721 61.638 138.815 61.776 138.883 61.9375C138.951 62.0938 138.984 62.2604 138.984 62.4375C138.984 62.6198 138.951 62.7891 138.883 62.9453C138.815 63.1016 138.721 63.2396 138.602 63.3594C138.487 63.474 138.349 63.5651 138.188 63.6328C138.031 63.7005 137.865 63.7344 137.688 63.7344C137.505 63.7344 137.336 63.7005 137.18 63.6328C137.023 63.5651 136.885 63.474 136.766 63.3594C136.651 63.2396 136.56 63.1016 136.492 62.9453C136.424 62.7891 136.391 62.6198 136.391 62.4375ZM140.633 64.6328H142.789V65.3516C142.904 65.237 143.031 65.1276 143.172 65.0234C143.318 64.9141 143.477 64.8203 143.648 64.7422C143.82 64.6589 144.01 64.5938 144.219 64.5469C144.432 64.4948 144.667 64.4688 144.922 64.4688C145.375 64.4688 145.781 64.5443 146.141 64.6953C146.5 64.8411 146.802 65.0443 147.047 65.3047C147.297 65.5651 147.487 65.8698 147.617 66.2188C147.747 66.5677 147.812 66.9453 147.812 67.3516V73H145.656V68.1328C145.656 67.8359 145.622 67.5859 145.555 67.3828C145.487 67.1745 145.393 67.0078 145.273 66.8828C145.159 66.7526 145.021 66.6589 144.859 66.6016C144.703 66.5391 144.531 66.5078 144.344 66.5078C144.125 66.5078 143.919 66.5469 143.727 66.625C143.539 66.7031 143.375 66.8229 143.234 66.9844C143.094 67.1406 142.984 67.3385 142.906 67.5781C142.828 67.8177 142.789 68.099 142.789 68.4219V73H140.633V64.6328Z" fill="white"/>
<line x1="15" y1="88.75" x2="360" y2="88.75" stroke="#F3F2F1" stroke-width="0.5"/>
<path d="M16.9219 110.852C17.0677 111.018 17.2448 111.182 17.4531 111.344C17.6615 111.505 17.8906 111.651 18.1406 111.781C18.3958 111.906 18.6719 112.008 18.9688 112.086C19.2656 112.159 19.5859 112.195 19.9297 112.195C20.5703 112.195 21.0599 112.062 21.3984 111.797C21.7422 111.526 21.9141 111.198 21.9141 110.812C21.9141 110.411 21.763 110.107 21.4609 109.898C21.1641 109.69 20.6901 109.526 20.0391 109.406L19.6875 109.344C19.2188 109.26 18.7526 109.151 18.2891 109.016C17.8255 108.88 17.4062 108.685 17.0312 108.43C16.6562 108.174 16.3516 107.849 16.1172 107.453C15.8828 107.052 15.7656 106.547 15.7656 105.938C15.7656 105.583 15.8438 105.214 16 104.828C16.1562 104.438 16.4036 104.081 16.7422 103.758C17.0859 103.43 17.526 103.161 18.0625 102.953C18.6042 102.745 19.2578 102.641 20.0234 102.641C20.9297 102.641 21.737 102.792 22.4453 103.094C23.1589 103.391 23.7344 103.784 24.1719 104.273L22.6641 105.68C22.3568 105.341 21.9609 105.076 21.4766 104.883C20.9974 104.69 20.5026 104.594 19.9922 104.594C19.4036 104.594 18.9427 104.706 18.6094 104.93C18.2812 105.154 18.1172 105.445 18.1172 105.805C18.1172 106.039 18.1693 106.234 18.2734 106.391C18.3828 106.547 18.5339 106.677 18.7266 106.781C18.9193 106.88 19.151 106.964 19.4219 107.031C19.6927 107.099 19.9948 107.167 20.3281 107.234L20.5078 107.266C20.9557 107.349 21.401 107.456 21.8438 107.586C22.2865 107.711 22.6875 107.898 23.0469 108.148C23.4115 108.393 23.7057 108.716 23.9297 109.117C24.1536 109.513 24.2656 110.021 24.2656 110.641C24.2656 111.203 24.1484 111.701 23.9141 112.133C23.6797 112.565 23.3698 112.935 22.9844 113.242C22.599 113.544 22.1536 113.773 21.6484 113.93C21.1432 114.081 20.6172 114.156 20.0703 114.156C19.5182 114.156 19.0052 114.109 18.5312 114.016C18.0625 113.922 17.6354 113.789 17.25 113.617C16.8698 113.445 16.5286 113.253 16.2266 113.039C15.9297 112.826 15.6693 112.596 15.4453 112.352L16.9219 110.852ZM28.1016 114H25.9453V105.633H28.1016V114ZM25.7188 103.438C25.7188 103.26 25.7526 103.094 25.8203 102.938C25.888 102.776 25.9792 102.638 26.0938 102.523C26.2135 102.404 26.3516 102.31 26.5078 102.242C26.6641 102.174 26.8333 102.141 27.0156 102.141C27.1927 102.141 27.3594 102.174 27.5156 102.242C27.6771 102.31 27.8151 102.404 27.9297 102.523C28.0495 102.638 28.1432 102.776 28.2109 102.938C28.2786 103.094 28.3125 103.26 28.3125 103.438C28.3125 103.62 28.2786 103.789 28.2109 103.945C28.1432 104.102 28.0495 104.24 27.9297 104.359C27.8151 104.474 27.6771 104.565 27.5156 104.633C27.3594 104.701 27.1927 104.734 27.0156 104.734C26.8333 104.734 26.6641 104.701 26.5078 104.633C26.3516 104.565 26.2135 104.474 26.0938 104.359C25.9792 104.24 25.888 104.102 25.8203 103.945C25.7526 103.789 25.7188 103.62 25.7188 103.438ZM35.0469 112.516C34.8542 112.75 34.5833 112.938 34.2344 113.078C33.8906 113.214 33.5156 113.281 33.1094 113.281C32.5469 113.281 32.0469 113.182 31.6094 112.984C31.1719 112.786 30.8021 112.516 30.5 112.172C30.2031 111.823 29.974 111.411 29.8125 110.938C29.6562 110.464 29.5781 109.943 29.5781 109.375C29.5781 108.823 29.6562 108.307 29.8125 107.828C29.974 107.344 30.2031 106.93 30.5 106.586C30.8021 106.237 31.1719 105.964 31.6094 105.766C32.0469 105.568 32.5469 105.469 33.1094 105.469C33.5156 105.469 33.8906 105.539 34.2344 105.68C34.5833 105.82 34.8542 106.008 35.0469 106.242V105.633H37.2109V113.922C37.2109 114.432 37.1146 114.87 36.9219 115.234C36.7292 115.604 36.4635 115.906 36.125 116.141C35.7917 116.375 35.4036 116.544 34.9609 116.648C34.5182 116.758 34.0469 116.812 33.5469 116.812C32.9375 116.812 32.3021 116.74 31.6406 116.594C30.9792 116.453 30.4089 116.276 29.9297 116.062L30.5391 114.32C30.6849 114.383 30.8646 114.451 31.0781 114.523C31.2917 114.602 31.5208 114.669 31.7656 114.727C32.0104 114.784 32.2656 114.831 32.5312 114.867C32.8021 114.909 33.0651 114.93 33.3203 114.93C33.5443 114.93 33.7604 114.906 33.9688 114.859C34.1771 114.818 34.3594 114.745 34.5156 114.641C34.6771 114.542 34.8047 114.409 34.8984 114.242C34.9974 114.081 35.0469 113.872 35.0469 113.617V112.516ZM31.7969 109.406C31.7969 109.682 31.8255 109.943 31.8828 110.188C31.9453 110.427 32.0417 110.633 32.1719 110.805C32.3073 110.971 32.4792 111.104 32.6875 111.203C32.8958 111.297 33.1484 111.344 33.4453 111.344C34.0339 111.344 34.4531 111.159 34.7031 110.789C34.9531 110.414 35.0781 109.953 35.0781 109.406V109.344C35.0781 109.068 35.0495 108.81 34.9922 108.57C34.9349 108.331 34.8411 108.125 34.7109 107.953C34.5807 107.781 34.4115 107.648 34.2031 107.555C34 107.456 33.7474 107.406 33.4453 107.406C32.862 107.406 32.4401 107.591 32.1797 107.961C31.9245 108.331 31.7969 108.792 31.7969 109.344V109.406ZM39.0703 105.633H41.2266V106.352C41.3411 106.237 41.4688 106.128 41.6094 106.023C41.7552 105.914 41.9141 105.82 42.0859 105.742C42.2578 105.659 42.4479 105.594 42.6562 105.547C42.8698 105.495 43.1042 105.469 43.3594 105.469C43.8125 105.469 44.2188 105.544 44.5781 105.695C44.9375 105.841 45.2396 106.044 45.4844 106.305C45.7344 106.565 45.9245 106.87 46.0547 107.219C46.1849 107.568 46.25 107.945 46.25 108.352V114H44.0938V109.133C44.0938 108.836 44.0599 108.586 43.9922 108.383C43.9245 108.174 43.8307 108.008 43.7109 107.883C43.5964 107.753 43.4583 107.659 43.2969 107.602C43.1406 107.539 42.9688 107.508 42.7812 107.508C42.5625 107.508 42.3568 107.547 42.1641 107.625C41.9766 107.703 41.8125 107.823 41.6719 107.984C41.5312 108.141 41.4219 108.339 41.3438 108.578C41.2656 108.818 41.2266 109.099 41.2266 109.422V114H39.0703V105.633ZM54.625 105.469C55.2448 105.469 55.8073 105.581 56.3125 105.805C56.8177 106.023 57.25 106.328 57.6094 106.719C57.9688 107.109 58.2448 107.57 58.4375 108.102C58.6354 108.633 58.7344 109.206 58.7344 109.82C58.7344 110.44 58.6354 111.016 58.4375 111.547C58.2396 112.073 57.9609 112.529 57.6016 112.914C57.2422 113.299 56.8099 113.604 56.3047 113.828C55.7995 114.047 55.2396 114.156 54.625 114.156C54.0052 114.156 53.4427 114.047 52.9375 113.828C52.4323 113.604 52 113.299 51.6406 112.914C51.2812 112.529 51.0026 112.073 50.8047 111.547C50.6068 111.016 50.5078 110.44 50.5078 109.82C50.5078 109.206 50.6042 108.633 50.7969 108.102C50.9948 107.57 51.2734 107.109 51.6328 106.719C51.9922 106.328 52.4245 106.023 52.9297 105.805C53.4401 105.581 54.0052 105.469 54.625 105.469ZM54.625 112.156C54.9323 112.156 55.2031 112.099 55.4375 111.984C55.6771 111.87 55.8776 111.711 56.0391 111.508C56.2005 111.305 56.3229 111.062 56.4062 110.781C56.4896 110.495 56.5312 110.182 56.5312 109.844V109.789C56.5312 109.451 56.4896 109.141 56.4062 108.859C56.3229 108.573 56.2005 108.328 56.0391 108.125C55.8776 107.917 55.6771 107.755 55.4375 107.641C55.2031 107.526 54.9323 107.469 54.625 107.469C54.3177 107.469 54.0443 107.526 53.8047 107.641C53.5703 107.755 53.3724 107.917 53.2109 108.125C53.0495 108.328 52.9271 108.573 52.8438 108.859C52.7604 109.141 52.7188 109.451 52.7188 109.789V109.844C52.7188 110.182 52.7604 110.495 52.8438 110.781C52.9271 111.062 53.0495 111.305 53.2109 111.508C53.3724 111.711 53.5703 111.87 53.8047 111.984C54.0443 112.099 54.3177 112.156 54.625 112.156ZM67.2812 114H65.125V113.281C65.0052 113.396 64.875 113.508 64.7344 113.617C64.5938 113.721 64.4375 113.815 64.2656 113.898C64.0938 113.977 63.901 114.039 63.6875 114.086C63.4792 114.133 63.2474 114.156 62.9922 114.156C62.5391 114.156 62.1328 114.083 61.7734 113.938C61.4141 113.786 61.1094 113.583 60.8594 113.328C60.6146 113.068 60.4271 112.763 60.2969 112.414C60.1667 112.065 60.1016 111.688 60.1016 111.281V105.633H62.2578V110.492C62.2578 110.789 62.2891 111.042 62.3516 111.25C62.4193 111.458 62.5104 111.628 62.625 111.758C62.7448 111.883 62.8854 111.977 63.0469 112.039C63.2083 112.096 63.3828 112.125 63.5703 112.125C63.7891 112.125 63.9922 112.086 64.1797 112.008C64.3724 111.93 64.5391 111.812 64.6797 111.656C64.8203 111.495 64.9297 111.294 65.0078 111.055C65.0859 110.815 65.125 110.534 65.125 110.211V105.633H67.2812V114ZM72.2344 111.508C72.2344 111.607 72.2474 111.701 72.2734 111.789C72.2995 111.878 72.3438 111.956 72.4062 112.023C72.474 112.086 72.5677 112.135 72.6875 112.172C72.8073 112.208 72.9609 112.227 73.1484 112.227C73.2266 112.227 73.3151 112.224 73.4141 112.219C73.513 112.208 73.612 112.198 73.7109 112.188C73.8099 112.177 73.901 112.164 73.9844 112.148C74.0729 112.133 74.1458 112.12 74.2031 112.109L74.3984 114.016C74.1953 114.042 73.9844 114.065 73.7656 114.086C73.5781 114.107 73.3698 114.122 73.1406 114.133C72.9115 114.148 72.6797 114.156 72.4453 114.156C71.7005 114.156 71.1198 113.987 70.7031 113.648C70.2865 113.31 70.0781 112.771 70.0781 112.031V107.508H68.5703V105.633H70.0781V103.266L72.2344 102.688V105.633H74.4297V107.508H72.2344V111.508Z" fill="white"/>
<rect y="129" width="375" height="10" fill="#1D70B8"/>
<rect width="375" height="44" transform="translate(0 139)" fill="#F3F2F1"/>
<path d="M17.2822 162.261C17.4554 162.459 17.6657 162.654 17.9131 162.846C18.1605 163.037 18.4326 163.211 18.7295 163.365C19.0326 163.514 19.3604 163.634 19.7129 163.727C20.0654 163.814 20.4458 163.857 20.854 163.857C21.6147 163.857 22.1961 163.699 22.5981 163.384C23.0063 163.062 23.2104 162.673 23.2104 162.215C23.2104 161.739 23.0311 161.377 22.6724 161.129C22.3198 160.882 21.757 160.687 20.9839 160.545L20.5664 160.471C20.0098 160.372 19.4562 160.242 18.9058 160.081C18.3553 159.92 17.8574 159.688 17.4121 159.385C16.9668 159.082 16.605 158.696 16.3267 158.226C16.0483 157.749 15.9092 157.149 15.9092 156.426C15.9092 156.005 16.002 155.566 16.1875 155.108C16.373 154.645 16.6668 154.221 17.0688 153.837C17.4771 153.448 17.9997 153.129 18.6367 152.882C19.2799 152.634 20.0562 152.511 20.9653 152.511C22.0415 152.511 23.0002 152.69 23.8413 153.049C24.6886 153.401 25.3721 153.868 25.8916 154.45L24.1011 156.12C23.7362 155.718 23.2661 155.402 22.6909 155.173C22.1219 154.944 21.5343 154.83 20.9282 154.83C20.2293 154.83 19.682 154.963 19.2861 155.229C18.8965 155.495 18.7017 155.841 18.7017 156.268C18.7017 156.546 18.7635 156.778 18.8872 156.964C19.0171 157.149 19.1965 157.304 19.4253 157.428C19.6541 157.545 19.9294 157.644 20.251 157.725C20.5726 157.805 20.9313 157.885 21.3271 157.966L21.5405 158.003C22.0724 158.102 22.6012 158.229 23.127 158.383C23.6527 158.532 24.1289 158.754 24.5557 159.051C24.9886 159.342 25.3381 159.725 25.604 160.202C25.87 160.672 26.0029 161.275 26.0029 162.011C26.0029 162.679 25.8638 163.269 25.5854 163.783C25.3071 164.296 24.9391 164.735 24.4814 165.1C24.0238 165.459 23.495 165.731 22.895 165.917C22.2951 166.096 21.6704 166.186 21.021 166.186C20.3654 166.186 19.7562 166.13 19.1934 166.019C18.6367 165.907 18.1296 165.75 17.6719 165.545C17.2204 165.341 16.8153 165.112 16.4565 164.859C16.104 164.605 15.7948 164.333 15.5288 164.042L17.2822 162.261ZM30.1406 161.918C30.1839 162.215 30.2767 162.487 30.4189 162.734C30.5674 162.982 30.7529 163.195 30.9756 163.375C31.1982 163.548 31.4549 163.684 31.7456 163.783C32.0363 163.882 32.3455 163.931 32.6733 163.931C33.0506 163.931 33.4588 163.86 33.8979 163.718C34.3371 163.569 34.7391 163.356 35.104 163.078L36.3379 164.877C35.874 165.267 35.305 165.583 34.6309 165.824C33.9567 166.065 33.2393 166.186 32.4785 166.186C31.792 166.186 31.1457 166.068 30.5396 165.833C29.9334 165.598 29.4015 165.258 28.9438 164.812C28.4924 164.367 28.1336 163.826 27.8677 163.189C27.6079 162.552 27.478 161.834 27.478 161.037C27.478 160.307 27.5924 159.626 27.8213 158.996C28.0563 158.365 28.381 157.817 28.7954 157.354C29.216 156.89 29.717 156.528 30.2983 156.268C30.8797 156.002 31.5229 155.869 32.228 155.869C32.8836 155.869 33.4928 155.99 34.0557 156.231C34.6185 156.466 35.1071 156.8 35.5215 157.233C35.9359 157.66 36.2606 158.173 36.4956 158.773C36.7306 159.373 36.8481 160.035 36.8481 160.758V161.918H30.1406ZM32.2188 158.096C31.6683 158.096 31.2013 158.281 30.8179 158.652C30.4406 159.017 30.221 159.459 30.1592 159.979H34.167C34.1546 159.453 33.9629 159.008 33.5918 158.643C33.2207 158.278 32.763 158.096 32.2188 158.096ZM44.0659 158.55H43.7969C43.432 158.55 43.0825 158.587 42.7485 158.662C42.4207 158.736 42.13 158.872 41.8765 159.07C41.6229 159.262 41.4188 159.528 41.2642 159.868C41.1157 160.208 41.0415 160.644 41.0415 161.176V166H38.481V156.064H41.0415V157.187C41.1466 157.02 41.2827 156.859 41.4497 156.704C41.6167 156.549 41.8115 156.413 42.0342 156.296C42.2568 156.172 42.5073 156.073 42.7856 155.999C43.064 155.925 43.3639 155.888 43.6855 155.888H44.0659V158.55ZM47.7676 166L44.7246 156.064H47.582L49.3633 162.901L51.1909 156.064H54.002L50.9775 166H47.7676ZM57.8335 166H55.2729V156.064H57.8335V166ZM55.0039 153.457C55.0039 153.247 55.0441 153.049 55.1245 152.863C55.2049 152.672 55.3132 152.508 55.4492 152.372C55.5915 152.229 55.7554 152.118 55.9409 152.038C56.1265 151.957 56.3275 151.917 56.5439 151.917C56.7542 151.917 56.9521 151.957 57.1377 152.038C57.3294 152.118 57.4933 152.229 57.6294 152.372C57.7716 152.508 57.883 152.672 57.9634 152.863C58.0438 153.049 58.084 153.247 58.084 153.457C58.084 153.674 58.0438 153.875 57.9634 154.06C57.883 154.246 57.7716 154.41 57.6294 154.552C57.4933 154.688 57.3294 154.796 57.1377 154.876C56.9521 154.957 56.7542 154.997 56.5439 154.997C56.3275 154.997 56.1265 154.957 55.9409 154.876C55.7554 154.796 55.5915 154.688 55.4492 154.552C55.3132 154.41 55.2049 154.246 55.1245 154.06C55.0441 153.875 55.0039 153.674 55.0039 153.457ZM62.166 161.083C62.166 161.405 62.2093 161.729 62.2959 162.057C62.3825 162.379 62.5155 162.669 62.6948 162.929C62.8742 163.189 63.103 163.402 63.3813 163.569C63.6659 163.73 64.0029 163.811 64.3926 163.811C64.6462 163.811 64.875 163.777 65.0791 163.708C65.2894 163.64 65.4749 163.548 65.6357 163.43C65.8027 163.306 65.9481 163.164 66.0718 163.003C66.2017 162.836 66.313 162.657 66.4058 162.465L68.6509 163.625C68.4901 164.015 68.2674 164.367 67.9829 164.683C67.7046 164.998 67.3799 165.267 67.0088 165.49C66.6377 165.712 66.2264 165.882 65.7749 166C65.3234 166.124 64.8441 166.186 64.3369 166.186C63.638 166.186 62.9948 166.056 62.4072 165.796C61.8197 165.53 61.3125 165.168 60.8857 164.71C60.459 164.253 60.125 163.712 59.8838 163.087C59.6426 162.456 59.522 161.773 59.522 161.037C59.522 160.307 59.6426 159.626 59.8838 158.996C60.125 158.365 60.459 157.817 60.8857 157.354C61.3125 156.89 61.8197 156.528 62.4072 156.268C62.9948 156.002 63.638 155.869 64.3369 155.869C64.8441 155.869 65.3234 155.931 65.7749 156.055C66.2264 156.172 66.6377 156.345 67.0088 156.574C67.3799 156.797 67.7046 157.066 67.9829 157.381C68.2674 157.697 68.4901 158.049 68.6509 158.439L66.4058 159.599C66.313 159.407 66.2017 159.231 66.0718 159.07C65.9481 158.903 65.8027 158.761 65.6357 158.643C65.4749 158.519 65.2894 158.424 65.0791 158.355C64.875 158.281 64.6462 158.244 64.3926 158.244C64.0029 158.244 63.6659 158.328 63.3813 158.495C63.103 158.655 62.8742 158.869 62.6948 159.135C62.5155 159.395 62.3825 159.688 62.2959 160.016C62.2093 160.344 62.166 160.672 62.166 161V161.083ZM72.3711 161.918C72.4144 162.215 72.5072 162.487 72.6494 162.734C72.7979 162.982 72.9834 163.195 73.2061 163.375C73.4287 163.548 73.6854 163.684 73.9761 163.783C74.2668 163.882 74.576 163.931 74.9038 163.931C75.2811 163.931 75.6893 163.86 76.1284 163.718C76.5675 163.569 76.9696 163.356 77.3345 163.078L78.5684 164.877C78.1045 165.267 77.5355 165.583 76.8613 165.824C76.1872 166.065 75.4697 166.186 74.709 166.186C74.0225 166.186 73.3761 166.068 72.77 165.833C72.1639 165.598 71.632 165.258 71.1743 164.812C70.7228 164.367 70.3641 163.826 70.0981 163.189C69.8384 162.552 69.7085 161.834 69.7085 161.037C69.7085 160.307 69.8229 159.626 70.0518 158.996C70.2868 158.365 70.6115 157.817 71.0259 157.354C71.4465 156.89 71.9474 156.528 72.5288 156.268C73.1102 156.002 73.7534 155.869 74.4585 155.869C75.1141 155.869 75.7233 155.99 76.2861 156.231C76.849 156.466 77.3376 156.8 77.752 157.233C78.1663 157.66 78.491 158.173 78.7261 158.773C78.9611 159.373 79.0786 160.035 79.0786 160.758V161.918H72.3711ZM74.4492 158.096C73.8988 158.096 73.4318 158.281 73.0483 158.652C72.6711 159.017 72.4515 159.459 72.3896 159.979H76.3975C76.3851 159.453 76.1934 159.008 75.8223 158.643C75.4512 158.278 74.9935 158.096 74.4492 158.096ZM84.144 156.064H86.7046V156.917C86.8407 156.781 86.9922 156.652 87.1592 156.528C87.3324 156.398 87.521 156.287 87.7251 156.194C87.9292 156.095 88.1549 156.018 88.4023 155.962C88.6559 155.9 88.9342 155.869 89.2373 155.869C89.7754 155.869 90.2578 155.959 90.6846 156.138C91.1113 156.311 91.4701 156.553 91.7607 156.862C92.0576 157.171 92.2834 157.533 92.438 157.947C92.5926 158.362 92.6699 158.81 92.6699 159.292V166H90.1094V160.22C90.1094 159.868 90.0692 159.571 89.9888 159.33C89.9084 159.082 89.797 158.884 89.6548 158.736C89.5187 158.581 89.3548 158.47 89.1631 158.402C88.9775 158.328 88.7734 158.291 88.5508 158.291C88.291 158.291 88.0467 158.337 87.8179 158.43C87.5952 158.522 87.4004 158.665 87.2334 158.856C87.0664 159.042 86.9365 159.277 86.8438 159.562C86.751 159.846 86.7046 160.18 86.7046 160.563V166H84.144V156.064ZM98.0229 161.964C97.7075 162.014 97.4539 162.125 97.2622 162.298C97.0705 162.465 96.9746 162.694 96.9746 162.985C96.9746 163.306 97.0921 163.585 97.3271 163.82C97.5622 164.049 97.9085 164.163 98.3662 164.163C98.8486 164.163 99.229 164.024 99.5073 163.746C99.7856 163.467 99.9248 163.099 99.9248 162.642V161.64L98.0229 161.964ZM100.342 165.063C100.237 165.181 100.107 165.307 99.9526 165.443C99.8042 165.573 99.6248 165.694 99.4146 165.805C99.2104 165.91 98.9692 166 98.6909 166.074C98.4126 166.148 98.1003 166.186 97.7539 166.186C97.2591 166.186 96.8014 166.108 96.3809 165.954C95.9665 165.793 95.6016 165.57 95.2861 165.286C94.9707 165.001 94.7233 164.673 94.5439 164.302C94.3646 163.925 94.2749 163.517 94.2749 163.078C94.2749 162.28 94.5223 161.627 95.0171 161.12C95.5119 160.613 96.1953 160.294 97.0674 160.165L99.9248 159.747V159.562C99.9248 159.116 99.7887 158.764 99.5166 158.504C99.2445 158.244 98.8022 158.114 98.1899 158.114C97.9364 158.114 97.6797 158.145 97.4199 158.207C97.1602 158.263 96.9097 158.328 96.6685 158.402C96.4334 158.476 96.2139 158.563 96.0098 158.662C95.8057 158.754 95.6263 158.838 95.4717 158.912L94.4697 156.955C95.0387 156.639 95.6696 156.379 96.3623 156.175C97.0612 155.971 97.7848 155.869 98.5332 155.869C98.9909 155.869 99.4517 155.919 99.9155 156.018C100.386 156.11 100.809 156.284 101.187 156.537C101.57 156.791 101.882 157.137 102.124 157.576C102.365 158.009 102.485 158.563 102.485 159.237V163.319C102.485 163.61 102.56 163.826 102.708 163.968C102.863 164.104 103.073 164.231 103.339 164.349L102.179 166.186C101.709 166.136 101.332 166.015 101.047 165.824C100.763 165.626 100.528 165.372 100.342 165.063ZM113.006 166H110.436V160.22C110.436 159.868 110.396 159.571 110.315 159.33C110.241 159.082 110.136 158.884 110 158.736C109.864 158.581 109.706 158.473 109.527 158.411C109.347 158.343 109.153 158.309 108.942 158.309C108.695 158.309 108.463 158.352 108.247 158.439C108.036 158.526 107.851 158.662 107.69 158.847C107.535 159.033 107.412 159.271 107.319 159.562C107.232 159.846 107.189 160.186 107.189 160.582V166H104.628V156.064H107.189V156.936C107.517 156.571 107.897 156.302 108.33 156.129C108.769 155.956 109.239 155.869 109.74 155.869C110.254 155.869 110.733 155.974 111.178 156.185C111.63 156.395 112.004 156.741 112.301 157.224C112.474 156.976 112.672 156.766 112.895 156.593C113.123 156.42 113.368 156.28 113.627 156.175C113.887 156.07 114.156 155.993 114.435 155.943C114.719 155.894 115.01 155.869 115.307 155.869C115.863 155.869 116.358 155.962 116.791 156.147C117.23 156.327 117.601 156.571 117.904 156.88C118.207 157.19 118.439 157.545 118.6 157.947C118.761 158.349 118.841 158.773 118.841 159.218V166H116.253V160.22C116.253 159.868 116.213 159.571 116.132 159.33C116.058 159.082 115.953 158.884 115.817 158.736C115.681 158.581 115.52 158.473 115.334 158.411C115.155 158.343 114.96 158.309 114.75 158.309C114.503 158.309 114.274 158.352 114.063 158.439C113.853 158.526 113.668 158.662 113.507 158.847C113.352 159.033 113.229 159.271 113.136 159.562C113.049 159.846 113.006 160.186 113.006 160.582V166ZM123.118 161.918C123.161 162.215 123.254 162.487 123.396 162.734C123.545 162.982 123.73 163.195 123.953 163.375C124.176 163.548 124.432 163.684 124.723 163.783C125.014 163.882 125.323 163.931 125.651 163.931C126.028 163.931 126.436 163.86 126.875 163.718C127.315 163.569 127.717 163.356 128.082 163.078L129.315 164.877C128.852 165.267 128.283 165.583 127.608 165.824C126.934 166.065 126.217 166.186 125.456 166.186C124.77 166.186 124.123 166.068 123.517 165.833C122.911 165.598 122.379 165.258 121.921 164.812C121.47 164.367 121.111 163.826 120.845 163.189C120.585 162.552 120.456 161.834 120.456 161.037C120.456 160.307 120.57 159.626 120.799 158.996C121.034 158.365 121.359 157.817 121.773 157.354C122.194 156.89 122.694 156.528 123.276 156.268C123.857 156.002 124.5 155.869 125.206 155.869C125.861 155.869 126.47 155.99 127.033 156.231C127.596 156.466 128.085 156.8 128.499 157.233C128.913 157.66 129.238 158.173 129.473 158.773C129.708 159.373 129.826 160.035 129.826 160.758V161.918H123.118ZM125.196 158.096C124.646 158.096 124.179 158.281 123.795 158.652C123.418 159.017 123.199 159.459 123.137 159.979H127.145C127.132 159.453 126.94 159.008 126.569 158.643C126.198 158.278 125.741 158.096 125.196 158.096Z" fill="#0B0C0C"/>
<rect width="375" height="45" transform="translate(0 183)" fill="#F3F2F1"/>
<path d="M28 209L21.5 202L15 209" stroke="#1D70B8" stroke-width="2.5"/>
<path d="M38.6094 204.398C38.6094 203.596 38.7292 202.846 38.9688 202.148C39.2135 201.445 39.5625 200.836 40.0156 200.32C40.4688 199.799 41.0182 199.391 41.6641 199.094C42.3099 198.792 43.0365 198.641 43.8438 198.641C44.4271 198.641 44.9661 198.716 45.4609 198.867C45.9609 199.018 46.4089 199.232 46.8047 199.508C47.2057 199.784 47.5495 200.117 47.8359 200.508C48.1224 200.898 48.349 201.336 48.5156 201.82L46.3359 202.547C46.2734 202.339 46.1745 202.125 46.0391 201.906C45.9036 201.682 45.7318 201.482 45.5234 201.305C45.3151 201.122 45.0703 200.974 44.7891 200.859C44.513 200.745 44.2031 200.688 43.8594 200.688C43.3438 200.688 42.901 200.794 42.5312 201.008C42.1667 201.216 41.8672 201.495 41.6328 201.844C41.3984 202.188 41.224 202.581 41.1094 203.023C41 203.461 40.9453 203.909 40.9453 204.367V204.43C40.9453 204.893 41 205.346 41.1094 205.789C41.224 206.227 41.3984 206.617 41.6328 206.961C41.8672 207.305 42.1667 207.583 42.5312 207.797C42.901 208.005 43.3438 208.109 43.8594 208.109C44.2031 208.109 44.513 208.052 44.7891 207.938C45.0703 207.823 45.3151 207.677 45.5234 207.5C45.7318 207.318 45.9036 207.117 46.0391 206.898C46.1745 206.68 46.2734 206.466 46.3359 206.258L48.5156 206.977C48.349 207.461 48.1224 207.898 47.8359 208.289C47.5495 208.68 47.2057 209.016 46.8047 209.297C46.4089 209.573 45.9609 209.786 45.4609 209.938C44.9661 210.083 44.4271 210.156 43.8438 210.156C43.0365 210.156 42.3099 210.008 41.6641 209.711C41.0182 209.414 40.4688 209.005 40.0156 208.484C39.5625 207.964 39.2135 207.354 38.9688 206.656C38.7292 205.958 38.6094 205.206 38.6094 204.398ZM49.8828 198.797H52.0391V207.727C52.0391 207.904 52.0885 208.039 52.1875 208.133C52.2917 208.227 52.4557 208.273 52.6797 208.273C52.7839 208.273 52.8724 208.268 52.9453 208.258C53.0234 208.242 53.1224 208.221 53.2422 208.195L53.4141 210.031C53.2682 210.052 53.112 210.073 52.9453 210.094C52.8047 210.109 52.6406 210.122 52.4531 210.133C52.2708 210.148 52.0807 210.156 51.8828 210.156C51.5755 210.156 51.2995 210.117 51.0547 210.039C50.8099 209.961 50.599 209.846 50.4219 209.695C50.25 209.539 50.1172 209.346 50.0234 209.117C49.9297 208.888 49.8828 208.622 49.8828 208.32V198.797ZM58.2812 201.469C58.901 201.469 59.4635 201.581 59.9688 201.805C60.474 202.023 60.9062 202.328 61.2656 202.719C61.625 203.109 61.901 203.57 62.0938 204.102C62.2917 204.633 62.3906 205.206 62.3906 205.82C62.3906 206.44 62.2917 207.016 62.0938 207.547C61.8958 208.073 61.6172 208.529 61.2578 208.914C60.8984 209.299 60.4661 209.604 59.9609 209.828C59.4557 210.047 58.8958 210.156 58.2812 210.156C57.6615 210.156 57.099 210.047 56.5938 209.828C56.0885 209.604 55.6562 209.299 55.2969 208.914C54.9375 208.529 54.6589 208.073 54.4609 207.547C54.263 207.016 54.1641 206.44 54.1641 205.82C54.1641 205.206 54.2604 204.633 54.4531 204.102C54.651 203.57 54.9297 203.109 55.2891 202.719C55.6484 202.328 56.0807 202.023 56.5859 201.805C57.0964 201.581 57.6615 201.469 58.2812 201.469ZM58.2812 208.156C58.5885 208.156 58.8594 208.099 59.0938 207.984C59.3333 207.87 59.5339 207.711 59.6953 207.508C59.8568 207.305 59.9792 207.062 60.0625 206.781C60.1458 206.495 60.1875 206.182 60.1875 205.844V205.789C60.1875 205.451 60.1458 205.141 60.0625 204.859C59.9792 204.573 59.8568 204.328 59.6953 204.125C59.5339 203.917 59.3333 203.755 59.0938 203.641C58.8594 203.526 58.5885 203.469 58.2812 203.469C57.974 203.469 57.7005 203.526 57.4609 203.641C57.2266 203.755 57.0286 203.917 56.8672 204.125C56.7057 204.328 56.5833 204.573 56.5 204.859C56.4167 205.141 56.375 205.451 56.375 205.789V205.844C56.375 206.182 56.4167 206.495 56.5 206.781C56.5833 207.062 56.7057 207.305 56.8672 207.508C57.0286 207.711 57.2266 207.87 57.4609 207.984C57.7005 208.099 57.974 208.156 58.2812 208.156ZM64.4141 207.328C64.7214 207.604 65.0885 207.841 65.5156 208.039C65.9427 208.237 66.375 208.336 66.8125 208.336C67.1302 208.336 67.3802 208.276 67.5625 208.156C67.7448 208.031 67.8359 207.872 67.8359 207.68C67.8359 207.352 67.4844 207.096 66.7812 206.914L66.1719 206.75C65.8698 206.677 65.5651 206.578 65.2578 206.453C64.9505 206.323 64.6667 206.154 64.4062 205.945C64.151 205.737 63.9427 205.484 63.7812 205.188C63.625 204.885 63.5469 204.516 63.5469 204.078C63.5469 203.729 63.6224 203.398 63.7734 203.086C63.9297 202.768 64.1484 202.49 64.4297 202.25C64.7161 202.01 65.0625 201.82 65.4688 201.68C65.875 201.539 66.3281 201.469 66.8281 201.469C67.5417 201.469 68.1771 201.581 68.7344 201.805C69.2969 202.029 69.7396 202.281 70.0625 202.562L68.9375 204C68.6719 203.807 68.3568 203.643 67.9922 203.508C67.6328 203.367 67.2708 203.297 66.9062 203.297C66.5677 203.297 66.3047 203.359 66.1172 203.484C65.9297 203.604 65.8359 203.75 65.8359 203.922C65.8359 204.104 65.9167 204.253 66.0781 204.367C66.2448 204.477 66.4844 204.573 66.7969 204.656L67.7031 204.914C68.5677 205.159 69.1875 205.49 69.5625 205.906C69.9375 206.323 70.125 206.849 70.125 207.484C70.125 207.839 70.0521 208.177 69.9062 208.5C69.7604 208.818 69.5469 209.102 69.2656 209.352C68.9844 209.602 68.6354 209.799 68.2188 209.945C67.8021 210.086 67.3281 210.156 66.7969 210.156C66.3906 210.156 66.0078 210.12 65.6484 210.047C65.2943 209.974 64.9635 209.875 64.6562 209.75C64.3542 209.62 64.0807 209.474 63.8359 209.312C63.5911 209.151 63.3828 208.99 63.2109 208.828L64.4141 207.328ZM73.3281 206.562C73.3646 206.812 73.4427 207.042 73.5625 207.25C73.6875 207.458 73.8438 207.638 74.0312 207.789C74.2188 207.935 74.4349 208.049 74.6797 208.133C74.9245 208.216 75.1849 208.258 75.4609 208.258C75.7786 208.258 76.1224 208.198 76.4922 208.078C76.862 207.953 77.2005 207.773 77.5078 207.539L78.5469 209.055C78.1562 209.383 77.6771 209.648 77.1094 209.852C76.5417 210.055 75.9375 210.156 75.2969 210.156C74.7188 210.156 74.1745 210.057 73.6641 209.859C73.1536 209.661 72.7057 209.375 72.3203 209C71.9401 208.625 71.638 208.169 71.4141 207.633C71.1953 207.096 71.0859 206.492 71.0859 205.82C71.0859 205.206 71.1823 204.633 71.375 204.102C71.5729 203.57 71.8464 203.109 72.1953 202.719C72.5495 202.328 72.9714 202.023 73.4609 201.805C73.9505 201.581 74.4922 201.469 75.0859 201.469C75.638 201.469 76.151 201.57 76.625 201.773C77.099 201.971 77.5104 202.253 77.8594 202.617C78.2083 202.977 78.4818 203.409 78.6797 203.914C78.8776 204.419 78.9766 204.977 78.9766 205.586V206.562H73.3281ZM75.0781 203.344C74.6146 203.344 74.2214 203.5 73.8984 203.812C73.5807 204.12 73.3958 204.492 73.3438 204.93H76.7188C76.7083 204.487 76.5469 204.112 76.2344 203.805C75.9219 203.497 75.5365 203.344 75.0781 203.344Z" fill="#1D70B8"/>
<rect width="375" height="45" transform="translate(0 228)" fill="#F3F2F1"/>
<g filter="url(#filter0_i_14602_117136)">
<rect width="123" height="25" transform="translate(15 238)" fill="#F3F2F1"/>
<path d="M36.9219 251.852C37.0677 252.018 37.2448 252.182 37.4531 252.344C37.6615 252.505 37.8906 252.651 38.1406 252.781C38.3958 252.906 38.6719 253.008 38.9688 253.086C39.2656 253.159 39.5859 253.195 39.9297 253.195C40.5703 253.195 41.0599 253.062 41.3984 252.797C41.7422 252.526 41.9141 252.198 41.9141 251.812C41.9141 251.411 41.763 251.107 41.4609 250.898C41.1641 250.69 40.6901 250.526 40.0391 250.406L39.6875 250.344C39.2188 250.26 38.7526 250.151 38.2891 250.016C37.8255 249.88 37.4062 249.685 37.0312 249.43C36.6562 249.174 36.3516 248.849 36.1172 248.453C35.8828 248.052 35.7656 247.547 35.7656 246.938C35.7656 246.583 35.8438 246.214 36 245.828C36.1562 245.438 36.4036 245.081 36.7422 244.758C37.0859 244.43 37.526 244.161 38.0625 243.953C38.6042 243.745 39.2578 243.641 40.0234 243.641C40.9297 243.641 41.737 243.792 42.4453 244.094C43.1589 244.391 43.7344 244.784 44.1719 245.273L42.6641 246.68C42.3568 246.341 41.9609 246.076 41.4766 245.883C40.9974 245.69 40.5026 245.594 39.9922 245.594C39.4036 245.594 38.9427 245.706 38.6094 245.93C38.2812 246.154 38.1172 246.445 38.1172 246.805C38.1172 247.039 38.1693 247.234 38.2734 247.391C38.3828 247.547 38.5339 247.677 38.7266 247.781C38.9193 247.88 39.151 247.964 39.4219 248.031C39.6927 248.099 39.9948 248.167 40.3281 248.234L40.5078 248.266C40.9557 248.349 41.401 248.456 41.8438 248.586C42.2865 248.711 42.6875 248.898 43.0469 249.148C43.4115 249.393 43.7057 249.716 43.9297 250.117C44.1536 250.513 44.2656 251.021 44.2656 251.641C44.2656 252.203 44.1484 252.701 43.9141 253.133C43.6797 253.565 43.3698 253.935 42.9844 254.242C42.599 254.544 42.1536 254.773 41.6484 254.93C41.1432 255.081 40.6172 255.156 40.0703 255.156C39.5182 255.156 39.0052 255.109 38.5312 255.016C38.0625 254.922 37.6354 254.789 37.25 254.617C36.8698 254.445 36.5286 254.253 36.2266 254.039C35.9297 253.826 35.6693 253.596 35.4453 253.352L36.9219 251.852ZM47.75 251.562C47.7865 251.812 47.8646 252.042 47.9844 252.25C48.1094 252.458 48.2656 252.638 48.4531 252.789C48.6406 252.935 48.8568 253.049 49.1016 253.133C49.3464 253.216 49.6068 253.258 49.8828 253.258C50.2005 253.258 50.5443 253.198 50.9141 253.078C51.2839 252.953 51.6224 252.773 51.9297 252.539L52.9688 254.055C52.5781 254.383 52.099 254.648 51.5312 254.852C50.9635 255.055 50.3594 255.156 49.7188 255.156C49.1406 255.156 48.5964 255.057 48.0859 254.859C47.5755 254.661 47.1276 254.375 46.7422 254C46.362 253.625 46.0599 253.169 45.8359 252.633C45.6172 252.096 45.5078 251.492 45.5078 250.82C45.5078 250.206 45.6042 249.633 45.7969 249.102C45.9948 248.57 46.2682 248.109 46.6172 247.719C46.9714 247.328 47.3932 247.023 47.8828 246.805C48.3724 246.581 48.9141 246.469 49.5078 246.469C50.0599 246.469 50.5729 246.57 51.0469 246.773C51.5208 246.971 51.9323 247.253 52.2812 247.617C52.6302 247.977 52.9036 248.409 53.1016 248.914C53.2995 249.419 53.3984 249.977 53.3984 250.586V251.562H47.75ZM49.5 248.344C49.0365 248.344 48.6432 248.5 48.3203 248.812C48.0026 249.12 47.8177 249.492 47.7656 249.93H51.1406C51.1302 249.487 50.9688 249.112 50.6562 248.805C50.3438 248.497 49.9583 248.344 49.5 248.344ZM59.4766 248.727H59.25C58.9427 248.727 58.6484 248.758 58.3672 248.82C58.0911 248.883 57.8464 248.997 57.6328 249.164C57.4193 249.326 57.2474 249.549 57.1172 249.836C56.9922 250.122 56.9297 250.49 56.9297 250.938V255H54.7734V246.633H56.9297V247.578C57.0182 247.438 57.1328 247.302 57.2734 247.172C57.4141 247.042 57.5781 246.927 57.7656 246.828C57.9531 246.724 58.1641 246.641 58.3984 246.578C58.6328 246.516 58.8854 246.484 59.1562 246.484H59.4766V248.727ZM62.5938 255L60.0312 246.633H62.4375L63.9375 252.391L65.4766 246.633H67.8438L65.2969 255H62.5938ZM71.0703 255H68.9141V246.633H71.0703V255ZM68.6875 244.438C68.6875 244.26 68.7214 244.094 68.7891 243.938C68.8568 243.776 68.9479 243.638 69.0625 243.523C69.1823 243.404 69.3203 243.31 69.4766 243.242C69.6328 243.174 69.8021 243.141 69.9844 243.141C70.1615 243.141 70.3281 243.174 70.4844 243.242C70.6458 243.31 70.7839 243.404 70.8984 243.523C71.0182 243.638 71.112 243.776 71.1797 243.938C71.2474 244.094 71.2812 244.26 71.2812 244.438C71.2812 244.62 71.2474 244.789 71.1797 244.945C71.112 245.102 71.0182 245.24 70.8984 245.359C70.7839 245.474 70.6458 245.565 70.4844 245.633C70.3281 245.701 70.1615 245.734 69.9844 245.734C69.8021 245.734 69.6328 245.701 69.4766 245.633C69.3203 245.565 69.1823 245.474 69.0625 245.359C68.9479 245.24 68.8568 245.102 68.7891 244.945C68.7214 244.789 68.6875 244.62 68.6875 244.438ZM74.7188 250.859C74.7188 251.13 74.7552 251.404 74.8281 251.68C74.901 251.951 75.013 252.195 75.1641 252.414C75.3151 252.633 75.5078 252.812 75.7422 252.953C75.9818 253.089 76.2656 253.156 76.5938 253.156C76.8073 253.156 77 253.128 77.1719 253.07C77.349 253.013 77.5052 252.935 77.6406 252.836C77.7812 252.732 77.9036 252.612 78.0078 252.477C78.1172 252.336 78.2109 252.185 78.2891 252.023L80.1797 253C80.0443 253.328 79.8568 253.625 79.6172 253.891C79.3828 254.156 79.1094 254.383 78.7969 254.57C78.4844 254.758 78.138 254.901 77.7578 255C77.3776 255.104 76.974 255.156 76.5469 255.156C75.9583 255.156 75.4167 255.047 74.9219 254.828C74.4271 254.604 74 254.299 73.6406 253.914C73.2812 253.529 73 253.073 72.7969 252.547C72.5938 252.016 72.4922 251.44 72.4922 250.82C72.4922 250.206 72.5938 249.633 72.7969 249.102C73 248.57 73.2812 248.109 73.6406 247.719C74 247.328 74.4271 247.023 74.9219 246.805C75.4167 246.581 75.9583 246.469 76.5469 246.469C76.974 246.469 77.3776 246.521 77.7578 246.625C78.138 246.724 78.4844 246.87 78.7969 247.062C79.1094 247.25 79.3828 247.477 79.6172 247.742C79.8568 248.008 80.0443 248.305 80.1797 248.633L78.2891 249.609C78.2109 249.448 78.1172 249.299 78.0078 249.164C77.9036 249.023 77.7812 248.904 77.6406 248.805C77.5052 248.701 77.349 248.62 77.1719 248.562C77 248.5 76.8073 248.469 76.5938 248.469C76.2656 248.469 75.9818 248.539 75.7422 248.68C75.5078 248.815 75.3151 248.995 75.1641 249.219C75.013 249.438 74.901 249.685 74.8281 249.961C74.7552 250.237 74.7188 250.513 74.7188 250.789V250.859ZM83.3125 251.562C83.349 251.812 83.4271 252.042 83.5469 252.25C83.6719 252.458 83.8281 252.638 84.0156 252.789C84.2031 252.935 84.4193 253.049 84.6641 253.133C84.9089 253.216 85.1693 253.258 85.4453 253.258C85.763 253.258 86.1068 253.198 86.4766 253.078C86.8464 252.953 87.1849 252.773 87.4922 252.539L88.5312 254.055C88.1406 254.383 87.6615 254.648 87.0938 254.852C86.526 255.055 85.9219 255.156 85.2812 255.156C84.7031 255.156 84.1589 255.057 83.6484 254.859C83.138 254.661 82.6901 254.375 82.3047 254C81.9245 253.625 81.6224 253.169 81.3984 252.633C81.1797 252.096 81.0703 251.492 81.0703 250.82C81.0703 250.206 81.1667 249.633 81.3594 249.102C81.5573 248.57 81.8307 248.109 82.1797 247.719C82.5339 247.328 82.9557 247.023 83.4453 246.805C83.9349 246.581 84.4766 246.469 85.0703 246.469C85.6224 246.469 86.1354 246.57 86.6094 246.773C87.0833 246.971 87.4948 247.253 87.8438 247.617C88.1927 247.977 88.4661 248.409 88.6641 248.914C88.862 249.419 88.9609 249.977 88.9609 250.586V251.562H83.3125ZM85.0625 248.344C84.599 248.344 84.2057 248.5 83.8828 248.812C83.5651 249.12 83.3802 249.492 83.3281 249.93H86.7031C86.6927 249.487 86.5312 249.112 86.2188 248.805C85.9062 248.497 85.5208 248.344 85.0625 248.344ZM93.1953 243.797H95.3516V252.727C95.3516 252.904 95.401 253.039 95.5 253.133C95.6042 253.227 95.7682 253.273 95.9922 253.273C96.0964 253.273 96.1849 253.268 96.2578 253.258C96.3359 253.242 96.4349 253.221 96.5547 253.195L96.7266 255.031C96.5807 255.052 96.4245 255.073 96.2578 255.094C96.1172 255.109 95.9531 255.122 95.7656 255.133C95.5833 255.148 95.3932 255.156 95.1953 255.156C94.888 255.156 94.612 255.117 94.3672 255.039C94.1224 254.961 93.9115 254.846 93.7344 254.695C93.5625 254.539 93.4297 254.346 93.3359 254.117C93.2422 253.888 93.1953 253.622 93.1953 253.32V243.797ZM100.07 255H97.9141V246.633H100.07V255ZM97.6875 244.438C97.6875 244.26 97.7214 244.094 97.7891 243.938C97.8568 243.776 97.9479 243.638 98.0625 243.523C98.1823 243.404 98.3203 243.31 98.4766 243.242C98.6328 243.174 98.8021 243.141 98.9844 243.141C99.1615 243.141 99.3281 243.174 99.4844 243.242C99.6458 243.31 99.7839 243.404 99.8984 243.523C100.018 243.638 100.112 243.776 100.18 243.938C100.247 244.094 100.281 244.26 100.281 244.438C100.281 244.62 100.247 244.789 100.18 244.945C100.112 245.102 100.018 245.24 99.8984 245.359C99.7839 245.474 99.6458 245.565 99.4844 245.633C99.3281 245.701 99.1615 245.734 98.9844 245.734C98.8021 245.734 98.6328 245.701 98.4766 245.633C98.3203 245.565 98.1823 245.474 98.0625 245.359C97.9479 245.24 97.8568 245.102 97.7891 244.945C97.7214 244.789 97.6875 244.62 97.6875 244.438ZM101.93 246.633H104.086V247.352C104.201 247.237 104.328 247.128 104.469 247.023C104.615 246.914 104.773 246.82 104.945 246.742C105.117 246.659 105.307 246.594 105.516 246.547C105.729 246.495 105.964 246.469 106.219 246.469C106.672 246.469 107.078 246.544 107.438 246.695C107.797 246.841 108.099 247.044 108.344 247.305C108.594 247.565 108.784 247.87 108.914 248.219C109.044 248.568 109.109 248.945 109.109 249.352V255H106.953V250.133C106.953 249.836 106.919 249.586 106.852 249.383C106.784 249.174 106.69 249.008 106.57 248.883C106.456 248.753 106.318 248.659 106.156 248.602C106 248.539 105.828 248.508 105.641 248.508C105.422 248.508 105.216 248.547 105.023 248.625C104.836 248.703 104.672 248.823 104.531 248.984C104.391 249.141 104.281 249.339 104.203 249.578C104.125 249.818 104.086 250.099 104.086 250.422V255H101.93V246.633ZM113.07 249.914L115.859 246.633H118.547L115.523 250.055L118.633 255H116.039L113.953 251.594L113.07 252.555V255H110.914V243.797H113.07V249.914ZM126.281 243.797V255H123.961V247.594H121.93V245.547H122.43C122.763 245.547 123.034 245.518 123.242 245.461C123.456 245.398 123.622 245.305 123.742 245.18C123.862 245.055 123.943 244.896 123.984 244.703C124.026 244.505 124.047 244.268 124.047 243.992V243.797H126.281Z" fill="#1D70B8"/>
</g>
<rect width="375" height="45" transform="translate(0 273)" fill="#F3F2F1"/>
<path d="M16.9219 296.852C17.0677 297.018 17.2448 297.182 17.4531 297.344C17.6615 297.505 17.8906 297.651 18.1406 297.781C18.3958 297.906 18.6719 298.008 18.9688 298.086C19.2656 298.159 19.5859 298.195 19.9297 298.195C20.5703 298.195 21.0599 298.062 21.3984 297.797C21.7422 297.526 21.9141 297.198 21.9141 296.812C21.9141 296.411 21.763 296.107 21.4609 295.898C21.1641 295.69 20.6901 295.526 20.0391 295.406L19.6875 295.344C19.2188 295.26 18.7526 295.151 18.2891 295.016C17.8255 294.88 17.4062 294.685 17.0312 294.43C16.6562 294.174 16.3516 293.849 16.1172 293.453C15.8828 293.052 15.7656 292.547 15.7656 291.938C15.7656 291.583 15.8438 291.214 16 290.828C16.1562 290.438 16.4036 290.081 16.7422 289.758C17.0859 289.43 17.526 289.161 18.0625 288.953C18.6042 288.745 19.2578 288.641 20.0234 288.641C20.9297 288.641 21.737 288.792 22.4453 289.094C23.1589 289.391 23.7344 289.784 24.1719 290.273L22.6641 291.68C22.3568 291.341 21.9609 291.076 21.4766 290.883C20.9974 290.69 20.5026 290.594 19.9922 290.594C19.4036 290.594 18.9427 290.706 18.6094 290.93C18.2812 291.154 18.1172 291.445 18.1172 291.805C18.1172 292.039 18.1693 292.234 18.2734 292.391C18.3828 292.547 18.5339 292.677 18.7266 292.781C18.9193 292.88 19.151 292.964 19.4219 293.031C19.6927 293.099 19.9948 293.167 20.3281 293.234L20.5078 293.266C20.9557 293.349 21.401 293.456 21.8438 293.586C22.2865 293.711 22.6875 293.898 23.0469 294.148C23.4115 294.393 23.7057 294.716 23.9297 295.117C24.1536 295.513 24.2656 296.021 24.2656 296.641C24.2656 297.203 24.1484 297.701 23.9141 298.133C23.6797 298.565 23.3698 298.935 22.9844 299.242C22.599 299.544 22.1536 299.773 21.6484 299.93C21.1432 300.081 20.6172 300.156 20.0703 300.156C19.5182 300.156 19.0052 300.109 18.5312 300.016C18.0625 299.922 17.6354 299.789 17.25 299.617C16.8698 299.445 16.5286 299.253 16.2266 299.039C15.9297 298.826 15.6693 298.596 15.4453 298.352L16.9219 296.852ZM27.75 296.562C27.7865 296.812 27.8646 297.042 27.9844 297.25C28.1094 297.458 28.2656 297.638 28.4531 297.789C28.6406 297.935 28.8568 298.049 29.1016 298.133C29.3464 298.216 29.6068 298.258 29.8828 298.258C30.2005 298.258 30.5443 298.198 30.9141 298.078C31.2839 297.953 31.6224 297.773 31.9297 297.539L32.9688 299.055C32.5781 299.383 32.099 299.648 31.5312 299.852C30.9635 300.055 30.3594 300.156 29.7188 300.156C29.1406 300.156 28.5964 300.057 28.0859 299.859C27.5755 299.661 27.1276 299.375 26.7422 299C26.362 298.625 26.0599 298.169 25.8359 297.633C25.6172 297.096 25.5078 296.492 25.5078 295.82C25.5078 295.206 25.6042 294.633 25.7969 294.102C25.9948 293.57 26.2682 293.109 26.6172 292.719C26.9714 292.328 27.3932 292.023 27.8828 291.805C28.3724 291.581 28.9141 291.469 29.5078 291.469C30.0599 291.469 30.5729 291.57 31.0469 291.773C31.5208 291.971 31.9323 292.253 32.2812 292.617C32.6302 292.977 32.9036 293.409 33.1016 293.914C33.2995 294.419 33.3984 294.977 33.3984 295.586V296.562H27.75ZM29.5 293.344C29.0365 293.344 28.6432 293.5 28.3203 293.812C28.0026 294.12 27.8177 294.492 27.7656 294.93H31.1406C31.1302 294.487 30.9688 294.112 30.6562 293.805C30.3438 293.497 29.9583 293.344 29.5 293.344ZM39.4766 293.727H39.25C38.9427 293.727 38.6484 293.758 38.3672 293.82C38.0911 293.883 37.8464 293.997 37.6328 294.164C37.4193 294.326 37.2474 294.549 37.1172 294.836C36.9922 295.122 36.9297 295.49 36.9297 295.938V300H34.7734V291.633H36.9297V292.578C37.0182 292.438 37.1328 292.302 37.2734 292.172C37.4141 292.042 37.5781 291.927 37.7656 291.828C37.9531 291.724 38.1641 291.641 38.3984 291.578C38.6328 291.516 38.8854 291.484 39.1562 291.484H39.4766V293.727ZM42.5938 300L40.0312 291.633H42.4375L43.9375 297.391L45.4766 291.633H47.8438L45.2969 300H42.5938ZM51.0703 300H48.9141V291.633H51.0703V300ZM48.6875 289.438C48.6875 289.26 48.7214 289.094 48.7891 288.938C48.8568 288.776 48.9479 288.638 49.0625 288.523C49.1823 288.404 49.3203 288.31 49.4766 288.242C49.6328 288.174 49.8021 288.141 49.9844 288.141C50.1615 288.141 50.3281 288.174 50.4844 288.242C50.6458 288.31 50.7839 288.404 50.8984 288.523C51.0182 288.638 51.112 288.776 51.1797 288.938C51.2474 289.094 51.2812 289.26 51.2812 289.438C51.2812 289.62 51.2474 289.789 51.1797 289.945C51.112 290.102 51.0182 290.24 50.8984 290.359C50.7839 290.474 50.6458 290.565 50.4844 290.633C50.3281 290.701 50.1615 290.734 49.9844 290.734C49.8021 290.734 49.6328 290.701 49.4766 290.633C49.3203 290.565 49.1823 290.474 49.0625 290.359C48.9479 290.24 48.8568 290.102 48.7891 289.945C48.7214 289.789 48.6875 289.62 48.6875 289.438ZM54.7188 295.859C54.7188 296.13 54.7552 296.404 54.8281 296.68C54.901 296.951 55.013 297.195 55.1641 297.414C55.3151 297.633 55.5078 297.812 55.7422 297.953C55.9818 298.089 56.2656 298.156 56.5938 298.156C56.8073 298.156 57 298.128 57.1719 298.07C57.349 298.013 57.5052 297.935 57.6406 297.836C57.7812 297.732 57.9036 297.612 58.0078 297.477C58.1172 297.336 58.2109 297.185 58.2891 297.023L60.1797 298C60.0443 298.328 59.8568 298.625 59.6172 298.891C59.3828 299.156 59.1094 299.383 58.7969 299.57C58.4844 299.758 58.138 299.901 57.7578 300C57.3776 300.104 56.974 300.156 56.5469 300.156C55.9583 300.156 55.4167 300.047 54.9219 299.828C54.4271 299.604 54 299.299 53.6406 298.914C53.2812 298.529 53 298.073 52.7969 297.547C52.5938 297.016 52.4922 296.44 52.4922 295.82C52.4922 295.206 52.5938 294.633 52.7969 294.102C53 293.57 53.2812 293.109 53.6406 292.719C54 292.328 54.4271 292.023 54.9219 291.805C55.4167 291.581 55.9583 291.469 56.5469 291.469C56.974 291.469 57.3776 291.521 57.7578 291.625C58.138 291.724 58.4844 291.87 58.7969 292.062C59.1094 292.25 59.3828 292.477 59.6172 292.742C59.8568 293.008 60.0443 293.305 60.1797 293.633L58.2891 294.609C58.2109 294.448 58.1172 294.299 58.0078 294.164C57.9036 294.023 57.7812 293.904 57.6406 293.805C57.5052 293.701 57.349 293.62 57.1719 293.562C57 293.5 56.8073 293.469 56.5938 293.469C56.2656 293.469 55.9818 293.539 55.7422 293.68C55.5078 293.815 55.3151 293.995 55.1641 294.219C55.013 294.438 54.901 294.685 54.8281 294.961C54.7552 295.237 54.7188 295.513 54.7188 295.789V295.859ZM63.3125 296.562C63.349 296.812 63.4271 297.042 63.5469 297.25C63.6719 297.458 63.8281 297.638 64.0156 297.789C64.2031 297.935 64.4193 298.049 64.6641 298.133C64.9089 298.216 65.1693 298.258 65.4453 298.258C65.763 298.258 66.1068 298.198 66.4766 298.078C66.8464 297.953 67.1849 297.773 67.4922 297.539L68.5312 299.055C68.1406 299.383 67.6615 299.648 67.0938 299.852C66.526 300.055 65.9219 300.156 65.2812 300.156C64.7031 300.156 64.1589 300.057 63.6484 299.859C63.138 299.661 62.6901 299.375 62.3047 299C61.9245 298.625 61.6224 298.169 61.3984 297.633C61.1797 297.096 61.0703 296.492 61.0703 295.82C61.0703 295.206 61.1667 294.633 61.3594 294.102C61.5573 293.57 61.8307 293.109 62.1797 292.719C62.5339 292.328 62.9557 292.023 63.4453 291.805C63.9349 291.581 64.4766 291.469 65.0703 291.469C65.6224 291.469 66.1354 291.57 66.6094 291.773C67.0833 291.971 67.4948 292.253 67.8438 292.617C68.1927 292.977 68.4661 293.409 68.6641 293.914C68.862 294.419 68.9609 294.977 68.9609 295.586V296.562H63.3125ZM65.0625 293.344C64.599 293.344 64.2057 293.5 63.8828 293.812C63.5651 294.12 63.3802 294.492 63.3281 294.93H66.7031C66.6927 294.487 66.5312 294.112 66.2188 293.805C65.9062 293.497 65.5208 293.344 65.0625 293.344ZM73.1953 288.797H75.3516V297.727C75.3516 297.904 75.401 298.039 75.5 298.133C75.6042 298.227 75.7682 298.273 75.9922 298.273C76.0964 298.273 76.1849 298.268 76.2578 298.258C76.3359 298.242 76.4349 298.221 76.5547 298.195L76.7266 300.031C76.5807 300.052 76.4245 300.073 76.2578 300.094C76.1172 300.109 75.9531 300.122 75.7656 300.133C75.5833 300.148 75.3932 300.156 75.1953 300.156C74.888 300.156 74.612 300.117 74.3672 300.039C74.1224 299.961 73.9115 299.846 73.7344 299.695C73.5625 299.539 73.4297 299.346 73.3359 299.117C73.2422 298.888 73.1953 298.622 73.1953 298.32V288.797ZM80.0703 300H77.9141V291.633H80.0703V300ZM77.6875 289.438C77.6875 289.26 77.7214 289.094 77.7891 288.938C77.8568 288.776 77.9479 288.638 78.0625 288.523C78.1823 288.404 78.3203 288.31 78.4766 288.242C78.6328 288.174 78.8021 288.141 78.9844 288.141C79.1615 288.141 79.3281 288.174 79.4844 288.242C79.6458 288.31 79.7839 288.404 79.8984 288.523C80.0182 288.638 80.112 288.776 80.1797 288.938C80.2474 289.094 80.2812 289.26 80.2812 289.438C80.2812 289.62 80.2474 289.789 80.1797 289.945C80.112 290.102 80.0182 290.24 79.8984 290.359C79.7839 290.474 79.6458 290.565 79.4844 290.633C79.3281 290.701 79.1615 290.734 78.9844 290.734C78.8021 290.734 78.6328 290.701 78.4766 290.633C78.3203 290.565 78.1823 290.474 78.0625 290.359C77.9479 290.24 77.8568 290.102 77.7891 289.945C77.7214 289.789 77.6875 289.62 77.6875 289.438ZM81.9297 291.633H84.0859V292.352C84.2005 292.237 84.3281 292.128 84.4688 292.023C84.6146 291.914 84.7734 291.82 84.9453 291.742C85.1172 291.659 85.3073 291.594 85.5156 291.547C85.7292 291.495 85.9635 291.469 86.2188 291.469C86.6719 291.469 87.0781 291.544 87.4375 291.695C87.7969 291.841 88.099 292.044 88.3438 292.305C88.5938 292.565 88.7839 292.87 88.9141 293.219C89.0443 293.568 89.1094 293.945 89.1094 294.352V300H86.9531V295.133C86.9531 294.836 86.9193 294.586 86.8516 294.383C86.7839 294.174 86.6901 294.008 86.5703 293.883C86.4557 293.753 86.3177 293.659 86.1562 293.602C86 293.539 85.8281 293.508 85.6406 293.508C85.4219 293.508 85.2161 293.547 85.0234 293.625C84.8359 293.703 84.6719 293.823 84.5312 293.984C84.3906 294.141 84.2812 294.339 84.2031 294.578C84.125 294.818 84.0859 295.099 84.0859 295.422V300H81.9297V291.633ZM93.0703 294.914L95.8594 291.633H98.5469L95.5234 295.055L98.6328 300H96.0391L93.9531 296.594L93.0703 297.555V300H90.9141V288.797H93.0703V294.914ZM106.25 290.734C105.943 290.734 105.674 290.784 105.445 290.883C105.216 290.982 105.026 291.12 104.875 291.297C104.724 291.474 104.612 291.682 104.539 291.922C104.466 292.156 104.43 292.411 104.43 292.688L102.109 292.477C102.115 291.862 102.224 291.318 102.438 290.844C102.651 290.365 102.943 289.964 103.312 289.641C103.682 289.312 104.117 289.065 104.617 288.898C105.122 288.727 105.672 288.641 106.266 288.641C106.885 288.641 107.451 288.734 107.961 288.922C108.477 289.104 108.917 289.362 109.281 289.695C109.646 290.029 109.927 290.43 110.125 290.898C110.328 291.362 110.43 291.872 110.43 292.43C110.43 293.039 110.307 293.609 110.062 294.141C109.823 294.667 109.503 295.156 109.102 295.609C108.701 296.057 108.24 296.469 107.719 296.844C107.198 297.214 106.661 297.547 106.109 297.844L105.898 297.953H110.57V300H102.398V297.969C102.82 297.74 103.25 297.495 103.688 297.234C104.13 296.974 104.557 296.703 104.969 296.422C105.385 296.135 105.779 295.839 106.148 295.531C106.518 295.224 106.839 294.906 107.109 294.578C107.385 294.245 107.604 293.904 107.766 293.555C107.927 293.201 108.008 292.836 108.008 292.461C108.008 292.247 107.971 292.036 107.898 291.828C107.826 291.62 107.716 291.435 107.57 291.273C107.43 291.112 107.247 290.982 107.023 290.883C106.805 290.784 106.547 290.734 106.25 290.734Z" fill="#1D70B8"/>
<rect y="318" width="375" height="1" fill="#B1B4B6"/>
<defs>
<filter id="filter0_i_14602_117136" x="15" y="238" width="123" height="25" filterUnits="userSpaceOnUse" color-interpolation-filters="sRGB">
<feFlood flood-opacity="0" result="BackgroundImageFix"/>
<feBlend mode="normal" in="SourceGraphic" in2="BackgroundImageFix" result="shape"/>
<feColorMatrix in="SourceAlpha" type="matrix" values="0 0 0 0 0 0 0 0 0 0 0 0 0 0 0 0 0 0 127 0" result="hardAlpha"/>
<feOffset dx="5"/>
<feComposite in2="hardAlpha" operator="arithmetic" k2="-1" k3="1"/>
<feColorMatrix type="matrix" values="0 0 0 0 0.113725 0 0 0 0 0.439216 0 0 0 0 0.721569 0 0 0 1 0"/>
<feBlend mode="normal" in2="shape" result="effect1_innerShadow_14602_117136"/>
</filter>
</defs>
</svg>
