<?xml version="1.0" encoding="utf-8"?>
<!-- Generator: Adobe Illustrator 28.2.0, SVG Export Plug-In . SVG Version: 6.00 Build 0)  -->
<svg version="1.1" id="Layer_1" xmlns="http://www.w3.org/2000/svg" xmlns:xlink="http://www.w3.org/1999/xlink" x="0px" y="0px"
	 viewBox="0 0 375 319" style="enable-background:new 0 0 375 319;" xml:space="preserve">
<style type="text/css">
	.st0{fill:#FFFFFF;}
	.st1{fill:#0B0C0C;}
	.st2{fill:none;stroke:#FFFFFF;stroke-width:2;}
	.st3{fill-rule:evenodd;clip-rule:evenodd;fill:#1D70B8;}
	.st4{fill:#1D70B8;}
	.st5{fill:none;stroke:#F3F2F1;stroke-width:0.5;}
	.st6{fill:#F3F2F1;}
	.st7{fill:none;stroke:#1D70B8;stroke-width:2.5;}
	.st8{fill:#B1B4B6;}
	.st9{fill-rule:evenodd;clip-rule:evenodd;fill:#FFFFFF;}
</style>
<rect y="0" class="st0" width="375" height="319"/>
<rect y="0" class="st1" width="375" height="47"/>
<path class="st0" d="M62.5,22.6c0,0.9,0.1,1.8,0.3,2.6c0.2,0.8,0.6,1.6,1,2.2c0.5,0.6,1,1.1,1.8,1.5c0.7,0.4,1.6,0.6,2.5,0.6
	c0.9,0,1.7-0.2,2.4-0.5c0.6-0.3,1.1-0.7,1.5-1.1c0.4-0.5,0.6-1,0.8-1.5c0.2-0.5,0.2-1,0.2-1.5v-0.2h-5.4v-3.2h9.5V33h-3.7v-2.5
	c-0.3,0.4-0.6,0.8-1,1.1c-0.4,0.3-0.8,0.6-1.3,0.9c-0.5,0.2-1,0.4-1.6,0.6c-0.6,0.1-1.2,0.2-1.8,0.2c-1.5,0-2.9-0.3-4.1-0.8
	c-1.2-0.6-2.2-1.3-3-2.3c-0.8-1-1.4-2.1-1.9-3.4c-0.4-1.3-0.6-2.7-0.6-4.2c0-1.5,0.2-2.9,0.7-4.2c0.5-1.3,1.2-2.5,2-3.4
	c0.9-1,1.9-1.7,3.2-2.3c1.2-0.6,2.6-0.8,4.2-0.8c1,0,1.9,0.1,2.8,0.4c0.9,0.2,1.7,0.6,2.4,1c0.7,0.4,1.4,0.9,2,1.5
	c0.6,0.6,1,1.3,1.4,2l-3.7,2.1c-0.2-0.4-0.5-0.9-0.8-1.2c-0.3-0.4-0.7-0.7-1.1-1c-0.4-0.3-0.8-0.5-1.3-0.7c-0.5-0.2-1.1-0.2-1.7-0.2
	c-1,0-1.8,0.2-2.5,0.6c-0.7,0.4-1.3,0.9-1.8,1.5c-0.5,0.6-0.8,1.4-1,2.2c-0.2,0.8-0.3,1.7-0.3,2.6V22.6z M89.9,11.7
	c1.6,0,3,0.3,4.2,0.8c1.2,0.6,2.3,1.3,3.1,2.3c0.9,1,1.5,2.1,2,3.4c0.5,1.3,0.7,2.7,0.7,4.2c0,1.5-0.2,2.9-0.7,4.2
	c-0.4,1.3-1.1,2.5-2,3.4c-0.9,1-1.9,1.7-3.1,2.3c-1.2,0.6-2.6,0.8-4.2,0.8c-1.6,0-3-0.3-4.2-0.8c-1.2-0.6-2.3-1.3-3.1-2.3
	c-0.9-1-1.5-2.1-2-3.4c-0.4-1.3-0.7-2.7-0.7-4.2c0-1.5,0.2-2.9,0.7-4.2c0.5-1.3,1.1-2.5,2-3.4c0.9-1,1.9-1.7,3.1-2.3
	C87,12,88.4,11.7,89.9,11.7z M89.9,29.5c0.9,0,1.7-0.2,2.4-0.5c0.7-0.4,1.3-0.8,1.8-1.5c0.5-0.6,0.8-1.3,1.1-2.2
	c0.2-0.8,0.4-1.8,0.4-2.8v-0.1c0-1-0.1-1.9-0.4-2.7c-0.2-0.8-0.6-1.6-1.1-2.2c-0.5-0.6-1.1-1.1-1.8-1.4c-0.7-0.4-1.5-0.5-2.4-0.5
	s-1.7,0.2-2.4,0.5c-0.7,0.3-1.3,0.8-1.8,1.4c-0.5,0.6-0.8,1.3-1.1,2.2c-0.2,0.8-0.4,1.8-0.4,2.7v0.1c0,1,0.1,1.9,0.4,2.8
	c0.2,0.8,0.6,1.6,1.1,2.2c0.5,0.6,1.1,1.1,1.8,1.5C88.2,29.3,89,29.5,89.9,29.5z M107.5,33l-5.9-21h4.8l4.1,15.8h0.1l4-15.8h4.7
	l-5.9,21H107.5z M119.8,30.6c0-0.4,0.1-0.7,0.2-1c0.1-0.3,0.3-0.6,0.6-0.8c0.2-0.2,0.5-0.4,0.8-0.6c0.3-0.1,0.7-0.2,1-0.2
	c0.4,0,0.7,0.1,1,0.2c0.3,0.1,0.6,0.3,0.8,0.6c0.2,0.2,0.4,0.5,0.6,0.8c0.1,0.3,0.2,0.6,0.2,1c0,0.4-0.1,0.7-0.2,1
	c-0.1,0.3-0.3,0.6-0.6,0.8c-0.2,0.2-0.5,0.4-0.8,0.6c-0.3,0.1-0.7,0.2-1,0.2c-0.4,0-0.7-0.1-1-0.2c-0.3-0.1-0.6-0.3-0.8-0.6
	c-0.2-0.2-0.4-0.5-0.6-0.8C119.9,31.3,119.8,31,119.8,30.6z M137.1,29.5c0.6,0,1.2-0.1,1.7-0.3c0.5-0.2,1-0.5,1.4-0.8
	c0.4-0.4,0.7-0.8,0.9-1.4c0.2-0.6,0.3-1.2,0.3-2V12h4.2v13.7c0,1.2-0.2,2.2-0.6,3.2c-0.4,0.9-1,1.8-1.8,2.4
	c-0.8,0.7-1.6,1.2-2.7,1.5c-1,0.4-2.2,0.5-3.4,0.5c-1.2,0-2.4-0.2-3.4-0.5c-1-0.4-1.9-0.9-2.7-1.5c-0.8-0.7-1.4-1.5-1.8-2.4
	c-0.4-0.9-0.6-2-0.6-3.2V12h4.2v13c0,0.8,0.1,1.4,0.3,2c0.2,0.6,0.5,1,0.9,1.4c0.4,0.4,0.8,0.6,1.4,0.8
	C135.9,29.4,136.5,29.5,137.1,29.5z M149.8,12h4.2v9.1l7.5-9.1h5.2l-7.3,8.3l7.8,12.7h-4.9l-5.6-9.4l-2.7,3V33h-4.2V12z"/>
<path class="st2" d="M237,25.5l-6.5-7l-6.5,7"/>
<path class="st0" d="M254.9,15.6c0.8,0,1.6,0.2,2.2,0.5c0.7,0.3,1.2,0.7,1.7,1.2c0.5,0.5,0.8,1.1,1.1,1.8c0.2,0.7,0.4,1.4,0.4,2.2
	c0,0.8-0.1,1.6-0.4,2.3c-0.2,0.7-0.6,1.3-1.1,1.8c-0.5,0.5-1,0.9-1.7,1.2c-0.7,0.3-1.4,0.4-2.2,0.4c-0.8,0-1.6-0.1-2.2-0.4
	c-0.7-0.3-1.2-0.7-1.7-1.2c-0.5-0.5-0.8-1.1-1.1-1.8c-0.2-0.7-0.4-1.5-0.4-2.3c0-0.8,0.1-1.6,0.4-2.2c0.2-0.7,0.6-1.3,1.1-1.8
	c0.5-0.5,1-0.9,1.7-1.2C253.3,15.8,254.1,15.6,254.9,15.6z M254.9,25.1c0.5,0,0.9-0.1,1.3-0.3c0.4-0.2,0.7-0.4,0.9-0.8
	s0.4-0.7,0.6-1.2c0.1-0.4,0.2-0.9,0.2-1.5v-0.1c0-0.5-0.1-1-0.2-1.5c-0.1-0.5-0.3-0.8-0.6-1.2c-0.3-0.3-0.6-0.6-0.9-0.8
	c-0.4-0.2-0.8-0.3-1.3-0.3c-0.5,0-0.9,0.1-1.3,0.3c-0.4,0.2-0.7,0.4-0.9,0.8c-0.2,0.3-0.4,0.7-0.6,1.2c-0.1,0.4-0.2,0.9-0.2,1.5v0.1
	c0,0.5,0.1,1,0.2,1.5c0.1,0.4,0.3,0.8,0.6,1.2c0.3,0.3,0.6,0.6,0.9,0.8C254,25,254.4,25.1,254.9,25.1z M261.8,18.6h2.2v0.7
	c0.1-0.1,0.2-0.2,0.4-0.3c0.1-0.1,0.3-0.2,0.5-0.3c0.2-0.1,0.4-0.1,0.6-0.2c0.2-0.1,0.4-0.1,0.7-0.1c0.5,0,0.9,0.1,1.2,0.2
	c0.4,0.1,0.7,0.3,0.9,0.6c0.2,0.3,0.4,0.6,0.6,0.9c0.1,0.3,0.2,0.7,0.2,1.1V27h-2.2v-4.9c0-0.3,0-0.5-0.1-0.8
	c-0.1-0.2-0.2-0.4-0.3-0.5c-0.1-0.1-0.3-0.2-0.4-0.3c-0.2-0.1-0.3-0.1-0.5-0.1c-0.2,0-0.4,0-0.6,0.1c-0.2,0.1-0.4,0.2-0.5,0.4
	c-0.1,0.2-0.2,0.4-0.3,0.6c-0.1,0.2-0.1,0.5-0.1,0.8V27h-2.2V18.6z M272.6,23.6c0,0.2,0.1,0.5,0.2,0.7c0.1,0.2,0.3,0.4,0.5,0.5
	c0.2,0.1,0.4,0.3,0.6,0.3c0.2,0.1,0.5,0.1,0.8,0.1c0.3,0,0.7-0.1,1-0.2c0.4-0.1,0.7-0.3,1-0.5l1,1.5c-0.4,0.3-0.9,0.6-1.4,0.8
	c-0.6,0.2-1.2,0.3-1.8,0.3c-0.6,0-1.1-0.1-1.6-0.3c-0.5-0.2-1-0.5-1.3-0.9c-0.4-0.4-0.7-0.8-0.9-1.4c-0.2-0.5-0.3-1.1-0.3-1.8
	c0-0.6,0.1-1.2,0.3-1.7c0.2-0.5,0.5-1,0.8-1.4c0.4-0.4,0.8-0.7,1.3-0.9c0.5-0.2,1-0.3,1.6-0.3c0.6,0,1.1,0.1,1.5,0.3
	c0.5,0.2,0.9,0.5,1.2,0.8c0.3,0.4,0.6,0.8,0.8,1.3c0.2,0.5,0.3,1.1,0.3,1.7v1H272.6z M274.3,20.3c-0.5,0-0.9,0.2-1.2,0.5
	c-0.3,0.3-0.5,0.7-0.6,1.1h3.4c0-0.4-0.2-0.8-0.5-1.1C275.2,20.5,274.8,20.3,274.3,20.3z M282.7,15.8h2.3v9.1h4.4V27h-6.7V15.8z
	 M294.3,18.5c0.6,0,1.2,0.1,1.7,0.3c0.5,0.2,0.9,0.5,1.3,0.9c0.4,0.4,0.6,0.9,0.8,1.4c0.2,0.5,0.3,1.1,0.3,1.7
	c0,0.6-0.1,1.2-0.3,1.7c-0.2,0.5-0.5,1-0.8,1.4c-0.4,0.4-0.8,0.7-1.3,0.9c-0.5,0.2-1.1,0.3-1.7,0.3c-0.6,0-1.2-0.1-1.7-0.3
	c-0.5-0.2-0.9-0.5-1.3-0.9c-0.4-0.4-0.6-0.8-0.8-1.4c-0.2-0.5-0.3-1.1-0.3-1.7c0-0.6,0.1-1.2,0.3-1.7c0.2-0.5,0.5-1,0.8-1.4
	c0.4-0.4,0.8-0.7,1.3-0.9C293.1,18.6,293.7,18.5,294.3,18.5z M294.3,25.2c0.3,0,0.6-0.1,0.8-0.2c0.2-0.1,0.4-0.3,0.6-0.5
	c0.2-0.2,0.3-0.4,0.4-0.7c0.1-0.3,0.1-0.6,0.1-0.9v-0.1c0-0.3,0-0.6-0.1-0.9c-0.1-0.3-0.2-0.5-0.4-0.7c-0.2-0.2-0.4-0.4-0.6-0.5
	c-0.2-0.1-0.5-0.2-0.8-0.2c-0.3,0-0.6,0.1-0.8,0.2c-0.2,0.1-0.4,0.3-0.6,0.5c-0.2,0.2-0.3,0.4-0.4,0.7c-0.1,0.3-0.1,0.6-0.1,0.9v0.1
	c0,0.3,0,0.7,0.1,0.9c0.1,0.3,0.2,0.5,0.4,0.7c0.2,0.2,0.4,0.4,0.6,0.5C293.7,25.1,294,25.2,294.3,25.2z M304.9,25.5
	c-0.2,0.2-0.5,0.4-0.8,0.6c-0.3,0.1-0.7,0.2-1.1,0.2c-0.6,0-1.1-0.1-1.5-0.3c-0.4-0.2-0.8-0.5-1.1-0.8c-0.3-0.3-0.5-0.8-0.7-1.2
	c-0.2-0.5-0.2-1-0.2-1.6c0-0.6,0.1-1.1,0.2-1.5c0.2-0.5,0.4-0.9,0.7-1.2c0.3-0.3,0.7-0.6,1.1-0.8c0.4-0.2,0.9-0.3,1.5-0.3
	c0.4,0,0.8,0.1,1.1,0.2c0.3,0.1,0.6,0.3,0.8,0.6v-0.6h2.2v8.3c0,0.5-0.1,0.9-0.3,1.3c-0.2,0.4-0.5,0.7-0.8,0.9
	c-0.3,0.2-0.7,0.4-1.2,0.5c-0.4,0.1-0.9,0.2-1.4,0.2c-0.6,0-1.2-0.1-1.9-0.2c-0.7-0.1-1.2-0.3-1.7-0.5l0.6-1.7
	c0.1,0.1,0.3,0.1,0.5,0.2c0.2,0.1,0.4,0.1,0.7,0.2c0.2,0.1,0.5,0.1,0.8,0.1c0.3,0,0.5,0.1,0.8,0.1c0.2,0,0.4,0,0.6-0.1
	c0.2,0,0.4-0.1,0.5-0.2c0.2-0.1,0.3-0.2,0.4-0.4c0.1-0.2,0.1-0.4,0.1-0.6V25.5z M301.7,22.4c0,0.3,0,0.5,0.1,0.8
	c0.1,0.2,0.2,0.4,0.3,0.6c0.1,0.2,0.3,0.3,0.5,0.4c0.2,0.1,0.5,0.1,0.8,0.1c0.6,0,1-0.2,1.3-0.6c0.2-0.4,0.4-0.8,0.4-1.4v-0.1
	c0-0.3,0-0.5-0.1-0.8c-0.1-0.2-0.2-0.4-0.3-0.6c-0.1-0.2-0.3-0.3-0.5-0.4c-0.2-0.1-0.5-0.1-0.8-0.1c-0.6,0-1,0.2-1.3,0.6
	C301.8,21.3,301.7,21.8,301.7,22.4L301.7,22.4z M311.1,27h-2.2v-8.4h2.2V27z M308.7,16.4c0-0.2,0-0.3,0.1-0.5
	c0.1-0.2,0.2-0.3,0.3-0.4c0.1-0.1,0.3-0.2,0.4-0.3c0.2-0.1,0.3-0.1,0.5-0.1c0.2,0,0.3,0,0.5,0.1c0.2,0.1,0.3,0.2,0.4,0.3
	c0.1,0.1,0.2,0.3,0.3,0.4c0.1,0.2,0.1,0.3,0.1,0.5c0,0.2,0,0.4-0.1,0.5c-0.1,0.2-0.2,0.3-0.3,0.4c-0.1,0.1-0.3,0.2-0.4,0.3
	c-0.2,0.1-0.3,0.1-0.5,0.1c-0.2,0-0.4,0-0.5-0.1c-0.2-0.1-0.3-0.2-0.4-0.3c-0.1-0.1-0.2-0.3-0.3-0.4
	C308.7,16.8,308.7,16.6,308.7,16.4z M312.9,18.6h2.2v0.7c0.1-0.1,0.2-0.2,0.4-0.3c0.1-0.1,0.3-0.2,0.5-0.3c0.2-0.1,0.4-0.1,0.6-0.2
	c0.2-0.1,0.4-0.1,0.7-0.1c0.5,0,0.9,0.1,1.2,0.2c0.4,0.1,0.7,0.3,0.9,0.6c0.2,0.3,0.4,0.6,0.6,0.9c0.1,0.3,0.2,0.7,0.2,1.1V27H318
	v-4.9c0-0.3,0-0.5-0.1-0.8c-0.1-0.2-0.2-0.4-0.3-0.5c-0.1-0.1-0.3-0.2-0.4-0.3c-0.2-0.1-0.3-0.1-0.5-0.1c-0.2,0-0.4,0-0.6,0.1
	c-0.2,0.1-0.4,0.2-0.5,0.4c-0.1,0.2-0.2,0.4-0.3,0.6c-0.1,0.2-0.1,0.5-0.1,0.8V27h-2.2V18.6z"/>
<circle class="st0" cx="342" cy="22" r="11"/>
<path class="st3" d="M334.3,29.8c0.9-3.4,4-5.8,7.7-5.8s6.8,2.5,7.7,5.8c-0.9,0.9-2,1.6-3.1,2.2H342h-4.6
	C336.2,31.5,335.2,30.7,334.3,29.8z"/>
<circle class="st4" cx="342" cy="18.8" r="3.8"/>
<circle class="st2" cx="342" cy="22" r="10"/>
<rect y="47" class="st1" width="375" height="82"/>
<path class="st0" d="M17.9,67.4c0,0.5,0.1,0.9,0.2,1.4s0.3,0.8,0.5,1.2c0.2,0.3,0.6,0.6,0.9,0.8c0.4,0.2,0.8,0.3,1.4,0.3
	c0.5,0,0.9-0.1,1.3-0.2c0.3-0.2,0.6-0.4,0.8-0.6c0.2-0.2,0.3-0.5,0.4-0.8c0.1-0.3,0.1-0.5,0.1-0.8v-0.1h-2.9v-1.7h5.1V73h-2v-1.3
	c-0.1,0.2-0.3,0.4-0.5,0.6c-0.2,0.2-0.4,0.3-0.7,0.5C22.3,72.9,22,73,21.7,73c-0.3,0.1-0.6,0.1-1,0.1c-0.8,0-1.5-0.1-2.2-0.4
	c-0.6-0.3-1.2-0.7-1.6-1.2c-0.4-0.5-0.8-1.1-1-1.8c-0.2-0.7-0.3-1.5-0.3-2.3c0-0.8,0.1-1.6,0.4-2.2c0.3-0.7,0.6-1.3,1.1-1.8
	c0.5-0.5,1-0.9,1.7-1.2c0.7-0.3,1.4-0.5,2.2-0.5c0.5,0,1,0.1,1.5,0.2c0.5,0.1,0.9,0.3,1.3,0.5c0.4,0.2,0.7,0.5,1,0.8
	c0.3,0.3,0.5,0.7,0.7,1.1l-2,1.1c-0.1-0.2-0.3-0.5-0.4-0.7c-0.2-0.2-0.3-0.4-0.6-0.5c-0.2-0.2-0.4-0.3-0.7-0.4
	c-0.3-0.1-0.6-0.1-0.9-0.1c-0.5,0-1,0.1-1.4,0.3c-0.4,0.2-0.7,0.5-0.9,0.8c-0.2,0.3-0.4,0.7-0.5,1.2C18,66.4,17.9,66.9,17.9,67.4
	L17.9,67.4z M32.6,61.6c0.8,0,1.6,0.2,2.2,0.5c0.7,0.3,1.2,0.7,1.7,1.2c0.5,0.5,0.8,1.1,1.1,1.8c0.2,0.7,0.4,1.4,0.4,2.2
	c0,0.8-0.1,1.6-0.4,2.3c-0.2,0.7-0.6,1.3-1.1,1.8c-0.5,0.5-1,0.9-1.7,1.2c-0.7,0.3-1.4,0.4-2.2,0.4c-0.8,0-1.6-0.1-2.2-0.4
	c-0.7-0.3-1.2-0.7-1.7-1.2c-0.5-0.5-0.8-1.1-1.1-1.8c-0.2-0.7-0.4-1.5-0.4-2.3c0-0.8,0.1-1.6,0.4-2.2c0.2-0.7,0.6-1.3,1.1-1.8
	c0.5-0.5,1-0.9,1.7-1.2C31,61.8,31.7,61.6,32.6,61.6z M32.6,71.1c0.5,0,0.9-0.1,1.3-0.3c0.4-0.2,0.7-0.4,0.9-0.8
	c0.3-0.3,0.4-0.7,0.6-1.2c0.1-0.4,0.2-0.9,0.2-1.5v-0.1c0-0.5-0.1-1-0.2-1.5c-0.1-0.5-0.3-0.8-0.6-1.2c-0.3-0.3-0.6-0.6-0.9-0.8
	c-0.4-0.2-0.8-0.3-1.3-0.3s-0.9,0.1-1.3,0.3c-0.4,0.2-0.7,0.4-0.9,0.8c-0.2,0.3-0.4,0.7-0.6,1.2c-0.1,0.4-0.2,0.9-0.2,1.5v0.1
	c0,0.5,0.1,1,0.2,1.5c0.1,0.4,0.3,0.8,0.6,1.2c0.3,0.3,0.6,0.6,0.9,0.8C31.6,71,32.1,71.1,32.6,71.1z M41.9,73l-3.2-11.2h2.5
	l2.2,8.4h0.1l2.1-8.4h2.5L45,73H41.9z M48.5,71.7c0-0.2,0-0.4,0.1-0.5c0.1-0.2,0.2-0.3,0.3-0.4c0.1-0.1,0.3-0.2,0.5-0.3
	c0.2-0.1,0.4-0.1,0.6-0.1s0.4,0,0.5,0.1c0.2,0.1,0.3,0.2,0.5,0.3c0.1,0.1,0.2,0.3,0.3,0.4c0.1,0.2,0.1,0.3,0.1,0.5
	c0,0.2,0,0.4-0.1,0.6c-0.1,0.2-0.2,0.3-0.3,0.5c-0.1,0.1-0.3,0.2-0.5,0.3c-0.2,0.1-0.4,0.1-0.5,0.1s-0.4,0-0.6-0.1
	c-0.2-0.1-0.3-0.2-0.5-0.3c-0.1-0.1-0.2-0.3-0.3-0.5C48.5,72.1,48.5,71.9,48.5,71.7z M57.7,71.1c0.3,0,0.6,0,0.9-0.1
	c0.3-0.1,0.5-0.2,0.7-0.4c0.2-0.2,0.4-0.4,0.5-0.7c0.1-0.3,0.2-0.7,0.2-1.1v-6.9h2.2v7.3c0,0.6-0.1,1.2-0.3,1.7
	c-0.2,0.5-0.5,0.9-0.9,1.3c-0.4,0.4-0.9,0.6-1.4,0.8c-0.6,0.2-1.2,0.3-1.8,0.3c-0.7,0-1.3-0.1-1.8-0.3c-0.6-0.2-1-0.5-1.4-0.8
	c-0.4-0.4-0.7-0.8-1-1.3c-0.2-0.5-0.3-1.1-0.3-1.7v-7.3h2.2v6.9c0,0.4,0.1,0.8,0.2,1.1c0.1,0.3,0.3,0.5,0.5,0.7
	c0.2,0.2,0.5,0.3,0.7,0.4C57.1,71.1,57.4,71.1,57.7,71.1z M64.5,61.8h2.3v4.9l4-4.9h2.8l-3.9,4.5l4.1,6.8h-2.6l-3-5l-1.4,1.6V73
	h-2.3V61.8z M82.6,61.6c0.8,0,1.6,0.2,2.2,0.5c0.7,0.3,1.2,0.7,1.7,1.2c0.5,0.5,0.8,1.1,1.1,1.8c0.2,0.7,0.4,1.4,0.4,2.2
	c0,0.8-0.1,1.6-0.4,2.3c-0.2,0.7-0.6,1.3-1.1,1.8c-0.5,0.5-1,0.9-1.7,1.2c-0.7,0.3-1.4,0.4-2.2,0.4c-0.8,0-1.6-0.1-2.2-0.4
	c-0.7-0.3-1.2-0.7-1.7-1.2c-0.5-0.5-0.8-1.1-1.1-1.8c-0.2-0.7-0.4-1.5-0.4-2.3c0-0.8,0.1-1.6,0.4-2.2c0.2-0.7,0.6-1.3,1.1-1.8
	c0.5-0.5,1-0.9,1.7-1.2C81,61.8,81.8,61.6,82.6,61.6z M82.6,71.1c0.5,0,0.9-0.1,1.3-0.3c0.4-0.2,0.7-0.4,0.9-0.8
	c0.3-0.3,0.4-0.7,0.6-1.2c0.1-0.4,0.2-0.9,0.2-1.5v-0.1c0-0.5-0.1-1-0.2-1.5c-0.1-0.5-0.3-0.8-0.6-1.2c-0.3-0.3-0.6-0.6-0.9-0.8
	c-0.4-0.2-0.8-0.3-1.3-0.3s-0.9,0.1-1.3,0.3c-0.4,0.2-0.7,0.4-0.9,0.8c-0.2,0.3-0.4,0.7-0.6,1.2c-0.1,0.4-0.2,0.9-0.2,1.5v0.1
	c0,0.5,0.1,1,0.2,1.5c0.1,0.4,0.3,0.8,0.6,1.2c0.3,0.3,0.6,0.6,0.9,0.8C81.7,71,82.1,71.1,82.6,71.1z M89.5,64.6h2.2v0.7
	c0.1-0.1,0.2-0.2,0.4-0.3c0.1-0.1,0.3-0.2,0.5-0.3c0.2-0.1,0.4-0.1,0.6-0.2c0.2-0.1,0.4-0.1,0.7-0.1c0.5,0,0.9,0.1,1.2,0.2
	c0.4,0.1,0.7,0.3,0.9,0.6c0.2,0.3,0.4,0.6,0.6,0.9c0.1,0.3,0.2,0.7,0.2,1.1V73h-2.2v-4.9c0-0.3,0-0.5-0.1-0.8
	c-0.1-0.2-0.2-0.4-0.3-0.5c-0.1-0.1-0.3-0.2-0.4-0.3c-0.2-0.1-0.3-0.1-0.5-0.1c-0.2,0-0.4,0-0.6,0.1c-0.2,0.1-0.4,0.2-0.5,0.4
	c-0.1,0.2-0.2,0.4-0.3,0.6s-0.1,0.5-0.1,0.8V73h-2.2V64.6z M100.3,69.6c0,0.2,0.1,0.5,0.2,0.7c0.1,0.2,0.3,0.4,0.5,0.5
	c0.2,0.1,0.4,0.3,0.6,0.3c0.2,0.1,0.5,0.1,0.8,0.1c0.3,0,0.7-0.1,1-0.2c0.4-0.1,0.7-0.3,1-0.5l1,1.5c-0.4,0.3-0.9,0.6-1.4,0.8
	c-0.6,0.2-1.2,0.3-1.8,0.3c-0.6,0-1.1-0.1-1.6-0.3c-0.5-0.2-1-0.5-1.3-0.9c-0.4-0.4-0.7-0.8-0.9-1.4c-0.2-0.5-0.3-1.1-0.3-1.8
	c0-0.6,0.1-1.2,0.3-1.7c0.2-0.5,0.5-1,0.8-1.4c0.4-0.4,0.8-0.7,1.3-0.9c0.5-0.2,1-0.3,1.6-0.3c0.6,0,1.1,0.1,1.5,0.3
	c0.5,0.2,0.9,0.5,1.2,0.8c0.3,0.4,0.6,0.8,0.8,1.3c0.2,0.5,0.3,1.1,0.3,1.7v1H100.3z M102,66.3c-0.5,0-0.9,0.2-1.2,0.5
	c-0.3,0.3-0.5,0.7-0.6,1.1h3.4c0-0.4-0.2-0.8-0.5-1.1C102.9,66.5,102.5,66.3,102,66.3z M110.4,61.8h2.3v9.1h4.4V73h-6.7V61.8z
	 M122,64.5c0.6,0,1.2,0.1,1.7,0.3c0.5,0.2,0.9,0.5,1.3,0.9c0.4,0.4,0.6,0.9,0.8,1.4c0.2,0.5,0.3,1.1,0.3,1.7c0,0.6-0.1,1.2-0.3,1.7
	c-0.2,0.5-0.5,1-0.8,1.4c-0.4,0.4-0.8,0.7-1.3,0.9c-0.5,0.2-1.1,0.3-1.7,0.3c-0.6,0-1.2-0.1-1.7-0.3c-0.5-0.2-0.9-0.5-1.3-0.9
	c-0.4-0.4-0.6-0.8-0.8-1.4c-0.2-0.5-0.3-1.1-0.3-1.7c0-0.6,0.1-1.2,0.3-1.7c0.2-0.5,0.5-1,0.8-1.4c0.4-0.4,0.8-0.7,1.3-0.9
	C120.8,64.6,121.3,64.5,122,64.5z M122,71.2c0.3,0,0.6-0.1,0.8-0.2c0.2-0.1,0.4-0.3,0.6-0.5c0.2-0.2,0.3-0.4,0.4-0.7
	c0.1-0.3,0.1-0.6,0.1-0.9v-0.1c0-0.3,0-0.6-0.1-0.9c-0.1-0.3-0.2-0.5-0.4-0.7c-0.2-0.2-0.4-0.4-0.6-0.5c-0.2-0.1-0.5-0.2-0.8-0.2
	c-0.3,0-0.6,0.1-0.8,0.2c-0.2,0.1-0.4,0.3-0.6,0.5c-0.2,0.2-0.3,0.4-0.4,0.7c-0.1,0.3-0.1,0.6-0.1,0.9v0.1c0,0.3,0,0.7,0.1,0.9
	c0.1,0.3,0.2,0.5,0.4,0.7c0.2,0.2,0.4,0.4,0.6,0.5C121.4,71.1,121.7,71.2,122,71.2z M132.6,71.5c-0.2,0.2-0.5,0.4-0.8,0.6
	c-0.3,0.1-0.7,0.2-1.1,0.2c-0.6,0-1.1-0.1-1.5-0.3c-0.4-0.2-0.8-0.5-1.1-0.8c-0.3-0.3-0.5-0.8-0.7-1.2c-0.2-0.5-0.2-1-0.2-1.6
	c0-0.6,0.1-1.1,0.2-1.5c0.2-0.5,0.4-0.9,0.7-1.2c0.3-0.3,0.7-0.6,1.1-0.8c0.4-0.2,0.9-0.3,1.5-0.3c0.4,0,0.8,0.1,1.1,0.2
	c0.3,0.1,0.6,0.3,0.8,0.6v-0.6h2.2v8.3c0,0.5-0.1,0.9-0.3,1.3c-0.2,0.4-0.5,0.7-0.8,0.9c-0.3,0.2-0.7,0.4-1.2,0.5
	c-0.4,0.1-0.9,0.2-1.4,0.2c-0.6,0-1.2-0.1-1.9-0.2c-0.7-0.1-1.2-0.3-1.7-0.5l0.6-1.7c0.1,0.1,0.3,0.1,0.5,0.2
	c0.2,0.1,0.4,0.1,0.7,0.2c0.2,0.1,0.5,0.1,0.8,0.1c0.3,0,0.5,0.1,0.8,0.1c0.2,0,0.4,0,0.6-0.1c0.2,0,0.4-0.1,0.5-0.2
	c0.2-0.1,0.3-0.2,0.4-0.4c0.1-0.2,0.1-0.4,0.1-0.6V71.5z M129.3,68.4c0,0.3,0,0.5,0.1,0.8c0.1,0.2,0.2,0.4,0.3,0.6
	c0.1,0.2,0.3,0.3,0.5,0.4c0.2,0.1,0.5,0.1,0.8,0.1c0.6,0,1-0.2,1.3-0.6c0.2-0.4,0.4-0.8,0.4-1.4v-0.1c0-0.3,0-0.5-0.1-0.8
	c-0.1-0.2-0.2-0.4-0.3-0.6c-0.1-0.2-0.3-0.3-0.5-0.4c-0.2-0.1-0.5-0.1-0.8-0.1c-0.6,0-1,0.2-1.3,0.6
	C129.5,67.3,129.3,67.8,129.3,68.4L129.3,68.4z M138.8,73h-2.2v-8.4h2.2V73z M136.4,62.4c0-0.2,0-0.3,0.1-0.5
	c0.1-0.2,0.2-0.3,0.3-0.4c0.1-0.1,0.3-0.2,0.4-0.3c0.2-0.1,0.3-0.1,0.5-0.1c0.2,0,0.3,0,0.5,0.1c0.2,0.1,0.3,0.2,0.4,0.3
	c0.1,0.1,0.2,0.3,0.3,0.4c0.1,0.2,0.1,0.3,0.1,0.5c0,0.2,0,0.4-0.1,0.5c-0.1,0.2-0.2,0.3-0.3,0.4c-0.1,0.1-0.3,0.2-0.4,0.3
	c-0.2,0.1-0.3,0.1-0.5,0.1c-0.2,0-0.4,0-0.5-0.1c-0.2-0.1-0.3-0.2-0.4-0.3c-0.1-0.1-0.2-0.3-0.3-0.4
	C136.4,62.8,136.4,62.6,136.4,62.4z M140.6,64.6h2.2v0.7c0.1-0.1,0.2-0.2,0.4-0.3c0.1-0.1,0.3-0.2,0.5-0.3c0.2-0.1,0.4-0.1,0.6-0.2
	c0.2-0.1,0.4-0.1,0.7-0.1c0.5,0,0.9,0.1,1.2,0.2c0.4,0.1,0.7,0.3,0.9,0.6c0.2,0.3,0.4,0.6,0.6,0.9c0.1,0.3,0.2,0.7,0.2,1.1V73h-2.2
	v-4.9c0-0.3,0-0.5-0.1-0.8c-0.1-0.2-0.2-0.4-0.3-0.5c-0.1-0.1-0.3-0.2-0.4-0.3c-0.2-0.1-0.3-0.1-0.5-0.1c-0.2,0-0.4,0-0.6,0.1
	c-0.2,0.1-0.4,0.2-0.5,0.4c-0.1,0.2-0.2,0.4-0.3,0.6c-0.1,0.2-0.1,0.5-0.1,0.8V73h-2.2V64.6z"/>
<line class="st5" x1="15" y1="88.8" x2="360" y2="88.8"/>
<path class="st0" d="M16.9,110.9c0.1,0.2,0.3,0.3,0.5,0.5c0.2,0.2,0.4,0.3,0.7,0.4c0.3,0.1,0.5,0.2,0.8,0.3c0.3,0.1,0.6,0.1,1,0.1
	c0.6,0,1.1-0.1,1.5-0.4c0.3-0.3,0.5-0.6,0.5-1c0-0.4-0.2-0.7-0.5-0.9c-0.3-0.2-0.8-0.4-1.4-0.5l-0.4-0.1c-0.5-0.1-0.9-0.2-1.4-0.3
	c-0.5-0.1-0.9-0.3-1.3-0.6c-0.4-0.3-0.7-0.6-0.9-1c-0.2-0.4-0.4-0.9-0.4-1.5c0-0.4,0.1-0.7,0.2-1.1c0.2-0.4,0.4-0.7,0.7-1.1
	c0.3-0.3,0.8-0.6,1.3-0.8c0.5-0.2,1.2-0.3,2-0.3c0.9,0,1.7,0.2,2.4,0.5c0.7,0.3,1.3,0.7,1.7,1.2l-1.5,1.4c-0.3-0.3-0.7-0.6-1.2-0.8
	c-0.5-0.2-1-0.3-1.5-0.3c-0.6,0-1,0.1-1.4,0.3c-0.3,0.2-0.5,0.5-0.5,0.9c0,0.2,0.1,0.4,0.2,0.6c0.1,0.2,0.3,0.3,0.5,0.4
	c0.2,0.1,0.4,0.2,0.7,0.2c0.3,0.1,0.6,0.1,0.9,0.2l0.2,0c0.4,0.1,0.9,0.2,1.3,0.3c0.4,0.1,0.8,0.3,1.2,0.6c0.4,0.2,0.7,0.6,0.9,1
	c0.2,0.4,0.3,0.9,0.3,1.5c0,0.6-0.1,1.1-0.4,1.5c-0.2,0.4-0.5,0.8-0.9,1.1c-0.4,0.3-0.8,0.5-1.3,0.7c-0.5,0.2-1,0.2-1.6,0.2
	c-0.6,0-1.1,0-1.5-0.1c-0.5-0.1-0.9-0.2-1.3-0.4c-0.4-0.2-0.7-0.4-1-0.6c-0.3-0.2-0.6-0.4-0.8-0.7L16.9,110.9z M28.1,114h-2.2v-8.4
	h2.2V114z M25.7,103.4c0-0.2,0-0.3,0.1-0.5c0.1-0.2,0.2-0.3,0.3-0.4c0.1-0.1,0.3-0.2,0.4-0.3c0.2-0.1,0.3-0.1,0.5-0.1
	c0.2,0,0.3,0,0.5,0.1c0.2,0.1,0.3,0.2,0.4,0.3c0.1,0.1,0.2,0.3,0.3,0.4c0.1,0.2,0.1,0.3,0.1,0.5c0,0.2,0,0.4-0.1,0.5
	c-0.1,0.2-0.2,0.3-0.3,0.4c-0.1,0.1-0.3,0.2-0.4,0.3c-0.2,0.1-0.3,0.1-0.5,0.1c-0.2,0-0.4,0-0.5-0.1c-0.2-0.1-0.3-0.2-0.4-0.3
	c-0.1-0.1-0.2-0.3-0.3-0.4C25.8,103.8,25.7,103.6,25.7,103.4z M35,112.5c-0.2,0.2-0.5,0.4-0.8,0.6c-0.3,0.1-0.7,0.2-1.1,0.2
	c-0.6,0-1.1-0.1-1.5-0.3c-0.4-0.2-0.8-0.5-1.1-0.8c-0.3-0.3-0.5-0.8-0.7-1.2c-0.2-0.5-0.2-1-0.2-1.6c0-0.6,0.1-1.1,0.2-1.5
	c0.2-0.5,0.4-0.9,0.7-1.2c0.3-0.3,0.7-0.6,1.1-0.8c0.4-0.2,0.9-0.3,1.5-0.3c0.4,0,0.8,0.1,1.1,0.2c0.3,0.1,0.6,0.3,0.8,0.6v-0.6h2.2
	v8.3c0,0.5-0.1,0.9-0.3,1.3c-0.2,0.4-0.5,0.7-0.8,0.9c-0.3,0.2-0.7,0.4-1.2,0.5c-0.4,0.1-0.9,0.2-1.4,0.2c-0.6,0-1.2-0.1-1.9-0.2
	c-0.7-0.1-1.2-0.3-1.7-0.5l0.6-1.7c0.1,0.1,0.3,0.1,0.5,0.2c0.2,0.1,0.4,0.1,0.7,0.2c0.2,0.1,0.5,0.1,0.8,0.1c0.3,0,0.5,0.1,0.8,0.1
	c0.2,0,0.4,0,0.6-0.1c0.2,0,0.4-0.1,0.5-0.2c0.2-0.1,0.3-0.2,0.4-0.4c0.1-0.2,0.1-0.4,0.1-0.6V112.5z M31.8,109.4
	c0,0.3,0,0.5,0.1,0.8c0.1,0.2,0.2,0.4,0.3,0.6c0.1,0.2,0.3,0.3,0.5,0.4c0.2,0.1,0.5,0.1,0.8,0.1c0.6,0,1-0.2,1.3-0.6
	c0.2-0.4,0.4-0.8,0.4-1.4v-0.1c0-0.3,0-0.5-0.1-0.8c-0.1-0.2-0.2-0.4-0.3-0.6c-0.1-0.2-0.3-0.3-0.5-0.4c-0.2-0.1-0.5-0.1-0.8-0.1
	c-0.6,0-1,0.2-1.3,0.6C31.9,108.3,31.8,108.8,31.8,109.4L31.8,109.4z M39.1,105.6h2.2v0.7c0.1-0.1,0.2-0.2,0.4-0.3
	c0.1-0.1,0.3-0.2,0.5-0.3c0.2-0.1,0.4-0.1,0.6-0.2c0.2-0.1,0.4-0.1,0.7-0.1c0.5,0,0.9,0.1,1.2,0.2c0.4,0.1,0.7,0.3,0.9,0.6
	c0.2,0.3,0.4,0.6,0.6,0.9s0.2,0.7,0.2,1.1v5.6h-2.2v-4.9c0-0.3,0-0.5-0.1-0.8c-0.1-0.2-0.2-0.4-0.3-0.5c-0.1-0.1-0.3-0.2-0.4-0.3
	c-0.2-0.1-0.3-0.1-0.5-0.1c-0.2,0-0.4,0-0.6,0.1c-0.2,0.1-0.4,0.2-0.5,0.4c-0.1,0.2-0.2,0.4-0.3,0.6c-0.1,0.2-0.1,0.5-0.1,0.8v4.6
	h-2.2V105.6z M54.6,105.5c0.6,0,1.2,0.1,1.7,0.3c0.5,0.2,0.9,0.5,1.3,0.9c0.4,0.4,0.6,0.9,0.8,1.4c0.2,0.5,0.3,1.1,0.3,1.7
	c0,0.6-0.1,1.2-0.3,1.7c-0.2,0.5-0.5,1-0.8,1.4c-0.4,0.4-0.8,0.7-1.3,0.9c-0.5,0.2-1.1,0.3-1.7,0.3c-0.6,0-1.2-0.1-1.7-0.3
	c-0.5-0.2-0.9-0.5-1.3-0.9c-0.4-0.4-0.6-0.8-0.8-1.4c-0.2-0.5-0.3-1.1-0.3-1.7c0-0.6,0.1-1.2,0.3-1.7c0.2-0.5,0.5-1,0.8-1.4
	c0.4-0.4,0.8-0.7,1.3-0.9C53.4,105.6,54,105.5,54.6,105.5z M54.6,112.2c0.3,0,0.6-0.1,0.8-0.2c0.2-0.1,0.4-0.3,0.6-0.5
	c0.2-0.2,0.3-0.4,0.4-0.7c0.1-0.3,0.1-0.6,0.1-0.9v-0.1c0-0.3,0-0.6-0.1-0.9c-0.1-0.3-0.2-0.5-0.4-0.7c-0.2-0.2-0.4-0.4-0.6-0.5
	c-0.2-0.1-0.5-0.2-0.8-0.2s-0.6,0.1-0.8,0.2c-0.2,0.1-0.4,0.3-0.6,0.5c-0.2,0.2-0.3,0.4-0.4,0.7c-0.1,0.3-0.1,0.6-0.1,0.9v0.1
	c0,0.3,0,0.7,0.1,0.9c0.1,0.3,0.2,0.5,0.4,0.7c0.2,0.2,0.4,0.4,0.6,0.5C54,112.1,54.3,112.2,54.6,112.2z M67.3,114h-2.2v-0.7
	c-0.1,0.1-0.2,0.2-0.4,0.3c-0.1,0.1-0.3,0.2-0.5,0.3c-0.2,0.1-0.4,0.1-0.6,0.2c-0.2,0-0.4,0.1-0.7,0.1c-0.5,0-0.9-0.1-1.2-0.2
	c-0.4-0.2-0.7-0.4-0.9-0.6c-0.2-0.3-0.4-0.6-0.6-0.9c-0.1-0.3-0.2-0.7-0.2-1.1v-5.6h2.2v4.9c0,0.3,0,0.6,0.1,0.8
	c0.1,0.2,0.2,0.4,0.3,0.5c0.1,0.1,0.3,0.2,0.4,0.3c0.2,0.1,0.3,0.1,0.5,0.1c0.2,0,0.4,0,0.6-0.1c0.2-0.1,0.4-0.2,0.5-0.4
	c0.1-0.2,0.2-0.4,0.3-0.6c0.1-0.2,0.1-0.5,0.1-0.8v-4.6h2.2V114z M72.2,111.5c0,0.1,0,0.2,0,0.3c0,0.1,0.1,0.2,0.1,0.2
	c0.1,0.1,0.2,0.1,0.3,0.1c0.1,0,0.3,0.1,0.5,0.1c0.1,0,0.2,0,0.3,0c0.1,0,0.2,0,0.3,0c0.1,0,0.2,0,0.3,0c0.1,0,0.2,0,0.2,0l0.2,1.9
	c-0.2,0-0.4,0-0.6,0.1c-0.2,0-0.4,0-0.6,0c-0.2,0-0.5,0-0.7,0c-0.7,0-1.3-0.2-1.7-0.5c-0.4-0.3-0.6-0.9-0.6-1.6v-4.5h-1.5v-1.9h1.5
	v-2.4l2.2-0.6v2.9h2.2v1.9h-2.2V111.5z"/>
<rect y="129" class="st4" width="375" height="10"/>
<rect y="139" class="st6" width="375" height="44"/>
<path class="st1" d="M17.3,162.3c0.2,0.2,0.4,0.4,0.6,0.6c0.2,0.2,0.5,0.4,0.8,0.5c0.3,0.1,0.6,0.3,1,0.4c0.4,0.1,0.7,0.1,1.1,0.1
	c0.8,0,1.3-0.2,1.7-0.5c0.4-0.3,0.6-0.7,0.6-1.2c0-0.5-0.2-0.8-0.5-1.1c-0.4-0.2-0.9-0.4-1.7-0.6l-0.4-0.1c-0.6-0.1-1.1-0.2-1.7-0.4
	c-0.6-0.2-1-0.4-1.5-0.7c-0.4-0.3-0.8-0.7-1.1-1.2c-0.3-0.5-0.4-1.1-0.4-1.8c0-0.4,0.1-0.9,0.3-1.3c0.2-0.5,0.5-0.9,0.9-1.3
	c0.4-0.4,0.9-0.7,1.6-1c0.6-0.2,1.4-0.4,2.3-0.4c1.1,0,2,0.2,2.9,0.5c0.8,0.4,1.5,0.8,2.1,1.4l-1.8,1.7c-0.4-0.4-0.8-0.7-1.4-0.9
	c-0.6-0.2-1.2-0.3-1.8-0.3c-0.7,0-1.2,0.1-1.6,0.4c-0.4,0.3-0.6,0.6-0.6,1c0,0.3,0.1,0.5,0.2,0.7c0.1,0.2,0.3,0.3,0.5,0.5
	c0.2,0.1,0.5,0.2,0.8,0.3c0.3,0.1,0.7,0.2,1.1,0.2l0.2,0c0.5,0.1,1.1,0.2,1.6,0.4c0.5,0.1,1,0.4,1.4,0.7c0.4,0.3,0.8,0.7,1,1.2
	c0.3,0.5,0.4,1.1,0.4,1.8c0,0.7-0.1,1.3-0.4,1.8c-0.3,0.5-0.6,1-1.1,1.3c-0.5,0.4-1,0.6-1.6,0.8c-0.6,0.2-1.2,0.3-1.9,0.3
	c-0.7,0-1.3-0.1-1.8-0.2c-0.6-0.1-1.1-0.3-1.5-0.5c-0.5-0.2-0.9-0.4-1.2-0.7c-0.4-0.3-0.7-0.5-0.9-0.8L17.3,162.3z M30.1,161.9
	c0,0.3,0.1,0.6,0.3,0.8c0.1,0.2,0.3,0.5,0.6,0.6c0.2,0.2,0.5,0.3,0.8,0.4c0.3,0.1,0.6,0.1,0.9,0.1c0.4,0,0.8-0.1,1.2-0.2
	c0.4-0.1,0.8-0.4,1.2-0.6l1.2,1.8c-0.5,0.4-1,0.7-1.7,0.9c-0.7,0.2-1.4,0.4-2.2,0.4c-0.7,0-1.3-0.1-1.9-0.4c-0.6-0.2-1.1-0.6-1.6-1
	c-0.5-0.4-0.8-1-1.1-1.6c-0.3-0.6-0.4-1.4-0.4-2.2c0-0.7,0.1-1.4,0.3-2c0.2-0.6,0.6-1.2,1-1.6c0.4-0.5,0.9-0.8,1.5-1.1
	c0.6-0.3,1.2-0.4,1.9-0.4c0.7,0,1.3,0.1,1.8,0.4c0.6,0.2,1.1,0.6,1.5,1c0.4,0.4,0.7,0.9,1,1.5c0.2,0.6,0.4,1.3,0.4,2v1.2H30.1z
	 M32.2,158.1c-0.6,0-1,0.2-1.4,0.6c-0.4,0.4-0.6,0.8-0.7,1.3h4c0-0.5-0.2-1-0.6-1.3C33.2,158.3,32.8,158.1,32.2,158.1z M44.1,158.6
	h-0.3c-0.4,0-0.7,0-1,0.1c-0.3,0.1-0.6,0.2-0.9,0.4c-0.3,0.2-0.5,0.5-0.6,0.8c-0.1,0.3-0.2,0.8-0.2,1.3v4.8h-2.6v-9.9H41v1.1
	c0.1-0.2,0.2-0.3,0.4-0.5s0.4-0.3,0.6-0.4c0.2-0.1,0.5-0.2,0.8-0.3c0.3-0.1,0.6-0.1,0.9-0.1h0.4V158.6z M47.8,166l-3-9.9h2.9
	l1.8,6.8l1.8-6.8H54l-3,9.9H47.8z M57.8,166h-2.6v-9.9h2.6V166z M55,153.5c0-0.2,0-0.4,0.1-0.6c0.1-0.2,0.2-0.4,0.3-0.5
	c0.1-0.1,0.3-0.3,0.5-0.3c0.2-0.1,0.4-0.1,0.6-0.1c0.2,0,0.4,0,0.6,0.1c0.2,0.1,0.4,0.2,0.5,0.3c0.1,0.1,0.3,0.3,0.3,0.5
	c0.1,0.2,0.1,0.4,0.1,0.6c0,0.2,0,0.4-0.1,0.6c-0.1,0.2-0.2,0.4-0.3,0.5c-0.1,0.1-0.3,0.2-0.5,0.3c-0.2,0.1-0.4,0.1-0.6,0.1
	c-0.2,0-0.4,0-0.6-0.1c-0.2-0.1-0.3-0.2-0.5-0.3c-0.1-0.1-0.2-0.3-0.3-0.5C55,153.9,55,153.7,55,153.5z M62.2,161.1
	c0,0.3,0,0.6,0.1,1c0.1,0.3,0.2,0.6,0.4,0.9c0.2,0.3,0.4,0.5,0.7,0.6c0.3,0.2,0.6,0.2,1,0.2c0.3,0,0.5,0,0.7-0.1
	c0.2-0.1,0.4-0.2,0.6-0.3c0.2-0.1,0.3-0.3,0.4-0.4c0.1-0.2,0.2-0.3,0.3-0.5l2.2,1.2c-0.2,0.4-0.4,0.7-0.7,1.1
	c-0.3,0.3-0.6,0.6-1,0.8c-0.4,0.2-0.8,0.4-1.2,0.5c-0.5,0.1-0.9,0.2-1.4,0.2c-0.7,0-1.3-0.1-1.9-0.4c-0.6-0.3-1.1-0.6-1.5-1.1
	c-0.4-0.5-0.8-1-1-1.6c-0.2-0.6-0.4-1.3-0.4-2.1c0-0.7,0.1-1.4,0.4-2c0.2-0.6,0.6-1.2,1-1.6c0.4-0.5,0.9-0.8,1.5-1.1
	c0.6-0.3,1.2-0.4,1.9-0.4c0.5,0,1,0.1,1.4,0.2c0.5,0.1,0.9,0.3,1.2,0.5c0.4,0.2,0.7,0.5,1,0.8c0.3,0.3,0.5,0.7,0.7,1.1l-2.2,1.2
	c-0.1-0.2-0.2-0.4-0.3-0.5c-0.1-0.2-0.3-0.3-0.4-0.4c-0.2-0.1-0.3-0.2-0.6-0.3c-0.2-0.1-0.4-0.1-0.7-0.1c-0.4,0-0.7,0.1-1,0.3
	c-0.3,0.2-0.5,0.4-0.7,0.6c-0.2,0.3-0.3,0.6-0.4,0.9C62.2,160.3,62.2,160.7,62.2,161.1L62.2,161.1z M72.4,161.9
	c0,0.3,0.1,0.6,0.3,0.8c0.1,0.2,0.3,0.5,0.6,0.6c0.2,0.2,0.5,0.3,0.8,0.4c0.3,0.1,0.6,0.1,0.9,0.1c0.4,0,0.8-0.1,1.2-0.2
	c0.4-0.1,0.8-0.4,1.2-0.6l1.2,1.8c-0.5,0.4-1,0.7-1.7,0.9c-0.7,0.2-1.4,0.4-2.2,0.4c-0.7,0-1.3-0.1-1.9-0.4c-0.6-0.2-1.1-0.6-1.6-1
	c-0.5-0.4-0.8-1-1.1-1.6c-0.3-0.6-0.4-1.4-0.4-2.2c0-0.7,0.1-1.4,0.3-2c0.2-0.6,0.6-1.2,1-1.6c0.4-0.5,0.9-0.8,1.5-1.1
	c0.6-0.3,1.2-0.4,1.9-0.4c0.7,0,1.3,0.1,1.8,0.4c0.6,0.2,1.1,0.6,1.5,1c0.4,0.4,0.7,0.9,1,1.5c0.2,0.6,0.4,1.3,0.4,2v1.2H72.4z
	 M74.4,158.1c-0.6,0-1,0.2-1.4,0.6c-0.4,0.4-0.6,0.8-0.7,1.3h4c0-0.5-0.2-1-0.6-1.3C75.5,158.3,75,158.1,74.4,158.1z M84.1,156.1
	h2.6v0.9c0.1-0.1,0.3-0.3,0.5-0.4c0.2-0.1,0.4-0.2,0.6-0.3c0.2-0.1,0.4-0.2,0.7-0.2c0.3-0.1,0.5-0.1,0.8-0.1c0.5,0,1,0.1,1.4,0.3
	c0.4,0.2,0.8,0.4,1.1,0.7c0.3,0.3,0.5,0.7,0.7,1.1c0.2,0.4,0.2,0.9,0.2,1.3v6.7h-2.6v-5.8c0-0.4,0-0.6-0.1-0.9
	c-0.1-0.2-0.2-0.4-0.3-0.6c-0.1-0.2-0.3-0.3-0.5-0.3c-0.2-0.1-0.4-0.1-0.6-0.1c-0.3,0-0.5,0-0.7,0.1c-0.2,0.1-0.4,0.2-0.6,0.4
	c-0.2,0.2-0.3,0.4-0.4,0.7c-0.1,0.3-0.1,0.6-0.1,1v5.4h-2.6V156.1z M98,162c-0.3,0.1-0.6,0.2-0.8,0.3c-0.2,0.2-0.3,0.4-0.3,0.7
	c0,0.3,0.1,0.6,0.4,0.8c0.2,0.2,0.6,0.3,1,0.3c0.5,0,0.9-0.1,1.1-0.4c0.3-0.3,0.4-0.6,0.4-1.1v-1L98,162z M100.3,165.1
	c-0.1,0.1-0.2,0.2-0.4,0.4c-0.1,0.1-0.3,0.3-0.5,0.4c-0.2,0.1-0.4,0.2-0.7,0.3c-0.3,0.1-0.6,0.1-0.9,0.1c-0.5,0-1-0.1-1.4-0.2
	c-0.4-0.2-0.8-0.4-1.1-0.7c-0.3-0.3-0.6-0.6-0.7-1c-0.2-0.4-0.3-0.8-0.3-1.2c0-0.8,0.2-1.5,0.7-2c0.5-0.5,1.2-0.8,2.1-1l2.9-0.4
	v-0.2c0-0.4-0.1-0.8-0.4-1.1c-0.3-0.3-0.7-0.4-1.3-0.4c-0.3,0-0.5,0-0.8,0.1c-0.3,0.1-0.5,0.1-0.8,0.2c-0.2,0.1-0.5,0.2-0.7,0.3
	c-0.2,0.1-0.4,0.2-0.5,0.2l-1-2c0.6-0.3,1.2-0.6,1.9-0.8c0.7-0.2,1.4-0.3,2.2-0.3c0.5,0,0.9,0.1,1.4,0.1c0.5,0.1,0.9,0.3,1.3,0.5
	c0.4,0.3,0.7,0.6,0.9,1c0.2,0.4,0.4,1,0.4,1.7v4.1c0,0.3,0.1,0.5,0.2,0.6c0.2,0.1,0.4,0.3,0.6,0.4l-1.2,1.8
	c-0.5-0.1-0.8-0.2-1.1-0.4C100.8,165.6,100.5,165.4,100.3,165.1z M113,166h-2.6v-5.8c0-0.4,0-0.6-0.1-0.9c-0.1-0.2-0.2-0.4-0.3-0.6
	c-0.1-0.2-0.3-0.3-0.5-0.3c-0.2-0.1-0.4-0.1-0.6-0.1c-0.2,0-0.5,0-0.7,0.1c-0.2,0.1-0.4,0.2-0.6,0.4c-0.2,0.2-0.3,0.4-0.4,0.7
	c-0.1,0.3-0.1,0.6-0.1,1v5.4h-2.6v-9.9h2.6v0.9c0.3-0.4,0.7-0.6,1.1-0.8c0.4-0.2,0.9-0.3,1.4-0.3c0.5,0,1,0.1,1.4,0.3
	c0.5,0.2,0.8,0.6,1.1,1c0.2-0.2,0.4-0.5,0.6-0.6c0.2-0.2,0.5-0.3,0.7-0.4c0.3-0.1,0.5-0.2,0.8-0.2c0.3,0,0.6-0.1,0.9-0.1
	c0.6,0,1.1,0.1,1.5,0.3c0.4,0.2,0.8,0.4,1.1,0.7c0.3,0.3,0.5,0.7,0.7,1.1c0.2,0.4,0.2,0.8,0.2,1.3v6.8h-2.6v-5.8
	c0-0.4,0-0.6-0.1-0.9c-0.1-0.2-0.2-0.4-0.3-0.6c-0.1-0.2-0.3-0.3-0.5-0.3c-0.2-0.1-0.4-0.1-0.6-0.1c-0.2,0-0.5,0-0.7,0.1
	c-0.2,0.1-0.4,0.2-0.6,0.4c-0.2,0.2-0.3,0.4-0.4,0.7c-0.1,0.3-0.1,0.6-0.1,1V166z M123.1,161.9c0,0.3,0.1,0.6,0.3,0.8
	c0.1,0.2,0.3,0.5,0.6,0.6c0.2,0.2,0.5,0.3,0.8,0.4s0.6,0.1,0.9,0.1c0.4,0,0.8-0.1,1.2-0.2c0.4-0.1,0.8-0.4,1.2-0.6l1.2,1.8
	c-0.5,0.4-1,0.7-1.7,0.9c-0.7,0.2-1.4,0.4-2.2,0.4c-0.7,0-1.3-0.1-1.9-0.4c-0.6-0.2-1.1-0.6-1.6-1c-0.5-0.4-0.8-1-1.1-1.6
	c-0.3-0.6-0.4-1.4-0.4-2.2c0-0.7,0.1-1.4,0.3-2c0.2-0.6,0.6-1.2,1-1.6c0.4-0.5,0.9-0.8,1.5-1.1c0.6-0.3,1.2-0.4,1.9-0.4
	c0.7,0,1.3,0.1,1.8,0.4c0.6,0.2,1.1,0.6,1.5,1c0.4,0.4,0.7,0.9,1,1.5c0.2,0.6,0.4,1.3,0.4,2v1.2H123.1z M125.2,158.1
	c-0.5,0-1,0.2-1.4,0.6c-0.4,0.4-0.6,0.8-0.7,1.3h4c0-0.5-0.2-1-0.6-1.3C126.2,158.3,125.7,158.1,125.2,158.1z"/>
<rect y="183" class="st6" width="375" height="45"/>
<path class="st7" d="M28,209l-6.5-7l-6.5,7"/>
<path class="st4" d="M38.6,204.4c0-0.8,0.1-1.6,0.4-2.2c0.2-0.7,0.6-1.3,1-1.8c0.5-0.5,1-0.9,1.6-1.2c0.6-0.3,1.4-0.5,2.2-0.5
	c0.6,0,1.1,0.1,1.6,0.2c0.5,0.2,0.9,0.4,1.3,0.6c0.4,0.3,0.7,0.6,1,1c0.3,0.4,0.5,0.8,0.7,1.3l-2.2,0.7c-0.1-0.2-0.2-0.4-0.3-0.6
	c-0.1-0.2-0.3-0.4-0.5-0.6c-0.2-0.2-0.5-0.3-0.7-0.4c-0.3-0.1-0.6-0.2-0.9-0.2c-0.5,0-1,0.1-1.3,0.3c-0.4,0.2-0.7,0.5-0.9,0.8
	c-0.2,0.3-0.4,0.7-0.5,1.2c-0.1,0.4-0.2,0.9-0.2,1.3v0.1c0,0.5,0.1,0.9,0.2,1.4c0.1,0.4,0.3,0.8,0.5,1.2c0.2,0.3,0.5,0.6,0.9,0.8
	c0.4,0.2,0.8,0.3,1.3,0.3c0.3,0,0.7-0.1,0.9-0.2c0.3-0.1,0.5-0.3,0.7-0.4c0.2-0.2,0.4-0.4,0.5-0.6c0.1-0.2,0.2-0.4,0.3-0.6l2.2,0.7
	c-0.2,0.5-0.4,0.9-0.7,1.3c-0.3,0.4-0.6,0.7-1,1c-0.4,0.3-0.8,0.5-1.3,0.6c-0.5,0.1-1,0.2-1.6,0.2c-0.8,0-1.5-0.1-2.2-0.4
	c-0.6-0.3-1.2-0.7-1.6-1.2c-0.5-0.5-0.8-1.1-1-1.8C38.7,206,38.6,205.2,38.6,204.4z M49.9,198.8H52v8.9c0,0.2,0,0.3,0.1,0.4
	c0.1,0.1,0.3,0.1,0.5,0.1c0.1,0,0.2,0,0.3,0c0.1,0,0.2,0,0.3-0.1l0.2,1.8c-0.1,0-0.3,0-0.5,0.1c-0.1,0-0.3,0-0.5,0
	c-0.2,0-0.4,0-0.6,0c-0.3,0-0.6,0-0.8-0.1s-0.5-0.2-0.6-0.3c-0.2-0.2-0.3-0.3-0.4-0.6c-0.1-0.2-0.1-0.5-0.1-0.8V198.8z M58.3,201.5
	c0.6,0,1.2,0.1,1.7,0.3c0.5,0.2,0.9,0.5,1.3,0.9c0.4,0.4,0.6,0.9,0.8,1.4c0.2,0.5,0.3,1.1,0.3,1.7c0,0.6-0.1,1.2-0.3,1.7
	c-0.2,0.5-0.5,1-0.8,1.4c-0.4,0.4-0.8,0.7-1.3,0.9c-0.5,0.2-1.1,0.3-1.7,0.3c-0.6,0-1.2-0.1-1.7-0.3c-0.5-0.2-0.9-0.5-1.3-0.9
	c-0.4-0.4-0.6-0.8-0.8-1.4c-0.2-0.5-0.3-1.1-0.3-1.7c0-0.6,0.1-1.2,0.3-1.7c0.2-0.5,0.5-1,0.8-1.4c0.4-0.4,0.8-0.7,1.3-0.9
	C57.1,201.6,57.7,201.5,58.3,201.5z M58.3,208.2c0.3,0,0.6-0.1,0.8-0.2c0.2-0.1,0.4-0.3,0.6-0.5c0.2-0.2,0.3-0.4,0.4-0.7
	c0.1-0.3,0.1-0.6,0.1-0.9v-0.1c0-0.3,0-0.6-0.1-0.9c-0.1-0.3-0.2-0.5-0.4-0.7c-0.2-0.2-0.4-0.4-0.6-0.5c-0.2-0.1-0.5-0.2-0.8-0.2
	c-0.3,0-0.6,0.1-0.8,0.2c-0.2,0.1-0.4,0.3-0.6,0.5c-0.2,0.2-0.3,0.4-0.4,0.7c-0.1,0.3-0.1,0.6-0.1,0.9v0.1c0,0.3,0,0.7,0.1,0.9
	c0.1,0.3,0.2,0.5,0.4,0.7c0.2,0.2,0.4,0.4,0.6,0.5C57.7,208.1,58,208.2,58.3,208.2z M64.4,207.3c0.3,0.3,0.7,0.5,1.1,0.7
	s0.9,0.3,1.3,0.3c0.3,0,0.6-0.1,0.8-0.2c0.2-0.1,0.3-0.3,0.3-0.5c0-0.3-0.4-0.6-1.1-0.8l-0.6-0.2c-0.3-0.1-0.6-0.2-0.9-0.3
	c-0.3-0.1-0.6-0.3-0.9-0.5c-0.3-0.2-0.5-0.5-0.6-0.8c-0.2-0.3-0.2-0.7-0.2-1.1c0-0.3,0.1-0.7,0.2-1c0.2-0.3,0.4-0.6,0.7-0.8
	c0.3-0.2,0.6-0.4,1-0.6c0.4-0.1,0.9-0.2,1.4-0.2c0.7,0,1.3,0.1,1.9,0.3c0.6,0.2,1,0.5,1.3,0.8l-1.1,1.4c-0.3-0.2-0.6-0.4-0.9-0.5
	c-0.4-0.1-0.7-0.2-1.1-0.2c-0.3,0-0.6,0.1-0.8,0.2c-0.2,0.1-0.3,0.3-0.3,0.4c0,0.2,0.1,0.3,0.2,0.4c0.2,0.1,0.4,0.2,0.7,0.3l0.9,0.3
	c0.9,0.2,1.5,0.6,1.9,1c0.4,0.4,0.6,0.9,0.6,1.6c0,0.4-0.1,0.7-0.2,1c-0.1,0.3-0.4,0.6-0.6,0.9c-0.3,0.2-0.6,0.4-1,0.6
	c-0.4,0.1-0.9,0.2-1.4,0.2c-0.4,0-0.8,0-1.1-0.1c-0.4-0.1-0.7-0.2-1-0.3c-0.3-0.1-0.6-0.3-0.8-0.4c-0.2-0.2-0.5-0.3-0.6-0.5
	L64.4,207.3z M73.3,206.6c0,0.2,0.1,0.5,0.2,0.7c0.1,0.2,0.3,0.4,0.5,0.5c0.2,0.1,0.4,0.3,0.6,0.3c0.2,0.1,0.5,0.1,0.8,0.1
	c0.3,0,0.7-0.1,1-0.2c0.4-0.1,0.7-0.3,1-0.5l1,1.5c-0.4,0.3-0.9,0.6-1.4,0.8c-0.6,0.2-1.2,0.3-1.8,0.3c-0.6,0-1.1-0.1-1.6-0.3
	c-0.5-0.2-1-0.5-1.3-0.9c-0.4-0.4-0.7-0.8-0.9-1.4c-0.2-0.5-0.3-1.1-0.3-1.8c0-0.6,0.1-1.2,0.3-1.7c0.2-0.5,0.5-1,0.8-1.4
	c0.4-0.4,0.8-0.7,1.3-0.9c0.5-0.2,1-0.3,1.6-0.3c0.6,0,1.1,0.1,1.5,0.3c0.5,0.2,0.9,0.5,1.2,0.8c0.3,0.4,0.6,0.8,0.8,1.3
	c0.2,0.5,0.3,1.1,0.3,1.7v1H73.3z M75.1,203.3c-0.5,0-0.9,0.2-1.2,0.5c-0.3,0.3-0.5,0.7-0.6,1.1h3.4c0-0.4-0.2-0.8-0.5-1.1
	C75.9,203.5,75.5,203.3,75.1,203.3z"/>
<rect y="228" class="st6" width="375" height="45"/>
<g>
	<rect x="15" y="238" class="st6" width="123" height="25"/>
	<path class="st4" d="M36.9,251.9c0.1,0.2,0.3,0.3,0.5,0.5c0.2,0.2,0.4,0.3,0.7,0.4c0.3,0.1,0.5,0.2,0.8,0.3c0.3,0.1,0.6,0.1,1,0.1
		c0.6,0,1.1-0.1,1.5-0.4c0.3-0.3,0.5-0.6,0.5-1c0-0.4-0.2-0.7-0.5-0.9c-0.3-0.2-0.8-0.4-1.4-0.5l-0.4-0.1c-0.5-0.1-0.9-0.2-1.4-0.3
		c-0.5-0.1-0.9-0.3-1.3-0.6c-0.4-0.3-0.7-0.6-0.9-1c-0.2-0.4-0.4-0.9-0.4-1.5c0-0.4,0.1-0.7,0.2-1.1c0.2-0.4,0.4-0.7,0.7-1.1
		c0.3-0.3,0.8-0.6,1.3-0.8c0.5-0.2,1.2-0.3,2-0.3c0.9,0,1.7,0.2,2.4,0.5c0.7,0.3,1.3,0.7,1.7,1.2l-1.5,1.4c-0.3-0.3-0.7-0.6-1.2-0.8
		c-0.5-0.2-1-0.3-1.5-0.3c-0.6,0-1,0.1-1.4,0.3c-0.3,0.2-0.5,0.5-0.5,0.9c0,0.2,0.1,0.4,0.2,0.6c0.1,0.2,0.3,0.3,0.5,0.4
		c0.2,0.1,0.4,0.2,0.7,0.2c0.3,0.1,0.6,0.1,0.9,0.2l0.2,0c0.4,0.1,0.9,0.2,1.3,0.3c0.4,0.1,0.8,0.3,1.2,0.6c0.4,0.2,0.7,0.6,0.9,1
		c0.2,0.4,0.3,0.9,0.3,1.5c0,0.6-0.1,1.1-0.4,1.5c-0.2,0.4-0.5,0.8-0.9,1.1c-0.4,0.3-0.8,0.5-1.3,0.7c-0.5,0.2-1,0.2-1.6,0.2
		c-0.6,0-1.1,0-1.5-0.1c-0.5-0.1-0.9-0.2-1.3-0.4c-0.4-0.2-0.7-0.4-1-0.6c-0.3-0.2-0.6-0.4-0.8-0.7L36.9,251.9z M47.8,251.6
		c0,0.2,0.1,0.5,0.2,0.7c0.1,0.2,0.3,0.4,0.5,0.5c0.2,0.1,0.4,0.3,0.6,0.3c0.2,0.1,0.5,0.1,0.8,0.1c0.3,0,0.7-0.1,1-0.2
		c0.4-0.1,0.7-0.3,1-0.5l1,1.5c-0.4,0.3-0.9,0.6-1.4,0.8c-0.6,0.2-1.2,0.3-1.8,0.3c-0.6,0-1.1-0.1-1.6-0.3c-0.5-0.2-1-0.5-1.3-0.9
		c-0.4-0.4-0.7-0.8-0.9-1.4c-0.2-0.5-0.3-1.1-0.3-1.8c0-0.6,0.1-1.2,0.3-1.7c0.2-0.5,0.5-1,0.8-1.4c0.4-0.4,0.8-0.7,1.3-0.9
		c0.5-0.2,1-0.3,1.6-0.3c0.6,0,1.1,0.1,1.5,0.3c0.5,0.2,0.9,0.5,1.2,0.8c0.3,0.4,0.6,0.8,0.8,1.3c0.2,0.5,0.3,1.1,0.3,1.7v1H47.8z
		 M49.5,248.3c-0.5,0-0.9,0.2-1.2,0.5c-0.3,0.3-0.5,0.7-0.6,1.1h3.4c0-0.4-0.2-0.8-0.5-1.1C50.3,248.5,50,248.3,49.5,248.3z
		 M59.5,248.7h-0.2c-0.3,0-0.6,0-0.9,0.1c-0.3,0.1-0.5,0.2-0.7,0.3c-0.2,0.2-0.4,0.4-0.5,0.7c-0.1,0.3-0.2,0.7-0.2,1.1v4.1h-2.2
		v-8.4h2.2v0.9c0.1-0.1,0.2-0.3,0.3-0.4c0.1-0.1,0.3-0.2,0.5-0.3c0.2-0.1,0.4-0.2,0.6-0.2c0.2-0.1,0.5-0.1,0.8-0.1h0.3V248.7z
		 M62.6,255l-2.6-8.4h2.4l1.5,5.8l1.5-5.8h2.4l-2.5,8.4H62.6z M71.1,255h-2.2v-8.4h2.2V255z M68.7,244.4c0-0.2,0-0.3,0.1-0.5
		c0.1-0.2,0.2-0.3,0.3-0.4c0.1-0.1,0.3-0.2,0.4-0.3c0.2-0.1,0.3-0.1,0.5-0.1c0.2,0,0.3,0,0.5,0.1c0.2,0.1,0.3,0.2,0.4,0.3
		c0.1,0.1,0.2,0.3,0.3,0.4c0.1,0.2,0.1,0.3,0.1,0.5c0,0.2,0,0.4-0.1,0.5c-0.1,0.2-0.2,0.3-0.3,0.4c-0.1,0.1-0.3,0.2-0.4,0.3
		c-0.2,0.1-0.3,0.1-0.5,0.1c-0.2,0-0.4,0-0.5-0.1c-0.2-0.1-0.3-0.2-0.4-0.3c-0.1-0.1-0.2-0.3-0.3-0.4
		C68.7,244.8,68.7,244.6,68.7,244.4z M74.7,250.9c0,0.3,0,0.5,0.1,0.8c0.1,0.3,0.2,0.5,0.3,0.7c0.2,0.2,0.3,0.4,0.6,0.5
		c0.2,0.1,0.5,0.2,0.9,0.2c0.2,0,0.4,0,0.6-0.1c0.2-0.1,0.3-0.1,0.5-0.2c0.1-0.1,0.3-0.2,0.4-0.4c0.1-0.1,0.2-0.3,0.3-0.5l1.9,1
		c-0.1,0.3-0.3,0.6-0.6,0.9c-0.2,0.3-0.5,0.5-0.8,0.7c-0.3,0.2-0.7,0.3-1,0.4c-0.4,0.1-0.8,0.2-1.2,0.2c-0.6,0-1.1-0.1-1.6-0.3
		c-0.5-0.2-0.9-0.5-1.3-0.9c-0.4-0.4-0.6-0.8-0.8-1.4c-0.2-0.5-0.3-1.1-0.3-1.7c0-0.6,0.1-1.2,0.3-1.7c0.2-0.5,0.5-1,0.8-1.4
		c0.4-0.4,0.8-0.7,1.3-0.9c0.5-0.2,1-0.3,1.6-0.3c0.4,0,0.8,0.1,1.2,0.2c0.4,0.1,0.7,0.2,1,0.4c0.3,0.2,0.6,0.4,0.8,0.7
		c0.2,0.3,0.4,0.6,0.6,0.9l-1.9,1c-0.1-0.2-0.2-0.3-0.3-0.4c-0.1-0.1-0.2-0.3-0.4-0.4c-0.1-0.1-0.3-0.2-0.5-0.2
		c-0.2-0.1-0.4-0.1-0.6-0.1c-0.3,0-0.6,0.1-0.9,0.2c-0.2,0.1-0.4,0.3-0.6,0.5c-0.2,0.2-0.3,0.5-0.3,0.7S74.7,250.5,74.7,250.9
		L74.7,250.9z M83.3,251.6c0,0.2,0.1,0.5,0.2,0.7c0.1,0.2,0.3,0.4,0.5,0.5c0.2,0.1,0.4,0.3,0.6,0.3c0.2,0.1,0.5,0.1,0.8,0.1
		c0.3,0,0.7-0.1,1-0.2c0.4-0.1,0.7-0.3,1-0.5l1,1.5c-0.4,0.3-0.9,0.6-1.4,0.8c-0.6,0.2-1.2,0.3-1.8,0.3c-0.6,0-1.1-0.1-1.6-0.3
		c-0.5-0.2-1-0.5-1.3-0.9c-0.4-0.4-0.7-0.8-0.9-1.4c-0.2-0.5-0.3-1.1-0.3-1.8c0-0.6,0.1-1.2,0.3-1.7c0.2-0.5,0.5-1,0.8-1.4
		c0.4-0.4,0.8-0.7,1.3-0.9c0.5-0.2,1-0.3,1.6-0.3c0.6,0,1.1,0.1,1.5,0.3c0.5,0.2,0.9,0.5,1.2,0.8c0.3,0.4,0.6,0.8,0.8,1.3
		c0.2,0.5,0.3,1.1,0.3,1.7v1H83.3z M85.1,248.3c-0.5,0-0.9,0.2-1.2,0.5c-0.3,0.3-0.5,0.7-0.6,1.1h3.4c0-0.4-0.2-0.8-0.5-1.1
		C85.9,248.5,85.5,248.3,85.1,248.3z M93.2,243.8h2.2v8.9c0,0.2,0,0.3,0.1,0.4c0.1,0.1,0.3,0.1,0.5,0.1c0.1,0,0.2,0,0.3,0
		c0.1,0,0.2,0,0.3-0.1l0.2,1.8c-0.1,0-0.3,0-0.5,0.1c-0.1,0-0.3,0-0.5,0c-0.2,0-0.4,0-0.6,0c-0.3,0-0.6,0-0.8-0.1
		c-0.2-0.1-0.5-0.2-0.6-0.3c-0.2-0.2-0.3-0.3-0.4-0.6c-0.1-0.2-0.1-0.5-0.1-0.8V243.8z M100.1,255h-2.2v-8.4h2.2V255z M97.7,244.4
		c0-0.2,0-0.3,0.1-0.5c0.1-0.2,0.2-0.3,0.3-0.4c0.1-0.1,0.3-0.2,0.4-0.3c0.2-0.1,0.3-0.1,0.5-0.1c0.2,0,0.3,0,0.5,0.1
		c0.2,0.1,0.3,0.2,0.4,0.3c0.1,0.1,0.2,0.3,0.3,0.4c0.1,0.2,0.1,0.3,0.1,0.5c0,0.2,0,0.4-0.1,0.5c-0.1,0.2-0.2,0.3-0.3,0.4
		c-0.1,0.1-0.3,0.2-0.4,0.3c-0.2,0.1-0.3,0.1-0.5,0.1c-0.2,0-0.4,0-0.5-0.1c-0.2-0.1-0.3-0.2-0.4-0.3c-0.1-0.1-0.2-0.3-0.3-0.4
		C97.7,244.8,97.7,244.6,97.7,244.4z M101.9,246.6h2.2v0.7c0.1-0.1,0.2-0.2,0.4-0.3c0.1-0.1,0.3-0.2,0.5-0.3
		c0.2-0.1,0.4-0.1,0.6-0.2c0.2-0.1,0.4-0.1,0.7-0.1c0.5,0,0.9,0.1,1.2,0.2c0.4,0.1,0.7,0.3,0.9,0.6c0.2,0.3,0.4,0.6,0.6,0.9
		c0.1,0.3,0.2,0.7,0.2,1.1v5.6H107v-4.9c0-0.3,0-0.5-0.1-0.8c-0.1-0.2-0.2-0.4-0.3-0.5c-0.1-0.1-0.3-0.2-0.4-0.3
		c-0.2-0.1-0.3-0.1-0.5-0.1c-0.2,0-0.4,0-0.6,0.1c-0.2,0.1-0.4,0.2-0.5,0.4c-0.1,0.2-0.2,0.4-0.3,0.6c-0.1,0.2-0.1,0.5-0.1,0.8v4.6
		h-2.2V246.6z M113.1,249.9l2.8-3.3h2.7l-3,3.4l3.1,4.9H116l-2.1-3.4l-0.9,1v2.4h-2.2v-11.2h2.2V249.9z M126.3,243.8V255H124v-7.4
		h-2v-2h0.5c0.3,0,0.6,0,0.8-0.1c0.2-0.1,0.4-0.2,0.5-0.3c0.1-0.1,0.2-0.3,0.2-0.5c0-0.2,0.1-0.4,0.1-0.7v-0.2H126.3z"/>
</g>
<rect y="273" class="st6" width="375" height="45"/>
<path class="st4" d="M16.9,296.9c0.1,0.2,0.3,0.3,0.5,0.5c0.2,0.2,0.4,0.3,0.7,0.4c0.3,0.1,0.5,0.2,0.8,0.3c0.3,0.1,0.6,0.1,1,0.1
	c0.6,0,1.1-0.1,1.5-0.4c0.3-0.3,0.5-0.6,0.5-1c0-0.4-0.2-0.7-0.5-0.9c-0.3-0.2-0.8-0.4-1.4-0.5l-0.4-0.1c-0.5-0.1-0.9-0.2-1.4-0.3
	c-0.5-0.1-0.9-0.3-1.3-0.6c-0.4-0.3-0.7-0.6-0.9-1c-0.2-0.4-0.4-0.9-0.4-1.5c0-0.4,0.1-0.7,0.2-1.1c0.2-0.4,0.4-0.7,0.7-1.1
	c0.3-0.3,0.8-0.6,1.3-0.8c0.5-0.2,1.2-0.3,2-0.3c0.9,0,1.7,0.2,2.4,0.5c0.7,0.3,1.3,0.7,1.7,1.2l-1.5,1.4c-0.3-0.3-0.7-0.6-1.2-0.8
	c-0.5-0.2-1-0.3-1.5-0.3c-0.6,0-1,0.1-1.4,0.3c-0.3,0.2-0.5,0.5-0.5,0.9c0,0.2,0.1,0.4,0.2,0.6c0.1,0.2,0.3,0.3,0.5,0.4
	c0.2,0.1,0.4,0.2,0.7,0.2c0.3,0.1,0.6,0.1,0.9,0.2l0.2,0c0.4,0.1,0.9,0.2,1.3,0.3c0.4,0.1,0.8,0.3,1.2,0.6c0.4,0.2,0.7,0.6,0.9,1
	c0.2,0.4,0.3,0.9,0.3,1.5c0,0.6-0.1,1.1-0.4,1.5c-0.2,0.4-0.5,0.8-0.9,1.1c-0.4,0.3-0.8,0.5-1.3,0.7c-0.5,0.2-1,0.2-1.6,0.2
	c-0.6,0-1.1,0-1.5-0.1c-0.5-0.1-0.9-0.2-1.3-0.4c-0.4-0.2-0.7-0.4-1-0.6c-0.3-0.2-0.6-0.4-0.8-0.7L16.9,296.9z M27.8,296.6
	c0,0.2,0.1,0.5,0.2,0.7c0.1,0.2,0.3,0.4,0.5,0.5c0.2,0.1,0.4,0.3,0.6,0.3c0.2,0.1,0.5,0.1,0.8,0.1c0.3,0,0.7-0.1,1-0.2
	c0.4-0.1,0.7-0.3,1-0.5l1,1.5c-0.4,0.3-0.9,0.6-1.4,0.8c-0.6,0.2-1.2,0.3-1.8,0.3c-0.6,0-1.1-0.1-1.6-0.3c-0.5-0.2-1-0.5-1.3-0.9
	c-0.4-0.4-0.7-0.8-0.9-1.4c-0.2-0.5-0.3-1.1-0.3-1.8c0-0.6,0.1-1.2,0.3-1.7c0.2-0.5,0.5-1,0.8-1.4c0.4-0.4,0.8-0.7,1.3-0.9
	c0.5-0.2,1-0.3,1.6-0.3c0.6,0,1.1,0.1,1.5,0.3c0.5,0.2,0.9,0.5,1.2,0.8c0.3,0.4,0.6,0.8,0.8,1.3c0.2,0.5,0.3,1.1,0.3,1.7v1H27.8z
	 M29.5,293.3c-0.5,0-0.9,0.2-1.2,0.5c-0.3,0.3-0.5,0.7-0.6,1.1h3.4c0-0.4-0.2-0.8-0.5-1.1C30.3,293.5,30,293.3,29.5,293.3z
	 M39.5,293.7h-0.2c-0.3,0-0.6,0-0.9,0.1c-0.3,0.1-0.5,0.2-0.7,0.3c-0.2,0.2-0.4,0.4-0.5,0.7c-0.1,0.3-0.2,0.7-0.2,1.1v4.1h-2.2v-8.4
	h2.2v0.9c0.1-0.1,0.2-0.3,0.3-0.4c0.1-0.1,0.3-0.2,0.5-0.3c0.2-0.1,0.4-0.2,0.6-0.2c0.2-0.1,0.5-0.1,0.8-0.1h0.3V293.7z M42.6,300
	l-2.6-8.4h2.4l1.5,5.8l1.5-5.8h2.4l-2.5,8.4H42.6z M51.1,300h-2.2v-8.4h2.2V300z M48.7,289.4c0-0.2,0-0.3,0.1-0.5
	c0.1-0.2,0.2-0.3,0.3-0.4c0.1-0.1,0.3-0.2,0.4-0.3c0.2-0.1,0.3-0.1,0.5-0.1c0.2,0,0.3,0,0.5,0.1c0.2,0.1,0.3,0.2,0.4,0.3
	c0.1,0.1,0.2,0.3,0.3,0.4c0.1,0.2,0.1,0.3,0.1,0.5c0,0.2,0,0.4-0.1,0.5c-0.1,0.2-0.2,0.3-0.3,0.4c-0.1,0.1-0.3,0.2-0.4,0.3
	c-0.2,0.1-0.3,0.1-0.5,0.1c-0.2,0-0.4,0-0.5-0.1c-0.2-0.1-0.3-0.2-0.4-0.3c-0.1-0.1-0.2-0.3-0.3-0.4
	C48.7,289.8,48.7,289.6,48.7,289.4z M54.7,295.9c0,0.3,0,0.5,0.1,0.8c0.1,0.3,0.2,0.5,0.3,0.7c0.2,0.2,0.3,0.4,0.6,0.5
	c0.2,0.1,0.5,0.2,0.9,0.2c0.2,0,0.4,0,0.6-0.1c0.2-0.1,0.3-0.1,0.5-0.2c0.1-0.1,0.3-0.2,0.4-0.4c0.1-0.1,0.2-0.3,0.3-0.5l1.9,1
	c-0.1,0.3-0.3,0.6-0.6,0.9c-0.2,0.3-0.5,0.5-0.8,0.7c-0.3,0.2-0.7,0.3-1,0.4c-0.4,0.1-0.8,0.2-1.2,0.2c-0.6,0-1.1-0.1-1.6-0.3
	c-0.5-0.2-0.9-0.5-1.3-0.9c-0.4-0.4-0.6-0.8-0.8-1.4c-0.2-0.5-0.3-1.1-0.3-1.7c0-0.6,0.1-1.2,0.3-1.7c0.2-0.5,0.5-1,0.8-1.4
	c0.4-0.4,0.8-0.7,1.3-0.9c0.5-0.2,1-0.3,1.6-0.3c0.4,0,0.8,0.1,1.2,0.2c0.4,0.1,0.7,0.2,1,0.4c0.3,0.2,0.6,0.4,0.8,0.7
	c0.2,0.3,0.4,0.6,0.6,0.9l-1.9,1c-0.1-0.2-0.2-0.3-0.3-0.4c-0.1-0.1-0.2-0.3-0.4-0.4c-0.1-0.1-0.3-0.2-0.5-0.2
	c-0.2-0.1-0.4-0.1-0.6-0.1c-0.3,0-0.6,0.1-0.9,0.2c-0.2,0.1-0.4,0.3-0.6,0.5c-0.2,0.2-0.3,0.5-0.3,0.7
	C54.8,295.2,54.7,295.5,54.7,295.9L54.7,295.9z M63.3,296.6c0,0.2,0.1,0.5,0.2,0.7c0.1,0.2,0.3,0.4,0.5,0.5c0.2,0.1,0.4,0.3,0.6,0.3
	c0.2,0.1,0.5,0.1,0.8,0.1c0.3,0,0.7-0.1,1-0.2c0.4-0.1,0.7-0.3,1-0.5l1,1.5c-0.4,0.3-0.9,0.6-1.4,0.8c-0.6,0.2-1.2,0.3-1.8,0.3
	c-0.6,0-1.1-0.1-1.6-0.3c-0.5-0.2-1-0.5-1.3-0.9c-0.4-0.4-0.7-0.8-0.9-1.4c-0.2-0.5-0.3-1.1-0.3-1.8c0-0.6,0.1-1.2,0.3-1.7
	c0.2-0.5,0.5-1,0.8-1.4c0.4-0.4,0.8-0.7,1.3-0.9c0.5-0.2,1-0.3,1.6-0.3c0.6,0,1.1,0.1,1.5,0.3c0.5,0.2,0.9,0.5,1.2,0.8
	c0.3,0.4,0.6,0.8,0.8,1.3c0.2,0.5,0.3,1.1,0.3,1.7v1H63.3z M65.1,293.3c-0.5,0-0.9,0.2-1.2,0.5c-0.3,0.3-0.5,0.7-0.6,1.1h3.4
	c0-0.4-0.2-0.8-0.5-1.1C65.9,293.5,65.5,293.3,65.1,293.3z M73.2,288.8h2.2v8.9c0,0.2,0,0.3,0.1,0.4c0.1,0.1,0.3,0.1,0.5,0.1
	c0.1,0,0.2,0,0.3,0c0.1,0,0.2,0,0.3-0.1l0.2,1.8c-0.1,0-0.3,0-0.5,0.1c-0.1,0-0.3,0-0.5,0c-0.2,0-0.4,0-0.6,0c-0.3,0-0.6,0-0.8-0.1
	c-0.2-0.1-0.5-0.2-0.6-0.3c-0.2-0.2-0.3-0.3-0.4-0.6c-0.1-0.2-0.1-0.5-0.1-0.8V288.8z M80.1,300h-2.2v-8.4h2.2V300z M77.7,289.4
	c0-0.2,0-0.3,0.1-0.5c0.1-0.2,0.2-0.3,0.3-0.4c0.1-0.1,0.3-0.2,0.4-0.3c0.2-0.1,0.3-0.1,0.5-0.1c0.2,0,0.3,0,0.5,0.1
	c0.2,0.1,0.3,0.2,0.4,0.3c0.1,0.1,0.2,0.3,0.3,0.4c0.1,0.2,0.1,0.3,0.1,0.5c0,0.2,0,0.4-0.1,0.5c-0.1,0.2-0.2,0.3-0.3,0.4
	c-0.1,0.1-0.3,0.2-0.4,0.3c-0.2,0.1-0.3,0.1-0.5,0.1c-0.2,0-0.4,0-0.5-0.1c-0.2-0.1-0.3-0.2-0.4-0.3c-0.1-0.1-0.2-0.3-0.3-0.4
	C77.7,289.8,77.7,289.6,77.7,289.4z M81.9,291.6h2.2v0.7c0.1-0.1,0.2-0.2,0.4-0.3c0.1-0.1,0.3-0.2,0.5-0.3c0.2-0.1,0.4-0.1,0.6-0.2
	c0.2-0.1,0.4-0.1,0.7-0.1c0.5,0,0.9,0.1,1.2,0.2c0.4,0.1,0.7,0.3,0.9,0.6c0.2,0.3,0.4,0.6,0.6,0.9c0.1,0.3,0.2,0.7,0.2,1.1v5.6H87
	v-4.9c0-0.3,0-0.5-0.1-0.8c-0.1-0.2-0.2-0.4-0.3-0.5c-0.1-0.1-0.3-0.2-0.4-0.3c-0.2-0.1-0.3-0.1-0.5-0.1c-0.2,0-0.4,0-0.6,0.1
	c-0.2,0.1-0.4,0.2-0.5,0.4c-0.1,0.2-0.2,0.4-0.3,0.6c-0.1,0.2-0.1,0.5-0.1,0.8v4.6h-2.2V291.6z M93.1,294.9l2.8-3.3h2.7l-3,3.4
	l3.1,4.9H96l-2.1-3.4l-0.9,1v2.4h-2.2v-11.2h2.2V294.9z M106.2,290.7c-0.3,0-0.6,0-0.8,0.1c-0.2,0.1-0.4,0.2-0.6,0.4
	s-0.3,0.4-0.3,0.6c-0.1,0.2-0.1,0.5-0.1,0.8l-2.3-0.2c0-0.6,0.1-1.2,0.3-1.6c0.2-0.5,0.5-0.9,0.9-1.2c0.4-0.3,0.8-0.6,1.3-0.7
	c0.5-0.2,1.1-0.3,1.6-0.3c0.6,0,1.2,0.1,1.7,0.3c0.5,0.2,1,0.4,1.3,0.8c0.4,0.3,0.6,0.7,0.8,1.2c0.2,0.5,0.3,1,0.3,1.5
	c0,0.6-0.1,1.2-0.4,1.7c-0.2,0.5-0.6,1-1,1.5c-0.4,0.4-0.9,0.9-1.4,1.2c-0.5,0.4-1.1,0.7-1.6,1l-0.2,0.1h4.7v2h-8.2v-2
	c0.4-0.2,0.9-0.5,1.3-0.7c0.4-0.3,0.9-0.5,1.3-0.8c0.4-0.3,0.8-0.6,1.2-0.9c0.4-0.3,0.7-0.6,1-1c0.3-0.3,0.5-0.7,0.7-1
	c0.2-0.4,0.2-0.7,0.2-1.1c0-0.2,0-0.4-0.1-0.6c-0.1-0.2-0.2-0.4-0.3-0.6c-0.1-0.2-0.3-0.3-0.5-0.4
	C106.8,290.8,106.5,290.7,106.2,290.7z"/>
<rect y="318" class="st8" width="375" height="1"/>
<path class="st9" d="M40.2,16.8c-1,0.4-2-0.1-2.4-1c-0.4-0.9,0.1-2,1-2.4c0.9-0.4,2,0.1,2.4,1C41.6,15.3,41.1,16.4,40.2,16.8
	 M34.3,23.5c-0.9,0.4-2-0.1-2.4-1c-0.4-0.9,0.1-2,1-2.4c0.9-0.4,2,0.1,2.4,1C35.7,22,35.2,23.1,34.3,23.5 M45.1,19.8
	c-1,0.4-2-0.1-2.4-1c-0.4-0.9,0.1-2,1-2.4c0.9-0.4,2,0.1,2.4,1C46.5,18.3,46.1,19.4,45.1,19.8 M48.4,24.6c-1,0.4-2-0.1-2.4-1
	c-0.4-0.9,0.1-2,1-2.4c0.9-0.4,2,0.1,2.4,1S49.3,24.2,48.4,24.6 M34.6,11.1l2.3,1.2V8.9l-2.3,0.7l-0.2-0.2l0.9-3h-3.4l0.9,3
	l-0.2,0.2c-0.1,0.1-2.3-0.7-2.3-0.7v3.4l2.3-1.2c0.1,0.1,0.1,0.2,0.2,0.2l-1.3,4c-0.1,0.2-0.1,0.4-0.1,0.6c0,1.1,0.8,2,1.9,2.2H34
	c1-0.2,1.9-1.1,1.9-2.1c0-0.2,0-0.4-0.1-0.6l-1.3-4C34.4,11.2,34.5,11.2,34.6,11.1 M27,16.8c0.9,0.4,2-0.1,2.4-1
	c0.4-0.9-0.1-2-1-2.4c-0.9-0.4-2,0.1-2.4,1C25.6,15.3,26,16.4,27,16.8 M22,19.8c0.9,0.4,2-0.1,2.4-1s-0.1-2-1-2.4
	c-0.9-0.4-2,0.1-2.4,1S21.1,19.4,22,19.8 M18.8,24.6c0.9,0.4,2-0.1,2.4-1c0.4-0.9-0.1-2-1-2.4c-0.9-0.4-2,0.1-2.4,1
	C17.4,23.1,17.8,24.2,18.8,24.6 M33.6,35.6c4.4,0,8.6,0.3,12.3,0.8c1.1-4.5,2.4-7,3.7-8.8l-2.5-0.9c0.2,1.3,0.3,1.9,0,2.7
	c-0.4-0.4-0.8-1.1-1.1-2.3l-1.2,4c0.7-0.5,1.3-0.8,2-0.9c-1.1,2.5-2.6,3.1-3.5,3c-1.1-0.2-1.7-1.2-1.5-2.1c0.3-1.2,1.5-1.5,2.1-0.1
	c1.1-2.3-0.8-3-2-2.3c1.9-1.9,2.1-3.5,0.6-5.6c-2.1,1.6-2.1,3.2-1.2,5.5c-1.2-1.4-3.2-0.6-2.5,1.6c0.9-1.4,2.1-0.5,1.9,0.8
	c-0.2,1.1-1.7,2.1-3.5,1.9c-2.7-0.2-2.9-2.1-2.9-3.6c0.7-0.1,1.9,0.5,2.9,1.9l0.4-4.3c-1.1,1.1-2.1,1.4-3.2,1.4c0.4-1.2,2.1-3,2.1-3
	h-5.4c0,0,1.7,1.9,2.1,3c-1.1,0-2.1-0.2-3.2-1.4l0.4,4.3c1-1.4,2.2-2,2.9-1.9c-0.1,1.5-0.2,3.4-2.9,3.6c-1.9,0.2-3.4-0.8-3.5-1.9
	c-0.2-1.3,1-2.2,1.9-0.8c0.7-2.3-1.2-3-2.5-1.6c0.9-2.2,0.9-3.9-1.2-5.5c-1.5,2-1.3,3.7,0.6,5.6c-1.2-0.7-3.1,0-2,2.3
	c0.6-1.4,1.8-1.1,2.1,0.1c0.2,0.9-0.3,1.9-1.5,2.1c-0.9,0.2-2.4-0.5-3.5-3c0.6,0,1.2,0.3,2,0.9l-1.2-4c-0.3,1.1-0.7,1.9-1.1,2.3
	c-0.3-0.8-0.2-1.4,0-2.7l-2.9,0.9c1.3,1.8,2.6,4.3,3.7,8.8C25,35.9,29.2,35.6,33.6,35.6"/>
</svg>
