<svg width="375" height="147" viewBox="0 0 375 147" fill="none" xmlns="http://www.w3.org/2000/svg">
<rect width="375" height="147" fill="white"/>
<rect width="375" height="47" fill="#0B0C0C"/>
<path fill-rule="evenodd" clip-rule="evenodd" d="M21.5336 15.6765C22.4826 16.0675 23.5606 15.6205 23.9466 14.6815C24.3356 13.7455 23.8906 12.6575 22.9416 12.2685C22.0106 11.8855 20.9286 12.3415 20.5416 13.2815C20.1546 14.2165 20.6026 15.2945 21.5336 15.6765Z" fill="white"/>
<path fill-rule="evenodd" clip-rule="evenodd" d="M17.3549 18.1254C18.3049 18.5174 19.3809 18.0694 19.7679 17.1304C20.1569 16.1944 19.7119 15.1064 18.7619 14.7164C17.8319 14.3344 16.7499 14.7914 16.3629 15.7314C15.9759 16.6654 16.4239 17.7434 17.3549 18.1254Z" fill="white"/>
<path fill-rule="evenodd" clip-rule="evenodd" d="M18.5453 21.7774C18.9343 20.8414 18.4893 19.7534 17.5403 19.3634C16.6093 18.9814 15.5273 19.4374 15.1393 20.3774C14.7523 21.3124 15.2003 22.3904 16.1313 22.7714C17.0813 23.1634 18.1583 22.7154 18.5453 21.7774Z" fill="white"/>
<path fill-rule="evenodd" clip-rule="evenodd" d="M26.1972 17.1488C27.1462 17.5398 28.2242 17.0928 28.6102 16.1538C28.9992 15.2178 28.5542 14.1298 27.6052 13.7398C26.6742 13.3578 25.5922 13.8138 25.2052 14.7548C24.8182 15.6888 25.2662 16.7668 26.1972 17.1488Z" fill="white"/>
<path fill-rule="evenodd" clip-rule="evenodd" d="M43.0962 15.6765C44.0272 15.2945 44.4752 14.2165 44.0872 13.2815C43.7002 12.3415 42.6192 11.8855 41.6872 12.2685C40.7382 12.6575 40.2942 13.7455 40.6822 14.6815C41.0692 15.6205 42.1462 16.0675 43.0962 15.6765Z" fill="white"/>
<path fill-rule="evenodd" clip-rule="evenodd" d="M47.2748 18.1254C48.2058 17.7434 48.6538 16.6654 48.2668 15.7314C47.8798 14.7914 46.7978 14.3344 45.8668 14.7164C44.9178 15.1064 44.4728 16.1944 44.8618 17.1304C45.2478 18.0694 46.3258 18.5174 47.2748 18.1254Z" fill="white"/>
<path fill-rule="evenodd" clip-rule="evenodd" d="M49.4894 20.3774C49.1024 19.4374 48.0204 18.9814 47.0894 19.3634C46.1404 19.7534 45.6954 20.8414 46.0844 21.7774C46.4704 22.7154 47.5484 23.1634 48.4974 22.7714C49.4294 22.3914 49.8774 21.3124 49.4894 20.3774Z" fill="white"/>
<path fill-rule="evenodd" clip-rule="evenodd" d="M38.4319 17.1488C39.3629 16.7668 39.8109 15.6888 39.4229 14.7548C39.0369 13.8138 37.9549 13.3578 37.0239 13.7398C36.0749 14.1298 35.6299 15.2178 36.0179 16.1538C36.4049 17.0928 37.4819 17.5398 38.4319 17.1488Z" fill="white"/>
<path fill-rule="evenodd" clip-rule="evenodd" d="M31.3336 12.3851C31.4026 12.4761 31.4836 12.5561 31.5746 12.6241L30.2346 16.6661C30.2336 16.6711 30.2316 16.6761 30.2306 16.6811L30.2286 16.6851L30.2296 16.6861C30.1666 16.8871 30.1326 17.1021 30.1326 17.3241C30.1326 18.4171 30.9406 19.3201 31.9906 19.4751C32.0056 19.4771 32.0216 19.4801 32.0376 19.4821C32.1276 19.4941 32.2176 19.5011 32.3106 19.5011C32.4036 19.5011 32.4946 19.4941 32.5836 19.4821C32.5996 19.4801 32.6156 19.4771 32.6306 19.4751C33.6806 19.3201 34.4886 18.4171 34.4886 17.3241C34.4886 17.1021 34.4546 16.8871 34.3926 16.6861V16.6851L34.3916 16.6811C34.3906 16.6761 34.3886 16.6711 34.3866 16.6661L33.0466 12.6241C33.1376 12.5561 33.2186 12.4761 33.2886 12.3851L33.2936 12.3801L35.6266 13.6051V10.1661L33.2966 10.9041L33.2896 10.8971C33.2246 10.8121 33.1486 10.7351 33.0636 10.6691L33.0566 10.6621L33.9946 7.71106L32.3106 7.71206L30.6266 7.71106L31.5646 10.6621L31.5576 10.6691C31.4726 10.7351 31.3966 10.8121 31.3316 10.8971L31.3246 10.9041L28.9946 10.1661V13.6051L31.3286 12.3801L31.3336 12.3851Z" fill="white"/>
<path fill-rule="evenodd" clip-rule="evenodd" d="M45.8534 25.9612C45.4394 25.5572 45.0474 24.8122 44.7414 23.6752L43.5254 27.7242C44.2654 27.2152 44.8354 26.8862 45.4884 26.8712C44.3314 29.3632 42.8854 30.0052 41.9484 29.8322C40.8044 29.6222 40.2784 28.6022 40.4564 27.7372C40.7194 26.5112 41.9774 26.1922 42.5644 27.6182C43.6894 25.3262 41.7824 24.6112 40.5554 25.2902C42.4394 23.4102 42.6554 21.7392 41.1344 19.7172C39.0144 21.3372 38.9904 22.9422 39.9434 25.1992C38.7054 23.7822 36.7804 24.5432 37.4764 26.8322C38.3684 25.4502 39.5504 26.3192 39.3644 27.6322C39.2074 28.7752 37.6984 29.6992 35.8174 29.5352C33.1234 29.2912 32.9634 27.4312 32.8954 25.8922C33.5574 25.7692 34.7504 26.3842 35.7674 27.8122L36.1424 23.5172C35.0364 24.6702 34.0304 24.8892 32.9134 24.9252C33.2854 23.7652 34.9944 21.8642 34.9944 21.8642H32.5114H32.5104H32.5084H29.6334C29.6334 21.8642 31.3424 23.7652 31.7144 24.9252C30.5974 24.8892 29.5914 24.6702 28.4854 23.5172L28.8594 27.8122C29.8774 26.3842 31.0694 25.7702 31.7324 25.8922C31.6654 27.4312 31.5054 29.2912 28.8104 29.5352C26.9294 29.6992 25.4194 28.7752 25.2634 27.6322C25.0774 26.3192 26.2594 25.4502 27.1524 26.8322C27.8474 24.5432 25.9214 23.7822 24.6844 25.1992C25.6374 22.9422 25.6124 21.3372 23.4934 19.7172C21.9724 21.7392 22.1884 23.4102 24.0724 25.2902C22.8454 24.6112 20.9394 25.3262 22.0624 27.6182C22.6504 26.1922 23.9094 26.5112 24.1714 27.7372C24.3484 28.6022 23.8224 29.6232 22.6794 29.8322C21.7424 30.0052 20.2974 29.3632 19.1394 26.8712C19.7924 26.8862 20.3624 27.2152 21.1024 27.7242L19.8864 23.6752C19.5804 24.8122 19.1884 25.5572 18.7744 25.9612C18.4944 25.1422 18.5344 24.5492 18.7834 23.2742L16.2754 24.1682C17.6074 25.9872 18.8984 28.5412 19.9584 32.9992C23.6924 32.4652 27.8824 32.1652 32.3114 32.1652C36.7404 32.1652 40.9334 32.4652 44.6694 33.0002C45.7294 28.5412 47.0194 25.9872 48.3524 24.1682L45.8434 23.2742C46.0934 24.5492 46.1324 25.1422 45.8534 25.9612Z" fill="white"/>
<path d="M62.5225 22.5557C62.5225 23.4541 62.6348 24.3184 62.8594 25.1484C63.084 25.9785 63.4258 26.7109 63.8848 27.3457C64.3438 27.9805 64.9297 28.4932 65.6426 28.8838C66.3555 29.2646 67.2051 29.4551 68.1914 29.4551C69.1387 29.4551 69.9248 29.3037 70.5498 29.001C71.1846 28.6982 71.6875 28.3223 72.0586 27.873C72.4395 27.4141 72.7031 26.9209 72.8496 26.3936C73.0059 25.8662 73.084 25.3779 73.084 24.9287V24.7236H67.708V21.4863H77.2148V33H73.4941V30.5391C73.2305 30.9492 72.9033 31.3252 72.5127 31.667C72.1221 31.999 71.6826 32.2871 71.1943 32.5312C70.7061 32.7656 70.1689 32.9512 69.583 33.0879C69.0068 33.2246 68.3916 33.293 67.7373 33.293C66.2041 33.293 64.8418 33.0146 63.6504 32.458C62.459 31.9014 61.4531 31.1348 60.6328 30.1582C59.8223 29.1816 59.2021 28.0391 58.7725 26.7305C58.3525 25.4219 58.1426 24.0107 58.1426 22.4971C58.1426 20.9932 58.377 19.5869 58.8457 18.2783C59.3242 16.96 59.998 15.8174 60.8672 14.8506C61.7461 13.874 62.8008 13.1074 64.0312 12.5508C65.2715 11.9844 66.6582 11.7012 68.1914 11.7012C69.1875 11.7012 70.1299 11.8184 71.0186 12.0527C71.917 12.2773 72.7324 12.6045 73.4648 13.0342C74.207 13.4541 74.8613 13.9668 75.4277 14.5723C75.9941 15.168 76.4531 15.832 76.8047 16.5645L73.084 18.6592C72.8594 18.21 72.5957 17.7949 72.293 17.4141C71.9902 17.0234 71.6387 16.6914 71.2383 16.418C70.8477 16.1348 70.3984 15.915 69.8906 15.7588C69.3828 15.5928 68.8164 15.5098 68.1914 15.5098C67.2051 15.5098 66.3555 15.7051 65.6426 16.0957C64.9297 16.4766 64.3438 16.9844 63.8848 17.6191C63.4258 18.2539 63.084 18.9912 62.8594 19.8311C62.6348 20.6611 62.5225 21.5205 62.5225 22.4092V22.5557ZM89.9297 11.7012C91.4922 11.7012 92.8936 11.9844 94.1338 12.5508C95.374 13.1074 96.4238 13.874 97.2832 14.8506C98.1523 15.8174 98.8115 16.96 99.2607 18.2783C99.7197 19.5869 99.9492 20.9932 99.9492 22.4971C99.9492 24.0107 99.7197 25.4219 99.2607 26.7305C98.8115 28.0391 98.1523 29.1816 97.2832 30.1582C96.4238 31.1348 95.374 31.9014 94.1338 32.458C92.8936 33.0146 91.4922 33.293 89.9297 33.293C88.3574 33.293 86.9512 33.0146 85.7109 32.458C84.4805 31.9014 83.4307 31.1348 82.5615 30.1582C81.7021 29.1816 81.043 28.0391 80.584 26.7305C80.1348 25.4219 79.9102 24.0107 79.9102 22.4971C79.9102 20.9932 80.1348 19.5869 80.584 18.2783C81.043 16.96 81.7021 15.8174 82.5615 14.8506C83.4307 13.874 84.4805 13.1074 85.7109 12.5508C86.9512 11.9844 88.3574 11.7012 89.9297 11.7012ZM89.9297 29.4551C90.8477 29.4551 91.6533 29.2842 92.3467 28.9424C93.0498 28.5908 93.6406 28.1074 94.1191 27.4922C94.5977 26.877 94.959 26.1494 95.2031 25.3096C95.4473 24.4697 95.5693 23.5518 95.5693 22.5557V22.4385C95.5693 21.4521 95.4473 20.5391 95.2031 19.6992C94.959 18.8496 94.5977 18.1172 94.1191 17.502C93.6406 16.8867 93.0498 16.4082 92.3467 16.0664C91.6533 15.7148 90.8477 15.5391 89.9297 15.5391C89.0117 15.5391 88.2012 15.7148 87.498 16.0664C86.7949 16.4082 86.2041 16.8867 85.7256 17.502C85.2568 18.1172 84.9004 18.8496 84.6562 19.6992C84.4121 20.5391 84.29 21.4521 84.29 22.4385V22.5557C84.29 23.5518 84.4121 24.4697 84.6562 25.3096C84.9004 26.1494 85.2568 26.877 85.7256 27.4922C86.2041 28.1074 86.7949 28.5908 87.498 28.9424C88.2012 29.2842 89.0117 29.4551 89.9297 29.4551ZM107.508 33L101.575 11.9941H106.336L110.394 27.7852H110.54L114.51 11.9941H119.212L113.279 33H107.508ZM119.812 30.627C119.812 30.2656 119.881 29.9287 120.018 29.6162C120.164 29.2939 120.359 29.0156 120.604 28.7812C120.848 28.5371 121.131 28.3467 121.453 28.21C121.785 28.0635 122.132 27.9902 122.493 27.9902C122.854 27.9902 123.196 28.0635 123.519 28.21C123.841 28.3467 124.124 28.5371 124.368 28.7812C124.612 29.0156 124.803 29.2939 124.939 29.6162C125.086 29.9287 125.159 30.2656 125.159 30.627C125.159 30.998 125.086 31.3447 124.939 31.667C124.803 31.9893 124.612 32.2725 124.368 32.5166C124.124 32.7607 123.841 32.9512 123.519 33.0879C123.196 33.2246 122.854 33.293 122.493 33.293C122.132 33.293 121.785 33.2246 121.453 33.0879C121.131 32.9512 120.848 32.7607 120.604 32.5166C120.359 32.2725 120.164 31.9893 120.018 31.667C119.881 31.3447 119.812 30.998 119.812 30.627ZM137.112 29.4551C137.728 29.4551 138.299 29.3672 138.826 29.1914C139.363 29.0059 139.822 28.7324 140.203 28.3711C140.594 28 140.901 27.5361 141.126 26.9795C141.351 26.4131 141.463 25.749 141.463 24.9873V11.9648H145.652V25.6172C145.652 26.7891 145.438 27.8486 145.008 28.7959C144.588 29.7432 143.997 30.5488 143.235 31.2129C142.483 31.877 141.585 32.3896 140.54 32.751C139.495 33.1123 138.353 33.293 137.112 33.293C135.872 33.293 134.729 33.1123 133.685 32.751C132.64 32.3896 131.736 31.877 130.975 31.2129C130.213 30.5488 129.617 29.7432 129.188 28.7959C128.768 27.8486 128.558 26.7891 128.558 25.6172V11.9648H132.762V24.9873C132.762 25.749 132.874 26.4131 133.099 26.9795C133.323 27.5361 133.626 28 134.007 28.3711C134.397 28.7324 134.856 29.0059 135.384 29.1914C135.921 29.3672 136.497 29.4551 137.112 29.4551ZM149.812 11.9941H154.061V21.0908L161.561 11.9941H166.79L159.495 20.3438L167.259 33H162.322L156.771 23.5811L154.061 26.6133V33H149.812V11.9941Z" fill="white"/>
<path d="M226 18.5L232.5 25.5L239 18.5" stroke="white" stroke-width="2"/>
<path d="M256.922 15.6406C257.755 15.6406 258.503 15.7917 259.164 16.0938C259.826 16.3906 260.385 16.7995 260.844 17.3203C261.307 17.8359 261.659 18.4453 261.898 19.1484C262.143 19.8464 262.266 20.5964 262.266 21.3984C262.266 22.2057 262.143 22.9583 261.898 23.6562C261.659 24.3542 261.307 24.9635 260.844 25.4844C260.385 26.0052 259.826 26.4141 259.164 26.7109C258.503 27.0078 257.755 27.1562 256.922 27.1562C256.083 27.1562 255.333 27.0078 254.672 26.7109C254.016 26.4141 253.456 26.0052 252.992 25.4844C252.534 24.9635 252.182 24.3542 251.938 23.6562C251.698 22.9583 251.578 22.2057 251.578 21.3984C251.578 20.5964 251.698 19.8464 251.938 19.1484C252.182 18.4453 252.534 17.8359 252.992 17.3203C253.456 16.7995 254.016 16.3906 254.672 16.0938C255.333 15.7917 256.083 15.6406 256.922 15.6406ZM256.922 25.1094C257.411 25.1094 257.841 25.0182 258.211 24.8359C258.586 24.6484 258.901 24.3906 259.156 24.0625C259.411 23.7344 259.604 23.3464 259.734 22.8984C259.865 22.4505 259.93 21.9609 259.93 21.4297V21.3672C259.93 20.8411 259.865 20.3542 259.734 19.9062C259.604 19.4531 259.411 19.0625 259.156 18.7344C258.901 18.4062 258.586 18.151 258.211 17.9688C257.841 17.7812 257.411 17.6875 256.922 17.6875C256.432 17.6875 256 17.7812 255.625 17.9688C255.25 18.151 254.935 18.4062 254.68 18.7344C254.43 19.0625 254.24 19.4531 254.109 19.9062C253.979 20.3542 253.914 20.8411 253.914 21.3672V21.4297C253.914 21.9609 253.979 22.4505 254.109 22.8984C254.24 23.3464 254.43 23.7344 254.68 24.0625C254.935 24.3906 255.25 24.6484 255.625 24.8359C256 25.0182 256.432 25.1094 256.922 25.1094ZM263.789 18.6328H265.945V19.3516C266.06 19.237 266.188 19.1276 266.328 19.0234C266.474 18.9141 266.633 18.8203 266.805 18.7422C266.977 18.6589 267.167 18.5938 267.375 18.5469C267.589 18.4948 267.823 18.4688 268.078 18.4688C268.531 18.4688 268.938 18.5443 269.297 18.6953C269.656 18.8411 269.958 19.0443 270.203 19.3047C270.453 19.5651 270.643 19.8698 270.773 20.2188C270.904 20.5677 270.969 20.9453 270.969 21.3516V27H268.812V22.1328C268.812 21.8359 268.779 21.5859 268.711 21.3828C268.643 21.1745 268.549 21.0078 268.43 20.8828C268.315 20.7526 268.177 20.6589 268.016 20.6016C267.859 20.5391 267.688 20.5078 267.5 20.5078C267.281 20.5078 267.076 20.5469 266.883 20.625C266.695 20.7031 266.531 20.8229 266.391 20.9844C266.25 21.1406 266.141 21.3385 266.062 21.5781C265.984 21.8177 265.945 22.099 265.945 22.4219V27H263.789V18.6328ZM274.578 23.5625C274.615 23.8125 274.693 24.0417 274.812 24.25C274.938 24.4583 275.094 24.638 275.281 24.7891C275.469 24.9349 275.685 25.0495 275.93 25.1328C276.174 25.2161 276.435 25.2578 276.711 25.2578C277.029 25.2578 277.372 25.1979 277.742 25.0781C278.112 24.9531 278.451 24.7734 278.758 24.5391L279.797 26.0547C279.406 26.3828 278.927 26.6484 278.359 26.8516C277.792 27.0547 277.188 27.1562 276.547 27.1562C275.969 27.1562 275.424 27.0573 274.914 26.8594C274.404 26.6615 273.956 26.375 273.57 26C273.19 25.625 272.888 25.1693 272.664 24.6328C272.445 24.0964 272.336 23.4922 272.336 22.8203C272.336 22.2057 272.432 21.6328 272.625 21.1016C272.823 20.5703 273.096 20.1094 273.445 19.7188C273.799 19.3281 274.221 19.0234 274.711 18.8047C275.201 18.5807 275.742 18.4688 276.336 18.4688C276.888 18.4688 277.401 18.5703 277.875 18.7734C278.349 18.9714 278.76 19.2526 279.109 19.6172C279.458 19.9766 279.732 20.4089 279.93 20.9141C280.128 21.4193 280.227 21.9766 280.227 22.5859V23.5625H274.578ZM276.328 20.3438C275.865 20.3438 275.471 20.5 275.148 20.8125C274.831 21.1198 274.646 21.4922 274.594 21.9297H277.969C277.958 21.487 277.797 21.112 277.484 20.8047C277.172 20.4974 276.786 20.3438 276.328 20.3438ZM284.734 15.7969H287V24.9062H291.438V27H284.734V15.7969ZM296.281 18.4688C296.901 18.4688 297.464 18.5807 297.969 18.8047C298.474 19.0234 298.906 19.3281 299.266 19.7188C299.625 20.1094 299.901 20.5703 300.094 21.1016C300.292 21.6328 300.391 22.2057 300.391 22.8203C300.391 23.4401 300.292 24.0156 300.094 24.5469C299.896 25.0729 299.617 25.5286 299.258 25.9141C298.898 26.2995 298.466 26.6042 297.961 26.8281C297.456 27.0469 296.896 27.1562 296.281 27.1562C295.661 27.1562 295.099 27.0469 294.594 26.8281C294.089 26.6042 293.656 26.2995 293.297 25.9141C292.938 25.5286 292.659 25.0729 292.461 24.5469C292.263 24.0156 292.164 23.4401 292.164 22.8203C292.164 22.2057 292.26 21.6328 292.453 21.1016C292.651 20.5703 292.93 20.1094 293.289 19.7188C293.648 19.3281 294.081 19.0234 294.586 18.8047C295.096 18.5807 295.661 18.4688 296.281 18.4688ZM296.281 25.1562C296.589 25.1562 296.859 25.099 297.094 24.9844C297.333 24.8698 297.534 24.7109 297.695 24.5078C297.857 24.3047 297.979 24.0625 298.062 23.7812C298.146 23.4948 298.188 23.1823 298.188 22.8438V22.7891C298.188 22.4505 298.146 22.1406 298.062 21.8594C297.979 21.5729 297.857 21.3281 297.695 21.125C297.534 20.9167 297.333 20.7552 297.094 20.6406C296.859 20.526 296.589 20.4688 296.281 20.4688C295.974 20.4688 295.701 20.526 295.461 20.6406C295.227 20.7552 295.029 20.9167 294.867 21.125C294.706 21.3281 294.583 21.5729 294.5 21.8594C294.417 22.1406 294.375 22.4505 294.375 22.7891V22.8438C294.375 23.1823 294.417 23.4948 294.5 23.7812C294.583 24.0625 294.706 24.3047 294.867 24.5078C295.029 24.7109 295.227 24.8698 295.461 24.9844C295.701 25.099 295.974 25.1562 296.281 25.1562ZM306.906 25.5156C306.714 25.75 306.443 25.9375 306.094 26.0781C305.75 26.2135 305.375 26.2812 304.969 26.2812C304.406 26.2812 303.906 26.1823 303.469 25.9844C303.031 25.7865 302.661 25.5156 302.359 25.1719C302.062 24.8229 301.833 24.4115 301.672 23.9375C301.516 23.4635 301.438 22.9427 301.438 22.375C301.438 21.8229 301.516 21.3073 301.672 20.8281C301.833 20.3438 302.062 19.9297 302.359 19.5859C302.661 19.237 303.031 18.9635 303.469 18.7656C303.906 18.5677 304.406 18.4688 304.969 18.4688C305.375 18.4688 305.75 18.5391 306.094 18.6797C306.443 18.8203 306.714 19.0078 306.906 19.2422V18.6328H309.07V26.9219C309.07 27.4323 308.974 27.8698 308.781 28.2344C308.589 28.6042 308.323 28.9062 307.984 29.1406C307.651 29.375 307.263 29.5443 306.82 29.6484C306.378 29.7578 305.906 29.8125 305.406 29.8125C304.797 29.8125 304.161 29.7396 303.5 29.5938C302.839 29.4531 302.268 29.276 301.789 29.0625L302.398 27.3203C302.544 27.3828 302.724 27.4505 302.938 27.5234C303.151 27.6016 303.38 27.6693 303.625 27.7266C303.87 27.7839 304.125 27.8307 304.391 27.8672C304.661 27.9089 304.924 27.9297 305.18 27.9297C305.404 27.9297 305.62 27.9062 305.828 27.8594C306.036 27.8177 306.219 27.7448 306.375 27.6406C306.536 27.5417 306.664 27.4089 306.758 27.2422C306.857 27.0807 306.906 26.8724 306.906 26.6172V25.5156ZM303.656 22.4062C303.656 22.6823 303.685 22.9427 303.742 23.1875C303.805 23.4271 303.901 23.6328 304.031 23.8047C304.167 23.9714 304.339 24.1042 304.547 24.2031C304.755 24.2969 305.008 24.3438 305.305 24.3438C305.893 24.3438 306.312 24.1589 306.562 23.7891C306.812 23.4141 306.938 22.9531 306.938 22.4062V22.3438C306.938 22.0677 306.909 21.8099 306.852 21.5703C306.794 21.3307 306.701 21.125 306.57 20.9531C306.44 20.7812 306.271 20.6484 306.062 20.5547C305.859 20.4557 305.607 20.4062 305.305 20.4062C304.721 20.4062 304.299 20.5911 304.039 20.9609C303.784 21.3307 303.656 21.7917 303.656 22.3438V22.4062ZM313.086 27H310.93V18.6328H313.086V27ZM310.703 16.4375C310.703 16.2604 310.737 16.0938 310.805 15.9375C310.872 15.776 310.964 15.638 311.078 15.5234C311.198 15.4036 311.336 15.3099 311.492 15.2422C311.648 15.1745 311.818 15.1406 312 15.1406C312.177 15.1406 312.344 15.1745 312.5 15.2422C312.661 15.3099 312.799 15.4036 312.914 15.5234C313.034 15.638 313.128 15.776 313.195 15.9375C313.263 16.0938 313.297 16.2604 313.297 16.4375C313.297 16.6198 313.263 16.7891 313.195 16.9453C313.128 17.1016 313.034 17.2396 312.914 17.3594C312.799 17.474 312.661 17.5651 312.5 17.6328C312.344 17.7005 312.177 17.7344 312 17.7344C311.818 17.7344 311.648 17.7005 311.492 17.6328C311.336 17.5651 311.198 17.474 311.078 17.3594C310.964 17.2396 310.872 17.1016 310.805 16.9453C310.737 16.7891 310.703 16.6198 310.703 16.4375ZM314.945 18.6328H317.102V19.3516C317.216 19.237 317.344 19.1276 317.484 19.0234C317.63 18.9141 317.789 18.8203 317.961 18.7422C318.133 18.6589 318.323 18.5938 318.531 18.5469C318.745 18.4948 318.979 18.4688 319.234 18.4688C319.688 18.4688 320.094 18.5443 320.453 18.6953C320.812 18.8411 321.115 19.0443 321.359 19.3047C321.609 19.5651 321.799 19.8698 321.93 20.2188C322.06 20.5677 322.125 20.9453 322.125 21.3516V27H319.969V22.1328C319.969 21.8359 319.935 21.5859 319.867 21.3828C319.799 21.1745 319.706 21.0078 319.586 20.8828C319.471 20.7526 319.333 20.6589 319.172 20.6016C319.016 20.5391 318.844 20.5078 318.656 20.5078C318.438 20.5078 318.232 20.5469 318.039 20.625C317.852 20.7031 317.688 20.8229 317.547 20.9844C317.406 21.1406 317.297 21.3385 317.219 21.5781C317.141 21.8177 317.102 22.099 317.102 22.4219V27H314.945V18.6328Z" fill="white"/>
<circle cx="344" cy="22" r="11" fill="white"/>
<path fill-rule="evenodd" clip-rule="evenodd" d="M336.293 29.8487C337.233 26.4753 340.327 24 344 24C347.673 24 350.768 26.4749 351.708 29.848C350.806 30.7338 349.752 31.4654 348.589 32H344H339.411C338.248 31.4655 337.195 30.7342 336.293 29.8487Z" fill="#1D70B8"/>
<circle cx="344" cy="18.75" r="3.75" fill="#1D70B8"/>
<circle cx="344" cy="22" r="10" stroke="white" stroke-width="2"/>
<rect y="47" width="375" height="10" fill="#1D70B8"/>
<rect width="375" height="44" transform="translate(0 57)" fill="#F3F2F1"/>
<path d="M17.2822 80.2612C17.4554 80.4591 17.6657 80.654 17.9131 80.8457C18.1605 81.0374 18.4326 81.2106 18.7295 81.3652C19.0326 81.5137 19.3604 81.6343 19.7129 81.7271C20.0654 81.8136 20.4458 81.8569 20.854 81.8569C21.6147 81.8569 22.1961 81.6992 22.5981 81.3838C23.0063 81.0622 23.2104 80.6725 23.2104 80.2148C23.2104 79.7386 23.0311 79.3768 22.6724 79.1294C22.3198 78.882 21.757 78.6872 20.9839 78.5449L20.5664 78.4707C20.0098 78.3717 19.4562 78.2419 18.9058 78.0811C18.3553 77.9202 17.8574 77.6883 17.4121 77.3853C16.9668 77.0822 16.605 76.6956 16.3267 76.2256C16.0483 75.7493 15.9092 75.1494 15.9092 74.4258C15.9092 74.0052 16.002 73.5661 16.1875 73.1084C16.373 72.6445 16.6668 72.2209 17.0688 71.8374C17.4771 71.4478 17.9997 71.1292 18.6367 70.8818C19.2799 70.6344 20.0562 70.5107 20.9653 70.5107C22.0415 70.5107 23.0002 70.6901 23.8413 71.0488C24.6886 71.4014 25.3721 71.8683 25.8916 72.4497L24.1011 74.1196C23.7362 73.7176 23.2661 73.4022 22.6909 73.1733C22.1219 72.9445 21.5343 72.8301 20.9282 72.8301C20.2293 72.8301 19.682 72.9631 19.2861 73.229C18.8965 73.495 18.7017 73.8413 18.7017 74.2681C18.7017 74.5464 18.7635 74.7783 18.8872 74.9639C19.0171 75.1494 19.1965 75.304 19.4253 75.4277C19.6541 75.5452 19.9294 75.6442 20.251 75.7246C20.5726 75.805 20.9313 75.8854 21.3271 75.9658L21.5405 76.0029C22.0724 76.1019 22.6012 76.2287 23.127 76.3833C23.6527 76.5317 24.1289 76.7544 24.5557 77.0513C24.9886 77.342 25.3381 77.7254 25.604 78.2017C25.87 78.6717 26.0029 79.2747 26.0029 80.0107C26.0029 80.6787 25.8638 81.2694 25.5854 81.7827C25.3071 82.2961 24.9391 82.7352 24.4814 83.1001C24.0238 83.4588 23.495 83.731 22.895 83.9165C22.2951 84.0959 21.6704 84.1855 21.021 84.1855C20.3654 84.1855 19.7562 84.1299 19.1934 84.0186C18.6367 83.9072 18.1296 83.7495 17.6719 83.5454C17.2204 83.3413 16.8153 83.1125 16.4565 82.8589C16.104 82.6053 15.7948 82.3332 15.5288 82.0425L17.2822 80.2612ZM30.1406 79.918C30.1839 80.2148 30.2767 80.487 30.4189 80.7344C30.5674 80.9818 30.7529 81.1951 30.9756 81.3745C31.1982 81.5477 31.4549 81.6838 31.7456 81.7827C32.0363 81.8817 32.3455 81.9312 32.6733 81.9312C33.0506 81.9312 33.4588 81.86 33.8979 81.7178C34.3371 81.5693 34.7391 81.356 35.104 81.0776L36.3379 82.8774C35.874 83.2671 35.305 83.5825 34.6309 83.8237C33.9567 84.0649 33.2393 84.1855 32.4785 84.1855C31.792 84.1855 31.1457 84.068 30.5396 83.833C29.9334 83.598 29.4015 83.2578 28.9438 82.8125C28.4924 82.3672 28.1336 81.826 27.8677 81.189C27.6079 80.5519 27.478 79.8345 27.478 79.0366C27.478 78.3068 27.5924 77.6265 27.8213 76.9956C28.0563 76.3647 28.381 75.8174 28.7954 75.3535C29.216 74.8896 29.717 74.5278 30.2983 74.2681C30.8797 74.0021 31.5229 73.8691 32.228 73.8691C32.8836 73.8691 33.4928 73.9897 34.0557 74.231C34.6185 74.466 35.1071 74.8 35.5215 75.2329C35.9359 75.6597 36.2606 76.173 36.4956 76.7729C36.7306 77.3729 36.8481 78.0347 36.8481 78.7583V79.918H30.1406ZM32.2188 76.0957C31.6683 76.0957 31.2013 76.2812 30.8179 76.6523C30.4406 77.0173 30.221 77.4595 30.1592 77.979H34.167C34.1546 77.4533 33.9629 77.008 33.5918 76.6431C33.2207 76.2782 32.763 76.0957 32.2188 76.0957ZM44.0659 76.5503H43.7969C43.432 76.5503 43.0825 76.5874 42.7485 76.6616C42.4207 76.7358 42.13 76.8719 41.8765 77.0698C41.6229 77.2616 41.4188 77.5275 41.2642 77.8677C41.1157 78.2078 41.0415 78.6439 41.0415 79.1758V84H38.481V74.064H41.0415V75.1865C41.1466 75.0195 41.2827 74.8587 41.4497 74.7041C41.6167 74.5495 41.8115 74.4134 42.0342 74.2959C42.2568 74.1722 42.5073 74.0732 42.7856 73.999C43.064 73.9248 43.3639 73.8877 43.6855 73.8877H44.0659V76.5503ZM47.7676 84L44.7246 74.064H47.582L49.3633 80.9014L51.1909 74.064H54.002L50.9775 84H47.7676ZM57.8335 84H55.2729V74.064H57.8335V84ZM55.0039 71.457C55.0039 71.2467 55.0441 71.0488 55.1245 70.8633C55.2049 70.6715 55.3132 70.5076 55.4492 70.3716C55.5915 70.2293 55.7554 70.118 55.9409 70.0376C56.1265 69.9572 56.3275 69.917 56.5439 69.917C56.7542 69.917 56.9521 69.9572 57.1377 70.0376C57.3294 70.118 57.4933 70.2293 57.6294 70.3716C57.7716 70.5076 57.883 70.6715 57.9634 70.8633C58.0438 71.0488 58.084 71.2467 58.084 71.457C58.084 71.6735 58.0438 71.8745 57.9634 72.0601C57.883 72.2456 57.7716 72.4095 57.6294 72.5518C57.4933 72.6878 57.3294 72.7961 57.1377 72.8765C56.9521 72.9569 56.7542 72.9971 56.5439 72.9971C56.3275 72.9971 56.1265 72.9569 55.9409 72.8765C55.7554 72.7961 55.5915 72.6878 55.4492 72.5518C55.3132 72.4095 55.2049 72.2456 55.1245 72.0601C55.0441 71.8745 55.0039 71.6735 55.0039 71.457ZM62.166 79.083C62.166 79.4046 62.2093 79.7293 62.2959 80.0571C62.3825 80.3787 62.5155 80.6694 62.6948 80.9292C62.8742 81.189 63.103 81.4023 63.3813 81.5693C63.6659 81.7301 64.0029 81.8105 64.3926 81.8105C64.6462 81.8105 64.875 81.7765 65.0791 81.7085C65.2894 81.6405 65.4749 81.5477 65.6357 81.4302C65.8027 81.3065 65.9481 81.1642 66.0718 81.0034C66.2017 80.8364 66.313 80.6571 66.4058 80.4653L68.6509 81.625C68.4901 82.0146 68.2674 82.3672 67.9829 82.6826C67.7046 82.998 67.3799 83.2671 67.0088 83.4897C66.6377 83.7124 66.2264 83.8825 65.7749 84C65.3234 84.1237 64.8441 84.1855 64.3369 84.1855C63.638 84.1855 62.9948 84.0557 62.4072 83.7959C61.8197 83.5299 61.3125 83.1681 60.8857 82.7104C60.459 82.2528 60.125 81.7116 59.8838 81.0869C59.6426 80.4561 59.522 79.7726 59.522 79.0366C59.522 78.3068 59.6426 77.6265 59.8838 76.9956C60.125 76.3647 60.459 75.8174 60.8857 75.3535C61.3125 74.8896 61.8197 74.5278 62.4072 74.2681C62.9948 74.0021 63.638 73.8691 64.3369 73.8691C64.8441 73.8691 65.3234 73.931 65.7749 74.0547C66.2264 74.1722 66.6377 74.3454 67.0088 74.5742C67.3799 74.7969 67.7046 75.0659 67.9829 75.3813C68.2674 75.6968 68.4901 76.0493 68.6509 76.439L66.4058 77.5986C66.313 77.4069 66.2017 77.2306 66.0718 77.0698C65.9481 76.9028 65.8027 76.7606 65.6357 76.6431C65.4749 76.5194 65.2894 76.4235 65.0791 76.3555C64.875 76.2812 64.6462 76.2441 64.3926 76.2441C64.0029 76.2441 63.6659 76.3276 63.3813 76.4946C63.103 76.6554 62.8742 76.8688 62.6948 77.1348C62.5155 77.3945 62.3825 77.6883 62.2959 78.0161C62.2093 78.3439 62.166 78.6717 62.166 78.9995V79.083ZM72.3711 79.918C72.4144 80.2148 72.5072 80.487 72.6494 80.7344C72.7979 80.9818 72.9834 81.1951 73.2061 81.3745C73.4287 81.5477 73.6854 81.6838 73.9761 81.7827C74.2668 81.8817 74.576 81.9312 74.9038 81.9312C75.2811 81.9312 75.6893 81.86 76.1284 81.7178C76.5675 81.5693 76.9696 81.356 77.3345 81.0776L78.5684 82.8774C78.1045 83.2671 77.5355 83.5825 76.8613 83.8237C76.1872 84.0649 75.4697 84.1855 74.709 84.1855C74.0225 84.1855 73.3761 84.068 72.77 83.833C72.1639 83.598 71.632 83.2578 71.1743 82.8125C70.7228 82.3672 70.3641 81.826 70.0981 81.189C69.8384 80.5519 69.7085 79.8345 69.7085 79.0366C69.7085 78.3068 69.8229 77.6265 70.0518 76.9956C70.2868 76.3647 70.6115 75.8174 71.0259 75.3535C71.4465 74.8896 71.9474 74.5278 72.5288 74.2681C73.1102 74.0021 73.7534 73.8691 74.4585 73.8691C75.1141 73.8691 75.7233 73.9897 76.2861 74.231C76.849 74.466 77.3376 74.8 77.752 75.2329C78.1663 75.6597 78.491 76.173 78.7261 76.7729C78.9611 77.3729 79.0786 78.0347 79.0786 78.7583V79.918H72.3711ZM74.4492 76.0957C73.8988 76.0957 73.4318 76.2812 73.0483 76.6523C72.6711 77.0173 72.4515 77.4595 72.3896 77.979H76.3975C76.3851 77.4533 76.1934 77.008 75.8223 76.6431C75.4512 76.2782 74.9935 76.0957 74.4492 76.0957ZM84.144 74.064H86.7046V74.9175C86.8407 74.7814 86.9922 74.6515 87.1592 74.5278C87.3324 74.3979 87.521 74.2866 87.7251 74.1938C87.9292 74.0949 88.1549 74.0176 88.4023 73.9619C88.6559 73.9001 88.9342 73.8691 89.2373 73.8691C89.7754 73.8691 90.2578 73.9588 90.6846 74.1382C91.1113 74.3114 91.4701 74.5526 91.7607 74.8618C92.0576 75.1711 92.2834 75.5329 92.438 75.9473C92.5926 76.3617 92.6699 76.8101 92.6699 77.2925V84H90.1094V78.2202C90.1094 77.8677 90.0692 77.5708 89.9888 77.3296C89.9084 77.0822 89.797 76.8843 89.6548 76.7358C89.5187 76.5812 89.3548 76.4699 89.1631 76.4019C88.9775 76.3276 88.7734 76.2905 88.5508 76.2905C88.291 76.2905 88.0467 76.3369 87.8179 76.4297C87.5952 76.5225 87.4004 76.6647 87.2334 76.8564C87.0664 77.042 86.9365 77.277 86.8438 77.5615C86.751 77.846 86.7046 78.18 86.7046 78.5635V84H84.144V74.064ZM98.0229 79.9644C97.7075 80.0138 97.4539 80.1252 97.2622 80.2983C97.0705 80.4653 96.9746 80.6942 96.9746 80.9849C96.9746 81.3065 97.0921 81.5848 97.3271 81.8198C97.5622 82.0487 97.9085 82.1631 98.3662 82.1631C98.8486 82.1631 99.229 82.0239 99.5073 81.7456C99.7856 81.4673 99.9248 81.0993 99.9248 80.6416V79.6396L98.0229 79.9644ZM100.342 83.063C100.237 83.1805 100.107 83.3073 99.9526 83.4434C99.8042 83.5732 99.6248 83.6938 99.4146 83.8052C99.2104 83.9103 98.9692 84 98.6909 84.0742C98.4126 84.1484 98.1003 84.1855 97.7539 84.1855C97.2591 84.1855 96.8014 84.1082 96.3809 83.9536C95.9665 83.7928 95.6016 83.5701 95.2861 83.2856C94.9707 83.0011 94.7233 82.6733 94.5439 82.3022C94.3646 81.925 94.2749 81.5168 94.2749 81.0776C94.2749 80.2798 94.5223 79.6273 95.0171 79.1201C95.5119 78.613 96.1953 78.2944 97.0674 78.1646L99.9248 77.7471V77.5615C99.9248 77.1162 99.7887 76.7637 99.5166 76.5039C99.2445 76.2441 98.8022 76.1143 98.1899 76.1143C97.9364 76.1143 97.6797 76.1452 97.4199 76.207C97.1602 76.2627 96.9097 76.3276 96.6685 76.4019C96.4334 76.4761 96.2139 76.5627 96.0098 76.6616C95.8057 76.7544 95.6263 76.8379 95.4717 76.9121L94.4697 74.9546C95.0387 74.6392 95.6696 74.3794 96.3623 74.1753C97.0612 73.9712 97.7848 73.8691 98.5332 73.8691C98.9909 73.8691 99.4517 73.9186 99.9155 74.0176C100.386 74.1104 100.809 74.2835 101.187 74.5371C101.57 74.7907 101.882 75.137 102.124 75.5762C102.365 76.0091 102.485 76.5627 102.485 77.2368V81.3188C102.485 81.6095 102.56 81.826 102.708 81.9683C102.863 82.1043 103.073 82.2311 103.339 82.3486L102.179 84.1855C101.709 84.1361 101.332 84.0155 101.047 83.8237C100.763 83.6258 100.528 83.3722 100.342 83.063ZM113.006 84H110.436V78.2202C110.436 77.8677 110.396 77.5708 110.315 77.3296C110.241 77.0822 110.136 76.8843 110 76.7358C109.864 76.5812 109.706 76.473 109.527 76.4111C109.347 76.3431 109.153 76.3091 108.942 76.3091C108.695 76.3091 108.463 76.3524 108.247 76.439C108.036 76.5256 107.851 76.6616 107.69 76.8472C107.535 77.0327 107.412 77.2708 107.319 77.5615C107.232 77.846 107.189 78.1862 107.189 78.582V84H104.628V74.064H107.189V74.936C107.517 74.5711 107.897 74.3021 108.33 74.1289C108.769 73.9557 109.239 73.8691 109.74 73.8691C110.254 73.8691 110.733 73.9743 111.178 74.1846C111.63 74.3949 112.004 74.7412 112.301 75.2236C112.474 74.9762 112.672 74.766 112.895 74.5928C113.123 74.4196 113.368 74.2804 113.627 74.1753C113.887 74.0701 114.156 73.9928 114.435 73.9434C114.719 73.8939 115.01 73.8691 115.307 73.8691C115.863 73.8691 116.358 73.9619 116.791 74.1475C117.23 74.3268 117.601 74.5711 117.904 74.8804C118.207 75.1896 118.439 75.5452 118.6 75.9473C118.761 76.3493 118.841 76.7729 118.841 77.2183V84H116.253V78.2202C116.253 77.8677 116.213 77.5708 116.132 77.3296C116.058 77.0822 115.953 76.8843 115.817 76.7358C115.681 76.5812 115.52 76.473 115.334 76.4111C115.155 76.3431 114.96 76.3091 114.75 76.3091C114.503 76.3091 114.274 76.3524 114.063 76.439C113.853 76.5256 113.668 76.6616 113.507 76.8472C113.352 77.0327 113.229 77.2708 113.136 77.5615C113.049 77.846 113.006 78.1862 113.006 78.582V84ZM123.118 79.918C123.161 80.2148 123.254 80.487 123.396 80.7344C123.545 80.9818 123.73 81.1951 123.953 81.3745C124.176 81.5477 124.432 81.6838 124.723 81.7827C125.014 81.8817 125.323 81.9312 125.651 81.9312C126.028 81.9312 126.436 81.86 126.875 81.7178C127.315 81.5693 127.717 81.356 128.082 81.0776L129.315 82.8774C128.852 83.2671 128.283 83.5825 127.608 83.8237C126.934 84.0649 126.217 84.1855 125.456 84.1855C124.77 84.1855 124.123 84.068 123.517 83.833C122.911 83.598 122.379 83.2578 121.921 82.8125C121.47 82.3672 121.111 81.826 120.845 81.189C120.585 80.5519 120.456 79.8345 120.456 79.0366C120.456 78.3068 120.57 77.6265 120.799 76.9956C121.034 76.3647 121.359 75.8174 121.773 75.3535C122.194 74.8896 122.694 74.5278 123.276 74.2681C123.857 74.0021 124.5 73.8691 125.206 73.8691C125.861 73.8691 126.47 73.9897 127.033 74.231C127.596 74.466 128.085 74.8 128.499 75.2329C128.913 75.6597 129.238 76.173 129.473 76.7729C129.708 77.3729 129.826 78.0347 129.826 78.7583V79.918H123.118ZM125.196 76.0957C124.646 76.0957 124.179 76.2812 123.795 76.6523C123.418 77.0173 123.199 77.4595 123.137 77.979H127.145C127.132 77.4533 126.94 77.008 126.569 76.6431C126.198 76.2782 125.741 76.0957 125.196 76.0957Z" fill="#0B0C0C"/>
<rect width="375" height="45" transform="translate(0 101)" fill="#F3F2F1"/>
<path d="M15 120L21.5 127L28 120" stroke="#1D70B8" stroke-width="2.5"/>
<path d="M44.75 124.383L41.4375 120.242V128H39.1719V116.797H41.4688L44.7812 121.172L48.1953 116.797H50.3984V128H48.125V120.242L44.8281 124.383H44.75ZM54.3125 124.562C54.349 124.812 54.4271 125.042 54.5469 125.25C54.6719 125.458 54.8281 125.638 55.0156 125.789C55.2031 125.935 55.4193 126.049 55.6641 126.133C55.9089 126.216 56.1693 126.258 56.4453 126.258C56.763 126.258 57.1068 126.198 57.4766 126.078C57.8464 125.953 58.1849 125.773 58.4922 125.539L59.5312 127.055C59.1406 127.383 58.6615 127.648 58.0938 127.852C57.526 128.055 56.9219 128.156 56.2812 128.156C55.7031 128.156 55.1589 128.057 54.6484 127.859C54.138 127.661 53.6901 127.375 53.3047 127C52.9245 126.625 52.6224 126.169 52.3984 125.633C52.1797 125.096 52.0703 124.492 52.0703 123.82C52.0703 123.206 52.1667 122.633 52.3594 122.102C52.5573 121.57 52.8307 121.109 53.1797 120.719C53.5339 120.328 53.9557 120.023 54.4453 119.805C54.9349 119.581 55.4766 119.469 56.0703 119.469C56.6224 119.469 57.1354 119.57 57.6094 119.773C58.0833 119.971 58.4948 120.253 58.8438 120.617C59.1927 120.977 59.4661 121.409 59.6641 121.914C59.862 122.419 59.9609 122.977 59.9609 123.586V124.562H54.3125ZM56.0625 121.344C55.599 121.344 55.2057 121.5 54.8828 121.812C54.5651 122.12 54.3802 122.492 54.3281 122.93H57.7031C57.6927 122.487 57.5312 122.112 57.2188 121.805C56.9062 121.497 56.5208 121.344 56.0625 121.344ZM61.3359 119.633H63.4922V120.352C63.6068 120.237 63.7344 120.128 63.875 120.023C64.0208 119.914 64.1797 119.82 64.3516 119.742C64.5234 119.659 64.7135 119.594 64.9219 119.547C65.1354 119.495 65.3698 119.469 65.625 119.469C66.0781 119.469 66.4844 119.544 66.8438 119.695C67.2031 119.841 67.5052 120.044 67.75 120.305C68 120.565 68.1901 120.87 68.3203 121.219C68.4505 121.568 68.5156 121.945 68.5156 122.352V128H66.3594V123.133C66.3594 122.836 66.3255 122.586 66.2578 122.383C66.1901 122.174 66.0964 122.008 65.9766 121.883C65.862 121.753 65.724 121.659 65.5625 121.602C65.4062 121.539 65.2344 121.508 65.0469 121.508C64.8281 121.508 64.6224 121.547 64.4297 121.625C64.2422 121.703 64.0781 121.823 63.9375 121.984C63.7969 122.141 63.6875 122.339 63.6094 122.578C63.5312 122.818 63.4922 123.099 63.4922 123.422V128H61.3359V119.633ZM77.4375 128H75.2812V127.281C75.1615 127.396 75.0312 127.508 74.8906 127.617C74.75 127.721 74.5938 127.815 74.4219 127.898C74.25 127.977 74.0573 128.039 73.8438 128.086C73.6354 128.133 73.4036 128.156 73.1484 128.156C72.6953 128.156 72.2891 128.083 71.9297 127.938C71.5703 127.786 71.2656 127.583 71.0156 127.328C70.7708 127.068 70.5833 126.763 70.4531 126.414C70.3229 126.065 70.2578 125.688 70.2578 125.281V119.633H72.4141V124.492C72.4141 124.789 72.4453 125.042 72.5078 125.25C72.5755 125.458 72.6667 125.628 72.7812 125.758C72.901 125.883 73.0417 125.977 73.2031 126.039C73.3646 126.096 73.5391 126.125 73.7266 126.125C73.9453 126.125 74.1484 126.086 74.3359 126.008C74.5286 125.93 74.6953 125.812 74.8359 125.656C74.9766 125.495 75.0859 125.294 75.1641 125.055C75.2422 124.815 75.2812 124.534 75.2812 124.211V119.633H77.4375V128Z" fill="#1D70B8"/>
<rect y="146" width="375" height="1" fill="#B1B4B6"/>
</svg>
