<?xml version="1.0" encoding="utf-8"?>
<!-- Generator: Adobe Illustrator 28.2.0, SVG Export Plug-In . SVG Version: 6.00 Build 0)  -->
<svg version="1.1" id="Layer_1" xmlns="http://www.w3.org/2000/svg" xmlns:xlink="http://www.w3.org/1999/xlink" x="0px" y="0px"
	 viewBox="0 0 1024 151" style="enable-background:new 0 0 1024 151;" xml:space="preserve">
<style type="text/css">
	.st0{fill:#FFFFFF;}
	.st1{fill:#0B0C0C;}
	.st2{clip-path:url(#SVGID_00000061432832302068927640000007245736379321768599_);}
	.st3{fill:none;stroke:#B1B4B6;}
	.st4{fill-rule:evenodd;clip-rule:evenodd;fill:#1D70B8;}
	.st5{fill:#1D70B8;}
	.st6{fill:none;stroke:#FFFFFF;stroke-width:2;}
	.st7{fill:#F3F2F1;}
	.st8{fill-rule:evenodd;clip-rule:evenodd;fill:#FFFFFF;}
</style>
<rect y="0" class="st0" width="1024" height="151"/>
<rect y="0" class="st1" width="1024" height="50"/>
<g>
	<defs>
		<rect id="SVGID_1_" x="32" y="0" width="960" height="50"/>
	</defs>
	<clipPath id="SVGID_00000087395799691896879030000001191558268543578809_">
		<use xlink:href="#SVGID_1_"  style="overflow:visible;"/>
	</clipPath>
	<g style="clip-path:url(#SVGID_00000087395799691896879030000001191558268543578809_);">
		<rect x="32" y="0" class="st1" width="960" height="50"/>
		<rect x="32" y="0" class="st1" width="154" height="50"/>
		<rect x="32" y="7" class="st1" width="154" height="36"/>
		<path class="st0" d="M80.5,25.6c0,0.9,0.1,1.8,0.3,2.6c0.2,0.8,0.6,1.6,1,2.2s1,1.1,1.8,1.5c0.7,0.4,1.6,0.6,2.5,0.6
			c0.9,0,1.7-0.2,2.4-0.5c0.6-0.3,1.1-0.7,1.5-1.1c0.4-0.5,0.6-1,0.8-1.5c0.2-0.5,0.2-1,0.2-1.5v-0.2h-5.4v-3.2h9.5V36h-3.7v-2.5
			c-0.3,0.4-0.6,0.8-1,1.1c-0.4,0.3-0.8,0.6-1.3,0.9c-0.5,0.2-1,0.4-1.6,0.6c-0.6,0.1-1.2,0.2-1.8,0.2c-1.5,0-2.9-0.3-4.1-0.8
			c-1.2-0.6-2.2-1.3-3-2.3c-0.8-1-1.4-2.1-1.9-3.4c-0.4-1.3-0.6-2.7-0.6-4.2c0-1.5,0.2-2.9,0.7-4.2c0.5-1.3,1.2-2.5,2-3.4
			c0.9-1,1.9-1.7,3.2-2.3c1.2-0.6,2.6-0.8,4.2-0.8c1,0,1.9,0.1,2.8,0.4c0.9,0.2,1.7,0.6,2.4,1c0.7,0.4,1.4,0.9,2,1.5
			c0.6,0.6,1,1.3,1.4,2l-3.7,2.1c-0.2-0.4-0.5-0.9-0.8-1.2c-0.3-0.4-0.7-0.7-1.1-1c-0.4-0.3-0.8-0.5-1.3-0.7
			c-0.5-0.2-1.1-0.2-1.7-0.2c-1,0-1.8,0.2-2.5,0.6c-0.7,0.4-1.3,0.9-1.8,1.5c-0.5,0.6-0.8,1.4-1,2.2c-0.2,0.8-0.3,1.7-0.3,2.6V25.6z
			 M107.9,14.7c1.6,0,3,0.3,4.2,0.8c1.2,0.6,2.3,1.3,3.1,2.3c0.9,1,1.5,2.1,2,3.4c0.5,1.3,0.7,2.7,0.7,4.2c0,1.5-0.2,2.9-0.7,4.2
			c-0.4,1.3-1.1,2.5-2,3.4c-0.9,1-1.9,1.7-3.1,2.3c-1.2,0.6-2.6,0.8-4.2,0.8c-1.6,0-3-0.3-4.2-0.8c-1.2-0.6-2.3-1.3-3.2-2.3
			c-0.9-1-1.5-2.1-2-3.4c-0.4-1.3-0.7-2.7-0.7-4.2c0-1.5,0.2-2.9,0.7-4.2c0.5-1.3,1.1-2.5,2-3.4c0.9-1,1.9-1.7,3.2-2.3
			C105,15,106.4,14.7,107.9,14.7z M107.9,32.5c0.9,0,1.7-0.2,2.4-0.5c0.7-0.4,1.3-0.8,1.8-1.5c0.5-0.6,0.8-1.3,1.1-2.2
			c0.2-0.8,0.4-1.8,0.4-2.8v-0.1c0-1-0.1-1.9-0.4-2.7c-0.2-0.8-0.6-1.6-1.1-2.2c-0.5-0.6-1.1-1.1-1.8-1.4c-0.7-0.4-1.5-0.5-2.4-0.5
			s-1.7,0.2-2.4,0.5c-0.7,0.3-1.3,0.8-1.8,1.4c-0.5,0.6-0.8,1.3-1.1,2.2c-0.2,0.8-0.4,1.8-0.4,2.7v0.1c0,1,0.1,1.9,0.4,2.8
			c0.2,0.8,0.6,1.6,1.1,2.2c0.5,0.6,1.1,1.1,1.8,1.5C106.2,32.3,107,32.5,107.9,32.5z M125.5,36l-5.9-21h4.8l4.1,15.8h0.1l4-15.8
			h4.7l-5.9,21H125.5z M137.8,33.6c0-0.4,0.1-0.7,0.2-1c0.1-0.3,0.3-0.6,0.6-0.8c0.2-0.2,0.5-0.4,0.9-0.6c0.3-0.1,0.7-0.2,1-0.2
			c0.4,0,0.7,0.1,1,0.2c0.3,0.1,0.6,0.3,0.8,0.6c0.2,0.2,0.4,0.5,0.6,0.8c0.1,0.3,0.2,0.6,0.2,1c0,0.4-0.1,0.7-0.2,1
			c-0.1,0.3-0.3,0.6-0.6,0.8c-0.2,0.2-0.5,0.4-0.8,0.6c-0.3,0.1-0.7,0.2-1,0.2c-0.4,0-0.7-0.1-1-0.2c-0.3-0.1-0.6-0.3-0.9-0.6
			c-0.2-0.2-0.4-0.5-0.6-0.8C137.9,34.3,137.8,34,137.8,33.6z M155.1,32.5c0.6,0,1.2-0.1,1.7-0.3c0.5-0.2,1-0.5,1.4-0.8
			c0.4-0.4,0.7-0.8,0.9-1.4c0.2-0.6,0.3-1.2,0.3-2V15h4.2v13.7c0,1.2-0.2,2.2-0.6,3.2c-0.4,0.9-1,1.8-1.8,2.4
			c-0.8,0.7-1.6,1.2-2.7,1.5c-1,0.4-2.2,0.5-3.4,0.5s-2.4-0.2-3.4-0.5c-1-0.4-1.9-0.9-2.7-1.5c-0.8-0.7-1.4-1.5-1.8-2.4
			c-0.4-0.9-0.6-2-0.6-3.2V15h4.2v13c0,0.8,0.1,1.4,0.3,2c0.2,0.6,0.5,1,0.9,1.4c0.4,0.4,0.8,0.6,1.4,0.8
			C153.9,32.4,154.5,32.5,155.1,32.5z M167.8,15h4.2v9.1l7.5-9.1h5.2l-7.3,8.3l7.8,12.7h-4.9l-5.6-9.4l-2.7,3V36h-4.2V15z"/>
		<rect x="691" y="-5" class="st1" width="301" height="60"/>
		<line class="st3" x1="691.5" y1="10" x2="691.5" y2="40"/>
		<path class="st0" d="M724.3,24.4c0,0.5,0.1,0.9,0.2,1.4c0.1,0.4,0.3,0.8,0.5,1.2c0.2,0.3,0.6,0.6,0.9,0.8c0.4,0.2,0.8,0.3,1.4,0.3
			c0.5,0,0.9-0.1,1.3-0.2c0.3-0.2,0.6-0.4,0.8-0.6c0.2-0.2,0.3-0.5,0.4-0.8c0.1-0.3,0.1-0.5,0.1-0.8v-0.1H727v-1.7h5.1V30h-2v-1.3
			c-0.1,0.2-0.3,0.4-0.5,0.6c-0.2,0.2-0.4,0.3-0.7,0.5c-0.3,0.1-0.5,0.2-0.9,0.3c-0.3,0.1-0.6,0.1-1,0.1c-0.8,0-1.5-0.1-2.2-0.4
			c-0.6-0.3-1.2-0.7-1.6-1.2c-0.4-0.5-0.8-1.1-1-1.8c-0.2-0.7-0.3-1.5-0.3-2.3c0-0.8,0.1-1.6,0.4-2.2c0.3-0.7,0.6-1.3,1.1-1.8
			c0.5-0.5,1-0.9,1.7-1.2c0.7-0.3,1.4-0.5,2.2-0.5c0.5,0,1,0.1,1.5,0.2c0.5,0.1,0.9,0.3,1.3,0.5c0.4,0.2,0.7,0.5,1,0.8
			c0.3,0.3,0.5,0.7,0.7,1.1l-2,1.1c-0.1-0.2-0.3-0.5-0.4-0.7c-0.2-0.2-0.3-0.4-0.6-0.5c-0.2-0.2-0.4-0.3-0.7-0.4
			c-0.3-0.1-0.6-0.1-0.9-0.1c-0.5,0-1,0.1-1.4,0.3c-0.4,0.2-0.7,0.5-0.9,0.8c-0.2,0.3-0.4,0.7-0.5,1.2
			C724.3,23.4,724.3,23.9,724.3,24.4L724.3,24.4z M738.9,18.6c0.8,0,1.6,0.2,2.2,0.5c0.7,0.3,1.2,0.7,1.7,1.2
			c0.5,0.5,0.8,1.1,1.1,1.8c0.2,0.7,0.4,1.4,0.4,2.2c0,0.8-0.1,1.6-0.4,2.3c-0.2,0.7-0.6,1.3-1.1,1.8c-0.5,0.5-1,0.9-1.7,1.2
			c-0.7,0.3-1.4,0.4-2.2,0.4c-0.8,0-1.6-0.1-2.2-0.4c-0.7-0.3-1.2-0.7-1.7-1.2c-0.5-0.5-0.8-1.1-1.1-1.8c-0.2-0.7-0.4-1.5-0.4-2.3
			c0-0.8,0.1-1.6,0.4-2.2c0.2-0.7,0.6-1.3,1.1-1.8c0.5-0.5,1-0.9,1.7-1.2C737.3,18.8,738,18.6,738.9,18.6z M738.9,28.1
			c0.5,0,0.9-0.1,1.3-0.3c0.4-0.2,0.7-0.4,0.9-0.8c0.3-0.3,0.4-0.7,0.6-1.2c0.1-0.4,0.2-0.9,0.2-1.5v-0.1c0-0.5-0.1-1-0.2-1.5
			c-0.1-0.5-0.3-0.8-0.6-1.2c-0.3-0.3-0.6-0.6-0.9-0.8c-0.4-0.2-0.8-0.3-1.3-0.3s-0.9,0.1-1.3,0.3c-0.4,0.2-0.7,0.4-0.9,0.8
			c-0.2,0.3-0.4,0.7-0.6,1.2c-0.1,0.4-0.2,0.9-0.2,1.5v0.1c0,0.5,0.1,1,0.2,1.5c0.1,0.4,0.3,0.8,0.6,1.2c0.3,0.3,0.6,0.6,0.9,0.8
			C738,28,738.4,28.1,738.9,28.1z M748.2,30l-3.2-11.2h2.5l2.2,8.4h0.1l2.1-8.4h2.5L751.3,30H748.2z M754.8,28.7
			c0-0.2,0-0.4,0.1-0.5c0.1-0.2,0.2-0.3,0.3-0.4c0.1-0.1,0.3-0.2,0.5-0.3c0.2-0.1,0.4-0.1,0.6-0.1s0.4,0,0.5,0.1
			c0.2,0.1,0.3,0.2,0.5,0.3c0.1,0.1,0.2,0.3,0.3,0.4c0.1,0.2,0.1,0.3,0.1,0.5c0,0.2,0,0.4-0.1,0.6c-0.1,0.2-0.2,0.3-0.3,0.5
			c-0.1,0.1-0.3,0.2-0.5,0.3c-0.2,0.1-0.4,0.1-0.5,0.1s-0.4,0-0.6-0.1c-0.2-0.1-0.3-0.2-0.5-0.3c-0.1-0.1-0.2-0.3-0.3-0.5
			C754.8,29.1,754.8,28.9,754.8,28.7z M764,28.1c0.3,0,0.6,0,0.9-0.1c0.3-0.1,0.5-0.2,0.7-0.4c0.2-0.2,0.4-0.4,0.5-0.7
			c0.1-0.3,0.2-0.7,0.2-1.1v-6.9h2.2v7.3c0,0.6-0.1,1.2-0.3,1.7c-0.2,0.5-0.5,0.9-0.9,1.3c-0.4,0.4-0.9,0.6-1.4,0.8
			c-0.6,0.2-1.2,0.3-1.8,0.3c-0.7,0-1.3-0.1-1.8-0.3c-0.6-0.2-1-0.5-1.4-0.8c-0.4-0.4-0.7-0.8-1-1.3c-0.2-0.5-0.3-1.1-0.3-1.7v-7.3
			h2.2v6.9c0,0.4,0.1,0.8,0.2,1.1c0.1,0.3,0.3,0.5,0.5,0.7c0.2,0.2,0.5,0.3,0.7,0.4C763.4,28.1,763.7,28.1,764,28.1z M770.8,18.8
			h2.3v4.9l4-4.9h2.8l-3.9,4.5l4.1,6.8h-2.6l-3-5l-1.4,1.6V30h-2.3V18.8z M788.9,18.6c0.8,0,1.6,0.2,2.2,0.5
			c0.7,0.3,1.2,0.7,1.7,1.2c0.5,0.5,0.8,1.1,1.1,1.8c0.2,0.7,0.4,1.4,0.4,2.2c0,0.8-0.1,1.6-0.4,2.3c-0.2,0.7-0.6,1.3-1.1,1.8
			c-0.5,0.5-1,0.9-1.7,1.2c-0.7,0.3-1.4,0.4-2.2,0.4c-0.8,0-1.6-0.1-2.2-0.4c-0.7-0.3-1.2-0.7-1.7-1.2c-0.5-0.5-0.8-1.1-1.1-1.8
			c-0.2-0.7-0.4-1.5-0.4-2.3c0-0.8,0.1-1.6,0.4-2.2c0.2-0.7,0.6-1.3,1.1-1.8c0.5-0.5,1-0.9,1.7-1.2
			C787.3,18.8,788.1,18.6,788.9,18.6z M788.9,28.1c0.5,0,0.9-0.1,1.3-0.3c0.4-0.2,0.7-0.4,0.9-0.8s0.4-0.7,0.6-1.2
			c0.1-0.4,0.2-0.9,0.2-1.5v-0.1c0-0.5-0.1-1-0.2-1.5c-0.1-0.5-0.3-0.8-0.6-1.2c-0.3-0.3-0.6-0.6-0.9-0.8c-0.4-0.2-0.8-0.3-1.3-0.3
			c-0.5,0-0.9,0.1-1.3,0.3c-0.4,0.2-0.7,0.4-0.9,0.8c-0.2,0.3-0.4,0.7-0.6,1.2c-0.1,0.4-0.2,0.9-0.2,1.5v0.1c0,0.5,0.1,1,0.2,1.5
			c0.1,0.4,0.3,0.8,0.6,1.2c0.3,0.3,0.6,0.6,0.9,0.8C788,28,788.4,28.1,788.9,28.1z M795.8,21.6h2.2v0.7c0.1-0.1,0.2-0.2,0.4-0.3
			c0.1-0.1,0.3-0.2,0.5-0.3c0.2-0.1,0.4-0.1,0.6-0.2c0.2-0.1,0.4-0.1,0.7-0.1c0.5,0,0.9,0.1,1.2,0.2c0.4,0.1,0.7,0.3,0.9,0.6
			c0.2,0.3,0.4,0.6,0.6,0.9c0.1,0.3,0.2,0.7,0.2,1.1V30h-2.2v-4.9c0-0.3,0-0.5-0.1-0.8c-0.1-0.2-0.2-0.4-0.3-0.5
			c-0.1-0.1-0.3-0.2-0.4-0.3c-0.2-0.1-0.3-0.1-0.5-0.1c-0.2,0-0.4,0-0.6,0.1c-0.2,0.1-0.4,0.2-0.5,0.4c-0.1,0.2-0.2,0.4-0.3,0.6
			c-0.1,0.2-0.1,0.5-0.1,0.8V30h-2.2V21.6z M806.6,26.6c0,0.2,0.1,0.5,0.2,0.7c0.1,0.2,0.3,0.4,0.5,0.5c0.2,0.1,0.4,0.3,0.6,0.3
			c0.2,0.1,0.5,0.1,0.8,0.1c0.3,0,0.7-0.1,1-0.2c0.4-0.1,0.7-0.3,1-0.5l1,1.5c-0.4,0.3-0.9,0.6-1.4,0.8c-0.6,0.2-1.2,0.3-1.8,0.3
			c-0.6,0-1.1-0.1-1.6-0.3c-0.5-0.2-1-0.5-1.3-0.9c-0.4-0.4-0.7-0.8-0.9-1.4c-0.2-0.5-0.3-1.1-0.3-1.8c0-0.6,0.1-1.2,0.3-1.7
			c0.2-0.5,0.5-1,0.8-1.4c0.4-0.4,0.8-0.7,1.3-0.9c0.5-0.2,1-0.3,1.6-0.3c0.6,0,1.1,0.1,1.5,0.3c0.5,0.2,0.9,0.5,1.2,0.8
			c0.3,0.4,0.6,0.8,0.8,1.3c0.2,0.5,0.3,1.1,0.3,1.7v1H806.6z M808.3,23.3c-0.5,0-0.9,0.2-1.2,0.5c-0.3,0.3-0.5,0.7-0.6,1.1h3.4
			c0-0.4-0.2-0.8-0.5-1.1C809.2,23.5,808.8,23.3,808.3,23.3z M816.7,18.8h2.3v9.1h4.4V30h-6.7V18.8z M828.3,21.5
			c0.6,0,1.2,0.1,1.7,0.3c0.5,0.2,0.9,0.5,1.3,0.9c0.4,0.4,0.6,0.9,0.8,1.4c0.2,0.5,0.3,1.1,0.3,1.7c0,0.6-0.1,1.2-0.3,1.7
			c-0.2,0.5-0.5,1-0.8,1.4c-0.4,0.4-0.8,0.7-1.3,0.9c-0.5,0.2-1.1,0.3-1.7,0.3c-0.6,0-1.2-0.1-1.7-0.3c-0.5-0.2-0.9-0.5-1.3-0.9
			c-0.4-0.4-0.6-0.8-0.8-1.4c-0.2-0.5-0.3-1.1-0.3-1.7c0-0.6,0.1-1.2,0.3-1.7c0.2-0.5,0.5-1,0.8-1.4c0.4-0.4,0.8-0.7,1.3-0.9
			C827.1,21.6,827.7,21.5,828.3,21.5z M828.3,28.2c0.3,0,0.6-0.1,0.8-0.2c0.2-0.1,0.4-0.3,0.6-0.5c0.2-0.2,0.3-0.4,0.4-0.7
			c0.1-0.3,0.1-0.6,0.1-0.9v-0.1c0-0.3,0-0.6-0.1-0.9c-0.1-0.3-0.2-0.5-0.4-0.7c-0.2-0.2-0.4-0.4-0.6-0.5c-0.2-0.1-0.5-0.2-0.8-0.2
			c-0.3,0-0.6,0.1-0.8,0.2c-0.2,0.1-0.4,0.3-0.6,0.5c-0.2,0.2-0.3,0.4-0.4,0.7c-0.1,0.3-0.1,0.6-0.1,0.9v0.1c0,0.3,0,0.7,0.1,0.9
			c0.1,0.3,0.2,0.5,0.4,0.7c0.2,0.2,0.4,0.4,0.6,0.5C827.7,28.1,828,28.2,828.3,28.2z M838.9,28.5c-0.2,0.2-0.5,0.4-0.8,0.6
			c-0.3,0.1-0.7,0.2-1.1,0.2c-0.6,0-1.1-0.1-1.5-0.3c-0.4-0.2-0.8-0.5-1.1-0.8c-0.3-0.3-0.5-0.8-0.7-1.2c-0.2-0.5-0.2-1-0.2-1.6
			c0-0.6,0.1-1.1,0.2-1.5c0.2-0.5,0.4-0.9,0.7-1.2c0.3-0.3,0.7-0.6,1.1-0.8c0.4-0.2,0.9-0.3,1.5-0.3c0.4,0,0.8,0.1,1.1,0.2
			c0.3,0.1,0.6,0.3,0.8,0.6v-0.6h2.2v8.3c0,0.5-0.1,0.9-0.3,1.3c-0.2,0.4-0.5,0.7-0.8,0.9c-0.3,0.2-0.7,0.4-1.2,0.5
			c-0.4,0.1-0.9,0.2-1.4,0.2c-0.6,0-1.2-0.1-1.9-0.2c-0.7-0.1-1.2-0.3-1.7-0.5l0.6-1.7c0.1,0.1,0.3,0.1,0.5,0.2
			c0.2,0.1,0.4,0.1,0.7,0.2c0.2,0.1,0.5,0.1,0.8,0.1c0.3,0,0.5,0.1,0.8,0.1c0.2,0,0.4,0,0.6-0.1c0.2,0,0.4-0.1,0.5-0.2
			c0.2-0.1,0.3-0.2,0.4-0.4c0.1-0.2,0.1-0.4,0.1-0.6V28.5z M835.7,25.4c0,0.3,0,0.5,0.1,0.8c0.1,0.2,0.2,0.4,0.3,0.6
			c0.1,0.2,0.3,0.3,0.5,0.4c0.2,0.1,0.5,0.1,0.8,0.1c0.6,0,1-0.2,1.3-0.6c0.2-0.4,0.4-0.8,0.4-1.4v-0.1c0-0.3,0-0.5-0.1-0.8
			c-0.1-0.2-0.2-0.4-0.3-0.6c-0.1-0.2-0.3-0.3-0.5-0.4c-0.2-0.1-0.5-0.1-0.8-0.1c-0.6,0-1,0.2-1.3,0.6
			C835.8,24.3,835.7,24.8,835.7,25.4L835.7,25.4z M845.1,30h-2.2v-8.4h2.2V30z M842.7,19.4c0-0.2,0-0.3,0.1-0.5
			c0.1-0.2,0.2-0.3,0.3-0.4c0.1-0.1,0.3-0.2,0.4-0.3c0.2-0.1,0.3-0.1,0.5-0.1c0.2,0,0.3,0,0.5,0.1c0.2,0.1,0.3,0.2,0.4,0.3
			c0.1,0.1,0.2,0.3,0.3,0.4c0.1,0.2,0.1,0.3,0.1,0.5c0,0.2,0,0.4-0.1,0.5c-0.1,0.2-0.2,0.3-0.3,0.4c-0.1,0.1-0.3,0.2-0.4,0.3
			c-0.2,0.1-0.3,0.1-0.5,0.1c-0.2,0-0.4,0-0.5-0.1c-0.2-0.1-0.3-0.2-0.4-0.3c-0.1-0.1-0.2-0.3-0.3-0.4
			C842.7,19.8,842.7,19.6,842.7,19.4z M846.9,21.6h2.2v0.7c0.1-0.1,0.2-0.2,0.4-0.3c0.1-0.1,0.3-0.2,0.5-0.3
			c0.2-0.1,0.4-0.1,0.6-0.2c0.2-0.1,0.4-0.1,0.7-0.1c0.5,0,0.9,0.1,1.2,0.2c0.4,0.1,0.7,0.3,0.9,0.6c0.2,0.3,0.4,0.6,0.6,0.9
			c0.1,0.3,0.2,0.7,0.2,1.1V30H852v-4.9c0-0.3,0-0.5-0.1-0.8c-0.1-0.2-0.2-0.4-0.3-0.5c-0.1-0.1-0.3-0.2-0.4-0.3
			c-0.2-0.1-0.3-0.1-0.5-0.1c-0.2,0-0.4,0-0.6,0.1c-0.2,0.1-0.4,0.2-0.5,0.4c-0.1,0.2-0.2,0.4-0.3,0.6c-0.1,0.2-0.1,0.5-0.1,0.8V30
			h-2.2V21.6z"/>
		<circle class="st0" cx="871" cy="25" r="11"/>
		<path class="st4" d="M863.3,32.8c0.9-3.4,4-5.8,7.7-5.8s6.8,2.5,7.7,5.8c-0.9,0.9-2,1.6-3.1,2.2H871h-4.6
			C865.2,34.5,864.2,33.7,863.3,32.8z"/>
		<circle class="st5" cx="871" cy="21.8" r="3.8"/>
		<circle class="st6" cx="871" cy="25" r="10"/>
		<line class="st3" x1="907.5" y1="10" x2="907.5" y2="40"/>
		<path class="st0" d="M936.1,26.9c0.1,0.2,0.3,0.3,0.5,0.5c0.2,0.2,0.4,0.3,0.7,0.4c0.3,0.1,0.5,0.2,0.8,0.3c0.3,0.1,0.6,0.1,1,0.1
			c0.6,0,1.1-0.1,1.5-0.4c0.3-0.3,0.5-0.6,0.5-1c0-0.4-0.2-0.7-0.5-0.9c-0.3-0.2-0.8-0.4-1.4-0.5l-0.4-0.1c-0.5-0.1-0.9-0.2-1.4-0.3
			c-0.5-0.1-0.9-0.3-1.3-0.6c-0.4-0.3-0.7-0.6-0.9-1c-0.2-0.4-0.4-0.9-0.4-1.5c0-0.4,0.1-0.7,0.2-1.1c0.2-0.4,0.4-0.7,0.7-1.1
			c0.3-0.3,0.8-0.6,1.3-0.8c0.5-0.2,1.2-0.3,2-0.3c0.9,0,1.7,0.2,2.4,0.5c0.7,0.3,1.3,0.7,1.7,1.2l-1.5,1.4
			c-0.3-0.3-0.7-0.6-1.2-0.8c-0.5-0.2-1-0.3-1.5-0.3c-0.6,0-1,0.1-1.4,0.3c-0.3,0.2-0.5,0.5-0.5,0.9c0,0.2,0.1,0.4,0.2,0.6
			c0.1,0.2,0.3,0.3,0.5,0.4c0.2,0.1,0.4,0.2,0.7,0.2c0.3,0.1,0.6,0.1,0.9,0.2l0.2,0c0.4,0.1,0.9,0.2,1.3,0.3
			c0.4,0.1,0.8,0.3,1.2,0.6c0.4,0.2,0.7,0.6,0.9,1c0.2,0.4,0.3,0.9,0.3,1.5c0,0.6-0.1,1.1-0.4,1.5c-0.2,0.4-0.5,0.8-0.9,1.1
			c-0.4,0.3-0.8,0.5-1.3,0.7c-0.5,0.2-1,0.2-1.6,0.2c-0.6,0-1.1,0-1.5-0.1c-0.5-0.1-0.9-0.2-1.3-0.4c-0.4-0.2-0.7-0.4-1-0.6
			c-0.3-0.2-0.6-0.4-0.8-0.7L936.1,26.9z M947.2,30h-2.2v-8.4h2.2V30z M944.9,19.4c0-0.2,0-0.3,0.1-0.5c0.1-0.2,0.2-0.3,0.3-0.4
			c0.1-0.1,0.3-0.2,0.4-0.3c0.2-0.1,0.3-0.1,0.5-0.1c0.2,0,0.3,0,0.5,0.1c0.2,0.1,0.3,0.2,0.4,0.3c0.1,0.1,0.2,0.3,0.3,0.4
			c0.1,0.2,0.1,0.3,0.1,0.5c0,0.2,0,0.4-0.1,0.5c-0.1,0.2-0.2,0.3-0.3,0.4c-0.1,0.1-0.3,0.2-0.4,0.3c-0.2,0.1-0.3,0.1-0.5,0.1
			c-0.2,0-0.4,0-0.5-0.1c-0.2-0.1-0.3-0.2-0.4-0.3c-0.1-0.1-0.2-0.3-0.3-0.4C944.9,19.8,944.9,19.6,944.9,19.4z M954.2,28.5
			c-0.2,0.2-0.5,0.4-0.8,0.6c-0.3,0.1-0.7,0.2-1.1,0.2c-0.6,0-1.1-0.1-1.5-0.3c-0.4-0.2-0.8-0.5-1.1-0.8c-0.3-0.3-0.5-0.8-0.7-1.2
			c-0.2-0.5-0.2-1-0.2-1.6c0-0.6,0.1-1.1,0.2-1.5c0.2-0.5,0.4-0.9,0.7-1.2c0.3-0.3,0.7-0.6,1.1-0.8c0.4-0.2,0.9-0.3,1.5-0.3
			c0.4,0,0.8,0.1,1.1,0.2c0.3,0.1,0.6,0.3,0.8,0.6v-0.6h2.2v8.3c0,0.5-0.1,0.9-0.3,1.3c-0.2,0.4-0.5,0.7-0.8,0.9
			c-0.3,0.2-0.7,0.4-1.2,0.5c-0.4,0.1-0.9,0.2-1.4,0.2c-0.6,0-1.2-0.1-1.9-0.2c-0.7-0.1-1.2-0.3-1.7-0.5l0.6-1.7
			c0.1,0.1,0.3,0.1,0.5,0.2c0.2,0.1,0.4,0.1,0.7,0.2c0.2,0.1,0.5,0.1,0.8,0.1c0.3,0,0.5,0.1,0.8,0.1c0.2,0,0.4,0,0.6-0.1
			c0.2,0,0.4-0.1,0.5-0.2c0.2-0.1,0.3-0.2,0.4-0.4c0.1-0.2,0.1-0.4,0.1-0.6V28.5z M950.9,25.4c0,0.3,0,0.5,0.1,0.8
			c0.1,0.2,0.2,0.4,0.3,0.6c0.1,0.2,0.3,0.3,0.5,0.4c0.2,0.1,0.5,0.1,0.8,0.1c0.6,0,1-0.2,1.3-0.6c0.2-0.4,0.4-0.8,0.4-1.4v-0.1
			c0-0.3,0-0.5-0.1-0.8c-0.1-0.2-0.2-0.4-0.3-0.6c-0.1-0.2-0.3-0.3-0.5-0.4c-0.2-0.1-0.5-0.1-0.8-0.1c-0.6,0-1,0.2-1.3,0.6
			C951.1,24.3,950.9,24.8,950.9,25.4L950.9,25.4z M958.2,21.6h2.2v0.7c0.1-0.1,0.2-0.2,0.4-0.3c0.1-0.1,0.3-0.2,0.5-0.3
			c0.2-0.1,0.4-0.1,0.6-0.2c0.2-0.1,0.4-0.1,0.7-0.1c0.5,0,0.9,0.1,1.2,0.2c0.4,0.1,0.7,0.3,0.9,0.6c0.2,0.3,0.4,0.6,0.6,0.9
			c0.1,0.3,0.2,0.7,0.2,1.1V30h-2.2v-4.9c0-0.3,0-0.5-0.1-0.8c-0.1-0.2-0.2-0.4-0.3-0.5c-0.1-0.1-0.3-0.2-0.4-0.3
			c-0.2-0.1-0.3-0.1-0.5-0.1c-0.2,0-0.4,0-0.6,0.1c-0.2,0.1-0.4,0.2-0.5,0.4c-0.1,0.2-0.2,0.4-0.3,0.6c-0.1,0.2-0.1,0.5-0.1,0.8V30
			h-2.2V21.6z M973.8,21.5c0.6,0,1.2,0.1,1.7,0.3c0.5,0.2,0.9,0.5,1.3,0.9c0.4,0.4,0.6,0.9,0.8,1.4c0.2,0.5,0.3,1.1,0.3,1.7
			c0,0.6-0.1,1.2-0.3,1.7c-0.2,0.5-0.5,1-0.8,1.4c-0.4,0.4-0.8,0.7-1.3,0.9c-0.5,0.2-1.1,0.3-1.7,0.3c-0.6,0-1.2-0.1-1.7-0.3
			c-0.5-0.2-0.9-0.5-1.3-0.9c-0.4-0.4-0.6-0.8-0.8-1.4c-0.2-0.5-0.3-1.1-0.3-1.7c0-0.6,0.1-1.2,0.3-1.7c0.2-0.5,0.5-1,0.8-1.4
			c0.4-0.4,0.8-0.7,1.3-0.9C972.6,21.6,973.1,21.5,973.8,21.5z M973.8,28.2c0.3,0,0.6-0.1,0.8-0.2c0.2-0.1,0.4-0.3,0.6-0.5
			c0.2-0.2,0.3-0.4,0.4-0.7c0.1-0.3,0.1-0.6,0.1-0.9v-0.1c0-0.3,0-0.6-0.1-0.9c-0.1-0.3-0.2-0.5-0.4-0.7c-0.2-0.2-0.4-0.4-0.6-0.5
			c-0.2-0.1-0.5-0.2-0.8-0.2c-0.3,0-0.6,0.1-0.8,0.2c-0.2,0.1-0.4,0.3-0.6,0.5c-0.2,0.2-0.3,0.4-0.4,0.7c-0.1,0.3-0.1,0.6-0.1,0.9
			v0.1c0,0.3,0,0.7,0.1,0.9c0.1,0.3,0.2,0.5,0.4,0.7c0.2,0.2,0.4,0.4,0.6,0.5C973.2,28.1,973.5,28.2,973.8,28.2z M986.4,30h-2.2
			v-0.7c-0.1,0.1-0.2,0.2-0.4,0.3c-0.1,0.1-0.3,0.2-0.5,0.3c-0.2,0.1-0.4,0.1-0.6,0.2c-0.2,0-0.4,0.1-0.7,0.1
			c-0.5,0-0.9-0.1-1.2-0.2c-0.4-0.2-0.7-0.4-0.9-0.6c-0.2-0.3-0.4-0.6-0.6-0.9c-0.1-0.3-0.2-0.7-0.2-1.1v-5.6h2.2v4.9
			c0,0.3,0,0.5,0.1,0.8c0.1,0.2,0.2,0.4,0.3,0.5c0.1,0.1,0.3,0.2,0.4,0.3c0.2,0.1,0.3,0.1,0.5,0.1c0.2,0,0.4,0,0.6-0.1
			c0.2-0.1,0.4-0.2,0.5-0.4c0.1-0.2,0.2-0.4,0.3-0.6c0.1-0.2,0.1-0.5,0.1-0.8v-4.6h2.2V30z M991.4,27.5c0,0.1,0,0.2,0,0.3
			c0,0.1,0.1,0.2,0.1,0.2c0.1,0.1,0.2,0.1,0.3,0.1c0.1,0,0.3,0.1,0.5,0.1c0.1,0,0.2,0,0.3,0c0.1,0,0.2,0,0.3,0s0.2,0,0.3,0
			c0.1,0,0.2,0,0.2,0l0.2,1.9c-0.2,0-0.4,0-0.6,0.1c-0.2,0-0.4,0-0.6,0c-0.2,0-0.5,0-0.7,0c-0.7,0-1.3-0.2-1.7-0.5
			c-0.4-0.3-0.6-0.9-0.6-1.6v-4.5h-1.5v-1.9h1.5v-2.4l2.2-0.6v2.9h2.2v1.9h-2.2V27.5z"/>
	</g>
</g>
<rect y="50" class="st5" width="1024" height="10"/>
<g>
	<rect y="60" class="st7" width="1024" height="91"/>
	<path class="st1" d="M34.3,93.3c0.2,0.2,0.4,0.4,0.6,0.6c0.2,0.2,0.5,0.4,0.8,0.5c0.3,0.1,0.6,0.3,1,0.4c0.4,0.1,0.7,0.1,1.1,0.1
		c0.8,0,1.3-0.2,1.7-0.5c0.4-0.3,0.6-0.7,0.6-1.2c0-0.5-0.2-0.8-0.5-1.1c-0.4-0.2-0.9-0.4-1.7-0.6l-0.4-0.1
		c-0.6-0.1-1.1-0.2-1.7-0.4c-0.6-0.2-1-0.4-1.5-0.7c-0.4-0.3-0.8-0.7-1.1-1.2c-0.3-0.5-0.4-1.1-0.4-1.8c0-0.4,0.1-0.9,0.3-1.3
		c0.2-0.5,0.5-0.9,0.9-1.3c0.4-0.4,0.9-0.7,1.6-1c0.6-0.2,1.4-0.4,2.3-0.4c1.1,0,2,0.2,2.9,0.5c0.8,0.4,1.5,0.8,2.1,1.4l-1.8,1.7
		c-0.4-0.4-0.8-0.7-1.4-0.9c-0.6-0.2-1.2-0.3-1.8-0.3c-0.7,0-1.2,0.1-1.6,0.4c-0.4,0.3-0.6,0.6-0.6,1c0,0.3,0.1,0.5,0.2,0.7
		c0.1,0.2,0.3,0.3,0.5,0.5c0.2,0.1,0.5,0.2,0.8,0.3c0.3,0.1,0.7,0.2,1.1,0.2l0.2,0c0.5,0.1,1.1,0.2,1.6,0.4c0.5,0.1,1,0.4,1.4,0.7
		c0.4,0.3,0.8,0.7,1,1.2c0.3,0.5,0.4,1.1,0.4,1.8c0,0.7-0.1,1.3-0.4,1.8c-0.3,0.5-0.6,1-1.1,1.3c-0.5,0.4-1,0.6-1.6,0.8
		c-0.6,0.2-1.2,0.3-1.9,0.3c-0.7,0-1.3-0.1-1.8-0.2c-0.6-0.1-1.1-0.3-1.5-0.5c-0.5-0.2-0.9-0.4-1.2-0.7c-0.4-0.3-0.7-0.5-0.9-0.8
		L34.3,93.3z M47.1,92.9c0,0.3,0.1,0.6,0.3,0.8c0.1,0.2,0.3,0.5,0.6,0.6c0.2,0.2,0.5,0.3,0.8,0.4c0.3,0.1,0.6,0.1,0.9,0.1
		c0.4,0,0.8-0.1,1.2-0.2c0.4-0.1,0.8-0.4,1.2-0.6l1.2,1.8c-0.5,0.4-1,0.7-1.7,0.9c-0.7,0.2-1.4,0.4-2.2,0.4c-0.7,0-1.3-0.1-1.9-0.4
		c-0.6-0.2-1.1-0.6-1.6-1c-0.5-0.4-0.8-1-1.1-1.6c-0.3-0.6-0.4-1.4-0.4-2.2c0-0.7,0.1-1.4,0.3-2c0.2-0.6,0.6-1.2,1-1.6
		c0.4-0.5,0.9-0.8,1.5-1.1c0.6-0.3,1.2-0.4,1.9-0.4c0.7,0,1.3,0.1,1.8,0.4c0.6,0.2,1.1,0.6,1.5,1c0.4,0.4,0.7,0.9,1,1.5
		c0.2,0.6,0.4,1.3,0.4,2v1.2H47.1z M49.2,89.1c-0.6,0-1,0.2-1.4,0.6c-0.4,0.4-0.6,0.8-0.7,1.3h4c0-0.5-0.2-1-0.6-1.3
		C50.2,89.3,49.8,89.1,49.2,89.1z M61.1,89.6h-0.3c-0.4,0-0.7,0-1,0.1c-0.3,0.1-0.6,0.2-0.9,0.4c-0.3,0.2-0.5,0.5-0.6,0.8
		c-0.1,0.3-0.2,0.8-0.2,1.3V97h-2.6v-9.9H58v1.1c0.1-0.2,0.2-0.3,0.4-0.5s0.4-0.3,0.6-0.4c0.2-0.1,0.5-0.2,0.8-0.3
		c0.3-0.1,0.6-0.1,0.9-0.1h0.4V89.6z M64.8,97l-3-9.9h2.9l1.8,6.8l1.8-6.8H71L68,97H64.8z M74.8,97h-2.6v-9.9h2.6V97z M72,84.5
		c0-0.2,0-0.4,0.1-0.6c0.1-0.2,0.2-0.4,0.3-0.5c0.1-0.1,0.3-0.3,0.5-0.3c0.2-0.1,0.4-0.1,0.6-0.1c0.2,0,0.4,0,0.6,0.1
		c0.2,0.1,0.4,0.2,0.5,0.3c0.1,0.1,0.3,0.3,0.3,0.5c0.1,0.2,0.1,0.4,0.1,0.6c0,0.2,0,0.4-0.1,0.6c-0.1,0.2-0.2,0.3-0.3,0.5
		c-0.1,0.1-0.3,0.2-0.5,0.3C74,86,73.8,86,73.5,86c-0.2,0-0.4,0-0.6-0.1c-0.2-0.1-0.3-0.2-0.5-0.3c-0.1-0.1-0.2-0.3-0.3-0.5
		C72,84.9,72,84.7,72,84.5z M79.2,92.1c0,0.3,0,0.6,0.1,1c0.1,0.3,0.2,0.6,0.4,0.9c0.2,0.3,0.4,0.5,0.7,0.6c0.3,0.2,0.6,0.2,1,0.2
		c0.3,0,0.5,0,0.7-0.1c0.2-0.1,0.4-0.2,0.6-0.3c0.2-0.1,0.3-0.3,0.4-0.4c0.1-0.2,0.2-0.3,0.3-0.5l2.2,1.2c-0.2,0.4-0.4,0.7-0.7,1.1
		c-0.3,0.3-0.6,0.6-1,0.8c-0.4,0.2-0.8,0.4-1.2,0.5c-0.5,0.1-0.9,0.2-1.4,0.2c-0.7,0-1.3-0.1-1.9-0.4c-0.6-0.3-1.1-0.6-1.5-1.1
		c-0.4-0.5-0.8-1-1-1.6c-0.2-0.6-0.4-1.3-0.4-2.1c0-0.7,0.1-1.4,0.4-2c0.2-0.6,0.6-1.2,1-1.6c0.4-0.5,0.9-0.8,1.5-1.1
		c0.6-0.3,1.2-0.4,1.9-0.4c0.5,0,1,0.1,1.4,0.2c0.5,0.1,0.9,0.3,1.2,0.5c0.4,0.2,0.7,0.5,1,0.8c0.3,0.3,0.5,0.7,0.7,1.1l-2.2,1.2
		c-0.1-0.2-0.2-0.4-0.3-0.5c-0.1-0.2-0.3-0.3-0.4-0.4c-0.2-0.1-0.3-0.2-0.6-0.3c-0.2-0.1-0.4-0.1-0.7-0.1c-0.4,0-0.7,0.1-1,0.3
		c-0.3,0.2-0.5,0.4-0.7,0.6c-0.2,0.3-0.3,0.6-0.4,0.9C79.2,91.3,79.2,91.7,79.2,92.1L79.2,92.1z M89.4,92.9c0,0.3,0.1,0.6,0.3,0.8
		c0.1,0.2,0.3,0.5,0.6,0.6c0.2,0.2,0.5,0.3,0.8,0.4c0.3,0.1,0.6,0.1,0.9,0.1c0.4,0,0.8-0.1,1.2-0.2c0.4-0.1,0.8-0.4,1.2-0.6l1.2,1.8
		c-0.5,0.4-1,0.7-1.7,0.9c-0.7,0.2-1.4,0.4-2.2,0.4c-0.7,0-1.3-0.1-1.9-0.4c-0.6-0.2-1.1-0.6-1.6-1c-0.5-0.4-0.8-1-1.1-1.6
		c-0.3-0.6-0.4-1.4-0.4-2.2c0-0.7,0.1-1.4,0.3-2c0.2-0.6,0.6-1.2,1-1.6c0.4-0.5,0.9-0.8,1.5-1.1c0.6-0.3,1.2-0.4,1.9-0.4
		c0.7,0,1.3,0.1,1.8,0.4c0.6,0.2,1.1,0.6,1.5,1c0.4,0.4,0.7,0.9,1,1.5c0.2,0.6,0.4,1.3,0.4,2v1.2H89.4z M91.4,89.1
		c-0.6,0-1,0.2-1.4,0.6c-0.4,0.4-0.6,0.8-0.7,1.3h4c0-0.5-0.2-1-0.6-1.3C92.5,89.3,92,89.1,91.4,89.1z M104.4,94c0,0.1,0,0.2,0,0.3
		c0,0.1,0.1,0.2,0.2,0.3c0.1,0.1,0.2,0.1,0.3,0.2c0.1,0,0.3,0.1,0.5,0.1c0.1,0,0.2,0,0.3,0c0.1,0,0.2,0,0.4,0c0.1,0,0.2,0,0.3,0
		c0.1,0,0.2,0,0.3,0L107,97c-0.2,0-0.5,0.1-0.8,0.1c-0.2,0-0.5,0-0.7,0.1c-0.3,0-0.5,0-0.8,0c-0.9,0-1.6-0.2-2.1-0.6
		c-0.5-0.4-0.7-1-0.7-1.9v-5.4h-1.8v-2.2h1.8v-2.8l2.6-0.7v3.5h2.6v2.2h-2.6V94z M108.6,83.7h2.6v4.2c0.1-0.1,0.3-0.3,0.5-0.4
		c0.2-0.1,0.4-0.2,0.6-0.3c0.2-0.1,0.4-0.2,0.7-0.2c0.3-0.1,0.5-0.1,0.8-0.1c0.5,0,1,0.1,1.4,0.3c0.4,0.2,0.8,0.4,1.1,0.7
		c0.3,0.3,0.5,0.7,0.7,1.1c0.2,0.4,0.2,0.9,0.2,1.3V97h-2.6v-5.8c0-0.4,0-0.6-0.1-0.9c-0.1-0.2-0.2-0.4-0.3-0.6
		c-0.1-0.2-0.3-0.3-0.5-0.3c-0.2-0.1-0.4-0.1-0.6-0.1c-0.3,0-0.5,0-0.7,0.1c-0.2,0.1-0.4,0.2-0.6,0.4c-0.2,0.2-0.3,0.4-0.4,0.7
		c-0.1,0.3-0.1,0.6-0.1,1V97h-2.6V83.7z M122.5,93c-0.3,0-0.6,0.2-0.8,0.3c-0.2,0.2-0.3,0.4-0.3,0.7c0,0.3,0.1,0.6,0.4,0.8
		c0.2,0.2,0.6,0.3,1,0.3c0.5,0,0.9-0.1,1.1-0.4c0.3-0.3,0.4-0.6,0.4-1.1v-1L122.5,93z M124.8,96.1c-0.1,0.1-0.2,0.2-0.4,0.4
		c-0.1,0.1-0.3,0.3-0.5,0.4c-0.2,0.1-0.4,0.2-0.7,0.3c-0.3,0.1-0.6,0.1-0.9,0.1c-0.5,0-1-0.1-1.4-0.2c-0.4-0.2-0.8-0.4-1.1-0.7
		c-0.3-0.3-0.6-0.6-0.7-1c-0.2-0.4-0.3-0.8-0.3-1.2c0-0.8,0.2-1.5,0.7-2c0.5-0.5,1.2-0.8,2.1-1l2.9-0.4v-0.2c0-0.4-0.1-0.8-0.4-1.1
		c-0.3-0.3-0.7-0.4-1.3-0.4c-0.3,0-0.5,0-0.8,0.1c-0.3,0.1-0.5,0.1-0.8,0.2c-0.2,0.1-0.5,0.2-0.7,0.3c-0.2,0.1-0.4,0.2-0.5,0.3l-1-2
		c0.6-0.3,1.2-0.6,1.9-0.8c0.7-0.2,1.4-0.3,2.2-0.3c0.5,0,0.9,0,1.4,0.1c0.5,0.1,0.9,0.3,1.3,0.5c0.4,0.3,0.7,0.6,0.9,1
		c0.2,0.4,0.4,1,0.4,1.7v4.1c0,0.3,0.1,0.5,0.2,0.6c0.2,0.1,0.4,0.3,0.6,0.4l-1.2,1.8c-0.5,0-0.8-0.2-1.1-0.4
		C125.3,96.6,125,96.4,124.8,96.1z M132.4,94c0,0.1,0,0.2,0,0.3c0,0.1,0.1,0.2,0.2,0.3c0.1,0.1,0.2,0.1,0.3,0.2
		c0.1,0,0.3,0.1,0.5,0.1c0.1,0,0.2,0,0.3,0c0.1,0,0.2,0,0.4,0c0.1,0,0.2,0,0.3,0c0.1,0,0.2,0,0.3,0L135,97c-0.2,0-0.5,0.1-0.8,0.1
		c-0.2,0-0.5,0-0.7,0.1c-0.3,0-0.5,0-0.8,0c-0.9,0-1.6-0.2-2.1-0.6c-0.5-0.4-0.7-1-0.7-1.9v-5.4H128v-2.2h1.8v-2.8l2.6-0.7v3.5h2.6
		v2.2h-2.6V94z M140.1,83.7h2.6v4.2c0.1-0.1,0.3-0.3,0.5-0.4c0.2-0.1,0.4-0.2,0.6-0.3c0.2-0.1,0.4-0.2,0.7-0.2
		c0.3-0.1,0.5-0.1,0.8-0.1c0.5,0,1,0.1,1.4,0.3c0.4,0.2,0.8,0.4,1.1,0.7c0.3,0.3,0.5,0.7,0.7,1.1c0.2,0.4,0.2,0.9,0.2,1.3V97H146
		v-5.8c0-0.4,0-0.6-0.1-0.9c-0.1-0.2-0.2-0.4-0.3-0.6c-0.1-0.2-0.3-0.3-0.5-0.3c-0.2-0.1-0.4-0.1-0.6-0.1c-0.3,0-0.5,0-0.7,0.1
		c-0.2,0.1-0.4,0.2-0.6,0.4c-0.2,0.2-0.3,0.4-0.4,0.7c-0.1,0.3-0.1,0.6-0.1,1V97h-2.6V83.7z M153.9,93c-0.3,0-0.6,0.2-0.8,0.3
		c-0.2,0.2-0.3,0.4-0.3,0.7c0,0.3,0.1,0.6,0.4,0.8c0.2,0.2,0.6,0.3,1,0.3c0.5,0,0.9-0.1,1.1-0.4c0.3-0.3,0.4-0.6,0.4-1.1v-1
		L153.9,93z M156.3,96.1c-0.1,0.1-0.2,0.2-0.4,0.4c-0.1,0.1-0.3,0.3-0.5,0.4c-0.2,0.1-0.4,0.2-0.7,0.3c-0.3,0.1-0.6,0.1-0.9,0.1
		c-0.5,0-1-0.1-1.4-0.2c-0.4-0.2-0.8-0.4-1.1-0.7c-0.3-0.3-0.6-0.6-0.7-1c-0.2-0.4-0.3-0.8-0.3-1.2c0-0.8,0.2-1.5,0.7-2
		c0.5-0.5,1.2-0.8,2.1-1l2.9-0.4v-0.2c0-0.4-0.1-0.8-0.4-1.1c-0.3-0.3-0.7-0.4-1.3-0.4c-0.3,0-0.5,0-0.8,0.1
		c-0.3,0.1-0.5,0.1-0.8,0.2c-0.2,0.1-0.5,0.2-0.7,0.3c-0.2,0.1-0.4,0.2-0.5,0.3l-1-2c0.6-0.3,1.2-0.6,1.9-0.8
		c0.7-0.2,1.4-0.3,2.2-0.3c0.5,0,0.9,0,1.4,0.1c0.5,0.1,0.9,0.3,1.3,0.5c0.4,0.3,0.7,0.6,0.9,1c0.2,0.4,0.4,1,0.4,1.7v4.1
		c0,0.3,0.1,0.5,0.2,0.6c0.2,0.1,0.4,0.3,0.6,0.4l-1.2,1.8c-0.5,0-0.8-0.2-1.1-0.4C156.7,96.6,156.4,96.4,156.3,96.1z M161.2,93.8
		c0.4,0.3,0.8,0.6,1.3,0.8c0.5,0.2,1,0.4,1.5,0.4c0.4,0,0.7-0.1,0.9-0.2c0.2-0.1,0.3-0.3,0.3-0.6c0-0.4-0.4-0.7-1.3-0.9l-0.7-0.2
		c-0.4-0.1-0.7-0.2-1.1-0.4c-0.4-0.2-0.7-0.4-1-0.6c-0.3-0.2-0.6-0.5-0.7-0.9c-0.2-0.4-0.3-0.8-0.3-1.3c0-0.4,0.1-0.8,0.3-1.2
		c0.2-0.4,0.4-0.7,0.8-1c0.3-0.3,0.8-0.5,1.2-0.7c0.5-0.2,1-0.3,1.6-0.3c0.8,0,1.6,0.1,2.3,0.4c0.7,0.3,1.2,0.6,1.6,0.9l-1.3,1.7
		c-0.3-0.2-0.7-0.4-1.1-0.6c-0.4-0.2-0.9-0.3-1.3-0.3c-0.4,0-0.7,0.1-0.9,0.2c-0.2,0.1-0.3,0.3-0.3,0.5c0,0.2,0.1,0.4,0.3,0.5
		c0.2,0.1,0.5,0.2,0.9,0.3l1.1,0.3c1,0.3,1.8,0.7,2.2,1.2c0.4,0.5,0.7,1.1,0.7,1.9c0,0.4-0.1,0.8-0.3,1.2c-0.2,0.4-0.4,0.7-0.8,1
		c-0.3,0.3-0.7,0.5-1.2,0.7c-0.5,0.2-1.1,0.3-1.7,0.3c-0.5,0-0.9,0-1.4-0.1c-0.4-0.1-0.8-0.2-1.2-0.4c-0.4-0.2-0.7-0.3-1-0.5
		c-0.3-0.2-0.5-0.4-0.7-0.6L161.2,93.8z M176.3,93c-0.3,0-0.6,0.2-0.8,0.3c-0.2,0.2-0.3,0.4-0.3,0.7c0,0.3,0.1,0.6,0.4,0.8
		c0.2,0.2,0.6,0.3,1,0.3c0.5,0,0.9-0.1,1.1-0.4c0.3-0.3,0.4-0.6,0.4-1.1v-1L176.3,93z M178.6,96.1c-0.1,0.1-0.2,0.2-0.4,0.4
		c-0.1,0.1-0.3,0.3-0.5,0.4c-0.2,0.1-0.4,0.2-0.7,0.3c-0.3,0.1-0.6,0.1-0.9,0.1c-0.5,0-1-0.1-1.4-0.2c-0.4-0.2-0.8-0.4-1.1-0.7
		c-0.3-0.3-0.6-0.6-0.7-1c-0.2-0.4-0.3-0.8-0.3-1.2c0-0.8,0.2-1.5,0.7-2c0.5-0.5,1.2-0.8,2-1l2.9-0.4v-0.2c0-0.4-0.1-0.8-0.4-1.1
		c-0.3-0.3-0.7-0.4-1.3-0.4c-0.3,0-0.5,0-0.8,0.1c-0.3,0.1-0.5,0.1-0.8,0.2c-0.2,0.1-0.5,0.2-0.7,0.3c-0.2,0.1-0.4,0.2-0.5,0.3l-1-2
		c0.6-0.3,1.2-0.6,1.9-0.8c0.7-0.2,1.4-0.3,2.2-0.3c0.5,0,0.9,0,1.4,0.1c0.5,0.1,0.9,0.3,1.3,0.5c0.4,0.3,0.7,0.6,0.9,1
		c0.2,0.4,0.4,1,0.4,1.7v4.1c0,0.3,0.1,0.5,0.2,0.6c0.2,0.1,0.4,0.3,0.6,0.4l-1.2,1.8c-0.5,0-0.8-0.2-1.1-0.4
		C179.1,96.6,178.8,96.4,178.6,96.1z M192,89.6h-0.3c-0.4,0-0.7,0-1,0.1c-0.3,0.1-0.6,0.2-0.9,0.4c-0.3,0.2-0.5,0.5-0.6,0.8
		c-0.1,0.3-0.2,0.8-0.2,1.3V97h-2.6v-9.9h2.6v1.1c0.1-0.2,0.2-0.3,0.4-0.5c0.2-0.2,0.4-0.3,0.6-0.4c0.2-0.1,0.5-0.2,0.8-0.3
		c0.3-0.1,0.6-0.1,0.9-0.1h0.4V89.6z M195.7,92.9c0,0.3,0.1,0.6,0.3,0.8c0.1,0.2,0.3,0.5,0.6,0.6c0.2,0.2,0.5,0.3,0.8,0.4
		c0.3,0.1,0.6,0.1,0.9,0.1c0.4,0,0.8-0.1,1.2-0.2c0.4-0.1,0.8-0.4,1.2-0.6l1.2,1.8c-0.5,0.4-1,0.7-1.7,0.9c-0.7,0.2-1.4,0.4-2.2,0.4
		c-0.7,0-1.3-0.1-1.9-0.4s-1.1-0.6-1.6-1c-0.5-0.4-0.8-1-1.1-1.6c-0.3-0.6-0.4-1.4-0.4-2.2c0-0.7,0.1-1.4,0.3-2
		c0.2-0.6,0.6-1.2,1-1.6c0.4-0.5,0.9-0.8,1.5-1.1c0.6-0.3,1.2-0.4,1.9-0.4c0.7,0,1.3,0.1,1.8,0.4c0.6,0.2,1.1,0.6,1.5,1
		c0.4,0.4,0.7,0.9,1,1.5c0.2,0.6,0.4,1.3,0.4,2v1.2H195.7z M197.8,89.1c-0.6,0-1,0.2-1.4,0.6c-0.4,0.4-0.6,0.8-0.7,1.3h4
		c0-0.5-0.2-1-0.6-1.3C198.8,89.3,198.3,89.1,197.8,89.1z M207.2,93c-0.3,0-0.6,0.2-0.8,0.3c-0.2,0.2-0.3,0.4-0.3,0.7
		c0,0.3,0.1,0.6,0.4,0.8c0.2,0.2,0.6,0.3,1,0.3c0.5,0,0.9-0.1,1.1-0.4c0.3-0.3,0.4-0.6,0.4-1.1v-1L207.2,93z M209.6,96.1
		c-0.1,0.1-0.2,0.2-0.4,0.4c-0.1,0.1-0.3,0.3-0.5,0.4c-0.2,0.1-0.4,0.2-0.7,0.3c-0.3,0.1-0.6,0.1-0.9,0.1c-0.5,0-1-0.1-1.4-0.2
		c-0.4-0.2-0.8-0.4-1.1-0.7c-0.3-0.3-0.6-0.6-0.7-1c-0.2-0.4-0.3-0.8-0.3-1.2c0-0.8,0.2-1.5,0.7-2c0.5-0.5,1.2-0.8,2.1-1l2.9-0.4
		v-0.2c0-0.4-0.1-0.8-0.4-1.1c-0.3-0.3-0.7-0.4-1.3-0.4c-0.3,0-0.5,0-0.8,0.1c-0.3,0.1-0.5,0.1-0.8,0.2c-0.2,0.1-0.5,0.2-0.7,0.3
		c-0.2,0.1-0.4,0.2-0.5,0.3l-1-2c0.6-0.3,1.2-0.6,1.9-0.8c0.7-0.2,1.4-0.3,2.2-0.3c0.5,0,0.9,0,1.4,0.1c0.5,0.1,0.9,0.3,1.3,0.5
		c0.4,0.3,0.7,0.6,0.9,1c0.2,0.4,0.4,1,0.4,1.7v4.1c0,0.3,0.1,0.5,0.2,0.6c0.2,0.1,0.4,0.3,0.6,0.4l-1.2,1.8c-0.5,0-0.8-0.2-1.1-0.4
		C210,96.6,209.7,96.4,209.6,96.1z M213.8,83.7h2.6v10.6c0,0.2,0.1,0.4,0.2,0.5c0.1,0.1,0.3,0.2,0.6,0.2c0.1,0,0.2,0,0.3,0
		c0.1,0,0.2,0,0.4-0.1L218,97c-0.2,0-0.4,0-0.6,0.1c-0.2,0-0.4,0-0.6,0c-0.2,0-0.4,0-0.7,0c-0.4,0-0.7,0-1-0.1
		c-0.3-0.1-0.5-0.2-0.8-0.4c-0.2-0.2-0.4-0.4-0.5-0.7c-0.1-0.3-0.2-0.6-0.2-0.9V83.7z M219.4,83.7h2.6v10.6c0,0.2,0.1,0.4,0.2,0.5
		c0.1,0.1,0.3,0.2,0.6,0.2c0.1,0,0.2,0,0.3,0c0.1,0,0.2,0,0.4-0.1l0.2,2.2c-0.2,0-0.4,0-0.6,0.1c-0.2,0-0.4,0-0.6,0
		c-0.2,0-0.4,0-0.7,0c-0.4,0-0.7,0-1-0.1c-0.3-0.1-0.5-0.2-0.8-0.4c-0.2-0.2-0.4-0.4-0.5-0.7c-0.1-0.3-0.2-0.6-0.2-0.9V83.7z
		 M226,98.2c0.3,0,0.5-0.1,0.6-0.2c0.1-0.1,0.3-0.3,0.3-0.5l0.1-0.3l-3.4-10.1h2.8l2,6.9l1.6-6.9h2.8l-3.3,11.2
		c-0.1,0.4-0.3,0.7-0.5,1c-0.2,0.3-0.4,0.5-0.7,0.6c-0.3,0.2-0.6,0.3-0.9,0.4c-0.3,0.1-0.7,0.1-1.1,0.1c-0.2,0-0.3,0-0.5,0
		c-0.2,0-0.4,0-0.6-0.1c-0.2,0-0.4,0-0.6-0.1c-0.2,0-0.4-0.1-0.6-0.1l0.5-2.1c0.1,0,0.3,0.1,0.5,0.1c0.1,0,0.3,0,0.5,0.1
		C225.7,98.2,225.8,98.2,226,98.2z M237.1,83.7h2.6v10.6c0,0.2,0.1,0.4,0.2,0.5c0.1,0.1,0.3,0.2,0.6,0.2c0.1,0,0.2,0,0.3,0
		c0.1,0,0.2,0,0.4-0.1l0.2,2.2c-0.2,0-0.4,0-0.6,0.1c-0.2,0-0.4,0-0.6,0c-0.2,0-0.4,0-0.7,0c-0.4,0-0.7,0-1-0.1
		c-0.3-0.1-0.5-0.2-0.8-0.4c-0.2-0.2-0.4-0.4-0.5-0.7c-0.1-0.3-0.2-0.6-0.2-0.9V83.7z M247.1,86.9c0.7,0,1.4,0.1,2,0.4
		c0.6,0.3,1.1,0.6,1.5,1.1c0.4,0.5,0.8,1,1,1.6c0.2,0.6,0.4,1.3,0.4,2c0,0.7-0.1,1.4-0.4,2.1c-0.2,0.6-0.6,1.2-1,1.6
		c-0.4,0.5-0.9,0.8-1.5,1.1c-0.6,0.3-1.3,0.4-2,0.4c-0.7,0-1.4-0.1-2-0.4c-0.6-0.3-1.1-0.6-1.5-1.1c-0.4-0.5-0.8-1-1-1.6
		c-0.2-0.6-0.4-1.3-0.4-2.1c0-0.7,0.1-1.4,0.3-2c0.2-0.6,0.6-1.2,1-1.6c0.4-0.5,0.9-0.8,1.5-1.1C245.7,87,246.3,86.9,247.1,86.9z
		 M247.1,94.8c0.4,0,0.7-0.1,1-0.2c0.3-0.1,0.5-0.3,0.7-0.6c0.2-0.2,0.3-0.5,0.4-0.9c0.1-0.3,0.1-0.7,0.1-1.1V92
		c0-0.4,0-0.8-0.1-1.1c-0.1-0.3-0.2-0.6-0.4-0.9c-0.2-0.2-0.4-0.4-0.7-0.6c-0.3-0.1-0.6-0.2-1-0.2s-0.7,0.1-1,0.2
		c-0.3,0.1-0.5,0.3-0.7,0.6c-0.2,0.2-0.3,0.5-0.4,0.9c-0.1,0.3-0.1,0.7-0.1,1.1v0.1c0,0.4,0,0.8,0.1,1.1c0.1,0.3,0.2,0.6,0.4,0.9
		c0.2,0.2,0.4,0.4,0.7,0.6C246.4,94.7,246.7,94.8,247.1,94.8z M253.6,87.1h2.6v0.9c0.1-0.1,0.3-0.3,0.5-0.4c0.2-0.1,0.4-0.2,0.6-0.3
		c0.2-0.1,0.4-0.2,0.7-0.2c0.3-0.1,0.5-0.1,0.8-0.1c0.5,0,1,0.1,1.4,0.3c0.4,0.2,0.8,0.4,1.1,0.7c0.3,0.3,0.5,0.7,0.7,1.1
		c0.2,0.4,0.2,0.9,0.2,1.3V97h-2.6v-5.8c0-0.4,0-0.6-0.1-0.9c-0.1-0.2-0.2-0.4-0.3-0.6c-0.1-0.2-0.3-0.3-0.5-0.3
		c-0.2-0.1-0.4-0.1-0.6-0.1c-0.3,0-0.5,0-0.7,0.1c-0.2,0.1-0.4,0.2-0.6,0.4c-0.2,0.2-0.3,0.4-0.4,0.7s-0.1,0.6-0.1,1V97h-2.6V87.1z
		 M270.4,95.2c-0.2,0.3-0.6,0.5-1,0.7c-0.4,0.2-0.9,0.2-1.3,0.2c-0.7,0-1.3-0.1-1.8-0.4c-0.5-0.2-1-0.6-1.3-1
		c-0.4-0.4-0.6-0.9-0.8-1.5c-0.2-0.6-0.3-1.2-0.3-1.9c0-0.7,0.1-1.3,0.3-1.8c0.2-0.6,0.5-1.1,0.8-1.5c0.4-0.4,0.8-0.7,1.3-1
		c0.5-0.2,1.1-0.4,1.8-0.4c0.5,0,0.9,0.1,1.3,0.3c0.4,0.2,0.7,0.4,1,0.7v-0.7h2.6v9.8c0,0.6-0.1,1.1-0.3,1.6
		c-0.2,0.4-0.5,0.8-0.9,1.1c-0.4,0.3-0.9,0.5-1.4,0.6c-0.5,0.1-1.1,0.2-1.7,0.2c-0.7,0-1.5-0.1-2.3-0.3c-0.8-0.2-1.5-0.4-2-0.6
		l0.7-2.1c0.2,0.1,0.4,0.2,0.6,0.2c0.3,0.1,0.5,0.2,0.8,0.2c0.3,0.1,0.6,0.1,0.9,0.2c0.3,0,0.6,0.1,0.9,0.1c0.3,0,0.5,0,0.8-0.1
		c0.2,0,0.5-0.1,0.6-0.3c0.2-0.1,0.3-0.3,0.5-0.5c0.1-0.2,0.2-0.4,0.2-0.7V95.2z M266.5,91.5c0,0.3,0,0.6,0.1,0.9
		c0.1,0.3,0.2,0.5,0.3,0.7c0.2,0.2,0.4,0.4,0.6,0.5c0.2,0.1,0.5,0.2,0.9,0.2c0.7,0,1.2-0.2,1.5-0.7c0.3-0.4,0.4-1,0.4-1.6v-0.1
		c0-0.3,0-0.6-0.1-0.9c-0.1-0.3-0.2-0.5-0.3-0.7c-0.2-0.2-0.4-0.4-0.6-0.5c-0.2-0.1-0.5-0.2-0.9-0.2c-0.7,0-1.2,0.2-1.5,0.7
		C266.6,90.3,266.5,90.8,266.5,91.5L266.5,91.5z M278.6,87.1h2.6v0.9c0.1-0.1,0.3-0.3,0.5-0.4c0.2-0.1,0.4-0.2,0.6-0.3
		c0.2-0.1,0.4-0.2,0.7-0.2c0.3-0.1,0.5-0.1,0.8-0.1c0.5,0,1,0.1,1.4,0.3c0.4,0.2,0.8,0.4,1.1,0.7c0.3,0.3,0.5,0.7,0.7,1.1
		c0.2,0.4,0.2,0.9,0.2,1.3V97h-2.6v-5.8c0-0.4,0-0.6-0.1-0.9c-0.1-0.2-0.2-0.4-0.3-0.6c-0.1-0.2-0.3-0.3-0.5-0.3
		c-0.2-0.1-0.4-0.1-0.6-0.1c-0.3,0-0.5,0-0.7,0.1c-0.2,0.1-0.4,0.2-0.6,0.4c-0.2,0.2-0.3,0.4-0.4,0.7c-0.1,0.3-0.1,0.6-0.1,1V97
		h-2.6V87.1z M292.4,93c-0.3,0-0.6,0.2-0.8,0.3c-0.2,0.2-0.3,0.4-0.3,0.7c0,0.3,0.1,0.6,0.4,0.8c0.2,0.2,0.6,0.3,1,0.3
		c0.5,0,0.9-0.1,1.1-0.4c0.3-0.3,0.4-0.6,0.4-1.1v-1L292.4,93z M294.8,96.1c-0.1,0.1-0.2,0.2-0.4,0.4c-0.1,0.1-0.3,0.3-0.5,0.4
		c-0.2,0.1-0.4,0.2-0.7,0.3c-0.3,0.1-0.6,0.1-0.9,0.1c-0.5,0-1-0.1-1.4-0.2c-0.4-0.2-0.8-0.4-1.1-0.7s-0.6-0.6-0.7-1
		c-0.2-0.4-0.3-0.8-0.3-1.2c0-0.8,0.2-1.5,0.7-2c0.5-0.5,1.2-0.8,2-1l2.9-0.4v-0.2c0-0.4-0.1-0.8-0.4-1.1c-0.3-0.3-0.7-0.4-1.3-0.4
		c-0.3,0-0.5,0-0.8,0.1c-0.3,0.1-0.5,0.1-0.8,0.2c-0.2,0.1-0.5,0.2-0.7,0.3c-0.2,0.1-0.4,0.2-0.5,0.3l-1-2c0.6-0.3,1.2-0.6,1.9-0.8
		c0.7-0.2,1.4-0.3,2.2-0.3c0.5,0,0.9,0,1.4,0.1c0.5,0.1,0.9,0.3,1.3,0.5c0.4,0.3,0.7,0.6,0.9,1c0.2,0.4,0.4,1,0.4,1.7v4.1
		c0,0.3,0.1,0.5,0.2,0.6c0.2,0.1,0.4,0.3,0.6,0.4l-1.2,1.8c-0.5,0-0.8-0.2-1.1-0.4C295.2,96.6,294.9,96.4,294.8,96.1z M307.4,97
		h-2.6v-5.8c0-0.4,0-0.6-0.1-0.9c-0.1-0.2-0.2-0.4-0.3-0.6c-0.1-0.2-0.3-0.3-0.5-0.3c-0.2-0.1-0.4-0.1-0.6-0.1c-0.2,0-0.5,0-0.7,0.1
		c-0.2,0.1-0.4,0.2-0.6,0.4c-0.2,0.2-0.3,0.4-0.4,0.7c-0.1,0.3-0.1,0.6-0.1,1V97H299v-9.9h2.6v0.9c0.3-0.4,0.7-0.6,1.1-0.8
		c0.4-0.2,0.9-0.3,1.4-0.3c0.5,0,1,0.1,1.4,0.3c0.5,0.2,0.8,0.6,1.1,1c0.2-0.2,0.4-0.5,0.6-0.6c0.2-0.2,0.5-0.3,0.7-0.4
		c0.3-0.1,0.5-0.2,0.8-0.2c0.3,0,0.6-0.1,0.9-0.1c0.6,0,1.1,0.1,1.5,0.3c0.4,0.2,0.8,0.4,1.1,0.7c0.3,0.3,0.5,0.7,0.7,1.1
		c0.2,0.4,0.2,0.8,0.2,1.3V97h-2.6v-5.8c0-0.4,0-0.6-0.1-0.9c-0.1-0.2-0.2-0.4-0.3-0.6c-0.1-0.2-0.3-0.3-0.5-0.3
		c-0.2-0.1-0.4-0.1-0.6-0.1c-0.2,0-0.5,0-0.7,0.1c-0.2,0.1-0.4,0.2-0.6,0.4c-0.2,0.2-0.3,0.4-0.4,0.7c-0.1,0.3-0.1,0.6-0.1,1V97z
		 M317.5,92.9c0,0.3,0.1,0.6,0.3,0.8c0.1,0.2,0.3,0.5,0.6,0.6c0.2,0.2,0.5,0.3,0.8,0.4c0.3,0.1,0.6,0.1,0.9,0.1
		c0.4,0,0.8-0.1,1.2-0.2c0.4-0.1,0.8-0.4,1.2-0.6l1.2,1.8c-0.5,0.4-1,0.7-1.7,0.9c-0.7,0.2-1.4,0.4-2.2,0.4c-0.7,0-1.3-0.1-1.9-0.4
		c-0.6-0.2-1.1-0.6-1.6-1c-0.5-0.4-0.8-1-1.1-1.6c-0.3-0.6-0.4-1.4-0.4-2.2c0-0.7,0.1-1.4,0.3-2c0.2-0.6,0.6-1.2,1-1.6
		c0.4-0.5,0.9-0.8,1.5-1.1c0.6-0.3,1.2-0.4,1.9-0.4c0.7,0,1.3,0.1,1.8,0.4c0.6,0.2,1.1,0.6,1.5,1c0.4,0.4,0.7,0.9,1,1.5
		c0.2,0.6,0.4,1.3,0.4,2v1.2H317.5z M319.6,89.1c-0.5,0-1,0.2-1.4,0.6c-0.4,0.4-0.6,0.8-0.7,1.3h4c0-0.5-0.2-1-0.6-1.3
		C320.6,89.3,320.2,89.1,319.6,89.1z M332.6,94c0,0.1,0,0.2,0,0.3c0,0.1,0.1,0.2,0.2,0.3c0.1,0.1,0.2,0.1,0.3,0.2
		c0.1,0,0.3,0.1,0.5,0.1c0.1,0,0.2,0,0.3,0c0.1,0,0.2,0,0.4,0c0.1,0,0.2,0,0.3,0c0.1,0,0.2,0,0.3,0l0.2,2.3c-0.2,0-0.5,0.1-0.8,0.1
		c-0.2,0-0.5,0-0.7,0.1c-0.3,0-0.5,0-0.8,0c-0.9,0-1.6-0.2-2.1-0.6c-0.5-0.4-0.7-1-0.7-1.9v-5.4h-1.8v-2.2h1.8v-2.8l2.6-0.7v3.5h2.6
		v2.2h-2.6V94z M336.8,83.7h2.6v4.2c0.1-0.1,0.3-0.3,0.5-0.4c0.2-0.1,0.4-0.2,0.6-0.3c0.2-0.1,0.4-0.2,0.7-0.2
		c0.3-0.1,0.5-0.1,0.8-0.1c0.5,0,1,0.1,1.4,0.3c0.4,0.2,0.8,0.4,1.1,0.7c0.3,0.3,0.5,0.7,0.7,1.1c0.2,0.4,0.2,0.9,0.2,1.3V97h-2.6
		v-5.8c0-0.4,0-0.6-0.1-0.9c-0.1-0.2-0.2-0.4-0.3-0.6c-0.1-0.2-0.3-0.3-0.5-0.3c-0.2-0.1-0.4-0.1-0.6-0.1c-0.3,0-0.5,0-0.7,0.1
		c-0.2,0.1-0.4,0.2-0.6,0.4c-0.2,0.2-0.3,0.4-0.4,0.7c-0.1,0.3-0.1,0.6-0.1,1V97h-2.6V83.7z M350.7,93c-0.3,0-0.6,0.2-0.8,0.3
		c-0.2,0.2-0.3,0.4-0.3,0.7c0,0.3,0.1,0.6,0.4,0.8c0.2,0.2,0.6,0.3,1,0.3c0.5,0,0.9-0.1,1.1-0.4c0.3-0.3,0.4-0.6,0.4-1.1v-1
		L350.7,93z M353,96.1c-0.1,0.1-0.2,0.2-0.4,0.4c-0.1,0.1-0.3,0.3-0.5,0.4c-0.2,0.1-0.4,0.2-0.7,0.3c-0.3,0.1-0.6,0.1-0.9,0.1
		c-0.5,0-1-0.1-1.4-0.2c-0.4-0.2-0.8-0.4-1.1-0.7c-0.3-0.3-0.6-0.6-0.7-1c-0.2-0.4-0.3-0.8-0.3-1.2c0-0.8,0.2-1.5,0.7-2
		c0.5-0.5,1.2-0.8,2.1-1l2.9-0.4v-0.2c0-0.4-0.1-0.8-0.4-1.1c-0.3-0.3-0.7-0.4-1.3-0.4c-0.3,0-0.5,0-0.8,0.1
		c-0.3,0.1-0.5,0.1-0.8,0.2c-0.2,0.1-0.5,0.2-0.7,0.3c-0.2,0.1-0.4,0.2-0.5,0.3l-1-2c0.6-0.3,1.2-0.6,1.9-0.8
		c0.7-0.2,1.4-0.3,2.2-0.3c0.5,0,0.9,0,1.4,0.1c0.5,0.1,0.9,0.3,1.3,0.5c0.4,0.3,0.7,0.6,0.9,1c0.2,0.4,0.4,1,0.4,1.7v4.1
		c0,0.3,0.1,0.5,0.2,0.6c0.2,0.1,0.4,0.3,0.6,0.4l-1.2,1.8c-0.5,0-0.8-0.2-1.1-0.4C353.4,96.6,353.2,96.4,353,96.1z M360.6,94
		c0,0.1,0,0.2,0,0.3c0,0.1,0.1,0.2,0.2,0.3c0.1,0.1,0.2,0.1,0.3,0.2c0.1,0,0.3,0.1,0.5,0.1c0.1,0,0.2,0,0.3,0c0.1,0,0.2,0,0.4,0
		c0.1,0,0.2,0,0.3,0c0.1,0,0.2,0,0.3,0l0.2,2.3c-0.2,0-0.5,0.1-0.8,0.1c-0.2,0-0.5,0-0.7,0.1c-0.3,0-0.5,0-0.8,0
		c-0.9,0-1.6-0.2-2.1-0.6c-0.5-0.4-0.7-1-0.7-1.9v-5.4h-1.8v-2.2h1.8v-2.8l2.6-0.7v3.5h2.6v2.2h-2.6V94z M368.9,93.8
		c0.4,0.3,0.8,0.6,1.3,0.8c0.5,0.2,1,0.4,1.5,0.4c0.4,0,0.7-0.1,0.9-0.2c0.2-0.1,0.3-0.3,0.3-0.6c0-0.4-0.4-0.7-1.3-0.9l-0.7-0.2
		c-0.4-0.1-0.7-0.2-1.1-0.4c-0.4-0.2-0.7-0.4-1-0.6c-0.3-0.2-0.5-0.5-0.7-0.9c-0.2-0.4-0.3-0.8-0.3-1.3c0-0.4,0.1-0.8,0.3-1.2
		c0.2-0.4,0.4-0.7,0.8-1c0.3-0.3,0.8-0.5,1.2-0.7c0.5-0.2,1-0.3,1.6-0.3c0.8,0,1.6,0.1,2.3,0.4c0.7,0.3,1.2,0.6,1.6,0.9l-1.3,1.7
		c-0.3-0.2-0.7-0.4-1.1-0.6c-0.4-0.2-0.9-0.3-1.3-0.3c-0.4,0-0.7,0.1-0.9,0.2c-0.2,0.1-0.3,0.3-0.3,0.5c0,0.2,0.1,0.4,0.3,0.5
		c0.2,0.1,0.5,0.2,0.9,0.3l1.1,0.3c1,0.3,1.8,0.7,2.2,1.2c0.4,0.5,0.7,1.1,0.7,1.9c0,0.4-0.1,0.8-0.3,1.2c-0.2,0.4-0.4,0.7-0.8,1
		c-0.3,0.3-0.7,0.5-1.2,0.7c-0.5,0.2-1.1,0.3-1.7,0.3c-0.5,0-0.9,0-1.4-0.1c-0.4-0.1-0.8-0.2-1.2-0.4c-0.4-0.2-0.7-0.3-1-0.5
		c-0.3-0.2-0.5-0.4-0.7-0.6L368.9,93.8z M381,94c0,0.1,0,0.2,0,0.3c0,0.1,0.1,0.2,0.2,0.3c0.1,0.1,0.2,0.1,0.3,0.2
		c0.1,0,0.3,0.1,0.5,0.1c0.1,0,0.2,0,0.3,0c0.1,0,0.2,0,0.4,0c0.1,0,0.2,0,0.3,0c0.1,0,0.2,0,0.3,0l0.2,2.3c-0.2,0-0.5,0.1-0.8,0.1
		c-0.2,0-0.5,0-0.7,0.1c-0.3,0-0.5,0-0.8,0c-0.9,0-1.6-0.2-2.1-0.6c-0.5-0.4-0.7-1-0.7-1.9v-5.4h-1.8v-2.2h1.8v-2.8l2.6-0.7v3.5h2.6
		v2.2H381V94z M390.8,89.6h-0.3c-0.4,0-0.7,0-1,0.1c-0.3,0.1-0.6,0.2-0.9,0.4c-0.3,0.2-0.5,0.5-0.6,0.8c-0.1,0.3-0.2,0.8-0.2,1.3V97
		h-2.6v-9.9h2.6v1.1c0.1-0.2,0.2-0.3,0.4-0.5c0.2-0.2,0.4-0.3,0.6-0.4c0.2-0.1,0.5-0.2,0.8-0.3c0.3-0.1,0.6-0.1,0.9-0.1h0.4V89.6z
		 M394.6,92.9c0,0.3,0.1,0.6,0.3,0.8c0.1,0.2,0.3,0.5,0.6,0.6c0.2,0.2,0.5,0.3,0.8,0.4c0.3,0.1,0.6,0.1,0.9,0.1
		c0.4,0,0.8-0.1,1.2-0.2c0.4-0.1,0.8-0.4,1.2-0.6l1.2,1.8c-0.5,0.4-1,0.7-1.7,0.9c-0.7,0.2-1.4,0.4-2.2,0.4c-0.7,0-1.3-0.1-1.9-0.4
		c-0.6-0.2-1.1-0.6-1.6-1c-0.5-0.4-0.8-1-1.1-1.6c-0.3-0.6-0.4-1.4-0.4-2.2c0-0.7,0.1-1.4,0.3-2c0.2-0.6,0.6-1.2,1-1.6
		c0.4-0.5,0.9-0.8,1.5-1.1c0.6-0.3,1.2-0.4,1.9-0.4c0.7,0,1.3,0.1,1.8,0.4c0.6,0.2,1.1,0.6,1.5,1c0.4,0.4,0.7,0.9,1,1.5
		c0.2,0.6,0.4,1.3,0.4,2v1.2H394.6z M396.7,89.1c-0.5,0-1,0.2-1.4,0.6c-0.4,0.4-0.6,0.8-0.7,1.3h4c0-0.5-0.2-1-0.6-1.3
		C397.7,89.3,397.2,89.1,396.7,89.1z M406.6,94c0,0.1,0,0.2,0,0.3c0,0.1,0.1,0.2,0.2,0.3c0.1,0.1,0.2,0.1,0.3,0.2
		c0.1,0,0.3,0.1,0.5,0.1c0.1,0,0.2,0,0.3,0c0.1,0,0.2,0,0.4,0c0.1,0,0.2,0,0.3,0c0.1,0,0.2,0,0.3,0l0.2,2.3c-0.2,0-0.5,0.1-0.8,0.1
		c-0.2,0-0.5,0-0.7,0.1c-0.3,0-0.5,0-0.8,0c-0.9,0-1.6-0.2-2.1-0.6c-0.5-0.4-0.7-1-0.7-1.9v-5.4h-1.8v-2.2h1.8v-2.8l2.6-0.7v3.5h2.6
		v2.2h-2.6V94z M412.9,92.1c0,0.3,0,0.6,0.1,1c0.1,0.3,0.2,0.6,0.4,0.9c0.2,0.3,0.4,0.5,0.7,0.6c0.3,0.2,0.6,0.2,1,0.2
		c0.3,0,0.5,0,0.7-0.1c0.2-0.1,0.4-0.2,0.6-0.3c0.2-0.1,0.3-0.3,0.4-0.4c0.1-0.2,0.2-0.3,0.3-0.5l2.2,1.2c-0.2,0.4-0.4,0.7-0.7,1.1
		c-0.3,0.3-0.6,0.6-1,0.8c-0.4,0.2-0.8,0.4-1.2,0.5c-0.5,0.1-0.9,0.2-1.4,0.2c-0.7,0-1.3-0.1-1.9-0.4c-0.6-0.3-1.1-0.6-1.5-1.1
		c-0.4-0.5-0.8-1-1-1.6c-0.2-0.6-0.4-1.3-0.4-2.1c0-0.7,0.1-1.4,0.4-2c0.2-0.6,0.6-1.2,1-1.6c0.4-0.5,0.9-0.8,1.5-1.1
		c0.6-0.3,1.2-0.4,1.9-0.4c0.5,0,1,0.1,1.4,0.2c0.5,0.1,0.9,0.3,1.2,0.5c0.4,0.2,0.7,0.5,1,0.8c0.3,0.3,0.5,0.7,0.7,1.1l-2.2,1.2
		c-0.1-0.2-0.2-0.4-0.3-0.5c-0.1-0.2-0.3-0.3-0.4-0.4c-0.2-0.1-0.3-0.2-0.6-0.3c-0.2-0.1-0.4-0.1-0.7-0.1c-0.4,0-0.7,0.1-1,0.3
		c-0.3,0.2-0.5,0.4-0.7,0.6c-0.2,0.3-0.3,0.6-0.4,0.9C413,91.3,412.9,91.7,412.9,92.1L412.9,92.1z M421,83.7h2.6v4.2
		c0.1-0.1,0.3-0.3,0.5-0.4c0.2-0.1,0.4-0.2,0.6-0.3c0.2-0.1,0.4-0.2,0.7-0.2c0.3-0.1,0.5-0.1,0.8-0.1c0.5,0,1,0.1,1.4,0.3
		c0.4,0.2,0.8,0.4,1.1,0.7c0.3,0.3,0.5,0.7,0.7,1.1c0.2,0.4,0.2,0.9,0.2,1.3V97H427v-5.8c0-0.4,0-0.6-0.1-0.9
		c-0.1-0.2-0.2-0.4-0.3-0.6c-0.1-0.2-0.3-0.3-0.5-0.3c-0.2-0.1-0.4-0.1-0.6-0.1c-0.3,0-0.5,0-0.7,0.1c-0.2,0.1-0.4,0.2-0.6,0.4
		c-0.2,0.2-0.3,0.4-0.4,0.7c-0.1,0.3-0.1,0.6-0.1,1V97H421V83.7z M433.8,92.9c0,0.3,0.1,0.6,0.3,0.8c0.1,0.2,0.3,0.5,0.6,0.6
		c0.2,0.2,0.5,0.3,0.8,0.4c0.3,0.1,0.6,0.1,0.9,0.1c0.4,0,0.8-0.1,1.2-0.2c0.4-0.1,0.8-0.4,1.2-0.6l1.2,1.8c-0.5,0.4-1,0.7-1.7,0.9
		c-0.7,0.2-1.4,0.4-2.2,0.4c-0.7,0-1.3-0.1-1.9-0.4c-0.6-0.2-1.1-0.6-1.6-1c-0.5-0.4-0.8-1-1.1-1.6c-0.3-0.6-0.4-1.4-0.4-2.2
		c0-0.7,0.1-1.4,0.3-2c0.2-0.6,0.6-1.2,1-1.6c0.4-0.5,0.9-0.8,1.5-1.1c0.6-0.3,1.2-0.4,1.9-0.4c0.7,0,1.3,0.1,1.8,0.4
		c0.6,0.2,1.1,0.6,1.5,1c0.4,0.4,0.7,0.9,1,1.5c0.2,0.6,0.4,1.3,0.4,2v1.2H433.8z M435.9,89.1c-0.6,0-1,0.2-1.4,0.6
		c-0.4,0.4-0.6,0.8-0.7,1.3h4c0-0.5-0.2-1-0.6-1.3C436.9,89.3,436.4,89.1,435.9,89.1z M442.8,93.8c0.4,0.3,0.8,0.6,1.3,0.8
		s1,0.4,1.5,0.4c0.4,0,0.7-0.1,0.9-0.2c0.2-0.1,0.3-0.3,0.3-0.6c0-0.4-0.4-0.7-1.3-0.9l-0.7-0.2c-0.4-0.1-0.7-0.2-1.1-0.4
		c-0.4-0.2-0.7-0.4-1-0.6c-0.3-0.2-0.6-0.5-0.7-0.9c-0.2-0.4-0.3-0.8-0.3-1.3c0-0.4,0.1-0.8,0.3-1.2c0.2-0.4,0.4-0.7,0.8-1
		c0.3-0.3,0.8-0.5,1.2-0.7c0.5-0.2,1-0.3,1.6-0.3c0.8,0,1.6,0.1,2.3,0.4c0.7,0.3,1.2,0.6,1.6,0.9l-1.3,1.7c-0.3-0.2-0.7-0.4-1.1-0.6
		c-0.4-0.2-0.9-0.3-1.3-0.3c-0.4,0-0.7,0.1-0.9,0.2c-0.2,0.1-0.3,0.3-0.3,0.5c0,0.2,0.1,0.4,0.3,0.5c0.2,0.1,0.5,0.2,0.9,0.3
		l1.1,0.3c1,0.3,1.8,0.7,2.2,1.2c0.4,0.5,0.7,1.1,0.7,1.9c0,0.4-0.1,0.8-0.3,1.2c-0.2,0.4-0.4,0.7-0.8,1c-0.3,0.3-0.7,0.5-1.2,0.7
		c-0.5,0.2-1.1,0.3-1.7,0.3c-0.5,0-0.9,0-1.4-0.1c-0.4-0.1-0.8-0.2-1.2-0.4c-0.4-0.2-0.7-0.3-1-0.5c-0.3-0.2-0.5-0.4-0.7-0.6
		L442.8,93.8z M461.1,96.1c-0.1,0.1-0.3,0.3-0.5,0.4c-0.2,0.1-0.3,0.2-0.5,0.3c-0.2,0.1-0.4,0.2-0.7,0.2c-0.2,0.1-0.5,0.1-0.8,0.1
		c-0.7,0-1.3-0.1-1.8-0.4c-0.5-0.3-1-0.6-1.4-1.1c-0.4-0.5-0.7-1-0.9-1.6c-0.2-0.6-0.3-1.3-0.3-2.1s0.1-1.4,0.3-2.1
		c0.2-0.6,0.5-1.2,0.9-1.6c0.4-0.5,0.8-0.8,1.4-1.1c0.5-0.3,1.1-0.4,1.8-0.4c0.6,0,1.1,0.1,1.5,0.3c0.4,0.2,0.8,0.4,1,0.7v-0.9h2.6
		v13.1h-2.6V96.1z M461.2,91.1c0-0.3,0-0.5-0.1-0.7c-0.1-0.2-0.2-0.4-0.4-0.6c-0.2-0.2-0.4-0.3-0.6-0.4c-0.2-0.1-0.5-0.1-0.8-0.1
		c-0.4,0-0.7,0.1-1,0.2c-0.3,0.1-0.5,0.3-0.7,0.6c-0.2,0.2-0.3,0.5-0.4,0.9s-0.1,0.7-0.1,1.1v0.1c0,0.4,0.1,0.8,0.1,1.1
		c0.1,0.3,0.2,0.6,0.4,0.9c0.2,0.2,0.4,0.4,0.7,0.6c0.3,0.1,0.6,0.2,1,0.2c0.3,0,0.6,0,0.8-0.1c0.3-0.1,0.5-0.2,0.6-0.4
		c0.2-0.2,0.3-0.4,0.4-0.6c0.1-0.2,0.1-0.5,0.1-0.7V91.1z M474.3,97h-2.6v-0.9c-0.1,0.1-0.3,0.3-0.5,0.4c-0.2,0.1-0.4,0.2-0.6,0.3
		c-0.2,0.1-0.4,0.2-0.7,0.2c-0.2,0.1-0.5,0.1-0.8,0.1c-0.5,0-1-0.1-1.4-0.3c-0.4-0.2-0.8-0.4-1.1-0.7c-0.3-0.3-0.5-0.7-0.7-1.1
		c-0.2-0.4-0.2-0.9-0.2-1.3v-6.7h2.6v5.8c0,0.4,0,0.7,0.1,0.9c0.1,0.2,0.2,0.4,0.3,0.6c0.1,0.1,0.3,0.3,0.5,0.3
		c0.2,0.1,0.4,0.1,0.6,0.1c0.3,0,0.5,0,0.7-0.1c0.2-0.1,0.4-0.2,0.6-0.4c0.2-0.2,0.3-0.4,0.4-0.7c0.1-0.3,0.1-0.6,0.1-1v-5.4h2.6V97
		z M479.1,97h-2.6v-9.9h2.6V97z M476.3,84.5c0-0.2,0-0.4,0.1-0.6c0.1-0.2,0.2-0.4,0.3-0.5c0.1-0.1,0.3-0.3,0.5-0.3
		c0.2-0.1,0.4-0.1,0.6-0.1c0.2,0,0.4,0,0.6,0.1c0.2,0.1,0.4,0.2,0.5,0.3c0.1,0.1,0.3,0.3,0.3,0.5c0.1,0.2,0.1,0.4,0.1,0.6
		c0,0.2,0,0.4-0.1,0.6c-0.1,0.2-0.2,0.3-0.3,0.5c-0.1,0.1-0.3,0.2-0.5,0.3c-0.2,0.1-0.4,0.1-0.6,0.1c-0.2,0-0.4,0-0.6-0.1
		c-0.2-0.1-0.3-0.2-0.5-0.3c-0.1-0.1-0.2-0.3-0.3-0.5C476.3,84.9,476.3,84.7,476.3,84.5z M485,94c0,0.1,0,0.2,0,0.3
		c0,0.1,0.1,0.2,0.2,0.3c0.1,0.1,0.2,0.1,0.3,0.2c0.1,0,0.3,0.1,0.5,0.1c0.1,0,0.2,0,0.3,0c0.1,0,0.2,0,0.4,0c0.1,0,0.2,0,0.3,0
		c0.1,0,0.2,0,0.3,0l0.2,2.3c-0.2,0-0.5,0.1-0.8,0.1c-0.2,0-0.5,0-0.7,0.1c-0.3,0-0.5,0-0.8,0c-0.9,0-1.6-0.2-2.1-0.6
		c-0.5-0.4-0.7-1-0.7-1.9v-5.4h-1.8v-2.2h1.8v-2.8l2.6-0.7v3.5h2.6v2.2H485V94z M491.3,92.9c0,0.3,0.1,0.6,0.3,0.8
		c0.1,0.2,0.3,0.5,0.6,0.6c0.2,0.2,0.5,0.3,0.8,0.4c0.3,0.1,0.6,0.1,0.9,0.1c0.4,0,0.8-0.1,1.2-0.2c0.4-0.1,0.8-0.4,1.2-0.6l1.2,1.8
		c-0.5,0.4-1,0.7-1.7,0.9c-0.7,0.2-1.4,0.4-2.2,0.4c-0.7,0-1.3-0.1-1.9-0.4c-0.6-0.2-1.1-0.6-1.6-1c-0.5-0.4-0.8-1-1.1-1.6
		c-0.3-0.6-0.4-1.4-0.4-2.2c0-0.7,0.1-1.4,0.3-2c0.2-0.6,0.6-1.2,1-1.6c0.4-0.5,0.9-0.8,1.5-1.1c0.6-0.3,1.2-0.4,1.9-0.4
		c0.7,0,1.3,0.1,1.8,0.4c0.6,0.2,1.1,0.6,1.5,1c0.4,0.4,0.7,0.9,1,1.5c0.2,0.6,0.4,1.3,0.4,2v1.2H491.3z M493.4,89.1
		c-0.5,0-1,0.2-1.4,0.6c-0.4,0.4-0.6,0.8-0.7,1.3h4c0-0.5-0.2-1-0.6-1.3C494.4,89.3,494,89.1,493.4,89.1z M506.5,87.1h1.9v2.2h-1.9
		V97H504v-7.7h-1.6v-2.2h1.6v-1.2c0-0.4,0.1-0.8,0.2-1.1c0.1-0.3,0.4-0.6,0.6-0.8c0.3-0.2,0.6-0.4,0.9-0.5c0.4-0.1,0.8-0.2,1.2-0.2
		c0.2,0,0.4,0,0.6,0c0.2,0,0.4,0,0.6,0c0.2,0,0.3,0,0.5,0c0.1,0,0.2,0,0.3,0l-0.2,2.2c-0.1,0-0.2,0-0.3,0c-0.1,0-0.2,0-0.3,0
		c-0.1,0-0.2,0-0.3,0c-0.1,0-0.2,0-0.3,0c-0.4,0-0.6,0.1-0.8,0.2c-0.2,0.1-0.2,0.3-0.2,0.5V87.1z M513.1,93c-0.3,0-0.6,0.2-0.8,0.3
		c-0.2,0.2-0.3,0.4-0.3,0.7c0,0.3,0.1,0.6,0.4,0.8c0.2,0.2,0.6,0.3,1,0.3c0.5,0,0.9-0.1,1.1-0.4c0.3-0.3,0.4-0.6,0.4-1.1v-1
		L513.1,93z M515.5,96.1c-0.1,0.1-0.2,0.2-0.4,0.4c-0.1,0.1-0.3,0.3-0.5,0.4c-0.2,0.1-0.4,0.2-0.7,0.3c-0.3,0.1-0.6,0.1-0.9,0.1
		c-0.5,0-1-0.1-1.4-0.2c-0.4-0.2-0.8-0.4-1.1-0.7c-0.3-0.3-0.6-0.6-0.7-1c-0.2-0.4-0.3-0.8-0.3-1.2c0-0.8,0.2-1.5,0.7-2
		c0.5-0.5,1.2-0.8,2.1-1l2.9-0.4v-0.2c0-0.4-0.1-0.8-0.4-1.1c-0.3-0.3-0.7-0.4-1.3-0.4c-0.3,0-0.5,0-0.8,0.1
		c-0.3,0.1-0.5,0.1-0.8,0.2c-0.2,0.1-0.5,0.2-0.7,0.3c-0.2,0.1-0.4,0.2-0.5,0.3l-1-2c0.6-0.3,1.2-0.6,1.9-0.8
		c0.7-0.2,1.4-0.3,2.2-0.3c0.5,0,0.9,0,1.4,0.1c0.5,0.1,0.9,0.3,1.3,0.5c0.4,0.3,0.7,0.6,0.9,1c0.2,0.4,0.4,1,0.4,1.7v4.1
		c0,0.3,0.1,0.5,0.2,0.6c0.2,0.1,0.4,0.3,0.6,0.4l-1.2,1.8c-0.5,0-0.8-0.2-1.1-0.4C515.9,96.6,515.6,96.4,515.5,96.1z M525.3,89.6
		h-0.3c-0.4,0-0.7,0-1,0.1c-0.3,0.1-0.6,0.2-0.9,0.4c-0.3,0.2-0.5,0.5-0.6,0.8c-0.1,0.3-0.2,0.8-0.2,1.3V97h-2.6v-9.9h2.6v1.1
		c0.1-0.2,0.2-0.3,0.4-0.5c0.2-0.2,0.4-0.3,0.6-0.4c0.2-0.1,0.5-0.2,0.8-0.3c0.3-0.1,0.6-0.1,0.9-0.1h0.4V89.6z M533.2,93
		c-0.3,0-0.6,0.2-0.8,0.3c-0.2,0.2-0.3,0.4-0.3,0.7c0,0.3,0.1,0.6,0.4,0.8c0.2,0.2,0.6,0.3,1,0.3c0.5,0,0.9-0.1,1.1-0.4
		c0.3-0.3,0.4-0.6,0.4-1.1v-1L533.2,93z M535.5,96.1c-0.1,0.1-0.2,0.2-0.4,0.4c-0.1,0.1-0.3,0.3-0.5,0.4c-0.2,0.1-0.4,0.2-0.7,0.3
		c-0.3,0.1-0.6,0.1-0.9,0.1c-0.5,0-1-0.1-1.4-0.2c-0.4-0.2-0.8-0.4-1.1-0.7s-0.6-0.6-0.7-1c-0.2-0.4-0.3-0.8-0.3-1.2
		c0-0.8,0.2-1.5,0.7-2c0.5-0.5,1.2-0.8,2.1-1l2.9-0.4v-0.2c0-0.4-0.1-0.8-0.4-1.1c-0.3-0.3-0.7-0.4-1.3-0.4c-0.3,0-0.5,0-0.8,0.1
		c-0.3,0.1-0.5,0.1-0.8,0.2c-0.2,0.1-0.5,0.2-0.7,0.3c-0.2,0.1-0.4,0.2-0.5,0.3l-1-2c0.6-0.3,1.2-0.6,1.9-0.8
		c0.7-0.2,1.4-0.3,2.2-0.3c0.5,0,0.9,0,1.4,0.1c0.5,0.1,0.9,0.3,1.3,0.5c0.4,0.3,0.7,0.6,0.9,1c0.2,0.4,0.4,1,0.4,1.7v4.1
		c0,0.3,0.1,0.5,0.2,0.6c0.2,0.1,0.4,0.3,0.6,0.4l-1.2,1.8c-0.5,0-0.8-0.2-1.1-0.4C535.9,96.6,535.7,96.4,535.5,96.1z M541.9,92.1
		c0,0.3,0,0.6,0.1,1c0.1,0.3,0.2,0.6,0.4,0.9c0.2,0.3,0.4,0.5,0.7,0.6c0.3,0.2,0.6,0.2,1,0.2c0.3,0,0.5,0,0.7-0.1
		c0.2-0.1,0.4-0.2,0.6-0.3c0.2-0.1,0.3-0.3,0.4-0.4c0.1-0.2,0.2-0.3,0.3-0.5l2.2,1.2c-0.2,0.4-0.4,0.7-0.7,1.1
		c-0.3,0.3-0.6,0.6-1,0.8c-0.4,0.2-0.8,0.4-1.2,0.5c-0.5,0.1-0.9,0.2-1.4,0.2c-0.7,0-1.3-0.1-1.9-0.4c-0.6-0.3-1.1-0.6-1.5-1.1
		c-0.4-0.5-0.8-1-1-1.6c-0.2-0.6-0.4-1.3-0.4-2.1c0-0.7,0.1-1.4,0.4-2c0.2-0.6,0.6-1.2,1-1.6c0.4-0.5,0.9-0.8,1.5-1.1
		c0.6-0.3,1.2-0.4,1.9-0.4c0.5,0,1,0.1,1.4,0.2c0.5,0.1,0.9,0.3,1.2,0.5c0.4,0.2,0.7,0.5,1,0.8c0.3,0.3,0.5,0.7,0.7,1.1l-2.2,1.2
		c-0.1-0.2-0.2-0.4-0.3-0.5c-0.1-0.2-0.3-0.3-0.4-0.4c-0.2-0.1-0.3-0.2-0.6-0.3c-0.2-0.1-0.4-0.1-0.7-0.1c-0.4,0-0.7,0.1-1,0.3
		c-0.3,0.2-0.5,0.4-0.7,0.6c-0.2,0.3-0.3,0.6-0.4,0.9C541.9,91.3,541.9,91.7,541.9,92.1L541.9,92.1z M555.5,89.6h-0.3
		c-0.4,0-0.7,0-1,0.1c-0.3,0.1-0.6,0.2-0.9,0.4c-0.3,0.2-0.5,0.5-0.6,0.8c-0.1,0.3-0.2,0.8-0.2,1.3V97h-2.6v-9.9h2.6v1.1
		c0.1-0.2,0.2-0.3,0.4-0.5s0.4-0.3,0.6-0.4c0.2-0.1,0.5-0.2,0.8-0.3c0.3-0.1,0.6-0.1,0.9-0.1h0.4V89.6z M561.5,86.9
		c0.7,0,1.4,0.1,2,0.4c0.6,0.3,1.1,0.6,1.5,1.1s0.8,1,1,1.6c0.2,0.6,0.4,1.3,0.4,2c0,0.7-0.1,1.4-0.4,2.1c-0.2,0.6-0.6,1.2-1,1.6
		c-0.4,0.5-0.9,0.8-1.5,1.1c-0.6,0.3-1.3,0.4-2,0.4c-0.7,0-1.4-0.1-2-0.4c-0.6-0.3-1.1-0.6-1.5-1.1c-0.4-0.5-0.8-1-1-1.6
		c-0.2-0.6-0.4-1.3-0.4-2.1c0-0.7,0.1-1.4,0.3-2c0.2-0.6,0.6-1.2,1-1.6s0.9-0.8,1.5-1.1C560.1,87,560.8,86.9,561.5,86.9z
		 M561.5,94.8c0.4,0,0.7-0.1,1-0.2c0.3-0.1,0.5-0.3,0.7-0.6c0.2-0.2,0.3-0.5,0.4-0.9c0.1-0.3,0.1-0.7,0.1-1.1V92
		c0-0.4,0-0.8-0.1-1.1c-0.1-0.3-0.2-0.6-0.4-0.9c-0.2-0.2-0.4-0.4-0.7-0.6c-0.3-0.1-0.6-0.2-1-0.2s-0.7,0.1-1,0.2
		c-0.3,0.1-0.5,0.3-0.7,0.6c-0.2,0.2-0.3,0.5-0.4,0.9c-0.1,0.3-0.1,0.7-0.1,1.1v0.1c0,0.4,0,0.8,0.1,1.1c0.1,0.3,0.2,0.6,0.4,0.9
		c0.2,0.2,0.4,0.4,0.7,0.6C560.8,94.7,561.1,94.8,561.5,94.8z M568.8,93.8c0.4,0.3,0.8,0.6,1.3,0.8s1,0.4,1.5,0.4
		c0.4,0,0.7-0.1,0.9-0.2c0.2-0.1,0.3-0.3,0.3-0.6c0-0.4-0.4-0.7-1.3-0.9l-0.7-0.2c-0.4-0.1-0.7-0.2-1.1-0.4c-0.4-0.2-0.7-0.4-1-0.6
		c-0.3-0.2-0.6-0.5-0.7-0.9c-0.2-0.4-0.3-0.8-0.3-1.3c0-0.4,0.1-0.8,0.3-1.2c0.2-0.4,0.4-0.7,0.8-1c0.3-0.3,0.8-0.5,1.2-0.7
		c0.5-0.2,1-0.3,1.6-0.3c0.8,0,1.6,0.1,2.3,0.4c0.7,0.3,1.2,0.6,1.6,0.9l-1.3,1.7c-0.3-0.2-0.7-0.4-1.1-0.6
		c-0.4-0.2-0.9-0.3-1.3-0.3c-0.4,0-0.7,0.1-0.9,0.2c-0.2,0.1-0.3,0.3-0.3,0.5c0,0.2,0.1,0.4,0.3,0.5c0.2,0.1,0.5,0.2,0.9,0.3
		l1.1,0.3c1,0.3,1.8,0.7,2.2,1.2c0.4,0.5,0.7,1.1,0.7,1.9c0,0.4-0.1,0.8-0.3,1.2c-0.2,0.4-0.4,0.7-0.8,1c-0.3,0.3-0.7,0.5-1.2,0.7
		c-0.5,0.2-1.1,0.3-1.7,0.3c-0.5,0-0.9,0-1.4-0.1c-0.4-0.1-0.8-0.2-1.2-0.4c-0.4-0.2-0.7-0.3-1-0.5c-0.3-0.2-0.5-0.4-0.7-0.6
		L568.8,93.8z M577.9,93.8c0.4,0.3,0.8,0.6,1.3,0.8c0.5,0.2,1,0.4,1.5,0.4c0.4,0,0.7-0.1,0.9-0.2c0.2-0.1,0.3-0.3,0.3-0.6
		c0-0.4-0.4-0.7-1.3-0.9l-0.7-0.2c-0.4-0.1-0.7-0.2-1.1-0.4c-0.4-0.2-0.7-0.4-1-0.6c-0.3-0.2-0.5-0.5-0.7-0.9
		c-0.2-0.4-0.3-0.8-0.3-1.3c0-0.4,0.1-0.8,0.3-1.2c0.2-0.4,0.4-0.7,0.8-1c0.3-0.3,0.8-0.5,1.2-0.7c0.5-0.2,1-0.3,1.6-0.3
		c0.8,0,1.6,0.1,2.3,0.4c0.7,0.3,1.2,0.6,1.6,0.9l-1.3,1.7c-0.3-0.2-0.7-0.4-1.1-0.6c-0.4-0.2-0.9-0.3-1.3-0.3
		c-0.4,0-0.7,0.1-0.9,0.2c-0.2,0.1-0.3,0.3-0.3,0.5c0,0.2,0.1,0.4,0.3,0.5c0.2,0.1,0.5,0.2,0.9,0.3l1.1,0.3c1,0.3,1.8,0.7,2.2,1.2
		c0.4,0.5,0.7,1.1,0.7,1.9c0,0.4-0.1,0.8-0.3,1.2c-0.2,0.4-0.4,0.7-0.8,1c-0.3,0.3-0.7,0.5-1.2,0.7c-0.5,0.2-1.1,0.3-1.7,0.3
		c-0.5,0-0.9,0-1.4-0.1c-0.4-0.1-0.8-0.2-1.2-0.4c-0.4-0.2-0.7-0.3-1-0.5c-0.3-0.2-0.5-0.4-0.7-0.6L577.9,93.8z"/>
	<g>
		<rect x="32" y="114" class="st7" width="93" height="37"/>
		<path class="st5" d="M33.9,126.9c0.1,0.2,0.3,0.3,0.5,0.5c0.2,0.2,0.4,0.3,0.7,0.4c0.3,0.1,0.5,0.2,0.8,0.3c0.3,0.1,0.6,0.1,1,0.1
			c0.6,0,1.1-0.1,1.5-0.4c0.3-0.3,0.5-0.6,0.5-1c0-0.4-0.2-0.7-0.5-0.9c-0.3-0.2-0.8-0.4-1.4-0.5l-0.4-0.1c-0.5-0.1-0.9-0.2-1.4-0.3
			c-0.5-0.1-0.9-0.3-1.3-0.6c-0.4-0.3-0.7-0.6-0.9-1c-0.2-0.4-0.4-0.9-0.4-1.5c0-0.4,0.1-0.7,0.2-1.1c0.2-0.4,0.4-0.7,0.7-1.1
			c0.3-0.3,0.8-0.6,1.3-0.8c0.5-0.2,1.2-0.3,2-0.3c0.9,0,1.7,0.2,2.4,0.5c0.7,0.3,1.3,0.7,1.7,1.2l-1.5,1.4
			c-0.3-0.3-0.7-0.6-1.2-0.8c-0.5-0.2-1-0.3-1.5-0.3c-0.6,0-1,0.1-1.4,0.3c-0.3,0.2-0.5,0.5-0.5,0.9c0,0.2,0.1,0.4,0.2,0.6
			c0.1,0.2,0.3,0.3,0.5,0.4c0.2,0.1,0.4,0.2,0.7,0.2c0.3,0.1,0.6,0.1,0.9,0.2l0.2,0c0.4,0.1,0.9,0.2,1.3,0.3
			c0.4,0.1,0.8,0.3,1.2,0.6c0.4,0.2,0.7,0.6,0.9,1c0.2,0.4,0.3,0.9,0.3,1.5c0,0.6-0.1,1.1-0.4,1.5c-0.2,0.4-0.5,0.8-0.9,1.1
			c-0.4,0.3-0.8,0.5-1.3,0.7c-0.5,0.2-1,0.2-1.6,0.2c-0.6,0-1.1,0-1.5-0.1c-0.5-0.1-0.9-0.2-1.3-0.4c-0.4-0.2-0.7-0.4-1-0.6
			c-0.3-0.2-0.6-0.4-0.8-0.7L33.9,126.9z M44.8,126.6c0,0.2,0.1,0.5,0.2,0.7c0.1,0.2,0.3,0.4,0.5,0.5c0.2,0.1,0.4,0.3,0.6,0.3
			c0.2,0.1,0.5,0.1,0.8,0.1c0.3,0,0.7-0.1,1-0.2c0.4-0.1,0.7-0.3,1-0.5l1,1.5c-0.4,0.3-0.9,0.6-1.4,0.8c-0.6,0.2-1.2,0.3-1.8,0.3
			c-0.6,0-1.1-0.1-1.6-0.3c-0.5-0.2-1-0.5-1.3-0.9c-0.4-0.4-0.7-0.8-0.9-1.4c-0.2-0.5-0.3-1.1-0.3-1.8c0-0.6,0.1-1.2,0.3-1.7
			c0.2-0.5,0.5-1,0.8-1.4c0.4-0.4,0.8-0.7,1.3-0.9c0.5-0.2,1-0.3,1.6-0.3c0.6,0,1.1,0.1,1.5,0.3c0.5,0.2,0.9,0.5,1.2,0.8
			c0.3,0.4,0.6,0.8,0.8,1.3c0.2,0.5,0.3,1.1,0.3,1.7v1H44.8z M46.5,123.3c-0.5,0-0.9,0.2-1.2,0.5c-0.3,0.3-0.5,0.7-0.6,1.1h3.4
			c0-0.4-0.2-0.8-0.5-1.1C47.3,123.5,47,123.3,46.5,123.3z M56.5,123.7h-0.2c-0.3,0-0.6,0-0.9,0.1c-0.3,0.1-0.5,0.2-0.7,0.3
			c-0.2,0.2-0.4,0.4-0.5,0.7c-0.1,0.3-0.2,0.7-0.2,1.1v4.1h-2.2v-8.4h2.2v0.9c0.1-0.1,0.2-0.3,0.3-0.4c0.1-0.1,0.3-0.2,0.5-0.3
			c0.2-0.1,0.4-0.2,0.6-0.2c0.2-0.1,0.5-0.1,0.8-0.1h0.3V123.7z M59.6,130l-2.6-8.4h2.4l1.5,5.8l1.5-5.8h2.4l-2.5,8.4H59.6z
			 M68.1,130h-2.2v-8.4h2.2V130z M65.7,119.4c0-0.2,0-0.3,0.1-0.5c0.1-0.2,0.2-0.3,0.3-0.4c0.1-0.1,0.3-0.2,0.4-0.3
			c0.2-0.1,0.3-0.1,0.5-0.1c0.2,0,0.3,0,0.5,0.1c0.2,0.1,0.3,0.2,0.4,0.3c0.1,0.1,0.2,0.3,0.3,0.4c0.1,0.2,0.1,0.3,0.1,0.5
			c0,0.2,0,0.4-0.1,0.5c-0.1,0.2-0.2,0.3-0.3,0.4c-0.1,0.1-0.3,0.2-0.4,0.3c-0.2,0.1-0.3,0.1-0.5,0.1c-0.2,0-0.4,0-0.5-0.1
			c-0.2-0.1-0.3-0.2-0.4-0.3c-0.1-0.1-0.2-0.3-0.3-0.4C65.7,119.8,65.7,119.6,65.7,119.4z M71.7,125.9c0,0.3,0,0.5,0.1,0.8
			c0.1,0.3,0.2,0.5,0.3,0.7c0.2,0.2,0.3,0.4,0.6,0.5c0.2,0.1,0.5,0.2,0.9,0.2c0.2,0,0.4,0,0.6-0.1c0.2-0.1,0.3-0.1,0.5-0.2
			c0.1-0.1,0.3-0.2,0.4-0.4c0.1-0.1,0.2-0.3,0.3-0.5l1.9,1c-0.1,0.3-0.3,0.6-0.6,0.9c-0.2,0.3-0.5,0.5-0.8,0.7
			c-0.3,0.2-0.7,0.3-1,0.4c-0.4,0.1-0.8,0.2-1.2,0.2c-0.6,0-1.1-0.1-1.6-0.3c-0.5-0.2-0.9-0.5-1.3-0.9c-0.4-0.4-0.6-0.8-0.8-1.4
			c-0.2-0.5-0.3-1.1-0.3-1.7c0-0.6,0.1-1.2,0.3-1.7c0.2-0.5,0.5-1,0.8-1.4c0.4-0.4,0.8-0.7,1.3-0.9c0.5-0.2,1-0.3,1.6-0.3
			c0.4,0,0.8,0.1,1.2,0.2c0.4,0.1,0.7,0.2,1,0.4c0.3,0.2,0.6,0.4,0.8,0.7c0.2,0.3,0.4,0.6,0.6,0.9l-1.9,1c-0.1-0.2-0.2-0.3-0.3-0.4
			c-0.1-0.1-0.2-0.3-0.4-0.4c-0.1-0.1-0.3-0.2-0.5-0.2c-0.2-0.1-0.4-0.1-0.6-0.1c-0.3,0-0.6,0.1-0.9,0.2c-0.2,0.1-0.4,0.3-0.6,0.5
			c-0.2,0.2-0.3,0.5-0.3,0.7S71.7,125.5,71.7,125.9L71.7,125.9z M80.3,126.6c0,0.2,0.1,0.5,0.2,0.7c0.1,0.2,0.3,0.4,0.5,0.5
			c0.2,0.1,0.4,0.3,0.6,0.3c0.2,0.1,0.5,0.1,0.8,0.1c0.3,0,0.7-0.1,1-0.2c0.4-0.1,0.7-0.3,1-0.5l1,1.5c-0.4,0.3-0.9,0.6-1.4,0.8
			c-0.6,0.2-1.2,0.3-1.8,0.3c-0.6,0-1.1-0.1-1.6-0.3c-0.5-0.2-1-0.5-1.3-0.9c-0.4-0.4-0.7-0.8-0.9-1.4c-0.2-0.5-0.3-1.1-0.3-1.8
			c0-0.6,0.1-1.2,0.3-1.7c0.2-0.5,0.5-1,0.8-1.4c0.4-0.4,0.8-0.7,1.3-0.9c0.5-0.2,1-0.3,1.6-0.3c0.6,0,1.1,0.1,1.5,0.3
			c0.5,0.2,0.9,0.5,1.2,0.8c0.3,0.4,0.6,0.8,0.8,1.3c0.2,0.5,0.3,1.1,0.3,1.7v1H80.3z M82.1,123.3c-0.5,0-0.9,0.2-1.2,0.5
			c-0.3,0.3-0.5,0.7-0.6,1.1h3.4c0-0.4-0.2-0.8-0.5-1.1C82.9,123.5,82.5,123.3,82.1,123.3z M90.2,118.8h2.2v8.9c0,0.2,0,0.3,0.1,0.4
			c0.1,0.1,0.3,0.1,0.5,0.1c0.1,0,0.2,0,0.3,0c0.1,0,0.2,0,0.3-0.1l0.2,1.8c-0.1,0-0.3,0-0.5,0.1c-0.1,0-0.3,0-0.5,0
			c-0.2,0-0.4,0-0.6,0c-0.3,0-0.6,0-0.8-0.1c-0.2-0.1-0.5-0.2-0.6-0.3c-0.2-0.2-0.3-0.3-0.4-0.6c-0.1-0.2-0.1-0.5-0.1-0.8V118.8z
			 M97.1,130h-2.2v-8.4h2.2V130z M94.7,119.4c0-0.2,0-0.3,0.1-0.5c0.1-0.2,0.2-0.3,0.3-0.4c0.1-0.1,0.3-0.2,0.4-0.3
			c0.2-0.1,0.3-0.1,0.5-0.1c0.2,0,0.3,0,0.5,0.1c0.2,0.1,0.3,0.2,0.4,0.3c0.1,0.1,0.2,0.3,0.3,0.4c0.1,0.2,0.1,0.3,0.1,0.5
			c0,0.2,0,0.4-0.1,0.5c-0.1,0.2-0.2,0.3-0.3,0.4c-0.1,0.1-0.3,0.2-0.4,0.3c-0.2,0.1-0.3,0.1-0.5,0.1c-0.2,0-0.4,0-0.5-0.1
			c-0.2-0.1-0.3-0.2-0.4-0.3c-0.1-0.1-0.2-0.3-0.3-0.4C94.7,119.8,94.7,119.6,94.7,119.4z M98.9,121.6h2.2v0.7
			c0.1-0.1,0.2-0.2,0.4-0.3c0.1-0.1,0.3-0.2,0.5-0.3c0.2-0.1,0.4-0.1,0.6-0.2c0.2-0.1,0.4-0.1,0.7-0.1c0.5,0,0.9,0.1,1.2,0.2
			c0.4,0.1,0.7,0.3,0.9,0.6c0.2,0.3,0.4,0.6,0.6,0.9c0.1,0.3,0.2,0.7,0.2,1.1v5.6H104v-4.9c0-0.3,0-0.5-0.1-0.8
			c-0.1-0.2-0.2-0.4-0.3-0.5c-0.1-0.1-0.3-0.2-0.4-0.3c-0.2-0.1-0.3-0.1-0.5-0.1c-0.2,0-0.4,0-0.6,0.1c-0.2,0.1-0.4,0.2-0.5,0.4
			c-0.1,0.2-0.2,0.4-0.3,0.6c-0.1,0.2-0.1,0.5-0.1,0.8v4.6h-2.2V121.6z M110.1,124.9l2.8-3.3h2.7l-3,3.4l3.1,4.9H113l-2.1-3.4
			l-0.9,1v2.4h-2.2v-11.2h2.2V124.9z M123.3,118.8V130H121v-7.4h-2v-2h0.5c0.3,0,0.6,0,0.8-0.1c0.2-0.1,0.4-0.2,0.5-0.3
			c0.1-0.1,0.2-0.3,0.2-0.5c0-0.2,0.1-0.4,0.1-0.7v-0.2H123.3z"/>
	</g>
	<rect x="155" y="114" class="st7" width="97" height="37"/>
	<path class="st5" d="M156.9,126.9c0.1,0.2,0.3,0.3,0.5,0.5c0.2,0.2,0.4,0.3,0.7,0.4c0.3,0.1,0.5,0.2,0.8,0.3c0.3,0.1,0.6,0.1,1,0.1
		c0.6,0,1.1-0.1,1.5-0.4c0.3-0.3,0.5-0.6,0.5-1c0-0.4-0.2-0.7-0.5-0.9c-0.3-0.2-0.8-0.4-1.4-0.5l-0.4-0.1c-0.5-0.1-0.9-0.2-1.4-0.3
		c-0.5-0.1-0.9-0.3-1.3-0.6c-0.4-0.3-0.7-0.6-0.9-1c-0.2-0.4-0.4-0.9-0.4-1.5c0-0.4,0.1-0.7,0.2-1.1c0.2-0.4,0.4-0.7,0.7-1.1
		c0.3-0.3,0.8-0.6,1.3-0.8c0.5-0.2,1.2-0.3,2-0.3c0.9,0,1.7,0.2,2.4,0.5c0.7,0.3,1.3,0.7,1.7,1.2l-1.5,1.4c-0.3-0.3-0.7-0.6-1.2-0.8
		c-0.5-0.2-1-0.3-1.5-0.3c-0.6,0-1,0.1-1.4,0.3c-0.3,0.2-0.5,0.5-0.5,0.9c0,0.2,0.1,0.4,0.2,0.6c0.1,0.2,0.3,0.3,0.5,0.4
		c0.2,0.1,0.4,0.2,0.7,0.2c0.3,0.1,0.6,0.1,0.9,0.2l0.2,0c0.4,0.1,0.9,0.2,1.3,0.3c0.4,0.1,0.8,0.3,1.2,0.6c0.4,0.2,0.7,0.6,0.9,1
		c0.2,0.4,0.3,0.9,0.3,1.5c0,0.6-0.1,1.1-0.4,1.5c-0.2,0.4-0.5,0.8-0.9,1.1c-0.4,0.3-0.8,0.5-1.3,0.7c-0.5,0.2-1,0.2-1.6,0.2
		c-0.6,0-1.1,0-1.5-0.1c-0.5-0.1-0.9-0.2-1.3-0.4c-0.4-0.2-0.7-0.4-1-0.6c-0.3-0.2-0.6-0.4-0.8-0.7L156.9,126.9z M167.8,126.6
		c0,0.2,0.1,0.5,0.2,0.7c0.1,0.2,0.3,0.4,0.5,0.5c0.2,0.1,0.4,0.3,0.6,0.3c0.2,0.1,0.5,0.1,0.8,0.1c0.3,0,0.7-0.1,1-0.2
		c0.4-0.1,0.7-0.3,1-0.5l1,1.5c-0.4,0.3-0.9,0.6-1.4,0.8c-0.6,0.2-1.2,0.3-1.8,0.3c-0.6,0-1.1-0.1-1.6-0.3c-0.5-0.2-1-0.5-1.3-0.9
		c-0.4-0.4-0.7-0.8-0.9-1.4c-0.2-0.5-0.3-1.1-0.3-1.8c0-0.6,0.1-1.2,0.3-1.7c0.2-0.5,0.5-1,0.8-1.4c0.4-0.4,0.8-0.7,1.3-0.9
		c0.5-0.2,1-0.3,1.6-0.3c0.6,0,1.1,0.1,1.5,0.3c0.5,0.2,0.9,0.5,1.2,0.8c0.3,0.4,0.6,0.8,0.8,1.3c0.2,0.5,0.3,1.1,0.3,1.7v1H167.8z
		 M169.5,123.3c-0.5,0-0.9,0.2-1.2,0.5c-0.3,0.3-0.5,0.7-0.6,1.1h3.4c0-0.4-0.2-0.8-0.5-1.1C170.3,123.5,170,123.3,169.5,123.3z
		 M179.5,123.7h-0.2c-0.3,0-0.6,0-0.9,0.1c-0.3,0.1-0.5,0.2-0.7,0.3c-0.2,0.2-0.4,0.4-0.5,0.7c-0.1,0.3-0.2,0.7-0.2,1.1v4.1h-2.2
		v-8.4h2.2v0.9c0.1-0.1,0.2-0.3,0.3-0.4c0.1-0.1,0.3-0.2,0.5-0.3c0.2-0.1,0.4-0.2,0.6-0.2c0.2-0.1,0.5-0.1,0.8-0.1h0.3V123.7z
		 M182.6,130l-2.6-8.4h2.4l1.5,5.8l1.5-5.8h2.4l-2.5,8.4H182.6z M191.1,130h-2.2v-8.4h2.2V130z M188.7,119.4c0-0.2,0-0.3,0.1-0.5
		c0.1-0.2,0.2-0.3,0.3-0.4c0.1-0.1,0.3-0.2,0.4-0.3c0.2-0.1,0.3-0.1,0.5-0.1c0.2,0,0.3,0,0.5,0.1c0.2,0.1,0.3,0.2,0.4,0.3
		c0.1,0.1,0.2,0.3,0.3,0.4c0.1,0.2,0.1,0.3,0.1,0.5c0,0.2,0,0.4-0.1,0.5c-0.1,0.2-0.2,0.3-0.3,0.4c-0.1,0.1-0.3,0.2-0.4,0.3
		c-0.2,0.1-0.3,0.1-0.5,0.1c-0.2,0-0.4,0-0.5-0.1c-0.2-0.1-0.3-0.2-0.4-0.3c-0.1-0.1-0.2-0.3-0.3-0.4
		C188.7,119.8,188.7,119.6,188.7,119.4z M194.7,125.9c0,0.3,0,0.5,0.1,0.8c0.1,0.3,0.2,0.5,0.3,0.7s0.3,0.4,0.6,0.5
		c0.2,0.1,0.5,0.2,0.9,0.2c0.2,0,0.4,0,0.6-0.1c0.2-0.1,0.3-0.1,0.5-0.2c0.1-0.1,0.3-0.2,0.4-0.4c0.1-0.1,0.2-0.3,0.3-0.5l1.9,1
		c-0.1,0.3-0.3,0.6-0.6,0.9c-0.2,0.3-0.5,0.5-0.8,0.7c-0.3,0.2-0.7,0.3-1,0.4c-0.4,0.1-0.8,0.2-1.2,0.2c-0.6,0-1.1-0.1-1.6-0.3
		c-0.5-0.2-0.9-0.5-1.3-0.9c-0.4-0.4-0.6-0.8-0.8-1.4c-0.2-0.5-0.3-1.1-0.3-1.7c0-0.6,0.1-1.2,0.3-1.7c0.2-0.5,0.5-1,0.8-1.4
		c0.4-0.4,0.8-0.7,1.3-0.9c0.5-0.2,1-0.3,1.6-0.3c0.4,0,0.8,0.1,1.2,0.2c0.4,0.1,0.7,0.2,1,0.4c0.3,0.2,0.6,0.4,0.8,0.7
		c0.2,0.3,0.4,0.6,0.6,0.9l-1.9,1c-0.1-0.2-0.2-0.3-0.3-0.4c-0.1-0.1-0.2-0.3-0.4-0.4c-0.1-0.1-0.3-0.2-0.5-0.2
		c-0.2-0.1-0.4-0.1-0.6-0.1c-0.3,0-0.6,0.1-0.9,0.2c-0.2,0.1-0.4,0.3-0.6,0.5c-0.2,0.2-0.3,0.5-0.3,0.7S194.7,125.5,194.7,125.9
		L194.7,125.9z M203.3,126.6c0,0.2,0.1,0.5,0.2,0.7c0.1,0.2,0.3,0.4,0.5,0.5c0.2,0.1,0.4,0.3,0.6,0.3c0.2,0.1,0.5,0.1,0.8,0.1
		c0.3,0,0.7-0.1,1-0.2c0.4-0.1,0.7-0.3,1-0.5l1,1.5c-0.4,0.3-0.9,0.6-1.4,0.8c-0.6,0.2-1.2,0.3-1.8,0.3c-0.6,0-1.1-0.1-1.6-0.3
		c-0.5-0.2-1-0.5-1.3-0.9c-0.4-0.4-0.7-0.8-0.9-1.4c-0.2-0.5-0.3-1.1-0.3-1.8c0-0.6,0.1-1.2,0.3-1.7c0.2-0.5,0.5-1,0.8-1.4
		c0.4-0.4,0.8-0.7,1.3-0.9c0.5-0.2,1-0.3,1.6-0.3c0.6,0,1.1,0.1,1.5,0.3c0.5,0.2,0.9,0.5,1.2,0.8c0.3,0.4,0.6,0.8,0.8,1.3
		c0.2,0.5,0.3,1.1,0.3,1.7v1H203.3z M205.1,123.3c-0.5,0-0.9,0.2-1.2,0.5c-0.3,0.3-0.5,0.7-0.6,1.1h3.4c0-0.4-0.2-0.8-0.5-1.1
		C205.9,123.5,205.5,123.3,205.1,123.3z M213.2,118.8h2.2v8.9c0,0.2,0,0.3,0.1,0.4c0.1,0.1,0.3,0.1,0.5,0.1c0.1,0,0.2,0,0.3,0
		c0.1,0,0.2,0,0.3-0.1l0.2,1.8c-0.1,0-0.3,0-0.5,0.1c-0.1,0-0.3,0-0.5,0c-0.2,0-0.4,0-0.6,0c-0.3,0-0.6,0-0.8-0.1
		c-0.2-0.1-0.5-0.2-0.6-0.3c-0.2-0.2-0.3-0.3-0.4-0.6c-0.1-0.2-0.1-0.5-0.1-0.8V118.8z M220.1,130h-2.2v-8.4h2.2V130z M217.7,119.4
		c0-0.2,0-0.3,0.1-0.5c0.1-0.2,0.2-0.3,0.3-0.4c0.1-0.1,0.3-0.2,0.4-0.3c0.2-0.1,0.3-0.1,0.5-0.1c0.2,0,0.3,0,0.5,0.1
		c0.2,0.1,0.3,0.2,0.4,0.3c0.1,0.1,0.2,0.3,0.3,0.4c0.1,0.2,0.1,0.3,0.1,0.5c0,0.2,0,0.4-0.1,0.5c-0.1,0.2-0.2,0.3-0.3,0.4
		c-0.1,0.1-0.3,0.2-0.4,0.3c-0.2,0.1-0.3,0.1-0.5,0.1c-0.2,0-0.4,0-0.5-0.1c-0.2-0.1-0.3-0.2-0.4-0.3c-0.1-0.1-0.2-0.3-0.3-0.4
		C217.7,119.8,217.7,119.6,217.7,119.4z M221.9,121.6h2.2v0.7c0.1-0.1,0.2-0.2,0.4-0.3c0.1-0.1,0.3-0.2,0.5-0.3
		c0.2-0.1,0.4-0.1,0.6-0.2c0.2-0.1,0.4-0.1,0.7-0.1c0.5,0,0.9,0.1,1.2,0.2c0.4,0.1,0.7,0.3,0.9,0.6c0.2,0.3,0.4,0.6,0.6,0.9
		s0.2,0.7,0.2,1.1v5.6H227v-4.9c0-0.3,0-0.5-0.1-0.8c-0.1-0.2-0.2-0.4-0.3-0.5c-0.1-0.1-0.3-0.2-0.4-0.3c-0.2-0.1-0.3-0.1-0.5-0.1
		c-0.2,0-0.4,0-0.6,0.1c-0.2,0.1-0.4,0.2-0.5,0.4c-0.1,0.2-0.2,0.4-0.3,0.6c-0.1,0.2-0.1,0.5-0.1,0.8v4.6h-2.2V121.6z M233.1,124.9
		l2.8-3.3h2.7l-3,3.4l3.1,4.9H236l-2.1-3.4l-0.9,1v2.4h-2.2v-11.2h2.2V124.9z M246.2,120.7c-0.3,0-0.6,0-0.8,0.1
		c-0.2,0.1-0.4,0.2-0.6,0.4c-0.2,0.2-0.3,0.4-0.3,0.6c-0.1,0.2-0.1,0.5-0.1,0.8l-2.3-0.2c0-0.6,0.1-1.2,0.3-1.6
		c0.2-0.5,0.5-0.9,0.9-1.2c0.4-0.3,0.8-0.6,1.3-0.7c0.5-0.2,1.1-0.3,1.6-0.3c0.6,0,1.2,0.1,1.7,0.3c0.5,0.2,1,0.4,1.3,0.8
		c0.4,0.3,0.6,0.7,0.8,1.2c0.2,0.5,0.3,1,0.3,1.5c0,0.6-0.1,1.2-0.4,1.7c-0.2,0.5-0.6,1-1,1.5c-0.4,0.4-0.9,0.9-1.4,1.2
		c-0.5,0.4-1.1,0.7-1.6,1l-0.2,0.1h4.7v2h-8.2v-2c0.4-0.2,0.9-0.5,1.3-0.7c0.4-0.3,0.9-0.5,1.3-0.8c0.4-0.3,0.8-0.6,1.2-0.9
		c0.4-0.3,0.7-0.6,1-1c0.3-0.3,0.5-0.7,0.7-1c0.2-0.4,0.2-0.7,0.2-1.1c0-0.2,0-0.4-0.1-0.6c-0.1-0.2-0.2-0.4-0.3-0.6
		c-0.1-0.2-0.3-0.3-0.5-0.4C246.8,120.8,246.5,120.7,246.2,120.7z"/>
	<rect x="282" y="114" class="st7" width="97" height="37"/>
	<path class="st5" d="M283.9,126.9c0.1,0.2,0.3,0.3,0.5,0.5c0.2,0.2,0.4,0.3,0.7,0.4c0.3,0.1,0.5,0.2,0.8,0.3c0.3,0.1,0.6,0.1,1,0.1
		c0.6,0,1.1-0.1,1.5-0.4c0.3-0.3,0.5-0.6,0.5-1c0-0.4-0.2-0.7-0.5-0.9c-0.3-0.2-0.8-0.4-1.4-0.5l-0.4-0.1c-0.5-0.1-0.9-0.2-1.4-0.3
		c-0.5-0.1-0.9-0.3-1.3-0.6c-0.4-0.3-0.7-0.6-0.9-1c-0.2-0.4-0.4-0.9-0.4-1.5c0-0.4,0.1-0.7,0.2-1.1c0.2-0.4,0.4-0.7,0.7-1.1
		c0.3-0.3,0.8-0.6,1.3-0.8c0.5-0.2,1.2-0.3,2-0.3c0.9,0,1.7,0.2,2.4,0.5c0.7,0.3,1.3,0.7,1.7,1.2l-1.5,1.4c-0.3-0.3-0.7-0.6-1.2-0.8
		c-0.5-0.2-1-0.3-1.5-0.3c-0.6,0-1,0.1-1.4,0.3c-0.3,0.2-0.5,0.5-0.5,0.9c0,0.2,0.1,0.4,0.2,0.6c0.1,0.2,0.3,0.3,0.5,0.4
		c0.2,0.1,0.4,0.2,0.7,0.2c0.3,0.1,0.6,0.1,0.9,0.2l0.2,0c0.4,0.1,0.9,0.2,1.3,0.3c0.4,0.1,0.8,0.3,1.2,0.6c0.4,0.2,0.7,0.6,0.9,1
		c0.2,0.4,0.3,0.9,0.3,1.5c0,0.6-0.1,1.1-0.4,1.5c-0.2,0.4-0.5,0.8-0.9,1.1c-0.4,0.3-0.8,0.5-1.3,0.7c-0.5,0.2-1,0.2-1.6,0.2
		c-0.6,0-1.1,0-1.5-0.1c-0.5-0.1-0.9-0.2-1.3-0.4c-0.4-0.2-0.7-0.4-1-0.6c-0.3-0.2-0.6-0.4-0.8-0.7L283.9,126.9z M294.8,126.6
		c0,0.2,0.1,0.5,0.2,0.7c0.1,0.2,0.3,0.4,0.5,0.5c0.2,0.1,0.4,0.3,0.6,0.3c0.2,0.1,0.5,0.1,0.8,0.1c0.3,0,0.7-0.1,1-0.2
		c0.4-0.1,0.7-0.3,1-0.5l1,1.5c-0.4,0.3-0.9,0.6-1.4,0.8c-0.6,0.2-1.2,0.3-1.8,0.3c-0.6,0-1.1-0.1-1.6-0.3c-0.5-0.2-1-0.5-1.3-0.9
		c-0.4-0.4-0.7-0.8-0.9-1.4c-0.2-0.5-0.3-1.1-0.3-1.8c0-0.6,0.1-1.2,0.3-1.7c0.2-0.5,0.5-1,0.8-1.4c0.4-0.4,0.8-0.7,1.3-0.9
		c0.5-0.2,1-0.3,1.6-0.3c0.6,0,1.1,0.1,1.5,0.3c0.5,0.2,0.9,0.5,1.2,0.8c0.3,0.4,0.6,0.8,0.8,1.3c0.2,0.5,0.3,1.1,0.3,1.7v1H294.8z
		 M296.5,123.3c-0.5,0-0.9,0.2-1.2,0.5c-0.3,0.3-0.5,0.7-0.6,1.1h3.4c0-0.4-0.2-0.8-0.5-1.1C297.3,123.5,297,123.3,296.5,123.3z
		 M306.5,123.7h-0.2c-0.3,0-0.6,0-0.9,0.1c-0.3,0.1-0.5,0.2-0.7,0.3c-0.2,0.2-0.4,0.4-0.5,0.7c-0.1,0.3-0.2,0.7-0.2,1.1v4.1h-2.2
		v-8.4h2.2v0.9c0.1-0.1,0.2-0.3,0.3-0.4c0.1-0.1,0.3-0.2,0.5-0.3c0.2-0.1,0.4-0.2,0.6-0.2c0.2-0.1,0.5-0.1,0.8-0.1h0.3V123.7z
		 M309.6,130l-2.6-8.4h2.4l1.5,5.8l1.5-5.8h2.4l-2.5,8.4H309.6z M318.1,130h-2.2v-8.4h2.2V130z M315.7,119.4c0-0.2,0-0.3,0.1-0.5
		c0.1-0.2,0.2-0.3,0.3-0.4c0.1-0.1,0.3-0.2,0.4-0.3c0.2-0.1,0.3-0.1,0.5-0.1c0.2,0,0.3,0,0.5,0.1c0.2,0.1,0.3,0.2,0.4,0.3
		c0.1,0.1,0.2,0.3,0.3,0.4c0.1,0.2,0.1,0.3,0.1,0.5c0,0.2,0,0.4-0.1,0.5c-0.1,0.2-0.2,0.3-0.3,0.4c-0.1,0.1-0.3,0.2-0.4,0.3
		c-0.2,0.1-0.3,0.1-0.5,0.1c-0.2,0-0.4,0-0.5-0.1c-0.2-0.1-0.3-0.2-0.4-0.3c-0.1-0.1-0.2-0.3-0.3-0.4
		C315.7,119.8,315.7,119.6,315.7,119.4z M321.7,125.9c0,0.3,0,0.5,0.1,0.8c0.1,0.3,0.2,0.5,0.3,0.7s0.3,0.4,0.6,0.5
		c0.2,0.1,0.5,0.2,0.9,0.2c0.2,0,0.4,0,0.6-0.1c0.2-0.1,0.3-0.1,0.5-0.2c0.1-0.1,0.3-0.2,0.4-0.4c0.1-0.1,0.2-0.3,0.3-0.5l1.9,1
		c-0.1,0.3-0.3,0.6-0.6,0.9c-0.2,0.3-0.5,0.5-0.8,0.7c-0.3,0.2-0.7,0.3-1,0.4c-0.4,0.1-0.8,0.2-1.2,0.2c-0.6,0-1.1-0.1-1.6-0.3
		c-0.5-0.2-0.9-0.5-1.3-0.9c-0.4-0.4-0.6-0.8-0.8-1.4c-0.2-0.5-0.3-1.1-0.3-1.7c0-0.6,0.1-1.2,0.3-1.7c0.2-0.5,0.5-1,0.8-1.4
		c0.4-0.4,0.8-0.7,1.3-0.9c0.5-0.2,1-0.3,1.6-0.3c0.4,0,0.8,0.1,1.2,0.2c0.4,0.1,0.7,0.2,1,0.4c0.3,0.2,0.6,0.4,0.8,0.7
		c0.2,0.3,0.4,0.6,0.6,0.9l-1.9,1c-0.1-0.2-0.2-0.3-0.3-0.4c-0.1-0.1-0.2-0.3-0.4-0.4c-0.1-0.1-0.3-0.2-0.5-0.2
		c-0.2-0.1-0.4-0.1-0.6-0.1c-0.3,0-0.6,0.1-0.9,0.2c-0.2,0.1-0.4,0.3-0.6,0.5c-0.2,0.2-0.3,0.5-0.3,0.7S321.7,125.5,321.7,125.9
		L321.7,125.9z M330.3,126.6c0,0.2,0.1,0.5,0.2,0.7c0.1,0.2,0.3,0.4,0.5,0.5c0.2,0.1,0.4,0.3,0.6,0.3c0.2,0.1,0.5,0.1,0.8,0.1
		c0.3,0,0.7-0.1,1-0.2c0.4-0.1,0.7-0.3,1-0.5l1,1.5c-0.4,0.3-0.9,0.6-1.4,0.8c-0.6,0.2-1.2,0.3-1.8,0.3c-0.6,0-1.1-0.1-1.6-0.3
		c-0.5-0.2-1-0.5-1.3-0.9c-0.4-0.4-0.7-0.8-0.9-1.4c-0.2-0.5-0.3-1.1-0.3-1.8c0-0.6,0.1-1.2,0.3-1.7c0.2-0.5,0.5-1,0.8-1.4
		c0.4-0.4,0.8-0.7,1.3-0.9c0.5-0.2,1-0.3,1.6-0.3c0.6,0,1.1,0.1,1.5,0.3c0.5,0.2,0.9,0.5,1.2,0.8c0.3,0.4,0.6,0.8,0.8,1.3
		c0.2,0.5,0.3,1.1,0.3,1.7v1H330.3z M332.1,123.3c-0.5,0-0.9,0.2-1.2,0.5c-0.3,0.3-0.5,0.7-0.6,1.1h3.4c0-0.4-0.2-0.8-0.5-1.1
		C332.9,123.5,332.5,123.3,332.1,123.3z M340.2,118.8h2.2v8.9c0,0.2,0,0.3,0.1,0.4c0.1,0.1,0.3,0.1,0.5,0.1c0.1,0,0.2,0,0.3,0
		c0.1,0,0.2,0,0.3-0.1l0.2,1.8c-0.1,0-0.3,0-0.5,0.1c-0.1,0-0.3,0-0.5,0c-0.2,0-0.4,0-0.6,0c-0.3,0-0.6,0-0.8-0.1s-0.5-0.2-0.6-0.3
		c-0.2-0.2-0.3-0.3-0.4-0.6c-0.1-0.2-0.1-0.5-0.1-0.8V118.8z M347.1,130h-2.2v-8.4h2.2V130z M344.7,119.4c0-0.2,0-0.3,0.1-0.5
		c0.1-0.2,0.2-0.3,0.3-0.4c0.1-0.1,0.3-0.2,0.4-0.3c0.2-0.1,0.3-0.1,0.5-0.1c0.2,0,0.3,0,0.5,0.1c0.2,0.1,0.3,0.2,0.4,0.3
		c0.1,0.1,0.2,0.3,0.3,0.4c0.1,0.2,0.1,0.3,0.1,0.5c0,0.2,0,0.4-0.1,0.5c-0.1,0.2-0.2,0.3-0.3,0.4c-0.1,0.1-0.3,0.2-0.4,0.3
		c-0.2,0.1-0.3,0.1-0.5,0.1c-0.2,0-0.4,0-0.5-0.1c-0.2-0.1-0.3-0.2-0.4-0.3c-0.1-0.1-0.2-0.3-0.3-0.4
		C344.7,119.8,344.7,119.6,344.7,119.4z M348.9,121.6h2.2v0.7c0.1-0.1,0.2-0.2,0.4-0.3c0.1-0.1,0.3-0.2,0.5-0.3
		c0.2-0.1,0.4-0.1,0.6-0.2c0.2-0.1,0.4-0.1,0.7-0.1c0.5,0,0.9,0.1,1.2,0.2c0.4,0.1,0.7,0.3,0.9,0.6c0.2,0.3,0.4,0.6,0.6,0.9
		s0.2,0.7,0.2,1.1v5.6H354v-4.9c0-0.3,0-0.5-0.1-0.8c-0.1-0.2-0.2-0.4-0.3-0.5c-0.1-0.1-0.3-0.2-0.4-0.3c-0.2-0.1-0.3-0.1-0.5-0.1
		c-0.2,0-0.4,0-0.6,0.1c-0.2,0.1-0.4,0.2-0.5,0.4c-0.1,0.2-0.2,0.4-0.3,0.6c-0.1,0.2-0.1,0.5-0.1,0.8v4.6h-2.2V121.6z M360.1,124.9
		l2.8-3.3h2.7l-3,3.4l3.1,4.9H363l-2.1-3.4l-0.9,1v2.4h-2.2v-11.2h2.2V124.9z M371.2,126.6c0.1,0.3,0.2,0.5,0.4,0.7
		c0.2,0.2,0.3,0.4,0.5,0.5c0.2,0.1,0.4,0.2,0.7,0.3c0.2,0.1,0.5,0.1,0.7,0.1c0.4,0,0.7,0,0.9-0.1c0.2-0.1,0.5-0.2,0.6-0.3
		c0.2-0.1,0.3-0.3,0.3-0.5c0.1-0.2,0.1-0.4,0.1-0.5c0-0.4-0.2-0.8-0.6-1c-0.4-0.3-0.9-0.4-1.7-0.4h-0.6v-1.9h0.5
		c0.7,0,1.2-0.1,1.6-0.3c0.4-0.2,0.6-0.6,0.6-1c0-0.2,0-0.4-0.1-0.5c-0.1-0.2-0.2-0.3-0.4-0.4c-0.2-0.1-0.3-0.2-0.5-0.2
		c-0.2-0.1-0.4-0.1-0.7-0.1c-0.3,0-0.5,0-0.8,0.1c-0.2,0.1-0.4,0.2-0.6,0.3c-0.2,0.1-0.3,0.3-0.5,0.5c-0.1,0.2-0.2,0.4-0.3,0.6
		l-2-0.8c0.1-0.4,0.3-0.8,0.6-1.2c0.3-0.3,0.6-0.6,1-0.9c0.4-0.2,0.8-0.4,1.2-0.5c0.4-0.1,0.9-0.2,1.4-0.2c0.6,0,1.1,0.1,1.6,0.2
		c0.5,0.1,0.9,0.3,1.3,0.6c0.4,0.3,0.7,0.6,0.9,1c0.2,0.4,0.3,0.8,0.3,1.3c0,0.3,0,0.6-0.1,0.8c-0.1,0.3-0.2,0.5-0.4,0.7
		c-0.2,0.2-0.4,0.4-0.6,0.5c-0.2,0.1-0.5,0.3-0.7,0.3c0.3,0.1,0.6,0.2,0.8,0.3c0.2,0.1,0.5,0.3,0.7,0.5c0.2,0.2,0.3,0.5,0.4,0.8
		c0.1,0.3,0.2,0.6,0.2,0.9c0,0.5-0.1,1-0.3,1.4c-0.2,0.4-0.5,0.8-0.9,1.1c-0.4,0.3-0.8,0.5-1.4,0.7c-0.5,0.2-1.1,0.2-1.7,0.2
		c-0.5,0-1.1-0.1-1.5-0.2c-0.5-0.1-0.9-0.3-1.3-0.6c-0.4-0.3-0.7-0.6-1-0.9c-0.3-0.4-0.5-0.8-0.5-1.3L371.2,126.6z"/>
	<rect x="409" y="114" class="st7" width="97" height="37"/>
	<path class="st5" d="M410.9,126.9c0.1,0.2,0.3,0.3,0.5,0.5c0.2,0.2,0.4,0.3,0.7,0.4c0.3,0.1,0.5,0.2,0.8,0.3c0.3,0.1,0.6,0.1,1,0.1
		c0.6,0,1.1-0.1,1.5-0.4c0.3-0.3,0.5-0.6,0.5-1c0-0.4-0.2-0.7-0.5-0.9c-0.3-0.2-0.8-0.4-1.4-0.5l-0.4-0.1c-0.5-0.1-0.9-0.2-1.4-0.3
		c-0.5-0.1-0.9-0.3-1.3-0.6c-0.4-0.3-0.7-0.6-0.9-1c-0.2-0.4-0.4-0.9-0.4-1.5c0-0.4,0.1-0.7,0.2-1.1c0.2-0.4,0.4-0.7,0.7-1.1
		c0.3-0.3,0.8-0.6,1.3-0.8c0.5-0.2,1.2-0.3,2-0.3c0.9,0,1.7,0.2,2.4,0.5c0.7,0.3,1.3,0.7,1.7,1.2l-1.5,1.4c-0.3-0.3-0.7-0.6-1.2-0.8
		c-0.5-0.2-1-0.3-1.5-0.3c-0.6,0-1,0.1-1.4,0.3c-0.3,0.2-0.5,0.5-0.5,0.9c0,0.2,0.1,0.4,0.2,0.6c0.1,0.2,0.3,0.3,0.5,0.4
		c0.2,0.1,0.4,0.2,0.7,0.2c0.3,0.1,0.6,0.1,0.9,0.2l0.2,0c0.4,0.1,0.9,0.2,1.3,0.3c0.4,0.1,0.8,0.3,1.2,0.6c0.4,0.2,0.7,0.6,0.9,1
		c0.2,0.4,0.3,0.9,0.3,1.5c0,0.6-0.1,1.1-0.4,1.5c-0.2,0.4-0.5,0.8-0.9,1.1c-0.4,0.3-0.8,0.5-1.3,0.7c-0.5,0.2-1,0.2-1.6,0.2
		c-0.6,0-1.1,0-1.5-0.1c-0.5-0.1-0.9-0.2-1.3-0.4c-0.4-0.2-0.7-0.4-1-0.6c-0.3-0.2-0.6-0.4-0.8-0.7L410.9,126.9z M421.8,126.6
		c0,0.2,0.1,0.5,0.2,0.7c0.1,0.2,0.3,0.4,0.5,0.5c0.2,0.1,0.4,0.3,0.6,0.3c0.2,0.1,0.5,0.1,0.8,0.1c0.3,0,0.7-0.1,1-0.2
		c0.4-0.1,0.7-0.3,1-0.5l1,1.5c-0.4,0.3-0.9,0.6-1.4,0.8c-0.6,0.2-1.2,0.3-1.8,0.3c-0.6,0-1.1-0.1-1.6-0.3c-0.5-0.2-1-0.5-1.3-0.9
		c-0.4-0.4-0.7-0.8-0.9-1.4c-0.2-0.5-0.3-1.1-0.3-1.8c0-0.6,0.1-1.2,0.3-1.7c0.2-0.5,0.5-1,0.8-1.4c0.4-0.4,0.8-0.7,1.3-0.9
		c0.5-0.2,1-0.3,1.6-0.3c0.6,0,1.1,0.1,1.5,0.3c0.5,0.2,0.9,0.5,1.2,0.8c0.3,0.4,0.6,0.8,0.8,1.3c0.2,0.5,0.3,1.1,0.3,1.7v1H421.8z
		 M423.5,123.3c-0.5,0-0.9,0.2-1.2,0.5c-0.3,0.3-0.5,0.7-0.6,1.1h3.4c0-0.4-0.2-0.8-0.5-1.1C424.3,123.5,424,123.3,423.5,123.3z
		 M433.5,123.7h-0.2c-0.3,0-0.6,0-0.9,0.1c-0.3,0.1-0.5,0.2-0.7,0.3c-0.2,0.2-0.4,0.4-0.5,0.7c-0.1,0.3-0.2,0.7-0.2,1.1v4.1h-2.2
		v-8.4h2.2v0.9c0.1-0.1,0.2-0.3,0.3-0.4c0.1-0.1,0.3-0.2,0.5-0.3c0.2-0.1,0.4-0.2,0.6-0.2c0.2-0.1,0.5-0.1,0.8-0.1h0.3V123.7z
		 M436.6,130l-2.6-8.4h2.4l1.5,5.8l1.5-5.8h2.4l-2.5,8.4H436.6z M445.1,130h-2.2v-8.4h2.2V130z M442.7,119.4c0-0.2,0-0.3,0.1-0.5
		c0.1-0.2,0.2-0.3,0.3-0.4c0.1-0.1,0.3-0.2,0.4-0.3c0.2-0.1,0.3-0.1,0.5-0.1c0.2,0,0.3,0,0.5,0.1c0.2,0.1,0.3,0.2,0.4,0.3
		c0.1,0.1,0.2,0.3,0.3,0.4c0.1,0.2,0.1,0.3,0.1,0.5c0,0.2,0,0.4-0.1,0.5c-0.1,0.2-0.2,0.3-0.3,0.4c-0.1,0.1-0.3,0.2-0.4,0.3
		c-0.2,0.1-0.3,0.1-0.5,0.1c-0.2,0-0.4,0-0.5-0.1c-0.2-0.1-0.3-0.2-0.4-0.3c-0.1-0.1-0.2-0.3-0.3-0.4
		C442.7,119.8,442.7,119.6,442.7,119.4z M448.7,125.9c0,0.3,0,0.5,0.1,0.8c0.1,0.3,0.2,0.5,0.3,0.7s0.3,0.4,0.6,0.5
		c0.2,0.1,0.5,0.2,0.9,0.2c0.2,0,0.4,0,0.6-0.1c0.2-0.1,0.3-0.1,0.5-0.2c0.1-0.1,0.3-0.2,0.4-0.4c0.1-0.1,0.2-0.3,0.3-0.5l1.9,1
		c-0.1,0.3-0.3,0.6-0.6,0.9c-0.2,0.3-0.5,0.5-0.8,0.7c-0.3,0.2-0.7,0.3-1,0.4c-0.4,0.1-0.8,0.2-1.2,0.2c-0.6,0-1.1-0.1-1.6-0.3
		c-0.5-0.2-0.9-0.5-1.3-0.9c-0.4-0.4-0.6-0.8-0.8-1.4c-0.2-0.5-0.3-1.1-0.3-1.7c0-0.6,0.1-1.2,0.3-1.7c0.2-0.5,0.5-1,0.8-1.4
		c0.4-0.4,0.8-0.7,1.3-0.9c0.5-0.2,1-0.3,1.6-0.3c0.4,0,0.8,0.1,1.2,0.2c0.4,0.1,0.7,0.2,1,0.4c0.3,0.2,0.6,0.4,0.8,0.7
		c0.2,0.3,0.4,0.6,0.6,0.9l-1.9,1c-0.1-0.2-0.2-0.3-0.3-0.4c-0.1-0.1-0.2-0.3-0.4-0.4c-0.1-0.1-0.3-0.2-0.5-0.2
		c-0.2-0.1-0.4-0.1-0.6-0.1c-0.3,0-0.6,0.1-0.9,0.2c-0.2,0.1-0.4,0.3-0.6,0.5c-0.2,0.2-0.3,0.5-0.3,0.7S448.7,125.5,448.7,125.9
		L448.7,125.9z M457.3,126.6c0,0.2,0.1,0.5,0.2,0.7c0.1,0.2,0.3,0.4,0.5,0.5c0.2,0.1,0.4,0.3,0.6,0.3c0.2,0.1,0.5,0.1,0.8,0.1
		c0.3,0,0.7-0.1,1-0.2c0.4-0.1,0.7-0.3,1-0.5l1,1.5c-0.4,0.3-0.9,0.6-1.4,0.8c-0.6,0.2-1.2,0.3-1.8,0.3c-0.6,0-1.1-0.1-1.6-0.3
		c-0.5-0.2-1-0.5-1.3-0.9c-0.4-0.4-0.7-0.8-0.9-1.4c-0.2-0.5-0.3-1.1-0.3-1.8c0-0.6,0.1-1.2,0.3-1.7c0.2-0.5,0.5-1,0.8-1.4
		c0.4-0.4,0.8-0.7,1.3-0.9c0.5-0.2,1-0.3,1.6-0.3c0.6,0,1.1,0.1,1.5,0.3c0.5,0.2,0.9,0.5,1.2,0.8c0.3,0.4,0.6,0.8,0.8,1.3
		c0.2,0.5,0.3,1.1,0.3,1.7v1H457.3z M459.1,123.3c-0.5,0-0.9,0.2-1.2,0.5c-0.3,0.3-0.5,0.7-0.6,1.1h3.4c0-0.4-0.2-0.8-0.5-1.1
		C459.9,123.5,459.5,123.3,459.1,123.3z M467.2,118.8h2.2v8.9c0,0.2,0,0.3,0.1,0.4c0.1,0.1,0.3,0.1,0.5,0.1c0.1,0,0.2,0,0.3,0
		c0.1,0,0.2,0,0.3-0.1l0.2,1.8c-0.1,0-0.3,0-0.5,0.1c-0.1,0-0.3,0-0.5,0c-0.2,0-0.4,0-0.6,0c-0.3,0-0.6,0-0.8-0.1s-0.5-0.2-0.6-0.3
		c-0.2-0.2-0.3-0.3-0.4-0.6c-0.1-0.2-0.1-0.5-0.1-0.8V118.8z M474.1,130h-2.2v-8.4h2.2V130z M471.7,119.4c0-0.2,0-0.3,0.1-0.5
		c0.1-0.2,0.2-0.3,0.3-0.4c0.1-0.1,0.3-0.2,0.4-0.3c0.2-0.1,0.3-0.1,0.5-0.1c0.2,0,0.3,0,0.5,0.1c0.2,0.1,0.3,0.2,0.4,0.3
		c0.1,0.1,0.2,0.3,0.3,0.4c0.1,0.2,0.1,0.3,0.1,0.5c0,0.2,0,0.4-0.1,0.5c-0.1,0.2-0.2,0.3-0.3,0.4c-0.1,0.1-0.3,0.2-0.4,0.3
		c-0.2,0.1-0.3,0.1-0.5,0.1c-0.2,0-0.4,0-0.5-0.1c-0.2-0.1-0.3-0.2-0.4-0.3c-0.1-0.1-0.2-0.3-0.3-0.4
		C471.7,119.8,471.7,119.6,471.7,119.4z M475.9,121.6h2.2v0.7c0.1-0.1,0.2-0.2,0.4-0.3c0.1-0.1,0.3-0.2,0.5-0.3
		c0.2-0.1,0.4-0.1,0.6-0.2c0.2-0.1,0.4-0.1,0.7-0.1c0.5,0,0.9,0.1,1.2,0.2c0.4,0.1,0.7,0.3,0.9,0.6c0.2,0.3,0.4,0.6,0.6,0.9
		s0.2,0.7,0.2,1.1v5.6H481v-4.9c0-0.3,0-0.5-0.1-0.8c-0.1-0.2-0.2-0.4-0.3-0.5c-0.1-0.1-0.3-0.2-0.4-0.3c-0.2-0.1-0.3-0.1-0.5-0.1
		c-0.2,0-0.4,0-0.6,0.1c-0.2,0.1-0.4,0.2-0.5,0.4c-0.1,0.2-0.2,0.4-0.3,0.6c-0.1,0.2-0.1,0.5-0.1,0.8v4.6h-2.2V121.6z M487.1,124.9
		l2.8-3.3h2.7l-3,3.4l3.1,4.9H490l-2.1-3.4l-0.9,1v2.4h-2.2v-11.2h2.2V124.9z M501.5,130v-2.5h-5.6v-2.4l5-6.3h2.9v6.6h1.6v2h-1.6
		v2.5H501.5z M501.5,125.4V121l-3.5,4.4H501.5z"/>
	<rect x="536" y="114" class="st7" width="97" height="37"/>
	<path class="st5" d="M537.9,126.9c0.1,0.2,0.3,0.3,0.5,0.5c0.2,0.2,0.4,0.3,0.7,0.4c0.3,0.1,0.5,0.2,0.8,0.3c0.3,0.1,0.6,0.1,1,0.1
		c0.6,0,1.1-0.1,1.5-0.4c0.3-0.3,0.5-0.6,0.5-1c0-0.4-0.2-0.7-0.5-0.9c-0.3-0.2-0.8-0.4-1.4-0.5l-0.4-0.1c-0.5-0.1-0.9-0.2-1.4-0.3
		c-0.5-0.1-0.9-0.3-1.3-0.6c-0.4-0.3-0.7-0.6-0.9-1c-0.2-0.4-0.4-0.9-0.4-1.5c0-0.4,0.1-0.7,0.2-1.1c0.2-0.4,0.4-0.7,0.7-1.1
		c0.3-0.3,0.8-0.6,1.3-0.8c0.5-0.2,1.2-0.3,2-0.3c0.9,0,1.7,0.2,2.4,0.5c0.7,0.3,1.3,0.7,1.7,1.2l-1.5,1.4c-0.3-0.3-0.7-0.6-1.2-0.8
		c-0.5-0.2-1-0.3-1.5-0.3c-0.6,0-1,0.1-1.4,0.3c-0.3,0.2-0.5,0.5-0.5,0.9c0,0.2,0.1,0.4,0.2,0.6c0.1,0.2,0.3,0.3,0.5,0.4
		c0.2,0.1,0.4,0.2,0.7,0.2c0.3,0.1,0.6,0.1,0.9,0.2l0.2,0c0.4,0.1,0.9,0.2,1.3,0.3c0.4,0.1,0.8,0.3,1.2,0.6c0.4,0.2,0.7,0.6,0.9,1
		c0.2,0.4,0.3,0.9,0.3,1.5c0,0.6-0.1,1.1-0.4,1.5c-0.2,0.4-0.5,0.8-0.9,1.1c-0.4,0.3-0.8,0.5-1.3,0.7c-0.5,0.2-1,0.2-1.6,0.2
		c-0.6,0-1.1,0-1.5-0.1c-0.5-0.1-0.9-0.2-1.3-0.4c-0.4-0.2-0.7-0.4-1-0.6c-0.3-0.2-0.6-0.4-0.8-0.7L537.9,126.9z M548.8,126.6
		c0,0.2,0.1,0.5,0.2,0.7c0.1,0.2,0.3,0.4,0.5,0.5c0.2,0.1,0.4,0.3,0.6,0.3c0.2,0.1,0.5,0.1,0.8,0.1c0.3,0,0.7-0.1,1-0.2
		c0.4-0.1,0.7-0.3,1-0.5l1,1.5c-0.4,0.3-0.9,0.6-1.4,0.8c-0.6,0.2-1.2,0.3-1.8,0.3c-0.6,0-1.1-0.1-1.6-0.3c-0.5-0.2-1-0.5-1.3-0.9
		c-0.4-0.4-0.7-0.8-0.9-1.4c-0.2-0.5-0.3-1.1-0.3-1.8c0-0.6,0.1-1.2,0.3-1.7c0.2-0.5,0.5-1,0.8-1.4c0.4-0.4,0.8-0.7,1.3-0.9
		c0.5-0.2,1-0.3,1.6-0.3c0.6,0,1.1,0.1,1.5,0.3c0.5,0.2,0.9,0.5,1.2,0.8c0.3,0.4,0.6,0.8,0.8,1.3c0.2,0.5,0.3,1.1,0.3,1.7v1H548.8z
		 M550.5,123.3c-0.5,0-0.9,0.2-1.2,0.5c-0.3,0.3-0.5,0.7-0.6,1.1h3.4c0-0.4-0.2-0.8-0.5-1.1C551.3,123.5,551,123.3,550.5,123.3z
		 M560.5,123.7h-0.2c-0.3,0-0.6,0-0.9,0.1c-0.3,0.1-0.5,0.2-0.7,0.3c-0.2,0.2-0.4,0.4-0.5,0.7c-0.1,0.3-0.2,0.7-0.2,1.1v4.1h-2.2
		v-8.4h2.2v0.9c0.1-0.1,0.2-0.3,0.3-0.4c0.1-0.1,0.3-0.2,0.5-0.3c0.2-0.1,0.4-0.2,0.6-0.2c0.2-0.1,0.5-0.1,0.8-0.1h0.3V123.7z
		 M563.6,130l-2.6-8.4h2.4l1.5,5.8l1.5-5.8h2.4l-2.5,8.4H563.6z M572.1,130h-2.2v-8.4h2.2V130z M569.7,119.4c0-0.2,0-0.3,0.1-0.5
		c0.1-0.2,0.2-0.3,0.3-0.4c0.1-0.1,0.3-0.2,0.4-0.3c0.2-0.1,0.3-0.1,0.5-0.1c0.2,0,0.3,0,0.5,0.1c0.2,0.1,0.3,0.2,0.4,0.3
		c0.1,0.1,0.2,0.3,0.3,0.4c0.1,0.2,0.1,0.3,0.1,0.5c0,0.2,0,0.4-0.1,0.5c-0.1,0.2-0.2,0.3-0.3,0.4c-0.1,0.1-0.3,0.2-0.4,0.3
		c-0.2,0.1-0.3,0.1-0.5,0.1c-0.2,0-0.4,0-0.5-0.1c-0.2-0.1-0.3-0.2-0.4-0.3c-0.1-0.1-0.2-0.3-0.3-0.4
		C569.7,119.8,569.7,119.6,569.7,119.4z M575.7,125.9c0,0.3,0,0.5,0.1,0.8c0.1,0.3,0.2,0.5,0.3,0.7s0.3,0.4,0.6,0.5
		c0.2,0.1,0.5,0.2,0.9,0.2c0.2,0,0.4,0,0.6-0.1c0.2-0.1,0.3-0.1,0.5-0.2c0.1-0.1,0.3-0.2,0.4-0.4c0.1-0.1,0.2-0.3,0.3-0.5l1.9,1
		c-0.1,0.3-0.3,0.6-0.6,0.9c-0.2,0.3-0.5,0.5-0.8,0.7c-0.3,0.2-0.7,0.3-1,0.4c-0.4,0.1-0.8,0.2-1.2,0.2c-0.6,0-1.1-0.1-1.6-0.3
		c-0.5-0.2-0.9-0.5-1.3-0.9c-0.4-0.4-0.6-0.8-0.8-1.4c-0.2-0.5-0.3-1.1-0.3-1.7c0-0.6,0.1-1.2,0.3-1.7c0.2-0.5,0.5-1,0.8-1.4
		c0.4-0.4,0.8-0.7,1.3-0.9c0.5-0.2,1-0.3,1.6-0.3c0.4,0,0.8,0.1,1.2,0.2c0.4,0.1,0.7,0.2,1,0.4c0.3,0.2,0.6,0.4,0.8,0.7
		c0.2,0.3,0.4,0.6,0.6,0.9l-1.9,1c-0.1-0.2-0.2-0.3-0.3-0.4c-0.1-0.1-0.2-0.3-0.4-0.4c-0.1-0.1-0.3-0.2-0.5-0.2
		c-0.2-0.1-0.4-0.1-0.6-0.1c-0.3,0-0.6,0.1-0.9,0.2c-0.2,0.1-0.4,0.3-0.6,0.5c-0.2,0.2-0.3,0.5-0.3,0.7S575.7,125.5,575.7,125.9
		L575.7,125.9z M584.3,126.6c0,0.2,0.1,0.5,0.2,0.7c0.1,0.2,0.3,0.4,0.5,0.5c0.2,0.1,0.4,0.3,0.6,0.3c0.2,0.1,0.5,0.1,0.8,0.1
		c0.3,0,0.7-0.1,1-0.2c0.4-0.1,0.7-0.3,1-0.5l1,1.5c-0.4,0.3-0.9,0.6-1.4,0.8c-0.6,0.2-1.2,0.3-1.8,0.3c-0.6,0-1.1-0.1-1.6-0.3
		c-0.5-0.2-1-0.5-1.3-0.9c-0.4-0.4-0.7-0.8-0.9-1.4c-0.2-0.5-0.3-1.1-0.3-1.8c0-0.6,0.1-1.2,0.3-1.7c0.2-0.5,0.5-1,0.8-1.4
		c0.4-0.4,0.8-0.7,1.3-0.9c0.5-0.2,1-0.3,1.6-0.3c0.6,0,1.1,0.1,1.5,0.3c0.5,0.2,0.9,0.5,1.2,0.8c0.3,0.4,0.6,0.8,0.8,1.3
		c0.2,0.5,0.3,1.1,0.3,1.7v1H584.3z M586.1,123.3c-0.5,0-0.9,0.2-1.2,0.5c-0.3,0.3-0.5,0.7-0.6,1.1h3.4c0-0.4-0.2-0.8-0.5-1.1
		C586.9,123.5,586.5,123.3,586.1,123.3z M594.2,118.8h2.2v8.9c0,0.2,0,0.3,0.1,0.4c0.1,0.1,0.3,0.1,0.5,0.1c0.1,0,0.2,0,0.3,0
		c0.1,0,0.2,0,0.3-0.1l0.2,1.8c-0.1,0-0.3,0-0.5,0.1c-0.1,0-0.3,0-0.5,0c-0.2,0-0.4,0-0.6,0c-0.3,0-0.6,0-0.8-0.1s-0.5-0.2-0.6-0.3
		c-0.2-0.2-0.3-0.3-0.4-0.6c-0.1-0.2-0.1-0.5-0.1-0.8V118.8z M601.1,130h-2.2v-8.4h2.2V130z M598.7,119.4c0-0.2,0-0.3,0.1-0.5
		c0.1-0.2,0.2-0.3,0.3-0.4c0.1-0.1,0.3-0.2,0.4-0.3c0.2-0.1,0.3-0.1,0.5-0.1c0.2,0,0.3,0,0.5,0.1c0.2,0.1,0.3,0.2,0.4,0.3
		c0.1,0.1,0.2,0.3,0.3,0.4c0.1,0.2,0.1,0.3,0.1,0.5c0,0.2,0,0.4-0.1,0.5c-0.1,0.2-0.2,0.3-0.3,0.4c-0.1,0.1-0.3,0.2-0.4,0.3
		c-0.2,0.1-0.3,0.1-0.5,0.1c-0.2,0-0.4,0-0.5-0.1c-0.2-0.1-0.3-0.2-0.4-0.3c-0.1-0.1-0.2-0.3-0.3-0.4
		C598.7,119.8,598.7,119.6,598.7,119.4z M602.9,121.6h2.2v0.7c0.1-0.1,0.2-0.2,0.4-0.3c0.1-0.1,0.3-0.2,0.5-0.3
		c0.2-0.1,0.4-0.1,0.6-0.2c0.2-0.1,0.4-0.1,0.7-0.1c0.5,0,0.9,0.1,1.2,0.2c0.4,0.1,0.7,0.3,0.9,0.6c0.2,0.3,0.4,0.6,0.6,0.9
		s0.2,0.7,0.2,1.1v5.6H608v-4.9c0-0.3,0-0.5-0.1-0.8c-0.1-0.2-0.2-0.4-0.3-0.5c-0.1-0.1-0.3-0.2-0.4-0.3c-0.2-0.1-0.3-0.1-0.5-0.1
		c-0.2,0-0.4,0-0.6,0.1c-0.2,0.1-0.4,0.2-0.5,0.4c-0.1,0.2-0.2,0.4-0.3,0.6c-0.1,0.2-0.1,0.5-0.1,0.8v4.6h-2.2V121.6z M614.1,124.9
		l2.8-3.3h2.7l-3,3.4l3.1,4.9H617l-2.1-3.4l-0.9,1v2.4h-2.2v-11.2h2.2V124.9z M623.4,124.9l0.6-6.1h7.2v2.1h-5.3l-0.2,2.1
		c0.1-0.1,0.3-0.2,0.4-0.3c0.2-0.1,0.3-0.2,0.5-0.2c0.2-0.1,0.4-0.1,0.6-0.1c0.2,0,0.4,0,0.6,0c0.6,0,1.1,0.1,1.6,0.3
		c0.5,0.2,0.9,0.4,1.2,0.8c0.3,0.3,0.6,0.7,0.8,1.2c0.2,0.5,0.3,1,0.3,1.6c0,0.6-0.1,1.2-0.3,1.7c-0.2,0.5-0.5,0.9-0.9,1.3
		c-0.4,0.4-0.9,0.6-1.4,0.8c-0.5,0.2-1.1,0.3-1.7,0.3c-0.5,0-1-0.1-1.4-0.2c-0.5-0.1-0.9-0.3-1.3-0.6c-0.4-0.2-0.7-0.5-1-0.9
		c-0.3-0.4-0.5-0.8-0.6-1.2l2.1-0.7c0.2,0.5,0.4,0.9,0.8,1.1c0.3,0.3,0.8,0.4,1.4,0.4c0.3,0,0.6-0.1,0.9-0.2
		c0.3-0.1,0.5-0.3,0.6-0.4c0.2-0.2,0.3-0.4,0.4-0.6c0.1-0.2,0.1-0.5,0.1-0.7c0-0.2,0-0.5-0.1-0.7c-0.1-0.2-0.2-0.4-0.4-0.6
		c-0.2-0.2-0.4-0.3-0.7-0.4c-0.3-0.1-0.5-0.2-0.9-0.2c-0.2,0-0.4,0-0.6,0.1c-0.2,0.1-0.3,0.1-0.5,0.2c-0.2,0.1-0.3,0.2-0.4,0.3
		c-0.1,0.1-0.2,0.2-0.3,0.3L623.4,124.9z"/>
	<rect x="663" y="114" class="st7" width="97" height="37"/>
	<path class="st5" d="M664.9,126.9c0.1,0.2,0.3,0.3,0.5,0.5c0.2,0.2,0.4,0.3,0.7,0.4c0.3,0.1,0.5,0.2,0.8,0.3c0.3,0.1,0.6,0.1,1,0.1
		c0.6,0,1.1-0.1,1.5-0.4c0.3-0.3,0.5-0.6,0.5-1c0-0.4-0.2-0.7-0.5-0.9c-0.3-0.2-0.8-0.4-1.4-0.5l-0.4-0.1c-0.5-0.1-0.9-0.2-1.4-0.3
		c-0.5-0.1-0.9-0.3-1.3-0.6c-0.4-0.3-0.7-0.6-0.9-1c-0.2-0.4-0.4-0.9-0.4-1.5c0-0.4,0.1-0.7,0.2-1.1c0.2-0.4,0.4-0.7,0.7-1.1
		c0.3-0.3,0.8-0.6,1.3-0.8c0.5-0.2,1.2-0.3,2-0.3c0.9,0,1.7,0.2,2.4,0.5c0.7,0.3,1.3,0.7,1.7,1.2l-1.5,1.4c-0.3-0.3-0.7-0.6-1.2-0.8
		c-0.5-0.2-1-0.3-1.5-0.3c-0.6,0-1,0.1-1.4,0.3c-0.3,0.2-0.5,0.5-0.5,0.9c0,0.2,0.1,0.4,0.2,0.6c0.1,0.2,0.3,0.3,0.5,0.4
		c0.2,0.1,0.4,0.2,0.7,0.2c0.3,0.1,0.6,0.1,0.9,0.2l0.2,0c0.4,0.1,0.9,0.2,1.3,0.3c0.4,0.1,0.8,0.3,1.2,0.6c0.4,0.2,0.7,0.6,0.9,1
		c0.2,0.4,0.3,0.9,0.3,1.5c0,0.6-0.1,1.1-0.4,1.5c-0.2,0.4-0.5,0.8-0.9,1.1c-0.4,0.3-0.8,0.5-1.3,0.7c-0.5,0.2-1,0.2-1.6,0.2
		c-0.6,0-1.1,0-1.5-0.1c-0.5-0.1-0.9-0.2-1.3-0.4c-0.4-0.2-0.7-0.4-1-0.6c-0.3-0.2-0.6-0.4-0.8-0.7L664.9,126.9z M675.8,126.6
		c0,0.2,0.1,0.5,0.2,0.7c0.1,0.2,0.3,0.4,0.5,0.5c0.2,0.1,0.4,0.3,0.6,0.3c0.2,0.1,0.5,0.1,0.8,0.1c0.3,0,0.7-0.1,1-0.2
		c0.4-0.1,0.7-0.3,1-0.5l1,1.5c-0.4,0.3-0.9,0.6-1.4,0.8c-0.6,0.2-1.2,0.3-1.8,0.3c-0.6,0-1.1-0.1-1.6-0.3c-0.5-0.2-1-0.5-1.3-0.9
		c-0.4-0.4-0.7-0.8-0.9-1.4c-0.2-0.5-0.3-1.1-0.3-1.8c0-0.6,0.1-1.2,0.3-1.7c0.2-0.5,0.5-1,0.8-1.4c0.4-0.4,0.8-0.7,1.3-0.9
		c0.5-0.2,1-0.3,1.6-0.3c0.6,0,1.1,0.1,1.5,0.3c0.5,0.2,0.9,0.5,1.2,0.8c0.3,0.4,0.6,0.8,0.8,1.3c0.2,0.5,0.3,1.1,0.3,1.7v1H675.8z
		 M677.5,123.3c-0.5,0-0.9,0.2-1.2,0.5c-0.3,0.3-0.5,0.7-0.6,1.1h3.4c0-0.4-0.2-0.8-0.5-1.1C678.3,123.5,678,123.3,677.5,123.3z
		 M687.5,123.7h-0.2c-0.3,0-0.6,0-0.9,0.1c-0.3,0.1-0.5,0.2-0.7,0.3c-0.2,0.2-0.4,0.4-0.5,0.7c-0.1,0.3-0.2,0.7-0.2,1.1v4.1h-2.2
		v-8.4h2.2v0.9c0.1-0.1,0.2-0.3,0.3-0.4c0.1-0.1,0.3-0.2,0.5-0.3c0.2-0.1,0.4-0.2,0.6-0.2c0.2-0.1,0.5-0.1,0.8-0.1h0.3V123.7z
		 M690.6,130l-2.6-8.4h2.4l1.5,5.8l1.5-5.8h2.4l-2.5,8.4H690.6z M699.1,130h-2.2v-8.4h2.2V130z M696.7,119.4c0-0.2,0-0.3,0.1-0.5
		c0.1-0.2,0.2-0.3,0.3-0.4c0.1-0.1,0.3-0.2,0.4-0.3c0.2-0.1,0.3-0.1,0.5-0.1c0.2,0,0.3,0,0.5,0.1c0.2,0.1,0.3,0.2,0.4,0.3
		c0.1,0.1,0.2,0.3,0.3,0.4c0.1,0.2,0.1,0.3,0.1,0.5c0,0.2,0,0.4-0.1,0.5c-0.1,0.2-0.2,0.3-0.3,0.4c-0.1,0.1-0.3,0.2-0.4,0.3
		c-0.2,0.1-0.3,0.1-0.5,0.1c-0.2,0-0.4,0-0.5-0.1c-0.2-0.1-0.3-0.2-0.4-0.3c-0.1-0.1-0.2-0.3-0.3-0.4
		C696.7,119.8,696.7,119.6,696.7,119.4z M702.7,125.9c0,0.3,0,0.5,0.1,0.8c0.1,0.3,0.2,0.5,0.3,0.7s0.3,0.4,0.6,0.5
		c0.2,0.1,0.5,0.2,0.9,0.2c0.2,0,0.4,0,0.6-0.1c0.2-0.1,0.3-0.1,0.5-0.2c0.1-0.1,0.3-0.2,0.4-0.4c0.1-0.1,0.2-0.3,0.3-0.5l1.9,1
		c-0.1,0.3-0.3,0.6-0.6,0.9c-0.2,0.3-0.5,0.5-0.8,0.7c-0.3,0.2-0.7,0.3-1,0.4c-0.4,0.1-0.8,0.2-1.2,0.2c-0.6,0-1.1-0.1-1.6-0.3
		c-0.5-0.2-0.9-0.5-1.3-0.9c-0.4-0.4-0.6-0.8-0.8-1.4c-0.2-0.5-0.3-1.1-0.3-1.7c0-0.6,0.1-1.2,0.3-1.7c0.2-0.5,0.5-1,0.8-1.4
		c0.4-0.4,0.8-0.7,1.3-0.9c0.5-0.2,1-0.3,1.6-0.3c0.4,0,0.8,0.1,1.2,0.2c0.4,0.1,0.7,0.2,1,0.4c0.3,0.2,0.6,0.4,0.8,0.7
		c0.2,0.3,0.4,0.6,0.6,0.9l-1.9,1c-0.1-0.2-0.2-0.3-0.3-0.4c-0.1-0.1-0.2-0.3-0.4-0.4c-0.1-0.1-0.3-0.2-0.5-0.2
		c-0.2-0.1-0.4-0.1-0.6-0.1c-0.3,0-0.6,0.1-0.9,0.2c-0.2,0.1-0.4,0.3-0.6,0.5c-0.2,0.2-0.3,0.5-0.3,0.7S702.7,125.5,702.7,125.9
		L702.7,125.9z M711.3,126.6c0,0.2,0.1,0.5,0.2,0.7c0.1,0.2,0.3,0.4,0.5,0.5c0.2,0.1,0.4,0.3,0.6,0.3c0.2,0.1,0.5,0.1,0.8,0.1
		c0.3,0,0.7-0.1,1-0.2c0.4-0.1,0.7-0.3,1-0.5l1,1.5c-0.4,0.3-0.9,0.6-1.4,0.8c-0.6,0.2-1.2,0.3-1.8,0.3c-0.6,0-1.1-0.1-1.6-0.3
		c-0.5-0.2-1-0.5-1.3-0.9c-0.4-0.4-0.7-0.8-0.9-1.4c-0.2-0.5-0.3-1.1-0.3-1.8c0-0.6,0.1-1.2,0.3-1.7c0.2-0.5,0.5-1,0.8-1.4
		c0.4-0.4,0.8-0.7,1.3-0.9c0.5-0.2,1-0.3,1.6-0.3c0.6,0,1.1,0.1,1.5,0.3c0.5,0.2,0.9,0.5,1.2,0.8c0.3,0.4,0.6,0.8,0.8,1.3
		c0.2,0.5,0.3,1.1,0.3,1.7v1H711.3z M713.1,123.3c-0.5,0-0.9,0.2-1.2,0.5c-0.3,0.3-0.5,0.7-0.6,1.1h3.4c0-0.4-0.2-0.8-0.5-1.1
		C713.9,123.5,713.5,123.3,713.1,123.3z M721.2,118.8h2.2v8.9c0,0.2,0,0.3,0.1,0.4c0.1,0.1,0.3,0.1,0.5,0.1c0.1,0,0.2,0,0.3,0
		c0.1,0,0.2,0,0.3-0.1l0.2,1.8c-0.1,0-0.3,0-0.5,0.1c-0.1,0-0.3,0-0.5,0c-0.2,0-0.4,0-0.6,0c-0.3,0-0.6,0-0.8-0.1s-0.5-0.2-0.6-0.3
		c-0.2-0.2-0.3-0.3-0.4-0.6c-0.1-0.2-0.1-0.5-0.1-0.8V118.8z M728.1,130h-2.2v-8.4h2.2V130z M725.7,119.4c0-0.2,0-0.3,0.1-0.5
		c0.1-0.2,0.2-0.3,0.3-0.4c0.1-0.1,0.3-0.2,0.4-0.3c0.2-0.1,0.3-0.1,0.5-0.1c0.2,0,0.3,0,0.5,0.1c0.2,0.1,0.3,0.2,0.4,0.3
		c0.1,0.1,0.2,0.3,0.3,0.4c0.1,0.2,0.1,0.3,0.1,0.5c0,0.2,0,0.4-0.1,0.5c-0.1,0.2-0.2,0.3-0.3,0.4c-0.1,0.1-0.3,0.2-0.4,0.3
		c-0.2,0.1-0.3,0.1-0.5,0.1c-0.2,0-0.4,0-0.5-0.1c-0.2-0.1-0.3-0.2-0.4-0.3c-0.1-0.1-0.2-0.3-0.3-0.4
		C725.7,119.8,725.7,119.6,725.7,119.4z M729.9,121.6h2.2v0.7c0.1-0.1,0.2-0.2,0.4-0.3c0.1-0.1,0.3-0.2,0.5-0.3
		c0.2-0.1,0.4-0.1,0.6-0.2c0.2-0.1,0.4-0.1,0.7-0.1c0.5,0,0.9,0.1,1.2,0.2c0.4,0.1,0.7,0.3,0.9,0.6c0.2,0.3,0.4,0.6,0.6,0.9
		s0.2,0.7,0.2,1.1v5.6H735v-4.9c0-0.3,0-0.5-0.1-0.8c-0.1-0.2-0.2-0.4-0.3-0.5c-0.1-0.1-0.3-0.2-0.4-0.3c-0.2-0.1-0.3-0.1-0.5-0.1
		c-0.2,0-0.4,0-0.6,0.1c-0.2,0.1-0.4,0.2-0.5,0.4c-0.1,0.2-0.2,0.4-0.3,0.6c-0.1,0.2-0.1,0.5-0.1,0.8v4.6h-2.2V121.6z M741.1,124.9
		l2.8-3.3h2.7l-3,3.4l3.1,4.9H744l-2.1-3.4l-0.9,1v2.4h-2.2v-11.2h2.2V124.9z M750.1,124.5c0-0.5,0-1,0.1-1.5
		c0.1-0.5,0.2-0.9,0.4-1.4c0.2-0.4,0.4-0.8,0.6-1.2c0.3-0.4,0.6-0.7,0.9-1c0.4-0.3,0.8-0.5,1.2-0.6c0.5-0.2,1-0.2,1.6-0.2
		c0.5,0,0.9,0.1,1.3,0.2c0.4,0.1,0.8,0.3,1.1,0.5c0.3,0.2,0.6,0.4,0.9,0.7c0.2,0.3,0.4,0.6,0.6,0.9l-2.1,0.8
		c-0.2-0.4-0.4-0.6-0.8-0.8c-0.3-0.2-0.7-0.3-1.1-0.3c-0.4,0-0.7,0.1-1,0.2c-0.3,0.2-0.5,0.4-0.8,0.6c-0.2,0.3-0.4,0.6-0.5,0.9
		c-0.1,0.4-0.2,0.7-0.2,1.1c0.1-0.1,0.3-0.3,0.5-0.4c0.2-0.1,0.4-0.2,0.6-0.3c0.2-0.1,0.5-0.2,0.7-0.2c0.3-0.1,0.5-0.1,0.8-0.1
		c0.5,0,1.1,0.1,1.5,0.3c0.5,0.2,0.9,0.4,1.2,0.8c0.3,0.3,0.6,0.7,0.8,1.1s0.3,0.9,0.3,1.5c0,0.6-0.1,1.1-0.3,1.6
		c-0.2,0.5-0.5,0.9-0.9,1.3c-0.4,0.3-0.8,0.6-1.3,0.8c-0.5,0.2-1.1,0.3-1.7,0.3c-0.7,0-1.3-0.1-1.9-0.4c-0.6-0.2-1.1-0.6-1.5-1.1
		c-0.4-0.5-0.7-1-0.9-1.7c-0.2-0.7-0.3-1.4-0.3-2.3V124.5z M752.7,126.3c0,0.3,0,0.5,0.1,0.7c0.1,0.2,0.2,0.4,0.4,0.6
		c0.2,0.2,0.4,0.3,0.6,0.4c0.2,0.1,0.5,0.1,0.8,0.1c0.3,0,0.6-0.1,0.8-0.1c0.2-0.1,0.5-0.2,0.6-0.4c0.2-0.2,0.3-0.4,0.4-0.6
		c0.1-0.2,0.1-0.5,0.1-0.7c0-0.3,0-0.5-0.1-0.7c-0.1-0.2-0.2-0.4-0.4-0.6c-0.2-0.2-0.4-0.3-0.6-0.4c-0.2-0.1-0.5-0.1-0.8-0.1
		c-0.3,0-0.6,0-0.8,0.1s-0.5,0.2-0.6,0.4c-0.2,0.2-0.3,0.4-0.4,0.6C752.7,125.8,752.7,126.1,752.7,126.3z"/>
	<rect x="790" y="114" class="st7" width="96" height="37"/>
	<path class="st5" d="M791.9,126.9c0.1,0.2,0.3,0.3,0.5,0.5c0.2,0.2,0.4,0.3,0.7,0.4c0.3,0.1,0.5,0.2,0.8,0.3c0.3,0.1,0.6,0.1,1,0.1
		c0.6,0,1.1-0.1,1.5-0.4c0.3-0.3,0.5-0.6,0.5-1c0-0.4-0.2-0.7-0.5-0.9c-0.3-0.2-0.8-0.4-1.4-0.5l-0.4-0.1c-0.5-0.1-0.9-0.2-1.4-0.3
		c-0.5-0.1-0.9-0.3-1.3-0.6c-0.4-0.3-0.7-0.6-0.9-1c-0.2-0.4-0.4-0.9-0.4-1.5c0-0.4,0.1-0.7,0.2-1.1c0.2-0.4,0.4-0.7,0.7-1.1
		c0.3-0.3,0.8-0.6,1.3-0.8c0.5-0.2,1.2-0.3,2-0.3c0.9,0,1.7,0.2,2.4,0.5c0.7,0.3,1.3,0.7,1.7,1.2l-1.5,1.4c-0.3-0.3-0.7-0.6-1.2-0.8
		c-0.5-0.2-1-0.3-1.5-0.3c-0.6,0-1,0.1-1.4,0.3c-0.3,0.2-0.5,0.5-0.5,0.9c0,0.2,0.1,0.4,0.2,0.6c0.1,0.2,0.3,0.3,0.5,0.4
		c0.2,0.1,0.4,0.2,0.7,0.2c0.3,0.1,0.6,0.1,0.9,0.2l0.2,0c0.4,0.1,0.9,0.2,1.3,0.3c0.4,0.1,0.8,0.3,1.2,0.6c0.4,0.2,0.7,0.6,0.9,1
		c0.2,0.4,0.3,0.9,0.3,1.5c0,0.6-0.1,1.1-0.4,1.5c-0.2,0.4-0.5,0.8-0.9,1.1c-0.4,0.3-0.8,0.5-1.3,0.7c-0.5,0.2-1,0.2-1.6,0.2
		c-0.6,0-1.1,0-1.5-0.1c-0.5-0.1-0.9-0.2-1.3-0.4c-0.4-0.2-0.7-0.4-1-0.6c-0.3-0.2-0.6-0.4-0.8-0.7L791.9,126.9z M802.8,126.6
		c0,0.2,0.1,0.5,0.2,0.7c0.1,0.2,0.3,0.4,0.5,0.5c0.2,0.1,0.4,0.3,0.6,0.3c0.2,0.1,0.5,0.1,0.8,0.1c0.3,0,0.7-0.1,1-0.2
		c0.4-0.1,0.7-0.3,1-0.5l1,1.5c-0.4,0.3-0.9,0.6-1.4,0.8c-0.6,0.2-1.2,0.3-1.8,0.3c-0.6,0-1.1-0.1-1.6-0.3c-0.5-0.2-1-0.5-1.3-0.9
		c-0.4-0.4-0.7-0.8-0.9-1.4c-0.2-0.5-0.3-1.1-0.3-1.8c0-0.6,0.1-1.2,0.3-1.7c0.2-0.5,0.5-1,0.8-1.4c0.4-0.4,0.8-0.7,1.3-0.9
		c0.5-0.2,1-0.3,1.6-0.3c0.6,0,1.1,0.1,1.5,0.3c0.5,0.2,0.9,0.5,1.2,0.8c0.3,0.4,0.6,0.8,0.8,1.3c0.2,0.5,0.3,1.1,0.3,1.7v1H802.8z
		 M804.5,123.3c-0.5,0-0.9,0.2-1.2,0.5c-0.3,0.3-0.5,0.7-0.6,1.1h3.4c0-0.4-0.2-0.8-0.5-1.1C805.3,123.5,805,123.3,804.5,123.3z
		 M814.5,123.7h-0.2c-0.3,0-0.6,0-0.9,0.1c-0.3,0.1-0.5,0.2-0.7,0.3c-0.2,0.2-0.4,0.4-0.5,0.7c-0.1,0.3-0.2,0.7-0.2,1.1v4.1h-2.2
		v-8.4h2.2v0.9c0.1-0.1,0.2-0.3,0.3-0.4c0.1-0.1,0.3-0.2,0.5-0.3c0.2-0.1,0.4-0.2,0.6-0.2c0.2-0.1,0.5-0.1,0.8-0.1h0.3V123.7z
		 M817.6,130l-2.6-8.4h2.4l1.5,5.8l1.5-5.8h2.4l-2.5,8.4H817.6z M826.1,130h-2.2v-8.4h2.2V130z M823.7,119.4c0-0.2,0-0.3,0.1-0.5
		c0.1-0.2,0.2-0.3,0.3-0.4c0.1-0.1,0.3-0.2,0.4-0.3c0.2-0.1,0.3-0.1,0.5-0.1c0.2,0,0.3,0,0.5,0.1c0.2,0.1,0.3,0.2,0.4,0.3
		c0.1,0.1,0.2,0.3,0.3,0.4c0.1,0.2,0.1,0.3,0.1,0.5c0,0.2,0,0.4-0.1,0.5c-0.1,0.2-0.2,0.3-0.3,0.4c-0.1,0.1-0.3,0.2-0.4,0.3
		c-0.2,0.1-0.3,0.1-0.5,0.1c-0.2,0-0.4,0-0.5-0.1c-0.2-0.1-0.3-0.2-0.4-0.3c-0.1-0.1-0.2-0.3-0.3-0.4
		C823.7,119.8,823.7,119.6,823.7,119.4z M829.7,125.9c0,0.3,0,0.5,0.1,0.8c0.1,0.3,0.2,0.5,0.3,0.7s0.3,0.4,0.6,0.5
		c0.2,0.1,0.5,0.2,0.9,0.2c0.2,0,0.4,0,0.6-0.1c0.2-0.1,0.3-0.1,0.5-0.2c0.1-0.1,0.3-0.2,0.4-0.4c0.1-0.1,0.2-0.3,0.3-0.5l1.9,1
		c-0.1,0.3-0.3,0.6-0.6,0.9c-0.2,0.3-0.5,0.5-0.8,0.7c-0.3,0.2-0.7,0.3-1,0.4c-0.4,0.1-0.8,0.2-1.2,0.2c-0.6,0-1.1-0.1-1.6-0.3
		c-0.5-0.2-0.9-0.5-1.3-0.9c-0.4-0.4-0.6-0.8-0.8-1.4c-0.2-0.5-0.3-1.1-0.3-1.7c0-0.6,0.1-1.2,0.3-1.7c0.2-0.5,0.5-1,0.8-1.4
		c0.4-0.4,0.8-0.7,1.3-0.9c0.5-0.2,1-0.3,1.6-0.3c0.4,0,0.8,0.1,1.2,0.2c0.4,0.1,0.7,0.2,1,0.4c0.3,0.2,0.6,0.4,0.8,0.7
		c0.2,0.3,0.4,0.6,0.6,0.9l-1.9,1c-0.1-0.2-0.2-0.3-0.3-0.4c-0.1-0.1-0.2-0.3-0.4-0.4c-0.1-0.1-0.3-0.2-0.5-0.2
		c-0.2-0.1-0.4-0.1-0.6-0.1c-0.3,0-0.6,0.1-0.9,0.2c-0.2,0.1-0.4,0.3-0.6,0.5c-0.2,0.2-0.3,0.5-0.3,0.7S829.7,125.5,829.7,125.9
		L829.7,125.9z M838.3,126.6c0,0.2,0.1,0.5,0.2,0.7c0.1,0.2,0.3,0.4,0.5,0.5c0.2,0.1,0.4,0.3,0.6,0.3c0.2,0.1,0.5,0.1,0.8,0.1
		c0.3,0,0.7-0.1,1-0.2c0.4-0.1,0.7-0.3,1-0.5l1,1.5c-0.4,0.3-0.9,0.6-1.4,0.8c-0.6,0.2-1.2,0.3-1.8,0.3c-0.6,0-1.1-0.1-1.6-0.3
		c-0.5-0.2-1-0.5-1.3-0.9c-0.4-0.4-0.7-0.8-0.9-1.4c-0.2-0.5-0.3-1.1-0.3-1.8c0-0.6,0.1-1.2,0.3-1.7c0.2-0.5,0.5-1,0.8-1.4
		c0.4-0.4,0.8-0.7,1.3-0.9c0.5-0.2,1-0.3,1.6-0.3c0.6,0,1.1,0.1,1.5,0.3c0.5,0.2,0.9,0.5,1.2,0.8c0.3,0.4,0.6,0.8,0.8,1.3
		c0.2,0.5,0.3,1.1,0.3,1.7v1H838.3z M840.1,123.3c-0.5,0-0.9,0.2-1.2,0.5c-0.3,0.3-0.5,0.7-0.6,1.1h3.4c0-0.4-0.2-0.8-0.5-1.1
		C840.9,123.5,840.5,123.3,840.1,123.3z M848.2,118.8h2.2v8.9c0,0.2,0,0.3,0.1,0.4c0.1,0.1,0.3,0.1,0.5,0.1c0.1,0,0.2,0,0.3,0
		c0.1,0,0.2,0,0.3-0.1l0.2,1.8c-0.1,0-0.3,0-0.5,0.1c-0.1,0-0.3,0-0.5,0c-0.2,0-0.4,0-0.6,0c-0.3,0-0.6,0-0.8-0.1s-0.5-0.2-0.6-0.3
		c-0.2-0.2-0.3-0.3-0.4-0.6c-0.1-0.2-0.1-0.5-0.1-0.8V118.8z M855.1,130h-2.2v-8.4h2.2V130z M852.7,119.4c0-0.2,0-0.3,0.1-0.5
		c0.1-0.2,0.2-0.3,0.3-0.4c0.1-0.1,0.3-0.2,0.4-0.3c0.2-0.1,0.3-0.1,0.5-0.1c0.2,0,0.3,0,0.5,0.1c0.2,0.1,0.3,0.2,0.4,0.3
		c0.1,0.1,0.2,0.3,0.3,0.4c0.1,0.2,0.1,0.3,0.1,0.5c0,0.2,0,0.4-0.1,0.5c-0.1,0.2-0.2,0.3-0.3,0.4c-0.1,0.1-0.3,0.2-0.4,0.3
		c-0.2,0.1-0.3,0.1-0.5,0.1c-0.2,0-0.4,0-0.5-0.1c-0.2-0.1-0.3-0.2-0.4-0.3c-0.1-0.1-0.2-0.3-0.3-0.4
		C852.7,119.8,852.7,119.6,852.7,119.4z M856.9,121.6h2.2v0.7c0.1-0.1,0.2-0.2,0.4-0.3c0.1-0.1,0.3-0.2,0.5-0.3
		c0.2-0.1,0.4-0.1,0.6-0.2c0.2-0.1,0.4-0.1,0.7-0.1c0.5,0,0.9,0.1,1.2,0.2c0.4,0.1,0.7,0.3,0.9,0.6c0.2,0.3,0.4,0.6,0.6,0.9
		s0.2,0.7,0.2,1.1v5.6H862v-4.9c0-0.3,0-0.5-0.1-0.8c-0.1-0.2-0.2-0.4-0.3-0.5c-0.1-0.1-0.3-0.2-0.4-0.3c-0.2-0.1-0.3-0.1-0.5-0.1
		c-0.2,0-0.4,0-0.6,0.1c-0.2,0.1-0.4,0.2-0.5,0.4c-0.1,0.2-0.2,0.4-0.3,0.6c-0.1,0.2-0.1,0.5-0.1,0.8v4.6h-2.2V121.6z M868.1,124.9
		l2.8-3.3h2.7l-3,3.4l3.1,4.9H871l-2.1-3.4l-0.9,1v2.4h-2.2v-11.2h2.2V124.9z M882.5,120.9h-5.6v-2.1h8v2.2l-4.3,9h-2.7L882.5,120.9
		z"/>
</g>
<path class="st8" d="M58.7,18.8c-1,0.4-2-0.1-2.4-1c-0.4-0.9,0.1-2,1-2.4c0.9-0.4,2,0.1,2.4,1C60.1,17.3,59.6,18.4,58.7,18.8
	 M52.8,25.5c-0.9,0.4-2-0.1-2.4-1s0.1-2,1-2.4s2,0.1,2.4,1C54.2,24,53.7,25.1,52.8,25.5 M63.6,21.8c-1,0.4-2-0.1-2.4-1s0.1-2,1-2.4
	s2,0.1,2.4,1C65,20.3,64.6,21.4,63.6,21.8 M66.9,26.6c-1,0.4-2-0.1-2.4-1c-0.4-0.9,0.1-2,1-2.4c0.9-0.4,2,0.1,2.4,1
	S67.8,26.2,66.9,26.6 M53.1,13.1l2.3,1.2v-3.4l-2.3,0.7l-0.2-0.2l0.9-3h-3.4l0.9,3l-0.2,0.2c-0.1,0.1-2.3-0.7-2.3-0.7v3.4l2.3-1.2
	c0.1,0.1,0.1,0.2,0.2,0.2l-1.3,4c-0.1,0.2-0.1,0.4-0.1,0.6c0,1.1,0.8,2,1.9,2.2h0.7c1-0.2,1.9-1.1,1.9-2.1c0-0.2,0-0.4-0.1-0.6
	l-1.3-4C52.9,13.2,53,13.2,53.1,13.1 M45.5,18.8c0.9,0.4,2-0.1,2.4-1c0.4-0.9-0.1-2-1-2.4c-0.9-0.4-2,0.1-2.4,1
	C44.1,17.3,44.5,18.4,45.5,18.8 M40.5,21.8c0.9,0.4,2-0.1,2.4-1c0.4-0.9-0.1-2-1-2.4c-0.9-0.4-2,0.1-2.4,1S39.6,21.4,40.5,21.8
	 M37.3,26.6c0.9,0.4,2-0.1,2.4-1c0.4-0.9-0.1-2-1-2.4c-0.9-0.4-2,0.1-2.4,1C35.9,25.1,36.3,26.2,37.3,26.6 M52.1,37.6
	c4.4,0,8.6,0.3,12.3,0.8c1.1-4.5,2.4-7,3.7-8.8l-2.5-0.9c0.2,1.3,0.3,1.9,0,2.7c-0.4-0.4-0.8-1.1-1.1-2.3l-1.2,4
	c0.7-0.5,1.3-0.8,2-0.9c-1.1,2.5-2.6,3.1-3.5,3c-1.1-0.2-1.7-1.2-1.5-2.1c0.3-1.2,1.5-1.5,2.1-0.1c1.1-2.3-0.8-3-2-2.3
	c1.9-1.9,2.1-3.5,0.6-5.6c-2.1,1.6-2.1,3.2-1.2,5.5c-1.2-1.4-3.2-0.6-2.5,1.6c0.9-1.4,2.1-0.5,1.9,0.8c-0.2,1.1-1.7,2.1-3.5,1.9
	c-2.7-0.2-2.9-2.1-2.9-3.6c0.7-0.1,1.9,0.5,2.9,1.9l0.4-4.3C55,30,54,30.3,52.9,30.3c0.4-1.2,2.1-3,2.1-3h-5.4c0,0,1.7,1.9,2.1,3
	c-1.1,0-2.1-0.2-3.2-1.4l0.4,4.3c1-1.4,2.2-2,2.9-1.9c-0.1,1.5-0.2,3.4-2.9,3.6c-1.9,0.2-3.4-0.8-3.5-1.9c-0.2-1.3,1-2.2,1.9-0.8
	c0.7-2.3-1.2-3-2.5-1.6c0.9-2.2,0.9-3.9-1.2-5.5c-1.5,2-1.3,3.7,0.6,5.6c-1.2-0.7-3.1,0-2,2.3c0.6-1.4,1.8-1.1,2.1,0.1
	c0.2,0.9-0.3,1.9-1.5,2.1c-0.9,0.2-2.4-0.5-3.5-3c0.6,0,1.2,0.3,2,0.9l-1.2-4c-0.3,1.1-0.7,1.9-1.1,2.3c-0.3-0.8-0.2-1.4,0-2.7
	l-2.9,0.9c1.3,1.8,2.6,4.3,3.7,8.8C43.5,37.9,47.7,37.6,52.1,37.6"/>
</svg>
