<?xml version="1.0" encoding="utf-8"?>
<!-- Generator: Adobe Illustrator 28.2.0, SVG Export Plug-In . SVG Version: 6.00 Build 0)  -->
<svg version="1.1" id="Layer_1" xmlns="http://www.w3.org/2000/svg" xmlns:xlink="http://www.w3.org/1999/xlink" x="0px" y="0px"
	 viewBox="0 0 1024 117" style="enable-background:new 0 0 1024 117;" xml:space="preserve">
<style type="text/css">
	.st0{fill:#FFFFFF;}
	.st1{fill:#0B0C0C;}
	.st2{clip-path:url(#SVGID_00000148659500444550434860000006448850361010620059_);}
	.st3{fill:none;stroke:#B1B4B6;}
	.st4{fill-rule:evenodd;clip-rule:evenodd;fill:#1D70B8;}
	.st5{fill:#1D70B8;}
	.st6{fill:none;stroke:#FFFFFF;stroke-width:2;}
	.st7{fill:#F3F2F1;}
	.st8{fill-rule:evenodd;clip-rule:evenodd;fill:#FFFFFF;}
</style>
<rect y="0" class="st0" width="1024" height="117"/>
<rect y="0" class="st1" width="1024" height="50"/>
<g>
	<defs>
		<rect id="SVGID_1_" x="32" y="0" width="960" height="50"/>
	</defs>
	<clipPath id="SVGID_00000029737091782726814660000001210148593953929394_">
		<use xlink:href="#SVGID_1_"  style="overflow:visible;"/>
	</clipPath>
	<g style="clip-path:url(#SVGID_00000029737091782726814660000001210148593953929394_);">
		<rect x="32" y="0" class="st1" width="960" height="50"/>
		<rect x="32" y="0" class="st1" width="154" height="50"/>
		<rect x="32" y="7" class="st1" width="154" height="36"/>
		<path class="st0" d="M80.5,25.6c0,0.9,0.1,1.8,0.3,2.6c0.2,0.8,0.6,1.6,1,2.2s1,1.1,1.8,1.5c0.7,0.4,1.6,0.6,2.5,0.6
			c0.9,0,1.7-0.2,2.4-0.5c0.6-0.3,1.1-0.7,1.5-1.1c0.4-0.5,0.6-1,0.8-1.5c0.2-0.5,0.2-1,0.2-1.5v-0.2h-5.4v-3.2h9.5V36h-3.7v-2.5
			c-0.3,0.4-0.6,0.8-1,1.1c-0.4,0.3-0.8,0.6-1.3,0.9c-0.5,0.2-1,0.4-1.6,0.6c-0.6,0.1-1.2,0.2-1.8,0.2c-1.5,0-2.9-0.3-4.1-0.8
			c-1.2-0.6-2.2-1.3-3-2.3c-0.8-1-1.4-2.1-1.9-3.4c-0.4-1.3-0.6-2.7-0.6-4.2c0-1.5,0.2-2.9,0.7-4.2c0.5-1.3,1.2-2.5,2-3.4
			c0.9-1,1.9-1.7,3.2-2.3c1.2-0.6,2.6-0.8,4.2-0.8c1,0,1.9,0.1,2.8,0.4c0.9,0.2,1.7,0.6,2.4,1c0.7,0.4,1.4,0.9,2,1.5
			c0.6,0.6,1,1.3,1.4,2l-3.7,2.1c-0.2-0.4-0.5-0.9-0.8-1.2c-0.3-0.4-0.7-0.7-1.1-1c-0.4-0.3-0.8-0.5-1.3-0.7
			c-0.5-0.2-1.1-0.2-1.7-0.2c-1,0-1.8,0.2-2.5,0.6c-0.7,0.4-1.3,0.9-1.8,1.5c-0.5,0.6-0.8,1.4-1,2.2c-0.2,0.8-0.3,1.7-0.3,2.6V25.6z
			 M107.9,14.7c1.6,0,3,0.3,4.2,0.8c1.2,0.6,2.3,1.3,3.1,2.3c0.9,1,1.5,2.1,2,3.4c0.5,1.3,0.7,2.7,0.7,4.2c0,1.5-0.2,2.9-0.7,4.2
			c-0.4,1.3-1.1,2.5-2,3.4c-0.9,1-1.9,1.7-3.1,2.3c-1.2,0.6-2.6,0.8-4.2,0.8c-1.6,0-3-0.3-4.2-0.8c-1.2-0.6-2.3-1.3-3.2-2.3
			c-0.9-1-1.5-2.1-2-3.4c-0.4-1.3-0.7-2.7-0.7-4.2c0-1.5,0.2-2.9,0.7-4.2c0.5-1.3,1.1-2.5,2-3.4c0.9-1,1.9-1.7,3.2-2.3
			C105,15,106.4,14.7,107.9,14.7z M107.9,32.5c0.9,0,1.7-0.2,2.4-0.5c0.7-0.4,1.3-0.8,1.8-1.5c0.5-0.6,0.8-1.3,1.1-2.2
			c0.2-0.8,0.4-1.8,0.4-2.8v-0.1c0-1-0.1-1.9-0.4-2.7c-0.2-0.8-0.6-1.6-1.1-2.2c-0.5-0.6-1.1-1.1-1.8-1.4c-0.7-0.4-1.5-0.5-2.4-0.5
			s-1.7,0.2-2.4,0.5c-0.7,0.3-1.3,0.8-1.8,1.4c-0.5,0.6-0.8,1.3-1.1,2.2c-0.2,0.8-0.4,1.8-0.4,2.7v0.1c0,1,0.1,1.9,0.4,2.8
			c0.2,0.8,0.6,1.6,1.1,2.2c0.5,0.6,1.1,1.1,1.8,1.5C106.2,32.3,107,32.5,107.9,32.5z M125.5,36l-5.9-21h4.8l4.1,15.8h0.1l4-15.8
			h4.7l-5.9,21H125.5z M137.8,33.6c0-0.4,0.1-0.7,0.2-1c0.1-0.3,0.3-0.6,0.6-0.8c0.2-0.2,0.5-0.4,0.9-0.6c0.3-0.1,0.7-0.2,1-0.2
			c0.4,0,0.7,0.1,1,0.2c0.3,0.1,0.6,0.3,0.8,0.6c0.2,0.2,0.4,0.5,0.6,0.8c0.1,0.3,0.2,0.6,0.2,1c0,0.4-0.1,0.7-0.2,1
			c-0.1,0.3-0.3,0.6-0.6,0.8c-0.2,0.2-0.5,0.4-0.8,0.6c-0.3,0.1-0.7,0.2-1,0.2c-0.4,0-0.7-0.1-1-0.2c-0.3-0.1-0.6-0.3-0.9-0.6
			c-0.2-0.2-0.4-0.5-0.6-0.8C137.9,34.3,137.8,34,137.8,33.6z M155.1,32.5c0.6,0,1.2-0.1,1.7-0.3c0.5-0.2,1-0.5,1.4-0.8
			c0.4-0.4,0.7-0.8,0.9-1.4c0.2-0.6,0.3-1.2,0.3-2V15h4.2v13.7c0,1.2-0.2,2.2-0.6,3.2c-0.4,0.9-1,1.8-1.8,2.4
			c-0.8,0.7-1.6,1.2-2.7,1.5c-1,0.4-2.2,0.5-3.4,0.5s-2.4-0.2-3.4-0.5c-1-0.4-1.9-0.9-2.7-1.5c-0.8-0.7-1.4-1.5-1.8-2.4
			c-0.4-0.9-0.6-2-0.6-3.2V15h4.2v13c0,0.8,0.1,1.4,0.3,2c0.2,0.6,0.5,1,0.9,1.4c0.4,0.4,0.8,0.6,1.4,0.8
			C153.9,32.4,154.5,32.5,155.1,32.5z M167.8,15h4.2v9.1l7.5-9.1h5.2l-7.3,8.3l7.8,12.7h-4.9l-5.6-9.4l-2.7,3V36h-4.2V15z"/>
		<rect x="691" y="-5" class="st1" width="301" height="60"/>
		<line class="st3" x1="691.5" y1="10" x2="691.5" y2="40"/>
		<path class="st0" d="M724.3,24.4c0,0.5,0.1,0.9,0.2,1.4c0.1,0.4,0.3,0.8,0.5,1.2c0.2,0.3,0.6,0.6,0.9,0.8c0.4,0.2,0.8,0.3,1.4,0.3
			c0.5,0,0.9-0.1,1.3-0.2c0.3-0.2,0.6-0.4,0.8-0.6c0.2-0.2,0.3-0.5,0.4-0.8c0.1-0.3,0.1-0.5,0.1-0.8v-0.1H727v-1.7h5.1V30h-2v-1.3
			c-0.1,0.2-0.3,0.4-0.5,0.6c-0.2,0.2-0.4,0.3-0.7,0.5c-0.3,0.1-0.5,0.2-0.9,0.3c-0.3,0.1-0.6,0.1-1,0.1c-0.8,0-1.5-0.1-2.2-0.4
			c-0.6-0.3-1.2-0.7-1.6-1.2c-0.4-0.5-0.8-1.1-1-1.8c-0.2-0.7-0.3-1.5-0.3-2.3c0-0.8,0.1-1.6,0.4-2.2c0.3-0.7,0.6-1.3,1.1-1.8
			c0.5-0.5,1-0.9,1.7-1.2c0.7-0.3,1.4-0.5,2.2-0.5c0.5,0,1,0.1,1.5,0.2c0.5,0.1,0.9,0.3,1.3,0.5c0.4,0.2,0.7,0.5,1,0.8
			c0.3,0.3,0.5,0.7,0.7,1.1l-2,1.1c-0.1-0.2-0.3-0.5-0.4-0.7c-0.2-0.2-0.3-0.4-0.6-0.5c-0.2-0.2-0.4-0.3-0.7-0.4
			c-0.3-0.1-0.6-0.1-0.9-0.1c-0.5,0-1,0.1-1.4,0.3c-0.4,0.2-0.7,0.5-0.9,0.8c-0.2,0.3-0.4,0.7-0.5,1.2
			C724.3,23.4,724.3,23.9,724.3,24.4L724.3,24.4z M738.9,18.6c0.8,0,1.6,0.2,2.2,0.5c0.7,0.3,1.2,0.7,1.7,1.2
			c0.5,0.5,0.8,1.1,1.1,1.8c0.2,0.7,0.4,1.4,0.4,2.2c0,0.8-0.1,1.6-0.4,2.3c-0.2,0.7-0.6,1.3-1.1,1.8c-0.5,0.5-1,0.9-1.7,1.2
			c-0.7,0.3-1.4,0.4-2.2,0.4c-0.8,0-1.6-0.1-2.2-0.4c-0.7-0.3-1.2-0.7-1.7-1.2c-0.5-0.5-0.8-1.1-1.1-1.8c-0.2-0.7-0.4-1.5-0.4-2.3
			c0-0.8,0.1-1.6,0.4-2.2c0.2-0.7,0.6-1.3,1.1-1.8c0.5-0.5,1-0.9,1.7-1.2C737.3,18.8,738,18.6,738.9,18.6z M738.9,28.1
			c0.5,0,0.9-0.1,1.3-0.3c0.4-0.2,0.7-0.4,0.9-0.8c0.3-0.3,0.4-0.7,0.6-1.2c0.1-0.4,0.2-0.9,0.2-1.5v-0.1c0-0.5-0.1-1-0.2-1.5
			c-0.1-0.5-0.3-0.8-0.6-1.2c-0.3-0.3-0.6-0.6-0.9-0.8c-0.4-0.2-0.8-0.3-1.3-0.3s-0.9,0.1-1.3,0.3c-0.4,0.2-0.7,0.4-0.9,0.8
			c-0.2,0.3-0.4,0.7-0.6,1.2c-0.1,0.4-0.2,0.9-0.2,1.5v0.1c0,0.5,0.1,1,0.2,1.5c0.1,0.4,0.3,0.8,0.6,1.2c0.3,0.3,0.6,0.6,0.9,0.8
			C738,28,738.4,28.1,738.9,28.1z M748.2,30l-3.2-11.2h2.5l2.2,8.4h0.1l2.1-8.4h2.5L751.3,30H748.2z M754.8,28.7
			c0-0.2,0-0.4,0.1-0.5c0.1-0.2,0.2-0.3,0.3-0.4c0.1-0.1,0.3-0.2,0.5-0.3c0.2-0.1,0.4-0.1,0.6-0.1s0.4,0,0.5,0.1
			c0.2,0.1,0.3,0.2,0.5,0.3c0.1,0.1,0.2,0.3,0.3,0.4c0.1,0.2,0.1,0.3,0.1,0.5c0,0.2,0,0.4-0.1,0.6c-0.1,0.2-0.2,0.3-0.3,0.5
			c-0.1,0.1-0.3,0.2-0.5,0.3c-0.2,0.1-0.4,0.1-0.5,0.1s-0.4,0-0.6-0.1c-0.2-0.1-0.3-0.2-0.5-0.3c-0.1-0.1-0.2-0.3-0.3-0.5
			C754.8,29.1,754.8,28.9,754.8,28.7z M764,28.1c0.3,0,0.6,0,0.9-0.1c0.3-0.1,0.5-0.2,0.7-0.4c0.2-0.2,0.4-0.4,0.5-0.7
			c0.1-0.3,0.2-0.7,0.2-1.1v-6.9h2.2v7.3c0,0.6-0.1,1.2-0.3,1.7c-0.2,0.5-0.5,0.9-0.9,1.3c-0.4,0.4-0.9,0.6-1.4,0.8
			c-0.6,0.2-1.2,0.3-1.8,0.3c-0.7,0-1.3-0.1-1.8-0.3c-0.6-0.2-1-0.5-1.4-0.8c-0.4-0.4-0.7-0.8-1-1.3c-0.2-0.5-0.3-1.1-0.3-1.7v-7.3
			h2.2v6.9c0,0.4,0.1,0.8,0.2,1.1c0.1,0.3,0.3,0.5,0.5,0.7c0.2,0.2,0.5,0.3,0.7,0.4C763.4,28.1,763.7,28.1,764,28.1z M770.8,18.8
			h2.3v4.9l4-4.9h2.8l-3.9,4.5l4.1,6.8h-2.6l-3-5l-1.4,1.6V30h-2.3V18.8z M788.9,18.6c0.8,0,1.6,0.2,2.2,0.5
			c0.7,0.3,1.2,0.7,1.7,1.2c0.5,0.5,0.8,1.1,1.1,1.8c0.2,0.7,0.4,1.4,0.4,2.2c0,0.8-0.1,1.6-0.4,2.3c-0.2,0.7-0.6,1.3-1.1,1.8
			c-0.5,0.5-1,0.9-1.7,1.2c-0.7,0.3-1.4,0.4-2.2,0.4c-0.8,0-1.6-0.1-2.2-0.4c-0.7-0.3-1.2-0.7-1.7-1.2c-0.5-0.5-0.8-1.1-1.1-1.8
			c-0.2-0.7-0.4-1.5-0.4-2.3c0-0.8,0.1-1.6,0.4-2.2c0.2-0.7,0.6-1.3,1.1-1.8c0.5-0.5,1-0.9,1.7-1.2
			C787.3,18.8,788.1,18.6,788.9,18.6z M788.9,28.1c0.5,0,0.9-0.1,1.3-0.3c0.4-0.2,0.7-0.4,0.9-0.8s0.4-0.7,0.6-1.2
			c0.1-0.4,0.2-0.9,0.2-1.5v-0.1c0-0.5-0.1-1-0.2-1.5c-0.1-0.5-0.3-0.8-0.6-1.2c-0.3-0.3-0.6-0.6-0.9-0.8c-0.4-0.2-0.8-0.3-1.3-0.3
			c-0.5,0-0.9,0.1-1.3,0.3c-0.4,0.2-0.7,0.4-0.9,0.8c-0.2,0.3-0.4,0.7-0.6,1.2c-0.1,0.4-0.2,0.9-0.2,1.5v0.1c0,0.5,0.1,1,0.2,1.5
			c0.1,0.4,0.3,0.8,0.6,1.2c0.3,0.3,0.6,0.6,0.9,0.8C788,28,788.4,28.1,788.9,28.1z M795.8,21.6h2.2v0.7c0.1-0.1,0.2-0.2,0.4-0.3
			c0.1-0.1,0.3-0.2,0.5-0.3c0.2-0.1,0.4-0.1,0.6-0.2c0.2-0.1,0.4-0.1,0.7-0.1c0.5,0,0.9,0.1,1.2,0.2c0.4,0.1,0.7,0.3,0.9,0.6
			c0.2,0.3,0.4,0.6,0.6,0.9c0.1,0.3,0.2,0.7,0.2,1.1V30h-2.2v-4.9c0-0.3,0-0.5-0.1-0.8c-0.1-0.2-0.2-0.4-0.3-0.5
			c-0.1-0.1-0.3-0.2-0.4-0.3c-0.2-0.1-0.3-0.1-0.5-0.1c-0.2,0-0.4,0-0.6,0.1c-0.2,0.1-0.4,0.2-0.5,0.4c-0.1,0.2-0.2,0.4-0.3,0.6
			c-0.1,0.2-0.1,0.5-0.1,0.8V30h-2.2V21.6z M806.6,26.6c0,0.2,0.1,0.5,0.2,0.7c0.1,0.2,0.3,0.4,0.5,0.5c0.2,0.1,0.4,0.3,0.6,0.3
			c0.2,0.1,0.5,0.1,0.8,0.1c0.3,0,0.7-0.1,1-0.2c0.4-0.1,0.7-0.3,1-0.5l1,1.5c-0.4,0.3-0.9,0.6-1.4,0.8c-0.6,0.2-1.2,0.3-1.8,0.3
			c-0.6,0-1.1-0.1-1.6-0.3c-0.5-0.2-1-0.5-1.3-0.9c-0.4-0.4-0.7-0.8-0.9-1.4c-0.2-0.5-0.3-1.1-0.3-1.8c0-0.6,0.1-1.2,0.3-1.7
			c0.2-0.5,0.5-1,0.8-1.4c0.4-0.4,0.8-0.7,1.3-0.9c0.5-0.2,1-0.3,1.6-0.3c0.6,0,1.1,0.1,1.5,0.3c0.5,0.2,0.9,0.5,1.2,0.8
			c0.3,0.4,0.6,0.8,0.8,1.3c0.2,0.5,0.3,1.1,0.3,1.7v1H806.6z M808.3,23.3c-0.5,0-0.9,0.2-1.2,0.5c-0.3,0.3-0.5,0.7-0.6,1.1h3.4
			c0-0.4-0.2-0.8-0.5-1.1C809.2,23.5,808.8,23.3,808.3,23.3z M816.7,18.8h2.3v9.1h4.4V30h-6.7V18.8z M828.3,21.5
			c0.6,0,1.2,0.1,1.7,0.3c0.5,0.2,0.9,0.5,1.3,0.9c0.4,0.4,0.6,0.9,0.8,1.4c0.2,0.5,0.3,1.1,0.3,1.7c0,0.6-0.1,1.2-0.3,1.7
			c-0.2,0.5-0.5,1-0.8,1.4c-0.4,0.4-0.8,0.7-1.3,0.9c-0.5,0.2-1.1,0.3-1.7,0.3c-0.6,0-1.2-0.1-1.7-0.3c-0.5-0.2-0.9-0.5-1.3-0.9
			c-0.4-0.4-0.6-0.8-0.8-1.4c-0.2-0.5-0.3-1.1-0.3-1.7c0-0.6,0.1-1.2,0.3-1.7c0.2-0.5,0.5-1,0.8-1.4c0.4-0.4,0.8-0.7,1.3-0.9
			C827.1,21.6,827.7,21.5,828.3,21.5z M828.3,28.2c0.3,0,0.6-0.1,0.8-0.2c0.2-0.1,0.4-0.3,0.6-0.5c0.2-0.2,0.3-0.4,0.4-0.7
			c0.1-0.3,0.1-0.6,0.1-0.9v-0.1c0-0.3,0-0.6-0.1-0.9c-0.1-0.3-0.2-0.5-0.4-0.7c-0.2-0.2-0.4-0.4-0.6-0.5c-0.2-0.1-0.5-0.2-0.8-0.2
			c-0.3,0-0.6,0.1-0.8,0.2c-0.2,0.1-0.4,0.3-0.6,0.5c-0.2,0.2-0.3,0.4-0.4,0.7c-0.1,0.3-0.1,0.6-0.1,0.9v0.1c0,0.3,0,0.7,0.1,0.9
			c0.1,0.3,0.2,0.5,0.4,0.7c0.2,0.2,0.4,0.4,0.6,0.5C827.7,28.1,828,28.2,828.3,28.2z M838.9,28.5c-0.2,0.2-0.5,0.4-0.8,0.6
			c-0.3,0.1-0.7,0.2-1.1,0.2c-0.6,0-1.1-0.1-1.5-0.3c-0.4-0.2-0.8-0.5-1.1-0.8c-0.3-0.3-0.5-0.8-0.7-1.2c-0.2-0.5-0.2-1-0.2-1.6
			c0-0.6,0.1-1.1,0.2-1.5c0.2-0.5,0.4-0.9,0.7-1.2c0.3-0.3,0.7-0.6,1.1-0.8c0.4-0.2,0.9-0.3,1.5-0.3c0.4,0,0.8,0.1,1.1,0.2
			c0.3,0.1,0.6,0.3,0.8,0.6v-0.6h2.2v8.3c0,0.5-0.1,0.9-0.3,1.3c-0.2,0.4-0.5,0.7-0.8,0.9c-0.3,0.2-0.7,0.4-1.2,0.5
			c-0.4,0.1-0.9,0.2-1.4,0.2c-0.6,0-1.2-0.1-1.9-0.2c-0.7-0.1-1.2-0.3-1.7-0.5l0.6-1.7c0.1,0.1,0.3,0.1,0.5,0.2
			c0.2,0.1,0.4,0.1,0.7,0.2c0.2,0.1,0.5,0.1,0.8,0.1c0.3,0,0.5,0.1,0.8,0.1c0.2,0,0.4,0,0.6-0.1c0.2,0,0.4-0.1,0.5-0.2
			c0.2-0.1,0.3-0.2,0.4-0.4c0.1-0.2,0.1-0.4,0.1-0.6V28.5z M835.7,25.4c0,0.3,0,0.5,0.1,0.8c0.1,0.2,0.2,0.4,0.3,0.6
			c0.1,0.2,0.3,0.3,0.5,0.4c0.2,0.1,0.5,0.1,0.8,0.1c0.6,0,1-0.2,1.3-0.6c0.2-0.4,0.4-0.8,0.4-1.4v-0.1c0-0.3,0-0.5-0.1-0.8
			c-0.1-0.2-0.2-0.4-0.3-0.6c-0.1-0.2-0.3-0.3-0.5-0.4c-0.2-0.1-0.5-0.1-0.8-0.1c-0.6,0-1,0.2-1.3,0.6
			C835.8,24.3,835.7,24.8,835.7,25.4L835.7,25.4z M845.1,30h-2.2v-8.4h2.2V30z M842.7,19.4c0-0.2,0-0.3,0.1-0.5
			c0.1-0.2,0.2-0.3,0.3-0.4c0.1-0.1,0.3-0.2,0.4-0.3c0.2-0.1,0.3-0.1,0.5-0.1c0.2,0,0.3,0,0.5,0.1c0.2,0.1,0.3,0.2,0.4,0.3
			c0.1,0.1,0.2,0.3,0.3,0.4c0.1,0.2,0.1,0.3,0.1,0.5c0,0.2,0,0.4-0.1,0.5c-0.1,0.2-0.2,0.3-0.3,0.4c-0.1,0.1-0.3,0.2-0.4,0.3
			c-0.2,0.1-0.3,0.1-0.5,0.1c-0.2,0-0.4,0-0.5-0.1c-0.2-0.1-0.3-0.2-0.4-0.3c-0.1-0.1-0.2-0.3-0.3-0.4
			C842.7,19.8,842.7,19.6,842.7,19.4z M846.9,21.6h2.2v0.7c0.1-0.1,0.2-0.2,0.4-0.3c0.1-0.1,0.3-0.2,0.5-0.3
			c0.2-0.1,0.4-0.1,0.6-0.2c0.2-0.1,0.4-0.1,0.7-0.1c0.5,0,0.9,0.1,1.2,0.2c0.4,0.1,0.7,0.3,0.9,0.6c0.2,0.3,0.4,0.6,0.6,0.9
			c0.1,0.3,0.2,0.7,0.2,1.1V30H852v-4.9c0-0.3,0-0.5-0.1-0.8c-0.1-0.2-0.2-0.4-0.3-0.5c-0.1-0.1-0.3-0.2-0.4-0.3
			c-0.2-0.1-0.3-0.1-0.5-0.1c-0.2,0-0.4,0-0.6,0.1c-0.2,0.1-0.4,0.2-0.5,0.4c-0.1,0.2-0.2,0.4-0.3,0.6c-0.1,0.2-0.1,0.5-0.1,0.8V30
			h-2.2V21.6z"/>
		<circle class="st0" cx="871" cy="25" r="11"/>
		<path class="st4" d="M863.3,32.8c0.9-3.4,4-5.8,7.7-5.8s6.8,2.5,7.7,5.8c-0.9,0.9-2,1.6-3.1,2.2H871h-4.6
			C865.2,34.5,864.2,33.7,863.3,32.8z"/>
		<circle class="st5" cx="871" cy="21.8" r="3.8"/>
		<circle class="st6" cx="871" cy="25" r="10"/>
		<line class="st3" x1="907.5" y1="10" x2="907.5" y2="40"/>
		<path class="st0" d="M936.1,26.9c0.1,0.2,0.3,0.3,0.5,0.5c0.2,0.2,0.4,0.3,0.7,0.4c0.3,0.1,0.5,0.2,0.8,0.3c0.3,0.1,0.6,0.1,1,0.1
			c0.6,0,1.1-0.1,1.5-0.4c0.3-0.3,0.5-0.6,0.5-1c0-0.4-0.2-0.7-0.5-0.9c-0.3-0.2-0.8-0.4-1.4-0.5l-0.4-0.1c-0.5-0.1-0.9-0.2-1.4-0.3
			c-0.5-0.1-0.9-0.3-1.3-0.6c-0.4-0.3-0.7-0.6-0.9-1c-0.2-0.4-0.4-0.9-0.4-1.5c0-0.4,0.1-0.7,0.2-1.1c0.2-0.4,0.4-0.7,0.7-1.1
			c0.3-0.3,0.8-0.6,1.3-0.8c0.5-0.2,1.2-0.3,2-0.3c0.9,0,1.7,0.2,2.4,0.5c0.7,0.3,1.3,0.7,1.7,1.2l-1.5,1.4
			c-0.3-0.3-0.7-0.6-1.2-0.8c-0.5-0.2-1-0.3-1.5-0.3c-0.6,0-1,0.1-1.4,0.3c-0.3,0.2-0.5,0.5-0.5,0.9c0,0.2,0.1,0.4,0.2,0.6
			c0.1,0.2,0.3,0.3,0.5,0.4c0.2,0.1,0.4,0.2,0.7,0.2c0.3,0.1,0.6,0.1,0.9,0.2l0.2,0c0.4,0.1,0.9,0.2,1.3,0.3
			c0.4,0.1,0.8,0.3,1.2,0.6c0.4,0.2,0.7,0.6,0.9,1c0.2,0.4,0.3,0.9,0.3,1.5c0,0.6-0.1,1.1-0.4,1.5c-0.2,0.4-0.5,0.8-0.9,1.1
			c-0.4,0.3-0.8,0.5-1.3,0.7c-0.5,0.2-1,0.2-1.6,0.2c-0.6,0-1.1,0-1.5-0.1c-0.5-0.1-0.9-0.2-1.3-0.4c-0.4-0.2-0.7-0.4-1-0.6
			c-0.3-0.2-0.6-0.4-0.8-0.7L936.1,26.9z M947.2,30h-2.2v-8.4h2.2V30z M944.9,19.4c0-0.2,0-0.3,0.1-0.5c0.1-0.2,0.2-0.3,0.3-0.4
			c0.1-0.1,0.3-0.2,0.4-0.3c0.2-0.1,0.3-0.1,0.5-0.1c0.2,0,0.3,0,0.5,0.1c0.2,0.1,0.3,0.2,0.4,0.3c0.1,0.1,0.2,0.3,0.3,0.4
			c0.1,0.2,0.1,0.3,0.1,0.5c0,0.2,0,0.4-0.1,0.5c-0.1,0.2-0.2,0.3-0.3,0.4c-0.1,0.1-0.3,0.2-0.4,0.3c-0.2,0.1-0.3,0.1-0.5,0.1
			c-0.2,0-0.4,0-0.5-0.1c-0.2-0.1-0.3-0.2-0.4-0.3c-0.1-0.1-0.2-0.3-0.3-0.4C944.9,19.8,944.9,19.6,944.9,19.4z M954.2,28.5
			c-0.2,0.2-0.5,0.4-0.8,0.6c-0.3,0.1-0.7,0.2-1.1,0.2c-0.6,0-1.1-0.1-1.5-0.3c-0.4-0.2-0.8-0.5-1.1-0.8c-0.3-0.3-0.5-0.8-0.7-1.2
			c-0.2-0.5-0.2-1-0.2-1.6c0-0.6,0.1-1.1,0.2-1.5c0.2-0.5,0.4-0.9,0.7-1.2c0.3-0.3,0.7-0.6,1.1-0.8c0.4-0.2,0.9-0.3,1.5-0.3
			c0.4,0,0.8,0.1,1.1,0.2c0.3,0.1,0.6,0.3,0.8,0.6v-0.6h2.2v8.3c0,0.5-0.1,0.9-0.3,1.3c-0.2,0.4-0.5,0.7-0.8,0.9
			c-0.3,0.2-0.7,0.4-1.2,0.5c-0.4,0.1-0.9,0.2-1.4,0.2c-0.6,0-1.2-0.1-1.9-0.2c-0.7-0.1-1.2-0.3-1.7-0.5l0.6-1.7
			c0.1,0.1,0.3,0.1,0.5,0.2c0.2,0.1,0.4,0.1,0.7,0.2c0.2,0.1,0.5,0.1,0.8,0.1c0.3,0,0.5,0.1,0.8,0.1c0.2,0,0.4,0,0.6-0.1
			c0.2,0,0.4-0.1,0.5-0.2c0.2-0.1,0.3-0.2,0.4-0.4c0.1-0.2,0.1-0.4,0.1-0.6V28.5z M950.9,25.4c0,0.3,0,0.5,0.1,0.8
			c0.1,0.2,0.2,0.4,0.3,0.6c0.1,0.2,0.3,0.3,0.5,0.4c0.2,0.1,0.5,0.1,0.8,0.1c0.6,0,1-0.2,1.3-0.6c0.2-0.4,0.4-0.8,0.4-1.4v-0.1
			c0-0.3,0-0.5-0.1-0.8c-0.1-0.2-0.2-0.4-0.3-0.6c-0.1-0.2-0.3-0.3-0.5-0.4c-0.2-0.1-0.5-0.1-0.8-0.1c-0.6,0-1,0.2-1.3,0.6
			C951.1,24.3,950.9,24.8,950.9,25.4L950.9,25.4z M958.2,21.6h2.2v0.7c0.1-0.1,0.2-0.2,0.4-0.3c0.1-0.1,0.3-0.2,0.5-0.3
			c0.2-0.1,0.4-0.1,0.6-0.2c0.2-0.1,0.4-0.1,0.7-0.1c0.5,0,0.9,0.1,1.2,0.2c0.4,0.1,0.7,0.3,0.9,0.6c0.2,0.3,0.4,0.6,0.6,0.9
			c0.1,0.3,0.2,0.7,0.2,1.1V30h-2.2v-4.9c0-0.3,0-0.5-0.1-0.8c-0.1-0.2-0.2-0.4-0.3-0.5c-0.1-0.1-0.3-0.2-0.4-0.3
			c-0.2-0.1-0.3-0.1-0.5-0.1c-0.2,0-0.4,0-0.6,0.1c-0.2,0.1-0.4,0.2-0.5,0.4c-0.1,0.2-0.2,0.4-0.3,0.6c-0.1,0.2-0.1,0.5-0.1,0.8V30
			h-2.2V21.6z M973.8,21.5c0.6,0,1.2,0.1,1.7,0.3c0.5,0.2,0.9,0.5,1.3,0.9c0.4,0.4,0.6,0.9,0.8,1.4c0.2,0.5,0.3,1.1,0.3,1.7
			c0,0.6-0.1,1.2-0.3,1.7c-0.2,0.5-0.5,1-0.8,1.4c-0.4,0.4-0.8,0.7-1.3,0.9c-0.5,0.2-1.1,0.3-1.7,0.3c-0.6,0-1.2-0.1-1.7-0.3
			c-0.5-0.2-0.9-0.5-1.3-0.9c-0.4-0.4-0.6-0.8-0.8-1.4c-0.2-0.5-0.3-1.1-0.3-1.7c0-0.6,0.1-1.2,0.3-1.7c0.2-0.5,0.5-1,0.8-1.4
			c0.4-0.4,0.8-0.7,1.3-0.9C972.6,21.6,973.1,21.5,973.8,21.5z M973.8,28.2c0.3,0,0.6-0.1,0.8-0.2c0.2-0.1,0.4-0.3,0.6-0.5
			c0.2-0.2,0.3-0.4,0.4-0.7c0.1-0.3,0.1-0.6,0.1-0.9v-0.1c0-0.3,0-0.6-0.1-0.9c-0.1-0.3-0.2-0.5-0.4-0.7c-0.2-0.2-0.4-0.4-0.6-0.5
			c-0.2-0.1-0.5-0.2-0.8-0.2c-0.3,0-0.6,0.1-0.8,0.2c-0.2,0.1-0.4,0.3-0.6,0.5c-0.2,0.2-0.3,0.4-0.4,0.7c-0.1,0.3-0.1,0.6-0.1,0.9
			v0.1c0,0.3,0,0.7,0.1,0.9c0.1,0.3,0.2,0.5,0.4,0.7c0.2,0.2,0.4,0.4,0.6,0.5C973.2,28.1,973.5,28.2,973.8,28.2z M986.4,30h-2.2
			v-0.7c-0.1,0.1-0.2,0.2-0.4,0.3c-0.1,0.1-0.3,0.2-0.5,0.3c-0.2,0.1-0.4,0.1-0.6,0.2c-0.2,0-0.4,0.1-0.7,0.1
			c-0.5,0-0.9-0.1-1.2-0.2c-0.4-0.2-0.7-0.4-0.9-0.6c-0.2-0.3-0.4-0.6-0.6-0.9c-0.1-0.3-0.2-0.7-0.2-1.1v-5.6h2.2v4.9
			c0,0.3,0,0.5,0.1,0.8c0.1,0.2,0.2,0.4,0.3,0.5c0.1,0.1,0.3,0.2,0.4,0.3c0.2,0.1,0.3,0.1,0.5,0.1c0.2,0,0.4,0,0.6-0.1
			c0.2-0.1,0.4-0.2,0.5-0.4c0.1-0.2,0.2-0.4,0.3-0.6c0.1-0.2,0.1-0.5,0.1-0.8v-4.6h2.2V30z M991.4,27.5c0,0.1,0,0.2,0,0.3
			c0,0.1,0.1,0.2,0.1,0.2c0.1,0.1,0.2,0.1,0.3,0.1c0.1,0,0.3,0.1,0.5,0.1c0.1,0,0.2,0,0.3,0c0.1,0,0.2,0,0.3,0s0.2,0,0.3,0
			c0.1,0,0.2,0,0.2,0l0.2,1.9c-0.2,0-0.4,0-0.6,0.1c-0.2,0-0.4,0-0.6,0c-0.2,0-0.5,0-0.7,0c-0.7,0-1.3-0.2-1.7-0.5
			c-0.4-0.3-0.6-0.9-0.6-1.6v-4.5h-1.5v-1.9h1.5v-2.4l2.2-0.6v2.9h2.2v1.9h-2.2V27.5z"/>
	</g>
</g>
<rect y="50" class="st5" width="1024" height="10"/>
<g>
	<rect y="60" class="st7" width="1024" height="57"/>
	<path class="st1" d="M34.3,93.3c0.2,0.2,0.4,0.4,0.6,0.6c0.2,0.2,0.5,0.4,0.8,0.5c0.3,0.1,0.6,0.3,1,0.4c0.4,0.1,0.7,0.1,1.1,0.1
		c0.8,0,1.3-0.2,1.7-0.5c0.4-0.3,0.6-0.7,0.6-1.2c0-0.5-0.2-0.8-0.5-1.1c-0.4-0.2-0.9-0.4-1.7-0.6l-0.4-0.1
		c-0.6-0.1-1.1-0.2-1.7-0.4c-0.6-0.2-1-0.4-1.5-0.7c-0.4-0.3-0.8-0.7-1.1-1.2c-0.3-0.5-0.4-1.1-0.4-1.8c0-0.4,0.1-0.9,0.3-1.3
		c0.2-0.5,0.5-0.9,0.9-1.3c0.4-0.4,0.9-0.7,1.6-1c0.6-0.2,1.4-0.4,2.3-0.4c1.1,0,2,0.2,2.9,0.5c0.8,0.4,1.5,0.8,2.1,1.4l-1.8,1.7
		c-0.4-0.4-0.8-0.7-1.4-0.9c-0.6-0.2-1.2-0.3-1.8-0.3c-0.7,0-1.2,0.1-1.6,0.4c-0.4,0.3-0.6,0.6-0.6,1c0,0.3,0.1,0.5,0.2,0.7
		c0.1,0.2,0.3,0.3,0.5,0.5c0.2,0.1,0.5,0.2,0.8,0.3c0.3,0.1,0.7,0.2,1.1,0.2l0.2,0c0.5,0.1,1.1,0.2,1.6,0.4c0.5,0.1,1,0.4,1.4,0.7
		c0.4,0.3,0.8,0.7,1,1.2c0.3,0.5,0.4,1.1,0.4,1.8c0,0.7-0.1,1.3-0.4,1.8c-0.3,0.5-0.6,1-1.1,1.3c-0.5,0.4-1,0.6-1.6,0.8
		c-0.6,0.2-1.2,0.3-1.9,0.3c-0.7,0-1.3-0.1-1.8-0.2c-0.6-0.1-1.1-0.3-1.5-0.5c-0.5-0.2-0.9-0.4-1.2-0.7c-0.4-0.3-0.7-0.5-0.9-0.8
		L34.3,93.3z M47.1,92.9c0,0.3,0.1,0.6,0.3,0.8c0.1,0.2,0.3,0.5,0.6,0.6c0.2,0.2,0.5,0.3,0.8,0.4c0.3,0.1,0.6,0.1,0.9,0.1
		c0.4,0,0.8-0.1,1.2-0.2c0.4-0.1,0.8-0.4,1.2-0.6l1.2,1.8c-0.5,0.4-1,0.7-1.7,0.9c-0.7,0.2-1.4,0.4-2.2,0.4c-0.7,0-1.3-0.1-1.9-0.4
		c-0.6-0.2-1.1-0.6-1.6-1c-0.5-0.4-0.8-1-1.1-1.6c-0.3-0.6-0.4-1.4-0.4-2.2c0-0.7,0.1-1.4,0.3-2c0.2-0.6,0.6-1.2,1-1.6
		c0.4-0.5,0.9-0.8,1.5-1.1c0.6-0.3,1.2-0.4,1.9-0.4c0.7,0,1.3,0.1,1.8,0.4c0.6,0.2,1.1,0.6,1.5,1c0.4,0.4,0.7,0.9,1,1.5
		c0.2,0.6,0.4,1.3,0.4,2v1.2H47.1z M49.2,89.1c-0.6,0-1,0.2-1.4,0.6c-0.4,0.4-0.6,0.8-0.7,1.3h4c0-0.5-0.2-1-0.6-1.3
		C50.2,89.3,49.8,89.1,49.2,89.1z M61.1,89.6h-0.3c-0.4,0-0.7,0-1,0.1c-0.3,0.1-0.6,0.2-0.9,0.4c-0.3,0.2-0.5,0.5-0.6,0.8
		c-0.1,0.3-0.2,0.8-0.2,1.3V97h-2.6v-9.9H58v1.1c0.1-0.2,0.2-0.3,0.4-0.5s0.4-0.3,0.6-0.4c0.2-0.1,0.5-0.2,0.8-0.3
		c0.3-0.1,0.6-0.1,0.9-0.1h0.4V89.6z M64.8,97l-3-9.9h2.9l1.8,6.8l1.8-6.8H71L68,97H64.8z M74.8,97h-2.6v-9.9h2.6V97z M72,84.5
		c0-0.2,0-0.4,0.1-0.6c0.1-0.2,0.2-0.4,0.3-0.5c0.1-0.1,0.3-0.3,0.5-0.3c0.2-0.1,0.4-0.1,0.6-0.1c0.2,0,0.4,0,0.6,0.1
		c0.2,0.1,0.4,0.2,0.5,0.3c0.1,0.1,0.3,0.3,0.3,0.5c0.1,0.2,0.1,0.4,0.1,0.6c0,0.2,0,0.4-0.1,0.6c-0.1,0.2-0.2,0.3-0.3,0.5
		c-0.1,0.1-0.3,0.2-0.5,0.3C74,86,73.8,86,73.5,86c-0.2,0-0.4,0-0.6-0.1c-0.2-0.1-0.3-0.2-0.5-0.3c-0.1-0.1-0.2-0.3-0.3-0.5
		C72,84.9,72,84.7,72,84.5z M79.2,92.1c0,0.3,0,0.6,0.1,1c0.1,0.3,0.2,0.6,0.4,0.9c0.2,0.3,0.4,0.5,0.7,0.6c0.3,0.2,0.6,0.2,1,0.2
		c0.3,0,0.5,0,0.7-0.1c0.2-0.1,0.4-0.2,0.6-0.3c0.2-0.1,0.3-0.3,0.4-0.4c0.1-0.2,0.2-0.3,0.3-0.5l2.2,1.2c-0.2,0.4-0.4,0.7-0.7,1.1
		c-0.3,0.3-0.6,0.6-1,0.8c-0.4,0.2-0.8,0.4-1.2,0.5c-0.5,0.1-0.9,0.2-1.4,0.2c-0.7,0-1.3-0.1-1.9-0.4c-0.6-0.3-1.1-0.6-1.5-1.1
		c-0.4-0.5-0.8-1-1-1.6c-0.2-0.6-0.4-1.3-0.4-2.1c0-0.7,0.1-1.4,0.4-2c0.2-0.6,0.6-1.2,1-1.6c0.4-0.5,0.9-0.8,1.5-1.1
		c0.6-0.3,1.2-0.4,1.9-0.4c0.5,0,1,0.1,1.4,0.2c0.5,0.1,0.9,0.3,1.2,0.5c0.4,0.2,0.7,0.5,1,0.8c0.3,0.3,0.5,0.7,0.7,1.1l-2.2,1.2
		c-0.1-0.2-0.2-0.4-0.3-0.5c-0.1-0.2-0.3-0.3-0.4-0.4c-0.2-0.1-0.3-0.2-0.6-0.3c-0.2-0.1-0.4-0.1-0.7-0.1c-0.4,0-0.7,0.1-1,0.3
		c-0.3,0.2-0.5,0.4-0.7,0.6c-0.2,0.3-0.3,0.6-0.4,0.9C79.2,91.3,79.2,91.7,79.2,92.1L79.2,92.1z M89.4,92.9c0,0.3,0.1,0.6,0.3,0.8
		c0.1,0.2,0.3,0.5,0.6,0.6c0.2,0.2,0.5,0.3,0.8,0.4c0.3,0.1,0.6,0.1,0.9,0.1c0.4,0,0.8-0.1,1.2-0.2c0.4-0.1,0.8-0.4,1.2-0.6l1.2,1.8
		c-0.5,0.4-1,0.7-1.7,0.9c-0.7,0.2-1.4,0.4-2.2,0.4c-0.7,0-1.3-0.1-1.9-0.4c-0.6-0.2-1.1-0.6-1.6-1c-0.5-0.4-0.8-1-1.1-1.6
		c-0.3-0.6-0.4-1.4-0.4-2.2c0-0.7,0.1-1.4,0.3-2c0.2-0.6,0.6-1.2,1-1.6c0.4-0.5,0.9-0.8,1.5-1.1c0.6-0.3,1.2-0.4,1.9-0.4
		c0.7,0,1.3,0.1,1.8,0.4c0.6,0.2,1.1,0.6,1.5,1c0.4,0.4,0.7,0.9,1,1.5c0.2,0.6,0.4,1.3,0.4,2v1.2H89.4z M91.4,89.1
		c-0.6,0-1,0.2-1.4,0.6c-0.4,0.4-0.6,0.8-0.7,1.3h4c0-0.5-0.2-1-0.6-1.3C92.5,89.3,92,89.1,91.4,89.1z M101.1,87.1h2.6v0.9
		c0.1-0.1,0.3-0.3,0.5-0.4c0.2-0.1,0.4-0.2,0.6-0.3c0.2-0.1,0.4-0.2,0.7-0.2c0.3-0.1,0.5-0.1,0.8-0.1c0.5,0,1,0.1,1.4,0.3
		c0.4,0.2,0.8,0.4,1.1,0.7c0.3,0.3,0.5,0.7,0.7,1.1c0.2,0.4,0.2,0.9,0.2,1.3V97h-2.6v-5.8c0-0.4,0-0.6-0.1-0.9
		c-0.1-0.2-0.2-0.4-0.3-0.6c-0.1-0.2-0.3-0.3-0.5-0.3c-0.2-0.1-0.4-0.1-0.6-0.1c-0.3,0-0.5,0-0.7,0.1c-0.2,0.1-0.4,0.2-0.6,0.4
		c-0.2,0.2-0.3,0.4-0.4,0.7c-0.1,0.3-0.1,0.6-0.1,1V97h-2.6V87.1z M115,93c-0.3,0-0.6,0.2-0.8,0.3c-0.2,0.2-0.3,0.4-0.3,0.7
		c0,0.3,0.1,0.6,0.4,0.8c0.2,0.2,0.6,0.3,1,0.3c0.5,0,0.9-0.1,1.1-0.4c0.3-0.3,0.4-0.6,0.4-1.1v-1L115,93z M117.3,96.1
		c-0.1,0.1-0.2,0.2-0.4,0.4c-0.1,0.1-0.3,0.3-0.5,0.4c-0.2,0.1-0.4,0.2-0.7,0.3c-0.3,0.1-0.6,0.1-0.9,0.1c-0.5,0-1-0.1-1.4-0.2
		c-0.4-0.2-0.8-0.4-1.1-0.7c-0.3-0.3-0.6-0.6-0.7-1c-0.2-0.4-0.3-0.8-0.3-1.2c0-0.8,0.2-1.5,0.7-2c0.5-0.5,1.2-0.8,2.1-1l2.9-0.4
		v-0.2c0-0.4-0.1-0.8-0.4-1.1c-0.3-0.3-0.7-0.4-1.3-0.4c-0.3,0-0.5,0-0.8,0.1c-0.3,0.1-0.5,0.1-0.8,0.2c-0.2,0.1-0.5,0.2-0.7,0.3
		c-0.2,0.1-0.4,0.2-0.5,0.3l-1-2c0.6-0.3,1.2-0.6,1.9-0.8c0.7-0.2,1.4-0.3,2.2-0.3c0.5,0,0.9,0,1.4,0.1c0.5,0.1,0.9,0.3,1.3,0.5
		c0.4,0.3,0.7,0.6,0.9,1c0.2,0.4,0.4,1,0.4,1.7v4.1c0,0.3,0.1,0.5,0.2,0.6c0.2,0.1,0.4,0.3,0.6,0.4l-1.2,1.8c-0.5,0-0.8-0.2-1.1-0.4
		C117.8,96.6,117.5,96.4,117.3,96.1z M130,97h-2.6v-5.8c0-0.4,0-0.6-0.1-0.9c-0.1-0.2-0.2-0.4-0.3-0.6c-0.1-0.2-0.3-0.3-0.5-0.3
		c-0.2-0.1-0.4-0.1-0.6-0.1c-0.2,0-0.5,0-0.7,0.1c-0.2,0.1-0.4,0.2-0.6,0.4c-0.2,0.2-0.3,0.4-0.4,0.7c-0.1,0.3-0.1,0.6-0.1,1V97
		h-2.6v-9.9h2.6v0.9c0.3-0.4,0.7-0.6,1.1-0.8c0.4-0.2,0.9-0.3,1.4-0.3c0.5,0,1,0.1,1.4,0.3c0.5,0.2,0.8,0.6,1.1,1
		c0.2-0.2,0.4-0.5,0.6-0.6c0.2-0.2,0.5-0.3,0.7-0.4c0.3-0.1,0.5-0.2,0.8-0.2c0.3,0,0.6-0.1,0.9-0.1c0.6,0,1.1,0.1,1.5,0.3
		c0.4,0.2,0.8,0.4,1.1,0.7c0.3,0.3,0.5,0.7,0.7,1.1c0.2,0.4,0.2,0.8,0.2,1.3V97h-2.6v-5.8c0-0.4,0-0.6-0.1-0.9
		c-0.1-0.2-0.2-0.4-0.3-0.6c-0.1-0.2-0.3-0.3-0.5-0.3c-0.2-0.1-0.4-0.1-0.6-0.1c-0.2,0-0.5,0-0.7,0.1c-0.2,0.1-0.4,0.2-0.6,0.4
		c-0.2,0.2-0.3,0.4-0.4,0.7c-0.1,0.3-0.1,0.6-0.1,1V97z M140.1,92.9c0,0.3,0.1,0.6,0.3,0.8c0.1,0.2,0.3,0.5,0.6,0.6
		c0.2,0.2,0.5,0.3,0.8,0.4c0.3,0.1,0.6,0.1,0.9,0.1c0.4,0,0.8-0.1,1.2-0.2c0.4-0.1,0.8-0.4,1.2-0.6l1.2,1.8c-0.5,0.4-1,0.7-1.7,0.9
		c-0.7,0.2-1.4,0.4-2.2,0.4c-0.7,0-1.3-0.1-1.9-0.4s-1.1-0.6-1.6-1c-0.5-0.4-0.8-1-1.1-1.6c-0.3-0.6-0.4-1.4-0.4-2.2
		c0-0.7,0.1-1.4,0.3-2c0.2-0.6,0.6-1.2,1-1.6c0.4-0.5,0.9-0.8,1.5-1.1c0.6-0.3,1.2-0.4,1.9-0.4c0.7,0,1.3,0.1,1.8,0.4
		c0.6,0.2,1.1,0.6,1.5,1c0.4,0.4,0.7,0.9,1,1.5c0.2,0.6,0.4,1.3,0.4,2v1.2H140.1z M142.2,89.1c-0.6,0-1,0.2-1.4,0.6
		c-0.4,0.4-0.6,0.8-0.7,1.3h4c0-0.5-0.2-1-0.6-1.3C143.2,89.3,142.7,89.1,142.2,89.1z"/>
	<g>
		<rect x="518" y="80" class="st7" width="93" height="37"/>
		<path class="st5" d="M519.9,92.9c0.1,0.2,0.3,0.3,0.5,0.5c0.2,0.2,0.4,0.3,0.7,0.4c0.3,0.1,0.5,0.2,0.8,0.3c0.3,0.1,0.6,0.1,1,0.1
			c0.6,0,1.1-0.1,1.5-0.4c0.3-0.3,0.5-0.6,0.5-1c0-0.4-0.2-0.7-0.5-0.9c-0.3-0.2-0.8-0.4-1.4-0.5l-0.4-0.1c-0.5-0.1-0.9-0.2-1.4-0.3
			c-0.5-0.1-0.9-0.3-1.3-0.6c-0.4-0.3-0.7-0.6-0.9-1c-0.2-0.4-0.4-0.9-0.4-1.5c0-0.4,0.1-0.7,0.2-1.1c0.2-0.4,0.4-0.7,0.7-1.1
			c0.3-0.3,0.8-0.6,1.3-0.8c0.5-0.2,1.2-0.3,2-0.3c0.9,0,1.7,0.2,2.4,0.5c0.7,0.3,1.3,0.7,1.7,1.2l-1.5,1.4
			c-0.3-0.3-0.7-0.6-1.2-0.8c-0.5-0.2-1-0.3-1.5-0.3c-0.6,0-1,0.1-1.4,0.3c-0.3,0.2-0.5,0.5-0.5,0.9c0,0.2,0.1,0.4,0.2,0.6
			c0.1,0.2,0.3,0.3,0.5,0.4c0.2,0.1,0.4,0.2,0.7,0.2c0.3,0.1,0.6,0.1,0.9,0.2l0.2,0c0.4,0.1,0.9,0.2,1.3,0.3
			c0.4,0.1,0.8,0.3,1.2,0.6c0.4,0.2,0.7,0.6,0.9,1c0.2,0.4,0.3,0.9,0.3,1.5c0,0.6-0.1,1.1-0.4,1.5c-0.2,0.4-0.5,0.8-0.9,1.1
			c-0.4,0.3-0.8,0.5-1.3,0.7c-0.5,0.2-1,0.2-1.6,0.2c-0.6,0-1.1,0-1.5-0.1c-0.5-0.1-0.9-0.2-1.3-0.4c-0.4-0.2-0.7-0.4-1-0.6
			c-0.3-0.2-0.6-0.4-0.8-0.7L519.9,92.9z M530.8,92.6c0,0.2,0.1,0.5,0.2,0.7c0.1,0.2,0.3,0.4,0.5,0.5c0.2,0.1,0.4,0.3,0.6,0.3
			c0.2,0.1,0.5,0.1,0.8,0.1c0.3,0,0.7-0.1,1-0.2c0.4-0.1,0.7-0.3,1-0.5l1,1.5c-0.4,0.3-0.9,0.6-1.4,0.8c-0.6,0.2-1.2,0.3-1.8,0.3
			c-0.6,0-1.1-0.1-1.6-0.3s-1-0.5-1.3-0.9c-0.4-0.4-0.7-0.8-0.9-1.4c-0.2-0.5-0.3-1.1-0.3-1.8c0-0.6,0.1-1.2,0.3-1.7
			c0.2-0.5,0.5-1,0.8-1.4c0.4-0.4,0.8-0.7,1.3-0.9c0.5-0.2,1-0.3,1.6-0.3c0.6,0,1.1,0.1,1.5,0.3c0.5,0.2,0.9,0.5,1.2,0.8
			c0.3,0.4,0.6,0.8,0.8,1.3c0.2,0.5,0.3,1.1,0.3,1.7v1H530.8z M532.5,89.3c-0.5,0-0.9,0.2-1.2,0.5c-0.3,0.3-0.5,0.7-0.6,1.1h3.4
			c0-0.4-0.2-0.8-0.5-1.1C533.3,89.5,533,89.3,532.5,89.3z M542.5,89.7h-0.2c-0.3,0-0.6,0-0.9,0.1c-0.3,0.1-0.5,0.2-0.7,0.3
			c-0.2,0.2-0.4,0.4-0.5,0.7c-0.1,0.3-0.2,0.7-0.2,1.1V96h-2.2v-8.4h2.2v0.9c0.1-0.1,0.2-0.3,0.3-0.4c0.1-0.1,0.3-0.2,0.5-0.3
			c0.2-0.1,0.4-0.2,0.6-0.2c0.2-0.1,0.5-0.1,0.8-0.1h0.3V89.7z M545.6,96l-2.6-8.4h2.4l1.5,5.8l1.5-5.8h2.4l-2.5,8.4H545.6z
			 M554.1,96h-2.2v-8.4h2.2V96z M551.7,85.4c0-0.2,0-0.3,0.1-0.5c0.1-0.2,0.2-0.3,0.3-0.4c0.1-0.1,0.3-0.2,0.4-0.3
			c0.2-0.1,0.3-0.1,0.5-0.1c0.2,0,0.3,0,0.5,0.1c0.2,0.1,0.3,0.2,0.4,0.3c0.1,0.1,0.2,0.3,0.3,0.4c0.1,0.2,0.1,0.3,0.1,0.5
			c0,0.2,0,0.4-0.1,0.5c-0.1,0.2-0.2,0.3-0.3,0.4c-0.1,0.1-0.3,0.2-0.4,0.3c-0.2,0.1-0.3,0.1-0.5,0.1c-0.2,0-0.4,0-0.5-0.1
			c-0.2-0.1-0.3-0.2-0.4-0.3c-0.1-0.1-0.2-0.3-0.3-0.4C551.7,85.8,551.7,85.6,551.7,85.4z M557.7,91.9c0,0.3,0,0.5,0.1,0.8
			c0.1,0.3,0.2,0.5,0.3,0.7c0.2,0.2,0.3,0.4,0.6,0.5c0.2,0.1,0.5,0.2,0.9,0.2c0.2,0,0.4,0,0.6-0.1c0.2-0.1,0.3-0.1,0.5-0.2
			c0.1-0.1,0.3-0.2,0.4-0.4c0.1-0.1,0.2-0.3,0.3-0.5l1.9,1c-0.1,0.3-0.3,0.6-0.6,0.9c-0.2,0.3-0.5,0.5-0.8,0.7
			c-0.3,0.2-0.7,0.3-1,0.4c-0.4,0.1-0.8,0.2-1.2,0.2c-0.6,0-1.1-0.1-1.6-0.3c-0.5-0.2-0.9-0.5-1.3-0.9c-0.4-0.4-0.6-0.8-0.8-1.4
			c-0.2-0.5-0.3-1.1-0.3-1.7c0-0.6,0.1-1.2,0.3-1.7c0.2-0.5,0.5-1,0.8-1.4c0.4-0.4,0.8-0.7,1.3-0.9c0.5-0.2,1-0.3,1.6-0.3
			c0.4,0,0.8,0.1,1.2,0.2c0.4,0.1,0.7,0.2,1,0.4c0.3,0.2,0.6,0.4,0.8,0.7c0.2,0.3,0.4,0.6,0.6,0.9l-1.9,1c-0.1-0.2-0.2-0.3-0.3-0.4
			c-0.1-0.1-0.2-0.3-0.4-0.4c-0.1-0.1-0.3-0.2-0.5-0.2c-0.2-0.1-0.4-0.1-0.6-0.1c-0.3,0-0.6,0.1-0.9,0.2c-0.2,0.1-0.4,0.3-0.6,0.5
			c-0.2,0.2-0.3,0.5-0.3,0.7C557.8,91.2,557.7,91.5,557.7,91.9L557.7,91.9z M566.3,92.6c0,0.2,0.1,0.5,0.2,0.7
			c0.1,0.2,0.3,0.4,0.5,0.5c0.2,0.1,0.4,0.3,0.6,0.3c0.2,0.1,0.5,0.1,0.8,0.1c0.3,0,0.7-0.1,1-0.2c0.4-0.1,0.7-0.3,1-0.5l1,1.5
			c-0.4,0.3-0.9,0.6-1.4,0.8c-0.6,0.2-1.2,0.3-1.8,0.3c-0.6,0-1.1-0.1-1.6-0.3c-0.5-0.2-1-0.5-1.3-0.9c-0.4-0.4-0.7-0.8-0.9-1.4
			c-0.2-0.5-0.3-1.1-0.3-1.8c0-0.6,0.1-1.2,0.3-1.7c0.2-0.5,0.5-1,0.8-1.4c0.4-0.4,0.8-0.7,1.3-0.9c0.5-0.2,1-0.3,1.6-0.3
			c0.6,0,1.1,0.1,1.5,0.3c0.5,0.2,0.9,0.5,1.2,0.8c0.3,0.4,0.6,0.8,0.8,1.3c0.2,0.5,0.3,1.1,0.3,1.7v1H566.3z M568.1,89.3
			c-0.5,0-0.9,0.2-1.2,0.5c-0.3,0.3-0.5,0.7-0.6,1.1h3.4c0-0.4-0.2-0.8-0.5-1.1C568.9,89.5,568.5,89.3,568.1,89.3z M576.2,84.8h2.2
			v8.9c0,0.2,0,0.3,0.1,0.4c0.1,0.1,0.3,0.1,0.5,0.1c0.1,0,0.2,0,0.3,0c0.1,0,0.2,0,0.3-0.1l0.2,1.8c-0.1,0-0.3,0-0.5,0.1
			c-0.1,0-0.3,0-0.5,0c-0.2,0-0.4,0-0.6,0c-0.3,0-0.6,0-0.8-0.1c-0.2-0.1-0.5-0.2-0.6-0.3c-0.2-0.2-0.3-0.3-0.4-0.6
			c-0.1-0.2-0.1-0.5-0.1-0.8V84.8z M583.1,96h-2.2v-8.4h2.2V96z M580.7,85.4c0-0.2,0-0.3,0.1-0.5c0.1-0.2,0.2-0.3,0.3-0.4
			c0.1-0.1,0.3-0.2,0.4-0.3c0.2-0.1,0.3-0.1,0.5-0.1c0.2,0,0.3,0,0.5,0.1c0.2,0.1,0.3,0.2,0.4,0.3c0.1,0.1,0.2,0.3,0.3,0.4
			c0.1,0.2,0.1,0.3,0.1,0.5c0,0.2,0,0.4-0.1,0.5c-0.1,0.2-0.2,0.3-0.3,0.4c-0.1,0.1-0.3,0.2-0.4,0.3c-0.2,0.1-0.3,0.1-0.5,0.1
			c-0.2,0-0.4,0-0.5-0.1c-0.2-0.1-0.3-0.2-0.4-0.3c-0.1-0.1-0.2-0.3-0.3-0.4C580.7,85.8,580.7,85.6,580.7,85.4z M584.9,87.6h2.2v0.7
			c0.1-0.1,0.2-0.2,0.4-0.3c0.1-0.1,0.3-0.2,0.5-0.3c0.2-0.1,0.4-0.1,0.6-0.2c0.2-0.1,0.4-0.1,0.7-0.1c0.5,0,0.9,0.1,1.2,0.2
			c0.4,0.1,0.7,0.3,0.9,0.6c0.2,0.3,0.4,0.6,0.6,0.9c0.1,0.3,0.2,0.7,0.2,1.1V96H590v-4.9c0-0.3,0-0.5-0.1-0.8
			c-0.1-0.2-0.2-0.4-0.3-0.5c-0.1-0.1-0.3-0.2-0.4-0.3c-0.2-0.1-0.3-0.1-0.5-0.1c-0.2,0-0.4,0-0.6,0.1c-0.2,0.1-0.4,0.2-0.5,0.4
			c-0.1,0.2-0.2,0.4-0.3,0.6s-0.1,0.5-0.1,0.8V96h-2.2V87.6z M596.1,90.9l2.8-3.3h2.7l-3,3.4l3.1,4.9H599l-2.1-3.4l-0.9,1V96h-2.2
			V84.8h2.2V90.9z M609.3,84.8V96H607v-7.4h-2v-2h0.5c0.3,0,0.6,0,0.8-0.1c0.2-0.1,0.4-0.2,0.5-0.3s0.2-0.3,0.2-0.5
			c0-0.2,0.1-0.4,0.1-0.7v-0.2H609.3z"/>
	</g>
	<rect x="641" y="80" class="st7" width="97" height="37"/>
	<path class="st5" d="M642.9,92.9c0.1,0.2,0.3,0.3,0.5,0.5c0.2,0.2,0.4,0.3,0.7,0.4c0.3,0.1,0.5,0.2,0.8,0.3c0.3,0.1,0.6,0.1,1,0.1
		c0.6,0,1.1-0.1,1.5-0.4c0.3-0.3,0.5-0.6,0.5-1c0-0.4-0.2-0.7-0.5-0.9c-0.3-0.2-0.8-0.4-1.4-0.5l-0.4-0.1c-0.5-0.1-0.9-0.2-1.4-0.3
		c-0.5-0.1-0.9-0.3-1.3-0.6c-0.4-0.3-0.7-0.6-0.9-1c-0.2-0.4-0.4-0.9-0.4-1.5c0-0.4,0.1-0.7,0.2-1.1c0.2-0.4,0.4-0.7,0.7-1.1
		c0.3-0.3,0.8-0.6,1.3-0.8c0.5-0.2,1.2-0.3,2-0.3c0.9,0,1.7,0.2,2.4,0.5c0.7,0.3,1.3,0.7,1.7,1.2l-1.5,1.4c-0.3-0.3-0.7-0.6-1.2-0.8
		c-0.5-0.2-1-0.3-1.5-0.3c-0.6,0-1,0.1-1.4,0.3c-0.3,0.2-0.5,0.5-0.5,0.9c0,0.2,0.1,0.4,0.2,0.6c0.1,0.2,0.3,0.3,0.5,0.4
		c0.2,0.1,0.4,0.2,0.7,0.2c0.3,0.1,0.6,0.1,0.9,0.2l0.2,0c0.4,0.1,0.9,0.2,1.3,0.3c0.4,0.1,0.8,0.3,1.2,0.6c0.4,0.2,0.7,0.6,0.9,1
		c0.2,0.4,0.3,0.9,0.3,1.5c0,0.6-0.1,1.1-0.4,1.5c-0.2,0.4-0.5,0.8-0.9,1.1c-0.4,0.3-0.8,0.5-1.3,0.7c-0.5,0.2-1,0.2-1.6,0.2
		c-0.6,0-1.1,0-1.5-0.1c-0.5-0.1-0.9-0.2-1.3-0.4c-0.4-0.2-0.7-0.4-1-0.6c-0.3-0.2-0.6-0.4-0.8-0.7L642.9,92.9z M653.8,92.6
		c0,0.2,0.1,0.5,0.2,0.7c0.1,0.2,0.3,0.4,0.5,0.5c0.2,0.1,0.4,0.3,0.6,0.3c0.2,0.1,0.5,0.1,0.8,0.1c0.3,0,0.7-0.1,1-0.2
		c0.4-0.1,0.7-0.3,1-0.5l1,1.5c-0.4,0.3-0.9,0.6-1.4,0.8c-0.6,0.2-1.2,0.3-1.8,0.3c-0.6,0-1.1-0.1-1.6-0.3s-1-0.5-1.3-0.9
		c-0.4-0.4-0.7-0.8-0.9-1.4c-0.2-0.5-0.3-1.1-0.3-1.8c0-0.6,0.1-1.2,0.3-1.7c0.2-0.5,0.5-1,0.8-1.4c0.4-0.4,0.8-0.7,1.3-0.9
		c0.5-0.2,1-0.3,1.6-0.3c0.6,0,1.1,0.1,1.5,0.3c0.5,0.2,0.9,0.5,1.2,0.8c0.3,0.4,0.6,0.8,0.8,1.3c0.2,0.5,0.3,1.1,0.3,1.7v1H653.8z
		 M655.5,89.3c-0.5,0-0.9,0.2-1.2,0.5c-0.3,0.3-0.5,0.7-0.6,1.1h3.4c0-0.4-0.2-0.8-0.5-1.1C656.3,89.5,656,89.3,655.5,89.3z
		 M665.5,89.7h-0.2c-0.3,0-0.6,0-0.9,0.1c-0.3,0.1-0.5,0.2-0.7,0.3c-0.2,0.2-0.4,0.4-0.5,0.7c-0.1,0.3-0.2,0.7-0.2,1.1V96h-2.2v-8.4
		h2.2v0.9c0.1-0.1,0.2-0.3,0.3-0.4c0.1-0.1,0.3-0.2,0.5-0.3c0.2-0.1,0.4-0.2,0.6-0.2c0.2-0.1,0.5-0.1,0.8-0.1h0.3V89.7z M668.6,96
		l-2.6-8.4h2.4l1.5,5.8l1.5-5.8h2.4l-2.5,8.4H668.6z M677.1,96h-2.2v-8.4h2.2V96z M674.7,85.4c0-0.2,0-0.3,0.1-0.5
		c0.1-0.2,0.2-0.3,0.3-0.4c0.1-0.1,0.3-0.2,0.4-0.3c0.2-0.1,0.3-0.1,0.5-0.1c0.2,0,0.3,0,0.5,0.1c0.2,0.1,0.3,0.2,0.4,0.3
		c0.1,0.1,0.2,0.3,0.3,0.4c0.1,0.2,0.1,0.3,0.1,0.5c0,0.2,0,0.4-0.1,0.5c-0.1,0.2-0.2,0.3-0.3,0.4c-0.1,0.1-0.3,0.2-0.4,0.3
		c-0.2,0.1-0.3,0.1-0.5,0.1c-0.2,0-0.4,0-0.5-0.1c-0.2-0.1-0.3-0.2-0.4-0.3c-0.1-0.1-0.2-0.3-0.3-0.4
		C674.7,85.8,674.7,85.6,674.7,85.4z M680.7,91.9c0,0.3,0,0.5,0.1,0.8c0.1,0.3,0.2,0.5,0.3,0.7c0.2,0.2,0.3,0.4,0.6,0.5
		c0.2,0.1,0.5,0.2,0.9,0.2c0.2,0,0.4,0,0.6-0.1c0.2-0.1,0.3-0.1,0.5-0.2c0.1-0.1,0.3-0.2,0.4-0.4c0.1-0.1,0.2-0.3,0.3-0.5l1.9,1
		c-0.1,0.3-0.3,0.6-0.6,0.9c-0.2,0.3-0.5,0.5-0.8,0.7c-0.3,0.2-0.7,0.3-1,0.4c-0.4,0.1-0.8,0.2-1.2,0.2c-0.6,0-1.1-0.1-1.6-0.3
		c-0.5-0.2-0.9-0.5-1.3-0.9c-0.4-0.4-0.6-0.8-0.8-1.4c-0.2-0.5-0.3-1.1-0.3-1.7c0-0.6,0.1-1.2,0.3-1.7c0.2-0.5,0.5-1,0.8-1.4
		c0.4-0.4,0.8-0.7,1.3-0.9c0.5-0.2,1-0.3,1.6-0.3c0.4,0,0.8,0.1,1.2,0.2c0.4,0.1,0.7,0.2,1,0.4c0.3,0.2,0.6,0.4,0.8,0.7
		c0.2,0.3,0.4,0.6,0.6,0.9l-1.9,1c-0.1-0.2-0.2-0.3-0.3-0.4c-0.1-0.1-0.2-0.3-0.4-0.4c-0.1-0.1-0.3-0.2-0.5-0.2
		c-0.2-0.1-0.4-0.1-0.6-0.1c-0.3,0-0.6,0.1-0.9,0.2c-0.2,0.1-0.4,0.3-0.6,0.5c-0.2,0.2-0.3,0.5-0.3,0.7
		C680.8,91.2,680.7,91.5,680.7,91.9L680.7,91.9z M689.3,92.6c0,0.2,0.1,0.5,0.2,0.7c0.1,0.2,0.3,0.4,0.5,0.5
		c0.2,0.1,0.4,0.3,0.6,0.3c0.2,0.1,0.5,0.1,0.8,0.1c0.3,0,0.7-0.1,1-0.2c0.4-0.1,0.7-0.3,1-0.5l1,1.5c-0.4,0.3-0.9,0.6-1.4,0.8
		c-0.6,0.2-1.2,0.3-1.8,0.3c-0.6,0-1.1-0.1-1.6-0.3c-0.5-0.2-1-0.5-1.3-0.9c-0.4-0.4-0.7-0.8-0.9-1.4c-0.2-0.5-0.3-1.1-0.3-1.8
		c0-0.6,0.1-1.2,0.3-1.7c0.2-0.5,0.5-1,0.8-1.4c0.4-0.4,0.8-0.7,1.3-0.9c0.5-0.2,1-0.3,1.6-0.3c0.6,0,1.1,0.1,1.5,0.3
		c0.5,0.2,0.9,0.5,1.2,0.8c0.3,0.4,0.6,0.8,0.8,1.3c0.2,0.5,0.3,1.1,0.3,1.7v1H689.3z M691.1,89.3c-0.5,0-0.9,0.2-1.2,0.5
		c-0.3,0.3-0.5,0.7-0.6,1.1h3.4c0-0.4-0.2-0.8-0.5-1.1C691.9,89.5,691.5,89.3,691.1,89.3z M699.2,84.8h2.2v8.9c0,0.2,0,0.3,0.1,0.4
		c0.1,0.1,0.3,0.1,0.5,0.1c0.1,0,0.2,0,0.3,0c0.1,0,0.2,0,0.3-0.1l0.2,1.8c-0.1,0-0.3,0-0.5,0.1c-0.1,0-0.3,0-0.5,0
		c-0.2,0-0.4,0-0.6,0c-0.3,0-0.6,0-0.8-0.1c-0.2-0.1-0.5-0.2-0.6-0.3c-0.2-0.2-0.3-0.3-0.4-0.6c-0.1-0.2-0.1-0.5-0.1-0.8V84.8z
		 M706.1,96h-2.2v-8.4h2.2V96z M703.7,85.4c0-0.2,0-0.3,0.1-0.5c0.1-0.2,0.2-0.3,0.3-0.4c0.1-0.1,0.3-0.2,0.4-0.3
		c0.2-0.1,0.3-0.1,0.5-0.1c0.2,0,0.3,0,0.5,0.1c0.2,0.1,0.3,0.2,0.4,0.3c0.1,0.1,0.2,0.3,0.3,0.4c0.1,0.2,0.1,0.3,0.1,0.5
		c0,0.2,0,0.4-0.1,0.5c-0.1,0.2-0.2,0.3-0.3,0.4c-0.1,0.1-0.3,0.2-0.4,0.3c-0.2,0.1-0.3,0.1-0.5,0.1c-0.2,0-0.4,0-0.5-0.1
		c-0.2-0.1-0.3-0.2-0.4-0.3c-0.1-0.1-0.2-0.3-0.3-0.4C703.7,85.8,703.7,85.6,703.7,85.4z M707.9,87.6h2.2v0.7
		c0.1-0.1,0.2-0.2,0.4-0.3c0.1-0.1,0.3-0.2,0.5-0.3c0.2-0.1,0.4-0.1,0.6-0.2c0.2-0.1,0.4-0.1,0.7-0.1c0.5,0,0.9,0.1,1.2,0.2
		c0.4,0.1,0.7,0.3,0.9,0.6c0.2,0.3,0.4,0.6,0.6,0.9c0.1,0.3,0.2,0.7,0.2,1.1V96H713v-4.9c0-0.3,0-0.5-0.1-0.8
		c-0.1-0.2-0.2-0.4-0.3-0.5c-0.1-0.1-0.3-0.2-0.4-0.3c-0.2-0.1-0.3-0.1-0.5-0.1c-0.2,0-0.4,0-0.6,0.1c-0.2,0.1-0.4,0.2-0.5,0.4
		c-0.1,0.2-0.2,0.4-0.3,0.6s-0.1,0.5-0.1,0.8V96h-2.2V87.6z M719.1,90.9l2.8-3.3h2.7l-3,3.4l3.1,4.9H722l-2.1-3.4l-0.9,1V96h-2.2
		V84.8h2.2V90.9z M732.2,86.7c-0.3,0-0.6,0-0.8,0.1c-0.2,0.1-0.4,0.2-0.6,0.4s-0.3,0.4-0.3,0.6c-0.1,0.2-0.1,0.5-0.1,0.8l-2.3-0.2
		c0-0.6,0.1-1.2,0.3-1.6c0.2-0.5,0.5-0.9,0.9-1.2c0.4-0.3,0.8-0.6,1.3-0.7c0.5-0.2,1.1-0.3,1.6-0.3c0.6,0,1.2,0.1,1.7,0.3
		c0.5,0.2,1,0.4,1.3,0.8c0.4,0.3,0.6,0.7,0.8,1.2c0.2,0.5,0.3,1,0.3,1.5c0,0.6-0.1,1.2-0.4,1.7c-0.2,0.5-0.6,1-1,1.5
		c-0.4,0.4-0.9,0.9-1.4,1.2c-0.5,0.4-1.1,0.7-1.6,1l-0.2,0.1h4.7v2h-8.2v-2c0.4-0.2,0.9-0.5,1.3-0.7c0.4-0.3,0.9-0.5,1.3-0.8
		c0.4-0.3,0.8-0.6,1.2-0.9c0.4-0.3,0.7-0.6,1-1c0.3-0.3,0.5-0.7,0.7-1c0.2-0.4,0.2-0.7,0.2-1.1c0-0.2,0-0.4-0.1-0.6
		c-0.1-0.2-0.2-0.4-0.3-0.6c-0.1-0.2-0.3-0.3-0.5-0.4C732.8,86.8,732.5,86.7,732.2,86.7z"/>
	<rect x="768" y="80" class="st7" width="97" height="37"/>
	<path class="st5" d="M769.9,92.9c0.1,0.2,0.3,0.3,0.5,0.5c0.2,0.2,0.4,0.3,0.7,0.4c0.3,0.1,0.5,0.2,0.8,0.3c0.3,0.1,0.6,0.1,1,0.1
		c0.6,0,1.1-0.1,1.5-0.4c0.3-0.3,0.5-0.6,0.5-1c0-0.4-0.2-0.7-0.5-0.9c-0.3-0.2-0.8-0.4-1.4-0.5l-0.4-0.1c-0.5-0.1-0.9-0.2-1.4-0.3
		c-0.5-0.1-0.9-0.3-1.3-0.6c-0.4-0.3-0.7-0.6-0.9-1c-0.2-0.4-0.4-0.9-0.4-1.5c0-0.4,0.1-0.7,0.2-1.1c0.2-0.4,0.4-0.7,0.7-1.1
		c0.3-0.3,0.8-0.6,1.3-0.8c0.5-0.2,1.2-0.3,2-0.3c0.9,0,1.7,0.2,2.4,0.5c0.7,0.3,1.3,0.7,1.7,1.2l-1.5,1.4c-0.3-0.3-0.7-0.6-1.2-0.8
		c-0.5-0.2-1-0.3-1.5-0.3c-0.6,0-1,0.1-1.4,0.3c-0.3,0.2-0.5,0.5-0.5,0.9c0,0.2,0.1,0.4,0.2,0.6c0.1,0.2,0.3,0.3,0.5,0.4
		c0.2,0.1,0.4,0.2,0.7,0.2c0.3,0.1,0.6,0.1,0.9,0.2l0.2,0c0.4,0.1,0.9,0.2,1.3,0.3c0.4,0.1,0.8,0.3,1.2,0.6c0.4,0.2,0.7,0.6,0.9,1
		c0.2,0.4,0.3,0.9,0.3,1.5c0,0.6-0.1,1.1-0.4,1.5c-0.2,0.4-0.5,0.8-0.9,1.1c-0.4,0.3-0.8,0.5-1.3,0.7c-0.5,0.2-1,0.2-1.6,0.2
		c-0.6,0-1.1,0-1.5-0.1c-0.5-0.1-0.9-0.2-1.3-0.4c-0.4-0.2-0.7-0.4-1-0.6c-0.3-0.2-0.6-0.4-0.8-0.7L769.9,92.9z M780.8,92.6
		c0,0.2,0.1,0.5,0.2,0.7c0.1,0.2,0.3,0.4,0.5,0.5c0.2,0.1,0.4,0.3,0.6,0.3c0.2,0.1,0.5,0.1,0.8,0.1c0.3,0,0.7-0.1,1-0.2
		c0.4-0.1,0.7-0.3,1-0.5l1,1.5c-0.4,0.3-0.9,0.6-1.4,0.8c-0.6,0.2-1.2,0.3-1.8,0.3c-0.6,0-1.1-0.1-1.6-0.3s-1-0.5-1.3-0.9
		c-0.4-0.4-0.7-0.8-0.9-1.4c-0.2-0.5-0.3-1.1-0.3-1.8c0-0.6,0.1-1.2,0.3-1.7c0.2-0.5,0.5-1,0.8-1.4c0.4-0.4,0.8-0.7,1.3-0.9
		c0.5-0.2,1-0.3,1.6-0.3c0.6,0,1.1,0.1,1.5,0.3c0.5,0.2,0.9,0.5,1.2,0.8c0.3,0.4,0.6,0.8,0.8,1.3c0.2,0.5,0.3,1.1,0.3,1.7v1H780.8z
		 M782.5,89.3c-0.5,0-0.9,0.2-1.2,0.5c-0.3,0.3-0.5,0.7-0.6,1.1h3.4c0-0.4-0.2-0.8-0.5-1.1C783.3,89.5,783,89.3,782.5,89.3z
		 M792.5,89.7h-0.2c-0.3,0-0.6,0-0.9,0.1c-0.3,0.1-0.5,0.2-0.7,0.3c-0.2,0.2-0.4,0.4-0.5,0.7c-0.1,0.3-0.2,0.7-0.2,1.1V96h-2.2v-8.4
		h2.2v0.9c0.1-0.1,0.2-0.3,0.3-0.4c0.1-0.1,0.3-0.2,0.5-0.3c0.2-0.1,0.4-0.2,0.6-0.2c0.2-0.1,0.5-0.1,0.8-0.1h0.3V89.7z M795.6,96
		l-2.6-8.4h2.4l1.5,5.8l1.5-5.8h2.4l-2.5,8.4H795.6z M804.1,96h-2.2v-8.4h2.2V96z M801.7,85.4c0-0.2,0-0.3,0.1-0.5
		c0.1-0.2,0.2-0.3,0.3-0.4c0.1-0.1,0.3-0.2,0.4-0.3c0.2-0.1,0.3-0.1,0.5-0.1c0.2,0,0.3,0,0.5,0.1c0.2,0.1,0.3,0.2,0.4,0.3
		c0.1,0.1,0.2,0.3,0.3,0.4c0.1,0.2,0.1,0.3,0.1,0.5c0,0.2,0,0.4-0.1,0.5c-0.1,0.2-0.2,0.3-0.3,0.4c-0.1,0.1-0.3,0.2-0.4,0.3
		c-0.2,0.1-0.3,0.1-0.5,0.1c-0.2,0-0.4,0-0.5-0.1c-0.2-0.1-0.3-0.2-0.4-0.3c-0.1-0.1-0.2-0.3-0.3-0.4
		C801.7,85.8,801.7,85.6,801.7,85.4z M807.7,91.9c0,0.3,0,0.5,0.1,0.8c0.1,0.3,0.2,0.5,0.3,0.7c0.2,0.2,0.3,0.4,0.6,0.5
		c0.2,0.1,0.5,0.2,0.9,0.2c0.2,0,0.4,0,0.6-0.1c0.2-0.1,0.3-0.1,0.5-0.2c0.1-0.1,0.3-0.2,0.4-0.4c0.1-0.1,0.2-0.3,0.3-0.5l1.9,1
		c-0.1,0.3-0.3,0.6-0.6,0.9c-0.2,0.3-0.5,0.5-0.8,0.7c-0.3,0.2-0.7,0.3-1,0.4c-0.4,0.1-0.8,0.2-1.2,0.2c-0.6,0-1.1-0.1-1.6-0.3
		c-0.5-0.2-0.9-0.5-1.3-0.9c-0.4-0.4-0.6-0.8-0.8-1.4c-0.2-0.5-0.3-1.1-0.3-1.7c0-0.6,0.1-1.2,0.3-1.7c0.2-0.5,0.5-1,0.8-1.4
		c0.4-0.4,0.8-0.7,1.3-0.9c0.5-0.2,1-0.3,1.6-0.3c0.4,0,0.8,0.1,1.2,0.2c0.4,0.1,0.7,0.2,1,0.4c0.3,0.2,0.6,0.4,0.8,0.7
		c0.2,0.3,0.4,0.6,0.6,0.9l-1.9,1c-0.1-0.2-0.2-0.3-0.3-0.4c-0.1-0.1-0.2-0.3-0.4-0.4c-0.1-0.1-0.3-0.2-0.5-0.2
		c-0.2-0.1-0.4-0.1-0.6-0.1c-0.3,0-0.6,0.1-0.9,0.2c-0.2,0.1-0.4,0.3-0.6,0.5c-0.2,0.2-0.3,0.5-0.3,0.7
		C807.8,91.2,807.7,91.5,807.7,91.9L807.7,91.9z M816.3,92.6c0,0.2,0.1,0.5,0.2,0.7c0.1,0.2,0.3,0.4,0.5,0.5
		c0.2,0.1,0.4,0.3,0.6,0.3c0.2,0.1,0.5,0.1,0.8,0.1c0.3,0,0.7-0.1,1-0.2c0.4-0.1,0.7-0.3,1-0.5l1,1.5c-0.4,0.3-0.9,0.6-1.4,0.8
		c-0.6,0.2-1.2,0.3-1.8,0.3c-0.6,0-1.1-0.1-1.6-0.3c-0.5-0.2-1-0.5-1.3-0.9c-0.4-0.4-0.7-0.8-0.9-1.4c-0.2-0.5-0.3-1.1-0.3-1.8
		c0-0.6,0.1-1.2,0.3-1.7c0.2-0.5,0.5-1,0.8-1.4c0.4-0.4,0.8-0.7,1.3-0.9c0.5-0.2,1-0.3,1.6-0.3c0.6,0,1.1,0.1,1.5,0.3
		c0.5,0.2,0.9,0.5,1.2,0.8c0.3,0.4,0.6,0.8,0.8,1.3c0.2,0.5,0.3,1.1,0.3,1.7v1H816.3z M818.1,89.3c-0.5,0-0.9,0.2-1.2,0.5
		c-0.3,0.3-0.5,0.7-0.6,1.1h3.4c0-0.4-0.2-0.8-0.5-1.1C818.9,89.5,818.5,89.3,818.1,89.3z M826.2,84.8h2.2v8.9c0,0.2,0,0.3,0.1,0.4
		c0.1,0.1,0.3,0.1,0.5,0.1c0.1,0,0.2,0,0.3,0c0.1,0,0.2,0,0.3-0.1l0.2,1.8c-0.1,0-0.3,0-0.5,0.1c-0.1,0-0.3,0-0.5,0
		c-0.2,0-0.4,0-0.6,0c-0.3,0-0.6,0-0.8-0.1c-0.2-0.1-0.5-0.2-0.6-0.3c-0.2-0.2-0.3-0.3-0.4-0.6c-0.1-0.2-0.1-0.5-0.1-0.8V84.8z
		 M833.1,96h-2.2v-8.4h2.2V96z M830.7,85.4c0-0.2,0-0.3,0.1-0.5c0.1-0.2,0.2-0.3,0.3-0.4c0.1-0.1,0.3-0.2,0.4-0.3
		c0.2-0.1,0.3-0.1,0.5-0.1c0.2,0,0.3,0,0.5,0.1c0.2,0.1,0.3,0.2,0.4,0.3c0.1,0.1,0.2,0.3,0.3,0.4c0.1,0.2,0.1,0.3,0.1,0.5
		c0,0.2,0,0.4-0.1,0.5c-0.1,0.2-0.2,0.3-0.3,0.4c-0.1,0.1-0.3,0.2-0.4,0.3c-0.2,0.1-0.3,0.1-0.5,0.1c-0.2,0-0.4,0-0.5-0.1
		c-0.2-0.1-0.3-0.2-0.4-0.3c-0.1-0.1-0.2-0.3-0.3-0.4C830.7,85.8,830.7,85.6,830.7,85.4z M834.9,87.6h2.2v0.7
		c0.1-0.1,0.2-0.2,0.4-0.3c0.1-0.1,0.3-0.2,0.5-0.3c0.2-0.1,0.4-0.1,0.6-0.2c0.2-0.1,0.4-0.1,0.7-0.1c0.5,0,0.9,0.1,1.2,0.2
		c0.4,0.1,0.7,0.3,0.9,0.6c0.2,0.3,0.4,0.6,0.6,0.9c0.1,0.3,0.2,0.7,0.2,1.1V96H840v-4.9c0-0.3,0-0.5-0.1-0.8
		c-0.1-0.2-0.2-0.4-0.3-0.5c-0.1-0.1-0.3-0.2-0.4-0.3c-0.2-0.1-0.3-0.1-0.5-0.1c-0.2,0-0.4,0-0.6,0.1c-0.2,0.1-0.4,0.2-0.5,0.4
		c-0.1,0.2-0.2,0.4-0.3,0.6s-0.1,0.5-0.1,0.8V96h-2.2V87.6z M846.1,90.9l2.8-3.3h2.7l-3,3.4l3.1,4.9H849l-2.1-3.4l-0.9,1V96h-2.2
		V84.8h2.2V90.9z M857.2,92.6c0.1,0.3,0.2,0.5,0.4,0.7c0.2,0.2,0.3,0.4,0.5,0.5c0.2,0.1,0.4,0.2,0.7,0.3c0.2,0.1,0.5,0.1,0.7,0.1
		c0.4,0,0.7,0,0.9-0.1c0.2-0.1,0.5-0.2,0.6-0.3c0.2-0.1,0.3-0.3,0.3-0.5c0.1-0.2,0.1-0.4,0.1-0.5c0-0.4-0.2-0.8-0.6-1
		c-0.4-0.3-0.9-0.4-1.7-0.4h-0.6v-1.9h0.5c0.7,0,1.2-0.1,1.6-0.3c0.4-0.2,0.6-0.6,0.6-1c0-0.2,0-0.4-0.1-0.5
		c-0.1-0.2-0.2-0.3-0.4-0.4c-0.2-0.1-0.3-0.2-0.5-0.2c-0.2-0.1-0.4-0.1-0.7-0.1c-0.3,0-0.5,0-0.8,0.1c-0.2,0.1-0.4,0.2-0.6,0.3
		c-0.2,0.1-0.3,0.3-0.5,0.5c-0.1,0.2-0.2,0.4-0.3,0.6l-2-0.8c0.1-0.4,0.3-0.8,0.6-1.2c0.3-0.3,0.6-0.6,1-0.9
		c0.4-0.2,0.8-0.4,1.2-0.5c0.4-0.1,0.9-0.2,1.4-0.2c0.6,0,1.1,0.1,1.6,0.2c0.5,0.1,0.9,0.3,1.3,0.6c0.4,0.3,0.7,0.6,0.9,1
		c0.2,0.4,0.3,0.8,0.3,1.3c0,0.3,0,0.6-0.1,0.8c-0.1,0.3-0.2,0.5-0.4,0.7c-0.2,0.2-0.4,0.4-0.6,0.5c-0.2,0.1-0.5,0.3-0.7,0.3
		c0.3,0.1,0.6,0.2,0.8,0.3c0.2,0.1,0.5,0.3,0.7,0.5c0.2,0.2,0.3,0.5,0.4,0.8c0.1,0.3,0.2,0.6,0.2,0.9c0,0.5-0.1,1-0.3,1.4
		c-0.2,0.4-0.5,0.8-0.9,1.1c-0.4,0.3-0.8,0.5-1.4,0.7c-0.5,0.2-1.1,0.2-1.7,0.2c-0.5,0-1.1-0.1-1.5-0.2c-0.5-0.1-0.9-0.3-1.3-0.6
		c-0.4-0.3-0.7-0.6-1-0.9c-0.3-0.4-0.5-0.8-0.5-1.3L857.2,92.6z"/>
	<rect x="895" y="80" class="st7" width="97" height="37"/>
	<path class="st5" d="M896.9,92.9c0.1,0.2,0.3,0.3,0.5,0.5c0.2,0.2,0.4,0.3,0.7,0.4c0.3,0.1,0.5,0.2,0.8,0.3c0.3,0.1,0.6,0.1,1,0.1
		c0.6,0,1.1-0.1,1.5-0.4c0.3-0.3,0.5-0.6,0.5-1c0-0.4-0.2-0.7-0.5-0.9c-0.3-0.2-0.8-0.4-1.4-0.5l-0.4-0.1c-0.5-0.1-0.9-0.2-1.4-0.3
		c-0.5-0.1-0.9-0.3-1.3-0.6c-0.4-0.3-0.7-0.6-0.9-1c-0.2-0.4-0.4-0.9-0.4-1.5c0-0.4,0.1-0.7,0.2-1.1c0.2-0.4,0.4-0.7,0.7-1.1
		c0.3-0.3,0.8-0.6,1.3-0.8c0.5-0.2,1.2-0.3,2-0.3c0.9,0,1.7,0.2,2.4,0.5c0.7,0.3,1.3,0.7,1.7,1.2l-1.5,1.4c-0.3-0.3-0.7-0.6-1.2-0.8
		c-0.5-0.2-1-0.3-1.5-0.3c-0.6,0-1,0.1-1.4,0.3c-0.3,0.2-0.5,0.5-0.5,0.9c0,0.2,0.1,0.4,0.2,0.6c0.1,0.2,0.3,0.3,0.5,0.4
		c0.2,0.1,0.4,0.2,0.7,0.2c0.3,0.1,0.6,0.1,0.9,0.2l0.2,0c0.4,0.1,0.9,0.2,1.3,0.3c0.4,0.1,0.8,0.3,1.2,0.6c0.4,0.2,0.7,0.6,0.9,1
		c0.2,0.4,0.3,0.9,0.3,1.5c0,0.6-0.1,1.1-0.4,1.5c-0.2,0.4-0.5,0.8-0.9,1.1c-0.4,0.3-0.8,0.5-1.3,0.7c-0.5,0.2-1,0.2-1.6,0.2
		c-0.6,0-1.1,0-1.5-0.1c-0.5-0.1-0.9-0.2-1.3-0.4c-0.4-0.2-0.7-0.4-1-0.6c-0.3-0.2-0.6-0.4-0.8-0.7L896.9,92.9z M907.8,92.6
		c0,0.2,0.1,0.5,0.2,0.7c0.1,0.2,0.3,0.4,0.5,0.5c0.2,0.1,0.4,0.3,0.6,0.3c0.2,0.1,0.5,0.1,0.8,0.1c0.3,0,0.7-0.1,1-0.2
		c0.4-0.1,0.7-0.3,1-0.5l1,1.5c-0.4,0.3-0.9,0.6-1.4,0.8c-0.6,0.2-1.2,0.3-1.8,0.3c-0.6,0-1.1-0.1-1.6-0.3s-1-0.5-1.3-0.9
		c-0.4-0.4-0.7-0.8-0.9-1.4c-0.2-0.5-0.3-1.1-0.3-1.8c0-0.6,0.1-1.2,0.3-1.7c0.2-0.5,0.5-1,0.8-1.4c0.4-0.4,0.8-0.7,1.3-0.9
		c0.5-0.2,1-0.3,1.6-0.3c0.6,0,1.1,0.1,1.5,0.3c0.5,0.2,0.9,0.5,1.2,0.8c0.3,0.4,0.6,0.8,0.8,1.3c0.2,0.5,0.3,1.1,0.3,1.7v1H907.8z
		 M909.5,89.3c-0.5,0-0.9,0.2-1.2,0.5c-0.3,0.3-0.5,0.7-0.6,1.1h3.4c0-0.4-0.2-0.8-0.5-1.1C910.3,89.5,910,89.3,909.5,89.3z
		 M919.5,89.7h-0.2c-0.3,0-0.6,0-0.9,0.1c-0.3,0.1-0.5,0.2-0.7,0.3c-0.2,0.2-0.4,0.4-0.5,0.7c-0.1,0.3-0.2,0.7-0.2,1.1V96h-2.2v-8.4
		h2.2v0.9c0.1-0.1,0.2-0.3,0.3-0.4c0.1-0.1,0.3-0.2,0.5-0.3c0.2-0.1,0.4-0.2,0.6-0.2c0.2-0.1,0.5-0.1,0.8-0.1h0.3V89.7z M922.6,96
		l-2.6-8.4h2.4l1.5,5.8l1.5-5.8h2.4l-2.5,8.4H922.6z M931.1,96h-2.2v-8.4h2.2V96z M928.7,85.4c0-0.2,0-0.3,0.1-0.5
		c0.1-0.2,0.2-0.3,0.3-0.4c0.1-0.1,0.3-0.2,0.4-0.3c0.2-0.1,0.3-0.1,0.5-0.1c0.2,0,0.3,0,0.5,0.1c0.2,0.1,0.3,0.2,0.4,0.3
		c0.1,0.1,0.2,0.3,0.3,0.4c0.1,0.2,0.1,0.3,0.1,0.5c0,0.2,0,0.4-0.1,0.5c-0.1,0.2-0.2,0.3-0.3,0.4c-0.1,0.1-0.3,0.2-0.4,0.3
		c-0.2,0.1-0.3,0.1-0.5,0.1c-0.2,0-0.4,0-0.5-0.1c-0.2-0.1-0.3-0.2-0.4-0.3c-0.1-0.1-0.2-0.3-0.3-0.4
		C928.7,85.8,928.7,85.6,928.7,85.4z M934.7,91.9c0,0.3,0,0.5,0.1,0.8c0.1,0.3,0.2,0.5,0.3,0.7c0.2,0.2,0.3,0.4,0.6,0.5
		c0.2,0.1,0.5,0.2,0.9,0.2c0.2,0,0.4,0,0.6-0.1c0.2-0.1,0.3-0.1,0.5-0.2c0.1-0.1,0.3-0.2,0.4-0.4c0.1-0.1,0.2-0.3,0.3-0.5l1.9,1
		c-0.1,0.3-0.3,0.6-0.6,0.9c-0.2,0.3-0.5,0.5-0.8,0.7c-0.3,0.2-0.7,0.3-1,0.4c-0.4,0.1-0.8,0.2-1.2,0.2c-0.6,0-1.1-0.1-1.6-0.3
		c-0.5-0.2-0.9-0.5-1.3-0.9c-0.4-0.4-0.6-0.8-0.8-1.4c-0.2-0.5-0.3-1.1-0.3-1.7c0-0.6,0.1-1.2,0.3-1.7c0.2-0.5,0.5-1,0.8-1.4
		c0.4-0.4,0.8-0.7,1.3-0.9c0.5-0.2,1-0.3,1.6-0.3c0.4,0,0.8,0.1,1.2,0.2c0.4,0.1,0.7,0.2,1,0.4c0.3,0.2,0.6,0.4,0.8,0.7
		c0.2,0.3,0.4,0.6,0.6,0.9l-1.9,1c-0.1-0.2-0.2-0.3-0.3-0.4c-0.1-0.1-0.2-0.3-0.4-0.4c-0.1-0.1-0.3-0.2-0.5-0.2
		c-0.2-0.1-0.4-0.1-0.6-0.1c-0.3,0-0.6,0.1-0.9,0.2c-0.2,0.1-0.4,0.3-0.6,0.5c-0.2,0.2-0.3,0.5-0.3,0.7
		C934.8,91.2,934.7,91.5,934.7,91.9L934.7,91.9z M943.3,92.6c0,0.2,0.1,0.5,0.2,0.7c0.1,0.2,0.3,0.4,0.5,0.5
		c0.2,0.1,0.4,0.3,0.6,0.3c0.2,0.1,0.5,0.1,0.8,0.1c0.3,0,0.7-0.1,1-0.2c0.4-0.1,0.7-0.3,1-0.5l1,1.5c-0.4,0.3-0.9,0.6-1.4,0.8
		c-0.6,0.2-1.2,0.3-1.8,0.3c-0.6,0-1.1-0.1-1.6-0.3c-0.5-0.2-1-0.5-1.3-0.9c-0.4-0.4-0.7-0.8-0.9-1.4c-0.2-0.5-0.3-1.1-0.3-1.8
		c0-0.6,0.1-1.2,0.3-1.7c0.2-0.5,0.5-1,0.8-1.4c0.4-0.4,0.8-0.7,1.3-0.9c0.5-0.2,1-0.3,1.6-0.3c0.6,0,1.1,0.1,1.5,0.3
		c0.5,0.2,0.9,0.5,1.2,0.8c0.3,0.4,0.6,0.8,0.8,1.3c0.2,0.5,0.3,1.1,0.3,1.7v1H943.3z M945.1,89.3c-0.5,0-0.9,0.2-1.2,0.5
		c-0.3,0.3-0.5,0.7-0.6,1.1h3.4c0-0.4-0.2-0.8-0.5-1.1C945.9,89.5,945.5,89.3,945.1,89.3z M953.2,84.8h2.2v8.9c0,0.2,0,0.3,0.1,0.4
		c0.1,0.1,0.3,0.1,0.5,0.1c0.1,0,0.2,0,0.3,0c0.1,0,0.2,0,0.3-0.1l0.2,1.8c-0.1,0-0.3,0-0.5,0.1c-0.1,0-0.3,0-0.5,0
		c-0.2,0-0.4,0-0.6,0c-0.3,0-0.6,0-0.8-0.1c-0.2-0.1-0.5-0.2-0.6-0.3c-0.2-0.2-0.3-0.3-0.4-0.6c-0.1-0.2-0.1-0.5-0.1-0.8V84.8z
		 M960.1,96h-2.2v-8.4h2.2V96z M957.7,85.4c0-0.2,0-0.3,0.1-0.5c0.1-0.2,0.2-0.3,0.3-0.4c0.1-0.1,0.3-0.2,0.4-0.3
		c0.2-0.1,0.3-0.1,0.5-0.1c0.2,0,0.3,0,0.5,0.1c0.2,0.1,0.3,0.2,0.4,0.3c0.1,0.1,0.2,0.3,0.3,0.4c0.1,0.2,0.1,0.3,0.1,0.5
		c0,0.2,0,0.4-0.1,0.5c-0.1,0.2-0.2,0.3-0.3,0.4c-0.1,0.1-0.3,0.2-0.4,0.3c-0.2,0.1-0.3,0.1-0.5,0.1c-0.2,0-0.4,0-0.5-0.1
		c-0.2-0.1-0.3-0.2-0.4-0.3c-0.1-0.1-0.2-0.3-0.3-0.4C957.7,85.8,957.7,85.6,957.7,85.4z M961.9,87.6h2.2v0.7
		c0.1-0.1,0.2-0.2,0.4-0.3c0.1-0.1,0.3-0.2,0.5-0.3c0.2-0.1,0.4-0.1,0.6-0.2c0.2-0.1,0.4-0.1,0.7-0.1c0.5,0,0.9,0.1,1.2,0.2
		c0.4,0.1,0.7,0.3,0.9,0.6c0.2,0.3,0.4,0.6,0.6,0.9c0.1,0.3,0.2,0.7,0.2,1.1V96H967v-4.9c0-0.3,0-0.5-0.1-0.8
		c-0.1-0.2-0.2-0.4-0.3-0.5c-0.1-0.1-0.3-0.2-0.4-0.3c-0.2-0.1-0.3-0.1-0.5-0.1c-0.2,0-0.4,0-0.6,0.1c-0.2,0.1-0.4,0.2-0.5,0.4
		c-0.1,0.2-0.2,0.4-0.3,0.6s-0.1,0.5-0.1,0.8V96h-2.2V87.6z M973.1,90.9l2.8-3.3h2.7l-3,3.4l3.1,4.9H976l-2.1-3.4l-0.9,1V96h-2.2
		V84.8h2.2V90.9z M987.5,96v-2.5h-5.6v-2.4l5-6.3h2.9v6.6h1.6v2h-1.6V96H987.5z M987.5,91.4V87l-3.5,4.4H987.5z"/>
</g>
<path class="st8" d="M57.8,20.4c-1,0.4-2-0.1-2.4-1c-0.4-0.9,0.1-2,1-2.4c0.9-0.4,2,0.1,2.4,1C59.2,18.9,58.7,20,57.8,20.4
	 M51.9,27.1c-0.9,0.4-2-0.1-2.4-1c-0.4-0.9,0.1-2,1-2.4c0.9-0.4,2,0.1,2.4,1C53.3,25.6,52.8,26.7,51.9,27.1 M62.7,23.4
	c-1,0.4-2-0.1-2.4-1c-0.4-0.9,0.1-2,1-2.4c0.9-0.4,2,0.1,2.4,1C64.1,21.9,63.7,23,62.7,23.4 M66,28.2c-1,0.4-2-0.1-2.4-1
	c-0.4-0.9,0.1-2,1-2.4s2,0.1,2.4,1C67.4,26.7,66.9,27.8,66,28.2 M52.2,14.7l2.3,1.2v-3.4l-2.3,0.7L52,13l0.9-3h-3.4l0.9,3l-0.2,0.2
	c-0.1,0.1-2.3-0.7-2.3-0.7v3.4l2.3-1.2c0.1,0.1,0.1,0.2,0.2,0.2l-1.3,4C49,19.1,49,19.3,49,19.5c0,1.1,0.8,2,1.9,2.2h0.7
	c1-0.2,1.9-1.1,1.9-2.1c0-0.2,0-0.4-0.1-0.6l-1.3-4C52,14.8,52.1,14.8,52.2,14.7 M44.6,20.4c0.9,0.4,2-0.1,2.4-1
	c0.4-0.9-0.1-2-1-2.4c-0.9-0.4-2,0.1-2.4,1C43.2,18.9,43.6,20,44.6,20.4 M39.6,23.4c0.9,0.4,2-0.1,2.4-1c0.4-0.9-0.1-2-1-2.4
	c-0.9-0.4-2,0.1-2.4,1C38.2,21.9,38.7,23,39.6,23.4 M36.4,28.2c0.9,0.4,2-0.1,2.4-1c0.4-0.9-0.1-2-1-2.4c-0.9-0.4-2,0.1-2.4,1
	C35,26.7,35.4,27.8,36.4,28.2 M51.2,39.2c4.4,0,8.6,0.3,12.3,0.8c1.1-4.5,2.4-7,3.7-8.8l-2.5-0.9c0.2,1.3,0.3,1.9,0,2.7
	c-0.4-0.4-0.8-1.1-1.1-2.3l-1.2,4c0.7-0.5,1.3-0.8,2-0.9c-1.1,2.5-2.6,3.1-3.5,3c-1.1-0.2-1.7-1.2-1.5-2.1c0.3-1.2,1.5-1.5,2.1-0.1
	c1.1-2.3-0.8-3-2-2.3c1.9-1.9,2.1-3.5,0.6-5.6c-2.1,1.6-2.1,3.2-1.2,5.5c-1.2-1.4-3.2-0.6-2.5,1.6c0.9-1.4,2.1-0.5,1.9,0.8
	c-0.2,1.1-1.7,2.1-3.5,1.9c-2.7-0.2-2.9-2.1-2.9-3.6c0.7-0.1,1.9,0.5,2.9,1.9l0.4-4.3c-1.1,1.1-2.1,1.4-3.2,1.4c0.4-1.2,2.1-3,2.1-3
	h-5.4c0,0,1.7,1.9,2.1,3c-1.1,0-2.1-0.2-3.2-1.4l0.4,4.3c1-1.4,2.2-2,2.9-1.9c-0.1,1.5-0.2,3.4-2.9,3.6c-1.9,0.2-3.4-0.8-3.5-1.9
	c-0.2-1.3,1-2.2,1.9-0.8c0.7-2.3-1.2-3-2.5-1.6c0.9-2.2,0.9-3.9-1.2-5.5c-1.5,2-1.3,3.7,0.6,5.6c-1.2-0.7-3.1,0-2,2.3
	c0.6-1.4,1.8-1.1,2.1,0.1c0.2,0.9-0.3,1.9-1.5,2.1c-0.9,0.2-2.4-0.5-3.5-3c0.6,0,1.2,0.3,2,0.9l-1.2-4c-0.3,1.1-0.7,1.9-1.1,2.3
	c-0.3-0.8-0.2-1.4,0-2.7l-2.9,0.9c1.3,1.8,2.6,4.3,3.7,8.8C42.6,39.5,46.8,39.2,51.2,39.2"/>
</svg>
