<svg width="1024" height="117" viewBox="0 0 1024 117" fill="none" xmlns="http://www.w3.org/2000/svg">
<rect width="1024" height="117" fill="white"/>
<rect width="1024" height="50" fill="#0B0C0C"/>
<g clip-path="url(#clip0_14602_116960)" filter="url(#filter0_d_14602_116960)">
<rect width="960" height="50" transform="translate(32)" fill="#0B0C0C"/>
<rect width="154" height="50" transform="translate(32)" fill="#0B0C0C"/>
<rect width="154" height="36" transform="translate(32 7)" fill="#0B0C0C"/>
<path fill-rule="evenodd" clip-rule="evenodd" d="M38.7922 19.1893C39.7788 19.5913 40.8995 19.1318 41.3008 18.1664C41.7051 17.2041 41.2425 16.0855 40.256 15.6855C39.2881 15.2918 38.1633 15.7606 37.761 16.727C37.3587 17.6883 37.8244 18.7966 38.7922 19.1893Z" fill="white"/>
<path fill-rule="evenodd" clip-rule="evenodd" d="M34.448 21.7072C35.4356 22.1102 36.5542 21.6496 36.9565 20.6842C37.3609 19.7219 36.8983 18.6033 35.9107 18.2023C34.9439 17.8096 33.8191 18.2795 33.4167 19.2459C33.0144 20.2061 33.4802 21.3144 34.448 21.7072Z" fill="white"/>
<path fill-rule="evenodd" clip-rule="evenodd" d="M35.6856 25.4617C36.09 24.4994 35.6274 23.3808 34.6408 22.9799C33.673 22.5871 32.5481 23.0559 32.1448 24.0224C31.7425 24.9836 32.2082 26.0919 33.176 26.4837C34.1636 26.8867 35.2833 26.4261 35.6856 25.4617Z" fill="white"/>
<path fill-rule="evenodd" clip-rule="evenodd" d="M43.6404 20.7031C44.627 21.1051 45.7476 20.6455 46.1489 19.6801C46.5533 18.7178 46.0907 17.5992 45.1041 17.1983C44.1363 16.8055 43.0114 17.2744 42.6091 18.2418C42.2068 19.2021 42.6725 20.3104 43.6404 20.7031Z" fill="white"/>
<path fill-rule="evenodd" clip-rule="evenodd" d="M61.208 19.1893C62.1758 18.7966 62.6416 17.6883 62.2382 16.727C61.8359 15.7606 60.7121 15.2918 59.7432 15.6855C58.7567 16.0855 58.2951 17.2041 58.6984 18.1664C59.1008 19.1318 60.2204 19.5913 61.208 19.1893Z" fill="white"/>
<path fill-rule="evenodd" clip-rule="evenodd" d="M65.5521 21.7072C66.52 21.3144 66.9857 20.2061 66.5834 19.2459C66.1811 18.2795 65.0562 17.8096 64.0884 18.2023C63.1018 18.6033 62.6392 19.7219 63.0436 20.6842C63.4449 21.6496 64.5656 22.1102 65.5521 21.7072Z" fill="white"/>
<path fill-rule="evenodd" clip-rule="evenodd" d="M67.8544 24.0224C67.4521 23.0559 66.3272 22.5871 65.3594 22.9799C64.3728 23.3808 63.9102 24.4994 64.3146 25.4617C64.7159 26.4261 65.8366 26.8867 66.8231 26.4837C67.792 26.093 68.2577 24.9836 67.8544 24.0224Z" fill="white"/>
<path fill-rule="evenodd" clip-rule="evenodd" d="M56.3592 20.7031C57.3271 20.3104 57.7928 19.2021 57.3894 18.2418C56.9882 17.2744 55.8633 16.8055 54.8955 17.1983C53.9089 17.5992 53.4463 18.7178 53.8497 19.6801C54.252 20.6455 55.3716 21.1051 56.3592 20.7031Z" fill="white"/>
<path fill-rule="evenodd" clip-rule="evenodd" d="M48.9801 15.8054C49.0518 15.8989 49.136 15.9812 49.2306 16.0511L47.8376 20.2067C47.8366 20.2119 47.8345 20.217 47.8335 20.2222L47.8314 20.2263L47.8324 20.2273C47.7669 20.4339 47.7316 20.655 47.7316 20.8832C47.7316 22.007 48.5716 22.9353 49.6631 23.0947C49.6787 23.0968 49.6953 23.0998 49.712 23.1019C49.8055 23.1142 49.8991 23.1214 49.9958 23.1214C50.0925 23.1214 50.1871 23.1142 50.2796 23.1019C50.2962 23.0998 50.3129 23.0968 50.3284 23.0947C51.42 22.9353 52.26 22.007 52.26 20.8832C52.26 20.655 52.2246 20.4339 52.1602 20.2273V20.2263L52.1591 20.2222C52.1581 20.217 52.156 20.2119 52.1539 20.2067L50.7609 16.0511C50.8555 15.9812 50.9397 15.8989 51.0125 15.8054L51.0177 15.8002L53.443 17.0597V13.524L51.0208 14.2828L51.0135 14.2756C50.946 14.1882 50.8669 14.109 50.7786 14.0412L50.7713 14.034L51.7464 11L49.9958 11.001L48.2451 11L49.2203 14.034L49.213 14.0412C49.1246 14.109 49.0456 14.1882 48.978 14.2756L48.9708 14.2828L46.5485 13.524V17.0597L48.9749 15.8002L48.9801 15.8054Z" fill="white"/>
<path fill-rule="evenodd" clip-rule="evenodd" d="M64.0744 29.7631C63.644 29.3478 63.2365 28.5818 62.9184 27.4129L61.6542 31.5757C62.4235 31.0524 63.0161 30.7141 63.6949 30.6987C62.4921 33.2608 60.9889 33.9208 60.0148 33.7429C58.8255 33.527 58.2787 32.4784 58.4638 31.589C58.7372 30.3286 60.045 30.0006 60.6552 31.4667C61.8247 29.1103 59.8422 28.3752 58.5667 29.0733C60.5253 27.1404 60.7498 25.4224 59.1686 23.3436C56.9647 25.0091 56.9397 26.6593 57.9305 28.9797C56.6435 27.5229 54.6423 28.3053 55.3658 30.6586C56.2931 29.2378 57.5219 30.1312 57.3285 31.4811C57.1653 32.6562 55.5966 33.6062 53.6412 33.4376C50.8405 33.1867 50.6742 31.2744 50.6035 29.6922C51.2917 29.5657 52.5319 30.198 53.5892 31.6662L53.979 27.2504C52.8292 28.4358 51.7834 28.661 50.6222 28.698C51.0089 27.5054 52.7856 25.5509 52.7856 25.5509H47.2124C47.2124 25.5509 48.989 27.5054 49.3758 28.698C48.2145 28.661 47.1687 28.4358 46.019 27.2504L46.4078 31.6662C47.466 30.198 48.7052 29.5667 49.3945 29.6922C49.3248 31.2744 49.1585 33.1867 46.3568 33.4376C44.4014 33.6062 42.8316 32.6562 42.6694 31.4811C42.4761 30.1312 43.7048 29.2378 44.6332 30.6586C45.3557 28.3053 43.3535 27.5229 42.0675 28.9797C43.0582 26.6593 43.0322 25.0091 40.8294 23.3436C39.2482 25.4224 39.4727 27.1404 41.4313 29.0733C40.1557 28.3752 38.1743 29.1103 39.3417 31.4667C39.953 30.0006 41.2618 30.3286 41.5342 31.589C41.7182 32.4784 41.1714 33.5281 39.9832 33.7429C39.0091 33.9208 37.5069 33.2608 36.303 30.6987C36.9819 30.7141 37.5744 31.0524 38.3437 31.5757L37.0796 27.4129C36.7615 28.5818 36.354 29.3478 35.9236 29.7631C35.6325 28.9211 35.6741 28.3114 35.9329 27.0006L33.3257 27.9197C34.7104 29.7898 36.0525 32.4156 37.1545 36.999C41.0362 36.45 45.3921 36.1415 49.9964 36.1415C54.6007 36.1415 58.9596 36.45 62.8435 37C63.9455 32.4156 65.2865 29.7898 66.6723 27.9197L64.064 27.0006C64.3239 28.3114 64.3644 28.9211 64.0744 29.7631Z" fill="white"/>
<path d="M80.5222 25.5557C80.5222 26.4541 80.6345 27.3184 80.8591 28.1484C81.0837 28.9785 81.4255 29.7109 81.8845 30.3457C82.3435 30.9805 82.9294 31.4932 83.6423 31.8838C84.3552 32.2646 85.2048 32.4551 86.1912 32.4551C87.1384 32.4551 87.9246 32.3037 88.5496 32.001C89.1843 31.6982 89.6873 31.3223 90.0583 30.873C90.4392 30.4141 90.7029 29.9209 90.8494 29.3936C91.0056 28.8662 91.0837 28.3779 91.0837 27.9287V27.7236H85.7078V24.4863H95.2146V36H91.4939V33.5391C91.2302 33.9492 90.9031 34.3252 90.5125 34.667C90.1218 34.999 89.6824 35.2871 89.1941 35.5312C88.7058 35.7656 88.1687 35.9512 87.5828 36.0879C87.0066 36.2246 86.3914 36.293 85.7371 36.293C84.2039 36.293 82.8416 36.0146 81.6501 35.458C80.4587 34.9014 79.4529 34.1348 78.6326 33.1582C77.822 32.1816 77.2019 31.0391 76.7722 29.7305C76.3523 28.4219 76.1423 27.0107 76.1423 25.4971C76.1423 23.9932 76.3767 22.5869 76.8455 21.2783C77.324 19.96 77.9978 18.8174 78.8669 17.8506C79.7458 16.874 80.8005 16.1074 82.031 15.5508C83.2712 14.9844 84.658 14.7012 86.1912 14.7012C87.1873 14.7012 88.1296 14.8184 89.0183 15.0527C89.9167 15.2773 90.7322 15.6045 91.4646 16.0342C92.2068 16.4541 92.8611 16.9668 93.4275 17.5723C93.9939 18.168 94.4529 18.832 94.8044 19.5645L91.0837 21.6592C90.8591 21.21 90.5955 20.7949 90.2927 20.4141C89.99 20.0234 89.6384 19.6914 89.238 19.418C88.8474 19.1348 88.3982 18.915 87.8904 18.7588C87.3826 18.5928 86.8162 18.5098 86.1912 18.5098C85.2048 18.5098 84.3552 18.7051 83.6423 19.0957C82.9294 19.4766 82.3435 19.9844 81.8845 20.6191C81.4255 21.2539 81.0837 21.9912 80.8591 22.8311C80.6345 23.6611 80.5222 24.5205 80.5222 25.4092V25.5557ZM107.929 14.7012C109.492 14.7012 110.893 14.9844 112.134 15.5508C113.374 16.1074 114.424 16.874 115.283 17.8506C116.152 18.8174 116.811 19.96 117.26 21.2783C117.719 22.5869 117.949 23.9932 117.949 25.4971C117.949 27.0107 117.719 28.4219 117.26 29.7305C116.811 31.0391 116.152 32.1816 115.283 33.1582C114.424 34.1348 113.374 34.9014 112.134 35.458C110.893 36.0146 109.492 36.293 107.929 36.293C106.357 36.293 104.951 36.0146 103.711 35.458C102.48 34.9014 101.43 34.1348 100.561 33.1582C99.7019 32.1816 99.0427 31.0391 98.5837 29.7305C98.1345 28.4219 97.9099 27.0107 97.9099 25.4971C97.9099 23.9932 98.1345 22.5869 98.5837 21.2783C99.0427 19.96 99.7019 18.8174 100.561 17.8506C101.43 16.874 102.48 16.1074 103.711 15.5508C104.951 14.9844 106.357 14.7012 107.929 14.7012ZM107.929 32.4551C108.847 32.4551 109.653 32.2842 110.346 31.9424C111.05 31.5908 111.64 31.1074 112.119 30.4922C112.597 29.877 112.959 29.1494 113.203 28.3096C113.447 27.4697 113.569 26.5518 113.569 25.5557V25.4385C113.569 24.4521 113.447 23.5391 113.203 22.6992C112.959 21.8496 112.597 21.1172 112.119 20.502C111.64 19.8867 111.05 19.4082 110.346 19.0664C109.653 18.7148 108.847 18.5391 107.929 18.5391C107.011 18.5391 106.201 18.7148 105.498 19.0664C104.795 19.4082 104.204 19.8867 103.725 20.502C103.257 21.1172 102.9 21.8496 102.656 22.6992C102.412 23.5391 102.29 24.4521 102.29 25.4385V25.5557C102.29 26.5518 102.412 27.4697 102.656 28.3096C102.9 29.1494 103.257 29.877 103.725 30.4922C104.204 31.1074 104.795 31.5908 105.498 31.9424C106.201 32.2842 107.011 32.4551 107.929 32.4551ZM125.508 36L119.575 14.9941H124.336L128.393 30.7852H128.54L132.51 14.9941H137.212L131.279 36H125.508ZM137.812 33.627C137.812 33.2656 137.881 32.9287 138.017 32.6162C138.164 32.2939 138.359 32.0156 138.603 31.7812C138.847 31.5371 139.131 31.3467 139.453 31.21C139.785 31.0635 140.132 30.9902 140.493 30.9902C140.854 30.9902 141.196 31.0635 141.518 31.21C141.841 31.3467 142.124 31.5371 142.368 31.7812C142.612 32.0156 142.802 32.2939 142.939 32.6162C143.086 32.9287 143.159 33.2656 143.159 33.627C143.159 33.998 143.086 34.3447 142.939 34.667C142.802 34.9893 142.612 35.2725 142.368 35.5166C142.124 35.7607 141.841 35.9512 141.518 36.0879C141.196 36.2246 140.854 36.293 140.493 36.293C140.132 36.293 139.785 36.2246 139.453 36.0879C139.131 35.9512 138.847 35.7607 138.603 35.5166C138.359 35.2725 138.164 34.9893 138.017 34.667C137.881 34.3447 137.812 33.998 137.812 33.627ZM155.112 32.4551C155.727 32.4551 156.299 32.3672 156.826 32.1914C157.363 32.0059 157.822 31.7324 158.203 31.3711C158.594 31 158.901 30.5361 159.126 29.9795C159.35 29.4131 159.463 28.749 159.463 27.9873V14.9648H163.652V28.6172C163.652 29.7891 163.437 30.8486 163.008 31.7959C162.588 32.7432 161.997 33.5488 161.235 34.2129C160.483 34.877 159.585 35.3896 158.54 35.751C157.495 36.1123 156.352 36.293 155.112 36.293C153.872 36.293 152.729 36.1123 151.684 35.751C150.639 35.3896 149.736 34.877 148.974 34.2129C148.213 33.5488 147.617 32.7432 147.187 31.7959C146.767 30.8486 146.557 29.7891 146.557 28.6172V14.9648H150.761V27.9873C150.761 28.749 150.874 29.4131 151.098 29.9795C151.323 30.5361 151.626 31 152.007 31.3711C152.397 31.7324 152.856 32.0059 153.384 32.1914C153.921 32.3672 154.497 32.4551 155.112 32.4551ZM167.812 14.9941H172.06V24.0908L179.56 14.9941H184.79L177.495 23.3438L185.259 36H180.322L174.77 26.5811L172.06 29.6133V36H167.812V14.9941Z" fill="white"/>
<rect width="301" height="60" transform="translate(691 -5)" fill="#0B0C0C"/>
<line x1="691.5" y1="10" x2="691.5" y2="40" stroke="#B1B4B6"/>
<path d="M724.258 24.4297C724.258 24.9089 724.318 25.3698 724.438 25.8125C724.557 26.2552 724.74 26.6458 724.984 26.9844C725.229 27.3229 725.542 27.5964 725.922 27.8047C726.302 28.0078 726.755 28.1094 727.281 28.1094C727.786 28.1094 728.206 28.0286 728.539 27.8672C728.878 27.7057 729.146 27.5052 729.344 27.2656C729.547 27.0208 729.688 26.7578 729.766 26.4766C729.849 26.1953 729.891 25.9349 729.891 25.6953V25.5859H727.023V23.8594H732.094V30H730.109V28.6875C729.969 28.9062 729.794 29.1068 729.586 29.2891C729.378 29.4661 729.143 29.6198 728.883 29.75C728.622 29.875 728.336 29.974 728.023 30.0469C727.716 30.1198 727.388 30.1562 727.039 30.1562C726.221 30.1562 725.495 30.0078 724.859 29.7109C724.224 29.4141 723.688 29.0052 723.25 28.4844C722.818 27.9635 722.487 27.3542 722.258 26.6562C722.034 25.9583 721.922 25.2057 721.922 24.3984C721.922 23.5964 722.047 22.8464 722.297 22.1484C722.552 21.4453 722.911 20.8359 723.375 20.3203C723.844 19.7995 724.406 19.3906 725.062 19.0938C725.724 18.7917 726.464 18.6406 727.281 18.6406C727.812 18.6406 728.315 18.7031 728.789 18.8281C729.268 18.9479 729.703 19.1224 730.094 19.3516C730.49 19.5755 730.839 19.849 731.141 20.1719C731.443 20.4896 731.688 20.8438 731.875 21.2344L729.891 22.3516C729.771 22.112 729.63 21.8906 729.469 21.6875C729.307 21.4792 729.12 21.3021 728.906 21.1562C728.698 21.0052 728.458 20.888 728.188 20.8047C727.917 20.7161 727.615 20.6719 727.281 20.6719C726.755 20.6719 726.302 20.776 725.922 20.9844C725.542 21.1875 725.229 21.4583 724.984 21.7969C724.74 22.1354 724.557 22.5286 724.438 22.9766C724.318 23.4193 724.258 23.8776 724.258 24.3516V24.4297ZM738.875 18.6406C739.708 18.6406 740.456 18.7917 741.117 19.0938C741.779 19.3906 742.339 19.7995 742.797 20.3203C743.26 20.8359 743.612 21.4453 743.852 22.1484C744.096 22.8464 744.219 23.5964 744.219 24.3984C744.219 25.2057 744.096 25.9583 743.852 26.6562C743.612 27.3542 743.26 27.9635 742.797 28.4844C742.339 29.0052 741.779 29.4141 741.117 29.7109C740.456 30.0078 739.708 30.1562 738.875 30.1562C738.036 30.1562 737.286 30.0078 736.625 29.7109C735.969 29.4141 735.409 29.0052 734.945 28.4844C734.487 27.9635 734.135 27.3542 733.891 26.6562C733.651 25.9583 733.531 25.2057 733.531 24.3984C733.531 23.5964 733.651 22.8464 733.891 22.1484C734.135 21.4453 734.487 20.8359 734.945 20.3203C735.409 19.7995 735.969 19.3906 736.625 19.0938C737.286 18.7917 738.036 18.6406 738.875 18.6406ZM738.875 28.1094C739.365 28.1094 739.794 28.0182 740.164 27.8359C740.539 27.6484 740.854 27.3906 741.109 27.0625C741.365 26.7344 741.557 26.3464 741.688 25.8984C741.818 25.4505 741.883 24.9609 741.883 24.4297V24.3672C741.883 23.8411 741.818 23.3542 741.688 22.9062C741.557 22.4531 741.365 22.0625 741.109 21.7344C740.854 21.4062 740.539 21.151 740.164 20.9688C739.794 20.7812 739.365 20.6875 738.875 20.6875C738.385 20.6875 737.953 20.7812 737.578 20.9688C737.203 21.151 736.888 21.4062 736.633 21.7344C736.383 22.0625 736.193 22.4531 736.062 22.9062C735.932 23.3542 735.867 23.8411 735.867 24.3672V24.4297C735.867 24.9609 735.932 25.4505 736.062 25.8984C736.193 26.3464 736.383 26.7344 736.633 27.0625C736.888 27.3906 737.203 27.6484 737.578 27.8359C737.953 28.0182 738.385 28.1094 738.875 28.1094ZM748.25 30L745.086 18.7969H747.625L749.789 27.2188H749.867L751.984 18.7969H754.492L751.328 30H748.25ZM754.812 28.7344C754.812 28.5417 754.849 28.362 754.922 28.1953C755 28.0234 755.104 27.875 755.234 27.75C755.365 27.6198 755.516 27.5182 755.688 27.4453C755.865 27.3672 756.049 27.3281 756.242 27.3281C756.435 27.3281 756.617 27.3672 756.789 27.4453C756.961 27.5182 757.112 27.6198 757.242 27.75C757.372 27.875 757.474 28.0234 757.547 28.1953C757.625 28.362 757.664 28.5417 757.664 28.7344C757.664 28.9323 757.625 29.1172 757.547 29.2891C757.474 29.4609 757.372 29.612 757.242 29.7422C757.112 29.8724 756.961 29.974 756.789 30.0469C756.617 30.1198 756.435 30.1562 756.242 30.1562C756.049 30.1562 755.865 30.1198 755.688 30.0469C755.516 29.974 755.365 29.8724 755.234 29.7422C755.104 29.612 755 29.4609 754.922 29.2891C754.849 29.1172 754.812 28.9323 754.812 28.7344ZM764.039 28.1094C764.367 28.1094 764.672 28.0625 764.953 27.9688C765.24 27.8698 765.484 27.724 765.688 27.5312C765.896 27.3333 766.06 27.0859 766.18 26.7891C766.299 26.487 766.359 26.1328 766.359 25.7266V18.7812H768.594V26.0625C768.594 26.6875 768.479 27.2526 768.25 27.7578C768.026 28.263 767.711 28.6927 767.305 29.0469C766.904 29.401 766.424 29.6745 765.867 29.8672C765.31 30.0599 764.701 30.1562 764.039 30.1562C763.378 30.1562 762.768 30.0599 762.211 29.8672C761.654 29.6745 761.172 29.401 760.766 29.0469C760.359 28.6927 760.042 28.263 759.812 27.7578C759.589 27.2526 759.477 26.6875 759.477 26.0625V18.7812H761.719V25.7266C761.719 26.1328 761.779 26.487 761.898 26.7891C762.018 27.0859 762.18 27.3333 762.383 27.5312C762.591 27.724 762.836 27.8698 763.117 27.9688C763.404 28.0625 763.711 28.1094 764.039 28.1094ZM770.812 18.7969H773.078V23.6484L777.078 18.7969H779.867L775.977 23.25L780.117 30H777.484L774.523 24.9766L773.078 26.5938V30H770.812V18.7969ZM788.922 18.6406C789.755 18.6406 790.503 18.7917 791.164 19.0938C791.826 19.3906 792.385 19.7995 792.844 20.3203C793.307 20.8359 793.659 21.4453 793.898 22.1484C794.143 22.8464 794.266 23.5964 794.266 24.3984C794.266 25.2057 794.143 25.9583 793.898 26.6562C793.659 27.3542 793.307 27.9635 792.844 28.4844C792.385 29.0052 791.826 29.4141 791.164 29.7109C790.503 30.0078 789.755 30.1562 788.922 30.1562C788.083 30.1562 787.333 30.0078 786.672 29.7109C786.016 29.4141 785.456 29.0052 784.992 28.4844C784.534 27.9635 784.182 27.3542 783.938 26.6562C783.698 25.9583 783.578 25.2057 783.578 24.3984C783.578 23.5964 783.698 22.8464 783.938 22.1484C784.182 21.4453 784.534 20.8359 784.992 20.3203C785.456 19.7995 786.016 19.3906 786.672 19.0938C787.333 18.7917 788.083 18.6406 788.922 18.6406ZM788.922 28.1094C789.411 28.1094 789.841 28.0182 790.211 27.8359C790.586 27.6484 790.901 27.3906 791.156 27.0625C791.411 26.7344 791.604 26.3464 791.734 25.8984C791.865 25.4505 791.93 24.9609 791.93 24.4297V24.3672C791.93 23.8411 791.865 23.3542 791.734 22.9062C791.604 22.4531 791.411 22.0625 791.156 21.7344C790.901 21.4062 790.586 21.151 790.211 20.9688C789.841 20.7812 789.411 20.6875 788.922 20.6875C788.432 20.6875 788 20.7812 787.625 20.9688C787.25 21.151 786.935 21.4062 786.68 21.7344C786.43 22.0625 786.24 22.4531 786.109 22.9062C785.979 23.3542 785.914 23.8411 785.914 24.3672V24.4297C785.914 24.9609 785.979 25.4505 786.109 25.8984C786.24 26.3464 786.43 26.7344 786.68 27.0625C786.935 27.3906 787.25 27.6484 787.625 27.8359C788 28.0182 788.432 28.1094 788.922 28.1094ZM795.789 21.6328H797.945V22.3516C798.06 22.237 798.188 22.1276 798.328 22.0234C798.474 21.9141 798.633 21.8203 798.805 21.7422C798.977 21.6589 799.167 21.5938 799.375 21.5469C799.589 21.4948 799.823 21.4688 800.078 21.4688C800.531 21.4688 800.938 21.5443 801.297 21.6953C801.656 21.8411 801.958 22.0443 802.203 22.3047C802.453 22.5651 802.643 22.8698 802.773 23.2188C802.904 23.5677 802.969 23.9453 802.969 24.3516V30H800.812V25.1328C800.812 24.8359 800.779 24.5859 800.711 24.3828C800.643 24.1745 800.549 24.0078 800.43 23.8828C800.315 23.7526 800.177 23.6589 800.016 23.6016C799.859 23.5391 799.688 23.5078 799.5 23.5078C799.281 23.5078 799.076 23.5469 798.883 23.625C798.695 23.7031 798.531 23.8229 798.391 23.9844C798.25 24.1406 798.141 24.3385 798.062 24.5781C797.984 24.8177 797.945 25.099 797.945 25.4219V30H795.789V21.6328ZM806.578 26.5625C806.615 26.8125 806.693 27.0417 806.812 27.25C806.938 27.4583 807.094 27.638 807.281 27.7891C807.469 27.9349 807.685 28.0495 807.93 28.1328C808.174 28.2161 808.435 28.2578 808.711 28.2578C809.029 28.2578 809.372 28.1979 809.742 28.0781C810.112 27.9531 810.451 27.7734 810.758 27.5391L811.797 29.0547C811.406 29.3828 810.927 29.6484 810.359 29.8516C809.792 30.0547 809.188 30.1562 808.547 30.1562C807.969 30.1562 807.424 30.0573 806.914 29.8594C806.404 29.6615 805.956 29.375 805.57 29C805.19 28.625 804.888 28.1693 804.664 27.6328C804.445 27.0964 804.336 26.4922 804.336 25.8203C804.336 25.2057 804.432 24.6328 804.625 24.1016C804.823 23.5703 805.096 23.1094 805.445 22.7188C805.799 22.3281 806.221 22.0234 806.711 21.8047C807.201 21.5807 807.742 21.4688 808.336 21.4688C808.888 21.4688 809.401 21.5703 809.875 21.7734C810.349 21.9714 810.76 22.2526 811.109 22.6172C811.458 22.9766 811.732 23.4089 811.93 23.9141C812.128 24.4193 812.227 24.9766 812.227 25.5859V26.5625H806.578ZM808.328 23.3438C807.865 23.3438 807.471 23.5 807.148 23.8125C806.831 24.1198 806.646 24.4922 806.594 24.9297H809.969C809.958 24.487 809.797 24.112 809.484 23.8047C809.172 23.4974 808.786 23.3438 808.328 23.3438ZM816.734 18.7969H819V27.9062H823.438V30H816.734V18.7969ZM828.281 21.4688C828.901 21.4688 829.464 21.5807 829.969 21.8047C830.474 22.0234 830.906 22.3281 831.266 22.7188C831.625 23.1094 831.901 23.5703 832.094 24.1016C832.292 24.6328 832.391 25.2057 832.391 25.8203C832.391 26.4401 832.292 27.0156 832.094 27.5469C831.896 28.0729 831.617 28.5286 831.258 28.9141C830.898 29.2995 830.466 29.6042 829.961 29.8281C829.456 30.0469 828.896 30.1562 828.281 30.1562C827.661 30.1562 827.099 30.0469 826.594 29.8281C826.089 29.6042 825.656 29.2995 825.297 28.9141C824.938 28.5286 824.659 28.0729 824.461 27.5469C824.263 27.0156 824.164 26.4401 824.164 25.8203C824.164 25.2057 824.26 24.6328 824.453 24.1016C824.651 23.5703 824.93 23.1094 825.289 22.7188C825.648 22.3281 826.081 22.0234 826.586 21.8047C827.096 21.5807 827.661 21.4688 828.281 21.4688ZM828.281 28.1562C828.589 28.1562 828.859 28.099 829.094 27.9844C829.333 27.8698 829.534 27.7109 829.695 27.5078C829.857 27.3047 829.979 27.0625 830.062 26.7812C830.146 26.4948 830.188 26.1823 830.188 25.8438V25.7891C830.188 25.4505 830.146 25.1406 830.062 24.8594C829.979 24.5729 829.857 24.3281 829.695 24.125C829.534 23.9167 829.333 23.7552 829.094 23.6406C828.859 23.526 828.589 23.4688 828.281 23.4688C827.974 23.4688 827.701 23.526 827.461 23.6406C827.227 23.7552 827.029 23.9167 826.867 24.125C826.706 24.3281 826.583 24.5729 826.5 24.8594C826.417 25.1406 826.375 25.4505 826.375 25.7891V25.8438C826.375 26.1823 826.417 26.4948 826.5 26.7812C826.583 27.0625 826.706 27.3047 826.867 27.5078C827.029 27.7109 827.227 27.8698 827.461 27.9844C827.701 28.099 827.974 28.1562 828.281 28.1562ZM838.906 28.5156C838.714 28.75 838.443 28.9375 838.094 29.0781C837.75 29.2135 837.375 29.2812 836.969 29.2812C836.406 29.2812 835.906 29.1823 835.469 28.9844C835.031 28.7865 834.661 28.5156 834.359 28.1719C834.062 27.8229 833.833 27.4115 833.672 26.9375C833.516 26.4635 833.438 25.9427 833.438 25.375C833.438 24.8229 833.516 24.3073 833.672 23.8281C833.833 23.3438 834.062 22.9297 834.359 22.5859C834.661 22.237 835.031 21.9635 835.469 21.7656C835.906 21.5677 836.406 21.4688 836.969 21.4688C837.375 21.4688 837.75 21.5391 838.094 21.6797C838.443 21.8203 838.714 22.0078 838.906 22.2422V21.6328H841.07V29.9219C841.07 30.4323 840.974 30.8698 840.781 31.2344C840.589 31.6042 840.323 31.9062 839.984 32.1406C839.651 32.375 839.263 32.5443 838.82 32.6484C838.378 32.7578 837.906 32.8125 837.406 32.8125C836.797 32.8125 836.161 32.7396 835.5 32.5938C834.839 32.4531 834.268 32.276 833.789 32.0625L834.398 30.3203C834.544 30.3828 834.724 30.4505 834.938 30.5234C835.151 30.6016 835.38 30.6693 835.625 30.7266C835.87 30.7839 836.125 30.8307 836.391 30.8672C836.661 30.9089 836.924 30.9297 837.18 30.9297C837.404 30.9297 837.62 30.9062 837.828 30.8594C838.036 30.8177 838.219 30.7448 838.375 30.6406C838.536 30.5417 838.664 30.4089 838.758 30.2422C838.857 30.0807 838.906 29.8724 838.906 29.6172V28.5156ZM835.656 25.4062C835.656 25.6823 835.685 25.9427 835.742 26.1875C835.805 26.4271 835.901 26.6328 836.031 26.8047C836.167 26.9714 836.339 27.1042 836.547 27.2031C836.755 27.2969 837.008 27.3438 837.305 27.3438C837.893 27.3438 838.312 27.1589 838.562 26.7891C838.812 26.4141 838.938 25.9531 838.938 25.4062V25.3438C838.938 25.0677 838.909 24.8099 838.852 24.5703C838.794 24.3307 838.701 24.125 838.57 23.9531C838.44 23.7812 838.271 23.6484 838.062 23.5547C837.859 23.4557 837.607 23.4062 837.305 23.4062C836.721 23.4062 836.299 23.5911 836.039 23.9609C835.784 24.3307 835.656 24.7917 835.656 25.3438V25.4062ZM845.086 30H842.93V21.6328H845.086V30ZM842.703 19.4375C842.703 19.2604 842.737 19.0938 842.805 18.9375C842.872 18.776 842.964 18.638 843.078 18.5234C843.198 18.4036 843.336 18.3099 843.492 18.2422C843.648 18.1745 843.818 18.1406 844 18.1406C844.177 18.1406 844.344 18.1745 844.5 18.2422C844.661 18.3099 844.799 18.4036 844.914 18.5234C845.034 18.638 845.128 18.776 845.195 18.9375C845.263 19.0938 845.297 19.2604 845.297 19.4375C845.297 19.6198 845.263 19.7891 845.195 19.9453C845.128 20.1016 845.034 20.2396 844.914 20.3594C844.799 20.474 844.661 20.5651 844.5 20.6328C844.344 20.7005 844.177 20.7344 844 20.7344C843.818 20.7344 843.648 20.7005 843.492 20.6328C843.336 20.5651 843.198 20.474 843.078 20.3594C842.964 20.2396 842.872 20.1016 842.805 19.9453C842.737 19.7891 842.703 19.6198 842.703 19.4375ZM846.945 21.6328H849.102V22.3516C849.216 22.237 849.344 22.1276 849.484 22.0234C849.63 21.9141 849.789 21.8203 849.961 21.7422C850.133 21.6589 850.323 21.5938 850.531 21.5469C850.745 21.4948 850.979 21.4688 851.234 21.4688C851.688 21.4688 852.094 21.5443 852.453 21.6953C852.812 21.8411 853.115 22.0443 853.359 22.3047C853.609 22.5651 853.799 22.8698 853.93 23.2188C854.06 23.5677 854.125 23.9453 854.125 24.3516V30H851.969V25.1328C851.969 24.8359 851.935 24.5859 851.867 24.3828C851.799 24.1745 851.706 24.0078 851.586 23.8828C851.471 23.7526 851.333 23.6589 851.172 23.6016C851.016 23.5391 850.844 23.5078 850.656 23.5078C850.438 23.5078 850.232 23.5469 850.039 23.625C849.852 23.7031 849.688 23.8229 849.547 23.9844C849.406 24.1406 849.297 24.3385 849.219 24.5781C849.141 24.8177 849.102 25.099 849.102 25.4219V30H846.945V21.6328Z" fill="white"/>
<circle cx="871" cy="25" r="11" fill="white"/>
<path fill-rule="evenodd" clip-rule="evenodd" d="M863.293 32.8487C864.233 29.4753 867.327 27 871 27C874.673 27 877.768 29.4749 878.708 32.848C877.806 33.7338 876.752 34.4654 875.589 35H871H866.411C865.248 34.4655 864.195 33.7342 863.293 32.8487Z" fill="#1D70B8"/>
<circle cx="871" cy="21.75" r="3.75" fill="#1D70B8"/>
<circle cx="871" cy="25" r="10" stroke="white" stroke-width="2"/>
<line x1="907.5" y1="10" x2="907.5" y2="40" stroke="#B1B4B6"/>
<path d="M936.062 26.8516C936.208 27.0182 936.385 27.1823 936.594 27.3438C936.802 27.5052 937.031 27.651 937.281 27.7812C937.536 27.9062 937.812 28.0078 938.109 28.0859C938.406 28.1589 938.727 28.1953 939.07 28.1953C939.711 28.1953 940.201 28.0625 940.539 27.7969C940.883 27.526 941.055 27.1979 941.055 26.8125C941.055 26.4115 940.904 26.1068 940.602 25.8984C940.305 25.6901 939.831 25.526 939.18 25.4062L938.828 25.3438C938.359 25.2604 937.893 25.151 937.43 25.0156C936.966 24.8802 936.547 24.6849 936.172 24.4297C935.797 24.1745 935.492 23.849 935.258 23.4531C935.023 23.0521 934.906 22.5469 934.906 21.9375C934.906 21.5833 934.984 21.2135 935.141 20.8281C935.297 20.4375 935.544 20.0807 935.883 19.7578C936.227 19.4297 936.667 19.1615 937.203 18.9531C937.745 18.7448 938.398 18.6406 939.164 18.6406C940.07 18.6406 940.878 18.7917 941.586 19.0938C942.299 19.3906 942.875 19.7839 943.312 20.2734L941.805 21.6797C941.497 21.3411 941.102 21.0755 940.617 20.8828C940.138 20.6901 939.643 20.5938 939.133 20.5938C938.544 20.5938 938.083 20.7057 937.75 20.9297C937.422 21.1536 937.258 21.4453 937.258 21.8047C937.258 22.0391 937.31 22.2344 937.414 22.3906C937.523 22.5469 937.674 22.6771 937.867 22.7812C938.06 22.8802 938.292 22.9635 938.562 23.0312C938.833 23.099 939.135 23.1667 939.469 23.2344L939.648 23.2656C940.096 23.349 940.542 23.4557 940.984 23.5859C941.427 23.7109 941.828 23.8984 942.188 24.1484C942.552 24.3932 942.846 24.7161 943.07 25.1172C943.294 25.513 943.406 26.0208 943.406 26.6406C943.406 27.2031 943.289 27.7005 943.055 28.1328C942.82 28.5651 942.51 28.9349 942.125 29.2422C941.74 29.5443 941.294 29.7734 940.789 29.9297C940.284 30.0807 939.758 30.1562 939.211 30.1562C938.659 30.1562 938.146 30.1094 937.672 30.0156C937.203 29.9219 936.776 29.7891 936.391 29.6172C936.01 29.4453 935.669 29.2526 935.367 29.0391C935.07 28.8255 934.81 28.5964 934.586 28.3516L936.062 26.8516ZM947.242 30H945.086V21.6328H947.242V30ZM944.859 19.4375C944.859 19.2604 944.893 19.0938 944.961 18.9375C945.029 18.776 945.12 18.638 945.234 18.5234C945.354 18.4036 945.492 18.3099 945.648 18.2422C945.805 18.1745 945.974 18.1406 946.156 18.1406C946.333 18.1406 946.5 18.1745 946.656 18.2422C946.818 18.3099 946.956 18.4036 947.07 18.5234C947.19 18.638 947.284 18.776 947.352 18.9375C947.419 19.0938 947.453 19.2604 947.453 19.4375C947.453 19.6198 947.419 19.7891 947.352 19.9453C947.284 20.1016 947.19 20.2396 947.07 20.3594C946.956 20.474 946.818 20.5651 946.656 20.6328C946.5 20.7005 946.333 20.7344 946.156 20.7344C945.974 20.7344 945.805 20.7005 945.648 20.6328C945.492 20.5651 945.354 20.474 945.234 20.3594C945.12 20.2396 945.029 20.1016 944.961 19.9453C944.893 19.7891 944.859 19.6198 944.859 19.4375ZM954.188 28.5156C953.995 28.75 953.724 28.9375 953.375 29.0781C953.031 29.2135 952.656 29.2812 952.25 29.2812C951.688 29.2812 951.188 29.1823 950.75 28.9844C950.312 28.7865 949.943 28.5156 949.641 28.1719C949.344 27.8229 949.115 27.4115 948.953 26.9375C948.797 26.4635 948.719 25.9427 948.719 25.375C948.719 24.8229 948.797 24.3073 948.953 23.8281C949.115 23.3438 949.344 22.9297 949.641 22.5859C949.943 22.237 950.312 21.9635 950.75 21.7656C951.188 21.5677 951.688 21.4688 952.25 21.4688C952.656 21.4688 953.031 21.5391 953.375 21.6797C953.724 21.8203 953.995 22.0078 954.188 22.2422V21.6328H956.352V29.9219C956.352 30.4323 956.255 30.8698 956.062 31.2344C955.87 31.6042 955.604 31.9062 955.266 32.1406C954.932 32.375 954.544 32.5443 954.102 32.6484C953.659 32.7578 953.188 32.8125 952.688 32.8125C952.078 32.8125 951.443 32.7396 950.781 32.5938C950.12 32.4531 949.549 32.276 949.07 32.0625L949.68 30.3203C949.826 30.3828 950.005 30.4505 950.219 30.5234C950.432 30.6016 950.661 30.6693 950.906 30.7266C951.151 30.7839 951.406 30.8307 951.672 30.8672C951.943 30.9089 952.206 30.9297 952.461 30.9297C952.685 30.9297 952.901 30.9062 953.109 30.8594C953.318 30.8177 953.5 30.7448 953.656 30.6406C953.818 30.5417 953.945 30.4089 954.039 30.2422C954.138 30.0807 954.188 29.8724 954.188 29.6172V28.5156ZM950.938 25.4062C950.938 25.6823 950.966 25.9427 951.023 26.1875C951.086 26.4271 951.182 26.6328 951.312 26.8047C951.448 26.9714 951.62 27.1042 951.828 27.2031C952.036 27.2969 952.289 27.3438 952.586 27.3438C953.174 27.3438 953.594 27.1589 953.844 26.7891C954.094 26.4141 954.219 25.9531 954.219 25.4062V25.3438C954.219 25.0677 954.19 24.8099 954.133 24.5703C954.076 24.3307 953.982 24.125 953.852 23.9531C953.721 23.7812 953.552 23.6484 953.344 23.5547C953.141 23.4557 952.888 23.4062 952.586 23.4062C952.003 23.4062 951.581 23.5911 951.32 23.9609C951.065 24.3307 950.938 24.7917 950.938 25.3438V25.4062ZM958.211 21.6328H960.367V22.3516C960.482 22.237 960.609 22.1276 960.75 22.0234C960.896 21.9141 961.055 21.8203 961.227 21.7422C961.398 21.6589 961.589 21.5938 961.797 21.5469C962.01 21.4948 962.245 21.4688 962.5 21.4688C962.953 21.4688 963.359 21.5443 963.719 21.6953C964.078 21.8411 964.38 22.0443 964.625 22.3047C964.875 22.5651 965.065 22.8698 965.195 23.2188C965.326 23.5677 965.391 23.9453 965.391 24.3516V30H963.234V25.1328C963.234 24.8359 963.201 24.5859 963.133 24.3828C963.065 24.1745 962.971 24.0078 962.852 23.8828C962.737 23.7526 962.599 23.6589 962.438 23.6016C962.281 23.5391 962.109 23.5078 961.922 23.5078C961.703 23.5078 961.497 23.5469 961.305 23.625C961.117 23.7031 960.953 23.8229 960.812 23.9844C960.672 24.1406 960.562 24.3385 960.484 24.5781C960.406 24.8177 960.367 25.099 960.367 25.4219V30H958.211V21.6328ZM973.766 21.4688C974.385 21.4688 974.948 21.5807 975.453 21.8047C975.958 22.0234 976.391 22.3281 976.75 22.7188C977.109 23.1094 977.385 23.5703 977.578 24.1016C977.776 24.6328 977.875 25.2057 977.875 25.8203C977.875 26.4401 977.776 27.0156 977.578 27.5469C977.38 28.0729 977.102 28.5286 976.742 28.9141C976.383 29.2995 975.951 29.6042 975.445 29.8281C974.94 30.0469 974.38 30.1562 973.766 30.1562C973.146 30.1562 972.583 30.0469 972.078 29.8281C971.573 29.6042 971.141 29.2995 970.781 28.9141C970.422 28.5286 970.143 28.0729 969.945 27.5469C969.747 27.0156 969.648 26.4401 969.648 25.8203C969.648 25.2057 969.745 24.6328 969.938 24.1016C970.135 23.5703 970.414 23.1094 970.773 22.7188C971.133 22.3281 971.565 22.0234 972.07 21.8047C972.581 21.5807 973.146 21.4688 973.766 21.4688ZM973.766 28.1562C974.073 28.1562 974.344 28.099 974.578 27.9844C974.818 27.8698 975.018 27.7109 975.18 27.5078C975.341 27.3047 975.464 27.0625 975.547 26.7812C975.63 26.4948 975.672 26.1823 975.672 25.8438V25.7891C975.672 25.4505 975.63 25.1406 975.547 24.8594C975.464 24.5729 975.341 24.3281 975.18 24.125C975.018 23.9167 974.818 23.7552 974.578 23.6406C974.344 23.526 974.073 23.4688 973.766 23.4688C973.458 23.4688 973.185 23.526 972.945 23.6406C972.711 23.7552 972.513 23.9167 972.352 24.125C972.19 24.3281 972.068 24.5729 971.984 24.8594C971.901 25.1406 971.859 25.4505 971.859 25.7891V25.8438C971.859 26.1823 971.901 26.4948 971.984 26.7812C972.068 27.0625 972.19 27.3047 972.352 27.5078C972.513 27.7109 972.711 27.8698 972.945 27.9844C973.185 28.099 973.458 28.1562 973.766 28.1562ZM986.422 30H984.266V29.2812C984.146 29.3958 984.016 29.5078 983.875 29.6172C983.734 29.7214 983.578 29.8151 983.406 29.8984C983.234 29.9766 983.042 30.0391 982.828 30.0859C982.62 30.1328 982.388 30.1562 982.133 30.1562C981.68 30.1562 981.273 30.0833 980.914 29.9375C980.555 29.7865 980.25 29.5833 980 29.3281C979.755 29.0677 979.568 28.763 979.438 28.4141C979.307 28.0651 979.242 27.6875 979.242 27.2812V21.6328H981.398V26.4922C981.398 26.7891 981.43 27.0417 981.492 27.25C981.56 27.4583 981.651 27.6276 981.766 27.7578C981.885 27.8828 982.026 27.9766 982.188 28.0391C982.349 28.0964 982.523 28.125 982.711 28.125C982.93 28.125 983.133 28.0859 983.32 28.0078C983.513 27.9297 983.68 27.8125 983.82 27.6562C983.961 27.4948 984.07 27.2943 984.148 27.0547C984.227 26.8151 984.266 26.5339 984.266 26.2109V21.6328H986.422V30ZM991.375 27.5078C991.375 27.6068 991.388 27.7005 991.414 27.7891C991.44 27.8776 991.484 27.9557 991.547 28.0234C991.615 28.0859 991.708 28.1354 991.828 28.1719C991.948 28.2083 992.102 28.2266 992.289 28.2266C992.367 28.2266 992.456 28.224 992.555 28.2188C992.654 28.2083 992.753 28.1979 992.852 28.1875C992.951 28.1771 993.042 28.1641 993.125 28.1484C993.214 28.1328 993.286 28.1198 993.344 28.1094L993.539 30.0156C993.336 30.0417 993.125 30.0651 992.906 30.0859C992.719 30.1068 992.51 30.1224 992.281 30.1328C992.052 30.1484 991.82 30.1562 991.586 30.1562C990.841 30.1562 990.26 29.987 989.844 29.6484C989.427 29.3099 989.219 28.7708 989.219 28.0312V23.5078H987.711V21.6328H989.219V19.2656L991.375 18.6875V21.6328H993.57V23.5078H991.375V27.5078Z" fill="white"/>
</g>
<rect y="50" width="1024" height="10" fill="#1D70B8"/>
<g filter="url(#filter1_i_14602_116960)">
<rect width="1024" height="57" transform="translate(0 60)" fill="#F3F2F1"/>
<path d="M34.2822 93.2612C34.4554 93.4591 34.6657 93.654 34.9131 93.8457C35.1605 94.0374 35.4326 94.2106 35.7295 94.3652C36.0326 94.5137 36.3604 94.6343 36.7129 94.7271C37.0654 94.8136 37.4458 94.8569 37.854 94.8569C38.6147 94.8569 39.1961 94.6992 39.5981 94.3838C40.0063 94.0622 40.2104 93.6725 40.2104 93.2148C40.2104 92.7386 40.0311 92.3768 39.6724 92.1294C39.3198 91.882 38.757 91.6872 37.9839 91.5449L37.5664 91.4707C37.0098 91.3717 36.4562 91.2419 35.9058 91.0811C35.3553 90.9202 34.8574 90.6883 34.4121 90.3853C33.9668 90.0822 33.605 89.6956 33.3267 89.2256C33.0483 88.7493 32.9092 88.1494 32.9092 87.4258C32.9092 87.0052 33.002 86.5661 33.1875 86.1084C33.373 85.6445 33.6668 85.2209 34.0688 84.8374C34.4771 84.4478 34.9997 84.1292 35.6367 83.8818C36.2799 83.6344 37.0562 83.5107 37.9653 83.5107C39.0415 83.5107 40.0002 83.6901 40.8413 84.0488C41.6886 84.4014 42.3721 84.8683 42.8916 85.4497L41.1011 87.1196C40.7362 86.7176 40.2661 86.4022 39.6909 86.1733C39.1219 85.9445 38.5343 85.8301 37.9282 85.8301C37.2293 85.8301 36.682 85.9631 36.2861 86.229C35.8965 86.495 35.7017 86.8413 35.7017 87.2681C35.7017 87.5464 35.7635 87.7783 35.8872 87.9639C36.0171 88.1494 36.1965 88.304 36.4253 88.4277C36.6541 88.5452 36.9294 88.6442 37.251 88.7246C37.5726 88.805 37.9313 88.8854 38.3271 88.9658L38.5405 89.0029C39.0724 89.1019 39.6012 89.2287 40.127 89.3833C40.6527 89.5317 41.1289 89.7544 41.5557 90.0513C41.9886 90.342 42.3381 90.7254 42.604 91.2017C42.87 91.6717 43.0029 92.2747 43.0029 93.0107C43.0029 93.6787 42.8638 94.2694 42.5854 94.7827C42.3071 95.2961 41.9391 95.7352 41.4814 96.1001C41.0238 96.4588 40.495 96.731 39.895 96.9165C39.2951 97.0959 38.6704 97.1855 38.021 97.1855C37.3654 97.1855 36.7562 97.1299 36.1934 97.0186C35.6367 96.9072 35.1296 96.7495 34.6719 96.5454C34.2204 96.3413 33.8153 96.1125 33.4565 95.8589C33.104 95.6053 32.7948 95.3332 32.5288 95.0425L34.2822 93.2612ZM47.1406 92.918C47.1839 93.2148 47.2767 93.487 47.4189 93.7344C47.5674 93.9818 47.7529 94.1951 47.9756 94.3745C48.1982 94.5477 48.4549 94.6838 48.7456 94.7827C49.0363 94.8817 49.3455 94.9312 49.6733 94.9312C50.0506 94.9312 50.4588 94.86 50.8979 94.7178C51.3371 94.5693 51.7391 94.356 52.104 94.0776L53.3379 95.8774C52.874 96.2671 52.305 96.5825 51.6309 96.8237C50.9567 97.0649 50.2393 97.1855 49.4785 97.1855C48.792 97.1855 48.1457 97.068 47.5396 96.833C46.9334 96.598 46.4015 96.2578 45.9438 95.8125C45.4924 95.3672 45.1336 94.826 44.8677 94.189C44.6079 93.5519 44.478 92.8345 44.478 92.0366C44.478 91.3068 44.5924 90.6265 44.8213 89.9956C45.0563 89.3647 45.381 88.8174 45.7954 88.3535C46.216 87.8896 46.717 87.5278 47.2983 87.2681C47.8797 87.0021 48.5229 86.8691 49.228 86.8691C49.8836 86.8691 50.4928 86.9897 51.0557 87.231C51.6185 87.466 52.1071 87.8 52.5215 88.2329C52.9359 88.6597 53.2606 89.173 53.4956 89.7729C53.7306 90.3729 53.8481 91.0347 53.8481 91.7583V92.918H47.1406ZM49.2188 89.0957C48.6683 89.0957 48.2013 89.2812 47.8179 89.6523C47.4406 90.0173 47.221 90.4595 47.1592 90.979H51.167C51.1546 90.4533 50.9629 90.008 50.5918 89.6431C50.2207 89.2782 49.763 89.0957 49.2188 89.0957ZM61.0659 89.5503H60.7969C60.432 89.5503 60.0825 89.5874 59.7485 89.6616C59.4207 89.7358 59.13 89.8719 58.8765 90.0698C58.6229 90.2616 58.4188 90.5275 58.2642 90.8677C58.1157 91.2078 58.0415 91.6439 58.0415 92.1758V97H55.481V87.064H58.0415V88.1865C58.1466 88.0195 58.2827 87.8587 58.4497 87.7041C58.6167 87.5495 58.8115 87.4134 59.0342 87.2959C59.2568 87.1722 59.5073 87.0732 59.7856 86.999C60.064 86.9248 60.3639 86.8877 60.6855 86.8877H61.0659V89.5503ZM64.7676 97L61.7246 87.064H64.582L66.3633 93.9014L68.1909 87.064H71.002L67.9775 97H64.7676ZM74.8335 97H72.2729V87.064H74.8335V97ZM72.0039 84.457C72.0039 84.2467 72.0441 84.0488 72.1245 83.8633C72.2049 83.6715 72.3132 83.5076 72.4492 83.3716C72.5915 83.2293 72.7554 83.118 72.9409 83.0376C73.1265 82.9572 73.3275 82.917 73.5439 82.917C73.7542 82.917 73.9521 82.9572 74.1377 83.0376C74.3294 83.118 74.4933 83.2293 74.6294 83.3716C74.7716 83.5076 74.883 83.6715 74.9634 83.8633C75.0438 84.0488 75.084 84.2467 75.084 84.457C75.084 84.6735 75.0438 84.8745 74.9634 85.0601C74.883 85.2456 74.7716 85.4095 74.6294 85.5518C74.4933 85.6878 74.3294 85.7961 74.1377 85.8765C73.9521 85.9569 73.7542 85.9971 73.5439 85.9971C73.3275 85.9971 73.1265 85.9569 72.9409 85.8765C72.7554 85.7961 72.5915 85.6878 72.4492 85.5518C72.3132 85.4095 72.2049 85.2456 72.1245 85.0601C72.0441 84.8745 72.0039 84.6735 72.0039 84.457ZM79.166 92.083C79.166 92.4046 79.2093 92.7293 79.2959 93.0571C79.3825 93.3787 79.5155 93.6694 79.6948 93.9292C79.8742 94.189 80.103 94.4023 80.3813 94.5693C80.6659 94.7301 81.0029 94.8105 81.3926 94.8105C81.6462 94.8105 81.875 94.7765 82.0791 94.7085C82.2894 94.6405 82.4749 94.5477 82.6357 94.4302C82.8027 94.3065 82.9481 94.1642 83.0718 94.0034C83.2017 93.8364 83.313 93.6571 83.4058 93.4653L85.6509 94.625C85.4901 95.0146 85.2674 95.3672 84.9829 95.6826C84.7046 95.998 84.3799 96.2671 84.0088 96.4897C83.6377 96.7124 83.2264 96.8825 82.7749 97C82.3234 97.1237 81.8441 97.1855 81.3369 97.1855C80.638 97.1855 79.9948 97.0557 79.4072 96.7959C78.8197 96.5299 78.3125 96.1681 77.8857 95.7104C77.459 95.2528 77.125 94.7116 76.8838 94.0869C76.6426 93.4561 76.522 92.7726 76.522 92.0366C76.522 91.3068 76.6426 90.6265 76.8838 89.9956C77.125 89.3647 77.459 88.8174 77.8857 88.3535C78.3125 87.8896 78.8197 87.5278 79.4072 87.2681C79.9948 87.0021 80.638 86.8691 81.3369 86.8691C81.8441 86.8691 82.3234 86.931 82.7749 87.0547C83.2264 87.1722 83.6377 87.3454 84.0088 87.5742C84.3799 87.7969 84.7046 88.0659 84.9829 88.3813C85.2674 88.6968 85.4901 89.0493 85.6509 89.439L83.4058 90.5986C83.313 90.4069 83.2017 90.2306 83.0718 90.0698C82.9481 89.9028 82.8027 89.7606 82.6357 89.6431C82.4749 89.5194 82.2894 89.4235 82.0791 89.3555C81.875 89.2812 81.6462 89.2441 81.3926 89.2441C81.0029 89.2441 80.6659 89.3276 80.3813 89.4946C80.103 89.6554 79.8742 89.8688 79.6948 90.1348C79.5155 90.3945 79.3825 90.6883 79.2959 91.0161C79.2093 91.3439 79.166 91.6717 79.166 91.9995V92.083ZM89.3711 92.918C89.4144 93.2148 89.5072 93.487 89.6494 93.7344C89.7979 93.9818 89.9834 94.1951 90.2061 94.3745C90.4287 94.5477 90.6854 94.6838 90.9761 94.7827C91.2668 94.8817 91.576 94.9312 91.9038 94.9312C92.2811 94.9312 92.6893 94.86 93.1284 94.7178C93.5675 94.5693 93.9696 94.356 94.3345 94.0776L95.5684 95.8774C95.1045 96.2671 94.5355 96.5825 93.8613 96.8237C93.1872 97.0649 92.4697 97.1855 91.709 97.1855C91.0225 97.1855 90.3761 97.068 89.77 96.833C89.1639 96.598 88.632 96.2578 88.1743 95.8125C87.7228 95.3672 87.3641 94.826 87.0981 94.189C86.8384 93.5519 86.7085 92.8345 86.7085 92.0366C86.7085 91.3068 86.8229 90.6265 87.0518 89.9956C87.2868 89.3647 87.6115 88.8174 88.0259 88.3535C88.4465 87.8896 88.9474 87.5278 89.5288 87.2681C90.1102 87.0021 90.7534 86.8691 91.4585 86.8691C92.1141 86.8691 92.7233 86.9897 93.2861 87.231C93.849 87.466 94.3376 87.8 94.752 88.2329C95.1663 88.6597 95.491 89.173 95.7261 89.7729C95.9611 90.3729 96.0786 91.0347 96.0786 91.7583V92.918H89.3711ZM91.4492 89.0957C90.8988 89.0957 90.4318 89.2812 90.0483 89.6523C89.6711 90.0173 89.4515 90.4595 89.3896 90.979H93.3975C93.3851 90.4533 93.1934 90.008 92.8223 89.6431C92.4512 89.2782 91.9935 89.0957 91.4492 89.0957ZM101.144 87.064H103.705V87.9175C103.841 87.7814 103.992 87.6515 104.159 87.5278C104.332 87.3979 104.521 87.2866 104.725 87.1938C104.929 87.0949 105.155 87.0176 105.402 86.9619C105.656 86.9001 105.934 86.8691 106.237 86.8691C106.775 86.8691 107.258 86.9588 107.685 87.1382C108.111 87.3114 108.47 87.5526 108.761 87.8618C109.058 88.1711 109.283 88.5329 109.438 88.9473C109.593 89.3617 109.67 89.8101 109.67 90.2925V97H107.109V91.2202C107.109 90.8677 107.069 90.5708 106.989 90.3296C106.908 90.0822 106.797 89.8843 106.655 89.7358C106.519 89.5812 106.355 89.4699 106.163 89.4019C105.978 89.3276 105.773 89.2905 105.551 89.2905C105.291 89.2905 105.047 89.3369 104.818 89.4297C104.595 89.5225 104.4 89.6647 104.233 89.8564C104.066 90.042 103.937 90.277 103.844 90.5615C103.751 90.846 103.705 91.18 103.705 91.5635V97H101.144V87.064ZM115.023 92.9644C114.708 93.0138 114.454 93.1252 114.262 93.2983C114.07 93.4653 113.975 93.6942 113.975 93.9849C113.975 94.3065 114.092 94.5848 114.327 94.8198C114.562 95.0487 114.909 95.1631 115.366 95.1631C115.849 95.1631 116.229 95.0239 116.507 94.7456C116.786 94.4673 116.925 94.0993 116.925 93.6416V92.6396L115.023 92.9644ZM117.342 96.063C117.237 96.1805 117.107 96.3073 116.953 96.4434C116.804 96.5732 116.625 96.6938 116.415 96.8052C116.21 96.9103 115.969 97 115.691 97.0742C115.413 97.1484 115.1 97.1855 114.754 97.1855C114.259 97.1855 113.801 97.1082 113.381 96.9536C112.966 96.7928 112.602 96.5701 112.286 96.2856C111.971 96.0011 111.723 95.6733 111.544 95.3022C111.365 94.925 111.275 94.5168 111.275 94.0776C111.275 93.2798 111.522 92.6273 112.017 92.1201C112.512 91.613 113.195 91.2944 114.067 91.1646L116.925 90.7471V90.5615C116.925 90.1162 116.789 89.7637 116.517 89.5039C116.244 89.2441 115.802 89.1143 115.19 89.1143C114.936 89.1143 114.68 89.1452 114.42 89.207C114.16 89.2627 113.91 89.3276 113.668 89.4019C113.433 89.4761 113.214 89.5627 113.01 89.6616C112.806 89.7544 112.626 89.8379 112.472 89.9121L111.47 87.9546C112.039 87.6392 112.67 87.3794 113.362 87.1753C114.061 86.9712 114.785 86.8691 115.533 86.8691C115.991 86.8691 116.452 86.9186 116.916 87.0176C117.386 87.1104 117.809 87.2835 118.187 87.5371C118.57 87.7907 118.882 88.137 119.124 88.5762C119.365 89.0091 119.485 89.5627 119.485 90.2368V94.3188C119.485 94.6095 119.56 94.826 119.708 94.9683C119.863 95.1043 120.073 95.2311 120.339 95.3486L119.179 97.1855C118.709 97.1361 118.332 97.0155 118.047 96.8237C117.763 96.6258 117.528 96.3722 117.342 96.063ZM130.006 97H127.436V91.2202C127.436 90.8677 127.396 90.5708 127.315 90.3296C127.241 90.0822 127.136 89.8843 127 89.7358C126.864 89.5812 126.706 89.473 126.527 89.4111C126.347 89.3431 126.153 89.3091 125.942 89.3091C125.695 89.3091 125.463 89.3524 125.247 89.439C125.036 89.5256 124.851 89.6616 124.69 89.8472C124.535 90.0327 124.412 90.2708 124.319 90.5615C124.232 90.846 124.189 91.1862 124.189 91.582V97H121.628V87.064H124.189V87.936C124.517 87.5711 124.897 87.3021 125.33 87.1289C125.769 86.9557 126.239 86.8691 126.74 86.8691C127.254 86.8691 127.733 86.9743 128.178 87.1846C128.63 87.3949 129.004 87.7412 129.301 88.2236C129.474 87.9762 129.672 87.766 129.895 87.5928C130.123 87.4196 130.368 87.2804 130.627 87.1753C130.887 87.0701 131.156 86.9928 131.435 86.9434C131.719 86.8939 132.01 86.8691 132.307 86.8691C132.863 86.8691 133.358 86.9619 133.791 87.1475C134.23 87.3268 134.601 87.5711 134.904 87.8804C135.207 88.1896 135.439 88.5452 135.6 88.9473C135.761 89.3493 135.841 89.7729 135.841 90.2183V97H133.253V91.2202C133.253 90.8677 133.213 90.5708 133.132 90.3296C133.058 90.0822 132.953 89.8843 132.817 89.7358C132.681 89.5812 132.52 89.473 132.334 89.4111C132.155 89.3431 131.96 89.3091 131.75 89.3091C131.503 89.3091 131.274 89.3524 131.063 89.439C130.853 89.5256 130.668 89.6616 130.507 89.8472C130.352 90.0327 130.229 90.2708 130.136 90.5615C130.049 90.846 130.006 91.1862 130.006 91.582V97ZM140.118 92.918C140.161 93.2148 140.254 93.487 140.396 93.7344C140.545 93.9818 140.73 94.1951 140.953 94.3745C141.176 94.5477 141.432 94.6838 141.723 94.7827C142.014 94.8817 142.323 94.9312 142.651 94.9312C143.028 94.9312 143.436 94.86 143.875 94.7178C144.315 94.5693 144.717 94.356 145.082 94.0776L146.315 95.8774C145.852 96.2671 145.283 96.5825 144.608 96.8237C143.934 97.0649 143.217 97.1855 142.456 97.1855C141.77 97.1855 141.123 97.068 140.517 96.833C139.911 96.598 139.379 96.2578 138.921 95.8125C138.47 95.3672 138.111 94.826 137.845 94.189C137.585 93.5519 137.456 92.8345 137.456 92.0366C137.456 91.3068 137.57 90.6265 137.799 89.9956C138.034 89.3647 138.359 88.8174 138.773 88.3535C139.194 87.8896 139.694 87.5278 140.276 87.2681C140.857 87.0021 141.5 86.8691 142.206 86.8691C142.861 86.8691 143.47 86.9897 144.033 87.231C144.596 87.466 145.085 87.8 145.499 88.2329C145.913 88.6597 146.238 89.173 146.473 89.7729C146.708 90.3729 146.826 91.0347 146.826 91.7583V92.918H140.118ZM142.196 89.0957C141.646 89.0957 141.179 89.2812 140.795 89.6523C140.418 90.0173 140.199 90.4595 140.137 90.979H144.145C144.132 90.4533 143.94 90.008 143.569 89.6431C143.198 89.2782 142.741 89.0957 142.196 89.0957Z" fill="#0B0C0C"/>
<g filter="url(#filter2_i_14602_116960)">
<rect width="93" height="37" transform="translate(518 80)" fill="#F3F2F1"/>
<path d="M519.922 92.8516C520.068 93.0182 520.245 93.1823 520.453 93.3438C520.661 93.5052 520.891 93.651 521.141 93.7812C521.396 93.9062 521.672 94.0078 521.969 94.0859C522.266 94.1589 522.586 94.1953 522.93 94.1953C523.57 94.1953 524.06 94.0625 524.398 93.7969C524.742 93.526 524.914 93.1979 524.914 92.8125C524.914 92.4115 524.763 92.1068 524.461 91.8984C524.164 91.6901 523.69 91.526 523.039 91.4062L522.688 91.3438C522.219 91.2604 521.753 91.151 521.289 91.0156C520.826 90.8802 520.406 90.6849 520.031 90.4297C519.656 90.1745 519.352 89.849 519.117 89.4531C518.883 89.0521 518.766 88.5469 518.766 87.9375C518.766 87.5833 518.844 87.2135 519 86.8281C519.156 86.4375 519.404 86.0807 519.742 85.7578C520.086 85.4297 520.526 85.1615 521.062 84.9531C521.604 84.7448 522.258 84.6406 523.023 84.6406C523.93 84.6406 524.737 84.7917 525.445 85.0938C526.159 85.3906 526.734 85.7839 527.172 86.2734L525.664 87.6797C525.357 87.3411 524.961 87.0755 524.477 86.8828C523.997 86.6901 523.503 86.5938 522.992 86.5938C522.404 86.5938 521.943 86.7057 521.609 86.9297C521.281 87.1536 521.117 87.4453 521.117 87.8047C521.117 88.0391 521.169 88.2344 521.273 88.3906C521.383 88.5469 521.534 88.6771 521.727 88.7812C521.919 88.8802 522.151 88.9635 522.422 89.0312C522.693 89.099 522.995 89.1667 523.328 89.2344L523.508 89.2656C523.956 89.349 524.401 89.4557 524.844 89.5859C525.286 89.7109 525.688 89.8984 526.047 90.1484C526.411 90.3932 526.706 90.7161 526.93 91.1172C527.154 91.513 527.266 92.0208 527.266 92.6406C527.266 93.2031 527.148 93.7005 526.914 94.1328C526.68 94.5651 526.37 94.9349 525.984 95.2422C525.599 95.5443 525.154 95.7734 524.648 95.9297C524.143 96.0807 523.617 96.1562 523.07 96.1562C522.518 96.1562 522.005 96.1094 521.531 96.0156C521.062 95.9219 520.635 95.7891 520.25 95.6172C519.87 95.4453 519.529 95.2526 519.227 95.0391C518.93 94.8255 518.669 94.5964 518.445 94.3516L519.922 92.8516ZM530.75 92.5625C530.786 92.8125 530.865 93.0417 530.984 93.25C531.109 93.4583 531.266 93.638 531.453 93.7891C531.641 93.9349 531.857 94.0495 532.102 94.1328C532.346 94.2161 532.607 94.2578 532.883 94.2578C533.201 94.2578 533.544 94.1979 533.914 94.0781C534.284 93.9531 534.622 93.7734 534.93 93.5391L535.969 95.0547C535.578 95.3828 535.099 95.6484 534.531 95.8516C533.964 96.0547 533.359 96.1562 532.719 96.1562C532.141 96.1562 531.596 96.0573 531.086 95.8594C530.576 95.6615 530.128 95.375 529.742 95C529.362 94.625 529.06 94.1693 528.836 93.6328C528.617 93.0964 528.508 92.4922 528.508 91.8203C528.508 91.2057 528.604 90.6328 528.797 90.1016C528.995 89.5703 529.268 89.1094 529.617 88.7188C529.971 88.3281 530.393 88.0234 530.883 87.8047C531.372 87.5807 531.914 87.4688 532.508 87.4688C533.06 87.4688 533.573 87.5703 534.047 87.7734C534.521 87.9714 534.932 88.2526 535.281 88.6172C535.63 88.9766 535.904 89.4089 536.102 89.9141C536.299 90.4193 536.398 90.9766 536.398 91.5859V92.5625H530.75ZM532.5 89.3438C532.036 89.3438 531.643 89.5 531.32 89.8125C531.003 90.1198 530.818 90.4922 530.766 90.9297H534.141C534.13 90.487 533.969 90.112 533.656 89.8047C533.344 89.4974 532.958 89.3438 532.5 89.3438ZM542.477 89.7266H542.25C541.943 89.7266 541.648 89.7578 541.367 89.8203C541.091 89.8828 540.846 89.9974 540.633 90.1641C540.419 90.3255 540.247 90.5495 540.117 90.8359C539.992 91.1224 539.93 91.4896 539.93 91.9375V96H537.773V87.6328H539.93V88.5781C540.018 88.4375 540.133 88.3021 540.273 88.1719C540.414 88.0417 540.578 87.9271 540.766 87.8281C540.953 87.724 541.164 87.6406 541.398 87.5781C541.633 87.5156 541.885 87.4844 542.156 87.4844H542.477V89.7266ZM545.594 96L543.031 87.6328H545.438L546.938 93.3906L548.477 87.6328H550.844L548.297 96H545.594ZM554.07 96H551.914V87.6328H554.07V96ZM551.688 85.4375C551.688 85.2604 551.721 85.0938 551.789 84.9375C551.857 84.776 551.948 84.638 552.062 84.5234C552.182 84.4036 552.32 84.3099 552.477 84.2422C552.633 84.1745 552.802 84.1406 552.984 84.1406C553.161 84.1406 553.328 84.1745 553.484 84.2422C553.646 84.3099 553.784 84.4036 553.898 84.5234C554.018 84.638 554.112 84.776 554.18 84.9375C554.247 85.0938 554.281 85.2604 554.281 85.4375C554.281 85.6198 554.247 85.7891 554.18 85.9453C554.112 86.1016 554.018 86.2396 553.898 86.3594C553.784 86.474 553.646 86.5651 553.484 86.6328C553.328 86.7005 553.161 86.7344 552.984 86.7344C552.802 86.7344 552.633 86.7005 552.477 86.6328C552.32 86.5651 552.182 86.474 552.062 86.3594C551.948 86.2396 551.857 86.1016 551.789 85.9453C551.721 85.7891 551.688 85.6198 551.688 85.4375ZM557.719 91.8594C557.719 92.1302 557.755 92.4036 557.828 92.6797C557.901 92.9505 558.013 93.1953 558.164 93.4141C558.315 93.6328 558.508 93.8125 558.742 93.9531C558.982 94.0885 559.266 94.1562 559.594 94.1562C559.807 94.1562 560 94.1276 560.172 94.0703C560.349 94.013 560.505 93.9349 560.641 93.8359C560.781 93.7318 560.904 93.612 561.008 93.4766C561.117 93.3359 561.211 93.1849 561.289 93.0234L563.18 94C563.044 94.3281 562.857 94.625 562.617 94.8906C562.383 95.1562 562.109 95.3828 561.797 95.5703C561.484 95.7578 561.138 95.901 560.758 96C560.378 96.1042 559.974 96.1562 559.547 96.1562C558.958 96.1562 558.417 96.0469 557.922 95.8281C557.427 95.6042 557 95.2995 556.641 94.9141C556.281 94.5286 556 94.0729 555.797 93.5469C555.594 93.0156 555.492 92.4401 555.492 91.8203C555.492 91.2057 555.594 90.6328 555.797 90.1016C556 89.5703 556.281 89.1094 556.641 88.7188C557 88.3281 557.427 88.0234 557.922 87.8047C558.417 87.5807 558.958 87.4688 559.547 87.4688C559.974 87.4688 560.378 87.5208 560.758 87.625C561.138 87.724 561.484 87.8698 561.797 88.0625C562.109 88.25 562.383 88.4766 562.617 88.7422C562.857 89.0078 563.044 89.3047 563.18 89.6328L561.289 90.6094C561.211 90.4479 561.117 90.2995 561.008 90.1641C560.904 90.0234 560.781 89.9036 560.641 89.8047C560.505 89.7005 560.349 89.6198 560.172 89.5625C560 89.5 559.807 89.4688 559.594 89.4688C559.266 89.4688 558.982 89.5391 558.742 89.6797C558.508 89.8151 558.315 89.9948 558.164 90.2188C558.013 90.4375 557.901 90.6849 557.828 90.9609C557.755 91.237 557.719 91.513 557.719 91.7891V91.8594ZM566.312 92.5625C566.349 92.8125 566.427 93.0417 566.547 93.25C566.672 93.4583 566.828 93.638 567.016 93.7891C567.203 93.9349 567.419 94.0495 567.664 94.1328C567.909 94.2161 568.169 94.2578 568.445 94.2578C568.763 94.2578 569.107 94.1979 569.477 94.0781C569.846 93.9531 570.185 93.7734 570.492 93.5391L571.531 95.0547C571.141 95.3828 570.661 95.6484 570.094 95.8516C569.526 96.0547 568.922 96.1562 568.281 96.1562C567.703 96.1562 567.159 96.0573 566.648 95.8594C566.138 95.6615 565.69 95.375 565.305 95C564.924 94.625 564.622 94.1693 564.398 93.6328C564.18 93.0964 564.07 92.4922 564.07 91.8203C564.07 91.2057 564.167 90.6328 564.359 90.1016C564.557 89.5703 564.831 89.1094 565.18 88.7188C565.534 88.3281 565.956 88.0234 566.445 87.8047C566.935 87.5807 567.477 87.4688 568.07 87.4688C568.622 87.4688 569.135 87.5703 569.609 87.7734C570.083 87.9714 570.495 88.2526 570.844 88.6172C571.193 88.9766 571.466 89.4089 571.664 89.9141C571.862 90.4193 571.961 90.9766 571.961 91.5859V92.5625H566.312ZM568.062 89.3438C567.599 89.3438 567.206 89.5 566.883 89.8125C566.565 90.1198 566.38 90.4922 566.328 90.9297H569.703C569.693 90.487 569.531 90.112 569.219 89.8047C568.906 89.4974 568.521 89.3438 568.062 89.3438ZM576.195 84.7969H578.352V93.7266C578.352 93.9036 578.401 94.0391 578.5 94.1328C578.604 94.2266 578.768 94.2734 578.992 94.2734C579.096 94.2734 579.185 94.2682 579.258 94.2578C579.336 94.2422 579.435 94.2214 579.555 94.1953L579.727 96.0312C579.581 96.0521 579.424 96.0729 579.258 96.0938C579.117 96.1094 578.953 96.1224 578.766 96.1328C578.583 96.1484 578.393 96.1562 578.195 96.1562C577.888 96.1562 577.612 96.1172 577.367 96.0391C577.122 95.9609 576.911 95.8464 576.734 95.6953C576.562 95.5391 576.43 95.3464 576.336 95.1172C576.242 94.888 576.195 94.6224 576.195 94.3203V84.7969ZM583.07 96H580.914V87.6328H583.07V96ZM580.688 85.4375C580.688 85.2604 580.721 85.0938 580.789 84.9375C580.857 84.776 580.948 84.638 581.062 84.5234C581.182 84.4036 581.32 84.3099 581.477 84.2422C581.633 84.1745 581.802 84.1406 581.984 84.1406C582.161 84.1406 582.328 84.1745 582.484 84.2422C582.646 84.3099 582.784 84.4036 582.898 84.5234C583.018 84.638 583.112 84.776 583.18 84.9375C583.247 85.0938 583.281 85.2604 583.281 85.4375C583.281 85.6198 583.247 85.7891 583.18 85.9453C583.112 86.1016 583.018 86.2396 582.898 86.3594C582.784 86.474 582.646 86.5651 582.484 86.6328C582.328 86.7005 582.161 86.7344 581.984 86.7344C581.802 86.7344 581.633 86.7005 581.477 86.6328C581.32 86.5651 581.182 86.474 581.062 86.3594C580.948 86.2396 580.857 86.1016 580.789 85.9453C580.721 85.7891 580.688 85.6198 580.688 85.4375ZM584.93 87.6328H587.086V88.3516C587.201 88.237 587.328 88.1276 587.469 88.0234C587.615 87.9141 587.773 87.8203 587.945 87.7422C588.117 87.6589 588.307 87.5938 588.516 87.5469C588.729 87.4948 588.964 87.4688 589.219 87.4688C589.672 87.4688 590.078 87.5443 590.438 87.6953C590.797 87.8411 591.099 88.0443 591.344 88.3047C591.594 88.5651 591.784 88.8698 591.914 89.2188C592.044 89.5677 592.109 89.9453 592.109 90.3516V96H589.953V91.1328C589.953 90.8359 589.919 90.5859 589.852 90.3828C589.784 90.1745 589.69 90.0078 589.57 89.8828C589.456 89.7526 589.318 89.6589 589.156 89.6016C589 89.5391 588.828 89.5078 588.641 89.5078C588.422 89.5078 588.216 89.5469 588.023 89.625C587.836 89.7031 587.672 89.8229 587.531 89.9844C587.391 90.1406 587.281 90.3385 587.203 90.5781C587.125 90.8177 587.086 91.099 587.086 91.4219V96H584.93V87.6328ZM596.07 90.9141L598.859 87.6328H601.547L598.523 91.0547L601.633 96H599.039L596.953 92.5938L596.07 93.5547V96H593.914V84.7969H596.07V90.9141ZM609.281 84.7969V96H606.961V88.5938H604.93V86.5469H605.43C605.763 86.5469 606.034 86.5182 606.242 86.4609C606.456 86.3984 606.622 86.3047 606.742 86.1797C606.862 86.0547 606.943 85.8958 606.984 85.7031C607.026 85.5052 607.047 85.2682 607.047 84.9922V84.7969H609.281Z" fill="#1D70B8"/>
</g>
<rect width="97" height="37" transform="translate(641 80)" fill="#F3F2F1"/>
<path d="M642.922 92.8516C643.068 93.0182 643.245 93.1823 643.453 93.3438C643.661 93.5052 643.891 93.651 644.141 93.7812C644.396 93.9062 644.672 94.0078 644.969 94.0859C645.266 94.1589 645.586 94.1953 645.93 94.1953C646.57 94.1953 647.06 94.0625 647.398 93.7969C647.742 93.526 647.914 93.1979 647.914 92.8125C647.914 92.4115 647.763 92.1068 647.461 91.8984C647.164 91.6901 646.69 91.526 646.039 91.4062L645.688 91.3438C645.219 91.2604 644.753 91.151 644.289 91.0156C643.826 90.8802 643.406 90.6849 643.031 90.4297C642.656 90.1745 642.352 89.849 642.117 89.4531C641.883 89.0521 641.766 88.5469 641.766 87.9375C641.766 87.5833 641.844 87.2135 642 86.8281C642.156 86.4375 642.404 86.0807 642.742 85.7578C643.086 85.4297 643.526 85.1615 644.062 84.9531C644.604 84.7448 645.258 84.6406 646.023 84.6406C646.93 84.6406 647.737 84.7917 648.445 85.0938C649.159 85.3906 649.734 85.7839 650.172 86.2734L648.664 87.6797C648.357 87.3411 647.961 87.0755 647.477 86.8828C646.997 86.6901 646.503 86.5938 645.992 86.5938C645.404 86.5938 644.943 86.7057 644.609 86.9297C644.281 87.1536 644.117 87.4453 644.117 87.8047C644.117 88.0391 644.169 88.2344 644.273 88.3906C644.383 88.5469 644.534 88.6771 644.727 88.7812C644.919 88.8802 645.151 88.9635 645.422 89.0312C645.693 89.099 645.995 89.1667 646.328 89.2344L646.508 89.2656C646.956 89.349 647.401 89.4557 647.844 89.5859C648.286 89.7109 648.688 89.8984 649.047 90.1484C649.411 90.3932 649.706 90.7161 649.93 91.1172C650.154 91.513 650.266 92.0208 650.266 92.6406C650.266 93.2031 650.148 93.7005 649.914 94.1328C649.68 94.5651 649.37 94.9349 648.984 95.2422C648.599 95.5443 648.154 95.7734 647.648 95.9297C647.143 96.0807 646.617 96.1562 646.07 96.1562C645.518 96.1562 645.005 96.1094 644.531 96.0156C644.062 95.9219 643.635 95.7891 643.25 95.6172C642.87 95.4453 642.529 95.2526 642.227 95.0391C641.93 94.8255 641.669 94.5964 641.445 94.3516L642.922 92.8516ZM653.75 92.5625C653.786 92.8125 653.865 93.0417 653.984 93.25C654.109 93.4583 654.266 93.638 654.453 93.7891C654.641 93.9349 654.857 94.0495 655.102 94.1328C655.346 94.2161 655.607 94.2578 655.883 94.2578C656.201 94.2578 656.544 94.1979 656.914 94.0781C657.284 93.9531 657.622 93.7734 657.93 93.5391L658.969 95.0547C658.578 95.3828 658.099 95.6484 657.531 95.8516C656.964 96.0547 656.359 96.1562 655.719 96.1562C655.141 96.1562 654.596 96.0573 654.086 95.8594C653.576 95.6615 653.128 95.375 652.742 95C652.362 94.625 652.06 94.1693 651.836 93.6328C651.617 93.0964 651.508 92.4922 651.508 91.8203C651.508 91.2057 651.604 90.6328 651.797 90.1016C651.995 89.5703 652.268 89.1094 652.617 88.7188C652.971 88.3281 653.393 88.0234 653.883 87.8047C654.372 87.5807 654.914 87.4688 655.508 87.4688C656.06 87.4688 656.573 87.5703 657.047 87.7734C657.521 87.9714 657.932 88.2526 658.281 88.6172C658.63 88.9766 658.904 89.4089 659.102 89.9141C659.299 90.4193 659.398 90.9766 659.398 91.5859V92.5625H653.75ZM655.5 89.3438C655.036 89.3438 654.643 89.5 654.32 89.8125C654.003 90.1198 653.818 90.4922 653.766 90.9297H657.141C657.13 90.487 656.969 90.112 656.656 89.8047C656.344 89.4974 655.958 89.3438 655.5 89.3438ZM665.477 89.7266H665.25C664.943 89.7266 664.648 89.7578 664.367 89.8203C664.091 89.8828 663.846 89.9974 663.633 90.1641C663.419 90.3255 663.247 90.5495 663.117 90.8359C662.992 91.1224 662.93 91.4896 662.93 91.9375V96H660.773V87.6328H662.93V88.5781C663.018 88.4375 663.133 88.3021 663.273 88.1719C663.414 88.0417 663.578 87.9271 663.766 87.8281C663.953 87.724 664.164 87.6406 664.398 87.5781C664.633 87.5156 664.885 87.4844 665.156 87.4844H665.477V89.7266ZM668.594 96L666.031 87.6328H668.438L669.938 93.3906L671.477 87.6328H673.844L671.297 96H668.594ZM677.07 96H674.914V87.6328H677.07V96ZM674.688 85.4375C674.688 85.2604 674.721 85.0938 674.789 84.9375C674.857 84.776 674.948 84.638 675.062 84.5234C675.182 84.4036 675.32 84.3099 675.477 84.2422C675.633 84.1745 675.802 84.1406 675.984 84.1406C676.161 84.1406 676.328 84.1745 676.484 84.2422C676.646 84.3099 676.784 84.4036 676.898 84.5234C677.018 84.638 677.112 84.776 677.18 84.9375C677.247 85.0938 677.281 85.2604 677.281 85.4375C677.281 85.6198 677.247 85.7891 677.18 85.9453C677.112 86.1016 677.018 86.2396 676.898 86.3594C676.784 86.474 676.646 86.5651 676.484 86.6328C676.328 86.7005 676.161 86.7344 675.984 86.7344C675.802 86.7344 675.633 86.7005 675.477 86.6328C675.32 86.5651 675.182 86.474 675.062 86.3594C674.948 86.2396 674.857 86.1016 674.789 85.9453C674.721 85.7891 674.688 85.6198 674.688 85.4375ZM680.719 91.8594C680.719 92.1302 680.755 92.4036 680.828 92.6797C680.901 92.9505 681.013 93.1953 681.164 93.4141C681.315 93.6328 681.508 93.8125 681.742 93.9531C681.982 94.0885 682.266 94.1562 682.594 94.1562C682.807 94.1562 683 94.1276 683.172 94.0703C683.349 94.013 683.505 93.9349 683.641 93.8359C683.781 93.7318 683.904 93.612 684.008 93.4766C684.117 93.3359 684.211 93.1849 684.289 93.0234L686.18 94C686.044 94.3281 685.857 94.625 685.617 94.8906C685.383 95.1562 685.109 95.3828 684.797 95.5703C684.484 95.7578 684.138 95.901 683.758 96C683.378 96.1042 682.974 96.1562 682.547 96.1562C681.958 96.1562 681.417 96.0469 680.922 95.8281C680.427 95.6042 680 95.2995 679.641 94.9141C679.281 94.5286 679 94.0729 678.797 93.5469C678.594 93.0156 678.492 92.4401 678.492 91.8203C678.492 91.2057 678.594 90.6328 678.797 90.1016C679 89.5703 679.281 89.1094 679.641 88.7188C680 88.3281 680.427 88.0234 680.922 87.8047C681.417 87.5807 681.958 87.4688 682.547 87.4688C682.974 87.4688 683.378 87.5208 683.758 87.625C684.138 87.724 684.484 87.8698 684.797 88.0625C685.109 88.25 685.383 88.4766 685.617 88.7422C685.857 89.0078 686.044 89.3047 686.18 89.6328L684.289 90.6094C684.211 90.4479 684.117 90.2995 684.008 90.1641C683.904 90.0234 683.781 89.9036 683.641 89.8047C683.505 89.7005 683.349 89.6198 683.172 89.5625C683 89.5 682.807 89.4688 682.594 89.4688C682.266 89.4688 681.982 89.5391 681.742 89.6797C681.508 89.8151 681.315 89.9948 681.164 90.2188C681.013 90.4375 680.901 90.6849 680.828 90.9609C680.755 91.237 680.719 91.513 680.719 91.7891V91.8594ZM689.312 92.5625C689.349 92.8125 689.427 93.0417 689.547 93.25C689.672 93.4583 689.828 93.638 690.016 93.7891C690.203 93.9349 690.419 94.0495 690.664 94.1328C690.909 94.2161 691.169 94.2578 691.445 94.2578C691.763 94.2578 692.107 94.1979 692.477 94.0781C692.846 93.9531 693.185 93.7734 693.492 93.5391L694.531 95.0547C694.141 95.3828 693.661 95.6484 693.094 95.8516C692.526 96.0547 691.922 96.1562 691.281 96.1562C690.703 96.1562 690.159 96.0573 689.648 95.8594C689.138 95.6615 688.69 95.375 688.305 95C687.924 94.625 687.622 94.1693 687.398 93.6328C687.18 93.0964 687.07 92.4922 687.07 91.8203C687.07 91.2057 687.167 90.6328 687.359 90.1016C687.557 89.5703 687.831 89.1094 688.18 88.7188C688.534 88.3281 688.956 88.0234 689.445 87.8047C689.935 87.5807 690.477 87.4688 691.07 87.4688C691.622 87.4688 692.135 87.5703 692.609 87.7734C693.083 87.9714 693.495 88.2526 693.844 88.6172C694.193 88.9766 694.466 89.4089 694.664 89.9141C694.862 90.4193 694.961 90.9766 694.961 91.5859V92.5625H689.312ZM691.062 89.3438C690.599 89.3438 690.206 89.5 689.883 89.8125C689.565 90.1198 689.38 90.4922 689.328 90.9297H692.703C692.693 90.487 692.531 90.112 692.219 89.8047C691.906 89.4974 691.521 89.3438 691.062 89.3438ZM699.195 84.7969H701.352V93.7266C701.352 93.9036 701.401 94.0391 701.5 94.1328C701.604 94.2266 701.768 94.2734 701.992 94.2734C702.096 94.2734 702.185 94.2682 702.258 94.2578C702.336 94.2422 702.435 94.2214 702.555 94.1953L702.727 96.0312C702.581 96.0521 702.424 96.0729 702.258 96.0938C702.117 96.1094 701.953 96.1224 701.766 96.1328C701.583 96.1484 701.393 96.1562 701.195 96.1562C700.888 96.1562 700.612 96.1172 700.367 96.0391C700.122 95.9609 699.911 95.8464 699.734 95.6953C699.562 95.5391 699.43 95.3464 699.336 95.1172C699.242 94.888 699.195 94.6224 699.195 94.3203V84.7969ZM706.07 96H703.914V87.6328H706.07V96ZM703.688 85.4375C703.688 85.2604 703.721 85.0938 703.789 84.9375C703.857 84.776 703.948 84.638 704.062 84.5234C704.182 84.4036 704.32 84.3099 704.477 84.2422C704.633 84.1745 704.802 84.1406 704.984 84.1406C705.161 84.1406 705.328 84.1745 705.484 84.2422C705.646 84.3099 705.784 84.4036 705.898 84.5234C706.018 84.638 706.112 84.776 706.18 84.9375C706.247 85.0938 706.281 85.2604 706.281 85.4375C706.281 85.6198 706.247 85.7891 706.18 85.9453C706.112 86.1016 706.018 86.2396 705.898 86.3594C705.784 86.474 705.646 86.5651 705.484 86.6328C705.328 86.7005 705.161 86.7344 704.984 86.7344C704.802 86.7344 704.633 86.7005 704.477 86.6328C704.32 86.5651 704.182 86.474 704.062 86.3594C703.948 86.2396 703.857 86.1016 703.789 85.9453C703.721 85.7891 703.688 85.6198 703.688 85.4375ZM707.93 87.6328H710.086V88.3516C710.201 88.237 710.328 88.1276 710.469 88.0234C710.615 87.9141 710.773 87.8203 710.945 87.7422C711.117 87.6589 711.307 87.5938 711.516 87.5469C711.729 87.4948 711.964 87.4688 712.219 87.4688C712.672 87.4688 713.078 87.5443 713.438 87.6953C713.797 87.8411 714.099 88.0443 714.344 88.3047C714.594 88.5651 714.784 88.8698 714.914 89.2188C715.044 89.5677 715.109 89.9453 715.109 90.3516V96H712.953V91.1328C712.953 90.8359 712.919 90.5859 712.852 90.3828C712.784 90.1745 712.69 90.0078 712.57 89.8828C712.456 89.7526 712.318 89.6589 712.156 89.6016C712 89.5391 711.828 89.5078 711.641 89.5078C711.422 89.5078 711.216 89.5469 711.023 89.625C710.836 89.7031 710.672 89.8229 710.531 89.9844C710.391 90.1406 710.281 90.3385 710.203 90.5781C710.125 90.8177 710.086 91.099 710.086 91.4219V96H707.93V87.6328ZM719.07 90.9141L721.859 87.6328H724.547L721.523 91.0547L724.633 96H722.039L719.953 92.5938L719.07 93.5547V96H716.914V84.7969H719.07V90.9141ZM732.25 86.7344C731.943 86.7344 731.674 86.7839 731.445 86.8828C731.216 86.9818 731.026 87.1198 730.875 87.2969C730.724 87.474 730.612 87.6823 730.539 87.9219C730.466 88.1562 730.43 88.4115 730.43 88.6875L728.109 88.4766C728.115 87.862 728.224 87.3177 728.438 86.8438C728.651 86.3646 728.943 85.9635 729.312 85.6406C729.682 85.3125 730.117 85.0651 730.617 84.8984C731.122 84.7266 731.672 84.6406 732.266 84.6406C732.885 84.6406 733.451 84.7344 733.961 84.9219C734.477 85.1042 734.917 85.362 735.281 85.6953C735.646 86.0286 735.927 86.4297 736.125 86.8984C736.328 87.362 736.43 87.8724 736.43 88.4297C736.43 89.0391 736.307 89.6094 736.062 90.1406C735.823 90.6667 735.503 91.1562 735.102 91.6094C734.701 92.0573 734.24 92.4688 733.719 92.8438C733.198 93.2135 732.661 93.5469 732.109 93.8438L731.898 93.9531H736.57V96H728.398V93.9688C728.82 93.7396 729.25 93.4948 729.688 93.2344C730.13 92.974 730.557 92.7031 730.969 92.4219C731.385 92.1354 731.779 91.8385 732.148 91.5312C732.518 91.224 732.839 90.9062 733.109 90.5781C733.385 90.2448 733.604 89.9036 733.766 89.5547C733.927 89.2005 734.008 88.8359 734.008 88.4609C734.008 88.2474 733.971 88.0365 733.898 87.8281C733.826 87.6198 733.716 87.4349 733.57 87.2734C733.43 87.112 733.247 86.9818 733.023 86.8828C732.805 86.7839 732.547 86.7344 732.25 86.7344Z" fill="#1D70B8"/>
<rect width="97" height="37" transform="translate(768 80)" fill="#F3F2F1"/>
<path d="M769.922 92.8516C770.068 93.0182 770.245 93.1823 770.453 93.3438C770.661 93.5052 770.891 93.651 771.141 93.7812C771.396 93.9062 771.672 94.0078 771.969 94.0859C772.266 94.1589 772.586 94.1953 772.93 94.1953C773.57 94.1953 774.06 94.0625 774.398 93.7969C774.742 93.526 774.914 93.1979 774.914 92.8125C774.914 92.4115 774.763 92.1068 774.461 91.8984C774.164 91.6901 773.69 91.526 773.039 91.4062L772.688 91.3438C772.219 91.2604 771.753 91.151 771.289 91.0156C770.826 90.8802 770.406 90.6849 770.031 90.4297C769.656 90.1745 769.352 89.849 769.117 89.4531C768.883 89.0521 768.766 88.5469 768.766 87.9375C768.766 87.5833 768.844 87.2135 769 86.8281C769.156 86.4375 769.404 86.0807 769.742 85.7578C770.086 85.4297 770.526 85.1615 771.062 84.9531C771.604 84.7448 772.258 84.6406 773.023 84.6406C773.93 84.6406 774.737 84.7917 775.445 85.0938C776.159 85.3906 776.734 85.7839 777.172 86.2734L775.664 87.6797C775.357 87.3411 774.961 87.0755 774.477 86.8828C773.997 86.6901 773.503 86.5938 772.992 86.5938C772.404 86.5938 771.943 86.7057 771.609 86.9297C771.281 87.1536 771.117 87.4453 771.117 87.8047C771.117 88.0391 771.169 88.2344 771.273 88.3906C771.383 88.5469 771.534 88.6771 771.727 88.7812C771.919 88.8802 772.151 88.9635 772.422 89.0312C772.693 89.099 772.995 89.1667 773.328 89.2344L773.508 89.2656C773.956 89.349 774.401 89.4557 774.844 89.5859C775.286 89.7109 775.688 89.8984 776.047 90.1484C776.411 90.3932 776.706 90.7161 776.93 91.1172C777.154 91.513 777.266 92.0208 777.266 92.6406C777.266 93.2031 777.148 93.7005 776.914 94.1328C776.68 94.5651 776.37 94.9349 775.984 95.2422C775.599 95.5443 775.154 95.7734 774.648 95.9297C774.143 96.0807 773.617 96.1562 773.07 96.1562C772.518 96.1562 772.005 96.1094 771.531 96.0156C771.062 95.9219 770.635 95.7891 770.25 95.6172C769.87 95.4453 769.529 95.2526 769.227 95.0391C768.93 94.8255 768.669 94.5964 768.445 94.3516L769.922 92.8516ZM780.75 92.5625C780.786 92.8125 780.865 93.0417 780.984 93.25C781.109 93.4583 781.266 93.638 781.453 93.7891C781.641 93.9349 781.857 94.0495 782.102 94.1328C782.346 94.2161 782.607 94.2578 782.883 94.2578C783.201 94.2578 783.544 94.1979 783.914 94.0781C784.284 93.9531 784.622 93.7734 784.93 93.5391L785.969 95.0547C785.578 95.3828 785.099 95.6484 784.531 95.8516C783.964 96.0547 783.359 96.1562 782.719 96.1562C782.141 96.1562 781.596 96.0573 781.086 95.8594C780.576 95.6615 780.128 95.375 779.742 95C779.362 94.625 779.06 94.1693 778.836 93.6328C778.617 93.0964 778.508 92.4922 778.508 91.8203C778.508 91.2057 778.604 90.6328 778.797 90.1016C778.995 89.5703 779.268 89.1094 779.617 88.7188C779.971 88.3281 780.393 88.0234 780.883 87.8047C781.372 87.5807 781.914 87.4688 782.508 87.4688C783.06 87.4688 783.573 87.5703 784.047 87.7734C784.521 87.9714 784.932 88.2526 785.281 88.6172C785.63 88.9766 785.904 89.4089 786.102 89.9141C786.299 90.4193 786.398 90.9766 786.398 91.5859V92.5625H780.75ZM782.5 89.3438C782.036 89.3438 781.643 89.5 781.32 89.8125C781.003 90.1198 780.818 90.4922 780.766 90.9297H784.141C784.13 90.487 783.969 90.112 783.656 89.8047C783.344 89.4974 782.958 89.3438 782.5 89.3438ZM792.477 89.7266H792.25C791.943 89.7266 791.648 89.7578 791.367 89.8203C791.091 89.8828 790.846 89.9974 790.633 90.1641C790.419 90.3255 790.247 90.5495 790.117 90.8359C789.992 91.1224 789.93 91.4896 789.93 91.9375V96H787.773V87.6328H789.93V88.5781C790.018 88.4375 790.133 88.3021 790.273 88.1719C790.414 88.0417 790.578 87.9271 790.766 87.8281C790.953 87.724 791.164 87.6406 791.398 87.5781C791.633 87.5156 791.885 87.4844 792.156 87.4844H792.477V89.7266ZM795.594 96L793.031 87.6328H795.438L796.938 93.3906L798.477 87.6328H800.844L798.297 96H795.594ZM804.07 96H801.914V87.6328H804.07V96ZM801.688 85.4375C801.688 85.2604 801.721 85.0938 801.789 84.9375C801.857 84.776 801.948 84.638 802.062 84.5234C802.182 84.4036 802.32 84.3099 802.477 84.2422C802.633 84.1745 802.802 84.1406 802.984 84.1406C803.161 84.1406 803.328 84.1745 803.484 84.2422C803.646 84.3099 803.784 84.4036 803.898 84.5234C804.018 84.638 804.112 84.776 804.18 84.9375C804.247 85.0938 804.281 85.2604 804.281 85.4375C804.281 85.6198 804.247 85.7891 804.18 85.9453C804.112 86.1016 804.018 86.2396 803.898 86.3594C803.784 86.474 803.646 86.5651 803.484 86.6328C803.328 86.7005 803.161 86.7344 802.984 86.7344C802.802 86.7344 802.633 86.7005 802.477 86.6328C802.32 86.5651 802.182 86.474 802.062 86.3594C801.948 86.2396 801.857 86.1016 801.789 85.9453C801.721 85.7891 801.688 85.6198 801.688 85.4375ZM807.719 91.8594C807.719 92.1302 807.755 92.4036 807.828 92.6797C807.901 92.9505 808.013 93.1953 808.164 93.4141C808.315 93.6328 808.508 93.8125 808.742 93.9531C808.982 94.0885 809.266 94.1562 809.594 94.1562C809.807 94.1562 810 94.1276 810.172 94.0703C810.349 94.013 810.505 93.9349 810.641 93.8359C810.781 93.7318 810.904 93.612 811.008 93.4766C811.117 93.3359 811.211 93.1849 811.289 93.0234L813.18 94C813.044 94.3281 812.857 94.625 812.617 94.8906C812.383 95.1562 812.109 95.3828 811.797 95.5703C811.484 95.7578 811.138 95.901 810.758 96C810.378 96.1042 809.974 96.1562 809.547 96.1562C808.958 96.1562 808.417 96.0469 807.922 95.8281C807.427 95.6042 807 95.2995 806.641 94.9141C806.281 94.5286 806 94.0729 805.797 93.5469C805.594 93.0156 805.492 92.4401 805.492 91.8203C805.492 91.2057 805.594 90.6328 805.797 90.1016C806 89.5703 806.281 89.1094 806.641 88.7188C807 88.3281 807.427 88.0234 807.922 87.8047C808.417 87.5807 808.958 87.4688 809.547 87.4688C809.974 87.4688 810.378 87.5208 810.758 87.625C811.138 87.724 811.484 87.8698 811.797 88.0625C812.109 88.25 812.383 88.4766 812.617 88.7422C812.857 89.0078 813.044 89.3047 813.18 89.6328L811.289 90.6094C811.211 90.4479 811.117 90.2995 811.008 90.1641C810.904 90.0234 810.781 89.9036 810.641 89.8047C810.505 89.7005 810.349 89.6198 810.172 89.5625C810 89.5 809.807 89.4688 809.594 89.4688C809.266 89.4688 808.982 89.5391 808.742 89.6797C808.508 89.8151 808.315 89.9948 808.164 90.2188C808.013 90.4375 807.901 90.6849 807.828 90.9609C807.755 91.237 807.719 91.513 807.719 91.7891V91.8594ZM816.312 92.5625C816.349 92.8125 816.427 93.0417 816.547 93.25C816.672 93.4583 816.828 93.638 817.016 93.7891C817.203 93.9349 817.419 94.0495 817.664 94.1328C817.909 94.2161 818.169 94.2578 818.445 94.2578C818.763 94.2578 819.107 94.1979 819.477 94.0781C819.846 93.9531 820.185 93.7734 820.492 93.5391L821.531 95.0547C821.141 95.3828 820.661 95.6484 820.094 95.8516C819.526 96.0547 818.922 96.1562 818.281 96.1562C817.703 96.1562 817.159 96.0573 816.648 95.8594C816.138 95.6615 815.69 95.375 815.305 95C814.924 94.625 814.622 94.1693 814.398 93.6328C814.18 93.0964 814.07 92.4922 814.07 91.8203C814.07 91.2057 814.167 90.6328 814.359 90.1016C814.557 89.5703 814.831 89.1094 815.18 88.7188C815.534 88.3281 815.956 88.0234 816.445 87.8047C816.935 87.5807 817.477 87.4688 818.07 87.4688C818.622 87.4688 819.135 87.5703 819.609 87.7734C820.083 87.9714 820.495 88.2526 820.844 88.6172C821.193 88.9766 821.466 89.4089 821.664 89.9141C821.862 90.4193 821.961 90.9766 821.961 91.5859V92.5625H816.312ZM818.062 89.3438C817.599 89.3438 817.206 89.5 816.883 89.8125C816.565 90.1198 816.38 90.4922 816.328 90.9297H819.703C819.693 90.487 819.531 90.112 819.219 89.8047C818.906 89.4974 818.521 89.3438 818.062 89.3438ZM826.195 84.7969H828.352V93.7266C828.352 93.9036 828.401 94.0391 828.5 94.1328C828.604 94.2266 828.768 94.2734 828.992 94.2734C829.096 94.2734 829.185 94.2682 829.258 94.2578C829.336 94.2422 829.435 94.2214 829.555 94.1953L829.727 96.0312C829.581 96.0521 829.424 96.0729 829.258 96.0938C829.117 96.1094 828.953 96.1224 828.766 96.1328C828.583 96.1484 828.393 96.1562 828.195 96.1562C827.888 96.1562 827.612 96.1172 827.367 96.0391C827.122 95.9609 826.911 95.8464 826.734 95.6953C826.562 95.5391 826.43 95.3464 826.336 95.1172C826.242 94.888 826.195 94.6224 826.195 94.3203V84.7969ZM833.07 96H830.914V87.6328H833.07V96ZM830.688 85.4375C830.688 85.2604 830.721 85.0938 830.789 84.9375C830.857 84.776 830.948 84.638 831.062 84.5234C831.182 84.4036 831.32 84.3099 831.477 84.2422C831.633 84.1745 831.802 84.1406 831.984 84.1406C832.161 84.1406 832.328 84.1745 832.484 84.2422C832.646 84.3099 832.784 84.4036 832.898 84.5234C833.018 84.638 833.112 84.776 833.18 84.9375C833.247 85.0938 833.281 85.2604 833.281 85.4375C833.281 85.6198 833.247 85.7891 833.18 85.9453C833.112 86.1016 833.018 86.2396 832.898 86.3594C832.784 86.474 832.646 86.5651 832.484 86.6328C832.328 86.7005 832.161 86.7344 831.984 86.7344C831.802 86.7344 831.633 86.7005 831.477 86.6328C831.32 86.5651 831.182 86.474 831.062 86.3594C830.948 86.2396 830.857 86.1016 830.789 85.9453C830.721 85.7891 830.688 85.6198 830.688 85.4375ZM834.93 87.6328H837.086V88.3516C837.201 88.237 837.328 88.1276 837.469 88.0234C837.615 87.9141 837.773 87.8203 837.945 87.7422C838.117 87.6589 838.307 87.5938 838.516 87.5469C838.729 87.4948 838.964 87.4688 839.219 87.4688C839.672 87.4688 840.078 87.5443 840.438 87.6953C840.797 87.8411 841.099 88.0443 841.344 88.3047C841.594 88.5651 841.784 88.8698 841.914 89.2188C842.044 89.5677 842.109 89.9453 842.109 90.3516V96H839.953V91.1328C839.953 90.8359 839.919 90.5859 839.852 90.3828C839.784 90.1745 839.69 90.0078 839.57 89.8828C839.456 89.7526 839.318 89.6589 839.156 89.6016C839 89.5391 838.828 89.5078 838.641 89.5078C838.422 89.5078 838.216 89.5469 838.023 89.625C837.836 89.7031 837.672 89.8229 837.531 89.9844C837.391 90.1406 837.281 90.3385 837.203 90.5781C837.125 90.8177 837.086 91.099 837.086 91.4219V96H834.93V87.6328ZM846.07 90.9141L848.859 87.6328H851.547L848.523 91.0547L851.633 96H849.039L846.953 92.5938L846.07 93.5547V96H843.914V84.7969H846.07V90.9141ZM857.203 92.5781C857.286 92.8438 857.404 93.0755 857.555 93.2734C857.706 93.4661 857.88 93.6276 858.078 93.7578C858.281 93.8828 858.5 93.9766 858.734 94.0391C858.974 94.0964 859.221 94.125 859.477 94.125C859.831 94.125 860.13 94.0833 860.375 94C860.625 93.9115 860.826 93.7995 860.977 93.6641C861.133 93.5234 861.245 93.3672 861.312 93.1953C861.38 93.0182 861.414 92.8385 861.414 92.6562C861.414 92.2135 861.229 91.8646 860.859 91.6094C860.495 91.349 859.932 91.2188 859.172 91.2188H858.547V89.3281H859.023C859.711 89.3281 860.247 89.2161 860.633 88.9922C861.023 88.7682 861.219 88.4271 861.219 87.9688C861.219 87.7708 861.174 87.5938 861.086 87.4375C860.997 87.276 860.875 87.1406 860.719 87.0312C860.568 86.9219 860.385 86.8385 860.172 86.7812C859.964 86.7188 859.737 86.6875 859.492 86.6875C859.211 86.6875 858.953 86.7266 858.719 86.8047C858.49 86.8828 858.284 86.9896 858.102 87.125C857.919 87.2604 857.76 87.4193 857.625 87.6016C857.495 87.7839 857.391 87.9766 857.312 88.1797L855.312 87.375C855.432 86.9375 855.63 86.5495 855.906 86.2109C856.182 85.8724 856.505 85.5885 856.875 85.3594C857.25 85.125 857.661 84.9479 858.109 84.8281C858.557 84.7031 859.013 84.6406 859.477 84.6406C860.055 84.6406 860.591 84.7109 861.086 84.8516C861.581 84.9922 862.01 85.1979 862.375 85.4688C862.745 85.7344 863.034 86.0625 863.242 86.4531C863.451 86.8438 863.555 87.2891 863.555 87.7891C863.555 88.0859 863.505 88.3646 863.406 88.625C863.312 88.8802 863.182 89.112 863.016 89.3203C862.854 89.5234 862.661 89.6979 862.438 89.8438C862.214 89.9896 861.974 90.1016 861.719 90.1797C862.005 90.2422 862.273 90.3464 862.523 90.4922C862.773 90.638 862.992 90.8203 863.18 91.0391C863.367 91.2578 863.513 91.5104 863.617 91.7969C863.727 92.0833 863.781 92.3958 863.781 92.7344C863.781 93.25 863.669 93.7188 863.445 94.1406C863.227 94.5625 862.924 94.9219 862.539 95.2188C862.154 95.5156 861.698 95.7474 861.172 95.9141C860.651 96.0755 860.086 96.1562 859.477 96.1562C858.94 96.1562 858.424 96.0885 857.93 95.9531C857.435 95.8125 856.99 95.6146 856.594 95.3594C856.198 95.099 855.865 94.7839 855.594 94.4141C855.323 94.0391 855.141 93.6172 855.047 93.1484L857.203 92.5781Z" fill="#1D70B8"/>
<rect width="97" height="37" transform="translate(895 80)" fill="#F3F2F1"/>
<path d="M896.922 92.8516C897.068 93.0182 897.245 93.1823 897.453 93.3438C897.661 93.5052 897.891 93.651 898.141 93.7812C898.396 93.9062 898.672 94.0078 898.969 94.0859C899.266 94.1589 899.586 94.1953 899.93 94.1953C900.57 94.1953 901.06 94.0625 901.398 93.7969C901.742 93.526 901.914 93.1979 901.914 92.8125C901.914 92.4115 901.763 92.1068 901.461 91.8984C901.164 91.6901 900.69 91.526 900.039 91.4062L899.688 91.3438C899.219 91.2604 898.753 91.151 898.289 91.0156C897.826 90.8802 897.406 90.6849 897.031 90.4297C896.656 90.1745 896.352 89.849 896.117 89.4531C895.883 89.0521 895.766 88.5469 895.766 87.9375C895.766 87.5833 895.844 87.2135 896 86.8281C896.156 86.4375 896.404 86.0807 896.742 85.7578C897.086 85.4297 897.526 85.1615 898.062 84.9531C898.604 84.7448 899.258 84.6406 900.023 84.6406C900.93 84.6406 901.737 84.7917 902.445 85.0938C903.159 85.3906 903.734 85.7839 904.172 86.2734L902.664 87.6797C902.357 87.3411 901.961 87.0755 901.477 86.8828C900.997 86.6901 900.503 86.5938 899.992 86.5938C899.404 86.5938 898.943 86.7057 898.609 86.9297C898.281 87.1536 898.117 87.4453 898.117 87.8047C898.117 88.0391 898.169 88.2344 898.273 88.3906C898.383 88.5469 898.534 88.6771 898.727 88.7812C898.919 88.8802 899.151 88.9635 899.422 89.0312C899.693 89.099 899.995 89.1667 900.328 89.2344L900.508 89.2656C900.956 89.349 901.401 89.4557 901.844 89.5859C902.286 89.7109 902.688 89.8984 903.047 90.1484C903.411 90.3932 903.706 90.7161 903.93 91.1172C904.154 91.513 904.266 92.0208 904.266 92.6406C904.266 93.2031 904.148 93.7005 903.914 94.1328C903.68 94.5651 903.37 94.9349 902.984 95.2422C902.599 95.5443 902.154 95.7734 901.648 95.9297C901.143 96.0807 900.617 96.1562 900.07 96.1562C899.518 96.1562 899.005 96.1094 898.531 96.0156C898.062 95.9219 897.635 95.7891 897.25 95.6172C896.87 95.4453 896.529 95.2526 896.227 95.0391C895.93 94.8255 895.669 94.5964 895.445 94.3516L896.922 92.8516ZM907.75 92.5625C907.786 92.8125 907.865 93.0417 907.984 93.25C908.109 93.4583 908.266 93.638 908.453 93.7891C908.641 93.9349 908.857 94.0495 909.102 94.1328C909.346 94.2161 909.607 94.2578 909.883 94.2578C910.201 94.2578 910.544 94.1979 910.914 94.0781C911.284 93.9531 911.622 93.7734 911.93 93.5391L912.969 95.0547C912.578 95.3828 912.099 95.6484 911.531 95.8516C910.964 96.0547 910.359 96.1562 909.719 96.1562C909.141 96.1562 908.596 96.0573 908.086 95.8594C907.576 95.6615 907.128 95.375 906.742 95C906.362 94.625 906.06 94.1693 905.836 93.6328C905.617 93.0964 905.508 92.4922 905.508 91.8203C905.508 91.2057 905.604 90.6328 905.797 90.1016C905.995 89.5703 906.268 89.1094 906.617 88.7188C906.971 88.3281 907.393 88.0234 907.883 87.8047C908.372 87.5807 908.914 87.4688 909.508 87.4688C910.06 87.4688 910.573 87.5703 911.047 87.7734C911.521 87.9714 911.932 88.2526 912.281 88.6172C912.63 88.9766 912.904 89.4089 913.102 89.9141C913.299 90.4193 913.398 90.9766 913.398 91.5859V92.5625H907.75ZM909.5 89.3438C909.036 89.3438 908.643 89.5 908.32 89.8125C908.003 90.1198 907.818 90.4922 907.766 90.9297H911.141C911.13 90.487 910.969 90.112 910.656 89.8047C910.344 89.4974 909.958 89.3438 909.5 89.3438ZM919.477 89.7266H919.25C918.943 89.7266 918.648 89.7578 918.367 89.8203C918.091 89.8828 917.846 89.9974 917.633 90.1641C917.419 90.3255 917.247 90.5495 917.117 90.8359C916.992 91.1224 916.93 91.4896 916.93 91.9375V96H914.773V87.6328H916.93V88.5781C917.018 88.4375 917.133 88.3021 917.273 88.1719C917.414 88.0417 917.578 87.9271 917.766 87.8281C917.953 87.724 918.164 87.6406 918.398 87.5781C918.633 87.5156 918.885 87.4844 919.156 87.4844H919.477V89.7266ZM922.594 96L920.031 87.6328H922.438L923.938 93.3906L925.477 87.6328H927.844L925.297 96H922.594ZM931.07 96H928.914V87.6328H931.07V96ZM928.688 85.4375C928.688 85.2604 928.721 85.0938 928.789 84.9375C928.857 84.776 928.948 84.638 929.062 84.5234C929.182 84.4036 929.32 84.3099 929.477 84.2422C929.633 84.1745 929.802 84.1406 929.984 84.1406C930.161 84.1406 930.328 84.1745 930.484 84.2422C930.646 84.3099 930.784 84.4036 930.898 84.5234C931.018 84.638 931.112 84.776 931.18 84.9375C931.247 85.0938 931.281 85.2604 931.281 85.4375C931.281 85.6198 931.247 85.7891 931.18 85.9453C931.112 86.1016 931.018 86.2396 930.898 86.3594C930.784 86.474 930.646 86.5651 930.484 86.6328C930.328 86.7005 930.161 86.7344 929.984 86.7344C929.802 86.7344 929.633 86.7005 929.477 86.6328C929.32 86.5651 929.182 86.474 929.062 86.3594C928.948 86.2396 928.857 86.1016 928.789 85.9453C928.721 85.7891 928.688 85.6198 928.688 85.4375ZM934.719 91.8594C934.719 92.1302 934.755 92.4036 934.828 92.6797C934.901 92.9505 935.013 93.1953 935.164 93.4141C935.315 93.6328 935.508 93.8125 935.742 93.9531C935.982 94.0885 936.266 94.1562 936.594 94.1562C936.807 94.1562 937 94.1276 937.172 94.0703C937.349 94.013 937.505 93.9349 937.641 93.8359C937.781 93.7318 937.904 93.612 938.008 93.4766C938.117 93.3359 938.211 93.1849 938.289 93.0234L940.18 94C940.044 94.3281 939.857 94.625 939.617 94.8906C939.383 95.1562 939.109 95.3828 938.797 95.5703C938.484 95.7578 938.138 95.901 937.758 96C937.378 96.1042 936.974 96.1562 936.547 96.1562C935.958 96.1562 935.417 96.0469 934.922 95.8281C934.427 95.6042 934 95.2995 933.641 94.9141C933.281 94.5286 933 94.0729 932.797 93.5469C932.594 93.0156 932.492 92.4401 932.492 91.8203C932.492 91.2057 932.594 90.6328 932.797 90.1016C933 89.5703 933.281 89.1094 933.641 88.7188C934 88.3281 934.427 88.0234 934.922 87.8047C935.417 87.5807 935.958 87.4688 936.547 87.4688C936.974 87.4688 937.378 87.5208 937.758 87.625C938.138 87.724 938.484 87.8698 938.797 88.0625C939.109 88.25 939.383 88.4766 939.617 88.7422C939.857 89.0078 940.044 89.3047 940.18 89.6328L938.289 90.6094C938.211 90.4479 938.117 90.2995 938.008 90.1641C937.904 90.0234 937.781 89.9036 937.641 89.8047C937.505 89.7005 937.349 89.6198 937.172 89.5625C937 89.5 936.807 89.4688 936.594 89.4688C936.266 89.4688 935.982 89.5391 935.742 89.6797C935.508 89.8151 935.315 89.9948 935.164 90.2188C935.013 90.4375 934.901 90.6849 934.828 90.9609C934.755 91.237 934.719 91.513 934.719 91.7891V91.8594ZM943.312 92.5625C943.349 92.8125 943.427 93.0417 943.547 93.25C943.672 93.4583 943.828 93.638 944.016 93.7891C944.203 93.9349 944.419 94.0495 944.664 94.1328C944.909 94.2161 945.169 94.2578 945.445 94.2578C945.763 94.2578 946.107 94.1979 946.477 94.0781C946.846 93.9531 947.185 93.7734 947.492 93.5391L948.531 95.0547C948.141 95.3828 947.661 95.6484 947.094 95.8516C946.526 96.0547 945.922 96.1562 945.281 96.1562C944.703 96.1562 944.159 96.0573 943.648 95.8594C943.138 95.6615 942.69 95.375 942.305 95C941.924 94.625 941.622 94.1693 941.398 93.6328C941.18 93.0964 941.07 92.4922 941.07 91.8203C941.07 91.2057 941.167 90.6328 941.359 90.1016C941.557 89.5703 941.831 89.1094 942.18 88.7188C942.534 88.3281 942.956 88.0234 943.445 87.8047C943.935 87.5807 944.477 87.4688 945.07 87.4688C945.622 87.4688 946.135 87.5703 946.609 87.7734C947.083 87.9714 947.495 88.2526 947.844 88.6172C948.193 88.9766 948.466 89.4089 948.664 89.9141C948.862 90.4193 948.961 90.9766 948.961 91.5859V92.5625H943.312ZM945.062 89.3438C944.599 89.3438 944.206 89.5 943.883 89.8125C943.565 90.1198 943.38 90.4922 943.328 90.9297H946.703C946.693 90.487 946.531 90.112 946.219 89.8047C945.906 89.4974 945.521 89.3438 945.062 89.3438ZM953.195 84.7969H955.352V93.7266C955.352 93.9036 955.401 94.0391 955.5 94.1328C955.604 94.2266 955.768 94.2734 955.992 94.2734C956.096 94.2734 956.185 94.2682 956.258 94.2578C956.336 94.2422 956.435 94.2214 956.555 94.1953L956.727 96.0312C956.581 96.0521 956.424 96.0729 956.258 96.0938C956.117 96.1094 955.953 96.1224 955.766 96.1328C955.583 96.1484 955.393 96.1562 955.195 96.1562C954.888 96.1562 954.612 96.1172 954.367 96.0391C954.122 95.9609 953.911 95.8464 953.734 95.6953C953.562 95.5391 953.43 95.3464 953.336 95.1172C953.242 94.888 953.195 94.6224 953.195 94.3203V84.7969ZM960.07 96H957.914V87.6328H960.07V96ZM957.688 85.4375C957.688 85.2604 957.721 85.0938 957.789 84.9375C957.857 84.776 957.948 84.638 958.062 84.5234C958.182 84.4036 958.32 84.3099 958.477 84.2422C958.633 84.1745 958.802 84.1406 958.984 84.1406C959.161 84.1406 959.328 84.1745 959.484 84.2422C959.646 84.3099 959.784 84.4036 959.898 84.5234C960.018 84.638 960.112 84.776 960.18 84.9375C960.247 85.0938 960.281 85.2604 960.281 85.4375C960.281 85.6198 960.247 85.7891 960.18 85.9453C960.112 86.1016 960.018 86.2396 959.898 86.3594C959.784 86.474 959.646 86.5651 959.484 86.6328C959.328 86.7005 959.161 86.7344 958.984 86.7344C958.802 86.7344 958.633 86.7005 958.477 86.6328C958.32 86.5651 958.182 86.474 958.062 86.3594C957.948 86.2396 957.857 86.1016 957.789 85.9453C957.721 85.7891 957.688 85.6198 957.688 85.4375ZM961.93 87.6328H964.086V88.3516C964.201 88.237 964.328 88.1276 964.469 88.0234C964.615 87.9141 964.773 87.8203 964.945 87.7422C965.117 87.6589 965.307 87.5938 965.516 87.5469C965.729 87.4948 965.964 87.4688 966.219 87.4688C966.672 87.4688 967.078 87.5443 967.438 87.6953C967.797 87.8411 968.099 88.0443 968.344 88.3047C968.594 88.5651 968.784 88.8698 968.914 89.2188C969.044 89.5677 969.109 89.9453 969.109 90.3516V96H966.953V91.1328C966.953 90.8359 966.919 90.5859 966.852 90.3828C966.784 90.1745 966.69 90.0078 966.57 89.8828C966.456 89.7526 966.318 89.6589 966.156 89.6016C966 89.5391 965.828 89.5078 965.641 89.5078C965.422 89.5078 965.216 89.5469 965.023 89.625C964.836 89.7031 964.672 89.8229 964.531 89.9844C964.391 90.1406 964.281 90.3385 964.203 90.5781C964.125 90.8177 964.086 91.099 964.086 91.4219V96H961.93V87.6328ZM973.07 90.9141L975.859 87.6328H978.547L975.523 91.0547L978.633 96H976.039L973.953 92.5938L973.07 93.5547V96H970.914V84.7969H973.07V90.9141ZM987.531 96V93.4688H981.945V91.0547L986.906 84.7969H989.805V91.4219H991.438V93.4688H989.805V96H987.531ZM987.531 91.4219V87.0234L984.047 91.4219H987.531Z" fill="#1D70B8"/>
</g>
<defs>
<filter id="filter0_d_14602_116960" x="32" y="0" width="960" height="60" filterUnits="userSpaceOnUse" color-interpolation-filters="sRGB">
<feFlood flood-opacity="0" result="BackgroundImageFix"/>
<feColorMatrix in="SourceAlpha" type="matrix" values="0 0 0 0 0 0 0 0 0 0 0 0 0 0 0 0 0 0 127 0" result="hardAlpha"/>
<feOffset dy="10"/>
<feComposite in2="hardAlpha" operator="out"/>
<feColorMatrix type="matrix" values="0 0 0 0 0.113725 0 0 0 0 0.439216 0 0 0 0 0.721569 0 0 0 1 0"/>
<feBlend mode="normal" in2="BackgroundImageFix" result="effect1_dropShadow_14602_116960"/>
<feBlend mode="normal" in="SourceGraphic" in2="effect1_dropShadow_14602_116960" result="shape"/>
</filter>
<filter id="filter1_i_14602_116960" x="0" y="60" width="1024" height="57" filterUnits="userSpaceOnUse" color-interpolation-filters="sRGB">
<feFlood flood-opacity="0" result="BackgroundImageFix"/>
<feBlend mode="normal" in="SourceGraphic" in2="BackgroundImageFix" result="shape"/>
<feColorMatrix in="SourceAlpha" type="matrix" values="0 0 0 0 0 0 0 0 0 0 0 0 0 0 0 0 0 0 127 0" result="hardAlpha"/>
<feOffset dy="-1"/>
<feComposite in2="hardAlpha" operator="arithmetic" k2="-1" k3="1"/>
<feColorMatrix type="matrix" values="0 0 0 0 0.694118 0 0 0 0 0.705882 0 0 0 0 0.713726 0 0 0 1 0"/>
<feBlend mode="normal" in2="shape" result="effect1_innerShadow_14602_116960"/>
</filter>
<filter id="filter2_i_14602_116960" x="518" y="80" width="93" height="37" filterUnits="userSpaceOnUse" color-interpolation-filters="sRGB">
<feFlood flood-opacity="0" result="BackgroundImageFix"/>
<feBlend mode="normal" in="SourceGraphic" in2="BackgroundImageFix" result="shape"/>
<feColorMatrix in="SourceAlpha" type="matrix" values="0 0 0 0 0 0 0 0 0 0 0 0 0 0 0 0 0 0 127 0" result="hardAlpha"/>
<feOffset dy="-5"/>
<feComposite in2="hardAlpha" operator="arithmetic" k2="-1" k3="1"/>
<feColorMatrix type="matrix" values="0 0 0 0 0.113725 0 0 0 0 0.439216 0 0 0 0 0.721569 0 0 0 1 0"/>
<feBlend mode="normal" in2="shape" result="effect1_innerShadow_14602_116960"/>
</filter>
<clipPath id="clip0_14602_116960">
<rect width="960" height="50" fill="white" transform="translate(32)"/>
</clipPath>
</defs>
</svg>
