<svg width="930" height="600" viewBox="0 0 930 600" fill="none" xmlns="http://www.w3.org/2000/svg">
<rect width="930" height="600" fill="white"/>
<rect width="930" height="600" fill="#DBD5E9"/>
<path d="M720 112H889V216H720V112Z" fill="white"/>
<path d="M732.922 146.852C733.068 147.018 733.245 147.182 733.453 147.344C733.661 147.505 733.891 147.651 734.141 147.781C734.396 147.906 734.672 148.008 734.969 148.086C735.266 148.159 735.586 148.195 735.93 148.195C736.57 148.195 737.06 148.062 737.398 147.797C737.742 147.526 737.914 147.198 737.914 146.812C737.914 146.411 737.763 146.107 737.461 145.898C737.164 145.69 736.69 145.526 736.039 145.406L735.688 145.344C735.219 145.26 734.753 145.151 734.289 145.016C733.826 144.88 733.406 144.685 733.031 144.43C732.656 144.174 732.352 143.849 732.117 143.453C731.883 143.052 731.766 142.547 731.766 141.938C731.766 141.583 731.844 141.214 732 140.828C732.156 140.438 732.404 140.081 732.742 139.758C733.086 139.43 733.526 139.161 734.062 138.953C734.604 138.745 735.258 138.641 736.023 138.641C736.93 138.641 737.737 138.792 738.445 139.094C739.159 139.391 739.734 139.784 740.172 140.273L738.664 141.68C738.357 141.341 737.961 141.076 737.477 140.883C736.997 140.69 736.503 140.594 735.992 140.594C735.404 140.594 734.943 140.706 734.609 140.93C734.281 141.154 734.117 141.445 734.117 141.805C734.117 142.039 734.169 142.234 734.273 142.391C734.383 142.547 734.534 142.677 734.727 142.781C734.919 142.88 735.151 142.964 735.422 143.031C735.693 143.099 735.995 143.167 736.328 143.234L736.508 143.266C736.956 143.349 737.401 143.456 737.844 143.586C738.286 143.711 738.688 143.898 739.047 144.148C739.411 144.393 739.706 144.716 739.93 145.117C740.154 145.513 740.266 146.021 740.266 146.641C740.266 147.203 740.148 147.701 739.914 148.133C739.68 148.565 739.37 148.935 738.984 149.242C738.599 149.544 738.154 149.773 737.648 149.93C737.143 150.081 736.617 150.156 736.07 150.156C735.518 150.156 735.005 150.109 734.531 150.016C734.062 149.922 733.635 149.789 733.25 149.617C732.87 149.445 732.529 149.253 732.227 149.039C731.93 148.826 731.669 148.596 731.445 148.352L732.922 146.852ZM743.75 146.562C743.786 146.812 743.865 147.042 743.984 147.25C744.109 147.458 744.266 147.638 744.453 147.789C744.641 147.935 744.857 148.049 745.102 148.133C745.346 148.216 745.607 148.258 745.883 148.258C746.201 148.258 746.544 148.198 746.914 148.078C747.284 147.953 747.622 147.773 747.93 147.539L748.969 149.055C748.578 149.383 748.099 149.648 747.531 149.852C746.964 150.055 746.359 150.156 745.719 150.156C745.141 150.156 744.596 150.057 744.086 149.859C743.576 149.661 743.128 149.375 742.742 149C742.362 148.625 742.06 148.169 741.836 147.633C741.617 147.096 741.508 146.492 741.508 145.82C741.508 145.206 741.604 144.633 741.797 144.102C741.995 143.57 742.268 143.109 742.617 142.719C742.971 142.328 743.393 142.023 743.883 141.805C744.372 141.581 744.914 141.469 745.508 141.469C746.06 141.469 746.573 141.57 747.047 141.773C747.521 141.971 747.932 142.253 748.281 142.617C748.63 142.977 748.904 143.409 749.102 143.914C749.299 144.419 749.398 144.977 749.398 145.586V146.562H743.75ZM745.5 143.344C745.036 143.344 744.643 143.5 744.32 143.812C744.003 144.12 743.818 144.492 743.766 144.93H747.141C747.13 144.487 746.969 144.112 746.656 143.805C746.344 143.497 745.958 143.344 745.5 143.344ZM755.477 143.727H755.25C754.943 143.727 754.648 143.758 754.367 143.82C754.091 143.883 753.846 143.997 753.633 144.164C753.419 144.326 753.247 144.549 753.117 144.836C752.992 145.122 752.93 145.49 752.93 145.938V150H750.773V141.633H752.93V142.578C753.018 142.438 753.133 142.302 753.273 142.172C753.414 142.042 753.578 141.927 753.766 141.828C753.953 141.724 754.164 141.641 754.398 141.578C754.633 141.516 754.885 141.484 755.156 141.484H755.477V143.727ZM758.594 150L756.031 141.633H758.438L759.938 147.391L761.477 141.633H763.844L761.297 150H758.594ZM767.07 150H764.914V141.633H767.07V150ZM764.688 139.438C764.688 139.26 764.721 139.094 764.789 138.938C764.857 138.776 764.948 138.638 765.062 138.523C765.182 138.404 765.32 138.31 765.477 138.242C765.633 138.174 765.802 138.141 765.984 138.141C766.161 138.141 766.328 138.174 766.484 138.242C766.646 138.31 766.784 138.404 766.898 138.523C767.018 138.638 767.112 138.776 767.18 138.938C767.247 139.094 767.281 139.26 767.281 139.438C767.281 139.62 767.247 139.789 767.18 139.945C767.112 140.102 767.018 140.24 766.898 140.359C766.784 140.474 766.646 140.565 766.484 140.633C766.328 140.701 766.161 140.734 765.984 140.734C765.802 140.734 765.633 140.701 765.477 140.633C765.32 140.565 765.182 140.474 765.062 140.359C764.948 140.24 764.857 140.102 764.789 139.945C764.721 139.789 764.688 139.62 764.688 139.438ZM770.719 145.859C770.719 146.13 770.755 146.404 770.828 146.68C770.901 146.951 771.013 147.195 771.164 147.414C771.315 147.633 771.508 147.812 771.742 147.953C771.982 148.089 772.266 148.156 772.594 148.156C772.807 148.156 773 148.128 773.172 148.07C773.349 148.013 773.505 147.935 773.641 147.836C773.781 147.732 773.904 147.612 774.008 147.477C774.117 147.336 774.211 147.185 774.289 147.023L776.18 148C776.044 148.328 775.857 148.625 775.617 148.891C775.383 149.156 775.109 149.383 774.797 149.57C774.484 149.758 774.138 149.901 773.758 150C773.378 150.104 772.974 150.156 772.547 150.156C771.958 150.156 771.417 150.047 770.922 149.828C770.427 149.604 770 149.299 769.641 148.914C769.281 148.529 769 148.073 768.797 147.547C768.594 147.016 768.492 146.44 768.492 145.82C768.492 145.206 768.594 144.633 768.797 144.102C769 143.57 769.281 143.109 769.641 142.719C770 142.328 770.427 142.023 770.922 141.805C771.417 141.581 771.958 141.469 772.547 141.469C772.974 141.469 773.378 141.521 773.758 141.625C774.138 141.724 774.484 141.87 774.797 142.062C775.109 142.25 775.383 142.477 775.617 142.742C775.857 143.008 776.044 143.305 776.18 143.633L774.289 144.609C774.211 144.448 774.117 144.299 774.008 144.164C773.904 144.023 773.781 143.904 773.641 143.805C773.505 143.701 773.349 143.62 773.172 143.562C773 143.5 772.807 143.469 772.594 143.469C772.266 143.469 771.982 143.539 771.742 143.68C771.508 143.815 771.315 143.995 771.164 144.219C771.013 144.438 770.901 144.685 770.828 144.961C770.755 145.237 770.719 145.513 770.719 145.789V145.859ZM779.312 146.562C779.349 146.812 779.427 147.042 779.547 147.25C779.672 147.458 779.828 147.638 780.016 147.789C780.203 147.935 780.419 148.049 780.664 148.133C780.909 148.216 781.169 148.258 781.445 148.258C781.763 148.258 782.107 148.198 782.477 148.078C782.846 147.953 783.185 147.773 783.492 147.539L784.531 149.055C784.141 149.383 783.661 149.648 783.094 149.852C782.526 150.055 781.922 150.156 781.281 150.156C780.703 150.156 780.159 150.057 779.648 149.859C779.138 149.661 778.69 149.375 778.305 149C777.924 148.625 777.622 148.169 777.398 147.633C777.18 147.096 777.07 146.492 777.07 145.82C777.07 145.206 777.167 144.633 777.359 144.102C777.557 143.57 777.831 143.109 778.18 142.719C778.534 142.328 778.956 142.023 779.445 141.805C779.935 141.581 780.477 141.469 781.07 141.469C781.622 141.469 782.135 141.57 782.609 141.773C783.083 141.971 783.495 142.253 783.844 142.617C784.193 142.977 784.466 143.409 784.664 143.914C784.862 144.419 784.961 144.977 784.961 145.586V146.562H779.312ZM781.062 143.344C780.599 143.344 780.206 143.5 779.883 143.812C779.565 144.12 779.38 144.492 779.328 144.93H782.703C782.693 144.487 782.531 144.112 782.219 143.805C781.906 143.497 781.521 143.344 781.062 143.344Z" fill="black"/>
<line x1="730.526" y1="167.229" x2="830.526" y2="167.229" stroke="#B1B4B6" stroke-width="4"/>
<line x1="730.526" y1="175.229" x2="830.526" y2="175.229" stroke="#B1B4B6" stroke-width="4"/>
<line x1="730.526" y1="183.229" x2="816.526" y2="183.229" stroke="#B1B4B6" stroke-width="4"/>
<path d="M888.685 112.418V215.582H720.315V112.418H888.685ZM890 111H719V217H890V111Z" fill="#0B0C0C"/>
<path d="M719 111H890.053V127.875H719V111Z" fill="#0B0C0C"/>
<path d="M730.381 195.957H793.341V205.883H730.381V195.957Z" fill="#00703C"/>
<path d="M730.381 205.883H793.341V207.206H730.381V205.883Z" fill="#0B0C0C"/>
<path d="M720 247H889V351H720V247Z" fill="white"/>
<path d="M732.922 281.852C733.068 282.018 733.245 282.182 733.453 282.344C733.661 282.505 733.891 282.651 734.141 282.781C734.396 282.906 734.672 283.008 734.969 283.086C735.266 283.159 735.586 283.195 735.93 283.195C736.57 283.195 737.06 283.062 737.398 282.797C737.742 282.526 737.914 282.198 737.914 281.812C737.914 281.411 737.763 281.107 737.461 280.898C737.164 280.69 736.69 280.526 736.039 280.406L735.688 280.344C735.219 280.26 734.753 280.151 734.289 280.016C733.826 279.88 733.406 279.685 733.031 279.43C732.656 279.174 732.352 278.849 732.117 278.453C731.883 278.052 731.766 277.547 731.766 276.938C731.766 276.583 731.844 276.214 732 275.828C732.156 275.438 732.404 275.081 732.742 274.758C733.086 274.43 733.526 274.161 734.062 273.953C734.604 273.745 735.258 273.641 736.023 273.641C736.93 273.641 737.737 273.792 738.445 274.094C739.159 274.391 739.734 274.784 740.172 275.273L738.664 276.68C738.357 276.341 737.961 276.076 737.477 275.883C736.997 275.69 736.503 275.594 735.992 275.594C735.404 275.594 734.943 275.706 734.609 275.93C734.281 276.154 734.117 276.445 734.117 276.805C734.117 277.039 734.169 277.234 734.273 277.391C734.383 277.547 734.534 277.677 734.727 277.781C734.919 277.88 735.151 277.964 735.422 278.031C735.693 278.099 735.995 278.167 736.328 278.234L736.508 278.266C736.956 278.349 737.401 278.456 737.844 278.586C738.286 278.711 738.688 278.898 739.047 279.148C739.411 279.393 739.706 279.716 739.93 280.117C740.154 280.513 740.266 281.021 740.266 281.641C740.266 282.203 740.148 282.701 739.914 283.133C739.68 283.565 739.37 283.935 738.984 284.242C738.599 284.544 738.154 284.773 737.648 284.93C737.143 285.081 736.617 285.156 736.07 285.156C735.518 285.156 735.005 285.109 734.531 285.016C734.062 284.922 733.635 284.789 733.25 284.617C732.87 284.445 732.529 284.253 732.227 284.039C731.93 283.826 731.669 283.596 731.445 283.352L732.922 281.852ZM743.75 281.562C743.786 281.812 743.865 282.042 743.984 282.25C744.109 282.458 744.266 282.638 744.453 282.789C744.641 282.935 744.857 283.049 745.102 283.133C745.346 283.216 745.607 283.258 745.883 283.258C746.201 283.258 746.544 283.198 746.914 283.078C747.284 282.953 747.622 282.773 747.93 282.539L748.969 284.055C748.578 284.383 748.099 284.648 747.531 284.852C746.964 285.055 746.359 285.156 745.719 285.156C745.141 285.156 744.596 285.057 744.086 284.859C743.576 284.661 743.128 284.375 742.742 284C742.362 283.625 742.06 283.169 741.836 282.633C741.617 282.096 741.508 281.492 741.508 280.82C741.508 280.206 741.604 279.633 741.797 279.102C741.995 278.57 742.268 278.109 742.617 277.719C742.971 277.328 743.393 277.023 743.883 276.805C744.372 276.581 744.914 276.469 745.508 276.469C746.06 276.469 746.573 276.57 747.047 276.773C747.521 276.971 747.932 277.253 748.281 277.617C748.63 277.977 748.904 278.409 749.102 278.914C749.299 279.419 749.398 279.977 749.398 280.586V281.562H743.75ZM745.5 278.344C745.036 278.344 744.643 278.5 744.32 278.812C744.003 279.12 743.818 279.492 743.766 279.93H747.141C747.13 279.487 746.969 279.112 746.656 278.805C746.344 278.497 745.958 278.344 745.5 278.344ZM755.477 278.727H755.25C754.943 278.727 754.648 278.758 754.367 278.82C754.091 278.883 753.846 278.997 753.633 279.164C753.419 279.326 753.247 279.549 753.117 279.836C752.992 280.122 752.93 280.49 752.93 280.938V285H750.773V276.633H752.93V277.578C753.018 277.438 753.133 277.302 753.273 277.172C753.414 277.042 753.578 276.927 753.766 276.828C753.953 276.724 754.164 276.641 754.398 276.578C754.633 276.516 754.885 276.484 755.156 276.484H755.477V278.727ZM758.594 285L756.031 276.633H758.438L759.938 282.391L761.477 276.633H763.844L761.297 285H758.594ZM767.07 285H764.914V276.633H767.07V285ZM764.688 274.438C764.688 274.26 764.721 274.094 764.789 273.938C764.857 273.776 764.948 273.638 765.062 273.523C765.182 273.404 765.32 273.31 765.477 273.242C765.633 273.174 765.802 273.141 765.984 273.141C766.161 273.141 766.328 273.174 766.484 273.242C766.646 273.31 766.784 273.404 766.898 273.523C767.018 273.638 767.112 273.776 767.18 273.938C767.247 274.094 767.281 274.26 767.281 274.438C767.281 274.62 767.247 274.789 767.18 274.945C767.112 275.102 767.018 275.24 766.898 275.359C766.784 275.474 766.646 275.565 766.484 275.633C766.328 275.701 766.161 275.734 765.984 275.734C765.802 275.734 765.633 275.701 765.477 275.633C765.32 275.565 765.182 275.474 765.062 275.359C764.948 275.24 764.857 275.102 764.789 274.945C764.721 274.789 764.688 274.62 764.688 274.438ZM770.719 280.859C770.719 281.13 770.755 281.404 770.828 281.68C770.901 281.951 771.013 282.195 771.164 282.414C771.315 282.633 771.508 282.812 771.742 282.953C771.982 283.089 772.266 283.156 772.594 283.156C772.807 283.156 773 283.128 773.172 283.07C773.349 283.013 773.505 282.935 773.641 282.836C773.781 282.732 773.904 282.612 774.008 282.477C774.117 282.336 774.211 282.185 774.289 282.023L776.18 283C776.044 283.328 775.857 283.625 775.617 283.891C775.383 284.156 775.109 284.383 774.797 284.57C774.484 284.758 774.138 284.901 773.758 285C773.378 285.104 772.974 285.156 772.547 285.156C771.958 285.156 771.417 285.047 770.922 284.828C770.427 284.604 770 284.299 769.641 283.914C769.281 283.529 769 283.073 768.797 282.547C768.594 282.016 768.492 281.44 768.492 280.82C768.492 280.206 768.594 279.633 768.797 279.102C769 278.57 769.281 278.109 769.641 277.719C770 277.328 770.427 277.023 770.922 276.805C771.417 276.581 771.958 276.469 772.547 276.469C772.974 276.469 773.378 276.521 773.758 276.625C774.138 276.724 774.484 276.87 774.797 277.062C775.109 277.25 775.383 277.477 775.617 277.742C775.857 278.008 776.044 278.305 776.18 278.633L774.289 279.609C774.211 279.448 774.117 279.299 774.008 279.164C773.904 279.023 773.781 278.904 773.641 278.805C773.505 278.701 773.349 278.62 773.172 278.562C773 278.5 772.807 278.469 772.594 278.469C772.266 278.469 771.982 278.539 771.742 278.68C771.508 278.815 771.315 278.995 771.164 279.219C771.013 279.438 770.901 279.685 770.828 279.961C770.755 280.237 770.719 280.513 770.719 280.789V280.859ZM779.312 281.562C779.349 281.812 779.427 282.042 779.547 282.25C779.672 282.458 779.828 282.638 780.016 282.789C780.203 282.935 780.419 283.049 780.664 283.133C780.909 283.216 781.169 283.258 781.445 283.258C781.763 283.258 782.107 283.198 782.477 283.078C782.846 282.953 783.185 282.773 783.492 282.539L784.531 284.055C784.141 284.383 783.661 284.648 783.094 284.852C782.526 285.055 781.922 285.156 781.281 285.156C780.703 285.156 780.159 285.057 779.648 284.859C779.138 284.661 778.69 284.375 778.305 284C777.924 283.625 777.622 283.169 777.398 282.633C777.18 282.096 777.07 281.492 777.07 280.82C777.07 280.206 777.167 279.633 777.359 279.102C777.557 278.57 777.831 278.109 778.18 277.719C778.534 277.328 778.956 277.023 779.445 276.805C779.935 276.581 780.477 276.469 781.07 276.469C781.622 276.469 782.135 276.57 782.609 276.773C783.083 276.971 783.495 277.253 783.844 277.617C784.193 277.977 784.466 278.409 784.664 278.914C784.862 279.419 784.961 279.977 784.961 280.586V281.562H779.312ZM781.062 278.344C780.599 278.344 780.206 278.5 779.883 278.812C779.565 279.12 779.38 279.492 779.328 279.93H782.703C782.693 279.487 782.531 279.112 782.219 278.805C781.906 278.497 781.521 278.344 781.062 278.344Z" fill="black"/>
<line x1="730.526" y1="302.229" x2="830.526" y2="302.229" stroke="#B1B4B6" stroke-width="4"/>
<line x1="730.526" y1="310.229" x2="830.526" y2="310.229" stroke="#B1B4B6" stroke-width="4"/>
<line x1="730.526" y1="318.229" x2="816.526" y2="318.229" stroke="#B1B4B6" stroke-width="4"/>
<path d="M888.685 247.418V350.582H720.315V247.418H888.685ZM890 246H719V352H890V246Z" fill="#0B0C0C"/>
<path d="M719 246H890.053V262.875H719V246Z" fill="#0B0C0C"/>
<path d="M730.381 330.957H793.341V340.883H730.381V330.957Z" fill="#00703C"/>
<path d="M730.381 340.883H793.341V342.206H730.381V340.883Z" fill="#0B0C0C"/>
<path d="M720 383H889V487H720V383Z" fill="white"/>
<path d="M732.922 417.852C733.068 418.018 733.245 418.182 733.453 418.344C733.661 418.505 733.891 418.651 734.141 418.781C734.396 418.906 734.672 419.008 734.969 419.086C735.266 419.159 735.586 419.195 735.93 419.195C736.57 419.195 737.06 419.062 737.398 418.797C737.742 418.526 737.914 418.198 737.914 417.812C737.914 417.411 737.763 417.107 737.461 416.898C737.164 416.69 736.69 416.526 736.039 416.406L735.688 416.344C735.219 416.26 734.753 416.151 734.289 416.016C733.826 415.88 733.406 415.685 733.031 415.43C732.656 415.174 732.352 414.849 732.117 414.453C731.883 414.052 731.766 413.547 731.766 412.938C731.766 412.583 731.844 412.214 732 411.828C732.156 411.438 732.404 411.081 732.742 410.758C733.086 410.43 733.526 410.161 734.062 409.953C734.604 409.745 735.258 409.641 736.023 409.641C736.93 409.641 737.737 409.792 738.445 410.094C739.159 410.391 739.734 410.784 740.172 411.273L738.664 412.68C738.357 412.341 737.961 412.076 737.477 411.883C736.997 411.69 736.503 411.594 735.992 411.594C735.404 411.594 734.943 411.706 734.609 411.93C734.281 412.154 734.117 412.445 734.117 412.805C734.117 413.039 734.169 413.234 734.273 413.391C734.383 413.547 734.534 413.677 734.727 413.781C734.919 413.88 735.151 413.964 735.422 414.031C735.693 414.099 735.995 414.167 736.328 414.234L736.508 414.266C736.956 414.349 737.401 414.456 737.844 414.586C738.286 414.711 738.688 414.898 739.047 415.148C739.411 415.393 739.706 415.716 739.93 416.117C740.154 416.513 740.266 417.021 740.266 417.641C740.266 418.203 740.148 418.701 739.914 419.133C739.68 419.565 739.37 419.935 738.984 420.242C738.599 420.544 738.154 420.773 737.648 420.93C737.143 421.081 736.617 421.156 736.07 421.156C735.518 421.156 735.005 421.109 734.531 421.016C734.062 420.922 733.635 420.789 733.25 420.617C732.87 420.445 732.529 420.253 732.227 420.039C731.93 419.826 731.669 419.596 731.445 419.352L732.922 417.852ZM743.75 417.562C743.786 417.812 743.865 418.042 743.984 418.25C744.109 418.458 744.266 418.638 744.453 418.789C744.641 418.935 744.857 419.049 745.102 419.133C745.346 419.216 745.607 419.258 745.883 419.258C746.201 419.258 746.544 419.198 746.914 419.078C747.284 418.953 747.622 418.773 747.93 418.539L748.969 420.055C748.578 420.383 748.099 420.648 747.531 420.852C746.964 421.055 746.359 421.156 745.719 421.156C745.141 421.156 744.596 421.057 744.086 420.859C743.576 420.661 743.128 420.375 742.742 420C742.362 419.625 742.06 419.169 741.836 418.633C741.617 418.096 741.508 417.492 741.508 416.82C741.508 416.206 741.604 415.633 741.797 415.102C741.995 414.57 742.268 414.109 742.617 413.719C742.971 413.328 743.393 413.023 743.883 412.805C744.372 412.581 744.914 412.469 745.508 412.469C746.06 412.469 746.573 412.57 747.047 412.773C747.521 412.971 747.932 413.253 748.281 413.617C748.63 413.977 748.904 414.409 749.102 414.914C749.299 415.419 749.398 415.977 749.398 416.586V417.562H743.75ZM745.5 414.344C745.036 414.344 744.643 414.5 744.32 414.812C744.003 415.12 743.818 415.492 743.766 415.93H747.141C747.13 415.487 746.969 415.112 746.656 414.805C746.344 414.497 745.958 414.344 745.5 414.344ZM755.477 414.727H755.25C754.943 414.727 754.648 414.758 754.367 414.82C754.091 414.883 753.846 414.997 753.633 415.164C753.419 415.326 753.247 415.549 753.117 415.836C752.992 416.122 752.93 416.49 752.93 416.938V421H750.773V412.633H752.93V413.578C753.018 413.438 753.133 413.302 753.273 413.172C753.414 413.042 753.578 412.927 753.766 412.828C753.953 412.724 754.164 412.641 754.398 412.578C754.633 412.516 754.885 412.484 755.156 412.484H755.477V414.727ZM758.594 421L756.031 412.633H758.438L759.938 418.391L761.477 412.633H763.844L761.297 421H758.594ZM767.07 421H764.914V412.633H767.07V421ZM764.688 410.438C764.688 410.26 764.721 410.094 764.789 409.938C764.857 409.776 764.948 409.638 765.062 409.523C765.182 409.404 765.32 409.31 765.477 409.242C765.633 409.174 765.802 409.141 765.984 409.141C766.161 409.141 766.328 409.174 766.484 409.242C766.646 409.31 766.784 409.404 766.898 409.523C767.018 409.638 767.112 409.776 767.18 409.938C767.247 410.094 767.281 410.26 767.281 410.438C767.281 410.62 767.247 410.789 767.18 410.945C767.112 411.102 767.018 411.24 766.898 411.359C766.784 411.474 766.646 411.565 766.484 411.633C766.328 411.701 766.161 411.734 765.984 411.734C765.802 411.734 765.633 411.701 765.477 411.633C765.32 411.565 765.182 411.474 765.062 411.359C764.948 411.24 764.857 411.102 764.789 410.945C764.721 410.789 764.688 410.62 764.688 410.438ZM770.719 416.859C770.719 417.13 770.755 417.404 770.828 417.68C770.901 417.951 771.013 418.195 771.164 418.414C771.315 418.633 771.508 418.812 771.742 418.953C771.982 419.089 772.266 419.156 772.594 419.156C772.807 419.156 773 419.128 773.172 419.07C773.349 419.013 773.505 418.935 773.641 418.836C773.781 418.732 773.904 418.612 774.008 418.477C774.117 418.336 774.211 418.185 774.289 418.023L776.18 419C776.044 419.328 775.857 419.625 775.617 419.891C775.383 420.156 775.109 420.383 774.797 420.57C774.484 420.758 774.138 420.901 773.758 421C773.378 421.104 772.974 421.156 772.547 421.156C771.958 421.156 771.417 421.047 770.922 420.828C770.427 420.604 770 420.299 769.641 419.914C769.281 419.529 769 419.073 768.797 418.547C768.594 418.016 768.492 417.44 768.492 416.82C768.492 416.206 768.594 415.633 768.797 415.102C769 414.57 769.281 414.109 769.641 413.719C770 413.328 770.427 413.023 770.922 412.805C771.417 412.581 771.958 412.469 772.547 412.469C772.974 412.469 773.378 412.521 773.758 412.625C774.138 412.724 774.484 412.87 774.797 413.062C775.109 413.25 775.383 413.477 775.617 413.742C775.857 414.008 776.044 414.305 776.18 414.633L774.289 415.609C774.211 415.448 774.117 415.299 774.008 415.164C773.904 415.023 773.781 414.904 773.641 414.805C773.505 414.701 773.349 414.62 773.172 414.562C773 414.5 772.807 414.469 772.594 414.469C772.266 414.469 771.982 414.539 771.742 414.68C771.508 414.815 771.315 414.995 771.164 415.219C771.013 415.438 770.901 415.685 770.828 415.961C770.755 416.237 770.719 416.513 770.719 416.789V416.859ZM779.312 417.562C779.349 417.812 779.427 418.042 779.547 418.25C779.672 418.458 779.828 418.638 780.016 418.789C780.203 418.935 780.419 419.049 780.664 419.133C780.909 419.216 781.169 419.258 781.445 419.258C781.763 419.258 782.107 419.198 782.477 419.078C782.846 418.953 783.185 418.773 783.492 418.539L784.531 420.055C784.141 420.383 783.661 420.648 783.094 420.852C782.526 421.055 781.922 421.156 781.281 421.156C780.703 421.156 780.159 421.057 779.648 420.859C779.138 420.661 778.69 420.375 778.305 420C777.924 419.625 777.622 419.169 777.398 418.633C777.18 418.096 777.07 417.492 777.07 416.82C777.07 416.206 777.167 415.633 777.359 415.102C777.557 414.57 777.831 414.109 778.18 413.719C778.534 413.328 778.956 413.023 779.445 412.805C779.935 412.581 780.477 412.469 781.07 412.469C781.622 412.469 782.135 412.57 782.609 412.773C783.083 412.971 783.495 413.253 783.844 413.617C784.193 413.977 784.466 414.409 784.664 414.914C784.862 415.419 784.961 415.977 784.961 416.586V417.562H779.312ZM781.062 414.344C780.599 414.344 780.206 414.5 779.883 414.812C779.565 415.12 779.38 415.492 779.328 415.93H782.703C782.693 415.487 782.531 415.112 782.219 414.805C781.906 414.497 781.521 414.344 781.062 414.344Z" fill="black"/>
<line x1="730.526" y1="438.229" x2="830.526" y2="438.229" stroke="#B1B4B6" stroke-width="4"/>
<line x1="730.526" y1="446.229" x2="830.526" y2="446.229" stroke="#B1B4B6" stroke-width="4"/>
<line x1="730.526" y1="454.229" x2="816.526" y2="454.229" stroke="#B1B4B6" stroke-width="4"/>
<path d="M888.685 383.418V486.582H720.315V383.418H888.685ZM890 382H719V488H890V382Z" fill="#0B0C0C"/>
<path d="M719 382H890.053V398.875H719V382Z" fill="#0B0C0C"/>
<path d="M730.381 466.957H793.341V476.883H730.381V466.957Z" fill="#00703C"/>
<path d="M730.381 476.883H793.341V478.206H730.381V476.883Z" fill="#0B0C0C"/>
<path d="M361 300L696 300" stroke="#505A5F" stroke-width="8"/>
<path d="M676.5 276L700.5 300L676.5 324" stroke="#505A5F" stroke-width="8"/>
<path d="M696 164L625 164L625 435.5L696 435.5" stroke="#505A5F" stroke-width="8"/>
<path d="M676.5 140L700.5 164L676.5 188" stroke="#505A5F" stroke-width="8"/>
<path d="M676.5 411L700.5 435L676.5 459" stroke="#505A5F" stroke-width="8"/>
<rect x="42" y="190" width="115.365" height="219.427" rx="6" fill="white" stroke="black" stroke-width="4"/>
<ellipse cx="100.016" cy="284.359" rx="22.0059" ry="21.6724" fill="#0B0C0C"/>
<path d="M148.696 353.377C148.696 376.58 123.218 395.389 100.016 395.389C76.8139 395.389 51.3364 376.58 51.3364 353.377C51.3364 330.175 76.8139 311.366 100.016 311.366C123.218 311.366 148.696 330.175 148.696 353.377Z" fill="#0B0C0C"/>
<path d="M40 340.041H159.365V395.389H40V340.041Z" fill="#F3F2F1"/>
<path d="M40 196C40 191.582 43.5817 188 48 188H151.365C155.783 188 159.365 191.582 159.365 196V212.485H40V196Z" fill="#0B0C0C"/>
<path d="M40 386.942H159.365V403.427C159.365 407.845 155.783 411.427 151.365 411.427H48C43.5817 411.427 40 407.845 40 403.427V386.942Z" fill="#0B0C0C"/>
<rect x="42" y="190" width="115.365" height="219.427" rx="6" stroke="black" stroke-width="4"/>
<path d="M82.1558 247.35H62.6724V266.419" stroke="#1D70B8" stroke-width="8"/>
<path d="M62.6724 302.967V322.036H82.1558" stroke="#1D70B8" stroke-width="8"/>
<path d="M117.875 247.35H137.359V266.419" stroke="#1D70B8" stroke-width="8"/>
<path d="M137.359 302.967V322.036H117.875" stroke="#1D70B8" stroke-width="8"/>
<circle cx="100.016" cy="364.714" r="14.6706" fill="#005A30"/>
<path fill-rule="evenodd" clip-rule="evenodd" d="M109.434 360.401L97.007 372.828L90.4106 366.232L93.0706 363.572L97.007 367.508L106.774 357.741L109.434 360.401Z" fill="white"/>
<path d="M183.582 197.344H306.24V228.456H183.582V197.344Z" fill="white" stroke="black" stroke-width="2"/>
<path d="M194.269 209.978H293.606V215.822H194.269V209.978Z" fill="#0B0C0C"/>
<path d="M183.582 242.143H306.24V273.255H183.582V242.143Z" fill="white" stroke="black" stroke-width="2"/>
<circle cx="199.138" cy="257.699" r="4.86946" fill="#0B0C0C"/>
<circle cx="226.407" cy="257.699" r="4.86946" fill="#0B0C0C"/>
<circle cx="267.311" cy="257.699" r="4.86946" fill="#0B0C0C"/>
<circle cx="253.676" cy="257.699" r="4.86946" fill="#0B0C0C"/>
<circle cx="240.042" cy="257.699" r="4.86946" fill="#0B0C0C"/>
<circle cx="212.773" cy="257.699" r="4.86946" fill="#0B0C0C"/>
<mask id="mask0_6706_80554" style="mask-type:alpha" maskUnits="userSpaceOnUse" x="447" y="249" width="100" height="100">
<circle cx="497" cy="299" r="50" fill="#D2E2F1"/>
</mask>
<g mask="url(#mask0_6706_80554)">
<circle cx="497" cy="299" r="50" fill="#D2E2F1" stroke="#DBD5E9"/>
<circle cx="497" cy="289" r="20" fill="#0B0C0C"/>
<circle cx="497" cy="352.75" r="38.75" fill="#0B0C0C"/>
</g>
<circle cx="497" cy="299" r="54" stroke="#DBD5E9" stroke-width="8"/>
<circle cx="497" cy="299" r="50" stroke="black" stroke-width="2"/>
<circle cx="454" cy="259" r="22" fill="#005A30"/>
<path fill-rule="evenodd" clip-rule="evenodd" d="M468.122 252.533L449.487 271.168L439.595 261.276L443.584 257.288L449.487 263.191L464.134 248.544L468.122 252.533Z" fill="white"/>
<rect x="183" y="307.427" width="161" height="101" rx="8" fill="#F7D7E6"/>
<path d="M235 332H298V334H235V332Z" fill="#0B0C0C"/>
<path d="M235 340H291V342H235V340Z" fill="#0B0C0C"/>
<path d="M235 348H291V350H235V348Z" fill="#0B0C0C"/>
<path d="M235 356H279V358H235V356Z" fill="#0B0C0C"/>
<path d="M235 364H279V366H235V364Z" fill="#0B0C0C"/>
<path d="M235 372H307V374H235V372Z" fill="#0B0C0C"/>
<path d="M235 380H298V382H235V380Z" fill="#0B0C0C"/>
<path d="M235 388H291V390H235V388Z" fill="#0B0C0C"/>
<path d="M183 316C183 311.582 186.582 308 191 308H336C340.418 308 344 311.582 344 316V320H183V316Z" fill="#003078"/>
<rect x="184" y="308.427" width="159" height="99" rx="7" stroke="black" stroke-width="2"/>
<mask id="mask1_6706_80554" style="mask-type:alpha" maskUnits="userSpaceOnUse" x="194" y="339" width="30" height="30">
<rect x="194" y="339" width="30" height="30" fill="white"/>
</mask>
<g mask="url(#mask1_6706_80554)">
<rect x="194" y="339" width="30" height="30" fill="white"/>
<circle cx="209" cy="350.5" r="6" fill="#0B0C0C"/>
<circle cx="209" cy="369.625" r="11.625" fill="#0B0C0C"/>
</g>
<path d="M311 339H335V356H311V339Z" fill="#003078"/>
</svg>
