<?xml version="1.0" encoding="UTF-8"?>
<svg xmlns="http://www.w3.org/2000/svg" xmlns:xlink="http://www.w3.org/1999/xlink" width="930" height="600" viewBox="0 0 930 600">
  <defs>
    <style>
      .cls-1 {
        clip-path: url(#clippath);
      }

      .cls-2, .cls-3, .cls-4, .cls-5, .cls-6, .cls-7, .cls-8 {
        fill: none;
      }

      .cls-2, .cls-9, .cls-10, .cls-11, .cls-12, .cls-13, .cls-14, .cls-15, .cls-16, .cls-17, .cls-18, .cls-19, .cls-20, .cls-21, .cls-22, .cls-23, .cls-24, .cls-25, .cls-26, .cls-27 {
        stroke-width: 0px;
      }

      .cls-3 {
        stroke-width: 1.72px;
      }

      .cls-3, .cls-4, .cls-5, .cls-7, .cls-8, .cls-28 {
        stroke: #1e1e1e;
      }

      .cls-29, .cls-28 {
        fill: #b0a5d2;
      }

      .cls-4, .cls-28 {
        stroke-width: 2px;
      }

      .cls-5 {
        stroke-width: 9.97px;
      }

      .cls-5, .cls-6, .cls-7 {
        stroke-miterlimit: 10;
      }

      .cls-30 {
        clip-path: url(#clippath-1);
      }

      .cls-9 {
        mix-blend-mode: multiply;
        opacity: .54;
      }

      .cls-9, .cls-17 {
        fill: #1e1e1e;
      }

      .cls-6 {
        stroke: #d5cfe3;
      }

      .cls-6, .cls-7 {
        stroke-width: 10px;
      }

      .cls-10 {
        fill-rule: evenodd;
      }

      .cls-10, .cls-22 {
        fill: #fff;
      }

      .cls-8 {
        stroke-width: 1.13px;
      }

      .cls-31 {
        isolation: isolate;
      }

      .cls-12 {
        fill: #289b91;
      }

      .cls-13 {
        fill: #383f43;
      }

      .cls-14 {
        fill: #0b0c0c;
      }

      .cls-15 {
        fill: #1d70b1;
      }

      .cls-16 {
        fill: #1d70b8;
      }

      .cls-18 {
        fill: #ce351c;
      }

      .cls-19 {
        fill: #c5c5c5;
      }

      .cls-20 {
        fill: #d5cfe3;
      }

      .cls-21 {
        fill: #ececec;
      }

      .cls-23 {
        fill: #e8e9e9;
      }

      .cls-24 {
        fill: #f0d0df;
      }

      .cls-25 {
        fill: #e6e6e6;
      }

      .cls-26 {
        fill: #003078;
      }

      .cls-27 {
        fill: #00703c;
      }
    </style>
    <clipPath id="clippath">
      <circle class="cls-28" cx="464.61" cy="307.96" r="50"/>
    </clipPath>
    <clipPath id="clippath-1">
      <rect class="cls-2" x="61.01" y="206.25" width="98.58" height="187.49" rx="5.13" ry="5.13"/>
    </clipPath>
  </defs>
  <g class="cls-31">
    <g id="Layer_2" data-name="Layer 2">
      <g id="Layer_1-2" data-name="Layer 1-2">
        <rect class="cls-20" width="947.36" height="600"/>
      </g>
      <g>
        <polyline class="cls-5" points="660.6 142.5 588.42 142.5 588.42 457.5 660.6 457.5"/>
        <polygon class="cls-17" points="640.74 125.59 657.65 142.5 640.74 159.41 655.09 159.41 672 142.5 655.09 125.59 640.74 125.59"/>
        <polygon class="cls-17" points="640.74 474.41 657.65 457.5 640.74 440.59 655.09 440.59 672 457.5 655.09 474.41 640.74 474.41"/>
      </g>
      <g>
        <line class="cls-7" x1="336.56" y1="300" x2="660.57" y2="300"/>
        <polygon class="cls-17" points="640.65 316.95 657.61 300 640.65 283.05 655.04 283.05 672 300 655.04 316.95 640.65 316.95"/>
      </g>
      <circle class="cls-6" cx="464.61" cy="300" r="50"/>
      <g>
        <g>
          <circle class="cls-29" cx="464.61" cy="307.96" r="50"/>
          <g class="cls-1">
            <g>
              <circle class="cls-17" cx="464.66" cy="293.15" r="20.54"/>
              <path class="cls-17" d="m464.66,318.38h0c18.14,0,32.86,14.73,32.86,32.86v8.22h-65.72v-8.22c0-18.14,14.73-32.86,32.86-32.86Z"/>
            </g>
          </g>
          <circle class="cls-4" cx="464.61" cy="307.96" r="50"/>
        </g>
        <g>
          <circle class="cls-27" cx="417.31" cy="266.04" r="24"/>
          <path class="cls-10" d="m432.72,258.98l-20.33,20.33-10.79-10.79,4.35-4.35,6.44,6.44,15.98-15.98,4.35,4.35Z"/>
        </g>
      </g>
      <g>
        <g>
          <path class="cls-22" d="m684.3,395.1h201.8v124.18h-201.8v-124.18Z"/>
          <rect class="cls-19" x="696.87" y="454.86" width="119.41" height="4.78"/>
          <rect class="cls-19" x="696.87" y="464.42" width="119.41" height="4.78"/>
          <rect class="cls-19" x="696.87" y="473.97" width="102.69" height="4.78"/>
          <path class="cls-18" d="m696.99,413.95h176v4h-176v-4Z"/>
          <path class="cls-14" d="m885.72,395.6v123.18h-201.04v-123.18h201.04Zm1.57-1.69h-204.18v126.57h204.18v-126.57Z"/>
          <path class="cls-17" d="m683.11,393.9h204.25v20.15h-204.25v-20.15Z"/>
          <path class="cls-27" d="m696.7,489.2h75.18v14.21h-75.18v-14.21Z"/>
          <path class="cls-14" d="m696.7,503.41h75.18v1.58h-75.18v-1.58Z"/>
          <g>
            <path class="cls-11" d="m699.19,436.72c.16.19.36.37.6.55s.49.34.78.49.59.26.93.34c.33.09.69.13,1.08.13.72,0,1.27-.15,1.66-.45.38-.3.58-.67.58-1.1s-.17-.79-.5-1.03c-.34-.23-.87-.42-1.6-.55l-.4-.07c-.53-.09-1.05-.22-1.57-.37s-.99-.37-1.42-.66-.76-.66-1.03-1.1c-.26-.45-.4-1.02-.4-1.7,0-.4.09-.82.26-1.25s.46-.84.84-1.21c.38-.37.88-.67,1.48-.9.61-.23,1.34-.35,2.2-.35,1.02,0,1.93.17,2.73.51.8.34,1.45.78,1.94,1.33l-1.7,1.58c-.35-.38-.79-.68-1.33-.9-.54-.22-1.1-.33-1.67-.33-.66,0-1.18.13-1.55.38s-.56.58-.56.98c0,.26.06.48.18.66.12.18.29.32.5.44.22.11.48.21.78.29s.64.15,1.02.23l.2.04c.5.09,1,.21,1.5.36.5.14.95.36,1.36.63.41.28.74.64.99,1.09.25.45.38,1.02.38,1.72,0,.63-.13,1.19-.4,1.68s-.61.9-1.05,1.24c-.43.34-.93.6-1.5.77-.57.17-1.16.26-1.78.26s-1.2-.05-1.73-.16-1.01-.25-1.44-.45c-.43-.19-.81-.41-1.15-.65-.34-.24-.63-.5-.88-.77l1.66-1.69Z"/>
            <path class="cls-11" d="m711.37,436.39c.04.28.13.54.27.78s.31.44.52.6c.21.17.46.3.73.39.28.09.57.14.88.14.36,0,.75-.07,1.16-.21s.8-.34,1.14-.6l1.17,1.7c-.44.37-.98.67-1.62.9s-1.32.34-2.04.34c-.65,0-1.26-.11-1.84-.33s-1.08-.54-1.51-.97c-.43-.42-.77-.93-1.02-1.54s-.37-1.28-.37-2.04c0-.69.11-1.34.33-1.93s.53-1.12.92-1.56c.4-.44.87-.78,1.42-1.03.55-.25,1.16-.37,1.83-.37.62,0,1.2.11,1.73.34.53.23,1,.54,1.39.95.39.41.7.9.92,1.46.22.57.33,1.2.33,1.88v1.1h-6.36Zm1.97-3.62c-.52,0-.96.17-1.32.52-.36.35-.57.77-.63,1.26h3.8c-.01-.5-.19-.92-.54-1.27s-.79-.52-1.3-.52Z"/>
            <path class="cls-11" d="m724.56,433.2h-.25c-.35,0-.68.04-.99.11-.31.07-.59.2-.83.38-.24.19-.43.44-.58.76-.14.32-.22.74-.22,1.24v4.57h-2.43v-9.41h2.43v1.06c.1-.16.23-.31.39-.46s.34-.28.55-.39c.21-.12.45-.21.71-.28s.55-.11.85-.11h.36v2.52Z"/>
            <path class="cls-11" d="m728.07,440.26l-2.88-9.41h2.71l1.69,6.48,1.73-6.48h2.66l-2.87,9.41h-3.04Z"/>
            <path class="cls-11" d="m734.93,428.38c0-.2.04-.39.11-.57s.18-.33.31-.47c.13-.13.29-.24.46-.31s.37-.11.57-.11.39.04.57.11.33.18.47.31c.13.13.24.29.31.47s.11.37.11.57-.04.4-.11.57-.18.33-.31.46c-.13.13-.29.24-.47.31s-.37.11-.57.11-.4-.04-.57-.11-.33-.18-.46-.31c-.13-.13-.24-.29-.31-.46s-.11-.37-.11-.57Zm2.68,11.88h-2.43v-9.41h2.43v9.41Z"/>
            <path class="cls-11" d="m741.71,435.6c0,.3.04.61.12.92.08.31.21.58.38.83s.39.45.66.6c.27.16.58.23.95.23.24,0,.46-.03.65-.1s.37-.15.53-.27c.16-.11.29-.25.41-.4.12-.15.22-.32.31-.5l2.13,1.1c-.15.37-.36.7-.63,1-.27.3-.58.55-.93.76s-.74.37-1.17.49c-.43.12-.88.17-1.36.17-.66,0-1.27-.12-1.83-.37-.56-.25-1.04-.59-1.44-1.02s-.72-.95-.95-1.54-.34-1.24-.34-1.94.11-1.34.34-1.93.54-1.12.95-1.56.88-.78,1.44-1.03c.56-.25,1.17-.37,1.83-.37.48,0,.93.06,1.36.17.43.11.82.28,1.17.49s.66.47.93.77c.27.3.48.63.63,1l-2.13,1.1c-.09-.18-.19-.35-.31-.51-.12-.15-.26-.29-.41-.4-.16-.11-.33-.2-.53-.27s-.41-.1-.65-.1c-.37,0-.69.08-.95.23-.27.16-.49.36-.66.61s-.3.53-.38.84-.12.62-.12.93v.08Z"/>
            <path class="cls-11" d="m751.38,436.39c.04.28.13.54.27.78s.31.44.52.6c.21.17.46.3.73.39.28.09.57.14.88.14.36,0,.75-.07,1.16-.21s.8-.34,1.14-.6l1.17,1.7c-.44.37-.98.67-1.62.9s-1.32.34-2.04.34c-.65,0-1.26-.11-1.84-.33s-1.08-.54-1.51-.97c-.43-.42-.77-.93-1.02-1.54s-.37-1.28-.37-2.04c0-.69.11-1.34.33-1.93s.53-1.12.92-1.56c.4-.44.87-.78,1.42-1.03.55-.25,1.16-.37,1.83-.37.62,0,1.2.11,1.73.34.53.23,1,.54,1.39.95.39.41.7.9.92,1.46.22.57.33,1.2.33,1.88v1.1h-6.36Zm1.97-3.62c-.52,0-.96.17-1.32.52-.36.35-.57.77-.63,1.26h3.8c-.01-.5-.19-.92-.54-1.27s-.79-.52-1.3-.52Z"/>
          </g>
        </g>
        <g>
          <path class="cls-22" d="m684.3,238.1h201.8v124.18h-201.8v-124.18Z"/>
          <rect class="cls-19" x="696.87" y="297.86" width="119.41" height="4.78"/>
          <rect class="cls-19" x="696.87" y="307.42" width="119.41" height="4.78"/>
          <rect class="cls-19" x="696.87" y="316.97" width="102.69" height="4.78"/>
          <path class="cls-12" d="m696.99,256.95h176v4h-176v-4Z"/>
          <path class="cls-14" d="m885.72,238.6v123.18h-201.04v-123.18h201.04Zm1.57-1.69h-204.18v126.57h204.18v-126.57Z"/>
          <path class="cls-17" d="m683.11,236.9h204.25v20.15h-204.25v-20.15Z"/>
          <path class="cls-27" d="m696.7,332.2h75.18v14.21h-75.18v-14.21Z"/>
          <path class="cls-14" d="m696.7,346.41h75.18v1.58h-75.18v-1.58Z"/>
          <g>
            <path class="cls-11" d="m699.19,279.72c.16.19.36.37.6.55s.49.34.78.49.59.26.93.34c.33.09.69.13,1.08.13.72,0,1.27-.15,1.66-.45.38-.3.58-.67.58-1.1s-.17-.79-.5-1.03c-.34-.23-.87-.42-1.6-.55l-.4-.07c-.53-.09-1.05-.22-1.57-.37s-.99-.37-1.42-.66-.76-.66-1.03-1.1c-.26-.45-.4-1.02-.4-1.7,0-.4.09-.82.26-1.25s.46-.84.84-1.21c.38-.37.88-.67,1.48-.9.61-.23,1.34-.35,2.2-.35,1.02,0,1.93.17,2.73.51.8.34,1.45.78,1.94,1.33l-1.7,1.58c-.35-.38-.79-.68-1.33-.9-.54-.22-1.1-.33-1.67-.33-.66,0-1.18.13-1.55.38s-.56.58-.56.98c0,.26.06.48.18.66.12.18.29.32.5.44.22.11.48.21.78.29s.64.15,1.02.23l.2.04c.5.09,1,.21,1.5.36.5.14.95.36,1.36.63.41.28.74.64.99,1.09.25.45.38,1.02.38,1.72,0,.63-.13,1.19-.4,1.68s-.61.9-1.05,1.24c-.43.34-.93.6-1.5.77-.57.17-1.16.26-1.78.26s-1.2-.05-1.73-.16-1.01-.25-1.44-.45c-.43-.19-.81-.41-1.15-.65-.34-.24-.63-.5-.88-.77l1.66-1.69Z"/>
            <path class="cls-11" d="m711.37,279.39c.04.28.13.54.27.78s.31.44.52.6c.21.17.46.3.73.39.28.09.57.14.88.14.36,0,.75-.07,1.16-.21s.8-.34,1.14-.6l1.17,1.7c-.44.37-.98.67-1.62.9s-1.32.34-2.04.34c-.65,0-1.26-.11-1.84-.33s-1.08-.54-1.51-.97c-.43-.42-.77-.93-1.02-1.54s-.37-1.28-.37-2.04c0-.69.11-1.34.33-1.93s.53-1.12.92-1.56c.4-.44.87-.78,1.42-1.03.55-.25,1.16-.37,1.83-.37.62,0,1.2.11,1.73.34.53.23,1,.54,1.39.95.39.41.7.9.92,1.46.22.57.33,1.2.33,1.88v1.1h-6.36Zm1.97-3.62c-.52,0-.96.17-1.32.52-.36.35-.57.77-.63,1.26h3.8c-.01-.5-.19-.92-.54-1.27s-.79-.52-1.3-.52Z"/>
            <path class="cls-11" d="m724.56,276.2h-.25c-.35,0-.68.04-.99.11-.31.07-.59.2-.83.38-.24.19-.43.44-.58.76-.14.32-.22.74-.22,1.24v4.57h-2.43v-9.41h2.43v1.06c.1-.16.23-.31.39-.46s.34-.28.55-.39c.21-.12.45-.21.71-.28s.55-.11.85-.11h.36v2.52Z"/>
            <path class="cls-11" d="m728.07,283.26l-2.88-9.41h2.71l1.69,6.48,1.73-6.48h2.66l-2.87,9.41h-3.04Z"/>
            <path class="cls-11" d="m734.93,271.38c0-.2.04-.39.11-.57s.18-.33.31-.47c.13-.13.29-.24.46-.31s.37-.11.57-.11.39.04.57.11.33.18.47.31c.13.13.24.29.31.47s.11.37.11.57-.04.4-.11.57-.18.33-.31.46c-.13.13-.29.24-.47.31s-.37.11-.57.11-.4-.04-.57-.11-.33-.18-.46-.31c-.13-.13-.24-.29-.31-.46s-.11-.37-.11-.57Zm2.68,11.88h-2.43v-9.41h2.43v9.41Z"/>
            <path class="cls-11" d="m741.71,278.6c0,.3.04.61.12.92.08.31.21.58.38.83s.39.45.66.6c.27.16.58.23.95.23.24,0,.46-.03.65-.1s.37-.15.53-.27c.16-.11.29-.25.41-.4.12-.15.22-.32.31-.5l2.13,1.1c-.15.37-.36.7-.63,1-.27.3-.58.55-.93.76s-.74.37-1.17.49c-.43.12-.88.17-1.36.17-.66,0-1.27-.12-1.83-.37-.56-.25-1.04-.59-1.44-1.02s-.72-.95-.95-1.54-.34-1.24-.34-1.94.11-1.34.34-1.93.54-1.12.95-1.56.88-.78,1.44-1.03c.56-.25,1.17-.37,1.83-.37.48,0,.93.06,1.36.17.43.11.82.28,1.17.49s.66.47.93.77c.27.3.48.63.63,1l-2.13,1.1c-.09-.18-.19-.35-.31-.51-.12-.15-.26-.29-.41-.4-.16-.11-.33-.2-.53-.27s-.41-.1-.65-.1c-.37,0-.69.08-.95.23-.27.16-.49.36-.66.61s-.3.53-.38.84-.12.62-.12.93v.08Z"/>
            <path class="cls-11" d="m751.38,279.39c.04.28.13.54.27.78s.31.44.52.6c.21.17.46.3.73.39.28.09.57.14.88.14.36,0,.75-.07,1.16-.21s.8-.34,1.14-.6l1.17,1.7c-.44.37-.98.67-1.62.9s-1.32.34-2.04.34c-.65,0-1.26-.11-1.84-.33s-1.08-.54-1.51-.97c-.43-.42-.77-.93-1.02-1.54s-.37-1.28-.37-2.04c0-.69.11-1.34.33-1.93s.53-1.12.92-1.56c.4-.44.87-.78,1.42-1.03.55-.25,1.16-.37,1.83-.37.62,0,1.2.11,1.73.34.53.23,1,.54,1.39.95.39.41.7.9.92,1.46.22.57.33,1.2.33,1.88v1.1h-6.36Zm1.97-3.62c-.52,0-.96.17-1.32.52-.36.35-.57.77-.63,1.26h3.8c-.01-.5-.19-.92-.54-1.27s-.79-.52-1.3-.52Z"/>
          </g>
        </g>
        <g>
          <path class="cls-22" d="m684.42,80.72h201.8v124.18h-201.8v-124.18Z"/>
          <rect class="cls-19" x="696.99" y="140.49" width="119.41" height="4.78"/>
          <rect class="cls-19" x="696.99" y="150.04" width="119.41" height="4.78"/>
          <rect class="cls-19" x="696.99" y="159.59" width="102.69" height="4.78"/>
          <path class="cls-16" d="m697.11,99.57h176v4h-176v-4Z"/>
          <path class="cls-14" d="m885.84,81.22v123.18h-201.04v-123.18h201.04Zm1.57-1.69h-204.18v126.57h204.18v-126.57Z"/>
          <path class="cls-17" d="m683.23,79.53h204.25v20.15h-204.25v-20.15Z"/>
          <path class="cls-27" d="m696.82,174.83h75.18v14.21h-75.18v-14.21Z"/>
          <path class="cls-14" d="m696.82,189.03h75.18v1.58h-75.18v-1.58Z"/>
          <g>
            <path class="cls-11" d="m699.31,122.34c.16.19.36.37.6.55s.49.34.78.49.59.26.93.34c.33.09.69.13,1.08.13.72,0,1.27-.15,1.66-.45.38-.3.58-.67.58-1.1s-.17-.79-.5-1.03c-.34-.23-.87-.42-1.6-.55l-.4-.07c-.53-.09-1.05-.22-1.57-.37s-.99-.37-1.42-.66-.76-.66-1.03-1.1c-.26-.45-.4-1.02-.4-1.7,0-.4.09-.82.26-1.25s.46-.84.84-1.21c.38-.37.88-.67,1.48-.9.61-.23,1.34-.35,2.2-.35,1.02,0,1.93.17,2.73.51.8.34,1.45.78,1.94,1.33l-1.7,1.58c-.35-.38-.79-.68-1.33-.9-.54-.22-1.1-.33-1.67-.33-.66,0-1.18.13-1.55.38s-.56.58-.56.98c0,.26.06.48.18.66.12.18.29.32.5.44.22.11.48.21.78.29s.64.15,1.02.23l.2.04c.5.09,1,.21,1.5.36.5.14.95.36,1.36.63.41.28.74.64.99,1.09.25.45.38,1.02.38,1.72,0,.63-.13,1.19-.4,1.68s-.61.9-1.05,1.24c-.43.34-.93.6-1.5.77-.57.17-1.16.26-1.78.26s-1.2-.05-1.73-.16-1.01-.25-1.44-.45c-.43-.19-.81-.41-1.15-.65-.34-.24-.63-.5-.88-.77l1.66-1.69Z"/>
            <path class="cls-11" d="m711.49,122.02c.04.28.13.54.27.78s.31.44.52.6c.21.17.46.3.73.39.28.09.57.14.88.14.36,0,.75-.07,1.16-.21s.8-.34,1.14-.6l1.17,1.7c-.44.37-.98.67-1.62.9s-1.32.34-2.04.34c-.65,0-1.26-.11-1.84-.33s-1.08-.54-1.51-.97c-.43-.42-.77-.93-1.02-1.54s-.37-1.28-.37-2.04c0-.69.11-1.34.33-1.93s.53-1.12.92-1.56c.4-.44.87-.78,1.42-1.03.55-.25,1.16-.37,1.83-.37.62,0,1.2.11,1.73.34.53.23,1,.54,1.39.95.39.41.7.9.92,1.46.22.57.33,1.2.33,1.88v1.1h-6.36Zm1.97-3.62c-.52,0-.96.17-1.32.52-.36.35-.57.77-.63,1.26h3.8c-.01-.5-.19-.92-.54-1.27s-.79-.52-1.3-.52Z"/>
            <path class="cls-11" d="m724.68,118.83h-.25c-.35,0-.68.04-.99.11-.31.07-.59.2-.83.38-.24.19-.43.44-.58.76-.14.32-.22.74-.22,1.24v4.57h-2.43v-9.41h2.43v1.06c.1-.16.23-.31.39-.46s.34-.28.55-.39c.21-.12.45-.21.71-.28s.55-.11.85-.11h.36v2.52Z"/>
            <path class="cls-11" d="m728.19,125.88l-2.88-9.41h2.71l1.69,6.48,1.73-6.48h2.66l-2.87,9.41h-3.04Z"/>
            <path class="cls-11" d="m735.04,114c0-.2.04-.39.11-.57s.18-.33.31-.47c.13-.13.29-.24.46-.31s.37-.11.57-.11.39.04.57.11.33.18.47.31c.13.13.24.29.31.47s.11.37.11.57-.04.4-.11.57-.18.33-.31.46c-.13.13-.29.24-.47.31s-.37.11-.57.11-.4-.04-.57-.11-.33-.18-.46-.31c-.13-.13-.24-.29-.31-.46s-.11-.37-.11-.57Zm2.68,11.88h-2.43v-9.41h2.43v9.41Z"/>
            <path class="cls-11" d="m741.83,121.23c0,.3.04.61.12.92.08.31.21.58.38.83s.39.45.66.6c.27.16.58.23.95.23.24,0,.46-.03.65-.1s.37-.15.53-.27c.16-.11.29-.25.41-.4.12-.15.22-.32.31-.5l2.13,1.1c-.15.37-.36.7-.63,1-.27.3-.58.55-.93.76s-.74.37-1.17.49c-.43.12-.88.17-1.36.17-.66,0-1.27-.12-1.83-.37-.56-.25-1.04-.59-1.44-1.02s-.72-.95-.95-1.54-.34-1.24-.34-1.94.11-1.34.34-1.93.54-1.12.95-1.56.88-.78,1.44-1.03c.56-.25,1.17-.37,1.83-.37.48,0,.93.06,1.36.17.43.11.82.28,1.17.49s.66.47.93.77c.27.3.48.63.63,1l-2.13,1.1c-.09-.18-.19-.35-.31-.51-.12-.15-.26-.29-.41-.4-.16-.11-.33-.2-.53-.27s-.41-.1-.65-.1c-.37,0-.69.08-.95.23-.27.16-.49.36-.66.61s-.3.53-.38.84-.12.62-.12.93v.08Z"/>
            <path class="cls-11" d="m751.5,122.02c.04.28.13.54.27.78s.31.44.52.6c.21.17.46.3.73.39.28.09.57.14.88.14.36,0,.75-.07,1.16-.21s.8-.34,1.14-.6l1.17,1.7c-.44.37-.98.67-1.62.9s-1.32.34-2.04.34c-.65,0-1.26-.11-1.84-.33s-1.08-.54-1.51-.97c-.43-.42-.77-.93-1.02-1.54s-.37-1.28-.37-2.04c0-.69.11-1.34.33-1.93s.53-1.12.92-1.56c.4-.44.87-.78,1.42-1.03.55-.25,1.16-.37,1.83-.37.62,0,1.2.11,1.73.34.53.23,1,.54,1.39.95.39.41.7.9.92,1.46.22.57.33,1.2.33,1.88v1.1h-6.36Zm1.97-3.62c-.52,0-.96.17-1.32.52-.36.35-.57.77-.63,1.26h3.8c-.01-.5-.19-.92-.54-1.27s-.79-.52-1.3-.52Z"/>
          </g>
        </g>
      </g>
      <g>
        <g>
          <rect class="cls-17" x="61.01" y="206.25" width="98.58" height="187.49" rx="5.13" ry="5.13"/>
          <rect class="cls-8" x="61.01" y="206.25" width="98.58" height="187.49" rx="5.13" ry="5.13"/>
          <path class="cls-25" d="m154.46,206.25c2.83,0,5.13,2.3,5.13,5.13v177.24c0,2.83-2.3,5.13-5.13,5.13h-88.32c-2.83,0-5.13-2.3-5.13-5.13v-177.24c0-2.83,2.3-5.13,5.13-5.13h88.32m0-1.13h-88.32c-3.45,0-6.26,2.81-6.26,6.26v177.24c0,3.45,2.81,6.26,6.26,6.26h88.32c3.45,0,6.26-2.81,6.26-6.26v-177.24c0-3.45-2.81-6.26-6.26-6.26h0Z"/>
        </g>
        <g class="cls-30">
          <rect class="cls-22" x="58.37" y="224.9" width="104.26" height="109.93"/>
          <g>
            <circle class="cls-17" cx="110.22" cy="271.36" r="19.83"/>
            <path class="cls-17" d="m110.22,295.73h0c17.51,0,31.73,14.22,31.73,31.73v7.93h-63.46v-7.93c0-17.51,14.22-31.73,31.73-31.73Z"/>
          </g>
          <g>
            <polygon class="cls-15" points="78.77 256.06 73.11 256.06 73.11 235.1 94.07 235.1 94.07 240.76 78.77 240.76 78.77 256.06"/>
            <polygon class="cls-15" points="147.42 256.09 141.75 256.09 141.75 240.79 126.45 240.79 126.45 235.12 147.42 235.12 147.42 256.09"/>
            <polygon class="cls-15" points="94.11 309.93 73.15 309.93 73.15 288.96 78.81 288.96 78.81 304.26 94.11 304.26 94.11 309.93"/>
            <polygon class="cls-15" points="147.46 309.9 126.49 309.9 126.49 304.24 141.79 304.24 141.79 288.94 147.46 288.94 147.46 309.9"/>
          </g>
          <rect class="cls-23" x="58.37" y="334.82" width="104.26" height="40.23"/>
          <g>
            <circle class="cls-27" cx="129.57" cy="354.94" r="12.54"/>
            <path class="cls-10" d="m137.62,351.25l-10.62,10.62-5.64-5.64,2.27-2.27,3.36,3.36,8.35-8.35,2.27,2.27Z"/>
          </g>
          <g>
            <circle class="cls-13" cx="91.13" cy="354.94" r="12.54"/>
            <polygon class="cls-22" points="93.54 354.95 97.64 359.05 95.24 361.45 91.14 357.35 87.02 361.45 84.62 359.05 88.73 354.95 84.62 350.83 87.02 348.43 91.14 352.54 95.24 348.43 97.64 350.83 93.54 354.95"/>
          </g>
          <path class="cls-11" d="m154.46,207.39c2.2,0,3.99,1.79,3.99,3.99v177.24c0,2.2-1.79,3.99-3.99,3.99h-88.32c-2.2,0-3.99-1.79-3.99-3.99v-177.24c0-2.2,1.79-3.99,3.99-3.99h88.32m0-1.13h-88.32c-2.83,0-5.13,2.3-5.13,5.13v177.24c0,2.83,2.3,5.13,5.13,5.13h88.32c2.83,0,5.13-2.3,5.13-5.13v-177.24c0-2.83-2.3-5.13-5.13-5.13h0Z"/>
        </g>
      </g>
      <g>
        <g>
          <g>
            <rect class="cls-22" x="185.67" y="209.27" width="110.01" height="29.06"/>
            <path class="cls-21" d="m294.91,210.04v27.51h-108.47v-27.51h108.47m1.54-1.54h-111.55v30.6h111.55v-30.6h0Z"/>
            <rect class="cls-3" x="186.44" y="210.04" width="108.47" height="27.51"/>
          </g>
          <path class="cls-17" d="m195.89,221.22h87.84v5.17h-87.84v-5.17Z"/>
          <g>
            <rect class="cls-22" x="185.67" y="248.89" width="110.01" height="29.06"/>
            <path class="cls-21" d="m294.91,249.66v27.51h-108.47v-27.51h108.47m1.54-1.54h-111.55v30.6h111.55v-30.6h0Z"/>
            <rect class="cls-3" x="186.44" y="249.66" width="108.47" height="27.51"/>
          </g>
          <circle class="cls-17" cx="200.2" cy="263.42" r="4.31"/>
          <circle class="cls-17" cx="224.31" cy="263.42" r="4.31"/>
          <circle class="cls-17" cx="260.49" cy="263.42" r="4.31"/>
          <circle class="cls-17" cx="248.43" cy="263.42" r="4.31"/>
          <circle class="cls-17" cx="236.37" cy="263.42" r="4.31"/>
          <circle class="cls-17" cx="212.26" cy="263.42" r="4.31"/>
        </g>
        <g>
          <g>
            <path class="cls-24" d="m190.95,303.98h127.69c3.03,0,5.5,2.46,5.5,5.5v76.11c0,3.03-2.46,5.5-5.5,5.5h-127.69c-3.03,0-5.5-2.46-5.5-5.5v-76.11c0-3.03,2.46-5.5,5.5-5.5Z"/>
            <path class="cls-17" d="m318.65,304.4c2.8,0,5.07,2.27,5.07,5.07v76.11c0,2.8-2.27,5.07-5.07,5.07h-127.69c-2.8,0-5.07-2.27-5.07-5.07v-76.11c0-2.8,2.27-5.07,5.07-5.07h127.69m0-.85h-127.69c-3.26,0-5.92,2.66-5.92,5.92v76.11c0,3.26,2.66,5.92,5.92,5.92h127.69c3.26,0,5.92-2.66,5.92-5.92v-76.11c0-3.26-2.66-5.92-5.92-5.92h0Z"/>
          </g>
          <path class="cls-26" d="m191.53,304.4h126.53c3.12,0,5.65,2.53,5.65,5.65v12.11h-137.84v-12.11c0-3.12,2.53-5.65,5.65-5.65Z"/>
          <g>
            <circle class="cls-17" cx="207.8" cy="339.83" r="7.52"/>
            <path class="cls-17" d="m207.8,349.06h0c6.64,0,12.03,5.39,12.03,12.03v3.01h-24.07v-3.01c0-6.64,5.39-12.03,12.03-12.03Z"/>
          </g>
          <path class="cls-9" d="m228.64,332.82h34.19v17.04h-34.19v-17.04Z"/>
          <path class="cls-9" d="m228.56,355.66h62.18v17.04h-62.18v-17.04Z"/>
        </g>
      </g>
    </g>
  </g>
</svg>
