<?xml version="1.0" encoding="utf-8"?>
<!-- Generator: Adobe Illustrator 28.2.0, SVG Export Plug-In . SVG Version: 6.00 Build 0)  -->
<svg version="1.1" id="Layer_1" xmlns="http://www.w3.org/2000/svg" xmlns:xlink="http://www.w3.org/1999/xlink" x="0px" y="0px"
	 viewBox="0 0 290 337" style="enable-background:new 0 0 290 337;" xml:space="preserve">
<style type="text/css">
	.st0{fill:#FFFFFF;}
	.st1{fill:#0B0C0C;}
	.st2{fill:#B1B4B6;}
	.st3{fill:#1D70B8;}
	.st4{fill:none;stroke:#000000;stroke-width:5;}
	.st5{fill-rule:evenodd;clip-rule:evenodd;fill:#FFFFFF;}
</style>
<rect x="2.5" y="2.5" class="st0" width="285" height="332"/>
<rect y="0" width="290" height="60"/>
<path class="st0" d="M51,16.4c0,0.6,0.1,1.1,0.2,1.6c0.1,0.5,0.4,1,0.6,1.4c0.3,0.4,0.7,0.7,1.1,1c0.5,0.2,1,0.4,1.6,0.4
	c0.6,0,1.1-0.1,1.5-0.3c0.4-0.2,0.7-0.4,1-0.7c0.2-0.3,0.4-0.6,0.5-0.9c0.1-0.3,0.1-0.6,0.1-0.9v-0.1h-3.4v-2.1h6V23h-2.4v-1.6
	c-0.2,0.3-0.4,0.5-0.6,0.7c-0.2,0.2-0.5,0.4-0.8,0.5c-0.3,0.1-0.6,0.3-1,0.4c-0.4,0.1-0.8,0.1-1.2,0.1c-1,0-1.8-0.2-2.6-0.5
	c-0.8-0.4-1.4-0.8-1.9-1.5c-0.5-0.6-0.9-1.3-1.2-2.2c-0.3-0.8-0.4-1.7-0.4-2.7c0-1,0.1-1.8,0.4-2.7c0.3-0.8,0.7-1.6,1.3-2.2
	c0.6-0.6,1.2-1.1,2-1.5c0.8-0.4,1.7-0.5,2.6-0.5c0.6,0,1.2,0.1,1.8,0.2c0.6,0.1,1.1,0.3,1.5,0.6c0.5,0.3,0.9,0.6,1.2,1
	c0.4,0.4,0.6,0.8,0.9,1.3l-2.4,1.3c-0.1-0.3-0.3-0.5-0.5-0.8c-0.2-0.2-0.4-0.5-0.7-0.6c-0.2-0.2-0.5-0.3-0.9-0.4
	c-0.3-0.1-0.7-0.2-1.1-0.2c-0.6,0-1.2,0.1-1.6,0.4c-0.5,0.2-0.8,0.6-1.1,1c-0.3,0.4-0.5,0.9-0.6,1.4C51.1,15.2,51,15.7,51,16.4
	L51,16.4z M68.4,9.5c1,0,1.9,0.2,2.7,0.5c0.8,0.4,1.5,0.8,2,1.5c0.6,0.6,1,1.3,1.3,2.2c0.3,0.8,0.4,1.7,0.4,2.7c0,1-0.1,1.9-0.4,2.7
	c-0.3,0.8-0.7,1.6-1.3,2.2c-0.5,0.6-1.2,1.1-2,1.5c-0.8,0.4-1.7,0.5-2.7,0.5c-1,0-1.9-0.2-2.7-0.5c-0.8-0.4-1.4-0.8-2-1.5
	c-0.5-0.6-1-1.3-1.3-2.2c-0.3-0.8-0.4-1.7-0.4-2.7c0-1,0.1-1.8,0.4-2.7c0.3-0.8,0.7-1.6,1.3-2.2c0.6-0.6,1.2-1.1,2-1.5
	C66.5,9.7,67.4,9.5,68.4,9.5z M68.4,20.8c0.6,0,1.1-0.1,1.5-0.3c0.4-0.2,0.8-0.5,1.1-0.9c0.3-0.4,0.5-0.9,0.7-1.4
	c0.2-0.5,0.2-1.1,0.2-1.7v-0.1c0-0.6-0.1-1.2-0.2-1.7c-0.2-0.5-0.4-1-0.7-1.4c-0.3-0.4-0.7-0.7-1.1-0.9c-0.4-0.2-0.9-0.3-1.5-0.3
	c-0.6,0-1.1,0.1-1.5,0.3c-0.4,0.2-0.8,0.5-1.1,0.9c-0.3,0.4-0.5,0.9-0.7,1.4c-0.2,0.5-0.2,1.1-0.2,1.7v0.1c0,0.6,0.1,1.2,0.2,1.7
	c0.2,0.5,0.4,1,0.7,1.4c0.3,0.4,0.7,0.7,1.1,0.9C67.3,20.6,67.8,20.8,68.4,20.8z M79.5,23L75.7,9.7h3l2.6,10h0.1l2.5-10h3L83.1,23
	H79.5z M87.3,21.5c0-0.2,0-0.4,0.1-0.6c0.1-0.2,0.2-0.4,0.4-0.5c0.2-0.2,0.3-0.3,0.5-0.4c0.2-0.1,0.4-0.1,0.7-0.1
	c0.2,0,0.4,0,0.6,0.1c0.2,0.1,0.4,0.2,0.5,0.4c0.2,0.1,0.3,0.3,0.4,0.5c0.1,0.2,0.1,0.4,0.1,0.6c0,0.2,0,0.5-0.1,0.7
	c-0.1,0.2-0.2,0.4-0.4,0.5c-0.2,0.2-0.3,0.3-0.5,0.4c-0.2,0.1-0.4,0.1-0.6,0.1c-0.2,0-0.4,0-0.7-0.1c-0.2-0.1-0.4-0.2-0.5-0.4
	c-0.2-0.2-0.3-0.3-0.4-0.5C87.3,22,87.3,21.7,87.3,21.5z M98.2,20.8c0.4,0,0.8-0.1,1.1-0.2c0.3-0.1,0.6-0.3,0.9-0.5
	c0.2-0.2,0.4-0.5,0.6-0.9c0.1-0.4,0.2-0.8,0.2-1.3V9.7h2.7v8.6c0,0.7-0.1,1.4-0.4,2c-0.3,0.6-0.6,1.1-1.1,1.5c-0.5,0.4-1,0.7-1.7,1
	c-0.7,0.2-1.4,0.3-2.2,0.3s-1.5-0.1-2.2-0.3c-0.7-0.2-1.2-0.6-1.7-1c-0.5-0.4-0.9-0.9-1.1-1.5c-0.3-0.6-0.4-1.3-0.4-2V9.7h2.7v8.2
	c0,0.5,0.1,0.9,0.2,1.3c0.1,0.4,0.3,0.6,0.6,0.9c0.2,0.2,0.5,0.4,0.9,0.5C97.5,20.7,97.8,20.8,98.2,20.8z M106.3,9.7h2.7v5.8
	l4.8-5.8h3.3l-4.6,5.3l4.9,8h-3.1l-3.5-6L109,19v4h-2.7V9.7z"/>
<path class="st0" d="M16.9,46.9c0.1,0.2,0.3,0.3,0.5,0.5c0.2,0.2,0.4,0.3,0.7,0.4c0.3,0.1,0.5,0.2,0.8,0.3c0.3,0.1,0.6,0.1,1,0.1
	c0.6,0,1.1-0.1,1.5-0.4c0.3-0.3,0.5-0.6,0.5-1c0-0.4-0.2-0.7-0.5-0.9c-0.3-0.2-0.8-0.4-1.4-0.5l-0.4-0.1c-0.5-0.1-0.9-0.2-1.4-0.3
	c-0.5-0.1-0.9-0.3-1.3-0.6s-0.7-0.6-0.9-1c-0.2-0.4-0.4-0.9-0.4-1.5c0-0.4,0.1-0.7,0.2-1.1c0.2-0.4,0.4-0.7,0.7-1.1
	c0.3-0.3,0.8-0.6,1.3-0.8c0.5-0.2,1.2-0.3,2-0.3c0.9,0,1.7,0.2,2.4,0.5c0.7,0.3,1.3,0.7,1.7,1.2l-1.5,1.4c-0.3-0.3-0.7-0.6-1.2-0.8
	c-0.5-0.2-1-0.3-1.5-0.3c-0.6,0-1,0.1-1.4,0.3c-0.3,0.2-0.5,0.5-0.5,0.9c0,0.2,0.1,0.4,0.2,0.6c0.1,0.2,0.3,0.3,0.5,0.4
	c0.2,0.1,0.4,0.2,0.7,0.2c0.3,0.1,0.6,0.1,0.9,0.2l0.2,0c0.4,0.1,0.9,0.2,1.3,0.3c0.4,0.1,0.8,0.3,1.2,0.6c0.4,0.2,0.7,0.6,0.9,1
	c0.2,0.4,0.3,0.9,0.3,1.5c0,0.6-0.1,1.1-0.4,1.5c-0.2,0.4-0.5,0.8-0.9,1.1c-0.4,0.3-0.8,0.5-1.3,0.7c-0.5,0.2-1,0.2-1.6,0.2
	c-0.6,0-1.1,0-1.5-0.1c-0.5-0.1-0.9-0.2-1.3-0.4c-0.4-0.2-0.7-0.4-1-0.6c-0.3-0.2-0.6-0.4-0.8-0.7L16.9,46.9z M27.8,46.6
	c0,0.2,0.1,0.5,0.2,0.7c0.1,0.2,0.3,0.4,0.5,0.5c0.2,0.1,0.4,0.3,0.6,0.3c0.2,0.1,0.5,0.1,0.8,0.1c0.3,0,0.7-0.1,1-0.2
	c0.4-0.1,0.7-0.3,1-0.5l1,1.5c-0.4,0.3-0.9,0.6-1.4,0.8c-0.6,0.2-1.2,0.3-1.8,0.3c-0.6,0-1.1-0.1-1.6-0.3c-0.5-0.2-1-0.5-1.3-0.9
	c-0.4-0.4-0.7-0.8-0.9-1.4c-0.2-0.5-0.3-1.1-0.3-1.8c0-0.6,0.1-1.2,0.3-1.7c0.2-0.5,0.5-1,0.8-1.4c0.4-0.4,0.8-0.7,1.3-0.9
	c0.5-0.2,1-0.3,1.6-0.3c0.6,0,1.1,0.1,1.5,0.3c0.5,0.2,0.9,0.5,1.2,0.8c0.3,0.4,0.6,0.8,0.8,1.3c0.2,0.5,0.3,1.1,0.3,1.7v1H27.8z
	 M29.5,43.3c-0.5,0-0.9,0.2-1.2,0.5c-0.3,0.3-0.5,0.7-0.6,1.1h3.4c0-0.4-0.2-0.8-0.5-1.1C30.3,43.5,30,43.3,29.5,43.3z M39.5,43.7
	h-0.2c-0.3,0-0.6,0-0.9,0.1c-0.3,0.1-0.5,0.2-0.7,0.3c-0.2,0.2-0.4,0.4-0.5,0.7c-0.1,0.3-0.2,0.7-0.2,1.1V50h-2.2v-8.4h2.2v0.9
	c0.1-0.1,0.2-0.3,0.3-0.4c0.1-0.1,0.3-0.2,0.5-0.3c0.2-0.1,0.4-0.2,0.6-0.2c0.2-0.1,0.5-0.1,0.8-0.1h0.3V43.7z M42.6,50L40,41.6h2.4
	l1.5,5.8l1.5-5.8h2.4L45.3,50H42.6z M51.1,50h-2.2v-8.4h2.2V50z M48.7,39.4c0-0.2,0-0.3,0.1-0.5c0.1-0.2,0.2-0.3,0.3-0.4
	c0.1-0.1,0.3-0.2,0.4-0.3c0.2-0.1,0.3-0.1,0.5-0.1c0.2,0,0.3,0,0.5,0.1c0.2,0.1,0.3,0.2,0.4,0.3c0.1,0.1,0.2,0.3,0.3,0.4
	c0.1,0.2,0.1,0.3,0.1,0.5c0,0.2,0,0.4-0.1,0.5c-0.1,0.2-0.2,0.3-0.3,0.4c-0.1,0.1-0.3,0.2-0.4,0.3c-0.2,0.1-0.3,0.1-0.5,0.1
	c-0.2,0-0.4,0-0.5-0.1c-0.2-0.1-0.3-0.2-0.4-0.3c-0.1-0.1-0.2-0.3-0.3-0.4C48.7,39.8,48.7,39.6,48.7,39.4z M54.7,45.9
	c0,0.3,0,0.5,0.1,0.8c0.1,0.3,0.2,0.5,0.3,0.7c0.2,0.2,0.3,0.4,0.6,0.5c0.2,0.1,0.5,0.2,0.9,0.2c0.2,0,0.4,0,0.6-0.1
	c0.2-0.1,0.3-0.1,0.5-0.2c0.1-0.1,0.3-0.2,0.4-0.4c0.1-0.1,0.2-0.3,0.3-0.5l1.9,1c-0.1,0.3-0.3,0.6-0.6,0.9
	c-0.2,0.3-0.5,0.5-0.8,0.7s-0.7,0.3-1,0.4c-0.4,0.1-0.8,0.2-1.2,0.2c-0.6,0-1.1-0.1-1.6-0.3c-0.5-0.2-0.9-0.5-1.3-0.9
	c-0.4-0.4-0.6-0.8-0.8-1.4c-0.2-0.5-0.3-1.1-0.3-1.7c0-0.6,0.1-1.2,0.3-1.7c0.2-0.5,0.5-1,0.8-1.4c0.4-0.4,0.8-0.7,1.3-0.9
	c0.5-0.2,1-0.3,1.6-0.3c0.4,0,0.8,0.1,1.2,0.2c0.4,0.1,0.7,0.2,1,0.4c0.3,0.2,0.6,0.4,0.8,0.7c0.2,0.3,0.4,0.6,0.6,0.9l-1.9,1
	c-0.1-0.2-0.2-0.3-0.3-0.4c-0.1-0.1-0.2-0.3-0.4-0.4c-0.1-0.1-0.3-0.2-0.5-0.2c-0.2-0.1-0.4-0.1-0.6-0.1c-0.3,0-0.6,0.1-0.9,0.2
	c-0.2,0.1-0.4,0.3-0.6,0.5c-0.2,0.2-0.3,0.5-0.3,0.7C54.8,45.2,54.7,45.5,54.7,45.9L54.7,45.9z M63.3,46.6c0,0.2,0.1,0.5,0.2,0.7
	c0.1,0.2,0.3,0.4,0.5,0.5c0.2,0.1,0.4,0.3,0.6,0.3c0.2,0.1,0.5,0.1,0.8,0.1c0.3,0,0.7-0.1,1-0.2c0.4-0.1,0.7-0.3,1-0.5l1,1.5
	c-0.4,0.3-0.9,0.6-1.4,0.8c-0.6,0.2-1.2,0.3-1.8,0.3c-0.6,0-1.1-0.1-1.6-0.3c-0.5-0.2-1-0.5-1.3-0.9c-0.4-0.4-0.7-0.8-0.9-1.4
	c-0.2-0.5-0.3-1.1-0.3-1.8c0-0.6,0.1-1.2,0.3-1.7c0.2-0.5,0.5-1,0.8-1.4c0.4-0.4,0.8-0.7,1.3-0.9c0.5-0.2,1-0.3,1.6-0.3
	c0.6,0,1.1,0.1,1.5,0.3c0.5,0.2,0.9,0.5,1.2,0.8c0.3,0.4,0.6,0.8,0.8,1.3c0.2,0.5,0.3,1.1,0.3,1.7v1H63.3z M65.1,43.3
	c-0.5,0-0.9,0.2-1.2,0.5c-0.3,0.3-0.5,0.7-0.6,1.1h3.4c0-0.4-0.2-0.8-0.5-1.1C65.9,43.5,65.5,43.3,65.1,43.3z M73.2,41.6h2.2v0.7
	c0.1-0.1,0.2-0.2,0.4-0.3c0.1-0.1,0.3-0.2,0.5-0.3c0.2-0.1,0.4-0.1,0.6-0.2c0.2-0.1,0.4-0.1,0.7-0.1c0.5,0,0.9,0.1,1.2,0.2
	c0.4,0.1,0.7,0.3,0.9,0.6c0.2,0.3,0.4,0.6,0.6,0.9c0.1,0.3,0.2,0.7,0.2,1.1V50h-2.2v-4.9c0-0.3,0-0.5-0.1-0.8
	c-0.1-0.2-0.2-0.4-0.3-0.5c-0.1-0.1-0.3-0.2-0.4-0.3c-0.2-0.1-0.3-0.1-0.5-0.1c-0.2,0-0.4,0-0.6,0.1c-0.2,0.1-0.4,0.2-0.5,0.4
	c-0.1,0.2-0.2,0.4-0.3,0.6c-0.1,0.2-0.1,0.5-0.1,0.8V50h-2.2V41.6z M84.9,46.6c-0.3,0-0.5,0.1-0.6,0.3C84.1,47,84,47.2,84,47.5
	c0,0.3,0.1,0.5,0.3,0.7c0.2,0.2,0.5,0.3,0.9,0.3c0.4,0,0.7-0.1,1-0.4c0.2-0.2,0.4-0.5,0.4-0.9v-0.8L84.9,46.6z M86.9,49.2
	c-0.1,0.1-0.2,0.2-0.3,0.3c-0.1,0.1-0.3,0.2-0.5,0.3c-0.2,0.1-0.4,0.2-0.6,0.2c-0.2,0.1-0.5,0.1-0.8,0.1c-0.4,0-0.8-0.1-1.2-0.2
	c-0.3-0.1-0.7-0.3-0.9-0.6c-0.3-0.2-0.5-0.5-0.6-0.8c-0.2-0.3-0.2-0.7-0.2-1c0-0.7,0.2-1.2,0.6-1.6c0.4-0.4,1-0.7,1.7-0.8l2.4-0.4
	v-0.2c0-0.4-0.1-0.7-0.3-0.9c-0.2-0.2-0.6-0.3-1.1-0.3c-0.2,0-0.4,0-0.6,0.1c-0.2,0-0.4,0.1-0.6,0.2c-0.2,0.1-0.4,0.1-0.6,0.2
	C83,43.9,82.9,44,82.8,44l-0.8-1.6c0.5-0.3,1-0.5,1.6-0.7c0.6-0.2,1.2-0.3,1.8-0.3c0.4,0,0.8,0,1.2,0.1c0.4,0.1,0.8,0.2,1.1,0.4
	c0.3,0.2,0.6,0.5,0.8,0.9c0.2,0.4,0.3,0.8,0.3,1.4v3.4c0,0.2,0.1,0.4,0.2,0.5c0.1,0.1,0.3,0.2,0.5,0.3l-1,1.5c-0.4,0-0.7-0.1-1-0.3
	C87.2,49.7,87,49.5,86.9,49.2z M97.5,50h-2.2v-4.9c0-0.3,0-0.5-0.1-0.8c-0.1-0.2-0.2-0.4-0.3-0.5c-0.1-0.1-0.2-0.2-0.4-0.3
	c-0.2-0.1-0.3-0.1-0.5-0.1c-0.2,0-0.4,0-0.6,0.1c-0.2,0.1-0.3,0.2-0.5,0.3c-0.1,0.2-0.2,0.4-0.3,0.6c-0.1,0.2-0.1,0.5-0.1,0.9V50
	h-2.2v-8.4h2.2v0.7c0.3-0.3,0.6-0.5,1-0.7c0.4-0.1,0.8-0.2,1.2-0.2c0.4,0,0.8,0.1,1.2,0.3c0.4,0.2,0.7,0.5,0.9,0.9
	c0.1-0.2,0.3-0.4,0.5-0.5c0.2-0.1,0.4-0.3,0.6-0.4c0.2-0.1,0.4-0.2,0.7-0.2c0.2,0,0.5-0.1,0.7-0.1c0.5,0,0.9,0.1,1.3,0.2
	c0.4,0.2,0.7,0.4,0.9,0.6c0.3,0.3,0.5,0.6,0.6,0.9c0.1,0.3,0.2,0.7,0.2,1.1V50h-2.2v-4.9c0-0.3,0-0.5-0.1-0.8
	c-0.1-0.2-0.2-0.4-0.3-0.5c-0.1-0.1-0.2-0.2-0.4-0.3c-0.2-0.1-0.3-0.1-0.5-0.1c-0.2,0-0.4,0-0.6,0.1c-0.2,0.1-0.3,0.2-0.5,0.3
	c-0.1,0.2-0.2,0.4-0.3,0.6c-0.1,0.2-0.1,0.5-0.1,0.9V50z M106,46.6c0,0.2,0.1,0.5,0.2,0.7c0.1,0.2,0.3,0.4,0.5,0.5
	c0.2,0.1,0.4,0.3,0.6,0.3c0.2,0.1,0.5,0.1,0.8,0.1c0.3,0,0.7-0.1,1-0.2c0.4-0.1,0.7-0.3,1-0.5l1,1.5c-0.4,0.3-0.9,0.6-1.4,0.8
	c-0.6,0.2-1.2,0.3-1.8,0.3c-0.6,0-1.1-0.1-1.6-0.3c-0.5-0.2-1-0.5-1.3-0.9c-0.4-0.4-0.7-0.8-0.9-1.4c-0.2-0.5-0.3-1.1-0.3-1.8
	c0-0.6,0.1-1.2,0.3-1.7c0.2-0.5,0.5-1,0.8-1.4c0.4-0.4,0.8-0.7,1.3-0.9c0.5-0.2,1-0.3,1.6-0.3c0.6,0,1.1,0.1,1.5,0.3
	c0.5,0.2,0.9,0.5,1.2,0.8c0.3,0.4,0.6,0.8,0.8,1.3c0.2,0.5,0.3,1.1,0.3,1.7v1H106z M107.8,43.3c-0.5,0-0.9,0.2-1.2,0.5
	c-0.3,0.3-0.5,0.7-0.6,1.1h3.4c0-0.4-0.2-0.8-0.5-1.1C108.6,43.5,108.3,43.3,107.8,43.3z"/>
<path class="st1" d="M23.8,100.7c0.3,0.3,0.6,0.7,1.1,1c0.4,0.3,0.9,0.6,1.4,0.9c0.5,0.2,1.1,0.5,1.7,0.6c0.6,0.1,1.2,0.2,1.9,0.2
	c1.3,0,2.3-0.3,2.9-0.8c0.7-0.5,1-1.2,1-2c0-0.8-0.3-1.4-0.9-1.8c-0.6-0.4-1.5-0.7-2.8-1l-0.7-0.1c-0.9-0.2-1.9-0.4-2.8-0.7
	c-0.9-0.3-1.8-0.7-2.5-1.2s-1.4-1.2-1.8-2c-0.5-0.8-0.7-1.8-0.7-3c0-0.7,0.2-1.4,0.5-2.2c0.3-0.8,0.8-1.5,1.5-2.1
	c0.7-0.7,1.6-1.2,2.6-1.6c1.1-0.4,2.4-0.6,3.9-0.6c1.8,0,3.4,0.3,4.8,0.9c1.4,0.6,2.6,1.4,3.5,2.4l-3,2.8c-0.6-0.7-1.4-1.2-2.4-1.6
	c-1-0.4-1.9-0.6-3-0.6c-1.2,0-2.1,0.2-2.8,0.7c-0.7,0.4-1,1-1,1.8c0,0.5,0.1,0.9,0.3,1.2c0.2,0.3,0.5,0.6,0.9,0.8
	c0.4,0.2,0.8,0.4,1.4,0.5c0.5,0.1,1.1,0.3,1.8,0.4l0.4,0.1c0.9,0.2,1.8,0.4,2.7,0.6c0.9,0.2,1.7,0.6,2.4,1.1
	c0.7,0.5,1.3,1.1,1.8,1.9c0.4,0.8,0.7,1.8,0.7,3c0,1.1-0.2,2.1-0.7,3c-0.5,0.9-1.1,1.6-1.9,2.2c-0.8,0.6-1.7,1.1-2.7,1.4
	c-1,0.3-2.1,0.5-3.2,0.5c-1.1,0-2.1-0.1-3.1-0.3c-0.9-0.2-1.8-0.5-2.6-0.8c-0.8-0.3-1.4-0.7-2-1.2c-0.6-0.4-1.1-0.9-1.6-1.4
	L23.8,100.7z M45.5,100.1c0.1,0.5,0.2,1,0.5,1.4c0.2,0.4,0.6,0.8,0.9,1.1c0.4,0.3,0.8,0.5,1.3,0.7c0.5,0.2,1,0.2,1.6,0.2
	c0.6,0,1.3-0.1,2.1-0.4c0.7-0.2,1.4-0.6,2-1.1l2.1,3c-0.8,0.7-1.7,1.2-2.9,1.6c-1.1,0.4-2.3,0.6-3.6,0.6c-1.2,0-2.2-0.2-3.3-0.6
	c-1-0.4-1.9-1-2.7-1.7c-0.8-0.8-1.4-1.7-1.8-2.7c-0.4-1.1-0.7-2.3-0.7-3.6c0-1.2,0.2-2.4,0.6-3.4c0.4-1.1,0.9-2,1.6-2.8
	c0.7-0.8,1.6-1.4,2.5-1.8c1-0.4,2.1-0.7,3.2-0.7c1.1,0,2.1,0.2,3.1,0.6c0.9,0.4,1.8,1,2.5,1.7c0.7,0.7,1.2,1.6,1.6,2.6
	c0.4,1,0.6,2.1,0.6,3.3v2H45.5z M49,93.7c-0.9,0-1.7,0.3-2.4,0.9c-0.6,0.6-1,1.4-1.1,2.2h6.8c0-0.9-0.3-1.6-1-2.2S49.9,93.7,49,93.7
	z M69,94.5h-0.5c-0.6,0-1.2,0.1-1.8,0.2c-0.6,0.1-1,0.4-1.5,0.7c-0.4,0.3-0.8,0.8-1,1.3c-0.2,0.6-0.4,1.3-0.4,2.2v8.1h-4.3V90.3h4.3
	v1.9c0.2-0.3,0.4-0.6,0.7-0.8c0.3-0.3,0.6-0.5,1-0.7c0.4-0.2,0.8-0.4,1.3-0.5c0.5-0.1,1-0.2,1.5-0.2H69V94.5z M75.2,107l-5.1-16.7
	h4.8l3,11.5L81,90.3h4.7L80.6,107H75.2z M92.1,107h-4.3V90.3h4.3V107z M87.4,85.9c0-0.4,0.1-0.7,0.2-1c0.1-0.3,0.3-0.6,0.5-0.8
	c0.2-0.2,0.5-0.4,0.8-0.6s0.7-0.2,1-0.2c0.4,0,0.7,0.1,1,0.2c0.3,0.1,0.6,0.3,0.8,0.6c0.2,0.2,0.4,0.5,0.6,0.8
	c0.1,0.3,0.2,0.6,0.2,1c0,0.4-0.1,0.7-0.2,1s-0.3,0.6-0.6,0.8c-0.2,0.2-0.5,0.4-0.8,0.5c-0.3,0.1-0.6,0.2-1,0.2
	c-0.4,0-0.7-0.1-1-0.2s-0.6-0.3-0.8-0.5c-0.2-0.2-0.4-0.5-0.5-0.8S87.4,86.2,87.4,85.9z M99.4,98.7c0,0.5,0.1,1.1,0.2,1.6
	c0.1,0.5,0.4,1,0.7,1.5c0.3,0.4,0.7,0.8,1.2,1.1c0.5,0.3,1,0.4,1.7,0.4c0.4,0,0.8-0.1,1.2-0.2c0.4-0.1,0.7-0.3,0.9-0.5
	c0.3-0.2,0.5-0.4,0.7-0.7c0.2-0.3,0.4-0.6,0.6-0.9l3.8,2c-0.3,0.7-0.6,1.2-1.1,1.8c-0.5,0.5-1,1-1.6,1.4s-1.3,0.7-2.1,0.9
	c-0.8,0.2-1.6,0.3-2.4,0.3c-1.2,0-2.3-0.2-3.3-0.7c-1-0.4-1.8-1.1-2.6-1.8c-0.7-0.8-1.3-1.7-1.7-2.7c-0.4-1.1-0.6-2.2-0.6-3.5
	c0-1.2,0.2-2.4,0.6-3.4c0.4-1.1,1-2,1.7-2.8c0.7-0.8,1.6-1.4,2.6-1.8c1-0.4,2.1-0.7,3.3-0.7c0.9,0,1.7,0.1,2.4,0.3
	c0.8,0.2,1.5,0.5,2.1,0.9c0.6,0.4,1.2,0.8,1.6,1.4c0.5,0.5,0.9,1.1,1.1,1.8l-3.8,2c-0.2-0.3-0.3-0.6-0.6-0.9
	c-0.2-0.3-0.5-0.5-0.7-0.7c-0.3-0.2-0.6-0.4-0.9-0.5c-0.3-0.1-0.7-0.2-1.2-0.2c-0.7,0-1.2,0.1-1.7,0.4c-0.5,0.3-0.9,0.6-1.2,1.1
	c-0.3,0.4-0.5,0.9-0.7,1.5c-0.1,0.6-0.2,1.1-0.2,1.7V98.7z M116.6,100.1c0.1,0.5,0.2,1,0.5,1.4c0.2,0.4,0.6,0.8,0.9,1.1
	c0.4,0.3,0.8,0.5,1.3,0.7c0.5,0.2,1,0.2,1.6,0.2c0.6,0,1.3-0.1,2.1-0.4c0.7-0.2,1.4-0.6,2-1.1l2.1,3c-0.8,0.7-1.7,1.2-2.9,1.6
	c-1.1,0.4-2.3,0.6-3.6,0.6c-1.2,0-2.2-0.2-3.3-0.6c-1-0.4-1.9-1-2.7-1.7c-0.8-0.8-1.4-1.7-1.8-2.7c-0.4-1.1-0.7-2.3-0.7-3.6
	c0-1.2,0.2-2.4,0.6-3.4c0.4-1.1,0.9-2,1.6-2.8c0.7-0.8,1.6-1.4,2.5-1.8c1-0.4,2.1-0.7,3.2-0.7c1.1,0,2.1,0.2,3.1,0.6
	c0.9,0.4,1.8,1,2.5,1.7c0.7,0.7,1.2,1.6,1.6,2.6c0.4,1,0.6,2.1,0.6,3.3v2H116.6z M120.1,93.7c-0.9,0-1.7,0.3-2.4,0.9
	c-0.6,0.6-1,1.4-1.1,2.2h6.8c0-0.9-0.3-1.6-1-2.2C121.8,94,121,93.7,120.1,93.7z M136.5,84.6h4.3v7.1c0.2-0.2,0.5-0.4,0.8-0.7
	c0.3-0.2,0.6-0.4,1-0.6c0.3-0.2,0.7-0.3,1.1-0.4c0.4-0.1,0.9-0.2,1.4-0.2c0.9,0,1.7,0.2,2.4,0.5c0.7,0.3,1.3,0.7,1.8,1.2
	c0.5,0.5,0.9,1.1,1.1,1.8c0.3,0.7,0.4,1.5,0.4,2.3V107h-4.3v-9.7c0-0.6-0.1-1.1-0.2-1.5c-0.1-0.4-0.3-0.8-0.6-1
	c-0.2-0.3-0.5-0.4-0.8-0.6c-0.3-0.1-0.7-0.2-1-0.2c-0.4,0-0.8,0.1-1.2,0.2c-0.4,0.2-0.7,0.4-1,0.7c-0.3,0.3-0.5,0.7-0.7,1.2
	c-0.2,0.5-0.2,1-0.2,1.7v9.2h-4.3V84.6z M161.8,89.9c1.2,0,2.4,0.2,3.4,0.7c1,0.4,1.9,1,2.6,1.8s1.3,1.7,1.7,2.8
	c0.4,1.1,0.6,2.2,0.6,3.4c0,1.2-0.2,2.4-0.6,3.5c-0.4,1.1-1,2-1.7,2.7c-0.7,0.8-1.6,1.4-2.6,1.8c-1,0.4-2.1,0.7-3.4,0.7
	c-1.2,0-2.4-0.2-3.4-0.7c-1-0.4-1.9-1.1-2.6-1.8c-0.7-0.8-1.3-1.7-1.7-2.7c-0.4-1.1-0.6-2.2-0.6-3.5c0-1.2,0.2-2.4,0.6-3.4
	c0.4-1.1,1-2,1.7-2.8c0.7-0.8,1.6-1.4,2.6-1.8C159.4,90.2,160.5,89.9,161.8,89.9z M161.8,103.3c0.6,0,1.2-0.1,1.6-0.3
	c0.5-0.2,0.9-0.5,1.2-1c0.3-0.4,0.6-0.9,0.7-1.5c0.2-0.6,0.2-1.2,0.2-1.9v-0.1c0-0.7-0.1-1.3-0.2-1.9c-0.2-0.6-0.4-1.1-0.7-1.5
	c-0.3-0.4-0.7-0.7-1.2-1c-0.5-0.2-1-0.3-1.6-0.3c-0.6,0-1.2,0.1-1.6,0.3c-0.5,0.2-0.9,0.6-1.2,1c-0.3,0.4-0.6,0.9-0.7,1.5
	c-0.2,0.6-0.2,1.2-0.2,1.9v0.1c0,0.7,0.1,1.3,0.2,1.9c0.2,0.6,0.4,1,0.7,1.5c0.3,0.4,0.7,0.7,1.2,1
	C160.6,103.2,161.2,103.3,161.8,103.3z M187,107h-4.3v-9.7c0-0.6-0.1-1.1-0.2-1.5c-0.1-0.4-0.3-0.8-0.5-1c-0.2-0.3-0.5-0.4-0.8-0.5
	c-0.3-0.1-0.6-0.2-1-0.2c-0.4,0-0.8,0.1-1.2,0.2c-0.4,0.1-0.7,0.4-0.9,0.7c-0.3,0.3-0.5,0.7-0.6,1.2c-0.1,0.5-0.2,1.1-0.2,1.7v9.1
	h-4.3V90.3h4.3v1.5c0.6-0.6,1.2-1.1,1.9-1.4c0.7-0.3,1.5-0.4,2.4-0.4c0.9,0,1.7,0.2,2.4,0.5c0.8,0.4,1.4,0.9,1.9,1.8
	c0.3-0.4,0.6-0.8,1-1.1c0.4-0.3,0.8-0.5,1.2-0.7c0.4-0.2,0.9-0.3,1.4-0.4c0.5-0.1,1-0.1,1.5-0.1c0.9,0,1.8,0.2,2.5,0.5
	c0.7,0.3,1.4,0.7,1.9,1.2c0.5,0.5,0.9,1.1,1.2,1.8c0.3,0.7,0.4,1.4,0.4,2.1V107h-4.4v-9.7c0-0.6-0.1-1.1-0.2-1.5
	c-0.1-0.4-0.3-0.8-0.5-1c-0.2-0.3-0.5-0.4-0.8-0.5c-0.3-0.1-0.6-0.2-1-0.2c-0.4,0-0.8,0.1-1.2,0.2c-0.4,0.1-0.7,0.4-0.9,0.7
	c-0.3,0.3-0.5,0.7-0.6,1.2c-0.1,0.5-0.2,1.1-0.2,1.7V107z M204,100.1c0.1,0.5,0.2,1,0.5,1.4c0.2,0.4,0.6,0.8,0.9,1.1
	c0.4,0.3,0.8,0.5,1.3,0.7c0.5,0.2,1,0.2,1.6,0.2c0.6,0,1.3-0.1,2.1-0.4c0.7-0.2,1.4-0.6,2-1.1l2.1,3c-0.8,0.7-1.7,1.2-2.9,1.6
	c-1.1,0.4-2.3,0.6-3.6,0.6c-1.2,0-2.2-0.2-3.3-0.6c-1-0.4-1.9-1-2.7-1.7c-0.8-0.8-1.4-1.7-1.8-2.7c-0.4-1.1-0.7-2.3-0.7-3.6
	c0-1.2,0.2-2.4,0.6-3.4c0.4-1.1,0.9-2,1.6-2.8c0.7-0.8,1.6-1.4,2.5-1.8c1-0.4,2.1-0.7,3.2-0.7c1.1,0,2.1,0.2,3.1,0.6
	c0.9,0.4,1.8,1,2.5,1.7c0.7,0.7,1.2,1.6,1.6,2.6s0.6,2.1,0.6,3.3v2H204z M207.5,93.7c-0.9,0-1.7,0.3-2.4,0.9c-0.6,0.6-1,1.4-1.1,2.2
	h6.8c0-0.9-0.3-1.6-1-2.2C209.2,94,208.4,93.7,207.5,93.7z"/>
<rect x="25" y="140" class="st2" width="8" height="70"/>
<path class="st1" d="M55,147.8l2.8,5.3h0l2.7-5.3H62l-3.6,6.6v4.6H57v-4.6l-3.6-6.6H55z M65.5,150.9c0.6,0,1.1,0.1,1.5,0.3
	c0.5,0.2,0.8,0.5,1.2,0.9c0.3,0.4,0.6,0.8,0.8,1.3c0.2,0.5,0.3,1.1,0.3,1.7c0,0.6-0.1,1.2-0.3,1.7c-0.2,0.5-0.4,0.9-0.8,1.3
	c-0.3,0.4-0.7,0.7-1.2,0.9c-0.5,0.2-1,0.3-1.5,0.3c-0.6,0-1.1-0.1-1.5-0.3c-0.4-0.2-0.8-0.5-1.2-0.9c-0.3-0.4-0.6-0.8-0.8-1.3
	c-0.2-0.5-0.3-1.1-0.3-1.7c0-0.6,0.1-1.2,0.3-1.7c0.2-0.5,0.4-0.9,0.8-1.3c0.3-0.4,0.7-0.7,1.2-0.9C64.4,151,64.9,150.9,65.5,150.9z
	 M65.5,158c0.4,0,0.7-0.1,1-0.2c0.3-0.2,0.5-0.4,0.7-0.6c0.2-0.3,0.3-0.6,0.4-0.9c0.1-0.4,0.1-0.7,0.1-1.1V155c0-0.4,0-0.8-0.1-1.1
	c-0.1-0.4-0.2-0.7-0.4-0.9c-0.2-0.3-0.4-0.5-0.7-0.6c-0.3-0.2-0.6-0.2-1-0.2c-0.4,0-0.7,0.1-1,0.2c-0.3,0.2-0.5,0.4-0.7,0.6
	c-0.2,0.3-0.3,0.6-0.4,0.9c-0.1,0.4-0.1,0.7-0.1,1.1v0.1c0,0.4,0,0.8,0.1,1.1c0.1,0.4,0.2,0.7,0.4,0.9c0.2,0.3,0.4,0.5,0.7,0.6
	C64.7,157.9,65.1,158,65.5,158z M77.3,159H76v-0.9c-0.3,0.4-0.6,0.6-1,0.8c-0.4,0.2-0.8,0.3-1.3,0.3c-0.4,0-0.8-0.1-1.2-0.2
	c-0.3-0.1-0.6-0.3-0.8-0.6c-0.2-0.2-0.4-0.5-0.5-0.9c-0.1-0.3-0.2-0.7-0.2-1V151h1.3v5c0,0.4,0,0.7,0.1,0.9c0.1,0.2,0.2,0.4,0.4,0.6
	c0.2,0.2,0.3,0.3,0.5,0.3c0.2,0.1,0.4,0.1,0.6,0.1c0.3,0,0.5,0,0.8-0.1c0.2-0.1,0.5-0.2,0.7-0.4c0.2-0.2,0.3-0.4,0.4-0.7
	c0.1-0.3,0.2-0.6,0.2-1V151h1.3V159z M83.8,155c0,0.4,0,0.8,0.1,1.1c0.1,0.4,0.2,0.7,0.4,0.9c0.2,0.3,0.4,0.5,0.7,0.6
	c0.3,0.2,0.6,0.2,1,0.2c0.2,0,0.5,0,0.7-0.1c0.2-0.1,0.4-0.2,0.6-0.3c0.2-0.1,0.3-0.3,0.5-0.4c0.1-0.2,0.3-0.3,0.4-0.5l1.1,0.6
	c-0.1,0.3-0.3,0.5-0.5,0.8c-0.2,0.2-0.4,0.4-0.7,0.6c-0.3,0.2-0.6,0.3-0.9,0.4c-0.3,0.1-0.7,0.1-1,0.1c-0.6,0-1.1-0.1-1.5-0.3
	c-0.4-0.2-0.8-0.5-1.2-0.9c-0.3-0.4-0.6-0.8-0.8-1.3c-0.2-0.5-0.3-1.1-0.3-1.7c0-0.6,0.1-1.2,0.3-1.7c0.2-0.5,0.4-0.9,0.8-1.3
	c0.3-0.4,0.7-0.7,1.2-0.9c0.5-0.2,1-0.3,1.5-0.3c0.4,0,0.7,0,1,0.1c0.3,0.1,0.6,0.2,0.9,0.4c0.3,0.2,0.5,0.4,0.7,0.6
	c0.2,0.2,0.4,0.5,0.5,0.8l-1.1,0.6c-0.1-0.2-0.2-0.4-0.4-0.5c-0.1-0.2-0.3-0.3-0.5-0.4c-0.2-0.1-0.4-0.2-0.6-0.3
	c-0.2-0.1-0.4-0.1-0.7-0.1c-0.4,0-0.7,0.1-1,0.2c-0.3,0.2-0.5,0.4-0.7,0.6c-0.2,0.3-0.3,0.6-0.4,0.9C83.8,154.2,83.8,154.6,83.8,155
	L83.8,155z M95.6,158.2c-0.2,0.3-0.6,0.5-1,0.7c-0.4,0.2-0.9,0.3-1.4,0.3c-0.4,0-0.8-0.1-1.1-0.2c-0.3-0.1-0.6-0.3-0.9-0.5
	c-0.2-0.2-0.4-0.5-0.6-0.8c-0.1-0.3-0.2-0.6-0.2-1c0-0.3,0-0.6,0.1-0.9c0.1-0.3,0.2-0.5,0.4-0.7c0.2-0.2,0.4-0.3,0.7-0.5
	c0.3-0.1,0.6-0.2,0.9-0.3l2.8-0.4v-0.5c0-0.3,0-0.6-0.1-0.8c-0.1-0.2-0.2-0.4-0.4-0.5c-0.2-0.1-0.3-0.2-0.6-0.3
	c-0.2-0.1-0.4-0.1-0.7-0.1c-0.4,0-0.9,0.1-1.3,0.2c-0.4,0.1-0.7,0.3-1,0.4l-0.5-1c0.5-0.3,0.9-0.4,1.4-0.6c0.5-0.1,1-0.2,1.5-0.2
	c1,0,1.7,0.2,2.2,0.7c0.5,0.4,0.8,1.1,0.8,1.9v3.7c0,0.3,0.1,0.5,0.2,0.7c0.1,0.2,0.3,0.3,0.5,0.4l-0.7,0.9
	c-0.2-0.1-0.5-0.2-0.6-0.3C95.8,158.7,95.7,158.5,95.6,158.2L95.6,158.2z M93.2,155.4c-0.2,0-0.4,0.1-0.6,0.1
	c-0.2,0.1-0.3,0.1-0.5,0.2c-0.1,0.1-0.2,0.2-0.3,0.4c-0.1,0.1-0.1,0.3-0.1,0.5c0,0.2,0,0.4,0.1,0.6c0.1,0.2,0.2,0.3,0.4,0.5
	c0.2,0.1,0.3,0.2,0.5,0.3c0.2,0.1,0.4,0.1,0.6,0.1c0.2,0,0.5,0,0.7-0.1c0.2-0.1,0.4-0.2,0.6-0.3c0.2-0.1,0.3-0.3,0.4-0.5
	c0.1-0.2,0.2-0.4,0.2-0.6v-1.5L93.2,155.4z M99.1,151h1.3v0.9c0.3-0.4,0.6-0.6,1-0.8c0.4-0.2,0.8-0.3,1.3-0.3c0.4,0,0.8,0.1,1.2,0.2
	c0.3,0.1,0.6,0.3,0.8,0.6c0.2,0.2,0.4,0.5,0.5,0.9c0.1,0.3,0.2,0.7,0.2,1v5.4h-1.3v-5c0-0.3,0-0.6-0.1-0.9c-0.1-0.2-0.2-0.5-0.4-0.6
	c-0.1-0.2-0.3-0.3-0.5-0.3c-0.2-0.1-0.4-0.1-0.6-0.1c-0.2,0-0.5,0-0.7,0.1c-0.2,0.1-0.5,0.2-0.7,0.4c-0.2,0.2-0.3,0.4-0.5,0.7
	c-0.1,0.3-0.2,0.6-0.2,1v4.7h-1.3V151z M91.7,198.2c0-0.1,0-0.2,0.1-0.4c0.1-0.1,0.1-0.2,0.2-0.3c0.1-0.1,0.2-0.1,0.3-0.2
	c0.1-0.1,0.2-0.1,0.4-0.1s0.2,0,0.4,0.1c0.1,0,0.2,0.1,0.3,0.2c0.1,0.1,0.1,0.2,0.2,0.3c0.1,0.1,0.1,0.2,0.1,0.4s0,0.2-0.1,0.4
	c0,0.1-0.1,0.2-0.2,0.3c-0.1,0.1-0.2,0.1-0.3,0.2c-0.1,0.1-0.2,0.1-0.4,0.1s-0.2,0-0.4-0.1c-0.1,0-0.2-0.1-0.3-0.2
	c-0.1-0.1-0.1-0.2-0.2-0.3C91.7,198.5,91.7,198.4,91.7,198.2z"/>
<path class="st3" d="M111.8,155c0,0.4,0,0.8,0.1,1.1c0.1,0.4,0.2,0.7,0.4,0.9c0.2,0.3,0.4,0.5,0.7,0.6c0.3,0.2,0.6,0.2,1,0.2
	c0.2,0,0.5,0,0.7-0.1c0.2-0.1,0.4-0.2,0.6-0.3c0.2-0.1,0.3-0.3,0.5-0.4c0.1-0.2,0.3-0.3,0.4-0.5l1.1,0.6c-0.1,0.3-0.3,0.5-0.5,0.8
	c-0.2,0.2-0.4,0.4-0.7,0.6c-0.3,0.2-0.6,0.3-0.9,0.4c-0.3,0.1-0.7,0.1-1,0.1c-0.6,0-1.1-0.1-1.5-0.3c-0.4-0.2-0.8-0.5-1.2-0.9
	c-0.3-0.4-0.6-0.8-0.8-1.3c-0.2-0.5-0.3-1.1-0.3-1.7c0-0.6,0.1-1.2,0.3-1.7c0.2-0.5,0.4-0.9,0.8-1.3c0.3-0.4,0.7-0.7,1.2-0.9
	c0.5-0.2,1-0.3,1.5-0.3c0.4,0,0.7,0,1,0.1c0.3,0.1,0.6,0.2,0.9,0.4c0.3,0.2,0.5,0.4,0.7,0.6c0.2,0.2,0.4,0.5,0.5,0.8l-1.1,0.6
	c-0.1-0.2-0.2-0.4-0.4-0.5c-0.1-0.2-0.3-0.3-0.5-0.4c-0.2-0.1-0.4-0.2-0.6-0.3c-0.2-0.1-0.4-0.1-0.7-0.1c-0.4,0-0.7,0.1-1,0.2
	c-0.3,0.2-0.5,0.4-0.7,0.6c-0.2,0.3-0.3,0.6-0.4,0.9C111.9,154.2,111.8,154.6,111.8,155L111.8,155z M119.1,147.8h1.3v4.1
	c0.3-0.4,0.6-0.6,1-0.8c0.4-0.2,0.8-0.3,1.3-0.3c0.4,0,0.8,0.1,1.2,0.2s0.6,0.3,0.8,0.6s0.4,0.5,0.5,0.9c0.1,0.3,0.2,0.7,0.2,1v5.4
	h-1.3v-5c0-0.3,0-0.6-0.1-0.9c-0.1-0.2-0.2-0.5-0.4-0.6c-0.1-0.2-0.3-0.3-0.5-0.3c-0.2-0.1-0.4-0.1-0.6-0.1c-0.2,0-0.5,0-0.7,0.1
	c-0.2,0.1-0.5,0.2-0.7,0.4c-0.2,0.2-0.3,0.4-0.5,0.7c-0.1,0.3-0.2,0.6-0.2,1v4.7h-1.3V147.8z M132.3,158.2c-0.2,0.3-0.6,0.5-1,0.7
	c-0.4,0.2-0.9,0.3-1.4,0.3c-0.4,0-0.8-0.1-1.1-0.2c-0.3-0.1-0.6-0.3-0.9-0.5c-0.2-0.2-0.4-0.5-0.6-0.8s-0.2-0.6-0.2-1
	c0-0.3,0-0.6,0.1-0.9c0.1-0.3,0.2-0.5,0.4-0.7c0.2-0.2,0.4-0.3,0.7-0.5c0.3-0.1,0.6-0.2,0.9-0.3l2.8-0.4v-0.5c0-0.3,0-0.6-0.1-0.8
	c-0.1-0.2-0.2-0.4-0.4-0.5c-0.2-0.1-0.3-0.2-0.6-0.3c-0.2-0.1-0.4-0.1-0.7-0.1c-0.4,0-0.9,0.1-1.3,0.2c-0.4,0.1-0.7,0.3-1,0.4
	l-0.5-1c0.5-0.3,0.9-0.4,1.4-0.6c0.5-0.1,1-0.2,1.5-0.2c1,0,1.7,0.2,2.2,0.7c0.5,0.4,0.8,1.1,0.8,1.9v3.7c0,0.3,0.1,0.5,0.2,0.7
	c0.1,0.2,0.3,0.3,0.5,0.4l-0.7,0.9c-0.2-0.1-0.5-0.2-0.6-0.3C132.5,158.7,132.4,158.5,132.3,158.2L132.3,158.2z M130,155.4
	c-0.2,0-0.4,0.1-0.6,0.1c-0.2,0.1-0.3,0.1-0.5,0.2c-0.1,0.1-0.2,0.2-0.3,0.4c-0.1,0.1-0.1,0.3-0.1,0.5c0,0.2,0,0.4,0.1,0.6
	c0.1,0.2,0.2,0.3,0.4,0.5s0.3,0.2,0.5,0.3c0.2,0.1,0.4,0.1,0.6,0.1c0.2,0,0.5,0,0.7-0.1c0.2-0.1,0.4-0.2,0.6-0.3
	c0.2-0.1,0.3-0.3,0.4-0.5c0.1-0.2,0.2-0.4,0.2-0.6v-1.5L130,155.4z M135.8,151h1.3v0.9c0.3-0.4,0.6-0.6,1-0.8
	c0.4-0.2,0.8-0.3,1.3-0.3c0.4,0,0.8,0.1,1.2,0.2c0.3,0.1,0.6,0.3,0.8,0.6s0.4,0.5,0.5,0.9c0.1,0.3,0.2,0.7,0.2,1v5.4h-1.3v-5
	c0-0.3,0-0.6-0.1-0.9c-0.1-0.2-0.2-0.5-0.4-0.6c-0.1-0.2-0.3-0.3-0.5-0.3c-0.2-0.1-0.4-0.1-0.6-0.1c-0.2,0-0.5,0-0.7,0.1
	c-0.2,0.1-0.5,0.2-0.7,0.4c-0.2,0.2-0.3,0.4-0.5,0.7s-0.2,0.6-0.2,1v4.7h-1.3V151z M144,154.6c0-0.5,0.1-1,0.2-1.5
	c0.2-0.5,0.4-0.8,0.6-1.2c0.3-0.3,0.6-0.6,1-0.8c0.4-0.2,0.8-0.3,1.3-0.3c0.4,0,0.9,0.1,1.2,0.3c0.4,0.2,0.7,0.4,1,0.8V151h1.3v8
	c0,0.5-0.1,0.9-0.3,1.2c-0.2,0.3-0.5,0.6-0.8,0.8c-0.3,0.2-0.7,0.3-1.1,0.4c-0.4,0.1-0.8,0.1-1.2,0.1c-0.2,0-0.5,0-0.7,0
	c-0.2,0-0.5-0.1-0.8-0.1c-0.3-0.1-0.5-0.1-0.8-0.2c-0.2-0.1-0.5-0.2-0.7-0.3l0.5-1.1c0.2,0.1,0.3,0.1,0.5,0.2
	c0.2,0.1,0.4,0.1,0.6,0.2c0.2,0.1,0.4,0.1,0.6,0.1c0.2,0,0.5,0.1,0.8,0.1c0.3,0,0.6,0,0.9-0.1c0.3-0.1,0.5-0.2,0.7-0.3
	c0.2-0.1,0.3-0.3,0.4-0.5c0.1-0.2,0.1-0.5,0.1-0.8v-1.5c-0.3,0.4-0.6,0.6-1,0.8c-0.4,0.2-0.8,0.2-1.2,0.2c-0.5,0-0.9-0.1-1.3-0.3
	c-0.4-0.2-0.7-0.5-1-0.8c-0.3-0.3-0.5-0.7-0.6-1.2C144.1,155.6,144,155.1,144,154.6z M149.6,154.5c0-0.4,0-0.7-0.1-1
	c-0.1-0.3-0.2-0.6-0.4-0.8c-0.2-0.2-0.4-0.4-0.6-0.5c-0.3-0.1-0.6-0.2-0.9-0.2c-0.4,0-0.7,0.1-0.9,0.2c-0.3,0.1-0.5,0.3-0.7,0.5
	c-0.2,0.2-0.3,0.5-0.4,0.8c-0.1,0.3-0.1,0.6-0.1,1v0.1c0,0.3,0,0.7,0.1,1c0.1,0.3,0.2,0.6,0.4,0.8c0.2,0.2,0.4,0.4,0.7,0.5
	c0.3,0.1,0.6,0.2,0.9,0.2c0.4,0,0.7-0.1,0.9-0.2c0.3-0.1,0.5-0.3,0.6-0.5c0.2-0.2,0.3-0.5,0.4-0.8
	C149.5,155.3,149.6,155,149.6,154.5L149.6,154.5z M154.1,155.4c0,0.4,0.1,0.7,0.2,1c0.1,0.3,0.3,0.6,0.5,0.8
	c0.2,0.2,0.5,0.4,0.8,0.5c0.3,0.1,0.6,0.2,1,0.2c0.4,0,0.8-0.1,1.2-0.2c0.3-0.2,0.6-0.3,0.9-0.6l0.7,0.9c-0.4,0.3-0.8,0.5-1.2,0.7
	c-0.5,0.2-1,0.3-1.6,0.3c-0.6,0-1.1-0.1-1.6-0.3c-0.5-0.2-0.9-0.5-1.2-0.9c-0.3-0.4-0.6-0.8-0.8-1.3c-0.2-0.5-0.3-1.1-0.3-1.7
	c0-0.6,0.1-1.2,0.3-1.7c0.2-0.5,0.4-0.9,0.7-1.3c0.3-0.4,0.7-0.7,1.1-0.9c0.4-0.2,0.9-0.3,1.5-0.3c0.5,0,1,0.1,1.4,0.3
	c0.4,0.2,0.8,0.5,1.1,0.9c0.3,0.4,0.5,0.8,0.7,1.3c0.2,0.5,0.2,1.1,0.2,1.7v0.4H154.1z M156.3,152c-0.3,0-0.6,0.1-0.9,0.2
	c-0.3,0.1-0.5,0.3-0.7,0.5c-0.2,0.2-0.3,0.5-0.4,0.8c-0.1,0.3-0.2,0.6-0.2,0.9h4.2c0-0.3-0.1-0.6-0.2-0.9c-0.1-0.3-0.2-0.5-0.4-0.8
	c-0.2-0.2-0.4-0.4-0.6-0.5C156.9,152.1,156.7,152,156.3,152z M163.6,151h1.5l2,6.6l1.9-6.6h1.5l-2.9,9.2c-0.1,0.3-0.2,0.5-0.3,0.7
	c-0.1,0.2-0.3,0.3-0.5,0.4c-0.2,0.1-0.4,0.2-0.6,0.2c-0.2,0-0.5,0.1-0.7,0.1c-0.2,0-0.4,0-0.7,0c-0.2,0-0.5-0.1-0.7-0.1l0.2-1.1
	c0.1,0,0.2,0,0.3,0.1c0.1,0,0.2,0,0.3,0c0.1,0,0.3,0,0.4,0c0.3,0,0.5-0.1,0.7-0.2c0.2-0.1,0.3-0.3,0.3-0.6l0.1-0.4L163.6,151z
	 M175,150.9c0.6,0,1.1,0.1,1.5,0.3c0.5,0.2,0.8,0.5,1.2,0.9c0.3,0.4,0.6,0.8,0.8,1.3c0.2,0.5,0.3,1.1,0.3,1.7c0,0.6-0.1,1.2-0.3,1.7
	c-0.2,0.5-0.4,0.9-0.8,1.3c-0.3,0.4-0.7,0.7-1.2,0.9c-0.5,0.2-1,0.3-1.5,0.3s-1.1-0.1-1.5-0.3c-0.4-0.2-0.8-0.5-1.2-0.9
	c-0.3-0.4-0.6-0.8-0.8-1.3c-0.2-0.5-0.3-1.1-0.3-1.7c0-0.6,0.1-1.2,0.3-1.7c0.2-0.5,0.4-0.9,0.8-1.3c0.3-0.4,0.7-0.7,1.2-0.9
	C174,151,174.5,150.9,175,150.9z M175,158c0.4,0,0.7-0.1,1-0.2c0.3-0.2,0.5-0.4,0.7-0.6c0.2-0.3,0.3-0.6,0.4-0.9
	c0.1-0.4,0.1-0.7,0.1-1.1V155c0-0.4,0-0.8-0.1-1.1c-0.1-0.4-0.2-0.7-0.4-0.9c-0.2-0.3-0.4-0.5-0.7-0.6c-0.3-0.2-0.6-0.2-1-0.2
	c-0.4,0-0.7,0.1-1,0.2c-0.3,0.2-0.5,0.4-0.7,0.6c-0.2,0.3-0.3,0.6-0.4,0.9c-0.1,0.4-0.1,0.7-0.1,1.1v0.1c0,0.4,0,0.8,0.1,1.1
	c0.1,0.4,0.2,0.7,0.4,0.9c0.2,0.3,0.4,0.5,0.7,0.6C174.3,157.9,174.6,158,175,158z M186.9,159h-1.3v-0.9c-0.3,0.4-0.6,0.6-1,0.8
	c-0.4,0.2-0.8,0.3-1.3,0.3c-0.4,0-0.8-0.1-1.2-0.2c-0.3-0.1-0.6-0.3-0.8-0.6s-0.4-0.5-0.5-0.9c-0.1-0.3-0.2-0.7-0.2-1V151h1.3v5
	c0,0.4,0,0.7,0.1,0.9c0.1,0.2,0.2,0.4,0.4,0.6c0.2,0.2,0.3,0.3,0.5,0.3c0.2,0.1,0.4,0.1,0.6,0.1c0.3,0,0.5,0,0.8-0.1
	c0.2-0.1,0.5-0.2,0.7-0.4c0.2-0.2,0.3-0.4,0.4-0.7c0.1-0.3,0.2-0.6,0.2-1V151h1.3V159z M193.3,152.2h-0.2c-0.3,0-0.7,0-1,0.1
	c-0.3,0.1-0.6,0.2-0.8,0.4c-0.2,0.2-0.4,0.5-0.6,0.8c-0.1,0.3-0.2,0.8-0.2,1.3v4.1h-1.3v-8h1.3v1.3c0.1-0.2,0.2-0.4,0.4-0.6
	c0.2-0.2,0.4-0.3,0.6-0.4c0.2-0.1,0.4-0.2,0.7-0.3c0.2-0.1,0.5-0.1,0.7-0.1h0.4V152.2z M203.1,156.8c0,0.4-0.1,0.7-0.2,1
	c-0.2,0.3-0.4,0.5-0.6,0.7c-0.3,0.2-0.6,0.4-0.9,0.5c-0.3,0.1-0.7,0.2-1.1,0.2c-0.6,0-1.1-0.1-1.7-0.3c-0.5-0.2-1-0.5-1.4-0.9
	l0.7-0.9c0.1,0.1,0.3,0.2,0.4,0.3c0.2,0.1,0.4,0.2,0.6,0.3c0.2,0.1,0.4,0.2,0.7,0.2c0.2,0.1,0.5,0.1,0.7,0.1c0.2,0,0.4,0,0.6-0.1
	c0.2-0.1,0.4-0.1,0.5-0.2c0.1-0.1,0.3-0.2,0.3-0.4c0.1-0.2,0.1-0.3,0.1-0.5c0-0.2,0-0.4-0.1-0.5c-0.1-0.1-0.2-0.3-0.4-0.4
	c-0.2-0.1-0.3-0.2-0.5-0.3c-0.2-0.1-0.4-0.1-0.7-0.2l-0.5-0.2c-0.3-0.1-0.6-0.2-0.8-0.3c-0.3-0.1-0.5-0.3-0.7-0.4
	c-0.2-0.2-0.4-0.4-0.5-0.6c-0.1-0.2-0.2-0.5-0.2-0.9c0-0.3,0.1-0.5,0.2-0.8c0.1-0.3,0.3-0.5,0.5-0.7c0.2-0.2,0.5-0.4,0.9-0.5
	c0.4-0.1,0.8-0.2,1.3-0.2c0.5,0,1.1,0.1,1.5,0.3c0.5,0.2,0.9,0.4,1.2,0.7l-0.7,0.9c-0.1-0.1-0.2-0.2-0.4-0.3
	c-0.2-0.1-0.3-0.2-0.5-0.3c-0.2-0.1-0.4-0.1-0.6-0.2c-0.2,0-0.4-0.1-0.6-0.1c-0.3,0-0.5,0-0.7,0.1c-0.2,0.1-0.4,0.1-0.5,0.2
	c-0.1,0.1-0.2,0.2-0.3,0.4c-0.1,0.1-0.1,0.3-0.1,0.4c0,0.2,0,0.3,0.1,0.5c0.1,0.1,0.2,0.2,0.3,0.3c0.1,0.1,0.3,0.2,0.4,0.2
	c0.2,0.1,0.3,0.1,0.5,0.2l0.7,0.2c0.3,0.1,0.6,0.2,0.9,0.3c0.3,0.1,0.5,0.2,0.7,0.4c0.2,0.2,0.4,0.4,0.6,0.7
	C203,156.1,203.1,156.4,203.1,156.8z M206.4,159h-1.3v-8h1.3V159z M204.9,148.7c0-0.1,0-0.2,0.1-0.4c0.1-0.1,0.1-0.2,0.2-0.3
	c0.1-0.1,0.2-0.1,0.3-0.2c0.1-0.1,0.2-0.1,0.4-0.1s0.2,0,0.4,0.1c0.1,0,0.2,0.1,0.3,0.2c0.1,0.1,0.1,0.2,0.2,0.3
	c0.1,0.1,0.1,0.2,0.1,0.4s0,0.2-0.1,0.4c0,0.1-0.1,0.2-0.2,0.3c-0.1,0.1-0.2,0.1-0.3,0.2c-0.1,0-0.2,0.1-0.4,0.1s-0.2,0-0.4-0.1
	c-0.1-0.1-0.2-0.1-0.3-0.2c-0.1-0.1-0.1-0.2-0.2-0.3C204.9,149,204.9,148.8,204.9,148.7z M208.4,154.6c0-0.5,0.1-1,0.2-1.5
	c0.2-0.5,0.4-0.8,0.6-1.2c0.3-0.3,0.6-0.6,1-0.8c0.4-0.2,0.8-0.3,1.3-0.3c0.4,0,0.9,0.1,1.2,0.3c0.4,0.2,0.7,0.4,1,0.8V151h1.3v8
	c0,0.5-0.1,0.9-0.3,1.2c-0.2,0.3-0.5,0.6-0.8,0.8c-0.3,0.2-0.7,0.3-1.1,0.4c-0.4,0.1-0.8,0.1-1.2,0.1c-0.2,0-0.5,0-0.7,0
	c-0.2,0-0.5-0.1-0.8-0.1c-0.3-0.1-0.5-0.1-0.8-0.2c-0.2-0.1-0.5-0.2-0.7-0.3l0.5-1.1c0.2,0.1,0.3,0.1,0.5,0.2
	c0.2,0.1,0.4,0.1,0.6,0.2c0.2,0.1,0.4,0.1,0.6,0.1c0.2,0,0.5,0.1,0.8,0.1c0.3,0,0.6,0,0.9-0.1c0.3-0.1,0.5-0.2,0.7-0.3
	c0.2-0.1,0.3-0.3,0.4-0.5c0.1-0.2,0.1-0.5,0.1-0.8v-1.5c-0.3,0.4-0.6,0.6-1,0.8c-0.4,0.2-0.8,0.2-1.2,0.2c-0.5,0-0.9-0.1-1.3-0.3
	c-0.4-0.2-0.7-0.5-1-0.8c-0.3-0.3-0.5-0.7-0.6-1.2C208.4,155.6,208.4,155.1,208.4,154.6z M213.9,154.5c0-0.4,0-0.7-0.1-1
	c-0.1-0.3-0.2-0.6-0.4-0.8c-0.2-0.2-0.4-0.4-0.6-0.5c-0.3-0.1-0.6-0.2-0.9-0.2c-0.4,0-0.7,0.1-0.9,0.2c-0.3,0.1-0.5,0.3-0.7,0.5
	c-0.2,0.2-0.3,0.5-0.4,0.8c-0.1,0.3-0.1,0.6-0.1,1v0.1c0,0.3,0,0.7,0.1,1c0.1,0.3,0.2,0.6,0.4,0.8c0.2,0.2,0.4,0.4,0.7,0.5
	c0.3,0.1,0.6,0.2,0.9,0.2c0.4,0,0.7-0.1,0.9-0.2c0.3-0.1,0.5-0.3,0.6-0.5c0.2-0.2,0.3-0.5,0.4-0.8
	C213.8,155.3,213.9,155,213.9,154.5L213.9,154.5z M217.6,151h1.3v0.9c0.3-0.4,0.6-0.6,1-0.8c0.4-0.2,0.8-0.3,1.3-0.3
	c0.4,0,0.8,0.1,1.2,0.2s0.6,0.3,0.8,0.6s0.4,0.5,0.5,0.9c0.1,0.3,0.2,0.7,0.2,1v5.4h-1.3v-5c0-0.3,0-0.6-0.1-0.9
	c-0.1-0.2-0.2-0.5-0.4-0.6c-0.1-0.2-0.3-0.3-0.5-0.3c-0.2-0.1-0.4-0.1-0.6-0.1c-0.2,0-0.5,0-0.7,0.1c-0.2,0.1-0.5,0.2-0.7,0.4
	c-0.2,0.2-0.3,0.4-0.5,0.7c-0.1,0.3-0.2,0.6-0.2,1v4.7h-1.3V151z M230.7,159h-1.3v-8h1.3V159z M229.2,148.7c0-0.1,0-0.2,0.1-0.4
	c0.1-0.1,0.1-0.2,0.2-0.3c0.1-0.1,0.2-0.1,0.3-0.2c0.1-0.1,0.2-0.1,0.4-0.1s0.2,0,0.4,0.1c0.1,0,0.2,0.1,0.3,0.2
	c0.1,0.1,0.1,0.2,0.2,0.3c0.1,0.1,0.1,0.2,0.1,0.4s0,0.2-0.1,0.4c0,0.1-0.1,0.2-0.2,0.3c-0.1,0.1-0.2,0.1-0.3,0.2
	c-0.1,0-0.2,0.1-0.4,0.1s-0.2,0-0.4-0.1c-0.1-0.1-0.2-0.1-0.3-0.2c-0.1-0.1-0.1-0.2-0.2-0.3C229.2,149,229.2,148.8,229.2,148.7z
	 M233.1,151h1.3v0.9c0.3-0.4,0.6-0.6,1-0.8c0.4-0.2,0.8-0.3,1.3-0.3c0.4,0,0.8,0.1,1.2,0.2c0.3,0.1,0.6,0.3,0.8,0.6s0.4,0.5,0.5,0.9
	c0.1,0.3,0.2,0.7,0.2,1v5.4h-1.3v-5c0-0.3,0-0.6-0.1-0.9c-0.1-0.2-0.2-0.5-0.4-0.6c-0.1-0.2-0.3-0.3-0.5-0.3
	c-0.2-0.1-0.4-0.1-0.6-0.1c-0.2,0-0.5,0-0.7,0.1c-0.2,0.1-0.5,0.2-0.7,0.4c-0.2,0.2-0.3,0.4-0.5,0.7c-0.1,0.3-0.2,0.6-0.2,1v4.7
	h-1.3V151z M59.5,178.1c-0.2,0.3-0.6,0.6-1,0.8c-0.4,0.2-0.9,0.3-1.4,0.3s-1-0.1-1.4-0.3c-0.4-0.2-0.8-0.5-1.1-0.9
	c-0.3-0.4-0.5-0.8-0.7-1.3c-0.2-0.5-0.2-1.1-0.2-1.7c0-0.6,0.1-1.2,0.2-1.7c0.2-0.5,0.4-1,0.7-1.3c0.3-0.4,0.7-0.7,1.1-0.9
	c0.4-0.2,0.9-0.3,1.4-0.3s1,0.1,1.4,0.3c0.4,0.2,0.7,0.5,1,0.8v-4.1h1.3V179h-1.3V178.1z M55.1,175c0,0.4,0,0.8,0.1,1.2
	c0.1,0.4,0.2,0.7,0.4,0.9c0.2,0.3,0.4,0.5,0.7,0.6c0.3,0.2,0.6,0.2,1,0.2c0.3,0,0.7-0.1,0.9-0.2c0.3-0.1,0.5-0.3,0.7-0.5
	c0.2-0.2,0.3-0.5,0.4-0.7c0.1-0.3,0.1-0.6,0.1-0.9v-1.3c0-0.3,0-0.6-0.1-0.9c-0.1-0.3-0.2-0.5-0.4-0.7c-0.2-0.2-0.4-0.4-0.7-0.5
	c-0.3-0.1-0.6-0.2-0.9-0.2c-0.4,0-0.7,0.1-1,0.2c-0.3,0.2-0.5,0.4-0.7,0.6c-0.2,0.3-0.3,0.6-0.4,0.9C55.1,174.2,55.1,174.6,55.1,175
	L55.1,175z M64.1,175.4c0,0.4,0.1,0.7,0.2,1c0.1,0.3,0.3,0.6,0.5,0.8c0.2,0.2,0.5,0.4,0.8,0.5c0.3,0.1,0.6,0.2,1,0.2
	c0.4,0,0.8-0.1,1.2-0.2c0.3-0.2,0.6-0.3,0.9-0.6l0.7,0.9c-0.4,0.3-0.8,0.5-1.2,0.7c-0.5,0.2-1,0.3-1.6,0.3c-0.6,0-1.1-0.1-1.6-0.3
	c-0.5-0.2-0.9-0.5-1.2-0.9c-0.3-0.4-0.6-0.8-0.8-1.3c-0.2-0.5-0.3-1.1-0.3-1.7c0-0.6,0.1-1.2,0.3-1.7c0.2-0.5,0.4-0.9,0.7-1.3
	c0.3-0.4,0.7-0.7,1.1-0.9c0.4-0.2,0.9-0.3,1.5-0.3c0.5,0,1,0.1,1.4,0.3c0.4,0.2,0.8,0.5,1.1,0.9c0.3,0.4,0.5,0.8,0.7,1.3
	c0.2,0.5,0.2,1.1,0.2,1.7v0.4H64.1z M66.3,172c-0.3,0-0.6,0.1-0.9,0.2c-0.3,0.1-0.5,0.3-0.7,0.5c-0.2,0.2-0.3,0.5-0.4,0.8
	c-0.1,0.3-0.2,0.6-0.2,0.9h4.2c0-0.3-0.1-0.6-0.2-0.9c-0.1-0.3-0.2-0.5-0.4-0.8c-0.2-0.2-0.4-0.4-0.6-0.5
	C66.9,172.1,66.6,172,66.3,172z M73.6,177c0,0.1,0,0.3,0,0.4c0,0.1,0.1,0.2,0.1,0.3c0.1,0.1,0.2,0.2,0.3,0.2
	c0.1,0.1,0.3,0.1,0.6,0.1c0.1,0,0.1,0,0.2,0c0.1,0,0.2,0,0.3,0c0.1,0,0.2,0,0.3,0c0.1,0,0.2,0,0.2,0l0.1,1.1c-0.2,0-0.3,0-0.5,0.1
	c-0.1,0-0.3,0-0.5,0c-0.2,0-0.3,0-0.5,0c-0.3,0-0.6,0-0.9-0.1c-0.2-0.1-0.5-0.2-0.6-0.3c-0.2-0.1-0.3-0.3-0.4-0.6
	c-0.1-0.2-0.1-0.5-0.1-0.9v-5.1h-1.5V171h1.5v-2.6l1.3-0.5v3.1h2.2v1.2h-2.2V177z M81.9,178.2c-0.2,0.3-0.6,0.5-1,0.7
	c-0.4,0.2-0.9,0.3-1.4,0.3c-0.4,0-0.8-0.1-1.1-0.2c-0.3-0.1-0.6-0.3-0.9-0.5c-0.2-0.2-0.4-0.5-0.6-0.8c-0.1-0.3-0.2-0.6-0.2-1
	c0-0.3,0-0.6,0.1-0.9c0.1-0.3,0.2-0.5,0.4-0.7c0.2-0.2,0.4-0.3,0.7-0.5c0.3-0.1,0.6-0.2,0.9-0.3l2.8-0.4v-0.5c0-0.3,0-0.6-0.1-0.8
	c-0.1-0.2-0.2-0.4-0.4-0.5c-0.2-0.1-0.3-0.2-0.6-0.3c-0.2-0.1-0.4-0.1-0.7-0.1c-0.4,0-0.9,0.1-1.3,0.2c-0.4,0.1-0.7,0.3-1,0.4
	l-0.5-1c0.5-0.3,0.9-0.4,1.4-0.6c0.5-0.1,1-0.2,1.5-0.2c1,0,1.7,0.2,2.2,0.7c0.5,0.4,0.8,1.1,0.8,1.9v3.7c0,0.3,0.1,0.5,0.2,0.7
	c0.1,0.2,0.3,0.3,0.5,0.4l-0.7,0.9c-0.2-0.1-0.5-0.2-0.6-0.3C82.2,178.7,82,178.5,81.9,178.2L81.9,178.2z M79.6,175.4
	c-0.2,0-0.4,0.1-0.6,0.1c-0.2,0.1-0.3,0.1-0.5,0.2c-0.1,0.1-0.2,0.2-0.3,0.4c-0.1,0.1-0.1,0.3-0.1,0.5c0,0.2,0,0.4,0.1,0.6
	c0.1,0.2,0.2,0.3,0.4,0.5c0.2,0.1,0.3,0.2,0.5,0.3c0.2,0.1,0.4,0.1,0.6,0.1c0.2,0,0.5,0,0.7-0.1c0.2-0.1,0.4-0.2,0.6-0.3
	c0.2-0.1,0.3-0.3,0.4-0.5c0.1-0.2,0.2-0.4,0.2-0.6v-1.5L79.6,175.4z M86.8,179h-1.3v-8h1.3V179z M85.2,168.7c0-0.1,0-0.2,0.1-0.4
	c0.1-0.1,0.1-0.2,0.2-0.3c0.1-0.1,0.2-0.1,0.3-0.2c0.1-0.1,0.2-0.1,0.4-0.1s0.2,0,0.4,0.1c0.1,0,0.2,0.1,0.3,0.2
	c0.1,0.1,0.1,0.2,0.2,0.3c0.1,0.1,0.1,0.2,0.1,0.4s0,0.2-0.1,0.4c0,0.1-0.1,0.2-0.2,0.3c-0.1,0.1-0.2,0.1-0.3,0.2
	c-0.1,0-0.2,0.1-0.4,0.1s-0.2,0-0.4-0.1c-0.1-0.1-0.2-0.1-0.3-0.2c-0.1-0.1-0.1-0.2-0.2-0.3C85.2,169,85.2,168.8,85.2,168.7z
	 M89.1,167.8h1.3v9.4c0,0.1,0,0.2,0,0.3c0,0.1,0.1,0.2,0.1,0.2c0.1,0.1,0.1,0.1,0.2,0.2c0.1,0,0.2,0,0.4,0c0.2,0,0.3,0,0.5,0
	c0.1,0,0.3,0,0.4,0l0.1,1.1c-0.2,0-0.3,0-0.5,0c-0.1,0-0.3,0-0.4,0c-0.2,0-0.3,0-0.4,0c-0.2,0-0.5,0-0.7-0.1
	c-0.2-0.1-0.4-0.1-0.5-0.3c-0.2-0.1-0.3-0.3-0.4-0.5c-0.1-0.2-0.1-0.4-0.1-0.7V167.8z M98.8,176.8c0,0.4-0.1,0.7-0.2,1
	c-0.2,0.3-0.4,0.5-0.6,0.7c-0.3,0.2-0.6,0.4-0.9,0.5c-0.3,0.1-0.7,0.2-1.1,0.2c-0.6,0-1.1-0.1-1.7-0.3c-0.5-0.2-1-0.5-1.4-0.9
	l0.7-0.9c0.1,0.1,0.3,0.2,0.4,0.3c0.2,0.1,0.4,0.2,0.6,0.3c0.2,0.1,0.4,0.2,0.7,0.2c0.2,0.1,0.5,0.1,0.7,0.1c0.2,0,0.4,0,0.6-0.1
	c0.2-0.1,0.4-0.1,0.5-0.2c0.1-0.1,0.3-0.2,0.3-0.4c0.1-0.2,0.1-0.3,0.1-0.5c0-0.2,0-0.4-0.1-0.5c-0.1-0.1-0.2-0.3-0.4-0.4
	c-0.2-0.1-0.3-0.2-0.5-0.3c-0.2-0.1-0.4-0.1-0.7-0.2l-0.5-0.2c-0.3-0.1-0.6-0.2-0.8-0.3c-0.3-0.1-0.5-0.3-0.7-0.4
	c-0.2-0.2-0.4-0.4-0.5-0.6c-0.1-0.2-0.2-0.5-0.2-0.9c0-0.3,0.1-0.5,0.2-0.8c0.1-0.3,0.3-0.5,0.5-0.7c0.2-0.2,0.5-0.4,0.9-0.5
	c0.4-0.1,0.8-0.2,1.3-0.2c0.5,0,1.1,0.1,1.5,0.3c0.5,0.2,0.9,0.4,1.2,0.7l-0.7,0.9c-0.1-0.1-0.2-0.2-0.4-0.3
	c-0.2-0.1-0.3-0.2-0.5-0.3c-0.2-0.1-0.4-0.1-0.6-0.2s-0.4-0.1-0.6-0.1c-0.3,0-0.5,0-0.7,0.1c-0.2,0.1-0.4,0.1-0.5,0.2
	c-0.1,0.1-0.2,0.2-0.3,0.4c-0.1,0.1-0.1,0.3-0.1,0.4c0,0.2,0,0.3,0.1,0.5c0.1,0.1,0.2,0.2,0.3,0.3c0.1,0.1,0.3,0.2,0.4,0.2
	c0.2,0.1,0.3,0.1,0.5,0.2l0.7,0.2c0.3,0.1,0.6,0.2,0.9,0.3c0.3,0.1,0.5,0.2,0.7,0.4c0.2,0.2,0.4,0.4,0.6,0.7
	C98.7,176.1,98.8,176.4,98.8,176.8z M105.3,179H104v-8h1.3V179z M103.7,168.7c0-0.1,0-0.2,0.1-0.4c0.1-0.1,0.1-0.2,0.2-0.3
	c0.1-0.1,0.2-0.1,0.3-0.2c0.1-0.1,0.2-0.1,0.4-0.1s0.2,0,0.4,0.1c0.1,0,0.2,0.1,0.3,0.2c0.1,0.1,0.1,0.2,0.2,0.3
	c0.1,0.1,0.1,0.2,0.1,0.4s0,0.2-0.1,0.4c0,0.1-0.1,0.2-0.2,0.3c-0.1,0.1-0.2,0.1-0.3,0.2c-0.1,0-0.2,0.1-0.4,0.1s-0.2,0-0.4-0.1
	c-0.1-0.1-0.2-0.1-0.3-0.2c-0.1-0.1-0.1-0.2-0.2-0.3C103.8,169,103.7,168.8,103.7,168.7z M107.7,171h1.3v0.9c0.3-0.4,0.6-0.6,1-0.8
	c0.4-0.2,0.8-0.3,1.3-0.3c0.4,0,0.8,0.1,1.2,0.2s0.6,0.3,0.8,0.6s0.4,0.5,0.5,0.9c0.1,0.3,0.2,0.7,0.2,1v5.4h-1.3v-5
	c0-0.3,0-0.6-0.1-0.9c-0.1-0.2-0.2-0.5-0.4-0.6c-0.1-0.2-0.3-0.3-0.5-0.3c-0.2-0.1-0.4-0.1-0.6-0.1c-0.2,0-0.5,0-0.7,0.1
	c-0.2,0.1-0.5,0.2-0.7,0.4c-0.2,0.2-0.3,0.4-0.5,0.7c-0.1,0.3-0.2,0.6-0.2,1v4.7h-1.3V171z M118.3,171h1.5l2,6.6l1.9-6.6h1.5
	l-2.9,9.2c-0.1,0.3-0.2,0.5-0.3,0.7c-0.1,0.2-0.3,0.3-0.5,0.4c-0.2,0.1-0.4,0.2-0.6,0.2c-0.2,0-0.5,0.1-0.7,0.1c-0.2,0-0.4,0-0.7,0
	c-0.2,0-0.5-0.1-0.7-0.1l0.2-1.1c0.1,0,0.2,0,0.3,0.1c0.1,0,0.2,0,0.3,0c0.1,0,0.3,0,0.4,0c0.3,0,0.5-0.1,0.7-0.2
	c0.2-0.1,0.3-0.3,0.3-0.6l0.1-0.4L118.3,171z M129.7,170.9c0.6,0,1.1,0.1,1.5,0.3c0.5,0.2,0.8,0.5,1.2,0.9c0.3,0.4,0.6,0.8,0.8,1.3
	c0.2,0.5,0.3,1.1,0.3,1.7c0,0.6-0.1,1.2-0.3,1.7c-0.2,0.5-0.4,0.9-0.8,1.3c-0.3,0.4-0.7,0.7-1.2,0.9c-0.5,0.2-1,0.3-1.5,0.3
	s-1.1-0.1-1.5-0.3c-0.4-0.2-0.8-0.5-1.2-0.9c-0.3-0.4-0.6-0.8-0.8-1.3c-0.2-0.5-0.3-1.1-0.3-1.7c0-0.6,0.1-1.2,0.3-1.7
	c0.2-0.5,0.4-0.9,0.8-1.3c0.3-0.4,0.7-0.7,1.2-0.9C128.7,171,129.2,170.9,129.7,170.9z M129.7,178c0.4,0,0.7-0.1,1-0.2
	c0.3-0.2,0.5-0.4,0.7-0.6c0.2-0.3,0.3-0.6,0.4-0.9c0.1-0.4,0.1-0.7,0.1-1.1V175c0-0.4,0-0.8-0.1-1.1c-0.1-0.4-0.2-0.7-0.4-0.9
	c-0.2-0.3-0.4-0.5-0.7-0.6c-0.3-0.2-0.6-0.2-1-0.2s-0.7,0.1-1,0.2c-0.3,0.2-0.5,0.4-0.7,0.6c-0.2,0.3-0.3,0.6-0.4,0.9
	c-0.1,0.4-0.1,0.7-0.1,1.1v0.1c0,0.4,0,0.8,0.1,1.1c0.1,0.4,0.2,0.7,0.4,0.9c0.2,0.3,0.4,0.5,0.7,0.6C129,177.9,129.3,178,129.7,178
	z M141.6,179h-1.3v-0.9c-0.3,0.4-0.6,0.6-1,0.8c-0.4,0.2-0.8,0.3-1.3,0.3c-0.4,0-0.8-0.1-1.2-0.2c-0.3-0.1-0.6-0.3-0.8-0.6
	s-0.4-0.5-0.5-0.9c-0.1-0.3-0.2-0.7-0.2-1V171h1.3v5c0,0.4,0,0.7,0.1,0.9c0.1,0.2,0.2,0.4,0.4,0.6c0.2,0.2,0.3,0.3,0.5,0.3
	c0.2,0.1,0.4,0.1,0.6,0.1c0.3,0,0.5,0,0.8-0.1c0.2-0.1,0.5-0.2,0.7-0.4c0.2-0.2,0.3-0.4,0.4-0.7c0.1-0.3,0.2-0.6,0.2-1V171h1.3V179z
	 M148,172.2h-0.2c-0.3,0-0.7,0-1,0.1c-0.3,0.1-0.6,0.2-0.8,0.4c-0.2,0.2-0.4,0.5-0.6,0.8c-0.1,0.3-0.2,0.8-0.2,1.3v4.1H144v-8h1.3
	v1.3c0.1-0.2,0.2-0.4,0.4-0.6c0.2-0.2,0.4-0.3,0.6-0.4c0.2-0.1,0.4-0.2,0.7-0.3c0.2-0.1,0.5-0.1,0.7-0.1h0.4V172.2z M157,178
	c0.4,0,0.8-0.1,1.1-0.2c0.3-0.1,0.6-0.2,0.8-0.4c0.2-0.2,0.4-0.4,0.6-0.6s0.3-0.5,0.4-0.7c0.1-0.2,0.2-0.5,0.2-0.7
	c0-0.2,0.1-0.5,0.1-0.7v-0.5H157v-1.2h4.4v5.9h-1.2v-1.5c-0.2,0.3-0.4,0.6-0.7,0.8c-0.2,0.2-0.5,0.4-0.8,0.5s-0.6,0.2-0.9,0.3
	c-0.3,0.1-0.6,0.1-0.9,0.1c-0.8,0-1.4-0.1-2-0.4s-1.1-0.7-1.5-1.2c-0.4-0.5-0.7-1.1-0.9-1.8c-0.2-0.7-0.3-1.5-0.3-2.3
	c0-0.8,0.1-1.6,0.4-2.2c0.2-0.7,0.6-1.3,1-1.8c0.4-0.5,1-0.9,1.6-1.2c0.6-0.3,1.3-0.5,2.1-0.5c0.5,0,0.9,0.1,1.3,0.2
	c0.4,0.1,0.8,0.3,1.2,0.5c0.4,0.2,0.7,0.4,1,0.7c0.3,0.3,0.5,0.6,0.7,0.9l-1.2,0.6c-0.1-0.3-0.3-0.5-0.5-0.7
	c-0.2-0.2-0.4-0.4-0.6-0.5c-0.2-0.2-0.5-0.3-0.8-0.4c-0.3-0.1-0.6-0.1-1-0.1c-0.6,0-1.1,0.1-1.5,0.4c-0.4,0.2-0.8,0.6-1.1,1
	c-0.3,0.4-0.5,0.9-0.7,1.4c-0.2,0.5-0.2,1.1-0.2,1.7v0.2c0,0.6,0.1,1.1,0.2,1.7c0.1,0.5,0.4,1,0.6,1.4c0.3,0.4,0.6,0.7,1.1,1
	C155.9,177.8,156.4,178,157,178z M163.4,173.4c0-0.8,0.1-1.6,0.3-2.2c0.2-0.7,0.6-1.3,1-1.8c0.4-0.5,0.9-0.9,1.5-1.2
	c0.6-0.3,1.3-0.5,2-0.5c0.8,0,1.4,0.2,2,0.5c0.6,0.3,1.1,0.7,1.5,1.2c0.4,0.5,0.8,1.1,1,1.8c0.2,0.7,0.3,1.4,0.3,2.2
	c0,0.8-0.1,1.6-0.3,2.3c-0.2,0.7-0.5,1.3-1,1.8c-0.4,0.5-0.9,0.9-1.5,1.2s-1.3,0.4-2,0.4c-0.8,0-1.4-0.1-2-0.4
	c-0.6-0.3-1.1-0.7-1.5-1.2c-0.4-0.5-0.7-1.1-1-1.8C163.5,175,163.4,174.2,163.4,173.4z M171.7,173.3c0-0.6-0.1-1.1-0.2-1.7
	c-0.1-0.5-0.3-1-0.6-1.4c-0.3-0.4-0.6-0.7-1.1-1c-0.4-0.2-0.9-0.4-1.5-0.4s-1.1,0.1-1.5,0.4c-0.4,0.2-0.8,0.6-1.1,1
	c-0.3,0.4-0.5,0.9-0.6,1.4c-0.1,0.5-0.2,1.1-0.2,1.7v0.2c0,0.6,0.1,1.1,0.2,1.7c0.1,0.5,0.3,1,0.6,1.4c0.3,0.4,0.6,0.7,1.1,1
	c0.4,0.2,0.9,0.4,1.5,0.4s1.1-0.1,1.5-0.4c0.4-0.2,0.8-0.6,1.1-1c0.3-0.4,0.5-0.9,0.6-1.4c0.1-0.5,0.2-1.1,0.2-1.7V173.3z
	 M181.6,167.8h1.5l-3.5,11.2h-2l-3.5-11.2h1.5l2.9,10h0.1L181.6,167.8z M183.6,178.2c0-0.1,0-0.2,0.1-0.4c0.1-0.1,0.1-0.2,0.2-0.3
	c0.1-0.1,0.2-0.1,0.3-0.2c0.1-0.1,0.2-0.1,0.4-0.1s0.2,0,0.4,0.1c0.1,0,0.2,0.1,0.3,0.2c0.1,0.1,0.1,0.2,0.2,0.3
	c0.1,0.1,0.1,0.2,0.1,0.4s0,0.2-0.1,0.4c0,0.1-0.1,0.2-0.2,0.3c-0.1,0.1-0.2,0.1-0.3,0.2c-0.1,0.1-0.2,0.1-0.4,0.1s-0.2,0-0.4-0.1
	c-0.1,0-0.2-0.1-0.3-0.2c-0.1-0.1-0.1-0.2-0.2-0.3C183.6,178.5,183.6,178.4,183.6,178.2z M192.2,178c0.4,0,0.7-0.1,1-0.2
	c0.3-0.1,0.6-0.3,0.9-0.5c0.3-0.2,0.5-0.6,0.6-0.9c0.2-0.4,0.2-0.8,0.2-1.4v-7.2h1.3v7.3c0,0.6-0.1,1.2-0.3,1.7
	c-0.2,0.5-0.5,0.9-0.9,1.3c-0.4,0.3-0.8,0.6-1.3,0.8c-0.5,0.2-1,0.3-1.6,0.3c-0.6,0-1.1-0.1-1.6-0.3c-0.5-0.2-0.9-0.5-1.3-0.8
	c-0.4-0.3-0.7-0.8-0.9-1.3c-0.2-0.5-0.3-1-0.3-1.7v-7.3h1.4v7.2c0,0.5,0.1,1,0.2,1.4c0.2,0.4,0.4,0.7,0.6,0.9
	c0.3,0.2,0.5,0.4,0.9,0.5C191.5,177.9,191.9,178,192.2,178z M199.3,167.8h1.4v6l4.8-6h1.7l-3.7,4.4l4,6.8H206l-3.3-5.8l-1.9,2.4v3.4
	h-1.4V167.8z M211.7,173.4c0-0.8,0.1-1.6,0.3-2.2c0.2-0.7,0.6-1.3,1-1.8c0.4-0.5,0.9-0.9,1.5-1.2c0.6-0.3,1.3-0.5,2-0.5
	c0.8,0,1.4,0.2,2,0.5c0.6,0.3,1.1,0.7,1.5,1.2c0.4,0.5,0.8,1.1,1,1.8c0.2,0.7,0.3,1.4,0.3,2.2c0,0.8-0.1,1.6-0.3,2.3
	c-0.2,0.7-0.5,1.3-1,1.8c-0.4,0.5-0.9,0.9-1.5,1.2c-0.6,0.3-1.3,0.4-2,0.4c-0.8,0-1.4-0.1-2-0.4c-0.6-0.3-1.1-0.7-1.5-1.2
	c-0.4-0.5-0.7-1.1-1-1.8C211.8,175,211.7,174.2,211.7,173.4z M220,173.3c0-0.6-0.1-1.1-0.2-1.7c-0.1-0.5-0.3-1-0.6-1.4
	c-0.3-0.4-0.6-0.7-1.1-1c-0.4-0.2-0.9-0.4-1.5-0.4s-1.1,0.1-1.5,0.4c-0.4,0.2-0.8,0.6-1.1,1c-0.3,0.4-0.5,0.9-0.6,1.4
	c-0.1,0.5-0.2,1.1-0.2,1.7v0.2c0,0.6,0.1,1.1,0.2,1.7c0.1,0.5,0.3,1,0.6,1.4c0.3,0.4,0.6,0.7,1.1,1c0.4,0.2,0.9,0.4,1.5,0.4
	s1.1-0.1,1.5-0.4c0.4-0.2,0.8-0.6,1.1-1c0.3-0.4,0.5-0.9,0.6-1.4c0.1-0.5,0.2-1.1,0.2-1.7V173.3z M223.5,171h1.3v0.9
	c0.3-0.4,0.6-0.6,1-0.8c0.4-0.2,0.8-0.3,1.3-0.3c0.4,0,0.8,0.1,1.2,0.2c0.3,0.1,0.6,0.3,0.8,0.6s0.4,0.5,0.5,0.9
	c0.1,0.3,0.2,0.7,0.2,1v5.4h-1.3v-5c0-0.3,0-0.6-0.1-0.9c-0.1-0.2-0.2-0.5-0.4-0.6c-0.1-0.2-0.3-0.3-0.5-0.3
	c-0.2-0.1-0.4-0.1-0.6-0.1c-0.2,0-0.5,0-0.7,0.1c-0.2,0.1-0.5,0.2-0.7,0.4c-0.2,0.2-0.3,0.4-0.5,0.7c-0.1,0.3-0.2,0.6-0.2,1v4.7
	h-1.3V171z M233,175.4c0,0.4,0.1,0.7,0.2,1c0.1,0.3,0.3,0.6,0.5,0.8c0.2,0.2,0.5,0.4,0.8,0.5c0.3,0.1,0.6,0.2,1,0.2
	c0.4,0,0.8-0.1,1.2-0.2c0.3-0.2,0.6-0.3,0.9-0.6l0.7,0.9c-0.4,0.3-0.8,0.5-1.2,0.7c-0.5,0.2-1,0.3-1.6,0.3c-0.6,0-1.1-0.1-1.6-0.3
	c-0.5-0.2-0.9-0.5-1.2-0.9c-0.3-0.4-0.6-0.8-0.8-1.3c-0.2-0.5-0.3-1.1-0.3-1.7c0-0.6,0.1-1.2,0.3-1.7c0.2-0.5,0.4-0.9,0.7-1.3
	c0.3-0.4,0.7-0.7,1.1-0.9c0.4-0.2,0.9-0.3,1.5-0.3c0.5,0,1,0.1,1.4,0.3c0.4,0.2,0.8,0.5,1.1,0.9c0.3,0.4,0.5,0.8,0.7,1.3
	c0.2,0.5,0.2,1.1,0.2,1.7v0.4H233z M235.2,172c-0.3,0-0.6,0.1-0.9,0.2c-0.3,0.1-0.5,0.3-0.7,0.5c-0.2,0.2-0.3,0.5-0.4,0.8
	c-0.1,0.3-0.2,0.6-0.2,0.9h4.2c0-0.3-0.1-0.6-0.2-0.9c-0.1-0.3-0.2-0.5-0.4-0.8c-0.2-0.2-0.4-0.4-0.6-0.5
	C235.8,172.1,235.5,172,235.2,172z M54.5,187.8h1.4v10h4.5v1.2h-5.9V187.8z M64.9,190.9c0.6,0,1.1,0.1,1.5,0.3
	c0.5,0.2,0.8,0.5,1.2,0.9c0.3,0.4,0.6,0.8,0.8,1.3c0.2,0.5,0.3,1.1,0.3,1.7c0,0.6-0.1,1.2-0.3,1.7c-0.2,0.5-0.4,0.9-0.8,1.3
	c-0.3,0.4-0.7,0.7-1.2,0.9c-0.5,0.2-1,0.3-1.5,0.3c-0.6,0-1.1-0.1-1.5-0.3c-0.4-0.2-0.8-0.5-1.2-0.9c-0.3-0.4-0.6-0.8-0.8-1.3
	c-0.2-0.5-0.3-1.1-0.3-1.7c0-0.6,0.1-1.2,0.3-1.7c0.2-0.5,0.4-0.9,0.8-1.3c0.3-0.4,0.7-0.7,1.2-0.9C63.9,191,64.4,190.9,64.9,190.9z
	 M64.9,198c0.4,0,0.7-0.1,1-0.2c0.3-0.2,0.5-0.4,0.7-0.6c0.2-0.3,0.3-0.6,0.4-0.9c0.1-0.4,0.1-0.7,0.1-1.1V195c0-0.4,0-0.8-0.1-1.1
	c-0.1-0.4-0.2-0.7-0.4-0.9c-0.2-0.3-0.4-0.5-0.7-0.6c-0.3-0.2-0.6-0.2-1-0.2c-0.4,0-0.7,0.1-1,0.2c-0.3,0.2-0.5,0.4-0.7,0.6
	c-0.2,0.3-0.3,0.6-0.4,0.9c-0.1,0.4-0.1,0.7-0.1,1.1v0.1c0,0.4,0,0.8,0.1,1.1c0.1,0.4,0.2,0.7,0.4,0.9c0.2,0.3,0.4,0.5,0.7,0.6
	C64.2,197.9,64.5,198,64.9,198z M70.1,194.6c0-0.5,0.1-1,0.2-1.5c0.2-0.5,0.4-0.8,0.6-1.2c0.3-0.3,0.6-0.6,1-0.8
	c0.4-0.2,0.8-0.3,1.3-0.3c0.4,0,0.9,0.1,1.2,0.3c0.4,0.2,0.7,0.4,1,0.8V191h1.3v8c0,0.5-0.1,0.9-0.3,1.2c-0.2,0.3-0.5,0.6-0.8,0.8
	c-0.3,0.2-0.7,0.3-1.1,0.4c-0.4,0.1-0.8,0.1-1.2,0.1c-0.2,0-0.5,0-0.7,0c-0.2,0-0.5-0.1-0.8-0.1c-0.3-0.1-0.5-0.1-0.8-0.2
	c-0.2-0.1-0.5-0.2-0.7-0.3l0.5-1.1c0.2,0.1,0.3,0.1,0.5,0.2c0.2,0.1,0.4,0.1,0.6,0.2c0.2,0.1,0.4,0.1,0.6,0.1c0.2,0,0.5,0.1,0.8,0.1
	c0.3,0,0.6,0,0.9-0.1c0.3-0.1,0.5-0.2,0.7-0.3c0.2-0.1,0.3-0.3,0.4-0.5c0.1-0.2,0.1-0.5,0.1-0.8v-1.5c-0.3,0.4-0.6,0.6-1,0.8
	c-0.4,0.2-0.8,0.2-1.2,0.2c-0.5,0-0.9-0.1-1.3-0.3c-0.4-0.2-0.7-0.5-1-0.8c-0.3-0.3-0.5-0.7-0.6-1.2
	C70.2,195.6,70.1,195.1,70.1,194.6z M75.6,194.5c0-0.4,0-0.7-0.1-1c-0.1-0.3-0.2-0.6-0.4-0.8c-0.2-0.2-0.4-0.4-0.6-0.5
	c-0.3-0.1-0.6-0.2-0.9-0.2c-0.4,0-0.7,0.1-0.9,0.2c-0.3,0.1-0.5,0.3-0.7,0.5c-0.2,0.2-0.3,0.5-0.4,0.8c-0.1,0.3-0.1,0.6-0.1,1v0.1
	c0,0.3,0,0.7,0.1,1c0.1,0.3,0.2,0.6,0.4,0.8c0.2,0.2,0.4,0.4,0.7,0.5c0.3,0.1,0.6,0.2,0.9,0.2c0.4,0,0.7-0.1,0.9-0.2
	c0.3-0.1,0.5-0.3,0.6-0.5c0.2-0.2,0.3-0.5,0.4-0.8C75.6,195.3,75.6,195,75.6,194.5L75.6,194.5z M80.6,199h-1.3v-8h1.3V199z
	 M79,188.7c0-0.1,0-0.2,0.1-0.4c0.1-0.1,0.1-0.2,0.2-0.3c0.1-0.1,0.2-0.1,0.3-0.2c0.1-0.1,0.2-0.1,0.4-0.1s0.2,0,0.4,0.1
	c0.1,0,0.2,0.1,0.3,0.2c0.1,0.1,0.1,0.2,0.2,0.3c0.1,0.1,0.1,0.2,0.1,0.4s0,0.2-0.1,0.4c0,0.1-0.1,0.2-0.2,0.3
	c-0.1,0.1-0.2,0.1-0.3,0.2c-0.1,0-0.2,0.1-0.4,0.1s-0.2,0-0.4-0.1c-0.1-0.1-0.2-0.1-0.3-0.2c-0.1-0.1-0.1-0.2-0.2-0.3
	C79.1,189,79,188.8,79,188.7z M83,191h1.3v0.9c0.3-0.4,0.6-0.6,1-0.8c0.4-0.2,0.8-0.3,1.3-0.3c0.4,0,0.8,0.1,1.2,0.2
	s0.6,0.3,0.8,0.6c0.2,0.2,0.4,0.5,0.5,0.9c0.1,0.3,0.2,0.7,0.2,1v5.4H88v-5c0-0.3,0-0.6-0.1-0.9c-0.1-0.2-0.2-0.5-0.4-0.6
	c-0.1-0.2-0.3-0.3-0.5-0.3c-0.2-0.1-0.4-0.1-0.6-0.1c-0.2,0-0.5,0-0.7,0.1c-0.2,0.1-0.5,0.2-0.7,0.4c-0.2,0.2-0.3,0.4-0.5,0.7
	c-0.1,0.3-0.2,0.6-0.2,1v4.7H83V191z"/>
<path class="st3" d="M109.8,162h130.8v1.1H109.8V162z M53,182h186.3v1.1H53V182z M53,202h37.5v1.1H53V202z"/>
<rect x="20" y="235" class="st2" width="248" height="8"/>
<rect x="20" y="258" class="st2" width="194" height="8"/>
<rect x="20" y="281" class="st2" width="248" height="8"/>
<rect x="20" y="304" class="st2" width="194" height="8"/>
<rect x="2.5" y="2.5" class="st4" width="285" height="332"/>
<path class="st5" d="M32.1,12.2c-0.8,0.3-1.5-0.1-1.8-0.8C30,10.7,30.3,9.9,31,9.6c0.7-0.3,1.5,0.1,1.8,0.8S32.7,11.9,32.1,12.2
	 M27.6,17.2c-0.7,0.3-1.5-0.1-1.8-0.8c-0.3-0.7,0.1-1.5,0.8-1.8c0.7-0.3,1.5,0.1,1.8,0.8C28.7,16.1,28.3,16.9,27.6,17.2 M35.8,14.4
	c-0.8,0.3-1.5-0.1-1.8-0.8s0.1-1.5,0.8-1.8c0.7-0.3,1.5,0.1,1.8,0.8C36.8,13.3,36.5,14.1,35.8,14.4 M38.3,18.1
	c-0.8,0.3-1.5-0.1-1.8-0.8c-0.3-0.7,0.1-1.5,0.8-1.8c0.7-0.3,1.5,0.1,1.8,0.8C39.3,16.9,38.9,17.8,38.3,18.1 M27.8,7.9l1.7,0.9V6.2
	l-1.7,0.5l-0.2-0.2l0.7-2.3h-2.6l0.7,2.3l-0.2,0.2c-0.1,0.1-1.7-0.5-1.7-0.5v2.6l1.7-0.9C26.4,7.9,26.4,8,26.5,8l-1,3
	c-0.1,0.2-0.1,0.3-0.1,0.5c0,0.8,0.6,1.5,1.4,1.7h0.5c0.8-0.2,1.4-0.8,1.4-1.6c0-0.2,0-0.3-0.1-0.5l-1-3C27.7,7.9,27.8,7.9,27.8,7.9
	 M22.1,12.2c0.7,0.3,1.5-0.1,1.8-0.8c0.3-0.7-0.1-1.5-0.8-1.8c-0.7-0.3-1.5,0.1-1.8,0.8C21,11,21.3,11.9,22.1,12.2 M18.3,14.4
	c0.7,0.3,1.5-0.1,1.8-0.8c0.3-0.7-0.1-1.5-0.8-1.8c-0.7-0.3-1.5,0.1-1.8,0.8C17.3,13.3,17.6,14.1,18.3,14.4 M15.9,18.1
	c0.7,0.3,1.5-0.1,1.8-0.8c0.3-0.7-0.1-1.5-0.8-1.8c-0.7-0.3-1.5,0.1-1.8,0.8C14.8,16.9,15.1,17.8,15.9,18.1 M27.1,26.4
	c3.3,0,6.5,0.2,9.3,0.6c0.8-3.4,1.8-5.3,2.8-6.6l-1.9-0.7c0.2,1,0.2,1.4,0,2c-0.3-0.3-0.6-0.8-0.8-1.7l-0.9,3c0.5-0.4,1-0.6,1.5-0.7
	c-0.8,1.9-2,2.3-2.6,2.3c-0.8-0.2-1.3-0.9-1.1-1.6c0.2-0.9,1.1-1.1,1.6-0.1c0.8-1.7-0.6-2.3-1.5-1.7c1.4-1.4,1.6-2.6,0.5-4.2
	c-1.6,1.2-1.6,2.4-0.9,4.2C32,20,30.5,20.6,31,22.3c0.7-1.1,1.6-0.4,1.4,0.6c-0.2,0.8-1.3,1.6-2.6,1.4c-2-0.2-2.2-1.6-2.2-2.7
	c0.5-0.1,1.4,0.4,2.2,1.4l0.3-3.2c-0.8,0.8-1.6,1.1-2.4,1.1c0.3-0.9,1.6-2.3,1.6-2.3h-4.1c0,0,1.3,1.4,1.6,2.3
	c-0.8,0-1.6-0.2-2.4-1.1l0.3,3.2c0.8-1.1,1.7-1.5,2.2-1.4c-0.1,1.1-0.2,2.6-2.2,2.7c-1.4,0.2-2.6-0.6-2.6-1.4
	c-0.2-1,0.8-1.7,1.4-0.6c0.5-1.7-0.9-2.3-1.9-1.2c0.7-1.7,0.7-2.9-0.9-4.2c-1.1,1.5-1,2.8,0.5,4.2c-0.9-0.5-2.3,0-1.5,1.7
	c0.5-1.1,1.4-0.8,1.6,0.1c0.2,0.7-0.2,1.4-1.1,1.6c-0.7,0.2-1.8-0.4-2.6-2.3c0.5,0,0.9,0.2,1.5,0.7l-0.9-3c-0.2,0.8-0.5,1.4-0.8,1.7
	c-0.2-0.6-0.2-1.1,0-2L15,20.3c1,1.4,2,3.2,2.8,6.6C20.6,26.6,23.8,26.4,27.1,26.4"/>
</svg>
