<svg width="290" height="337" viewBox="0 0 290 337" fill="none" xmlns="http://www.w3.org/2000/svg">
<rect x="2.5" y="2.5" width="285" height="332" fill="white"/>
<rect width="290" height="60" fill="black"/>
<path d="M50.9976 16.3853C50.9976 16.9543 51.0687 17.5016 51.2109 18.0273C51.3532 18.5531 51.5697 19.0169 51.8604 19.4189C52.151 19.821 52.5221 20.1457 52.9736 20.3931C53.4251 20.6343 53.9632 20.7549 54.5879 20.7549C55.1878 20.7549 55.6857 20.659 56.0815 20.4673C56.4836 20.2756 56.8021 20.0374 57.0371 19.7529C57.2783 19.4622 57.4453 19.1499 57.5381 18.8159C57.637 18.4819 57.6865 18.1727 57.6865 17.8882V17.7583H54.2817V15.708H60.3027V23H57.9463V21.4414C57.7793 21.7012 57.5721 21.9393 57.3247 22.1558C57.0773 22.366 56.799 22.5485 56.4897 22.7031C56.1805 22.8516 55.8403 22.9691 55.4692 23.0557C55.1043 23.1423 54.7147 23.1855 54.3003 23.1855C53.3293 23.1855 52.4665 23.0093 51.7119 22.6567C50.9574 22.3042 50.3203 21.8187 49.8008 21.2002C49.2874 20.5817 48.8947 19.8581 48.6226 19.0293C48.3566 18.2005 48.2236 17.3068 48.2236 16.3481C48.2236 15.3957 48.3721 14.505 48.6689 13.6763C48.972 12.8413 49.3988 12.1177 49.9492 11.5054C50.5059 10.8869 51.1738 10.4014 51.9531 10.0488C52.7386 9.6901 53.6169 9.51074 54.5879 9.51074C55.2188 9.51074 55.8156 9.58496 56.3784 9.7334C56.9474 9.87565 57.4639 10.0828 57.9277 10.355C58.3978 10.6209 58.8122 10.9456 59.1709 11.3291C59.5296 11.7064 59.8203 12.127 60.043 12.5908L57.6865 13.9175C57.5443 13.633 57.3773 13.3701 57.1855 13.1289C56.9938 12.8815 56.7712 12.6712 56.5176 12.498C56.2702 12.3187 55.9857 12.1795 55.6641 12.0806C55.3424 11.9754 54.9837 11.9229 54.5879 11.9229C53.9632 11.9229 53.4251 12.0465 52.9736 12.2939C52.5221 12.5352 52.151 12.8568 51.8604 13.2588C51.5697 13.6608 51.3532 14.1278 51.2109 14.6597C51.0687 15.1854 50.9976 15.7297 50.9976 16.2925V16.3853ZM68.3555 9.51074C69.3451 9.51074 70.2326 9.6901 71.0181 10.0488C71.8035 10.4014 72.4684 10.8869 73.0127 11.5054C73.5632 12.1177 73.9806 12.8413 74.2651 13.6763C74.5558 14.505 74.7012 15.3957 74.7012 16.3481C74.7012 17.3068 74.5558 18.2005 74.2651 19.0293C73.9806 19.8581 73.5632 20.5817 73.0127 21.2002C72.4684 21.8187 71.8035 22.3042 71.0181 22.6567C70.2326 23.0093 69.3451 23.1855 68.3555 23.1855C67.3597 23.1855 66.4691 23.0093 65.6836 22.6567C64.9043 22.3042 64.2394 21.8187 63.689 21.2002C63.1447 20.5817 62.7272 19.8581 62.4365 19.0293C62.152 18.2005 62.0098 17.3068 62.0098 16.3481C62.0098 15.3957 62.152 14.505 62.4365 13.6763C62.7272 12.8413 63.1447 12.1177 63.689 11.5054C64.2394 10.8869 64.9043 10.4014 65.6836 10.0488C66.4691 9.6901 67.3597 9.51074 68.3555 9.51074ZM68.3555 20.7549C68.9368 20.7549 69.4471 20.6466 69.8862 20.4302C70.3315 20.2075 70.7057 19.9014 71.0088 19.5117C71.3118 19.1221 71.5407 18.6613 71.6953 18.1294C71.8499 17.5975 71.9272 17.0161 71.9272 16.3853V16.311C71.9272 15.6864 71.8499 15.1081 71.6953 14.5762C71.5407 14.0381 71.3118 13.5742 71.0088 13.1846C70.7057 12.7949 70.3315 12.4919 69.8862 12.2754C69.4471 12.0527 68.9368 11.9414 68.3555 11.9414C67.7741 11.9414 67.2607 12.0527 66.8154 12.2754C66.3701 12.4919 65.9959 12.7949 65.6929 13.1846C65.396 13.5742 65.1702 14.0381 65.0156 14.5762C64.861 15.1081 64.7837 15.6864 64.7837 16.311V16.3853C64.7837 17.0161 64.861 17.5975 65.0156 18.1294C65.1702 18.6613 65.396 19.1221 65.6929 19.5117C65.9959 19.9014 66.3701 20.2075 66.8154 20.4302C67.2607 20.6466 67.7741 20.7549 68.3555 20.7549ZM79.4883 23L75.731 9.69629H78.7461L81.3159 19.6973H81.4087L83.9229 9.69629H86.9009L83.1436 23H79.4883ZM87.2812 21.4971C87.2812 21.2682 87.3245 21.0549 87.4111 20.8569C87.5039 20.6528 87.6276 20.4766 87.7822 20.3281C87.9368 20.1735 88.1162 20.0529 88.3203 19.9663C88.5306 19.8735 88.7502 19.8271 88.979 19.8271C89.2078 19.8271 89.4243 19.8735 89.6284 19.9663C89.8325 20.0529 90.0119 20.1735 90.1665 20.3281C90.3211 20.4766 90.4417 20.6528 90.5283 20.8569C90.6211 21.0549 90.6675 21.2682 90.6675 21.4971C90.6675 21.7321 90.6211 21.9517 90.5283 22.1558C90.4417 22.3599 90.3211 22.5392 90.1665 22.6938C90.0119 22.8485 89.8325 22.9691 89.6284 23.0557C89.4243 23.1423 89.2078 23.1855 88.979 23.1855C88.7502 23.1855 88.5306 23.1423 88.3203 23.0557C88.1162 22.9691 87.9368 22.8485 87.7822 22.6938C87.6276 22.5392 87.5039 22.3599 87.4111 22.1558C87.3245 21.9517 87.2812 21.7321 87.2812 21.4971ZM98.2378 20.7549C98.6274 20.7549 98.9893 20.6992 99.3232 20.5879C99.6634 20.4704 99.9541 20.2972 100.195 20.0684C100.443 19.8333 100.638 19.5396 100.78 19.187C100.922 18.8283 100.993 18.4077 100.993 17.9253V9.67773H103.646V18.3242C103.646 19.0664 103.51 19.7375 103.238 20.3374C102.972 20.9373 102.598 21.4476 102.116 21.8682C101.639 22.2887 101.07 22.6134 100.409 22.8423C99.7469 23.0711 99.0233 23.1855 98.2378 23.1855C97.4523 23.1855 96.7287 23.0711 96.0669 22.8423C95.4051 22.6134 94.833 22.2887 94.3506 21.8682C93.8682 21.4476 93.4909 20.9373 93.2188 20.3374C92.9528 19.7375 92.8198 19.0664 92.8198 18.3242V9.67773H95.4824V17.9253C95.4824 18.4077 95.5535 18.8283 95.6958 19.187C95.8381 19.5396 96.0298 19.8333 96.271 20.0684C96.5184 20.2972 96.8091 20.4704 97.1431 20.5879C97.4832 20.6992 97.8481 20.7549 98.2378 20.7549ZM106.281 9.69629H108.972V15.4575L113.722 9.69629H117.034L112.414 14.9844L117.331 23H114.204L110.688 17.0347L108.972 18.9551V23H106.281V9.69629Z" fill="white"/>
<path fill-rule="evenodd" clip-rule="evenodd" d="M19.56 11.7507C20.2223 12.033 20.9746 11.7103 21.2439 11.0324C21.5154 10.3566 21.2048 9.57117 20.5426 9.29034C19.8929 9.01384 19.1378 9.34304 18.8677 10.0217C18.5976 10.6967 18.9103 11.4749 19.56 11.7507Z" fill="white"/>
<path fill-rule="evenodd" clip-rule="evenodd" d="M16.643 13.5185C17.306 13.8015 18.0569 13.478 18.3269 12.8001C18.5984 12.1244 18.2879 11.339 17.6249 11.0574C16.9759 10.7816 16.2208 11.1116 15.9507 11.7902C15.6806 12.4645 15.9933 13.2427 16.643 13.5185Z" fill="white"/>
<path fill-rule="evenodd" clip-rule="evenodd" d="M17.4741 16.1547C17.7456 15.479 17.435 14.6936 16.7728 14.412C16.123 14.1362 15.368 14.4654 15.0972 15.144C14.8271 15.819 15.1398 16.5973 15.7895 16.8723C16.4524 17.1553 17.204 16.8319 17.4741 16.1547Z" fill="white"/>
<path fill-rule="evenodd" clip-rule="evenodd" d="M22.8139 12.8135C23.4762 13.0958 24.2285 12.7731 24.4978 12.0952C24.7693 11.4194 24.4588 10.634 23.7965 10.3524C23.1468 10.0766 22.3917 10.4058 22.1216 11.0852C21.8515 11.7595 22.1642 12.5377 22.8139 12.8135Z" fill="white"/>
<path fill-rule="evenodd" clip-rule="evenodd" d="M34.6077 11.7507C35.2574 11.4749 35.57 10.6967 35.2992 10.0217C35.0292 9.34304 34.2748 9.01384 33.6244 9.29034C32.9621 9.57117 32.6522 10.3566 32.923 11.0324C33.1931 11.7103 33.9447 12.033 34.6077 11.7507Z" fill="white"/>
<path fill-rule="evenodd" clip-rule="evenodd" d="M37.5233 13.5185C38.173 13.2427 38.4856 12.4645 38.2156 11.7902C37.9455 11.1116 37.1904 10.7816 36.5407 11.0574C35.8784 11.339 35.5679 12.1244 35.8393 12.8001C36.1087 13.478 36.861 13.8015 37.5233 13.5185Z" fill="white"/>
<path fill-rule="evenodd" clip-rule="evenodd" d="M39.0691 15.144C38.799 14.4654 38.0439 14.1362 37.3942 14.412C36.7319 14.6936 36.4214 15.479 36.6928 16.1547C36.9622 16.8319 37.7145 17.1553 38.3768 16.8723C39.0272 16.598 39.3398 15.819 39.0691 15.144Z" fill="white"/>
<path fill-rule="evenodd" clip-rule="evenodd" d="M31.3527 12.8135C32.0024 12.5377 32.315 11.7595 32.0443 11.0852C31.7749 10.4058 31.0198 10.0766 30.3701 10.3524C29.7078 10.634 29.3973 11.4194 29.668 12.0952C29.9381 12.7731 30.6897 13.0958 31.3527 12.8135Z" fill="white"/>
<path fill-rule="evenodd" clip-rule="evenodd" d="M26.3989 9.3743C26.4471 9.44 26.5036 9.49775 26.5671 9.54684L25.632 12.4649C25.6313 12.4685 25.6299 12.4721 25.6292 12.4757L25.6278 12.4786L25.6285 12.4793C25.5845 12.6244 25.5608 12.7796 25.5608 12.9399C25.5608 13.729 26.1246 14.3809 26.8574 14.4928C26.8679 14.4942 26.879 14.4964 26.8902 14.4978C26.953 14.5065 27.0158 14.5116 27.0807 14.5116C27.1456 14.5116 27.2091 14.5065 27.2712 14.4978C27.2824 14.4964 27.2936 14.4942 27.304 14.4928C28.0368 14.3809 28.6007 13.729 28.6007 12.9399C28.6007 12.7796 28.577 12.6244 28.5337 12.4793V12.4786L28.533 12.4757C28.5323 12.4721 28.5309 12.4685 28.5295 12.4649L27.5944 9.54684C27.6579 9.49775 27.7144 9.44 27.7632 9.3743L27.7667 9.37069L29.3948 10.2551V7.77234L27.7688 8.30512L27.7639 8.30007C27.7186 8.23871 27.6655 8.18312 27.6062 8.13547L27.6013 8.13042L28.2559 6L27.0807 6.00072L25.9055 6L26.5601 8.13042L26.5552 8.13547C26.4959 8.18312 26.4429 8.23871 26.3975 8.30007L26.3926 8.30512L24.7666 7.77234V10.2551L26.3954 9.37069L26.3989 9.3743Z" fill="white"/>
<path fill-rule="evenodd" clip-rule="evenodd" d="M36.5311 19.1757C36.2422 18.884 35.9686 18.3462 35.7551 17.5254L34.9065 20.4485C35.4229 20.081 35.8207 19.8435 36.2764 19.8327C35.469 21.6317 34.4599 22.0952 33.806 21.9703C33.0076 21.8187 32.6405 21.0823 32.7647 20.4579C32.9483 19.5728 33.8262 19.3425 34.2358 20.3719C35.0209 18.7173 33.6901 18.2011 32.8338 18.6913C34.1486 17.3341 34.2994 16.1277 33.2379 14.668C31.7584 15.8375 31.7417 16.9962 32.4067 18.6256C31.5428 17.6026 30.1994 18.152 30.6851 19.8045C31.3076 18.8068 32.1325 19.4342 32.0027 20.382C31.8931 21.2072 30.84 21.8743 29.5273 21.7559C27.6473 21.5797 27.5356 20.2369 27.4882 19.1259C27.9502 19.0371 28.7827 19.4811 29.4925 20.512L29.7542 17.4113C28.9823 18.2437 28.2803 18.4018 27.5007 18.4278C27.7604 17.5903 28.953 16.218 28.953 16.218H27.2202H27.2195H27.2181H25.2117C25.2117 16.218 26.4044 17.5903 26.664 18.4278C25.8845 18.4018 25.1824 18.2437 24.4106 17.4113L24.6716 20.512C25.382 19.4811 26.2139 19.0378 26.6766 19.1259C26.6298 20.2369 26.5181 21.5797 24.6374 21.7559C23.3247 21.8743 22.2709 21.2072 22.1621 20.382C22.0323 19.4342 22.8571 18.8068 23.4803 19.8045C23.9654 18.152 22.6213 17.6026 21.758 18.6256C22.4231 16.9962 22.4056 15.8375 20.9268 14.668C19.8654 16.1277 20.0161 17.3341 21.3309 18.6913C20.4746 18.2011 19.1445 18.7173 19.9282 20.3719C20.3385 19.3425 21.2172 19.5728 21.4 20.4579C21.5235 21.0823 21.1564 21.8194 20.3588 21.9703C19.7049 22.0952 18.6965 21.6317 17.8883 19.8327C18.344 19.8435 18.7418 20.081 19.2582 20.4485L18.4096 17.5254C18.1961 18.3462 17.9225 18.884 17.6336 19.1757C17.4382 18.5844 17.4661 18.1563 17.6399 17.2359L15.8896 17.8813C16.8192 19.1945 17.7202 21.0383 18.4599 24.2566C21.0657 23.8711 23.9898 23.6546 27.0806 23.6546C30.1715 23.6546 33.0976 23.8711 35.7049 24.2574C36.4446 21.0383 37.3448 19.1945 38.2751 17.8813L36.5242 17.2359C36.6986 18.1563 36.7258 18.5844 36.5311 19.1757Z" fill="white"/>
<path d="M16.9219 46.8516C17.0677 47.0182 17.2448 47.1823 17.4531 47.3438C17.6615 47.5052 17.8906 47.651 18.1406 47.7812C18.3958 47.9062 18.6719 48.0078 18.9688 48.0859C19.2656 48.1589 19.5859 48.1953 19.9297 48.1953C20.5703 48.1953 21.0599 48.0625 21.3984 47.7969C21.7422 47.526 21.9141 47.1979 21.9141 46.8125C21.9141 46.4115 21.763 46.1068 21.4609 45.8984C21.1641 45.6901 20.6901 45.526 20.0391 45.4062L19.6875 45.3438C19.2188 45.2604 18.7526 45.151 18.2891 45.0156C17.8255 44.8802 17.4062 44.6849 17.0312 44.4297C16.6562 44.1745 16.3516 43.849 16.1172 43.4531C15.8828 43.0521 15.7656 42.5469 15.7656 41.9375C15.7656 41.5833 15.8438 41.2135 16 40.8281C16.1562 40.4375 16.4036 40.0807 16.7422 39.7578C17.0859 39.4297 17.526 39.1615 18.0625 38.9531C18.6042 38.7448 19.2578 38.6406 20.0234 38.6406C20.9297 38.6406 21.737 38.7917 22.4453 39.0938C23.1589 39.3906 23.7344 39.7839 24.1719 40.2734L22.6641 41.6797C22.3568 41.3411 21.9609 41.0755 21.4766 40.8828C20.9974 40.6901 20.5026 40.5938 19.9922 40.5938C19.4036 40.5938 18.9427 40.7057 18.6094 40.9297C18.2812 41.1536 18.1172 41.4453 18.1172 41.8047C18.1172 42.0391 18.1693 42.2344 18.2734 42.3906C18.3828 42.5469 18.5339 42.6771 18.7266 42.7812C18.9193 42.8802 19.151 42.9635 19.4219 43.0312C19.6927 43.099 19.9948 43.1667 20.3281 43.2344L20.5078 43.2656C20.9557 43.349 21.401 43.4557 21.8438 43.5859C22.2865 43.7109 22.6875 43.8984 23.0469 44.1484C23.4115 44.3932 23.7057 44.7161 23.9297 45.1172C24.1536 45.513 24.2656 46.0208 24.2656 46.6406C24.2656 47.2031 24.1484 47.7005 23.9141 48.1328C23.6797 48.5651 23.3698 48.9349 22.9844 49.2422C22.599 49.5443 22.1536 49.7734 21.6484 49.9297C21.1432 50.0807 20.6172 50.1562 20.0703 50.1562C19.5182 50.1562 19.0052 50.1094 18.5312 50.0156C18.0625 49.9219 17.6354 49.7891 17.25 49.6172C16.8698 49.4453 16.5286 49.2526 16.2266 49.0391C15.9297 48.8255 15.6693 48.5964 15.4453 48.3516L16.9219 46.8516ZM27.75 46.5625C27.7865 46.8125 27.8646 47.0417 27.9844 47.25C28.1094 47.4583 28.2656 47.638 28.4531 47.7891C28.6406 47.9349 28.8568 48.0495 29.1016 48.1328C29.3464 48.2161 29.6068 48.2578 29.8828 48.2578C30.2005 48.2578 30.5443 48.1979 30.9141 48.0781C31.2839 47.9531 31.6224 47.7734 31.9297 47.5391L32.9688 49.0547C32.5781 49.3828 32.099 49.6484 31.5312 49.8516C30.9635 50.0547 30.3594 50.1562 29.7188 50.1562C29.1406 50.1562 28.5964 50.0573 28.0859 49.8594C27.5755 49.6615 27.1276 49.375 26.7422 49C26.362 48.625 26.0599 48.1693 25.8359 47.6328C25.6172 47.0964 25.5078 46.4922 25.5078 45.8203C25.5078 45.2057 25.6042 44.6328 25.7969 44.1016C25.9948 43.5703 26.2682 43.1094 26.6172 42.7188C26.9714 42.3281 27.3932 42.0234 27.8828 41.8047C28.3724 41.5807 28.9141 41.4688 29.5078 41.4688C30.0599 41.4688 30.5729 41.5703 31.0469 41.7734C31.5208 41.9714 31.9323 42.2526 32.2812 42.6172C32.6302 42.9766 32.9036 43.4089 33.1016 43.9141C33.2995 44.4193 33.3984 44.9766 33.3984 45.5859V46.5625H27.75ZM29.5 43.3438C29.0365 43.3438 28.6432 43.5 28.3203 43.8125C28.0026 44.1198 27.8177 44.4922 27.7656 44.9297H31.1406C31.1302 44.487 30.9688 44.112 30.6562 43.8047C30.3438 43.4974 29.9583 43.3438 29.5 43.3438ZM39.4766 43.7266H39.25C38.9427 43.7266 38.6484 43.7578 38.3672 43.8203C38.0911 43.8828 37.8464 43.9974 37.6328 44.1641C37.4193 44.3255 37.2474 44.5495 37.1172 44.8359C36.9922 45.1224 36.9297 45.4896 36.9297 45.9375V50H34.7734V41.6328H36.9297V42.5781C37.0182 42.4375 37.1328 42.3021 37.2734 42.1719C37.4141 42.0417 37.5781 41.9271 37.7656 41.8281C37.9531 41.724 38.1641 41.6406 38.3984 41.5781C38.6328 41.5156 38.8854 41.4844 39.1562 41.4844H39.4766V43.7266ZM42.5938 50L40.0312 41.6328H42.4375L43.9375 47.3906L45.4766 41.6328H47.8438L45.2969 50H42.5938ZM51.0703 50H48.9141V41.6328H51.0703V50ZM48.6875 39.4375C48.6875 39.2604 48.7214 39.0938 48.7891 38.9375C48.8568 38.776 48.9479 38.638 49.0625 38.5234C49.1823 38.4036 49.3203 38.3099 49.4766 38.2422C49.6328 38.1745 49.8021 38.1406 49.9844 38.1406C50.1615 38.1406 50.3281 38.1745 50.4844 38.2422C50.6458 38.3099 50.7839 38.4036 50.8984 38.5234C51.0182 38.638 51.112 38.776 51.1797 38.9375C51.2474 39.0938 51.2812 39.2604 51.2812 39.4375C51.2812 39.6198 51.2474 39.7891 51.1797 39.9453C51.112 40.1016 51.0182 40.2396 50.8984 40.3594C50.7839 40.474 50.6458 40.5651 50.4844 40.6328C50.3281 40.7005 50.1615 40.7344 49.9844 40.7344C49.8021 40.7344 49.6328 40.7005 49.4766 40.6328C49.3203 40.5651 49.1823 40.474 49.0625 40.3594C48.9479 40.2396 48.8568 40.1016 48.7891 39.9453C48.7214 39.7891 48.6875 39.6198 48.6875 39.4375ZM54.7188 45.8594C54.7188 46.1302 54.7552 46.4036 54.8281 46.6797C54.901 46.9505 55.013 47.1953 55.1641 47.4141C55.3151 47.6328 55.5078 47.8125 55.7422 47.9531C55.9818 48.0885 56.2656 48.1562 56.5938 48.1562C56.8073 48.1562 57 48.1276 57.1719 48.0703C57.349 48.013 57.5052 47.9349 57.6406 47.8359C57.7812 47.7318 57.9036 47.612 58.0078 47.4766C58.1172 47.3359 58.2109 47.1849 58.2891 47.0234L60.1797 48C60.0443 48.3281 59.8568 48.625 59.6172 48.8906C59.3828 49.1562 59.1094 49.3828 58.7969 49.5703C58.4844 49.7578 58.138 49.901 57.7578 50C57.3776 50.1042 56.974 50.1562 56.5469 50.1562C55.9583 50.1562 55.4167 50.0469 54.9219 49.8281C54.4271 49.6042 54 49.2995 53.6406 48.9141C53.2812 48.5286 53 48.0729 52.7969 47.5469C52.5938 47.0156 52.4922 46.4401 52.4922 45.8203C52.4922 45.2057 52.5938 44.6328 52.7969 44.1016C53 43.5703 53.2812 43.1094 53.6406 42.7188C54 42.3281 54.4271 42.0234 54.9219 41.8047C55.4167 41.5807 55.9583 41.4688 56.5469 41.4688C56.974 41.4688 57.3776 41.5208 57.7578 41.625C58.138 41.724 58.4844 41.8698 58.7969 42.0625C59.1094 42.25 59.3828 42.4766 59.6172 42.7422C59.8568 43.0078 60.0443 43.3047 60.1797 43.6328L58.2891 44.6094C58.2109 44.4479 58.1172 44.2995 58.0078 44.1641C57.9036 44.0234 57.7812 43.9036 57.6406 43.8047C57.5052 43.7005 57.349 43.6198 57.1719 43.5625C57 43.5 56.8073 43.4688 56.5938 43.4688C56.2656 43.4688 55.9818 43.5391 55.7422 43.6797C55.5078 43.8151 55.3151 43.9948 55.1641 44.2188C55.013 44.4375 54.901 44.6849 54.8281 44.9609C54.7552 45.237 54.7188 45.513 54.7188 45.7891V45.8594ZM63.3125 46.5625C63.349 46.8125 63.4271 47.0417 63.5469 47.25C63.6719 47.4583 63.8281 47.638 64.0156 47.7891C64.2031 47.9349 64.4193 48.0495 64.6641 48.1328C64.9089 48.2161 65.1693 48.2578 65.4453 48.2578C65.763 48.2578 66.1068 48.1979 66.4766 48.0781C66.8464 47.9531 67.1849 47.7734 67.4922 47.5391L68.5312 49.0547C68.1406 49.3828 67.6615 49.6484 67.0938 49.8516C66.526 50.0547 65.9219 50.1562 65.2812 50.1562C64.7031 50.1562 64.1589 50.0573 63.6484 49.8594C63.138 49.6615 62.6901 49.375 62.3047 49C61.9245 48.625 61.6224 48.1693 61.3984 47.6328C61.1797 47.0964 61.0703 46.4922 61.0703 45.8203C61.0703 45.2057 61.1667 44.6328 61.3594 44.1016C61.5573 43.5703 61.8307 43.1094 62.1797 42.7188C62.5339 42.3281 62.9557 42.0234 63.4453 41.8047C63.9349 41.5807 64.4766 41.4688 65.0703 41.4688C65.6224 41.4688 66.1354 41.5703 66.6094 41.7734C67.0833 41.9714 67.4948 42.2526 67.8438 42.6172C68.1927 42.9766 68.4661 43.4089 68.6641 43.9141C68.862 44.4193 68.9609 44.9766 68.9609 45.5859V46.5625H63.3125ZM65.0625 43.3438C64.599 43.3438 64.2057 43.5 63.8828 43.8125C63.5651 44.1198 63.3802 44.4922 63.3281 44.9297H66.7031C66.6927 44.487 66.5312 44.112 66.2188 43.8047C65.9062 43.4974 65.5208 43.3438 65.0625 43.3438ZM73.2266 41.6328H75.3828V42.3516C75.4974 42.237 75.625 42.1276 75.7656 42.0234C75.9115 41.9141 76.0703 41.8203 76.2422 41.7422C76.4141 41.6589 76.6042 41.5938 76.8125 41.5469C77.026 41.4948 77.2604 41.4688 77.5156 41.4688C77.9688 41.4688 78.375 41.5443 78.7344 41.6953C79.0938 41.8411 79.3958 42.0443 79.6406 42.3047C79.8906 42.5651 80.0807 42.8698 80.2109 43.2188C80.3411 43.5677 80.4062 43.9453 80.4062 44.3516V50H78.25V45.1328C78.25 44.8359 78.2161 44.5859 78.1484 44.3828C78.0807 44.1745 77.987 44.0078 77.8672 43.8828C77.7526 43.7526 77.6146 43.6589 77.4531 43.6016C77.2969 43.5391 77.125 43.5078 76.9375 43.5078C76.7188 43.5078 76.513 43.5469 76.3203 43.625C76.1328 43.7031 75.9688 43.8229 75.8281 43.9844C75.6875 44.1406 75.5781 44.3385 75.5 44.5781C75.4219 44.8177 75.3828 45.099 75.3828 45.4219V50H73.2266V41.6328ZM84.9141 46.6016C84.6484 46.6432 84.4349 46.737 84.2734 46.8828C84.112 47.0234 84.0312 47.2161 84.0312 47.4609C84.0312 47.7318 84.1302 47.9661 84.3281 48.1641C84.526 48.3568 84.8177 48.4531 85.2031 48.4531C85.6094 48.4531 85.9297 48.3359 86.1641 48.1016C86.3984 47.8672 86.5156 47.5573 86.5156 47.1719V46.3281L84.9141 46.6016ZM86.8672 49.2109C86.7786 49.3099 86.6693 49.4167 86.5391 49.5312C86.4141 49.6406 86.263 49.7422 86.0859 49.8359C85.9141 49.9245 85.7109 50 85.4766 50.0625C85.2422 50.125 84.9792 50.1562 84.6875 50.1562C84.2708 50.1562 83.8854 50.0911 83.5312 49.9609C83.1823 49.8255 82.875 49.638 82.6094 49.3984C82.3438 49.1589 82.1354 48.8828 81.9844 48.5703C81.8333 48.2526 81.7578 47.9089 81.7578 47.5391C81.7578 46.8672 81.9661 46.3177 82.3828 45.8906C82.7995 45.4635 83.375 45.1953 84.1094 45.0859L86.5156 44.7344V44.5781C86.5156 44.2031 86.401 43.9062 86.1719 43.6875C85.9427 43.4688 85.5703 43.3594 85.0547 43.3594C84.8411 43.3594 84.625 43.3854 84.4062 43.4375C84.1875 43.4844 83.9766 43.5391 83.7734 43.6016C83.5755 43.6641 83.3906 43.737 83.2188 43.8203C83.0469 43.8984 82.8958 43.9688 82.7656 44.0312L81.9219 42.3828C82.401 42.1172 82.9323 41.8984 83.5156 41.7266C84.1042 41.5547 84.7135 41.4688 85.3438 41.4688C85.7292 41.4688 86.1172 41.5104 86.5078 41.5938C86.9036 41.6719 87.2604 41.8177 87.5781 42.0312C87.901 42.2448 88.1641 42.5365 88.3672 42.9062C88.5703 43.2708 88.6719 43.737 88.6719 44.3047V47.7422C88.6719 47.987 88.7344 48.1693 88.8594 48.2891C88.9896 48.4036 89.1667 48.5104 89.3906 48.6094L88.4141 50.1562C88.0182 50.1146 87.7005 50.013 87.4609 49.8516C87.2214 49.6849 87.0234 49.4714 86.8672 49.2109ZM97.5312 50H95.3672V45.1328C95.3672 44.8359 95.3333 44.5859 95.2656 44.3828C95.2031 44.1745 95.1146 44.0078 95 43.8828C94.8854 43.7526 94.7526 43.6615 94.6016 43.6094C94.4505 43.5521 94.2865 43.5234 94.1094 43.5234C93.901 43.5234 93.7057 43.5599 93.5234 43.6328C93.3464 43.7057 93.1901 43.8203 93.0547 43.9766C92.9245 44.1328 92.8203 44.3333 92.7422 44.5781C92.6693 44.8177 92.6328 45.1042 92.6328 45.4375V50H90.4766V41.6328H92.6328V42.3672C92.9089 42.0599 93.2292 41.8333 93.5938 41.6875C93.9635 41.5417 94.3594 41.4688 94.7812 41.4688C95.2135 41.4688 95.6172 41.5573 95.9922 41.7344C96.3724 41.9115 96.6875 42.2031 96.9375 42.6094C97.0833 42.401 97.25 42.224 97.4375 42.0781C97.6302 41.9323 97.8359 41.8151 98.0547 41.7266C98.2734 41.638 98.5 41.5729 98.7344 41.5312C98.974 41.4896 99.2188 41.4688 99.4688 41.4688C99.9375 41.4688 100.354 41.5469 100.719 41.7031C101.089 41.8542 101.401 42.0599 101.656 42.3203C101.911 42.5807 102.107 42.8802 102.242 43.2188C102.378 43.5573 102.445 43.9141 102.445 44.2891V50H100.266V45.1328C100.266 44.8359 100.232 44.5859 100.164 44.3828C100.102 44.1745 100.013 44.0078 99.8984 43.8828C99.7839 43.7526 99.6484 43.6615 99.4922 43.6094C99.3411 43.5521 99.1771 43.5234 99 43.5234C98.7917 43.5234 98.599 43.5599 98.4219 43.6328C98.2448 43.7057 98.0885 43.8203 97.9531 43.9766C97.8229 44.1328 97.7188 44.3333 97.6406 44.5781C97.5677 44.8177 97.5312 45.1042 97.5312 45.4375V50ZM106.047 46.5625C106.083 46.8125 106.161 47.0417 106.281 47.25C106.406 47.4583 106.562 47.638 106.75 47.7891C106.938 47.9349 107.154 48.0495 107.398 48.1328C107.643 48.2161 107.904 48.2578 108.18 48.2578C108.497 48.2578 108.841 48.1979 109.211 48.0781C109.581 47.9531 109.919 47.7734 110.227 47.5391L111.266 49.0547C110.875 49.3828 110.396 49.6484 109.828 49.8516C109.26 50.0547 108.656 50.1562 108.016 50.1562C107.438 50.1562 106.893 50.0573 106.383 49.8594C105.872 49.6615 105.424 49.375 105.039 49C104.659 48.625 104.357 48.1693 104.133 47.6328C103.914 47.0964 103.805 46.4922 103.805 45.8203C103.805 45.2057 103.901 44.6328 104.094 44.1016C104.292 43.5703 104.565 43.1094 104.914 42.7188C105.268 42.3281 105.69 42.0234 106.18 41.8047C106.669 41.5807 107.211 41.4688 107.805 41.4688C108.357 41.4688 108.87 41.5703 109.344 41.7734C109.818 41.9714 110.229 42.2526 110.578 42.6172C110.927 42.9766 111.201 43.4089 111.398 43.9141C111.596 44.4193 111.695 44.9766 111.695 45.5859V46.5625H106.047ZM107.797 43.3438C107.333 43.3438 106.94 43.5 106.617 43.8125C106.299 44.1198 106.115 44.4922 106.062 44.9297H109.438C109.427 44.487 109.266 44.112 108.953 43.8047C108.641 43.4974 108.255 43.3438 107.797 43.3438Z" fill="white"/>
<path d="M23.8438 100.703C24.1354 101.036 24.4896 101.365 24.9062 101.688C25.3229 102.01 25.7812 102.302 26.2812 102.562C26.7917 102.812 27.3438 103.016 27.9375 103.172C28.5312 103.318 29.1719 103.391 29.8594 103.391C31.1406 103.391 32.1198 103.125 32.7969 102.594C33.4844 102.052 33.8281 101.396 33.8281 100.625C33.8281 99.8229 33.526 99.2135 32.9219 98.7969C32.3281 98.3802 31.3802 98.0521 30.0781 97.8125L29.375 97.6875C28.4375 97.5208 27.5052 97.3021 26.5781 97.0312C25.651 96.7604 24.8125 96.3698 24.0625 95.8594C23.3125 95.349 22.7031 94.6979 22.2344 93.9062C21.7656 93.1042 21.5312 92.0938 21.5312 90.875C21.5312 90.1667 21.6875 89.4271 22 88.6562C22.3125 87.875 22.8073 87.1615 23.4844 86.5156C24.1719 85.8594 25.0521 85.3229 26.125 84.9062C27.2083 84.4896 28.5156 84.2812 30.0469 84.2812C31.8594 84.2812 33.474 84.5833 34.8906 85.1875C36.3177 85.7812 37.4688 86.5677 38.3438 87.5469L35.3281 90.3594C34.7135 89.6823 33.9219 89.151 32.9531 88.7656C31.9948 88.3802 31.0052 88.1875 29.9844 88.1875C28.8073 88.1875 27.8854 88.4115 27.2188 88.8594C26.5625 89.3073 26.2344 89.8906 26.2344 90.6094C26.2344 91.0781 26.3385 91.4688 26.5469 91.7812C26.7656 92.0938 27.0677 92.3542 27.4531 92.5625C27.8385 92.7604 28.3021 92.9271 28.8438 93.0625C29.3854 93.1979 29.9896 93.3333 30.6562 93.4688L31.0156 93.5312C31.9115 93.6979 32.8021 93.9115 33.6875 94.1719C34.5729 94.4219 35.375 94.7969 36.0938 95.2969C36.8229 95.7865 37.4115 96.4323 37.8594 97.2344C38.3073 98.026 38.5312 99.0417 38.5312 100.281C38.5312 101.406 38.2969 102.401 37.8281 103.266C37.3594 104.13 36.7396 104.87 35.9688 105.484C35.1979 106.089 34.3073 106.547 33.2969 106.859C32.2865 107.161 31.2344 107.312 30.1406 107.312C29.0365 107.312 28.0104 107.219 27.0625 107.031C26.125 106.844 25.2708 106.578 24.5 106.234C23.7396 105.891 23.0573 105.505 22.4531 105.078C21.8594 104.651 21.3385 104.193 20.8906 103.703L23.8438 100.703ZM45.5 100.125C45.5729 100.625 45.7292 101.083 45.9688 101.5C46.2188 101.917 46.5312 102.276 46.9062 102.578C47.2812 102.87 47.7135 103.099 48.2031 103.266C48.6927 103.432 49.2135 103.516 49.7656 103.516C50.401 103.516 51.0885 103.396 51.8281 103.156C52.5677 102.906 53.2448 102.547 53.8594 102.078L55.9375 105.109C55.1562 105.766 54.1979 106.297 53.0625 106.703C51.9271 107.109 50.7188 107.312 49.4375 107.312C48.2812 107.312 47.1927 107.115 46.1719 106.719C45.151 106.323 44.2552 105.75 43.4844 105C42.724 104.25 42.1198 103.339 41.6719 102.266C41.2344 101.193 41.0156 99.9844 41.0156 98.6406C41.0156 97.4115 41.2083 96.2656 41.5938 95.2031C41.9896 94.1406 42.5365 93.2188 43.2344 92.4375C43.9427 91.6562 44.7865 91.0469 45.7656 90.6094C46.7448 90.1615 47.8281 89.9375 49.0156 89.9375C50.1198 89.9375 51.1458 90.1406 52.0938 90.5469C53.0417 90.9427 53.8646 91.5052 54.5625 92.2344C55.2604 92.9531 55.8073 93.8177 56.2031 94.8281C56.599 95.8385 56.7969 96.9531 56.7969 98.1719V100.125H45.5ZM49 93.6875C48.0729 93.6875 47.2865 94 46.6406 94.625C46.0052 95.2396 45.6354 95.9844 45.5312 96.8594H52.2812C52.2604 95.974 51.9375 95.224 51.3125 94.6094C50.6875 93.9948 49.9167 93.6875 49 93.6875ZM68.9531 94.4531H68.5C67.8854 94.4531 67.2969 94.5156 66.7344 94.6406C66.1823 94.7656 65.6927 94.9948 65.2656 95.3281C64.8385 95.651 64.4948 96.099 64.2344 96.6719C63.9844 97.2448 63.8594 97.9792 63.8594 98.875V107H59.5469V90.2656H63.8594V92.1562C64.0365 91.875 64.2656 91.6042 64.5469 91.3438C64.8281 91.0833 65.1562 90.8542 65.5312 90.6562C65.9062 90.4479 66.3281 90.2812 66.7969 90.1562C67.2656 90.0312 67.7708 89.9688 68.3125 89.9688H68.9531V94.4531ZM75.1875 107L70.0625 90.2656H74.875L77.875 101.781L80.9531 90.2656H85.6875L80.5938 107H75.1875ZM92.1406 107H87.8281V90.2656H92.1406V107ZM87.375 85.875C87.375 85.5208 87.4427 85.1875 87.5781 84.875C87.7135 84.5521 87.8958 84.276 88.125 84.0469C88.3646 83.8073 88.6406 83.6198 88.9531 83.4844C89.2656 83.349 89.6042 83.2812 89.9688 83.2812C90.3229 83.2812 90.6562 83.349 90.9688 83.4844C91.2917 83.6198 91.5677 83.8073 91.7969 84.0469C92.0365 84.276 92.224 84.5521 92.3594 84.875C92.4948 85.1875 92.5625 85.5208 92.5625 85.875C92.5625 86.2396 92.4948 86.5781 92.3594 86.8906C92.224 87.2031 92.0365 87.4792 91.7969 87.7188C91.5677 87.9479 91.2917 88.1302 90.9688 88.2656C90.6562 88.401 90.3229 88.4688 89.9688 88.4688C89.6042 88.4688 89.2656 88.401 88.9531 88.2656C88.6406 88.1302 88.3646 87.9479 88.125 87.7188C87.8958 87.4792 87.7135 87.2031 87.5781 86.8906C87.4427 86.5781 87.375 86.2396 87.375 85.875ZM99.4375 98.7188C99.4375 99.2604 99.5104 99.8073 99.6562 100.359C99.8021 100.901 100.026 101.391 100.328 101.828C100.63 102.266 101.016 102.625 101.484 102.906C101.964 103.177 102.531 103.312 103.188 103.312C103.615 103.312 104 103.255 104.344 103.141C104.698 103.026 105.01 102.87 105.281 102.672C105.562 102.464 105.807 102.224 106.016 101.953C106.234 101.672 106.422 101.37 106.578 101.047L110.359 103C110.089 103.656 109.714 104.25 109.234 104.781C108.766 105.312 108.219 105.766 107.594 106.141C106.969 106.516 106.276 106.802 105.516 107C104.755 107.208 103.948 107.312 103.094 107.312C101.917 107.312 100.833 107.094 99.8438 106.656C98.8542 106.208 98 105.599 97.2812 104.828C96.5625 104.057 96 103.146 95.5938 102.094C95.1875 101.031 94.9844 99.8802 94.9844 98.6406C94.9844 97.4115 95.1875 96.2656 95.5938 95.2031C96 94.1406 96.5625 93.2188 97.2812 92.4375C98 91.6562 98.8542 91.0469 99.8438 90.6094C100.833 90.1615 101.917 89.9375 103.094 89.9375C103.948 89.9375 104.755 90.0417 105.516 90.25C106.276 90.4479 106.969 90.7396 107.594 91.125C108.219 91.5 108.766 91.9531 109.234 92.4844C109.714 93.0156 110.089 93.6094 110.359 94.2656L106.578 96.2188C106.422 95.8958 106.234 95.599 106.016 95.3281C105.807 95.0469 105.562 94.8073 105.281 94.6094C105.01 94.401 104.698 94.2396 104.344 94.125C104 94 103.615 93.9375 103.188 93.9375C102.531 93.9375 101.964 94.0781 101.484 94.3594C101.016 94.6302 100.63 94.9896 100.328 95.4375C100.026 95.875 99.8021 96.3698 99.6562 96.9219C99.5104 97.474 99.4375 98.026 99.4375 98.5781V98.7188ZM116.625 100.125C116.698 100.625 116.854 101.083 117.094 101.5C117.344 101.917 117.656 102.276 118.031 102.578C118.406 102.87 118.839 103.099 119.328 103.266C119.818 103.432 120.339 103.516 120.891 103.516C121.526 103.516 122.214 103.396 122.953 103.156C123.693 102.906 124.37 102.547 124.984 102.078L127.062 105.109C126.281 105.766 125.323 106.297 124.188 106.703C123.052 107.109 121.844 107.312 120.562 107.312C119.406 107.312 118.318 107.115 117.297 106.719C116.276 106.323 115.38 105.75 114.609 105C113.849 104.25 113.245 103.339 112.797 102.266C112.359 101.193 112.141 99.9844 112.141 98.6406C112.141 97.4115 112.333 96.2656 112.719 95.2031C113.115 94.1406 113.661 93.2188 114.359 92.4375C115.068 91.6562 115.911 91.0469 116.891 90.6094C117.87 90.1615 118.953 89.9375 120.141 89.9375C121.245 89.9375 122.271 90.1406 123.219 90.5469C124.167 90.9427 124.99 91.5052 125.688 92.2344C126.385 92.9531 126.932 93.8177 127.328 94.8281C127.724 95.8385 127.922 96.9531 127.922 98.1719V100.125H116.625ZM120.125 93.6875C119.198 93.6875 118.411 94 117.766 94.625C117.13 95.2396 116.76 95.9844 116.656 96.8594H123.406C123.385 95.974 123.062 95.224 122.438 94.6094C121.812 93.9948 121.042 93.6875 120.125 93.6875ZM136.453 84.5938H140.766V91.7031C140.995 91.474 141.25 91.2552 141.531 91.0469C141.823 90.8281 142.141 90.6406 142.484 90.4844C142.828 90.3177 143.208 90.1875 143.625 90.0938C144.052 89.9896 144.521 89.9375 145.031 89.9375C145.938 89.9375 146.75 90.0885 147.469 90.3906C148.188 90.6823 148.792 91.0885 149.281 91.6094C149.781 92.1302 150.161 92.7396 150.422 93.4375C150.682 94.1354 150.812 94.8906 150.812 95.7031V107H146.5V97.2656C146.5 96.6719 146.432 96.1719 146.297 95.7656C146.161 95.349 145.974 95.0156 145.734 94.7656C145.505 94.5052 145.229 94.3177 144.906 94.2031C144.594 94.0781 144.25 94.0156 143.875 94.0156C143.438 94.0156 143.026 94.0938 142.641 94.25C142.266 94.4062 141.938 94.6458 141.656 94.9688C141.375 95.2812 141.156 95.6771 141 96.1562C140.844 96.6354 140.766 97.1979 140.766 97.8438V107H136.453V84.5938ZM161.781 89.9375C163.021 89.9375 164.146 90.1615 165.156 90.6094C166.167 91.0469 167.031 91.6562 167.75 92.4375C168.469 93.2188 169.021 94.1406 169.406 95.2031C169.802 96.2656 170 97.4115 170 98.6406C170 99.8802 169.802 101.031 169.406 102.094C169.01 103.146 168.453 104.057 167.734 104.828C167.016 105.599 166.151 106.208 165.141 106.656C164.13 107.094 163.01 107.312 161.781 107.312C160.542 107.312 159.417 107.094 158.406 106.656C157.396 106.208 156.531 105.599 155.812 104.828C155.094 104.057 154.536 103.146 154.141 102.094C153.745 101.031 153.547 99.8802 153.547 98.6406C153.547 97.4115 153.74 96.2656 154.125 95.2031C154.521 94.1406 155.078 93.2188 155.797 92.4375C156.516 91.6562 157.38 91.0469 158.391 90.6094C159.411 90.1615 160.542 89.9375 161.781 89.9375ZM161.781 103.312C162.396 103.312 162.938 103.198 163.406 102.969C163.885 102.74 164.286 102.422 164.609 102.016C164.932 101.609 165.177 101.125 165.344 100.562C165.51 99.9896 165.594 99.3646 165.594 98.6875V98.5781C165.594 97.901 165.51 97.2812 165.344 96.7188C165.177 96.1458 164.932 95.6562 164.609 95.25C164.286 94.8333 163.885 94.5104 163.406 94.2812C162.938 94.0521 162.396 93.9375 161.781 93.9375C161.167 93.9375 160.62 94.0521 160.141 94.2812C159.672 94.5104 159.276 94.8333 158.953 95.25C158.63 95.6562 158.385 96.1458 158.219 96.7188C158.052 97.2812 157.969 97.901 157.969 98.5781V98.6875C157.969 99.3646 158.052 99.9896 158.219 100.562C158.385 101.125 158.63 101.609 158.953 102.016C159.276 102.422 159.672 102.74 160.141 102.969C160.62 103.198 161.167 103.312 161.781 103.312ZM186.969 107H182.641V97.2656C182.641 96.6719 182.573 96.1719 182.438 95.7656C182.312 95.349 182.135 95.0156 181.906 94.7656C181.677 94.5052 181.411 94.3229 181.109 94.2188C180.807 94.1042 180.479 94.0469 180.125 94.0469C179.708 94.0469 179.318 94.1198 178.953 94.2656C178.599 94.4115 178.286 94.6406 178.016 94.9531C177.755 95.2656 177.547 95.6667 177.391 96.1562C177.245 96.6354 177.172 97.2083 177.172 97.875V107H172.859V90.2656H177.172V91.7344C177.724 91.1198 178.365 90.6667 179.094 90.375C179.833 90.0833 180.625 89.9375 181.469 89.9375C182.333 89.9375 183.141 90.1146 183.891 90.4688C184.651 90.8229 185.281 91.4062 185.781 92.2188C186.073 91.8021 186.406 91.4479 186.781 91.1562C187.167 90.8646 187.578 90.6302 188.016 90.4531C188.453 90.276 188.906 90.1458 189.375 90.0625C189.854 89.9792 190.344 89.9375 190.844 89.9375C191.781 89.9375 192.615 90.0938 193.344 90.4062C194.083 90.7083 194.708 91.1198 195.219 91.6406C195.729 92.1615 196.12 92.7604 196.391 93.4375C196.661 94.1146 196.797 94.8281 196.797 95.5781V107H192.438V97.2656C192.438 96.6719 192.37 96.1719 192.234 95.7656C192.109 95.349 191.932 95.0156 191.703 94.7656C191.474 94.5052 191.203 94.3229 190.891 94.2188C190.589 94.1042 190.26 94.0469 189.906 94.0469C189.49 94.0469 189.104 94.1198 188.75 94.2656C188.396 94.4115 188.083 94.6406 187.812 94.9531C187.552 95.2656 187.344 95.6667 187.188 96.1562C187.042 96.6354 186.969 97.2083 186.969 97.875V107ZM204 100.125C204.073 100.625 204.229 101.083 204.469 101.5C204.719 101.917 205.031 102.276 205.406 102.578C205.781 102.87 206.214 103.099 206.703 103.266C207.193 103.432 207.714 103.516 208.266 103.516C208.901 103.516 209.589 103.396 210.328 103.156C211.068 102.906 211.745 102.547 212.359 102.078L214.438 105.109C213.656 105.766 212.698 106.297 211.562 106.703C210.427 107.109 209.219 107.312 207.938 107.312C206.781 107.312 205.693 107.115 204.672 106.719C203.651 106.323 202.755 105.75 201.984 105C201.224 104.25 200.62 103.339 200.172 102.266C199.734 101.193 199.516 99.9844 199.516 98.6406C199.516 97.4115 199.708 96.2656 200.094 95.2031C200.49 94.1406 201.036 93.2188 201.734 92.4375C202.443 91.6562 203.286 91.0469 204.266 90.6094C205.245 90.1615 206.328 89.9375 207.516 89.9375C208.62 89.9375 209.646 90.1406 210.594 90.5469C211.542 90.9427 212.365 91.5052 213.062 92.2344C213.76 92.9531 214.307 93.8177 214.703 94.8281C215.099 95.8385 215.297 96.9531 215.297 98.1719V100.125H204ZM207.5 93.6875C206.573 93.6875 205.786 94 205.141 94.625C204.505 95.2396 204.135 95.9844 204.031 96.8594H210.781C210.76 95.974 210.438 95.224 209.812 94.6094C209.188 93.9948 208.417 93.6875 207.5 93.6875Z" fill="#0B0C0C"/>
<rect x="25" y="140" width="8" height="70" fill="#B1B4B6"/>
<path d="M54.9688 147.797L57.7188 153.109H57.75L60.4922 147.797H61.9922L58.3906 154.422V159H57.0156V154.422L53.3984 147.797H54.9688ZM65.4609 150.859C66.013 150.859 66.5156 150.964 66.9688 151.172C67.4219 151.375 67.8073 151.661 68.125 152.031C68.4479 152.396 68.6979 152.833 68.875 153.344C69.0521 153.849 69.1406 154.406 69.1406 155.016C69.1406 155.615 69.0521 156.169 68.875 156.68C68.6979 157.185 68.4479 157.622 68.125 157.992C67.8073 158.357 67.4219 158.643 66.9688 158.852C66.5156 159.055 66.013 159.156 65.4609 159.156C64.9089 159.156 64.4062 159.055 63.9531 158.852C63.5052 158.643 63.1198 158.357 62.7969 157.992C62.474 157.622 62.224 157.185 62.0469 156.68C61.8698 156.169 61.7812 155.615 61.7812 155.016C61.7812 154.406 61.8698 153.849 62.0469 153.344C62.224 152.833 62.474 152.396 62.7969 152.031C63.1198 151.661 63.5052 151.375 63.9531 151.172C64.4062 150.964 64.9089 150.859 65.4609 150.859ZM65.4609 158.008C65.8411 158.008 66.1745 157.93 66.4609 157.773C66.7526 157.612 66.9948 157.396 67.1875 157.125C67.3854 156.854 67.5339 156.542 67.6328 156.188C67.7318 155.828 67.7812 155.453 67.7812 155.062V154.969C67.7812 154.568 67.7318 154.188 67.6328 153.828C67.5339 153.469 67.3854 153.156 67.1875 152.891C66.9948 152.62 66.7526 152.406 66.4609 152.25C66.1745 152.089 65.8411 152.008 65.4609 152.008C65.0807 152.008 64.7448 152.089 64.4531 152.25C64.1667 152.406 63.9245 152.62 63.7266 152.891C63.5339 153.156 63.388 153.469 63.2891 153.828C63.1901 154.188 63.1406 154.568 63.1406 154.969V155.062C63.1406 155.453 63.1901 155.828 63.2891 156.188C63.388 156.542 63.5339 156.854 63.7266 157.125C63.9245 157.396 64.1667 157.612 64.4531 157.773C64.7448 157.93 65.0807 158.008 65.4609 158.008ZM77.3125 159H76V158.086C75.7292 158.456 75.3932 158.727 74.9922 158.898C74.5964 159.07 74.1536 159.156 73.6641 159.156C73.2214 159.156 72.8333 159.083 72.5 158.938C72.1667 158.792 71.888 158.594 71.6641 158.344C71.4401 158.094 71.2708 157.805 71.1562 157.477C71.0469 157.148 70.9922 156.802 70.9922 156.438V151.016H72.3047V156.023C72.3047 156.378 72.3464 156.677 72.4297 156.922C72.5182 157.167 72.6354 157.367 72.7812 157.523C72.9323 157.674 73.1068 157.786 73.3047 157.859C73.5078 157.927 73.724 157.961 73.9531 157.961C74.224 157.961 74.4818 157.917 74.7266 157.828C74.9766 157.734 75.1953 157.596 75.3828 157.414C75.5703 157.232 75.7188 157.003 75.8281 156.727C75.9427 156.451 76 156.125 76 155.75V151.016H77.3125V159ZM83.7969 155.047C83.7969 155.448 83.8464 155.828 83.9453 156.188C84.0443 156.547 84.1901 156.862 84.3828 157.133C84.5755 157.398 84.8151 157.612 85.1016 157.773C85.3932 157.93 85.7318 158.008 86.1172 158.008C86.3672 158.008 86.5964 157.974 86.8047 157.906C87.0182 157.833 87.2083 157.737 87.375 157.617C87.5469 157.497 87.6979 157.357 87.8281 157.195C87.9635 157.029 88.0807 156.852 88.1797 156.664L89.2734 157.289C89.138 157.57 88.9635 157.828 88.75 158.062C88.5417 158.292 88.3021 158.487 88.0312 158.648C87.7604 158.81 87.4635 158.935 87.1406 159.023C86.8177 159.112 86.4766 159.156 86.1172 159.156C85.5651 159.156 85.0625 159.055 84.6094 158.852C84.1615 158.643 83.776 158.357 83.4531 157.992C83.1302 157.622 82.8802 157.185 82.7031 156.68C82.526 156.174 82.4375 155.62 82.4375 155.016C82.4375 154.406 82.526 153.849 82.7031 153.344C82.8802 152.833 83.1302 152.396 83.4531 152.031C83.776 151.661 84.1615 151.375 84.6094 151.172C85.0625 150.964 85.5651 150.859 86.1172 150.859C86.4766 150.859 86.8177 150.904 87.1406 150.992C87.4635 151.081 87.7604 151.206 88.0312 151.367C88.3021 151.529 88.5417 151.727 88.75 151.961C88.9635 152.19 89.138 152.445 89.2734 152.727L88.1797 153.352C88.0807 153.164 87.9635 152.99 87.8281 152.828C87.6979 152.661 87.5469 152.518 87.375 152.398C87.2083 152.279 87.0182 152.185 86.8047 152.117C86.5964 152.044 86.3672 152.008 86.1172 152.008C85.7318 152.008 85.3932 152.089 85.1016 152.25C84.8151 152.406 84.5755 152.62 84.3828 152.891C84.1901 153.156 84.0443 153.469 83.9453 153.828C83.8464 154.188 83.7969 154.568 83.7969 154.969V155.047ZM95.5859 158.203C95.3516 158.474 95.0339 158.701 94.6328 158.883C94.237 159.065 93.7708 159.156 93.2344 159.156C92.8385 159.156 92.4714 159.102 92.1328 158.992C91.7943 158.878 91.5 158.716 91.25 158.508C91 158.299 90.8047 158.047 90.6641 157.75C90.5234 157.453 90.4531 157.117 90.4531 156.742C90.4531 156.43 90.5026 156.146 90.6016 155.891C90.7057 155.63 90.849 155.404 91.0312 155.211C91.2188 155.018 91.4427 154.862 91.7031 154.742C91.9635 154.617 92.2552 154.531 92.5781 154.484L95.3984 154.102V153.594C95.3984 153.292 95.3516 153.039 95.2578 152.836C95.1641 152.628 95.0365 152.464 94.875 152.344C94.7188 152.224 94.5312 152.138 94.3125 152.086C94.099 152.034 93.8672 152.008 93.6172 152.008C93.1693 152.008 92.75 152.07 92.3594 152.195C91.974 152.32 91.625 152.466 91.3125 152.633L90.8203 151.594C91.2786 151.333 91.7578 151.146 92.2578 151.031C92.763 150.917 93.2604 150.859 93.75 150.859C94.724 150.859 95.4609 151.081 95.9609 151.523C96.4609 151.961 96.7109 152.602 96.7109 153.445V157.125C96.7109 157.391 96.763 157.615 96.8672 157.797C96.9714 157.974 97.138 158.115 97.3672 158.219L96.625 159.156C96.375 159.094 96.1589 158.984 95.9766 158.828C95.7995 158.667 95.6745 158.474 95.6016 158.25L95.5859 158.203ZM93.25 155.445C93.0312 155.477 92.8307 155.521 92.6484 155.578C92.4714 155.635 92.3203 155.714 92.1953 155.812C92.0703 155.906 91.9714 156.023 91.8984 156.164C91.8307 156.305 91.7969 156.477 91.7969 156.68C91.7969 156.914 91.8411 157.122 91.9297 157.305C92.0182 157.487 92.138 157.641 92.2891 157.766C92.4401 157.891 92.6146 157.987 92.8125 158.055C93.0156 158.117 93.2266 158.148 93.4453 158.148C93.6901 158.148 93.9297 158.115 94.1641 158.047C94.3984 157.979 94.6068 157.883 94.7891 157.758C94.9714 157.628 95.1172 157.471 95.2266 157.289C95.3411 157.107 95.3984 156.898 95.3984 156.664V155.125L93.25 155.445ZM99.0938 151.016H100.406V151.93C100.677 151.56 101.01 151.289 101.406 151.117C101.807 150.945 102.253 150.859 102.742 150.859C103.185 150.859 103.573 150.932 103.906 151.078C104.24 151.224 104.518 151.422 104.742 151.672C104.966 151.922 105.133 152.211 105.242 152.539C105.357 152.867 105.414 153.214 105.414 153.578V159H104.102V153.992C104.102 153.643 104.057 153.346 103.969 153.102C103.885 152.852 103.768 152.651 103.617 152.5C103.471 152.344 103.297 152.232 103.094 152.164C102.896 152.091 102.682 152.055 102.453 152.055C102.203 152.055 101.956 152.102 101.711 152.195C101.471 152.284 101.253 152.419 101.055 152.602C100.862 152.784 100.706 153.013 100.586 153.289C100.466 153.565 100.406 153.891 100.406 154.266V159H99.0938V151.016ZM91.6562 198.25C91.6562 198.125 91.6797 198.008 91.7266 197.898C91.7786 197.784 91.8438 197.688 91.9219 197.609C92.0052 197.526 92.1016 197.461 92.2109 197.414C92.3203 197.362 92.4375 197.336 92.5625 197.336C92.6875 197.336 92.8047 197.362 92.9141 197.414C93.0286 197.461 93.125 197.526 93.2031 197.609C93.2865 197.688 93.3516 197.784 93.3984 197.898C93.4505 198.008 93.4766 198.125 93.4766 198.25C93.4766 198.375 93.4505 198.492 93.3984 198.602C93.3516 198.711 93.2865 198.807 93.2031 198.891C93.125 198.969 93.0286 199.031 92.9141 199.078C92.8047 199.13 92.6875 199.156 92.5625 199.156C92.4375 199.156 92.3203 199.13 92.2109 199.078C92.1016 199.031 92.0052 198.969 91.9219 198.891C91.8438 198.807 91.7786 198.711 91.7266 198.602C91.6797 198.492 91.6562 198.375 91.6562 198.25Z" fill="#0B0C0C"/>
<path d="M111.828 155.047C111.828 155.448 111.878 155.828 111.977 156.188C112.076 156.547 112.221 156.862 112.414 157.133C112.607 157.398 112.846 157.612 113.133 157.773C113.424 157.93 113.763 158.008 114.148 158.008C114.398 158.008 114.628 157.974 114.836 157.906C115.049 157.833 115.24 157.737 115.406 157.617C115.578 157.497 115.729 157.357 115.859 157.195C115.995 157.029 116.112 156.852 116.211 156.664L117.305 157.289C117.169 157.57 116.995 157.828 116.781 158.062C116.573 158.292 116.333 158.487 116.062 158.648C115.792 158.81 115.495 158.935 115.172 159.023C114.849 159.112 114.508 159.156 114.148 159.156C113.596 159.156 113.094 159.055 112.641 158.852C112.193 158.643 111.807 158.357 111.484 157.992C111.161 157.622 110.911 157.185 110.734 156.68C110.557 156.174 110.469 155.62 110.469 155.016C110.469 154.406 110.557 153.849 110.734 153.344C110.911 152.833 111.161 152.396 111.484 152.031C111.807 151.661 112.193 151.375 112.641 151.172C113.094 150.964 113.596 150.859 114.148 150.859C114.508 150.859 114.849 150.904 115.172 150.992C115.495 151.081 115.792 151.206 116.062 151.367C116.333 151.529 116.573 151.727 116.781 151.961C116.995 152.19 117.169 152.445 117.305 152.727L116.211 153.352C116.112 153.164 115.995 152.99 115.859 152.828C115.729 152.661 115.578 152.518 115.406 152.398C115.24 152.279 115.049 152.185 114.836 152.117C114.628 152.044 114.398 152.008 114.148 152.008C113.763 152.008 113.424 152.089 113.133 152.25C112.846 152.406 112.607 152.62 112.414 152.891C112.221 153.156 112.076 153.469 111.977 153.828C111.878 154.188 111.828 154.568 111.828 154.969V155.047ZM119.141 147.797H120.453V151.93C120.724 151.56 121.057 151.289 121.453 151.117C121.854 150.945 122.299 150.859 122.789 150.859C123.232 150.859 123.62 150.932 123.953 151.078C124.286 151.224 124.565 151.422 124.789 151.672C125.013 151.922 125.18 152.211 125.289 152.539C125.404 152.867 125.461 153.214 125.461 153.578V159H124.148V153.992C124.148 153.643 124.104 153.346 124.016 153.102C123.932 152.852 123.815 152.651 123.664 152.5C123.518 152.344 123.344 152.232 123.141 152.164C122.943 152.091 122.729 152.055 122.5 152.055C122.25 152.055 122.003 152.102 121.758 152.195C121.513 152.284 121.294 152.419 121.102 152.602C120.909 152.784 120.753 153.013 120.633 153.289C120.513 153.565 120.453 153.891 120.453 154.266V159H119.141V147.797ZM132.336 158.203C132.102 158.474 131.784 158.701 131.383 158.883C130.987 159.065 130.521 159.156 129.984 159.156C129.589 159.156 129.221 159.102 128.883 158.992C128.544 158.878 128.25 158.716 128 158.508C127.75 158.299 127.555 158.047 127.414 157.75C127.273 157.453 127.203 157.117 127.203 156.742C127.203 156.43 127.253 156.146 127.352 155.891C127.456 155.63 127.599 155.404 127.781 155.211C127.969 155.018 128.193 154.862 128.453 154.742C128.714 154.617 129.005 154.531 129.328 154.484L132.148 154.102V153.594C132.148 153.292 132.102 153.039 132.008 152.836C131.914 152.628 131.786 152.464 131.625 152.344C131.469 152.224 131.281 152.138 131.062 152.086C130.849 152.034 130.617 152.008 130.367 152.008C129.919 152.008 129.5 152.07 129.109 152.195C128.724 152.32 128.375 152.466 128.062 152.633L127.57 151.594C128.029 151.333 128.508 151.146 129.008 151.031C129.513 150.917 130.01 150.859 130.5 150.859C131.474 150.859 132.211 151.081 132.711 151.523C133.211 151.961 133.461 152.602 133.461 153.445V157.125C133.461 157.391 133.513 157.615 133.617 157.797C133.721 157.974 133.888 158.115 134.117 158.219L133.375 159.156C133.125 159.094 132.909 158.984 132.727 158.828C132.549 158.667 132.424 158.474 132.352 158.25L132.336 158.203ZM130 155.445C129.781 155.477 129.581 155.521 129.398 155.578C129.221 155.635 129.07 155.714 128.945 155.812C128.82 155.906 128.721 156.023 128.648 156.164C128.581 156.305 128.547 156.477 128.547 156.68C128.547 156.914 128.591 157.122 128.68 157.305C128.768 157.487 128.888 157.641 129.039 157.766C129.19 157.891 129.365 157.987 129.562 158.055C129.766 158.117 129.977 158.148 130.195 158.148C130.44 158.148 130.68 158.115 130.914 158.047C131.148 157.979 131.357 157.883 131.539 157.758C131.721 157.628 131.867 157.471 131.977 157.289C132.091 157.107 132.148 156.898 132.148 156.664V155.125L130 155.445ZM135.844 151.016H137.156V151.93C137.427 151.56 137.76 151.289 138.156 151.117C138.557 150.945 139.003 150.859 139.492 150.859C139.935 150.859 140.323 150.932 140.656 151.078C140.99 151.224 141.268 151.422 141.492 151.672C141.716 151.922 141.883 152.211 141.992 152.539C142.107 152.867 142.164 153.214 142.164 153.578V159H140.852V153.992C140.852 153.643 140.807 153.346 140.719 153.102C140.635 152.852 140.518 152.651 140.367 152.5C140.221 152.344 140.047 152.232 139.844 152.164C139.646 152.091 139.432 152.055 139.203 152.055C138.953 152.055 138.706 152.102 138.461 152.195C138.221 152.284 138.003 152.419 137.805 152.602C137.612 152.784 137.456 153.013 137.336 153.289C137.216 153.565 137.156 153.891 137.156 154.266V159H135.844V151.016ZM144.047 154.57C144.047 154.044 144.122 153.555 144.273 153.102C144.424 152.648 144.641 152.258 144.922 151.93C145.203 151.596 145.542 151.336 145.938 151.148C146.339 150.956 146.786 150.859 147.281 150.859C147.719 150.859 148.135 150.945 148.531 151.117C148.927 151.284 149.263 151.555 149.539 151.93V151.016H150.852V159C150.852 159.495 150.75 159.909 150.547 160.242C150.349 160.581 150.089 160.852 149.766 161.055C149.443 161.258 149.076 161.404 148.664 161.492C148.258 161.581 147.844 161.625 147.422 161.625C147.188 161.625 146.943 161.612 146.688 161.586C146.438 161.56 146.185 161.521 145.93 161.469C145.674 161.417 145.422 161.349 145.172 161.266C144.927 161.188 144.693 161.094 144.469 160.984L144.945 159.883C145.102 159.956 145.266 160.026 145.438 160.094C145.609 160.167 145.794 160.232 145.992 160.289C146.195 160.346 146.411 160.393 146.641 160.43C146.87 160.466 147.12 160.484 147.391 160.484C147.724 160.484 148.023 160.451 148.289 160.383C148.56 160.315 148.786 160.208 148.969 160.062C149.151 159.922 149.292 159.74 149.391 159.516C149.49 159.297 149.539 159.034 149.539 158.727V157.211C149.263 157.586 148.927 157.859 148.531 158.031C148.135 158.198 147.719 158.281 147.281 158.281C146.786 158.281 146.339 158.188 145.938 158C145.542 157.807 145.203 157.544 144.922 157.211C144.641 156.878 144.424 156.487 144.273 156.039C144.122 155.586 144.047 155.096 144.047 154.57ZM149.57 154.539C149.57 154.18 149.531 153.849 149.453 153.547C149.375 153.24 149.253 152.974 149.086 152.75C148.919 152.521 148.706 152.344 148.445 152.219C148.19 152.089 147.883 152.023 147.523 152.023C147.159 152.023 146.844 152.089 146.578 152.219C146.312 152.349 146.091 152.529 145.914 152.758C145.742 152.982 145.615 153.247 145.531 153.555C145.448 153.862 145.406 154.19 145.406 154.539V154.602C145.406 154.951 145.448 155.279 145.531 155.586C145.615 155.888 145.742 156.154 145.914 156.383C146.091 156.607 146.312 156.784 146.578 156.914C146.844 157.044 147.159 157.109 147.523 157.109C147.883 157.109 148.19 157.047 148.445 156.922C148.706 156.792 148.919 156.615 149.086 156.391C149.253 156.167 149.375 155.901 149.453 155.594C149.531 155.286 149.57 154.956 149.57 154.602V154.539ZM154.141 155.414C154.167 155.789 154.242 156.135 154.367 156.453C154.492 156.771 154.661 157.047 154.875 157.281C155.094 157.51 155.349 157.69 155.641 157.82C155.938 157.945 156.266 158.008 156.625 158.008C157.068 158.008 157.456 157.935 157.789 157.789C158.128 157.638 158.438 157.451 158.719 157.227L159.391 158.172C159.031 158.458 158.615 158.695 158.141 158.883C157.672 159.065 157.146 159.156 156.562 159.156C155.984 159.156 155.461 159.055 154.992 158.852C154.523 158.643 154.122 158.357 153.789 157.992C153.461 157.622 153.208 157.185 153.031 156.68C152.854 156.169 152.766 155.615 152.766 155.016C152.766 154.406 152.852 153.849 153.023 153.344C153.201 152.833 153.448 152.396 153.766 152.031C154.083 151.661 154.464 151.375 154.906 151.172C155.349 150.964 155.841 150.859 156.383 150.859C156.909 150.859 157.383 150.964 157.805 151.172C158.227 151.375 158.586 151.661 158.883 152.031C159.18 152.396 159.406 152.833 159.562 153.344C159.724 153.849 159.805 154.401 159.805 155V155.414H154.141ZM156.336 152.008C156.003 152.008 155.706 152.073 155.445 152.203C155.185 152.333 154.961 152.508 154.773 152.727C154.591 152.945 154.445 153.198 154.336 153.484C154.232 153.766 154.172 154.057 154.156 154.359H158.383C158.372 154.052 158.318 153.758 158.219 153.477C158.125 153.19 157.99 152.94 157.812 152.727C157.641 152.508 157.43 152.333 157.18 152.203C156.935 152.073 156.654 152.008 156.336 152.008ZM163.586 151.016H165.07L167.039 157.609L168.914 151.016H170.383L167.477 160.203C167.388 160.484 167.273 160.714 167.133 160.891C166.992 161.073 166.831 161.216 166.648 161.32C166.471 161.43 166.273 161.505 166.055 161.547C165.836 161.589 165.604 161.609 165.359 161.609C165.141 161.609 164.914 161.596 164.68 161.57C164.445 161.549 164.198 161.518 163.938 161.477L164.133 160.328C164.237 160.349 164.349 160.367 164.469 160.383C164.568 160.398 164.68 160.411 164.805 160.422C164.93 160.432 165.057 160.438 165.188 160.438C165.474 160.438 165.695 160.375 165.852 160.25C166.013 160.125 166.128 159.922 166.195 159.641L166.273 159.273L163.586 151.016ZM175.008 150.859C175.56 150.859 176.062 150.964 176.516 151.172C176.969 151.375 177.354 151.661 177.672 152.031C177.995 152.396 178.245 152.833 178.422 153.344C178.599 153.849 178.688 154.406 178.688 155.016C178.688 155.615 178.599 156.169 178.422 156.68C178.245 157.185 177.995 157.622 177.672 157.992C177.354 158.357 176.969 158.643 176.516 158.852C176.062 159.055 175.56 159.156 175.008 159.156C174.456 159.156 173.953 159.055 173.5 158.852C173.052 158.643 172.667 158.357 172.344 157.992C172.021 157.622 171.771 157.185 171.594 156.68C171.417 156.169 171.328 155.615 171.328 155.016C171.328 154.406 171.417 153.849 171.594 153.344C171.771 152.833 172.021 152.396 172.344 152.031C172.667 151.661 173.052 151.375 173.5 151.172C173.953 150.964 174.456 150.859 175.008 150.859ZM175.008 158.008C175.388 158.008 175.721 157.93 176.008 157.773C176.299 157.612 176.542 157.396 176.734 157.125C176.932 156.854 177.081 156.542 177.18 156.188C177.279 155.828 177.328 155.453 177.328 155.062V154.969C177.328 154.568 177.279 154.188 177.18 153.828C177.081 153.469 176.932 153.156 176.734 152.891C176.542 152.62 176.299 152.406 176.008 152.25C175.721 152.089 175.388 152.008 175.008 152.008C174.628 152.008 174.292 152.089 174 152.25C173.714 152.406 173.471 152.62 173.273 152.891C173.081 153.156 172.935 153.469 172.836 153.828C172.737 154.188 172.688 154.568 172.688 154.969V155.062C172.688 155.453 172.737 155.828 172.836 156.188C172.935 156.542 173.081 156.854 173.273 157.125C173.471 157.396 173.714 157.612 174 157.773C174.292 157.93 174.628 158.008 175.008 158.008ZM186.859 159H185.547V158.086C185.276 158.456 184.94 158.727 184.539 158.898C184.143 159.07 183.701 159.156 183.211 159.156C182.768 159.156 182.38 159.083 182.047 158.938C181.714 158.792 181.435 158.594 181.211 158.344C180.987 158.094 180.818 157.805 180.703 157.477C180.594 157.148 180.539 156.802 180.539 156.438V151.016H181.852V156.023C181.852 156.378 181.893 156.677 181.977 156.922C182.065 157.167 182.182 157.367 182.328 157.523C182.479 157.674 182.654 157.786 182.852 157.859C183.055 157.927 183.271 157.961 183.5 157.961C183.771 157.961 184.029 157.917 184.273 157.828C184.523 157.734 184.742 157.596 184.93 157.414C185.117 157.232 185.266 157.003 185.375 156.727C185.49 156.451 185.547 156.125 185.547 155.75V151.016H186.859V159ZM193.344 152.188H193.133C192.794 152.188 192.471 152.227 192.164 152.305C191.857 152.383 191.586 152.523 191.352 152.727C191.117 152.93 190.93 153.208 190.789 153.562C190.648 153.911 190.578 154.359 190.578 154.906V159H189.266V151.016H190.578V152.281C190.677 152.047 190.81 151.841 190.977 151.664C191.143 151.487 191.331 151.341 191.539 151.227C191.753 151.107 191.979 151.018 192.219 150.961C192.464 150.904 192.711 150.875 192.961 150.875H193.344V152.188ZM203.078 156.789C203.078 157.164 202.995 157.5 202.828 157.797C202.667 158.089 202.451 158.336 202.18 158.539C201.909 158.742 201.596 158.896 201.242 159C200.893 159.104 200.534 159.156 200.164 159.156C199.581 159.156 199.018 159.057 198.477 158.859C197.94 158.656 197.464 158.367 197.047 157.992L197.766 157.062C197.891 157.172 198.034 157.286 198.195 157.406C198.362 157.526 198.547 157.638 198.75 157.742C198.953 157.841 199.172 157.924 199.406 157.992C199.641 158.055 199.888 158.086 200.148 158.086C200.362 158.086 200.565 158.06 200.758 158.008C200.956 157.951 201.128 157.87 201.273 157.766C201.419 157.656 201.534 157.529 201.617 157.383C201.706 157.232 201.75 157.062 201.75 156.875C201.75 156.667 201.703 156.492 201.609 156.352C201.521 156.211 201.398 156.091 201.242 155.992C201.086 155.893 200.904 155.807 200.695 155.734C200.487 155.661 200.268 155.589 200.039 155.516L199.539 155.352C199.258 155.258 198.987 155.151 198.727 155.031C198.466 154.911 198.234 154.766 198.031 154.594C197.833 154.417 197.674 154.208 197.555 153.969C197.44 153.729 197.383 153.443 197.383 153.109C197.383 152.839 197.44 152.57 197.555 152.305C197.669 152.034 197.844 151.792 198.078 151.578C198.318 151.365 198.62 151.193 198.984 151.062C199.349 150.927 199.779 150.859 200.273 150.859C200.82 150.859 201.326 150.951 201.789 151.133C202.258 151.315 202.654 151.542 202.977 151.812L202.289 152.758C202.174 152.648 202.039 152.544 201.883 152.445C201.727 152.346 201.56 152.26 201.383 152.188C201.206 152.109 201.021 152.047 200.828 152C200.635 151.953 200.445 151.93 200.258 151.93C199.971 151.93 199.729 151.964 199.531 152.031C199.333 152.094 199.174 152.177 199.055 152.281C198.935 152.385 198.846 152.503 198.789 152.633C198.737 152.763 198.711 152.891 198.711 153.016C198.711 153.198 198.75 153.352 198.828 153.477C198.906 153.596 199.008 153.701 199.133 153.789C199.263 153.878 199.409 153.953 199.57 154.016C199.737 154.078 199.909 154.141 200.086 154.203L200.742 154.422C201.055 154.526 201.341 154.638 201.602 154.758C201.862 154.872 202.091 155.005 202.289 155.156C202.539 155.354 202.732 155.583 202.867 155.844C203.008 156.104 203.078 156.419 203.078 156.789ZM206.406 159H205.094V151.016H206.406V159ZM204.852 148.711C204.852 148.586 204.875 148.469 204.922 148.359C204.974 148.25 205.039 148.154 205.117 148.07C205.201 147.987 205.297 147.922 205.406 147.875C205.521 147.823 205.641 147.797 205.766 147.797C205.891 147.797 206.008 147.823 206.117 147.875C206.227 147.922 206.32 147.987 206.398 148.07C206.482 148.154 206.547 148.25 206.594 148.359C206.646 148.469 206.672 148.586 206.672 148.711C206.672 148.836 206.646 148.956 206.594 149.07C206.547 149.18 206.482 149.276 206.398 149.359C206.32 149.438 206.227 149.503 206.117 149.555C206.008 149.602 205.891 149.625 205.766 149.625C205.641 149.625 205.521 149.602 205.406 149.555C205.297 149.503 205.201 149.438 205.117 149.359C205.039 149.276 204.974 149.18 204.922 149.07C204.875 148.956 204.852 148.836 204.852 148.711ZM208.359 154.57C208.359 154.044 208.435 153.555 208.586 153.102C208.737 152.648 208.953 152.258 209.234 151.93C209.516 151.596 209.854 151.336 210.25 151.148C210.651 150.956 211.099 150.859 211.594 150.859C212.031 150.859 212.448 150.945 212.844 151.117C213.24 151.284 213.576 151.555 213.852 151.93V151.016H215.164V159C215.164 159.495 215.062 159.909 214.859 160.242C214.661 160.581 214.401 160.852 214.078 161.055C213.755 161.258 213.388 161.404 212.977 161.492C212.57 161.581 212.156 161.625 211.734 161.625C211.5 161.625 211.255 161.612 211 161.586C210.75 161.56 210.497 161.521 210.242 161.469C209.987 161.417 209.734 161.349 209.484 161.266C209.24 161.188 209.005 161.094 208.781 160.984L209.258 159.883C209.414 159.956 209.578 160.026 209.75 160.094C209.922 160.167 210.107 160.232 210.305 160.289C210.508 160.346 210.724 160.393 210.953 160.43C211.182 160.466 211.432 160.484 211.703 160.484C212.036 160.484 212.336 160.451 212.602 160.383C212.872 160.315 213.099 160.208 213.281 160.062C213.464 159.922 213.604 159.74 213.703 159.516C213.802 159.297 213.852 159.034 213.852 158.727V157.211C213.576 157.586 213.24 157.859 212.844 158.031C212.448 158.198 212.031 158.281 211.594 158.281C211.099 158.281 210.651 158.188 210.25 158C209.854 157.807 209.516 157.544 209.234 157.211C208.953 156.878 208.737 156.487 208.586 156.039C208.435 155.586 208.359 155.096 208.359 154.57ZM213.883 154.539C213.883 154.18 213.844 153.849 213.766 153.547C213.688 153.24 213.565 152.974 213.398 152.75C213.232 152.521 213.018 152.344 212.758 152.219C212.503 152.089 212.195 152.023 211.836 152.023C211.471 152.023 211.156 152.089 210.891 152.219C210.625 152.349 210.404 152.529 210.227 152.758C210.055 152.982 209.927 153.247 209.844 153.555C209.76 153.862 209.719 154.19 209.719 154.539V154.602C209.719 154.951 209.76 155.279 209.844 155.586C209.927 155.888 210.055 156.154 210.227 156.383C210.404 156.607 210.625 156.784 210.891 156.914C211.156 157.044 211.471 157.109 211.836 157.109C212.195 157.109 212.503 157.047 212.758 156.922C213.018 156.792 213.232 156.615 213.398 156.391C213.565 156.167 213.688 155.901 213.766 155.594C213.844 155.286 213.883 154.956 213.883 154.602V154.539ZM217.562 151.016H218.875V151.93C219.146 151.56 219.479 151.289 219.875 151.117C220.276 150.945 220.721 150.859 221.211 150.859C221.654 150.859 222.042 150.932 222.375 151.078C222.708 151.224 222.987 151.422 223.211 151.672C223.435 151.922 223.602 152.211 223.711 152.539C223.826 152.867 223.883 153.214 223.883 153.578V159H222.57V153.992C222.57 153.643 222.526 153.346 222.438 153.102C222.354 152.852 222.237 152.651 222.086 152.5C221.94 152.344 221.766 152.232 221.562 152.164C221.365 152.091 221.151 152.055 220.922 152.055C220.672 152.055 220.424 152.102 220.18 152.195C219.94 152.284 219.721 152.419 219.523 152.602C219.331 152.784 219.174 153.013 219.055 153.289C218.935 153.565 218.875 153.891 218.875 154.266V159H217.562V151.016ZM230.734 159H229.422V151.016H230.734V159ZM229.18 148.711C229.18 148.586 229.203 148.469 229.25 148.359C229.302 148.25 229.367 148.154 229.445 148.07C229.529 147.987 229.625 147.922 229.734 147.875C229.849 147.823 229.969 147.797 230.094 147.797C230.219 147.797 230.336 147.823 230.445 147.875C230.555 147.922 230.648 147.987 230.727 148.07C230.81 148.154 230.875 148.25 230.922 148.359C230.974 148.469 231 148.586 231 148.711C231 148.836 230.974 148.956 230.922 149.07C230.875 149.18 230.81 149.276 230.727 149.359C230.648 149.438 230.555 149.503 230.445 149.555C230.336 149.602 230.219 149.625 230.094 149.625C229.969 149.625 229.849 149.602 229.734 149.555C229.625 149.503 229.529 149.438 229.445 149.359C229.367 149.276 229.302 149.18 229.25 149.07C229.203 148.956 229.18 148.836 229.18 148.711ZM233.141 151.016H234.453V151.93C234.724 151.56 235.057 151.289 235.453 151.117C235.854 150.945 236.299 150.859 236.789 150.859C237.232 150.859 237.62 150.932 237.953 151.078C238.286 151.224 238.565 151.422 238.789 151.672C239.013 151.922 239.18 152.211 239.289 152.539C239.404 152.867 239.461 153.214 239.461 153.578V159H238.148V153.992C238.148 153.643 238.104 153.346 238.016 153.102C237.932 152.852 237.815 152.651 237.664 152.5C237.518 152.344 237.344 152.232 237.141 152.164C236.943 152.091 236.729 152.055 236.5 152.055C236.25 152.055 236.003 152.102 235.758 152.195C235.518 152.284 235.299 152.419 235.102 152.602C234.909 152.784 234.753 153.013 234.633 153.289C234.513 153.565 234.453 153.891 234.453 154.266V159H233.141V151.016ZM59.4609 178.086C59.2266 178.414 58.9062 178.674 58.5 178.867C58.099 179.06 57.6406 179.156 57.125 179.156C56.6094 179.156 56.1432 179.055 55.7266 178.852C55.3099 178.643 54.9531 178.357 54.6562 177.992C54.3594 177.622 54.1302 177.185 53.9688 176.68C53.8125 176.174 53.7344 175.62 53.7344 175.016C53.7344 174.411 53.8125 173.857 53.9688 173.352C54.1302 172.841 54.3594 172.401 54.6562 172.031C54.9531 171.661 55.3099 171.375 55.7266 171.172C56.1432 170.964 56.6094 170.859 57.125 170.859C57.6406 170.859 58.099 170.956 58.5 171.148C58.9062 171.341 59.2266 171.602 59.4609 171.93V167.797H60.7734V179H59.4609V178.086ZM55.0938 175.047C55.0938 175.464 55.1432 175.852 55.2422 176.211C55.3411 176.57 55.487 176.883 55.6797 177.148C55.8724 177.409 56.1094 177.615 56.3906 177.766C56.6719 177.917 56.9974 177.992 57.3672 177.992C57.7161 177.992 58.0208 177.932 58.2812 177.812C58.5469 177.693 58.7682 177.529 58.9453 177.32C59.1224 177.112 59.2552 176.867 59.3438 176.586C59.4323 176.299 59.4766 175.99 59.4766 175.656V174.359C59.4766 174.026 59.4323 173.719 59.3438 173.438C59.2552 173.151 59.1224 172.904 58.9453 172.695C58.7682 172.487 58.5469 172.323 58.2812 172.203C58.0208 172.083 57.7161 172.023 57.3672 172.023C56.9974 172.023 56.6719 172.099 56.3906 172.25C56.1094 172.401 55.8724 172.609 55.6797 172.875C55.487 173.135 55.3411 173.445 55.2422 173.805C55.1432 174.164 55.0938 174.552 55.0938 174.969V175.047ZM64.0781 175.414C64.1042 175.789 64.1797 176.135 64.3047 176.453C64.4297 176.771 64.599 177.047 64.8125 177.281C65.0312 177.51 65.2865 177.69 65.5781 177.82C65.875 177.945 66.2031 178.008 66.5625 178.008C67.0052 178.008 67.3932 177.935 67.7266 177.789C68.0651 177.638 68.375 177.451 68.6562 177.227L69.3281 178.172C68.9688 178.458 68.5521 178.695 68.0781 178.883C67.6094 179.065 67.0833 179.156 66.5 179.156C65.9219 179.156 65.3984 179.055 64.9297 178.852C64.4609 178.643 64.0599 178.357 63.7266 177.992C63.3984 177.622 63.1458 177.185 62.9688 176.68C62.7917 176.169 62.7031 175.615 62.7031 175.016C62.7031 174.406 62.7891 173.849 62.9609 173.344C63.138 172.833 63.3854 172.396 63.7031 172.031C64.0208 171.661 64.401 171.375 64.8438 171.172C65.2865 170.964 65.7786 170.859 66.3203 170.859C66.8464 170.859 67.3203 170.964 67.7422 171.172C68.1641 171.375 68.5234 171.661 68.8203 172.031C69.1172 172.396 69.3438 172.833 69.5 173.344C69.6615 173.849 69.7422 174.401 69.7422 175V175.414H64.0781ZM66.2734 172.008C65.9401 172.008 65.6432 172.073 65.3828 172.203C65.1224 172.333 64.8984 172.508 64.7109 172.727C64.5286 172.945 64.3828 173.198 64.2734 173.484C64.1693 173.766 64.1094 174.057 64.0938 174.359H68.3203C68.3099 174.052 68.2552 173.758 68.1562 173.477C68.0625 173.19 67.9271 172.94 67.75 172.727C67.5781 172.508 67.3672 172.333 67.1172 172.203C66.8724 172.073 66.5911 172.008 66.2734 172.008ZM73.5625 177.016C73.5625 177.151 73.5703 177.279 73.5859 177.398C73.6068 177.513 73.651 177.615 73.7188 177.703C73.7917 177.792 73.8958 177.862 74.0312 177.914C74.1667 177.966 74.3516 177.992 74.5859 177.992C74.6484 177.992 74.7214 177.99 74.8047 177.984C74.8932 177.979 74.9844 177.974 75.0781 177.969C75.1719 177.958 75.263 177.948 75.3516 177.938C75.4401 177.922 75.5156 177.909 75.5781 177.898L75.7188 179.047C75.5677 179.068 75.4115 179.086 75.25 179.102C75.1146 179.117 74.9635 179.13 74.7969 179.141C74.6302 179.151 74.4635 179.156 74.2969 179.156C73.9792 179.156 73.6927 179.122 73.4375 179.055C73.1875 178.992 72.974 178.888 72.7969 178.742C72.6198 178.596 72.4844 178.406 72.3906 178.172C72.2969 177.932 72.25 177.643 72.25 177.305V172.172H70.7422V171.016H72.25V168.406L73.5625 167.945V171.016H75.7812V172.172H73.5625V177.016ZM81.9453 178.203C81.7109 178.474 81.3932 178.701 80.9922 178.883C80.5964 179.065 80.1302 179.156 79.5938 179.156C79.1979 179.156 78.8307 179.102 78.4922 178.992C78.1536 178.878 77.8594 178.716 77.6094 178.508C77.3594 178.299 77.1641 178.047 77.0234 177.75C76.8828 177.453 76.8125 177.117 76.8125 176.742C76.8125 176.43 76.862 176.146 76.9609 175.891C77.0651 175.63 77.2083 175.404 77.3906 175.211C77.5781 175.018 77.8021 174.862 78.0625 174.742C78.3229 174.617 78.6146 174.531 78.9375 174.484L81.7578 174.102V173.594C81.7578 173.292 81.7109 173.039 81.6172 172.836C81.5234 172.628 81.3958 172.464 81.2344 172.344C81.0781 172.224 80.8906 172.138 80.6719 172.086C80.4583 172.034 80.2266 172.008 79.9766 172.008C79.5286 172.008 79.1094 172.07 78.7188 172.195C78.3333 172.32 77.9844 172.466 77.6719 172.633L77.1797 171.594C77.638 171.333 78.1172 171.146 78.6172 171.031C79.1224 170.917 79.6198 170.859 80.1094 170.859C81.0833 170.859 81.8203 171.081 82.3203 171.523C82.8203 171.961 83.0703 172.602 83.0703 173.445V177.125C83.0703 177.391 83.1224 177.615 83.2266 177.797C83.3307 177.974 83.4974 178.115 83.7266 178.219L82.9844 179.156C82.7344 179.094 82.5182 178.984 82.3359 178.828C82.1589 178.667 82.0339 178.474 81.9609 178.25L81.9453 178.203ZM79.6094 175.445C79.3906 175.477 79.1901 175.521 79.0078 175.578C78.8307 175.635 78.6797 175.714 78.5547 175.812C78.4297 175.906 78.3307 176.023 78.2578 176.164C78.1901 176.305 78.1562 176.477 78.1562 176.68C78.1562 176.914 78.2005 177.122 78.2891 177.305C78.3776 177.487 78.4974 177.641 78.6484 177.766C78.7995 177.891 78.974 177.987 79.1719 178.055C79.375 178.117 79.5859 178.148 79.8047 178.148C80.0495 178.148 80.2891 178.115 80.5234 178.047C80.7578 177.979 80.9661 177.883 81.1484 177.758C81.3307 177.628 81.4766 177.471 81.5859 177.289C81.7005 177.107 81.7578 176.898 81.7578 176.664V175.125L79.6094 175.445ZM86.7656 179H85.4531V171.016H86.7656V179ZM85.2109 168.711C85.2109 168.586 85.2344 168.469 85.2812 168.359C85.3333 168.25 85.3984 168.154 85.4766 168.07C85.5599 167.987 85.6562 167.922 85.7656 167.875C85.8802 167.823 86 167.797 86.125 167.797C86.25 167.797 86.3672 167.823 86.4766 167.875C86.5859 167.922 86.6797 167.987 86.7578 168.07C86.8411 168.154 86.9062 168.25 86.9531 168.359C87.0052 168.469 87.0312 168.586 87.0312 168.711C87.0312 168.836 87.0052 168.956 86.9531 169.07C86.9062 169.18 86.8411 169.276 86.7578 169.359C86.6797 169.438 86.5859 169.503 86.4766 169.555C86.3672 169.602 86.25 169.625 86.125 169.625C86 169.625 85.8802 169.602 85.7656 169.555C85.6562 169.503 85.5599 169.438 85.4766 169.359C85.3984 169.276 85.3333 169.18 85.2812 169.07C85.2344 168.956 85.2109 168.836 85.2109 168.711ZM89.1172 167.797H90.4297V177.211C90.4297 177.341 90.4401 177.456 90.4609 177.555C90.487 177.654 90.5286 177.737 90.5859 177.805C90.6432 177.872 90.7214 177.924 90.8203 177.961C90.9245 177.992 91.0521 178.008 91.2031 178.008C91.3698 178.008 91.5208 178.003 91.6562 177.992C91.7917 177.982 91.9115 177.971 92.0156 177.961L92.1484 179.062C91.9974 179.078 91.8464 179.094 91.6953 179.109C91.5651 179.12 91.4219 179.13 91.2656 179.141C91.1094 179.151 90.9609 179.156 90.8203 179.156C90.5859 179.156 90.3646 179.128 90.1562 179.07C89.9479 179.018 89.7656 178.93 89.6094 178.805C89.4583 178.68 89.3385 178.518 89.25 178.32C89.1615 178.122 89.1172 177.88 89.1172 177.594V167.797ZM98.75 176.789C98.75 177.164 98.6667 177.5 98.5 177.797C98.3385 178.089 98.1224 178.336 97.8516 178.539C97.5807 178.742 97.2682 178.896 96.9141 179C96.5651 179.104 96.2057 179.156 95.8359 179.156C95.2526 179.156 94.6901 179.057 94.1484 178.859C93.612 178.656 93.1354 178.367 92.7188 177.992L93.4375 177.062C93.5625 177.172 93.7057 177.286 93.8672 177.406C94.0339 177.526 94.2188 177.638 94.4219 177.742C94.625 177.841 94.8438 177.924 95.0781 177.992C95.3125 178.055 95.5599 178.086 95.8203 178.086C96.0339 178.086 96.237 178.06 96.4297 178.008C96.6276 177.951 96.7995 177.87 96.9453 177.766C97.0911 177.656 97.2057 177.529 97.2891 177.383C97.3776 177.232 97.4219 177.062 97.4219 176.875C97.4219 176.667 97.375 176.492 97.2812 176.352C97.1927 176.211 97.0703 176.091 96.9141 175.992C96.7578 175.893 96.5755 175.807 96.3672 175.734C96.1589 175.661 95.9401 175.589 95.7109 175.516L95.2109 175.352C94.9297 175.258 94.6589 175.151 94.3984 175.031C94.138 174.911 93.9062 174.766 93.7031 174.594C93.5052 174.417 93.3464 174.208 93.2266 173.969C93.112 173.729 93.0547 173.443 93.0547 173.109C93.0547 172.839 93.112 172.57 93.2266 172.305C93.3411 172.034 93.5156 171.792 93.75 171.578C93.9896 171.365 94.2917 171.193 94.6562 171.062C95.0208 170.927 95.4505 170.859 95.9453 170.859C96.4922 170.859 96.9974 170.951 97.4609 171.133C97.9297 171.315 98.3255 171.542 98.6484 171.812L97.9609 172.758C97.8464 172.648 97.7109 172.544 97.5547 172.445C97.3984 172.346 97.2318 172.26 97.0547 172.188C96.8776 172.109 96.6927 172.047 96.5 172C96.3073 171.953 96.1172 171.93 95.9297 171.93C95.6432 171.93 95.401 171.964 95.2031 172.031C95.0052 172.094 94.8464 172.177 94.7266 172.281C94.6068 172.385 94.5182 172.503 94.4609 172.633C94.4089 172.763 94.3828 172.891 94.3828 173.016C94.3828 173.198 94.4219 173.352 94.5 173.477C94.5781 173.596 94.6797 173.701 94.8047 173.789C94.9349 173.878 95.0807 173.953 95.2422 174.016C95.4089 174.078 95.5807 174.141 95.7578 174.203L96.4141 174.422C96.7266 174.526 97.013 174.638 97.2734 174.758C97.5339 174.872 97.763 175.005 97.9609 175.156C98.2109 175.354 98.4036 175.583 98.5391 175.844C98.6797 176.104 98.75 176.419 98.75 176.789ZM105.281 179H103.969V171.016H105.281V179ZM103.727 168.711C103.727 168.586 103.75 168.469 103.797 168.359C103.849 168.25 103.914 168.154 103.992 168.07C104.076 167.987 104.172 167.922 104.281 167.875C104.396 167.823 104.516 167.797 104.641 167.797C104.766 167.797 104.883 167.823 104.992 167.875C105.102 167.922 105.195 167.987 105.273 168.07C105.357 168.154 105.422 168.25 105.469 168.359C105.521 168.469 105.547 168.586 105.547 168.711C105.547 168.836 105.521 168.956 105.469 169.07C105.422 169.18 105.357 169.276 105.273 169.359C105.195 169.438 105.102 169.503 104.992 169.555C104.883 169.602 104.766 169.625 104.641 169.625C104.516 169.625 104.396 169.602 104.281 169.555C104.172 169.503 104.076 169.438 103.992 169.359C103.914 169.276 103.849 169.18 103.797 169.07C103.75 168.956 103.727 168.836 103.727 168.711ZM107.688 171.016H109V171.93C109.271 171.56 109.604 171.289 110 171.117C110.401 170.945 110.846 170.859 111.336 170.859C111.779 170.859 112.167 170.932 112.5 171.078C112.833 171.224 113.112 171.422 113.336 171.672C113.56 171.922 113.727 172.211 113.836 172.539C113.951 172.867 114.008 173.214 114.008 173.578V179H112.695V173.992C112.695 173.643 112.651 173.346 112.562 173.102C112.479 172.852 112.362 172.651 112.211 172.5C112.065 172.344 111.891 172.232 111.688 172.164C111.49 172.091 111.276 172.055 111.047 172.055C110.797 172.055 110.549 172.102 110.305 172.195C110.065 172.284 109.846 172.419 109.648 172.602C109.456 172.784 109.299 173.013 109.18 173.289C109.06 173.565 109 173.891 109 174.266V179H107.688V171.016ZM118.289 171.016H119.773L121.742 177.609L123.617 171.016H125.086L122.18 180.203C122.091 180.484 121.977 180.714 121.836 180.891C121.695 181.073 121.534 181.216 121.352 181.32C121.174 181.43 120.977 181.505 120.758 181.547C120.539 181.589 120.307 181.609 120.062 181.609C119.844 181.609 119.617 181.596 119.383 181.57C119.148 181.549 118.901 181.518 118.641 181.477L118.836 180.328C118.94 180.349 119.052 180.367 119.172 180.383C119.271 180.398 119.383 180.411 119.508 180.422C119.633 180.432 119.76 180.438 119.891 180.438C120.177 180.438 120.398 180.375 120.555 180.25C120.716 180.125 120.831 179.922 120.898 179.641L120.977 179.273L118.289 171.016ZM129.711 170.859C130.263 170.859 130.766 170.964 131.219 171.172C131.672 171.375 132.057 171.661 132.375 172.031C132.698 172.396 132.948 172.833 133.125 173.344C133.302 173.849 133.391 174.406 133.391 175.016C133.391 175.615 133.302 176.169 133.125 176.68C132.948 177.185 132.698 177.622 132.375 177.992C132.057 178.357 131.672 178.643 131.219 178.852C130.766 179.055 130.263 179.156 129.711 179.156C129.159 179.156 128.656 179.055 128.203 178.852C127.755 178.643 127.37 178.357 127.047 177.992C126.724 177.622 126.474 177.185 126.297 176.68C126.12 176.169 126.031 175.615 126.031 175.016C126.031 174.406 126.12 173.849 126.297 173.344C126.474 172.833 126.724 172.396 127.047 172.031C127.37 171.661 127.755 171.375 128.203 171.172C128.656 170.964 129.159 170.859 129.711 170.859ZM129.711 178.008C130.091 178.008 130.424 177.93 130.711 177.773C131.003 177.612 131.245 177.396 131.438 177.125C131.635 176.854 131.784 176.542 131.883 176.188C131.982 175.828 132.031 175.453 132.031 175.062V174.969C132.031 174.568 131.982 174.188 131.883 173.828C131.784 173.469 131.635 173.156 131.438 172.891C131.245 172.62 131.003 172.406 130.711 172.25C130.424 172.089 130.091 172.008 129.711 172.008C129.331 172.008 128.995 172.089 128.703 172.25C128.417 172.406 128.174 172.62 127.977 172.891C127.784 173.156 127.638 173.469 127.539 173.828C127.44 174.188 127.391 174.568 127.391 174.969V175.062C127.391 175.453 127.44 175.828 127.539 176.188C127.638 176.542 127.784 176.854 127.977 177.125C128.174 177.396 128.417 177.612 128.703 177.773C128.995 177.93 129.331 178.008 129.711 178.008ZM141.562 179H140.25V178.086C139.979 178.456 139.643 178.727 139.242 178.898C138.846 179.07 138.404 179.156 137.914 179.156C137.471 179.156 137.083 179.083 136.75 178.938C136.417 178.792 136.138 178.594 135.914 178.344C135.69 178.094 135.521 177.805 135.406 177.477C135.297 177.148 135.242 176.802 135.242 176.438V171.016H136.555V176.023C136.555 176.378 136.596 176.677 136.68 176.922C136.768 177.167 136.885 177.367 137.031 177.523C137.182 177.674 137.357 177.786 137.555 177.859C137.758 177.927 137.974 177.961 138.203 177.961C138.474 177.961 138.732 177.917 138.977 177.828C139.227 177.734 139.445 177.596 139.633 177.414C139.82 177.232 139.969 177.003 140.078 176.727C140.193 176.451 140.25 176.125 140.25 175.75V171.016H141.562V179ZM148.047 172.188H147.836C147.497 172.188 147.174 172.227 146.867 172.305C146.56 172.383 146.289 172.523 146.055 172.727C145.82 172.93 145.633 173.208 145.492 173.562C145.352 173.911 145.281 174.359 145.281 174.906V179H143.969V171.016H145.281V172.281C145.38 172.047 145.513 171.841 145.68 171.664C145.846 171.487 146.034 171.341 146.242 171.227C146.456 171.107 146.682 171.018 146.922 170.961C147.167 170.904 147.414 170.875 147.664 170.875H148.047V172.188ZM157.008 177.961C157.414 177.961 157.773 177.909 158.086 177.805C158.404 177.701 158.677 177.562 158.906 177.391C159.141 177.219 159.339 177.021 159.5 176.797C159.661 176.573 159.789 176.341 159.883 176.102C159.982 175.857 160.052 175.615 160.094 175.375C160.141 175.13 160.164 174.904 160.164 174.695V174.234H157.023V173.078H161.391V179H160.148V177.492C159.956 177.799 159.737 178.06 159.492 178.273C159.247 178.487 158.987 178.659 158.711 178.789C158.435 178.919 158.143 179.013 157.836 179.07C157.534 179.128 157.227 179.156 156.914 179.156C156.148 179.156 155.469 179.008 154.875 178.711C154.281 178.414 153.779 178.008 153.367 177.492C152.961 176.977 152.651 176.37 152.438 175.672C152.224 174.974 152.117 174.221 152.117 173.414C152.117 172.612 152.234 171.862 152.469 171.164C152.703 170.461 153.036 169.852 153.469 169.336C153.901 168.815 154.422 168.406 155.031 168.109C155.646 167.807 156.333 167.656 157.094 167.656C157.562 167.656 158.005 167.714 158.422 167.828C158.844 167.938 159.232 168.096 159.586 168.305C159.94 168.508 160.258 168.753 160.539 169.039C160.82 169.32 161.057 169.633 161.25 169.977L160.086 170.586C159.951 170.326 159.789 170.091 159.602 169.883C159.414 169.669 159.198 169.487 158.953 169.336C158.708 169.185 158.432 169.068 158.125 168.984C157.823 168.901 157.49 168.859 157.125 168.859C156.542 168.859 156.029 168.984 155.586 169.234C155.143 169.479 154.771 169.807 154.469 170.219C154.172 170.63 153.948 171.107 153.797 171.648C153.646 172.185 153.57 172.742 153.57 173.32V173.516C153.57 174.094 153.638 174.651 153.773 175.188C153.914 175.724 154.125 176.198 154.406 176.609C154.693 177.016 155.052 177.344 155.484 177.594C155.917 177.839 156.424 177.961 157.008 177.961ZM163.367 173.414C163.367 172.612 163.479 171.862 163.703 171.164C163.932 170.461 164.258 169.852 164.68 169.336C165.102 168.815 165.615 168.406 166.219 168.109C166.823 167.807 167.503 167.656 168.258 167.656C169.013 167.656 169.693 167.807 170.297 168.109C170.901 168.406 171.414 168.815 171.836 169.336C172.263 169.852 172.589 170.461 172.812 171.164C173.042 171.862 173.156 172.612 173.156 173.414C173.156 174.221 173.042 174.974 172.812 175.672C172.589 176.37 172.263 176.977 171.836 177.492C171.414 178.008 170.901 178.414 170.297 178.711C169.693 179.008 169.013 179.156 168.258 179.156C167.503 179.156 166.823 179.008 166.219 178.711C165.615 178.414 165.102 178.008 164.68 177.492C164.258 176.977 163.932 176.37 163.703 175.672C163.479 174.974 163.367 174.221 163.367 173.414ZM171.703 173.305C171.703 172.727 171.635 172.169 171.5 171.633C171.37 171.096 171.164 170.622 170.883 170.211C170.602 169.799 170.242 169.471 169.805 169.227C169.372 168.982 168.857 168.859 168.258 168.859C167.659 168.859 167.143 168.982 166.711 169.227C166.279 169.471 165.922 169.799 165.641 170.211C165.359 170.622 165.151 171.096 165.016 171.633C164.885 172.169 164.82 172.727 164.82 173.305V173.516C164.82 174.094 164.885 174.651 165.016 175.188C165.151 175.724 165.359 176.198 165.641 176.609C165.922 177.016 166.279 177.344 166.711 177.594C167.143 177.839 167.659 177.961 168.258 177.961C168.857 177.961 169.372 177.839 169.805 177.594C170.242 177.344 170.602 177.016 170.883 176.609C171.164 176.198 171.37 175.724 171.5 175.188C171.635 174.651 171.703 174.094 171.703 173.516V173.305ZM181.555 167.797H183.016L179.539 179H177.555L174.055 167.797H175.57L178.516 177.812H178.648L181.555 167.797ZM183.625 178.25C183.625 178.125 183.648 178.008 183.695 177.898C183.747 177.784 183.812 177.688 183.891 177.609C183.974 177.526 184.07 177.461 184.18 177.414C184.289 177.362 184.406 177.336 184.531 177.336C184.656 177.336 184.773 177.362 184.883 177.414C184.997 177.461 185.094 177.526 185.172 177.609C185.255 177.688 185.32 177.784 185.367 177.898C185.419 178.008 185.445 178.125 185.445 178.25C185.445 178.375 185.419 178.492 185.367 178.602C185.32 178.711 185.255 178.807 185.172 178.891C185.094 178.969 184.997 179.031 184.883 179.078C184.773 179.13 184.656 179.156 184.531 179.156C184.406 179.156 184.289 179.13 184.18 179.078C184.07 179.031 183.974 178.969 183.891 178.891C183.812 178.807 183.747 178.711 183.695 178.602C183.648 178.492 183.625 178.375 183.625 178.25ZM192.211 177.961C192.576 177.961 192.924 177.904 193.258 177.789C193.596 177.669 193.893 177.487 194.148 177.242C194.409 176.997 194.617 176.688 194.773 176.312C194.93 175.932 195.008 175.479 195.008 174.953V167.797H196.352V175.141C196.352 175.755 196.245 176.31 196.031 176.805C195.818 177.299 195.526 177.721 195.156 178.07C194.786 178.419 194.349 178.688 193.844 178.875C193.339 179.062 192.794 179.156 192.211 179.156C191.633 179.156 191.091 179.062 190.586 178.875C190.086 178.688 189.648 178.419 189.273 178.07C188.904 177.721 188.612 177.299 188.398 176.805C188.185 176.31 188.078 175.755 188.078 175.141V167.797H189.438V174.953C189.438 175.479 189.513 175.932 189.664 176.312C189.82 176.688 190.026 176.997 190.281 177.242C190.536 177.487 190.831 177.669 191.164 177.789C191.503 177.904 191.852 177.961 192.211 177.961ZM199.32 167.797H200.695V173.797L205.539 167.797H207.219L203.555 172.219L207.586 179H205.977L202.633 173.227L200.695 175.625V179H199.32V167.797ZM211.711 173.414C211.711 172.612 211.823 171.862 212.047 171.164C212.276 170.461 212.602 169.852 213.023 169.336C213.445 168.815 213.958 168.406 214.562 168.109C215.167 167.807 215.846 167.656 216.602 167.656C217.357 167.656 218.036 167.807 218.641 168.109C219.245 168.406 219.758 168.815 220.18 169.336C220.607 169.852 220.932 170.461 221.156 171.164C221.385 171.862 221.5 172.612 221.5 173.414C221.5 174.221 221.385 174.974 221.156 175.672C220.932 176.37 220.607 176.977 220.18 177.492C219.758 178.008 219.245 178.414 218.641 178.711C218.036 179.008 217.357 179.156 216.602 179.156C215.846 179.156 215.167 179.008 214.562 178.711C213.958 178.414 213.445 178.008 213.023 177.492C212.602 176.977 212.276 176.37 212.047 175.672C211.823 174.974 211.711 174.221 211.711 173.414ZM220.047 173.305C220.047 172.727 219.979 172.169 219.844 171.633C219.714 171.096 219.508 170.622 219.227 170.211C218.945 169.799 218.586 169.471 218.148 169.227C217.716 168.982 217.201 168.859 216.602 168.859C216.003 168.859 215.487 168.982 215.055 169.227C214.622 169.471 214.266 169.799 213.984 170.211C213.703 170.622 213.495 171.096 213.359 171.633C213.229 172.169 213.164 172.727 213.164 173.305V173.516C213.164 174.094 213.229 174.651 213.359 175.188C213.495 175.724 213.703 176.198 213.984 176.609C214.266 177.016 214.622 177.344 215.055 177.594C215.487 177.839 216.003 177.961 216.602 177.961C217.201 177.961 217.716 177.839 218.148 177.594C218.586 177.344 218.945 177.016 219.227 176.609C219.508 176.198 219.714 175.724 219.844 175.188C219.979 174.651 220.047 174.094 220.047 173.516V173.305ZM223.484 171.016H224.797V171.93C225.068 171.56 225.401 171.289 225.797 171.117C226.198 170.945 226.643 170.859 227.133 170.859C227.576 170.859 227.964 170.932 228.297 171.078C228.63 171.224 228.909 171.422 229.133 171.672C229.357 171.922 229.523 172.211 229.633 172.539C229.747 172.867 229.805 173.214 229.805 173.578V179H228.492V173.992C228.492 173.643 228.448 173.346 228.359 173.102C228.276 172.852 228.159 172.651 228.008 172.5C227.862 172.344 227.688 172.232 227.484 172.164C227.286 172.091 227.073 172.055 226.844 172.055C226.594 172.055 226.346 172.102 226.102 172.195C225.862 172.284 225.643 172.419 225.445 172.602C225.253 172.784 225.096 173.013 224.977 173.289C224.857 173.565 224.797 173.891 224.797 174.266V179H223.484V171.016ZM233.031 175.414C233.057 175.789 233.133 176.135 233.258 176.453C233.383 176.771 233.552 177.047 233.766 177.281C233.984 177.51 234.24 177.69 234.531 177.82C234.828 177.945 235.156 178.008 235.516 178.008C235.958 178.008 236.346 177.935 236.68 177.789C237.018 177.638 237.328 177.451 237.609 177.227L238.281 178.172C237.922 178.458 237.505 178.695 237.031 178.883C236.562 179.065 236.036 179.156 235.453 179.156C234.875 179.156 234.352 179.055 233.883 178.852C233.414 178.643 233.013 178.357 232.68 177.992C232.352 177.622 232.099 177.185 231.922 176.68C231.745 176.169 231.656 175.615 231.656 175.016C231.656 174.406 231.742 173.849 231.914 173.344C232.091 172.833 232.339 172.396 232.656 172.031C232.974 171.661 233.354 171.375 233.797 171.172C234.24 170.964 234.732 170.859 235.273 170.859C235.799 170.859 236.273 170.964 236.695 171.172C237.117 171.375 237.477 171.661 237.773 172.031C238.07 172.396 238.297 172.833 238.453 173.344C238.615 173.849 238.695 174.401 238.695 175V175.414H233.031ZM235.227 172.008C234.893 172.008 234.596 172.073 234.336 172.203C234.076 172.333 233.852 172.508 233.664 172.727C233.482 172.945 233.336 173.198 233.227 173.484C233.122 173.766 233.062 174.057 233.047 174.359H237.273C237.263 174.052 237.208 173.758 237.109 173.477C237.016 173.19 236.88 172.94 236.703 172.727C236.531 172.508 236.32 172.333 236.07 172.203C235.826 172.073 235.544 172.008 235.227 172.008ZM54.5391 187.797H55.9141V197.766H60.3906V199H54.5391V187.797ZM64.9297 190.859C65.4818 190.859 65.9844 190.964 66.4375 191.172C66.8906 191.375 67.276 191.661 67.5938 192.031C67.9167 192.396 68.1667 192.833 68.3438 193.344C68.5208 193.849 68.6094 194.406 68.6094 195.016C68.6094 195.615 68.5208 196.169 68.3438 196.68C68.1667 197.185 67.9167 197.622 67.5938 197.992C67.276 198.357 66.8906 198.643 66.4375 198.852C65.9844 199.055 65.4818 199.156 64.9297 199.156C64.3776 199.156 63.875 199.055 63.4219 198.852C62.974 198.643 62.5885 198.357 62.2656 197.992C61.9427 197.622 61.6927 197.185 61.5156 196.68C61.3385 196.169 61.25 195.615 61.25 195.016C61.25 194.406 61.3385 193.849 61.5156 193.344C61.6927 192.833 61.9427 192.396 62.2656 192.031C62.5885 191.661 62.974 191.375 63.4219 191.172C63.875 190.964 64.3776 190.859 64.9297 190.859ZM64.9297 198.008C65.3099 198.008 65.6432 197.93 65.9297 197.773C66.2214 197.612 66.4635 197.396 66.6562 197.125C66.8542 196.854 67.0026 196.542 67.1016 196.188C67.2005 195.828 67.25 195.453 67.25 195.062V194.969C67.25 194.568 67.2005 194.188 67.1016 193.828C67.0026 193.469 66.8542 193.156 66.6562 192.891C66.4635 192.62 66.2214 192.406 65.9297 192.25C65.6432 192.089 65.3099 192.008 64.9297 192.008C64.5495 192.008 64.2135 192.089 63.9219 192.25C63.6354 192.406 63.3932 192.62 63.1953 192.891C63.0026 193.156 62.8568 193.469 62.7578 193.828C62.6589 194.188 62.6094 194.568 62.6094 194.969V195.062C62.6094 195.453 62.6589 195.828 62.7578 196.188C62.8568 196.542 63.0026 196.854 63.1953 197.125C63.3932 197.396 63.6354 197.612 63.9219 197.773C64.2135 197.93 64.5495 198.008 64.9297 198.008ZM70.0781 194.57C70.0781 194.044 70.1536 193.555 70.3047 193.102C70.4557 192.648 70.6719 192.258 70.9531 191.93C71.2344 191.596 71.5729 191.336 71.9688 191.148C72.3698 190.956 72.8177 190.859 73.3125 190.859C73.75 190.859 74.1667 190.945 74.5625 191.117C74.9583 191.284 75.2943 191.555 75.5703 191.93V191.016H76.8828V199C76.8828 199.495 76.7812 199.909 76.5781 200.242C76.3802 200.581 76.1198 200.852 75.7969 201.055C75.474 201.258 75.1068 201.404 74.6953 201.492C74.2891 201.581 73.875 201.625 73.4531 201.625C73.2188 201.625 72.974 201.612 72.7188 201.586C72.4688 201.56 72.2161 201.521 71.9609 201.469C71.7057 201.417 71.4531 201.349 71.2031 201.266C70.9583 201.188 70.724 201.094 70.5 200.984L70.9766 199.883C71.1328 199.956 71.2969 200.026 71.4688 200.094C71.6406 200.167 71.8255 200.232 72.0234 200.289C72.2266 200.346 72.4427 200.393 72.6719 200.43C72.901 200.466 73.151 200.484 73.4219 200.484C73.7552 200.484 74.0547 200.451 74.3203 200.383C74.5911 200.315 74.8177 200.208 75 200.062C75.1823 199.922 75.3229 199.74 75.4219 199.516C75.5208 199.297 75.5703 199.034 75.5703 198.727V197.211C75.2943 197.586 74.9583 197.859 74.5625 198.031C74.1667 198.198 73.75 198.281 73.3125 198.281C72.8177 198.281 72.3698 198.188 71.9688 198C71.5729 197.807 71.2344 197.544 70.9531 197.211C70.6719 196.878 70.4557 196.487 70.3047 196.039C70.1536 195.586 70.0781 195.096 70.0781 194.57ZM75.6016 194.539C75.6016 194.18 75.5625 193.849 75.4844 193.547C75.4062 193.24 75.2839 192.974 75.1172 192.75C74.9505 192.521 74.737 192.344 74.4766 192.219C74.2214 192.089 73.9141 192.023 73.5547 192.023C73.1901 192.023 72.875 192.089 72.6094 192.219C72.3438 192.349 72.1224 192.529 71.9453 192.758C71.7734 192.982 71.6458 193.247 71.5625 193.555C71.4792 193.862 71.4375 194.19 71.4375 194.539V194.602C71.4375 194.951 71.4792 195.279 71.5625 195.586C71.6458 195.888 71.7734 196.154 71.9453 196.383C72.1224 196.607 72.3438 196.784 72.6094 196.914C72.875 197.044 73.1901 197.109 73.5547 197.109C73.9141 197.109 74.2214 197.047 74.4766 196.922C74.737 196.792 74.9505 196.615 75.1172 196.391C75.2839 196.167 75.4062 195.901 75.4844 195.594C75.5625 195.286 75.6016 194.956 75.6016 194.602V194.539ZM80.5938 199H79.2812V191.016H80.5938V199ZM79.0391 188.711C79.0391 188.586 79.0625 188.469 79.1094 188.359C79.1615 188.25 79.2266 188.154 79.3047 188.07C79.388 187.987 79.4844 187.922 79.5938 187.875C79.7083 187.823 79.8281 187.797 79.9531 187.797C80.0781 187.797 80.1953 187.823 80.3047 187.875C80.4141 187.922 80.5078 187.987 80.5859 188.07C80.6693 188.154 80.7344 188.25 80.7812 188.359C80.8333 188.469 80.8594 188.586 80.8594 188.711C80.8594 188.836 80.8333 188.956 80.7812 189.07C80.7344 189.18 80.6693 189.276 80.5859 189.359C80.5078 189.438 80.4141 189.503 80.3047 189.555C80.1953 189.602 80.0781 189.625 79.9531 189.625C79.8281 189.625 79.7083 189.602 79.5938 189.555C79.4844 189.503 79.388 189.438 79.3047 189.359C79.2266 189.276 79.1615 189.18 79.1094 189.07C79.0625 188.956 79.0391 188.836 79.0391 188.711ZM83 191.016H84.3125V191.93C84.5833 191.56 84.9167 191.289 85.3125 191.117C85.7135 190.945 86.1589 190.859 86.6484 190.859C87.0911 190.859 87.4792 190.932 87.8125 191.078C88.1458 191.224 88.4245 191.422 88.6484 191.672C88.8724 191.922 89.0391 192.211 89.1484 192.539C89.263 192.867 89.3203 193.214 89.3203 193.578V199H88.0078V193.992C88.0078 193.643 87.9635 193.346 87.875 193.102C87.7917 192.852 87.6745 192.651 87.5234 192.5C87.3776 192.344 87.2031 192.232 87 192.164C86.8021 192.091 86.5885 192.055 86.3594 192.055C86.1094 192.055 85.862 192.102 85.6172 192.195C85.3776 192.284 85.1589 192.419 84.9609 192.602C84.7682 192.784 84.612 193.013 84.4922 193.289C84.3724 193.565 84.3125 193.891 84.3125 194.266V199H83V191.016Z" fill="#1D70B8"/>
<path d="M109.75 162.008H240.594V163.156H109.75V162.008ZM53 182.008H239.32V183.156H53V182.008ZM53 202.008H90.4531V203.156H53V202.008Z" fill="#1D70B8"/>
<rect x="20" y="235" width="248" height="8" fill="#B1B4B6"/>
<rect x="20" y="258" width="194" height="8" fill="#B1B4B6"/>
<rect x="20" y="281" width="248" height="8" fill="#B1B4B6"/>
<rect x="20" y="304" width="194" height="8" fill="#B1B4B6"/>
<rect x="2.5" y="2.5" width="285" height="332" stroke="black" stroke-width="5"/>
</svg>
