<?xml version="1.0" encoding="utf-8"?>
<!-- Generator: Adobe Illustrator 28.2.0, SVG Export Plug-In . SVG Version: 6.00 Build 0)  -->
<svg version="1.1" id="Layer_1" xmlns="http://www.w3.org/2000/svg" xmlns:xlink="http://www.w3.org/1999/xlink" x="0px" y="0px"
	 viewBox="0 0 435 727" style="enable-background:new 0 0 435 727;" xml:space="preserve">
<style type="text/css">
	.st0{clip-path:url(#SVGID_00000083075479715269021020000001475663605384743580_);}
	.st1{fill:#FFFFFF;}
	.st2{fill:#0B0C0C;}
	.st3{fill:none;stroke:#505A5F;}
	.st4{fill:#505A5F;}
	.st5{fill:none;stroke:#0B0C0C;stroke-width:2;}
	.st6{fill:#00703C;}
	.st7{fill:#005A30;}
	.st8{fill:#1D70B8;}
	.st9{fill:none;stroke:#B1B4B6;}
	.st10{fill-rule:evenodd;clip-rule:evenodd;fill:#FFFFFF;}
</style>
<g>
	<g>
		<defs>
			<rect id="SVGID_1_" x="30" y="18" width="375" height="667"/>
		</defs>
		<clipPath id="SVGID_00000024707033848969966980000017855290876015375520_">
			<use xlink:href="#SVGID_1_"  style="overflow:visible;"/>
		</clipPath>
		<g style="clip-path:url(#SVGID_00000024707033848969966980000017855290876015375520_);">
			<rect x="30" y="18" class="st1" width="375" height="667"/>
			<path class="st2" d="M61.1,207.1c0,1.3-0.2,2.4-0.5,3.4c-0.3,1-0.8,1.9-1.5,2.6c-0.7,0.7-1.5,1.3-2.5,1.7c-1,0.4-2.2,0.6-3.6,0.6
				h-6.2v-16.8h6.2c1.4,0,2.5,0.2,3.6,0.6c1,0.4,1.9,1,2.5,1.7c0.7,0.7,1.2,1.6,1.5,2.7C60.9,204.7,61.1,205.9,61.1,207.1z
				 M57.6,206.8c0-0.7-0.1-1.4-0.3-2c-0.2-0.6-0.5-1.2-0.8-1.6c-0.4-0.5-0.9-0.8-1.5-1.1c-0.6-0.3-1.4-0.4-2.2-0.4h-2.5v10.8h2.5
				c0.9,0,1.6-0.1,2.2-0.4c0.6-0.3,1.1-0.6,1.5-1.1c0.4-0.5,0.7-1,0.9-1.6c0.2-0.6,0.3-1.3,0.3-2V206.8z M67.5,210.5
				c-0.4,0.1-0.7,0.2-1,0.4c-0.2,0.2-0.4,0.5-0.4,0.9c0,0.4,0.1,0.8,0.4,1.1c0.3,0.3,0.7,0.4,1.3,0.4c0.6,0,1.1-0.2,1.4-0.5
				c0.4-0.4,0.5-0.8,0.5-1.4V210L67.5,210.5z M70.4,214.4c-0.1,0.1-0.3,0.3-0.5,0.5c-0.2,0.2-0.4,0.3-0.7,0.5
				c-0.3,0.1-0.6,0.2-0.9,0.3c-0.4,0.1-0.7,0.1-1.2,0.1c-0.6,0-1.2-0.1-1.7-0.3c-0.5-0.2-1-0.5-1.4-0.8c-0.4-0.4-0.7-0.8-0.9-1.2
				c-0.2-0.5-0.3-1-0.3-1.5c0-1,0.3-1.8,0.9-2.5c0.6-0.6,1.5-1,2.6-1.2l3.6-0.5v-0.2c0-0.6-0.2-1-0.5-1.3c-0.3-0.3-0.9-0.5-1.7-0.5
				c-0.3,0-0.6,0-1,0.1c-0.3,0.1-0.6,0.2-0.9,0.2c-0.3,0.1-0.6,0.2-0.8,0.3c-0.3,0.1-0.5,0.2-0.7,0.3l-1.3-2.5
				c0.7-0.4,1.5-0.7,2.4-1c0.9-0.3,1.8-0.4,2.7-0.4c0.6,0,1.2,0.1,1.7,0.2c0.6,0.1,1.1,0.3,1.6,0.7c0.5,0.3,0.9,0.8,1.2,1.3
				c0.3,0.5,0.5,1.2,0.5,2.1v5.2c0,0.4,0.1,0.6,0.3,0.8c0.2,0.2,0.5,0.3,0.8,0.5l-1.5,2.3c-0.6-0.1-1.1-0.2-1.4-0.5
				C71,215.1,70.7,214.8,70.4,214.4z M80,211.8c0,0.1,0,0.3,0.1,0.4c0,0.1,0.1,0.2,0.2,0.4c0.1,0.1,0.2,0.2,0.4,0.2
				c0.2,0.1,0.4,0.1,0.7,0.1c0.1,0,0.2,0,0.4,0c0.1,0,0.3,0,0.4,0c0.1,0,0.3,0,0.4-0.1c0.1,0,0.2,0,0.3-0.1l0.3,2.9
				c-0.3,0-0.6,0.1-0.9,0.1c-0.3,0-0.6,0.1-0.9,0.1c-0.3,0-0.7,0-1,0c-1.1,0-2-0.3-2.6-0.8c-0.6-0.5-0.9-1.3-0.9-2.4v-6.8h-2.3V203
				h2.3v-3.6l3.2-0.9v4.4h3.3v2.8H80V211.8z M88,210.4c0.1,0.4,0.2,0.7,0.4,1c0.2,0.3,0.4,0.6,0.7,0.8c0.3,0.2,0.6,0.4,1,0.5
				c0.4,0.1,0.8,0.2,1.2,0.2c0.5,0,1-0.1,1.5-0.3c0.6-0.2,1.1-0.5,1.5-0.8l1.6,2.3c-0.6,0.5-1.3,0.9-2.2,1.2
				c-0.9,0.3-1.8,0.5-2.7,0.5c-0.9,0-1.7-0.1-2.4-0.4c-0.8-0.3-1.4-0.7-2-1.3c-0.6-0.6-1-1.2-1.4-2.1c-0.3-0.8-0.5-1.7-0.5-2.7
				c0-0.9,0.1-1.8,0.4-2.6c0.3-0.8,0.7-1.5,1.2-2.1c0.5-0.6,1.2-1,1.9-1.4c0.7-0.3,1.5-0.5,2.4-0.5c0.8,0,1.6,0.2,2.3,0.5
				c0.7,0.3,1.3,0.7,1.9,1.3c0.5,0.5,0.9,1.2,1.2,1.9c0.3,0.8,0.4,1.6,0.4,2.5v1.5H88z M90.7,205.6c-0.7,0-1.3,0.2-1.8,0.7
				c-0.5,0.5-0.8,1-0.8,1.7h5.1c0-0.7-0.3-1.2-0.7-1.7C91.9,205.8,91.3,205.6,90.7,205.6z M104.1,217c0.4,0,0.6-0.1,0.8-0.2
				c0.2-0.1,0.3-0.3,0.4-0.6l0.1-0.4l-4.3-12.8h3.6l2.5,8.7l2.1-8.7h3.6l-4.2,14.1c-0.1,0.5-0.3,0.9-0.6,1.2s-0.5,0.6-0.9,0.8
				c-0.3,0.2-0.7,0.4-1.1,0.5c-0.4,0.1-0.9,0.2-1.3,0.2c-0.2,0-0.4,0-0.7,0c-0.2,0-0.5,0-0.8-0.1c-0.3,0-0.5-0.1-0.8-0.1
				c-0.3,0-0.5-0.1-0.7-0.1l0.6-2.6c0.2,0,0.4,0.1,0.6,0.1c0.2,0,0.4,0.1,0.6,0.1C103.6,217,103.8,217,104.1,217z M119.8,202.8
				c0.9,0,1.8,0.2,2.5,0.5c0.8,0.3,1.4,0.8,1.9,1.4c0.5,0.6,1,1.3,1.2,2.1c0.3,0.8,0.4,1.7,0.4,2.6c0,0.9-0.1,1.8-0.4,2.6
				c-0.3,0.8-0.7,1.5-1.3,2.1c-0.5,0.6-1.2,1-1.9,1.4c-0.8,0.3-1.6,0.5-2.5,0.5c-0.9,0-1.8-0.2-2.5-0.5c-0.8-0.3-1.4-0.8-1.9-1.4
				c-0.5-0.6-1-1.3-1.3-2.1c-0.3-0.8-0.4-1.7-0.4-2.6c0-0.9,0.1-1.8,0.4-2.6c0.3-0.8,0.7-1.5,1.3-2.1s1.2-1,1.9-1.4
				C118.1,202.9,118.9,202.8,119.8,202.8z M119.8,212.8c0.5,0,0.9-0.1,1.2-0.3c0.4-0.2,0.7-0.4,0.9-0.7c0.2-0.3,0.4-0.7,0.6-1.1
				c0.1-0.4,0.2-0.9,0.2-1.4v-0.1c0-0.5-0.1-1-0.2-1.4c-0.1-0.4-0.3-0.8-0.6-1.1c-0.2-0.3-0.5-0.6-0.9-0.7c-0.4-0.2-0.8-0.3-1.2-0.3
				s-0.9,0.1-1.2,0.3c-0.4,0.2-0.6,0.4-0.9,0.7c-0.2,0.3-0.4,0.7-0.6,1.1c-0.1,0.4-0.2,0.9-0.2,1.4v0.1c0,0.5,0.1,1,0.2,1.4
				c0.1,0.4,0.3,0.8,0.6,1.1c0.2,0.3,0.5,0.5,0.9,0.7C119,212.7,119.4,212.8,119.8,212.8z M138.8,215.6h-3.2v-1.1
				c-0.2,0.2-0.4,0.3-0.6,0.5c-0.2,0.2-0.4,0.3-0.7,0.4c-0.3,0.1-0.5,0.2-0.9,0.3c-0.3,0.1-0.7,0.1-1,0.1c-0.7,0-1.3-0.1-1.8-0.3
				c-0.5-0.2-1-0.5-1.4-0.9c-0.4-0.4-0.6-0.8-0.8-1.4c-0.2-0.5-0.3-1.1-0.3-1.7V203h3.2v7.3c0,0.4,0,0.8,0.1,1.1
				c0.1,0.3,0.2,0.6,0.4,0.8c0.2,0.2,0.4,0.3,0.6,0.4c0.2,0.1,0.5,0.1,0.8,0.1c0.3,0,0.6-0.1,0.9-0.2c0.3-0.1,0.5-0.3,0.8-0.5
				c0.2-0.2,0.4-0.5,0.5-0.9c0.1-0.4,0.2-0.8,0.2-1.3V203h3.2V215.6z M146.8,211.5c0.5,0.4,1,0.8,1.7,1.1c0.6,0.3,1.3,0.4,1.9,0.4
				c0.5,0,0.9-0.1,1.1-0.3c0.3-0.2,0.4-0.4,0.4-0.7c0-0.5-0.5-0.9-1.6-1.1l-0.9-0.2c-0.5-0.1-0.9-0.3-1.4-0.4
				c-0.5-0.2-0.9-0.4-1.3-0.8c-0.4-0.3-0.7-0.7-0.9-1.1c-0.2-0.5-0.4-1-0.4-1.7c0-0.5,0.1-1,0.3-1.5c0.2-0.5,0.6-0.9,1-1.3
				c0.4-0.4,0.9-0.6,1.6-0.9c0.6-0.2,1.3-0.3,2-0.3c1.1,0,2,0.2,2.9,0.5c0.8,0.3,1.5,0.7,2,1.1l-1.7,2.2c-0.4-0.3-0.9-0.5-1.4-0.7
				c-0.5-0.2-1.1-0.3-1.6-0.3c-0.5,0-0.9,0.1-1.2,0.3c-0.3,0.2-0.4,0.4-0.4,0.7c0,0.3,0.1,0.5,0.4,0.7c0.2,0.2,0.6,0.3,1.1,0.4
				l1.4,0.4c1.3,0.4,2.2,0.9,2.8,1.5c0.6,0.6,0.8,1.4,0.8,2.4c0,0.5-0.1,1-0.3,1.5c-0.2,0.5-0.5,0.9-1,1.3s-0.9,0.7-1.6,0.9
				c-0.6,0.2-1.3,0.3-2.1,0.3c-0.6,0-1.2-0.1-1.7-0.2c-0.5-0.1-1-0.3-1.5-0.4c-0.5-0.2-0.9-0.4-1.2-0.7c-0.4-0.2-0.7-0.5-0.9-0.7
				L146.8,211.5z M163,202.8c0.9,0,1.8,0.2,2.5,0.5c0.8,0.3,1.4,0.8,1.9,1.4s1,1.3,1.2,2.1c0.3,0.8,0.4,1.7,0.4,2.6
				c0,0.9-0.1,1.8-0.4,2.6c-0.3,0.8-0.7,1.5-1.3,2.1c-0.5,0.6-1.2,1-1.9,1.4c-0.8,0.3-1.6,0.5-2.5,0.5c-0.9,0-1.8-0.2-2.5-0.5
				c-0.8-0.3-1.4-0.8-1.9-1.4c-0.5-0.6-1-1.3-1.3-2.1c-0.3-0.8-0.4-1.7-0.4-2.6c0-0.9,0.1-1.8,0.4-2.6c0.3-0.8,0.7-1.5,1.3-2.1
				s1.2-1,1.9-1.4C161.3,202.9,162.1,202.8,163,202.8z M163,212.8c0.5,0,0.9-0.1,1.2-0.3c0.4-0.2,0.7-0.4,0.9-0.7
				c0.2-0.3,0.4-0.7,0.6-1.1c0.1-0.4,0.2-0.9,0.2-1.4v-0.1c0-0.5-0.1-1-0.2-1.4c-0.1-0.4-0.3-0.8-0.6-1.1c-0.2-0.3-0.5-0.6-0.9-0.7
				c-0.4-0.2-0.8-0.3-1.2-0.3s-0.9,0.1-1.2,0.3c-0.4,0.2-0.6,0.4-0.9,0.7c-0.2,0.3-0.4,0.7-0.6,1.1c-0.1,0.4-0.2,0.9-0.2,1.4v0.1
				c0,0.5,0.1,1,0.2,1.4c0.1,0.4,0.3,0.8,0.6,1.1c0.2,0.3,0.5,0.5,0.9,0.7C162.2,212.7,162.6,212.8,163,212.8z M171.3,198.7h3.2
				v13.4c0,0.3,0.1,0.5,0.2,0.6c0.2,0.1,0.4,0.2,0.7,0.2c0.2,0,0.3,0,0.4,0c0.1,0,0.3-0.1,0.4-0.1l0.3,2.8c-0.2,0-0.5,0.1-0.7,0.1
				c-0.2,0-0.5,0-0.7,0.1c-0.3,0-0.6,0-0.9,0c-0.5,0-0.9-0.1-1.2-0.2c-0.4-0.1-0.7-0.3-0.9-0.5c-0.3-0.2-0.5-0.5-0.6-0.9
				c-0.1-0.3-0.2-0.7-0.2-1.2V198.7z M186.4,215.6v-1.1c-0.2,0.2-0.4,0.4-0.6,0.5c-0.2,0.2-0.4,0.3-0.7,0.4
				c-0.2,0.1-0.5,0.2-0.8,0.3c-0.3,0.1-0.6,0.1-1,0.1c-0.8,0-1.6-0.2-2.3-0.5c-0.7-0.3-1.3-0.8-1.8-1.4c-0.5-0.6-0.9-1.3-1.1-2.1
				c-0.3-0.8-0.4-1.7-0.4-2.6c0-0.9,0.1-1.8,0.4-2.6c0.3-0.8,0.6-1.5,1.1-2.1c0.5-0.6,1.1-1,1.7-1.4c0.7-0.3,1.4-0.5,2.3-0.5
				c0.7,0,1.4,0.1,1.9,0.4c0.5,0.2,0.9,0.6,1.3,0.9v-5.3h3.2v16.8H186.4z M186.5,208.1c0-0.3-0.1-0.6-0.2-0.9
				c-0.1-0.3-0.3-0.5-0.5-0.8c-0.2-0.2-0.5-0.4-0.8-0.5c-0.3-0.1-0.7-0.2-1.1-0.2c-0.5,0-0.9,0.1-1.2,0.3c-0.4,0.2-0.6,0.4-0.9,0.7
				c-0.2,0.3-0.4,0.7-0.5,1.1s-0.2,0.9-0.2,1.4v0.2c0,0.5,0.1,1,0.2,1.4c0.1,0.4,0.3,0.8,0.5,1.1c0.2,0.3,0.5,0.5,0.9,0.7
				c0.4,0.2,0.8,0.2,1.2,0.2c0.4,0,0.8-0.1,1.1-0.2c0.3-0.1,0.6-0.3,0.8-0.5c0.2-0.2,0.4-0.5,0.5-0.7c0.1-0.3,0.2-0.6,0.2-0.9V208.1
				z M200.9,211.8c0,0.1,0,0.3,0.1,0.4c0,0.1,0.1,0.2,0.2,0.4c0.1,0.1,0.2,0.2,0.4,0.2c0.2,0.1,0.4,0.1,0.7,0.1c0.1,0,0.2,0,0.4,0
				c0.1,0,0.3,0,0.4,0c0.1,0,0.3,0,0.4-0.1c0.1,0,0.2,0,0.3-0.1l0.3,2.9c-0.3,0-0.6,0.1-0.9,0.1c-0.3,0-0.6,0.1-0.9,0.1
				c-0.3,0-0.7,0-1,0c-1.1,0-2-0.3-2.6-0.8c-0.6-0.5-0.9-1.3-0.9-2.4v-6.8h-2.3V203h2.3v-3.6l3.2-0.9v4.4h3.3v2.8h-3.3V211.8z
				 M206.3,198.7h3.2v5.3c0.2-0.2,0.4-0.3,0.6-0.5c0.2-0.2,0.5-0.3,0.7-0.4c0.3-0.1,0.5-0.2,0.9-0.3c0.3-0.1,0.7-0.1,1.1-0.1
				c0.7,0,1.3,0.1,1.8,0.3c0.5,0.2,1,0.5,1.4,0.9c0.4,0.4,0.7,0.8,0.9,1.4c0.2,0.5,0.3,1.1,0.3,1.7v8.5h-3.2v-7.3
				c0-0.4-0.1-0.8-0.2-1.1c-0.1-0.3-0.2-0.6-0.4-0.8c-0.2-0.2-0.4-0.3-0.6-0.4c-0.2-0.1-0.5-0.1-0.8-0.1c-0.3,0-0.6,0.1-0.9,0.2
				c-0.3,0.1-0.5,0.3-0.7,0.5c-0.2,0.2-0.4,0.5-0.5,0.9c-0.1,0.4-0.2,0.8-0.2,1.3v6.9h-3.2V198.7z M222.4,210.4
				c0.1,0.4,0.2,0.7,0.4,1c0.2,0.3,0.4,0.6,0.7,0.8c0.3,0.2,0.6,0.4,1,0.5c0.4,0.1,0.8,0.2,1.2,0.2c0.5,0,1-0.1,1.5-0.3
				c0.6-0.2,1.1-0.5,1.5-0.8l1.6,2.3c-0.6,0.5-1.3,0.9-2.2,1.2c-0.9,0.3-1.8,0.5-2.7,0.5c-0.9,0-1.7-0.1-2.4-0.4
				c-0.8-0.3-1.4-0.7-2-1.3c-0.6-0.6-1-1.2-1.4-2.1c-0.3-0.8-0.5-1.7-0.5-2.7c0-0.9,0.1-1.8,0.4-2.6c0.3-0.8,0.7-1.5,1.2-2.1
				c0.5-0.6,1.2-1,1.9-1.4c0.7-0.3,1.5-0.5,2.4-0.5c0.8,0,1.6,0.2,2.3,0.5c0.7,0.3,1.3,0.7,1.9,1.3c0.5,0.5,0.9,1.2,1.2,1.9
				c0.3,0.8,0.4,1.6,0.4,2.5v1.5H222.4z M225.1,205.6c-0.7,0-1.3,0.2-1.8,0.7c-0.5,0.5-0.8,1-0.8,1.7h5.1c0-0.7-0.3-1.2-0.7-1.7
				C226.3,205.8,225.8,205.6,225.1,205.6z M239.4,215.6l-3.8-12.6h3.6l2.2,8.6l2.3-8.6h3.6l-3.8,12.6H239.4z M251.6,210.4
				c0.1,0.4,0.2,0.7,0.4,1c0.2,0.3,0.4,0.6,0.7,0.8c0.3,0.2,0.6,0.4,1,0.5s0.8,0.2,1.2,0.2c0.5,0,1-0.1,1.5-0.3
				c0.6-0.2,1.1-0.5,1.5-0.8l1.6,2.3c-0.6,0.5-1.3,0.9-2.2,1.2c-0.9,0.3-1.8,0.5-2.7,0.5c-0.9,0-1.7-0.1-2.4-0.4
				c-0.8-0.3-1.4-0.7-2-1.3c-0.6-0.6-1-1.2-1.4-2.1c-0.3-0.8-0.5-1.7-0.5-2.7c0-0.9,0.1-1.8,0.4-2.6c0.3-0.8,0.7-1.5,1.2-2.1
				c0.5-0.6,1.2-1,1.9-1.4c0.7-0.3,1.5-0.5,2.4-0.5c0.8,0,1.6,0.2,2.3,0.5c0.7,0.3,1.3,0.7,1.9,1.3c0.5,0.5,0.9,1.2,1.2,1.9
				c0.3,0.8,0.4,1.6,0.4,2.5v1.5H251.6z M254.2,205.6c-0.7,0-1.3,0.2-1.8,0.7c-0.5,0.5-0.8,1-0.8,1.7h5.1c0-0.7-0.3-1.2-0.7-1.7
				S254.9,205.6,254.2,205.6z M262.1,198.7h3.2v5.3c0.2-0.2,0.4-0.3,0.6-0.5c0.2-0.2,0.5-0.3,0.7-0.4c0.3-0.1,0.5-0.2,0.9-0.3
				c0.3-0.1,0.7-0.1,1.1-0.1c0.7,0,1.3,0.1,1.8,0.3c0.5,0.2,1,0.5,1.4,0.9c0.4,0.4,0.7,0.8,0.9,1.4c0.2,0.5,0.3,1.1,0.3,1.7v8.5
				h-3.2v-7.3c0-0.4-0.1-0.8-0.2-1.1c-0.1-0.3-0.2-0.6-0.4-0.8c-0.2-0.2-0.4-0.3-0.6-0.4c-0.2-0.1-0.5-0.1-0.8-0.1
				c-0.3,0-0.6,0.1-0.9,0.2c-0.3,0.1-0.5,0.3-0.7,0.5c-0.2,0.2-0.4,0.5-0.5,0.9c-0.1,0.4-0.2,0.8-0.2,1.3v6.9h-3.2V198.7z
				 M278.8,215.6h-3.2V203h3.2V215.6z M275.3,199.7c0-0.3,0.1-0.5,0.2-0.8c0.1-0.2,0.2-0.4,0.4-0.6c0.2-0.2,0.4-0.3,0.6-0.4
				c0.2-0.1,0.5-0.2,0.8-0.2c0.3,0,0.5,0.1,0.8,0.2c0.2,0.1,0.4,0.2,0.6,0.4c0.2,0.2,0.3,0.4,0.4,0.6c0.1,0.2,0.2,0.5,0.2,0.8
				c0,0.3-0.1,0.5-0.2,0.8c-0.1,0.2-0.2,0.4-0.4,0.6c-0.2,0.2-0.4,0.3-0.6,0.4c-0.2,0.1-0.5,0.2-0.8,0.2c-0.3,0-0.5-0.1-0.8-0.2
				c-0.2-0.1-0.4-0.2-0.6-0.4c-0.2-0.2-0.3-0.4-0.4-0.6C275.3,200.2,275.3,200,275.3,199.7z M284.3,209.3c0,0.4,0.1,0.8,0.2,1.2
				c0.1,0.4,0.3,0.8,0.5,1.1c0.2,0.3,0.5,0.6,0.9,0.8c0.4,0.2,0.8,0.3,1.3,0.3c0.3,0,0.6,0,0.9-0.1c0.3-0.1,0.5-0.2,0.7-0.4
				c0.2-0.2,0.4-0.3,0.6-0.5c0.2-0.2,0.3-0.4,0.4-0.7l2.8,1.5c-0.2,0.5-0.5,0.9-0.8,1.3c-0.4,0.4-0.8,0.7-1.2,1
				c-0.5,0.3-1,0.5-1.6,0.6c-0.6,0.2-1.2,0.2-1.8,0.2c-0.9,0-1.7-0.2-2.4-0.5c-0.7-0.3-1.4-0.8-1.9-1.4c-0.5-0.6-1-1.3-1.3-2.1
				c-0.3-0.8-0.5-1.7-0.5-2.6c0-0.9,0.2-1.8,0.5-2.6c0.3-0.8,0.7-1.5,1.3-2.1s1.2-1,1.9-1.4c0.7-0.3,1.6-0.5,2.4-0.5
				c0.6,0,1.2,0.1,1.8,0.2c0.6,0.1,1.1,0.4,1.6,0.7c0.5,0.3,0.9,0.6,1.2,1c0.4,0.4,0.6,0.8,0.8,1.3l-2.8,1.5
				c-0.1-0.2-0.3-0.5-0.4-0.7c-0.2-0.2-0.3-0.4-0.6-0.5c-0.2-0.2-0.4-0.3-0.7-0.4c-0.3-0.1-0.5-0.1-0.9-0.1c-0.5,0-0.9,0.1-1.3,0.3
				c-0.4,0.2-0.6,0.5-0.9,0.8c-0.2,0.3-0.4,0.7-0.5,1.1c-0.1,0.4-0.2,0.8-0.2,1.2V209.3z M294.5,198.7h3.2v13.4
				c0,0.3,0.1,0.5,0.2,0.6c0.2,0.1,0.4,0.2,0.7,0.2c0.2,0,0.3,0,0.4,0c0.1,0,0.3-0.1,0.4-0.1l0.3,2.8c-0.2,0-0.5,0.1-0.7,0.1
				c-0.2,0-0.5,0-0.7,0.1c-0.3,0-0.6,0-0.9,0c-0.5,0-0.9-0.1-1.2-0.2c-0.4-0.1-0.7-0.3-0.9-0.5c-0.3-0.2-0.5-0.5-0.6-0.9
				c-0.1-0.3-0.2-0.7-0.2-1.2V198.7z M304.2,210.4c0.1,0.4,0.2,0.7,0.4,1c0.2,0.3,0.4,0.6,0.7,0.8c0.3,0.2,0.6,0.4,1,0.5
				c0.4,0.1,0.8,0.2,1.2,0.2c0.5,0,1-0.1,1.5-0.3c0.6-0.2,1.1-0.5,1.5-0.8l1.6,2.3c-0.6,0.5-1.3,0.9-2.2,1.2
				c-0.9,0.3-1.8,0.5-2.7,0.5c-0.9,0-1.7-0.1-2.4-0.4s-1.4-0.7-2-1.3c-0.6-0.6-1-1.2-1.4-2.1c-0.3-0.8-0.5-1.7-0.5-2.7
				c0-0.9,0.1-1.8,0.4-2.6c0.3-0.8,0.7-1.5,1.2-2.1c0.5-0.6,1.2-1,1.9-1.4c0.7-0.3,1.5-0.5,2.4-0.5c0.8,0,1.6,0.2,2.3,0.5
				c0.7,0.3,1.3,0.7,1.9,1.3c0.5,0.5,0.9,1.2,1.2,1.9c0.3,0.8,0.4,1.6,0.4,2.5v1.5H304.2z M306.9,205.6c-0.7,0-1.3,0.2-1.8,0.7
				c-0.5,0.5-0.8,1-0.8,1.7h5.1c0-0.7-0.3-1.2-0.7-1.7C308.1,205.8,307.6,205.6,306.9,205.6z"/>
			<path class="st3" d="M51,159.6l-6,7l6,7"/>
			<path class="st2" d="M66.8,159.3c0.4,0,0.9,0.1,1.2,0.2c0.4,0.1,0.7,0.3,1,0.6c0.3,0.2,0.5,0.5,0.7,0.9c0.2,0.3,0.3,0.7,0.3,1.1
				c0,0.3,0,0.5-0.1,0.8c-0.1,0.3-0.2,0.5-0.4,0.7c-0.2,0.2-0.3,0.4-0.6,0.6c-0.2,0.2-0.4,0.3-0.7,0.4c0.3,0,0.6,0.1,0.9,0.3
				c0.3,0.1,0.6,0.3,0.8,0.6c0.2,0.2,0.4,0.5,0.6,0.8c0.1,0.3,0.2,0.7,0.2,1.1c0,0.5-0.1,1-0.3,1.4c-0.2,0.4-0.5,0.7-0.8,1
				c-0.3,0.3-0.8,0.4-1.2,0.6c-0.5,0.1-1,0.2-1.5,0.2h-4.3v-11.2H66.8z M69.2,167.4c0-0.3-0.1-0.6-0.2-0.9c-0.1-0.3-0.3-0.5-0.5-0.6
				c-0.2-0.2-0.5-0.3-0.8-0.4c-0.3-0.1-0.6-0.1-1-0.1h-2.9v4h2.9c0.3,0,0.6,0,0.9-0.1s0.5-0.2,0.8-0.4c0.2-0.2,0.4-0.4,0.5-0.6
				C69.2,168,69.2,167.7,69.2,167.4z M68.6,162.3c0-0.2,0-0.5-0.1-0.7c-0.1-0.2-0.2-0.4-0.4-0.6c-0.2-0.2-0.4-0.3-0.7-0.4
				c-0.3-0.1-0.6-0.1-1-0.1h-2.5v3.7h2.5c0.4,0,0.7,0,1-0.1c0.3-0.1,0.5-0.2,0.7-0.4c0.2-0.2,0.3-0.4,0.4-0.6
				C68.6,162.8,68.6,162.6,68.6,162.3z M77.2,169.8c-0.2,0.3-0.6,0.5-1,0.7c-0.4,0.2-0.9,0.3-1.4,0.3c-0.4,0-0.8-0.1-1.1-0.2
				c-0.3-0.1-0.6-0.3-0.9-0.5c-0.2-0.2-0.4-0.5-0.6-0.8c-0.1-0.3-0.2-0.6-0.2-1c0-0.3,0-0.6,0.1-0.9c0.1-0.3,0.2-0.5,0.4-0.7
				c0.2-0.2,0.4-0.3,0.7-0.5c0.3-0.1,0.6-0.2,0.9-0.3l2.8-0.4v-0.5c0-0.3,0-0.6-0.1-0.8c-0.1-0.2-0.2-0.4-0.4-0.5
				c-0.2-0.1-0.3-0.2-0.6-0.3c-0.2-0.1-0.4-0.1-0.7-0.1c-0.4,0-0.9,0.1-1.3,0.2c-0.4,0.1-0.7,0.3-1,0.4l-0.5-1
				c0.5-0.3,0.9-0.4,1.4-0.6c0.5-0.1,1-0.2,1.5-0.2c1,0,1.7,0.2,2.2,0.7c0.5,0.4,0.8,1.1,0.8,1.9v3.7c0,0.3,0.1,0.5,0.2,0.7
				c0.1,0.2,0.3,0.3,0.5,0.4l-0.7,0.9c-0.2-0.1-0.5-0.2-0.6-0.3C77.4,170.2,77.3,170,77.2,169.8L77.2,169.8z M74.9,167
				c-0.2,0-0.4,0.1-0.6,0.1c-0.2,0.1-0.3,0.1-0.5,0.2c-0.1,0.1-0.2,0.2-0.3,0.4c-0.1,0.1-0.1,0.3-0.1,0.5c0,0.2,0,0.4,0.1,0.6
				c0.1,0.2,0.2,0.3,0.4,0.5c0.2,0.1,0.3,0.2,0.5,0.3c0.2,0.1,0.4,0.1,0.6,0.1c0.2,0,0.5,0,0.7-0.1c0.2-0.1,0.4-0.2,0.6-0.3
				c0.2-0.1,0.3-0.3,0.4-0.5c0.1-0.2,0.2-0.4,0.2-0.6v-1.5L74.9,167z M81.6,166.6c0,0.4,0,0.8,0.1,1.1c0.1,0.4,0.2,0.7,0.4,0.9
				c0.2,0.3,0.4,0.5,0.7,0.6c0.3,0.2,0.6,0.2,1,0.2c0.2,0,0.5,0,0.7-0.1c0.2-0.1,0.4-0.2,0.6-0.3c0.2-0.1,0.3-0.3,0.5-0.4
				c0.1-0.2,0.3-0.3,0.4-0.5l1.1,0.6c-0.1,0.3-0.3,0.5-0.5,0.8c-0.2,0.2-0.4,0.4-0.7,0.6c-0.3,0.2-0.6,0.3-0.9,0.4
				c-0.3,0.1-0.7,0.1-1,0.1c-0.6,0-1.1-0.1-1.5-0.3c-0.4-0.2-0.8-0.5-1.2-0.9c-0.3-0.4-0.6-0.8-0.8-1.3c-0.2-0.5-0.3-1.1-0.3-1.7
				c0-0.6,0.1-1.2,0.3-1.7c0.2-0.5,0.4-0.9,0.8-1.3c0.3-0.4,0.7-0.7,1.2-0.9c0.5-0.2,1-0.3,1.5-0.3c0.4,0,0.7,0,1,0.1
				c0.3,0.1,0.6,0.2,0.9,0.4c0.3,0.2,0.5,0.4,0.7,0.6c0.2,0.2,0.4,0.5,0.5,0.8l-1.1,0.6c-0.1-0.2-0.2-0.4-0.4-0.5
				c-0.1-0.2-0.3-0.3-0.5-0.4c-0.2-0.1-0.4-0.2-0.6-0.3c-0.2-0.1-0.4-0.1-0.7-0.1c-0.4,0-0.7,0.1-1,0.2c-0.3,0.2-0.5,0.4-0.7,0.6
				c-0.2,0.3-0.3,0.6-0.4,0.9C81.6,165.7,81.6,166.1,81.6,166.6L81.6,166.6z M90.2,166.5l3.8-3.9h1.6l-3,3.2l3.2,4.8h-1.6l-2.5-3.9
				l-1.4,1.5v2.5h-1.3v-11.2h1.3V166.5z"/>
			<path class="st2" d="M61,173.6h35v1.1H61V173.6z"/>
			<path class="st4" d="M46.5,243.9h6.7v1.2h-5.3v3.7h4.9v1.2h-4.9v5.1h-1.4V243.9z M58.1,247c0.6,0,1.1,0.1,1.5,0.3
				c0.5,0.2,0.8,0.5,1.2,0.9c0.3,0.4,0.6,0.8,0.8,1.3c0.2,0.5,0.3,1.1,0.3,1.7c0,0.6-0.1,1.2-0.3,1.7c-0.2,0.5-0.4,0.9-0.8,1.3
				c-0.3,0.4-0.7,0.7-1.2,0.9c-0.5,0.2-1,0.3-1.5,0.3c-0.6,0-1.1-0.1-1.5-0.3c-0.4-0.2-0.8-0.5-1.2-0.9c-0.3-0.4-0.6-0.8-0.8-1.3
				c-0.2-0.5-0.3-1.1-0.3-1.7c0-0.6,0.1-1.2,0.3-1.7c0.2-0.5,0.4-0.9,0.8-1.3c0.3-0.4,0.7-0.7,1.2-0.9C57,247.1,57.5,247,58.1,247z
				 M58.1,254.1c0.4,0,0.7-0.1,1-0.2c0.3-0.2,0.5-0.4,0.7-0.6c0.2-0.3,0.3-0.6,0.4-0.9c0.1-0.4,0.1-0.7,0.1-1.1v-0.1
				c0-0.4,0-0.8-0.1-1.1c-0.1-0.4-0.2-0.7-0.4-0.9c-0.2-0.3-0.4-0.5-0.7-0.6c-0.3-0.2-0.6-0.2-1-0.2s-0.7,0.1-1,0.2
				c-0.3,0.2-0.5,0.4-0.7,0.6c-0.2,0.3-0.3,0.6-0.4,0.9c-0.1,0.4-0.1,0.7-0.1,1.1v0.1c0,0.4,0,0.8,0.1,1.1c0.1,0.4,0.2,0.7,0.4,0.9
				c0.2,0.3,0.4,0.5,0.7,0.6C57.3,254,57.7,254.1,58.1,254.1z M67.7,248.3h-0.2c-0.3,0-0.7,0-1,0.1c-0.3,0.1-0.6,0.2-0.8,0.4
				c-0.2,0.2-0.4,0.5-0.6,0.8C65,250,65,250.5,65,251v4.1h-1.3v-8H65v1.3c0.1-0.2,0.2-0.4,0.4-0.6c0.2-0.2,0.4-0.3,0.6-0.4
				c0.2-0.1,0.4-0.2,0.7-0.3c0.2-0.1,0.5-0.1,0.7-0.1h0.4V248.3z M73,251.5c0,0.4,0.1,0.7,0.2,1c0.1,0.3,0.3,0.6,0.5,0.8
				c0.2,0.2,0.5,0.4,0.8,0.5c0.3,0.1,0.6,0.2,1,0.2c0.4,0,0.8-0.1,1.2-0.2c0.3-0.2,0.6-0.3,0.9-0.6l0.7,0.9
				c-0.4,0.3-0.8,0.5-1.2,0.7c-0.5,0.2-1,0.3-1.6,0.3c-0.6,0-1.1-0.1-1.6-0.3c-0.5-0.2-0.9-0.5-1.2-0.9c-0.3-0.4-0.6-0.8-0.8-1.3
				c-0.2-0.5-0.3-1.1-0.3-1.7c0-0.6,0.1-1.2,0.3-1.7c0.2-0.5,0.4-0.9,0.7-1.3c0.3-0.4,0.7-0.7,1.1-0.9c0.4-0.2,0.9-0.3,1.5-0.3
				c0.5,0,1,0.1,1.4,0.3c0.4,0.2,0.8,0.5,1.1,0.9c0.3,0.4,0.5,0.8,0.7,1.3c0.2,0.5,0.2,1.1,0.2,1.7v0.4H73z M75.2,248.1
				c-0.3,0-0.6,0.1-0.9,0.2c-0.3,0.1-0.5,0.3-0.7,0.5c-0.2,0.2-0.3,0.5-0.4,0.8c-0.1,0.3-0.2,0.6-0.2,0.9h4.2c0-0.3-0.1-0.6-0.2-0.9
				c-0.1-0.3-0.2-0.5-0.4-0.8c-0.2-0.2-0.4-0.4-0.6-0.5C75.8,248.2,75.5,248.1,75.2,248.1z M82.2,250.9l-2.4-3.8h1.5l1.7,2.8
				l1.6-2.8h1.5l-2.4,3.8l2.8,4.2h-1.6l-2-3.1l-1.8,3.1h-1.6L82.2,250.9z M92.5,254.3c-0.2,0.3-0.6,0.5-1,0.7
				c-0.4,0.2-0.9,0.3-1.4,0.3c-0.4,0-0.8-0.1-1.1-0.2c-0.3-0.1-0.6-0.3-0.9-0.5c-0.2-0.2-0.4-0.5-0.6-0.8c-0.1-0.3-0.2-0.6-0.2-1
				c0-0.3,0-0.6,0.1-0.9c0.1-0.3,0.2-0.5,0.4-0.7c0.2-0.2,0.4-0.3,0.7-0.5c0.3-0.1,0.6-0.2,0.9-0.3l2.8-0.4v-0.5
				c0-0.3,0-0.6-0.1-0.8c-0.1-0.2-0.2-0.4-0.4-0.5c-0.2-0.1-0.3-0.2-0.6-0.3c-0.2-0.1-0.4-0.1-0.7-0.1c-0.4,0-0.9,0.1-1.3,0.2
				c-0.4,0.1-0.7,0.3-1,0.4l-0.5-1c0.5-0.3,0.9-0.4,1.4-0.6c0.5-0.1,1-0.2,1.5-0.2c1,0,1.7,0.2,2.2,0.7c0.5,0.4,0.8,1.1,0.8,1.9v3.7
				c0,0.3,0.1,0.5,0.2,0.7c0.1,0.2,0.3,0.3,0.5,0.4l-0.7,0.9c-0.2-0.1-0.5-0.2-0.6-0.3C92.7,254.8,92.5,254.6,92.5,254.3L92.5,254.3
				z M90.1,251.5c-0.2,0-0.4,0.1-0.6,0.1c-0.2,0.1-0.3,0.1-0.5,0.2c-0.1,0.1-0.2,0.2-0.3,0.4c-0.1,0.1-0.1,0.3-0.1,0.5
				c0,0.2,0,0.4,0.1,0.6c0.1,0.2,0.2,0.3,0.4,0.5c0.2,0.1,0.3,0.2,0.5,0.3c0.2,0.1,0.4,0.1,0.6,0.1c0.2,0,0.5,0,0.7-0.1
				c0.2-0.1,0.4-0.2,0.6-0.3c0.2-0.1,0.3-0.3,0.4-0.5c0.1-0.2,0.2-0.4,0.2-0.6v-1.5L90.1,251.5z M102,255.1h-1.3v-5
				c0-0.4,0-0.7-0.1-0.9c-0.1-0.2-0.2-0.4-0.3-0.6c-0.1-0.2-0.3-0.3-0.5-0.3c-0.2-0.1-0.4-0.1-0.6-0.1c-0.2,0-0.4,0-0.6,0.1
				c-0.2,0.1-0.4,0.2-0.6,0.4c-0.2,0.2-0.3,0.4-0.4,0.7c-0.1,0.3-0.1,0.6-0.1,1v4.7H96v-8h1.3v0.9c0.3-0.4,0.6-0.6,0.9-0.8
				c0.4-0.2,0.7-0.3,1.2-0.3c0.2,0,0.4,0,0.6,0.1c0.2,0,0.4,0.1,0.6,0.2c0.2,0.1,0.4,0.2,0.6,0.4c0.2,0.2,0.3,0.4,0.4,0.6
				c0.1-0.2,0.3-0.4,0.5-0.6c0.2-0.2,0.4-0.3,0.6-0.4c0.2-0.1,0.4-0.2,0.7-0.2c0.2,0,0.5-0.1,0.7-0.1c0.4,0,0.8,0.1,1.1,0.2
				c0.3,0.1,0.6,0.3,0.8,0.6c0.2,0.2,0.4,0.5,0.5,0.9c0.1,0.3,0.2,0.7,0.2,1v5.5h-1.3v-5c0-0.4,0-0.7-0.1-0.9
				c-0.1-0.2-0.2-0.4-0.4-0.6s-0.3-0.3-0.5-0.3c-0.2-0.1-0.4-0.1-0.6-0.1c-0.2,0-0.4,0-0.6,0.1c-0.2,0.1-0.4,0.2-0.6,0.4
				c-0.2,0.2-0.3,0.4-0.4,0.7c-0.1,0.3-0.1,0.6-0.1,1V255.1z M110.3,247.1v0.9c0.2-0.3,0.6-0.6,1-0.8c0.4-0.2,0.9-0.3,1.4-0.3
				c0.5,0,1,0.1,1.4,0.3c0.4,0.2,0.8,0.5,1.1,0.9c0.3,0.4,0.5,0.8,0.7,1.3c0.2,0.5,0.2,1.1,0.2,1.7c0,0.6-0.1,1.2-0.2,1.7
				c-0.2,0.5-0.4,0.9-0.7,1.3c-0.3,0.4-0.7,0.7-1.1,0.9c-0.4,0.2-0.9,0.3-1.4,0.3c-0.5,0-1-0.1-1.4-0.3c-0.4-0.2-0.7-0.5-1-0.8v3.3
				H109v-10.4H110.3z M114.7,251.1c0-0.4-0.1-0.8-0.1-1.2c-0.1-0.4-0.2-0.7-0.4-0.9c-0.2-0.3-0.4-0.5-0.7-0.6
				c-0.3-0.2-0.6-0.2-1-0.2c-0.3,0-0.7,0.1-0.9,0.2c-0.3,0.1-0.5,0.3-0.7,0.5c-0.2,0.2-0.3,0.5-0.4,0.7c-0.1,0.3-0.1,0.6-0.1,0.9
				v1.3c0,0.3,0,0.6,0.1,0.9c0.1,0.3,0.2,0.5,0.4,0.7c0.2,0.2,0.4,0.4,0.7,0.5c0.3,0.1,0.6,0.2,0.9,0.2c0.4,0,0.7-0.1,1-0.2
				c0.3-0.2,0.5-0.4,0.7-0.6c0.2-0.3,0.3-0.6,0.4-0.9C114.6,252,114.7,251.6,114.7,251.1L114.7,251.1z M117.9,243.9h1.3v9.4
				c0,0.1,0,0.2,0,0.3c0,0.1,0.1,0.2,0.1,0.2c0.1,0.1,0.1,0.1,0.2,0.2c0.1,0,0.2,0,0.4,0c0.2,0,0.3,0,0.5,0c0.1,0,0.3,0,0.4,0
				l0.1,1.1c-0.2,0-0.3,0-0.5,0c-0.1,0-0.3,0-0.4,0c-0.2,0-0.3,0-0.4,0c-0.2,0-0.5,0-0.7-0.1c-0.2-0.1-0.4-0.1-0.5-0.3
				c-0.2-0.1-0.3-0.3-0.4-0.5c-0.1-0.2-0.1-0.4-0.1-0.7V243.9z M123.1,251.5c0,0.4,0.1,0.7,0.2,1c0.1,0.3,0.3,0.6,0.5,0.8
				c0.2,0.2,0.5,0.4,0.8,0.5c0.3,0.1,0.6,0.2,1,0.2c0.4,0,0.8-0.1,1.2-0.2c0.3-0.2,0.6-0.3,0.9-0.6l0.7,0.9
				c-0.4,0.3-0.8,0.5-1.2,0.7c-0.5,0.2-1,0.3-1.6,0.3c-0.6,0-1.1-0.1-1.6-0.3c-0.5-0.2-0.9-0.5-1.2-0.9c-0.3-0.4-0.6-0.8-0.8-1.3
				c-0.2-0.5-0.3-1.1-0.3-1.7c0-0.6,0.1-1.2,0.3-1.7c0.2-0.5,0.4-0.9,0.7-1.3c0.3-0.4,0.7-0.7,1.1-0.9c0.4-0.2,0.9-0.3,1.5-0.3
				c0.5,0,1,0.1,1.4,0.3c0.4,0.2,0.8,0.5,1.1,0.9c0.3,0.4,0.5,0.8,0.7,1.3c0.2,0.5,0.2,1.1,0.2,1.7v0.4H123.1z M125.3,248.1
				c-0.3,0-0.6,0.1-0.9,0.2c-0.3,0.1-0.5,0.3-0.7,0.5c-0.2,0.2-0.3,0.5-0.4,0.8c-0.1,0.3-0.2,0.6-0.2,0.9h4.2c0-0.3-0.1-0.6-0.2-0.9
				c-0.1-0.3-0.2-0.5-0.4-0.8c-0.2-0.2-0.4-0.4-0.6-0.5C125.9,248.2,125.6,248.1,125.3,248.1z M131.5,253.4c0.1,0,0.3,0,0.4,0.1
				c0.1,0.1,0.2,0.1,0.3,0.2c0.1,0.1,0.2,0.2,0.2,0.4c0.1,0.1,0.1,0.3,0.1,0.5c0,0.2,0,0.4-0.1,0.6c-0.1,0.2-0.2,0.4-0.3,0.6
				c-0.1,0.2-0.3,0.3-0.5,0.5c-0.2,0.1-0.5,0.3-0.8,0.3l-0.2,0.1l-0.2-0.5l0.1,0c0.2-0.1,0.5-0.2,0.6-0.4c0.2-0.2,0.3-0.3,0.4-0.5
				h-0.2c-0.1,0-0.2,0-0.4-0.1c-0.1,0-0.2-0.1-0.3-0.2c-0.1-0.1-0.1-0.2-0.2-0.3c0-0.1-0.1-0.2-0.1-0.4s0-0.2,0.1-0.4
				c0-0.1,0.1-0.2,0.2-0.3c0.1-0.1,0.2-0.1,0.3-0.2C131.3,253.5,131.4,253.4,131.5,253.4z M139.9,253.9h5.6v1.2H138v-1.3
				c0.7-0.5,1.4-0.9,1.9-1.3s1.1-0.8,1.5-1.1c0.4-0.4,0.8-0.7,1.1-1c0.3-0.3,0.6-0.7,0.8-1s0.4-0.6,0.4-1c0.1-0.3,0.1-0.7,0.1-1
				c0-0.3-0.1-0.6-0.2-0.9c-0.1-0.3-0.3-0.5-0.5-0.7c-0.2-0.2-0.4-0.4-0.7-0.5c-0.3-0.1-0.6-0.2-1-0.2c-0.3,0-0.6,0-0.9,0.1
				c-0.3,0.1-0.5,0.2-0.7,0.4c-0.2,0.2-0.4,0.4-0.5,0.7c-0.1,0.3-0.2,0.6-0.2,1.1l-1.3-0.1c0-0.5,0.1-1,0.3-1.4
				c0.2-0.4,0.4-0.8,0.8-1.1c0.3-0.3,0.7-0.5,1.1-0.7c0.4-0.2,0.9-0.2,1.5-0.2c0.5,0,1,0.1,1.5,0.3c0.5,0.2,0.9,0.4,1.2,0.7
				c0.3,0.3,0.6,0.7,0.8,1.1c0.2,0.4,0.3,0.9,0.3,1.4c0,0.6-0.1,1.2-0.3,1.7c-0.2,0.5-0.5,1-0.9,1.6c-0.4,0.5-1,1-1.6,1.5
				c-0.6,0.5-1.4,1.1-2.3,1.6L139.9,253.9L139.9,253.9z M153,245.1h-5.9v-1.2h7.3v1.2l-4.2,10h-1.5L153,245.1z M160.2,252.2
				c0.2,0.5,0.5,1,1,1.3c0.4,0.3,1,0.5,1.7,0.5c0.4,0,0.7-0.1,1-0.2c0.3-0.1,0.6-0.3,0.8-0.4c0.2-0.2,0.4-0.4,0.5-0.6
				c0.1-0.2,0.2-0.5,0.2-0.8c0-0.6-0.2-1.1-0.7-1.5c-0.5-0.3-1.1-0.5-1.9-0.5h-0.5v-1.2h0.4c0.4,0,0.8-0.1,1.1-0.2
				c0.3-0.1,0.6-0.3,0.8-0.5c0.2-0.2,0.4-0.4,0.5-0.6c0.1-0.2,0.2-0.5,0.2-0.7c0-0.2,0-0.5-0.1-0.7c-0.1-0.2-0.2-0.4-0.4-0.6
				c-0.2-0.2-0.4-0.3-0.7-0.4c-0.3-0.1-0.6-0.1-0.9-0.1c-0.6,0-1.1,0.2-1.6,0.5c-0.4,0.3-0.8,0.7-1,1.2l-1.1-0.6
				c0.3-0.7,0.8-1.3,1.5-1.7s1.4-0.6,2.2-0.6c0.5,0,1,0.1,1.4,0.2c0.4,0.1,0.8,0.4,1.1,0.6c0.3,0.3,0.6,0.6,0.8,1
				c0.2,0.4,0.3,0.8,0.3,1.2c0,0.3-0.1,0.7-0.2,0.9c-0.1,0.3-0.2,0.5-0.4,0.8c-0.2,0.2-0.4,0.4-0.7,0.6c-0.3,0.1-0.5,0.2-0.8,0.3
				c0.3,0.1,0.6,0.2,0.9,0.3c0.3,0.2,0.5,0.4,0.7,0.6c0.2,0.2,0.4,0.5,0.5,0.8c0.1,0.3,0.2,0.6,0.2,1c0,0.5-0.1,1-0.3,1.4
				c-0.2,0.4-0.5,0.7-0.9,1c-0.4,0.3-0.8,0.5-1.2,0.6c-0.5,0.1-1,0.2-1.5,0.2c-0.9,0-1.7-0.2-2.5-0.6c-0.7-0.4-1.2-1-1.5-1.8
				L160.2,252.2z M173.9,253.9h5.6v1.2H172v-1.3c0.7-0.5,1.4-0.9,1.9-1.3c0.6-0.4,1.1-0.8,1.5-1.1c0.4-0.4,0.8-0.7,1.1-1
				c0.3-0.3,0.6-0.7,0.8-1c0.2-0.3,0.4-0.6,0.4-1c0.1-0.3,0.1-0.7,0.1-1c0-0.3-0.1-0.6-0.2-0.9c-0.1-0.3-0.3-0.5-0.5-0.7
				c-0.2-0.2-0.4-0.4-0.7-0.5c-0.3-0.1-0.6-0.2-1-0.2c-0.3,0-0.6,0-0.9,0.1c-0.3,0.1-0.5,0.2-0.7,0.4c-0.2,0.2-0.4,0.4-0.5,0.7
				c-0.1,0.3-0.2,0.6-0.2,1.1l-1.3-0.1c0-0.5,0.1-1,0.3-1.4c0.2-0.4,0.4-0.8,0.8-1.1c0.3-0.3,0.7-0.5,1.1-0.7
				c0.4-0.2,0.9-0.2,1.5-0.2c0.5,0,1,0.1,1.5,0.3c0.5,0.2,0.9,0.4,1.2,0.7c0.3,0.3,0.6,0.7,0.8,1.1c0.2,0.4,0.3,0.9,0.3,1.4
				c0,0.6-0.1,1.2-0.3,1.7c-0.2,0.5-0.5,1-0.9,1.6c-0.4,0.5-1,1-1.6,1.5c-0.6,0.5-1.4,1.1-2.3,1.6L173.9,253.9L173.9,253.9z
				 M185.5,254c0.4,0,0.7-0.1,1-0.3c0.3-0.2,0.6-0.5,0.8-0.8c0.2-0.4,0.4-0.8,0.5-1.3c0.1-0.5,0.2-1.1,0.2-1.8v-0.6
				c0-0.7-0.1-1.3-0.2-1.8s-0.3-1-0.5-1.3c-0.2-0.4-0.5-0.6-0.8-0.8c-0.3-0.2-0.7-0.3-1-0.3c-0.4,0-0.7,0.1-1,0.3
				c-0.3,0.2-0.6,0.5-0.8,0.8c-0.2,0.4-0.4,0.8-0.5,1.3c-0.1,0.5-0.2,1.1-0.2,1.8v0.6c0,0.7,0.1,1.3,0.2,1.8c0.1,0.5,0.3,1,0.5,1.3
				c0.2,0.4,0.5,0.6,0.8,0.8C184.8,253.9,185.1,254,185.5,254z M185.5,243.8c0.5,0,0.9,0.1,1.3,0.2c0.4,0.2,0.7,0.4,1,0.6
				c0.3,0.3,0.5,0.6,0.8,0.9c0.2,0.4,0.4,0.8,0.5,1.2c0.1,0.4,0.2,0.9,0.3,1.3c0.1,0.5,0.1,1,0.1,1.4c0,0.5,0,1-0.1,1.4
				c-0.1,0.5-0.2,0.9-0.3,1.3c-0.1,0.4-0.3,0.8-0.5,1.2c-0.2,0.4-0.5,0.7-0.8,0.9c-0.3,0.3-0.6,0.5-1,0.6c-0.4,0.1-0.8,0.2-1.3,0.2
				c-0.5,0-0.9-0.1-1.3-0.2c-0.4-0.2-0.7-0.4-1-0.6c-0.3-0.3-0.5-0.6-0.8-0.9c-0.2-0.4-0.4-0.8-0.5-1.2c-0.1-0.4-0.2-0.9-0.3-1.3
				c-0.1-0.5-0.1-1-0.1-1.4c0-0.5,0-1,0.1-1.4c0.1-0.5,0.2-0.9,0.3-1.3c0.1-0.4,0.3-0.8,0.5-1.2c0.2-0.4,0.5-0.7,0.8-0.9
				c0.3-0.3,0.6-0.5,1-0.6S185,243.8,185.5,243.8z M195.6,254c0.4,0,0.7-0.1,1-0.3c0.3-0.2,0.6-0.5,0.8-0.8c0.2-0.4,0.4-0.8,0.5-1.3
				c0.1-0.5,0.2-1.1,0.2-1.8v-0.6c0-0.7-0.1-1.3-0.2-1.8c-0.1-0.5-0.3-1-0.5-1.3c-0.2-0.4-0.5-0.6-0.8-0.8c-0.3-0.2-0.7-0.3-1-0.3
				c-0.4,0-0.7,0.1-1,0.3c-0.3,0.2-0.6,0.5-0.8,0.8c-0.2,0.4-0.4,0.8-0.5,1.3c-0.1,0.5-0.2,1.1-0.2,1.8v0.6c0,0.7,0.1,1.3,0.2,1.8
				c0.1,0.5,0.3,1,0.5,1.3c0.2,0.4,0.5,0.6,0.8,0.8C194.8,253.9,195.2,254,195.6,254z M195.6,243.8c0.5,0,0.9,0.1,1.3,0.2
				c0.4,0.2,0.7,0.4,1,0.6c0.3,0.3,0.6,0.6,0.8,0.9c0.2,0.4,0.4,0.8,0.5,1.2c0.1,0.4,0.2,0.9,0.3,1.3c0.1,0.5,0.1,1,0.1,1.4
				c0,0.5,0,1-0.1,1.4c-0.1,0.5-0.2,0.9-0.3,1.3c-0.1,0.4-0.3,0.8-0.5,1.2c-0.2,0.4-0.5,0.7-0.8,0.9c-0.3,0.3-0.6,0.5-1,0.6
				c-0.4,0.1-0.8,0.2-1.3,0.2c-0.5,0-0.9-0.1-1.3-0.2c-0.4-0.2-0.7-0.4-1-0.6c-0.3-0.3-0.5-0.6-0.8-0.9c-0.2-0.4-0.4-0.8-0.5-1.2
				c-0.1-0.4-0.2-0.9-0.3-1.3c-0.1-0.5-0.1-1-0.1-1.4c0-0.5,0-1,0.1-1.4c0.1-0.5,0.2-0.9,0.3-1.3c0.1-0.4,0.3-0.8,0.5-1.2
				c0.2-0.4,0.5-0.7,0.8-0.9c0.3-0.3,0.6-0.5,1-0.6C194.6,243.8,195.1,243.8,195.6,243.8z M205.5,243.8c0.5,0,0.9,0.1,1.4,0.2
				c0.4,0.1,0.8,0.3,1.2,0.6c0.3,0.2,0.6,0.6,0.8,0.9c0.2,0.4,0.3,0.8,0.3,1.3c0,0.2,0,0.5-0.1,0.8c-0.1,0.2-0.2,0.5-0.3,0.7
				c-0.1,0.2-0.3,0.4-0.6,0.6c-0.2,0.2-0.5,0.3-0.9,0.4c0.4,0.1,0.7,0.3,1,0.5c0.3,0.2,0.5,0.4,0.7,0.7c0.2,0.3,0.3,0.5,0.4,0.8
				c0.1,0.3,0.1,0.6,0.1,0.9c0,0.5-0.1,1-0.3,1.4c-0.2,0.4-0.5,0.7-0.9,1c-0.4,0.3-0.8,0.5-1.3,0.6c-0.5,0.1-1,0.2-1.5,0.2
				c-0.5,0-1-0.1-1.5-0.2c-0.5-0.1-0.9-0.3-1.3-0.6c-0.4-0.3-0.7-0.6-0.9-1c-0.2-0.4-0.3-0.8-0.3-1.4c0-0.3,0-0.6,0.1-0.9
				c0.1-0.3,0.2-0.6,0.4-0.8c0.2-0.3,0.4-0.5,0.7-0.7c0.3-0.2,0.6-0.4,1-0.5c-0.4-0.1-0.7-0.3-0.9-0.4c-0.2-0.2-0.4-0.4-0.6-0.6
				c-0.1-0.2-0.3-0.5-0.3-0.7c-0.1-0.3-0.1-0.5-0.1-0.8c0-0.5,0.1-0.9,0.3-1.3c0.2-0.4,0.5-0.7,0.8-0.9c0.3-0.3,0.7-0.4,1.2-0.6
				C204.5,243.8,205,243.8,205.5,243.8z M203.1,246.9c0,0.3,0.1,0.6,0.2,0.8c0.1,0.2,0.3,0.4,0.5,0.6c0.2,0.2,0.5,0.3,0.7,0.4
				c0.3,0.1,0.6,0.1,0.9,0.1c0.3,0,0.6,0,0.9-0.1c0.3-0.1,0.5-0.2,0.7-0.4c0.2-0.2,0.4-0.4,0.5-0.6c0.1-0.2,0.2-0.5,0.2-0.8
				c0-0.3-0.1-0.6-0.2-0.8c-0.1-0.2-0.3-0.4-0.5-0.6c-0.2-0.2-0.5-0.3-0.7-0.4c-0.3-0.1-0.6-0.1-0.9-0.1c-0.3,0-0.6,0-0.9,0.1
				c-0.3,0.1-0.5,0.2-0.7,0.4c-0.2,0.2-0.4,0.4-0.5,0.6C203.2,246.3,203.1,246.6,203.1,246.9z M202.8,252c0,0.3,0.1,0.7,0.2,0.9
				c0.1,0.3,0.3,0.5,0.6,0.6c0.2,0.2,0.5,0.3,0.9,0.4c0.3,0.1,0.7,0.1,1,0.1c0.3,0,0.7,0,1-0.1c0.3-0.1,0.6-0.2,0.9-0.4
				c0.2-0.2,0.4-0.4,0.6-0.6c0.1-0.3,0.2-0.6,0.2-0.9c0-0.3-0.1-0.7-0.2-0.9s-0.3-0.5-0.6-0.6c-0.2-0.2-0.5-0.3-0.9-0.4
				c-0.3-0.1-0.7-0.1-1-0.1c-0.4,0-0.7,0-1,0.1c-0.3,0.1-0.6,0.2-0.9,0.4c-0.2,0.2-0.4,0.4-0.6,0.6
				C202.9,251.4,202.8,251.7,202.8,252z"/>
			<path class="st2" d="M55.3,284.5c0,0.8-0.1,1.6-0.3,2.3c-0.2,0.7-0.5,1.3-1,1.8c-0.4,0.5-1,0.9-1.6,1.1c-0.6,0.3-1.4,0.4-2.3,0.4
				h-3.6v-11.2h3.6c0.9,0,1.6,0.1,2.3,0.4c0.6,0.3,1.2,0.6,1.6,1.1c0.4,0.5,0.7,1.1,1,1.8C55.2,282.9,55.3,283.7,55.3,284.5z
				 M53.8,284.3c0-0.6-0.1-1.1-0.2-1.6c-0.1-0.5-0.4-1-0.7-1.3c-0.3-0.4-0.7-0.7-1.1-0.9c-0.5-0.2-1-0.3-1.7-0.3h-2.2v8.8h2.2
				c0.6,0,1.2-0.1,1.7-0.3c0.5-0.2,0.9-0.5,1.1-0.9c0.3-0.4,0.5-0.8,0.7-1.3c0.1-0.5,0.2-1.1,0.2-1.6V284.3z M61.9,289.3
				c-0.2,0.3-0.6,0.5-1,0.7c-0.4,0.2-0.9,0.3-1.4,0.3c-0.4,0-0.8-0.1-1.1-0.2c-0.3-0.1-0.6-0.3-0.9-0.5c-0.2-0.2-0.4-0.5-0.6-0.8
				c-0.1-0.3-0.2-0.6-0.2-1c0-0.3,0-0.6,0.1-0.9c0.1-0.3,0.2-0.5,0.4-0.7c0.2-0.2,0.4-0.3,0.7-0.5c0.3-0.1,0.6-0.2,0.9-0.3l2.8-0.4
				v-0.5c0-0.3,0-0.6-0.1-0.8c-0.1-0.2-0.2-0.4-0.4-0.5c-0.2-0.1-0.3-0.2-0.6-0.3c-0.2-0.1-0.4-0.1-0.7-0.1c-0.4,0-0.9,0.1-1.3,0.2
				c-0.4,0.1-0.7,0.3-1,0.4l-0.5-1c0.5-0.3,0.9-0.4,1.4-0.6c0.5-0.1,1-0.2,1.5-0.2c1,0,1.7,0.2,2.2,0.7c0.5,0.4,0.8,1.1,0.8,1.9v3.7
				c0,0.3,0.1,0.5,0.2,0.7c0.1,0.2,0.3,0.3,0.5,0.4l-0.7,0.9c-0.2-0.1-0.5-0.2-0.6-0.3C62.1,289.8,61.9,289.6,61.9,289.3L61.9,289.3
				z M59.5,286.5c-0.2,0-0.4,0.1-0.6,0.1c-0.2,0.1-0.3,0.1-0.5,0.2c-0.1,0.1-0.2,0.2-0.3,0.4c-0.1,0.1-0.1,0.3-0.1,0.5
				c0,0.2,0,0.4,0.1,0.6c0.1,0.2,0.2,0.3,0.4,0.5c0.2,0.1,0.3,0.2,0.5,0.3c0.2,0.1,0.4,0.1,0.6,0.1c0.2,0,0.5,0,0.7-0.1
				c0.2-0.1,0.4-0.2,0.6-0.3c0.2-0.1,0.3-0.3,0.4-0.5c0.1-0.2,0.2-0.4,0.2-0.6v-1.5L59.5,286.5z M64.4,282.1h1.5l2,6.6l1.9-6.6h1.5
				l-2.9,9.2c-0.1,0.3-0.2,0.5-0.3,0.7c-0.1,0.2-0.3,0.3-0.5,0.4c-0.2,0.1-0.4,0.2-0.6,0.2c-0.2,0-0.5,0.1-0.7,0.1
				c-0.2,0-0.4,0-0.7,0c-0.2,0-0.5-0.1-0.7-0.1l0.2-1.1c0.1,0,0.2,0,0.3,0.1c0.1,0,0.2,0,0.3,0c0.1,0,0.3,0,0.4,0
				c0.3,0,0.5-0.1,0.7-0.2c0.2-0.1,0.3-0.3,0.3-0.6l0.1-0.4L64.4,282.1z"/>
			<rect x="46" y="302.1" class="st1" width="46" height="36"/>
			<rect x="46" y="302.1" class="st5" width="46" height="36"/>
			<path class="st2" d="M123.3,278.9h1.7v11.2h-1.4v-9.6l-3.8,5.2h0l-3.9-5.2v9.6h-1.3v-11.2h1.8l3.5,4.8L123.3,278.9z M130.7,282
				c0.6,0,1.1,0.1,1.5,0.3c0.5,0.2,0.8,0.5,1.2,0.9c0.3,0.4,0.6,0.8,0.8,1.3c0.2,0.5,0.3,1.1,0.3,1.7c0,0.6-0.1,1.2-0.3,1.7
				c-0.2,0.5-0.4,0.9-0.8,1.3c-0.3,0.4-0.7,0.7-1.2,0.9c-0.5,0.2-1,0.3-1.5,0.3c-0.6,0-1.1-0.1-1.5-0.3c-0.4-0.2-0.8-0.5-1.2-0.9
				c-0.3-0.4-0.6-0.8-0.8-1.3c-0.2-0.5-0.3-1.1-0.3-1.7c0-0.6,0.1-1.2,0.3-1.7c0.2-0.5,0.4-0.9,0.8-1.3c0.3-0.4,0.7-0.7,1.2-0.9
				C129.7,282.1,130.2,282,130.7,282z M130.7,289.1c0.4,0,0.7-0.1,1-0.2c0.3-0.2,0.5-0.4,0.7-0.6c0.2-0.3,0.3-0.6,0.4-0.9
				c0.1-0.4,0.1-0.7,0.1-1.1v-0.1c0-0.4-0.1-0.8-0.1-1.1c-0.1-0.4-0.2-0.7-0.4-0.9c-0.2-0.3-0.4-0.5-0.7-0.6c-0.3-0.2-0.6-0.2-1-0.2
				c-0.4,0-0.7,0.1-1,0.2c-0.3,0.2-0.5,0.4-0.7,0.6c-0.2,0.3-0.3,0.6-0.4,0.9c-0.1,0.4-0.1,0.7-0.1,1.1v0.1c0,0.4,0,0.8,0.1,1.1
				c0.1,0.4,0.2,0.7,0.4,0.9c0.2,0.3,0.4,0.5,0.7,0.6C130,289,130.3,289.1,130.7,289.1z M136.3,282.1h1.3v0.9c0.3-0.4,0.6-0.6,1-0.8
				c0.4-0.2,0.8-0.3,1.3-0.3c0.4,0,0.8,0.1,1.2,0.2c0.3,0.1,0.6,0.3,0.8,0.6s0.4,0.5,0.5,0.9c0.1,0.3,0.2,0.7,0.2,1v5.4h-1.3v-5
				c0-0.3,0-0.6-0.1-0.9c-0.1-0.2-0.2-0.4-0.4-0.6c-0.1-0.2-0.3-0.3-0.5-0.3c-0.2-0.1-0.4-0.1-0.6-0.1c-0.2,0-0.5,0-0.7,0.1
				c-0.2,0.1-0.5,0.2-0.7,0.4c-0.2,0.2-0.3,0.4-0.5,0.7c-0.1,0.3-0.2,0.6-0.2,1v4.7h-1.3V282.1z M147,288.1c0,0.1,0,0.3,0,0.4
				c0,0.1,0.1,0.2,0.1,0.3c0.1,0.1,0.2,0.2,0.3,0.2c0.1,0.1,0.3,0.1,0.6,0.1c0.1,0,0.1,0,0.2,0c0.1,0,0.2,0,0.3,0c0.1,0,0.2,0,0.3,0
				c0.1,0,0.2,0,0.2,0l0.1,1.1c-0.2,0-0.3,0-0.5,0.1c-0.1,0-0.3,0-0.5,0c-0.2,0-0.3,0-0.5,0c-0.3,0-0.6,0-0.9-0.1
				c-0.2-0.1-0.5-0.2-0.6-0.3c-0.2-0.1-0.3-0.3-0.4-0.6c-0.1-0.2-0.1-0.5-0.1-0.9v-5.1h-1.5v-1.2h1.5v-2.6l1.3-0.5v3.1h2.2v1.2H147
				V288.1z M150.9,278.9h1.3v4.1c0.3-0.4,0.6-0.6,1-0.8c0.4-0.2,0.8-0.3,1.3-0.3c0.4,0,0.8,0.1,1.2,0.2c0.3,0.1,0.6,0.3,0.8,0.6
				s0.4,0.5,0.5,0.9c0.1,0.3,0.2,0.7,0.2,1v5.4h-1.3v-5c0-0.3,0-0.6-0.1-0.9c-0.1-0.2-0.2-0.4-0.4-0.6c-0.1-0.2-0.3-0.3-0.5-0.3
				c-0.2-0.1-0.4-0.1-0.6-0.1c-0.2,0-0.5,0-0.7,0.1c-0.2,0.1-0.5,0.2-0.7,0.4c-0.2,0.2-0.3,0.4-0.5,0.7c-0.1,0.3-0.2,0.6-0.2,1v4.7
				h-1.3V278.9z"/>
			<rect x="114" y="302.1" class="st1" width="46" height="36"/>
			<rect x="114" y="302.1" class="st5" width="46" height="36"/>
			<path class="st2" d="M183,278.9l2.8,5.3h0l2.7-5.3h1.5l-3.6,6.6v4.6H185v-4.6l-3.6-6.6H183z M191.2,286.5c0,0.4,0.1,0.7,0.2,1
				c0.1,0.3,0.3,0.6,0.5,0.8c0.2,0.2,0.5,0.4,0.8,0.5c0.3,0.1,0.6,0.2,1,0.2c0.4,0,0.8-0.1,1.2-0.2c0.3-0.2,0.6-0.3,0.9-0.6l0.7,0.9
				c-0.4,0.3-0.8,0.5-1.2,0.7c-0.5,0.2-1,0.3-1.6,0.3c-0.6,0-1.1-0.1-1.6-0.3c-0.5-0.2-0.9-0.5-1.2-0.9c-0.3-0.4-0.6-0.8-0.8-1.3
				c-0.2-0.5-0.3-1.1-0.3-1.7c0-0.6,0.1-1.2,0.3-1.7c0.2-0.5,0.4-0.9,0.7-1.3c0.3-0.4,0.7-0.7,1.1-0.9c0.4-0.2,0.9-0.3,1.5-0.3
				c0.5,0,1,0.1,1.4,0.3c0.4,0.2,0.8,0.5,1.1,0.9c0.3,0.4,0.5,0.8,0.7,1.3c0.2,0.5,0.2,1.1,0.2,1.7v0.4H191.2z M193.4,283.1
				c-0.3,0-0.6,0.1-0.9,0.2s-0.5,0.3-0.7,0.5c-0.2,0.2-0.3,0.5-0.4,0.8c-0.1,0.3-0.2,0.6-0.2,0.9h4.2c0-0.3-0.1-0.6-0.2-0.9
				c-0.1-0.3-0.2-0.5-0.4-0.8c-0.2-0.2-0.4-0.4-0.6-0.5C194,283.2,193.7,283.1,193.4,283.1z M203.2,289.3c-0.2,0.3-0.6,0.5-1,0.7
				c-0.4,0.2-0.9,0.3-1.4,0.3c-0.4,0-0.8-0.1-1.1-0.2c-0.3-0.1-0.6-0.3-0.9-0.5c-0.2-0.2-0.4-0.5-0.6-0.8c-0.1-0.3-0.2-0.6-0.2-1
				c0-0.3,0.1-0.6,0.1-0.9c0.1-0.3,0.2-0.5,0.4-0.7c0.2-0.2,0.4-0.3,0.7-0.5c0.3-0.1,0.6-0.2,0.9-0.3l2.8-0.4v-0.5
				c0-0.3,0-0.6-0.1-0.8c-0.1-0.2-0.2-0.4-0.4-0.5c-0.2-0.1-0.3-0.2-0.6-0.3c-0.2-0.1-0.4-0.1-0.7-0.1c-0.4,0-0.9,0.1-1.3,0.2
				c-0.4,0.1-0.7,0.3-1,0.4l-0.5-1c0.5-0.3,0.9-0.4,1.4-0.6c0.5-0.1,1-0.2,1.5-0.2c1,0,1.7,0.2,2.2,0.7c0.5,0.4,0.8,1.1,0.8,1.9v3.7
				c0,0.3,0.1,0.5,0.2,0.7c0.1,0.2,0.3,0.3,0.5,0.4l-0.7,0.9c-0.2-0.1-0.5-0.2-0.6-0.3C203.4,289.8,203.3,289.6,203.2,289.3
				L203.2,289.3z M200.9,286.5c-0.2,0-0.4,0.1-0.6,0.1c-0.2,0.1-0.3,0.1-0.5,0.2c-0.1,0.1-0.2,0.2-0.3,0.4c-0.1,0.1-0.1,0.3-0.1,0.5
				c0,0.2,0,0.4,0.1,0.6c0.1,0.2,0.2,0.3,0.4,0.5s0.3,0.2,0.5,0.3c0.2,0.1,0.4,0.1,0.6,0.1c0.2,0,0.5,0,0.7-0.1
				c0.2-0.1,0.4-0.2,0.6-0.3c0.2-0.1,0.3-0.3,0.4-0.5c0.1-0.2,0.2-0.4,0.2-0.6v-1.5L200.9,286.5z M210.8,283.3h-0.2
				c-0.3,0-0.7,0-1,0.1c-0.3,0.1-0.6,0.2-0.8,0.4c-0.2,0.2-0.4,0.5-0.6,0.8c-0.1,0.3-0.2,0.8-0.2,1.3v4.1h-1.3v-8h1.3v1.3
				c0.1-0.2,0.2-0.4,0.4-0.6c0.2-0.2,0.4-0.3,0.6-0.4c0.2-0.1,0.4-0.2,0.7-0.3c0.2-0.1,0.5-0.1,0.7-0.1h0.4V283.3z"/>
			<rect x="182" y="302.1" class="st1" width="78" height="36"/>
			<rect x="182" y="302.1" class="st5" width="78" height="36"/>
			<rect x="44" y="359.1" class="st6" width="345" height="40"/>
			<rect x="44" y="397.1" class="st7" width="345" height="2"/>
			<path class="st1" d="M180.4,376.5c0-1,0.1-1.8,0.4-2.7c0.3-0.8,0.6-1.6,1.1-2.2c0.5-0.6,1.1-1.1,1.8-1.5c0.7-0.4,1.5-0.5,2.4-0.5
				c0.6,0,1.2,0.1,1.7,0.2c0.5,0.2,1,0.4,1.4,0.7c0.4,0.3,0.8,0.7,1.1,1.1c0.3,0.4,0.6,0.9,0.8,1.4l-1.6,0.5
				c-0.1-0.3-0.2-0.6-0.4-0.9c-0.2-0.3-0.4-0.6-0.7-0.8c-0.3-0.2-0.6-0.4-1-0.6c-0.4-0.2-0.8-0.2-1.3-0.2c-0.7,0-1.3,0.1-1.8,0.4
				c-0.5,0.3-0.9,0.7-1.3,1.2c-0.3,0.5-0.6,1.1-0.8,1.7c-0.2,0.6-0.2,1.3-0.2,2v0.2c0,0.7,0.1,1.3,0.2,2c0.2,0.6,0.4,1.2,0.8,1.7
				c0.3,0.5,0.8,0.9,1.3,1.2c0.5,0.3,1.1,0.4,1.8,0.4c0.5,0,0.9-0.1,1.3-0.2c0.4-0.2,0.7-0.4,1-0.6c0.3-0.2,0.5-0.5,0.7-0.8
				c0.2-0.3,0.3-0.6,0.4-0.9l1.6,0.5c-0.2,0.5-0.5,1-0.8,1.4c-0.3,0.4-0.7,0.8-1.1,1.1c-0.4,0.3-0.9,0.5-1.4,0.7
				c-0.5,0.2-1.1,0.2-1.7,0.2c-0.9,0-1.7-0.2-2.4-0.5c-0.7-0.4-1.3-0.8-1.8-1.4c-0.5-0.6-0.9-1.3-1.1-2.2
				C180.5,378.3,180.4,377.4,180.4,376.5z M197.2,373.4c0.7,0,1.3,0.1,1.8,0.4c0.5,0.2,1,0.6,1.4,1c0.4,0.4,0.7,1,0.9,1.6
				c0.2,0.6,0.3,1.3,0.3,2c0,0.7-0.1,1.4-0.3,2c-0.2,0.6-0.5,1.1-0.9,1.6c-0.4,0.4-0.8,0.8-1.4,1c-0.5,0.2-1.1,0.4-1.8,0.4
				c-0.7,0-1.3-0.1-1.8-0.4c-0.5-0.2-1-0.6-1.4-1c-0.4-0.4-0.7-1-0.9-1.6c-0.2-0.6-0.3-1.3-0.3-2c0-0.7,0.1-1.4,0.3-2
				c0.2-0.6,0.5-1.1,0.9-1.6c0.4-0.4,0.8-0.8,1.4-1C195.9,373.6,196.5,373.4,197.2,373.4z M197.2,381.9c0.5,0,0.8-0.1,1.2-0.3
				c0.3-0.2,0.6-0.4,0.9-0.8c0.2-0.3,0.4-0.7,0.5-1.1c0.1-0.4,0.2-0.9,0.2-1.3v-0.1c0-0.5-0.1-0.9-0.2-1.4c-0.1-0.4-0.3-0.8-0.5-1.1
				c-0.2-0.3-0.5-0.6-0.9-0.8c-0.3-0.2-0.7-0.3-1.2-0.3c-0.5,0-0.8,0.1-1.2,0.3c-0.3,0.2-0.6,0.4-0.9,0.8c-0.2,0.3-0.4,0.7-0.5,1.1
				c-0.1,0.4-0.2,0.9-0.2,1.4v0.1c0,0.5,0.1,0.9,0.2,1.3c0.1,0.4,0.3,0.8,0.5,1.1c0.2,0.3,0.5,0.6,0.9,0.8
				C196.4,381.8,196.8,381.9,197.2,381.9z M203.9,373.6h1.6v1.1c0.3-0.4,0.7-0.8,1.2-1c0.5-0.2,1-0.3,1.6-0.3c0.5,0,1,0.1,1.4,0.3
				c0.4,0.2,0.7,0.4,1,0.7c0.3,0.3,0.5,0.6,0.6,1c0.1,0.4,0.2,0.8,0.2,1.2v6.4h-1.6v-5.9c0-0.4-0.1-0.8-0.2-1.1
				c-0.1-0.3-0.2-0.5-0.4-0.7c-0.2-0.2-0.4-0.3-0.6-0.4c-0.2-0.1-0.5-0.1-0.8-0.1c-0.3,0-0.6,0.1-0.9,0.2c-0.3,0.1-0.5,0.3-0.8,0.5
				c-0.2,0.2-0.4,0.5-0.6,0.8c-0.1,0.3-0.2,0.7-0.2,1.2v5.6h-1.6V373.6z M216.6,380.7c0,0.2,0,0.3,0,0.5c0,0.1,0.1,0.3,0.2,0.4
				c0.1,0.1,0.2,0.2,0.4,0.2c0.2,0.1,0.4,0.1,0.7,0.1c0.1,0,0.2,0,0.3,0c0.1,0,0.2,0,0.3,0c0.1,0,0.2,0,0.3,0c0.1,0,0.2,0,0.3,0
				l0.2,1.4c-0.2,0-0.4,0-0.6,0.1c-0.2,0-0.3,0-0.5,0c-0.2,0-0.4,0-0.6,0c-0.4,0-0.7,0-1-0.1c-0.3-0.1-0.6-0.2-0.8-0.4
				c-0.2-0.2-0.4-0.4-0.5-0.7c-0.1-0.3-0.2-0.6-0.2-1V375h-1.8v-1.4h1.8v-3.1l1.6-0.5v3.6h2.6v1.4h-2.6V380.7z M222.7,383.1h-1.6
				v-9.5h1.6V383.1z M220.9,370.9c0-0.1,0-0.3,0.1-0.4c0.1-0.1,0.1-0.2,0.2-0.3c0.1-0.1,0.2-0.2,0.3-0.2c0.1-0.1,0.3-0.1,0.4-0.1
				c0.1,0,0.3,0,0.4,0.1c0.1,0.1,0.2,0.1,0.3,0.2c0.1,0.1,0.2,0.2,0.2,0.3c0.1,0.1,0.1,0.3,0.1,0.4c0,0.1,0,0.3-0.1,0.4
				c-0.1,0.1-0.1,0.2-0.2,0.3c-0.1,0.1-0.2,0.2-0.3,0.2c-0.1,0.1-0.3,0.1-0.4,0.1c-0.1,0-0.3,0-0.4-0.1c-0.1-0.1-0.2-0.1-0.3-0.2
				c-0.1-0.1-0.2-0.2-0.2-0.3C220.9,371.2,220.9,371,220.9,370.9z M225.6,373.6h1.6v1.1c0.3-0.4,0.7-0.8,1.2-1
				c0.5-0.2,1-0.3,1.6-0.3c0.5,0,1,0.1,1.4,0.3c0.4,0.2,0.7,0.4,1,0.7c0.3,0.3,0.5,0.6,0.6,1c0.1,0.4,0.2,0.8,0.2,1.2v6.4h-1.6v-5.9
				c0-0.4-0.1-0.8-0.2-1.1c-0.1-0.3-0.2-0.5-0.4-0.7c-0.2-0.2-0.4-0.3-0.6-0.4c-0.2-0.1-0.5-0.1-0.8-0.1c-0.3,0-0.6,0.1-0.9,0.2
				c-0.3,0.1-0.5,0.3-0.8,0.5c-0.2,0.2-0.4,0.5-0.6,0.8c-0.1,0.3-0.2,0.7-0.2,1.2v5.6h-1.6V373.6z M243.3,383.1h-1.6V382
				c-0.3,0.4-0.7,0.8-1.2,1c-0.5,0.2-1,0.3-1.6,0.3c-0.5,0-1-0.1-1.4-0.3c-0.4-0.2-0.7-0.4-1-0.7c-0.3-0.3-0.5-0.6-0.6-1
				c-0.1-0.4-0.2-0.8-0.2-1.2v-6.4h1.6v5.9c0,0.4,0.1,0.8,0.1,1.1c0.1,0.3,0.2,0.5,0.4,0.7c0.2,0.2,0.4,0.3,0.6,0.4
				c0.2,0.1,0.5,0.1,0.8,0.1c0.3,0,0.6-0.1,0.9-0.2c0.3-0.1,0.6-0.3,0.8-0.5c0.2-0.2,0.4-0.5,0.5-0.8c0.1-0.3,0.2-0.7,0.2-1.2v-5.6
				h1.6V383.1z M247.2,378.8c0,0.4,0.1,0.9,0.3,1.2c0.1,0.4,0.4,0.7,0.6,1c0.3,0.3,0.6,0.5,0.9,0.6c0.4,0.1,0.7,0.2,1.2,0.2
				c0.5,0,1-0.1,1.4-0.3c0.4-0.2,0.8-0.4,1.1-0.7l0.8,1.1c-0.4,0.3-0.9,0.6-1.5,0.8c-0.6,0.2-1.2,0.3-1.9,0.3
				c-0.7,0-1.3-0.1-1.9-0.4c-0.6-0.2-1-0.6-1.4-1c-0.4-0.4-0.7-1-0.9-1.6c-0.2-0.6-0.3-1.3-0.3-2c0-0.7,0.1-1.4,0.3-2
				c0.2-0.6,0.5-1.1,0.9-1.6c0.4-0.4,0.8-0.8,1.4-1c0.5-0.2,1.1-0.4,1.8-0.4c0.6,0,1.2,0.1,1.7,0.4c0.5,0.2,0.9,0.6,1.3,1
				c0.4,0.4,0.6,1,0.8,1.6c0.2,0.6,0.3,1.3,0.3,2v0.5H247.2z M249.8,374.8c-0.4,0-0.7,0.1-1.1,0.2c-0.3,0.2-0.6,0.4-0.8,0.6
				c-0.2,0.3-0.4,0.6-0.5,0.9c-0.1,0.3-0.2,0.7-0.2,1h5c0-0.4-0.1-0.7-0.2-1c-0.1-0.3-0.3-0.6-0.5-0.9c-0.2-0.3-0.5-0.5-0.8-0.6
				C250.5,374.9,250.2,374.8,249.8,374.8z"/>
			<path class="st8" d="M46.5,425.5c0.5,0.5,1,0.9,1.6,1.2c0.6,0.2,1.2,0.4,1.8,0.4c0.4,0,0.8-0.1,1.1-0.2c0.3-0.1,0.6-0.3,0.9-0.4
				c0.2-0.2,0.4-0.4,0.5-0.6c0.1-0.2,0.2-0.5,0.2-0.8c0-0.4-0.1-0.7-0.2-0.9c-0.2-0.2-0.4-0.4-0.6-0.6c-0.3-0.1-0.6-0.3-0.9-0.3
				c-0.3-0.1-0.7-0.2-1-0.2l-0.2,0c-0.2,0-0.5-0.1-0.8-0.1c-0.3-0.1-0.5-0.1-0.8-0.2c-0.3-0.1-0.5-0.2-0.7-0.3
				c-0.2-0.1-0.5-0.3-0.6-0.5c-0.2-0.2-0.4-0.5-0.6-0.8c-0.2-0.3-0.2-0.7-0.2-1.2c0-0.3,0.1-0.7,0.2-1.1c0.2-0.4,0.4-0.7,0.7-1
				c0.3-0.3,0.7-0.5,1.2-0.7c0.5-0.2,1.1-0.3,1.8-0.3c0.8,0,1.5,0.1,2.2,0.4c0.3,0.1,0.5,0.3,0.8,0.4c0.3,0.2,0.5,0.4,0.8,0.6
				l-1,0.9c-0.4-0.4-0.8-0.7-1.3-0.8c-0.5-0.2-1-0.3-1.5-0.3c-0.4,0-0.7,0-1,0.1c-0.3,0.1-0.6,0.2-0.8,0.4c-0.2,0.2-0.4,0.4-0.5,0.6
				c-0.1,0.2-0.2,0.5-0.2,0.7c0,0.4,0.1,0.6,0.2,0.9c0.2,0.2,0.4,0.4,0.6,0.5c0.2,0.1,0.5,0.2,0.8,0.3c0.3,0.1,0.6,0.1,1,0.2l0.1,0
				c0.5,0.1,1,0.2,1.5,0.4c0.5,0.1,0.9,0.3,1.3,0.6c0.4,0.2,0.7,0.5,0.9,0.9c0.2,0.4,0.3,0.8,0.3,1.4c0,0.4-0.1,0.8-0.3,1.2
				c-0.2,0.4-0.4,0.8-0.8,1.1c-0.3,0.3-0.8,0.6-1.3,0.7c-0.5,0.2-1.1,0.3-1.8,0.3c-0.5,0-1-0.1-1.5-0.2c-0.5-0.1-0.9-0.3-1.3-0.5
				c-0.3-0.2-0.6-0.3-0.8-0.5c-0.3-0.2-0.5-0.4-0.8-0.7L46.5,425.5z M60.4,427.3c-0.2,0.3-0.6,0.5-1,0.7c-0.4,0.2-0.9,0.3-1.4,0.3
				c-0.4,0-0.8-0.1-1.1-0.2c-0.3-0.1-0.6-0.3-0.9-0.5c-0.2-0.2-0.4-0.5-0.6-0.8c-0.1-0.3-0.2-0.6-0.2-1c0-0.3,0-0.6,0.1-0.9
				c0.1-0.3,0.2-0.5,0.4-0.7c0.2-0.2,0.4-0.3,0.7-0.5c0.3-0.1,0.6-0.2,0.9-0.3l2.8-0.4v-0.5c0-0.3,0-0.6-0.1-0.8
				c-0.1-0.2-0.2-0.4-0.4-0.5c-0.2-0.1-0.3-0.2-0.6-0.3c-0.2-0.1-0.4-0.1-0.7-0.1c-0.4,0-0.9,0.1-1.3,0.2c-0.4,0.1-0.7,0.3-1,0.4
				l-0.5-1c0.5-0.3,0.9-0.4,1.4-0.6c0.5-0.1,1-0.2,1.5-0.2c1,0,1.7,0.2,2.2,0.7c0.5,0.4,0.8,1.1,0.8,1.9v3.7c0,0.3,0.1,0.5,0.2,0.7
				c0.1,0.2,0.3,0.3,0.5,0.4l-0.7,0.9c-0.2-0.1-0.5-0.2-0.6-0.3C60.6,427.8,60.5,427.6,60.4,427.3L60.4,427.3z M58,424.5
				c-0.2,0-0.4,0.1-0.6,0.1c-0.2,0.1-0.3,0.1-0.5,0.2c-0.1,0.1-0.2,0.2-0.3,0.4c-0.1,0.1-0.1,0.3-0.1,0.5c0,0.2,0,0.4,0.1,0.6
				c0.1,0.2,0.2,0.3,0.4,0.5c0.2,0.1,0.3,0.2,0.5,0.3c0.2,0.1,0.4,0.1,0.6,0.1c0.2,0,0.5,0,0.7-0.1c0.2-0.1,0.4-0.2,0.6-0.3
				c0.2-0.1,0.3-0.3,0.4-0.5c0.1-0.2,0.2-0.4,0.2-0.6v-1.5L58,424.5z M65.5,428.1l-2.5-8h1.5l1.9,6.8l1.9-6.8h1.5l-2.5,8H65.5z
				 M72.1,424.5c0,0.4,0.1,0.7,0.2,1c0.1,0.3,0.3,0.6,0.5,0.8c0.2,0.2,0.5,0.4,0.8,0.5c0.3,0.1,0.6,0.2,1,0.2c0.4,0,0.8-0.1,1.2-0.2
				c0.3-0.2,0.6-0.3,0.9-0.6l0.7,0.9c-0.4,0.3-0.8,0.5-1.2,0.7c-0.5,0.2-1,0.3-1.6,0.3c-0.6,0-1.1-0.1-1.6-0.3
				c-0.5-0.2-0.9-0.5-1.2-0.9c-0.3-0.4-0.6-0.8-0.8-1.3c-0.2-0.5-0.3-1.1-0.3-1.7c0-0.6,0.1-1.2,0.3-1.7c0.2-0.5,0.4-0.9,0.7-1.3
				c0.3-0.4,0.7-0.7,1.1-0.9c0.4-0.2,0.9-0.3,1.5-0.3c0.5,0,1,0.1,1.4,0.3c0.4,0.2,0.8,0.5,1.1,0.9c0.3,0.4,0.5,0.8,0.7,1.3
				c0.2,0.5,0.2,1.1,0.2,1.7v0.4H72.1z M74.3,421.1c-0.3,0-0.6,0.1-0.9,0.2c-0.3,0.1-0.5,0.3-0.7,0.5c-0.2,0.2-0.3,0.5-0.4,0.8
				c-0.1,0.3-0.2,0.6-0.2,0.9h4.2c0-0.3-0.1-0.6-0.2-0.9c-0.1-0.3-0.2-0.5-0.4-0.8c-0.2-0.2-0.4-0.4-0.6-0.5
				C74.9,421.2,74.6,421.1,74.3,421.1z M87.4,427.3c-0.2,0.3-0.6,0.5-1,0.7c-0.4,0.2-0.9,0.3-1.4,0.3c-0.4,0-0.8-0.1-1.1-0.2
				c-0.3-0.1-0.6-0.3-0.9-0.5c-0.2-0.2-0.4-0.5-0.6-0.8c-0.1-0.3-0.2-0.6-0.2-1c0-0.3,0-0.6,0.1-0.9c0.1-0.3,0.2-0.5,0.4-0.7
				c0.2-0.2,0.4-0.3,0.7-0.5c0.3-0.1,0.6-0.2,0.9-0.3l2.8-0.4v-0.5c0-0.3,0-0.6-0.1-0.8c-0.1-0.2-0.2-0.4-0.4-0.5
				c-0.2-0.1-0.3-0.2-0.6-0.3c-0.2-0.1-0.4-0.1-0.7-0.1c-0.4,0-0.9,0.1-1.3,0.2c-0.4,0.1-0.7,0.3-1,0.4l-0.5-1
				c0.5-0.3,0.9-0.4,1.4-0.6c0.5-0.1,1-0.2,1.5-0.2c1,0,1.7,0.2,2.2,0.7c0.5,0.4,0.8,1.1,0.8,1.9v3.7c0,0.3,0.1,0.5,0.2,0.7
				c0.1,0.2,0.3,0.3,0.5,0.4l-0.7,0.9c-0.2-0.1-0.5-0.2-0.6-0.3C87.6,427.8,87.4,427.6,87.4,427.3L87.4,427.3z M85,424.5
				c-0.2,0-0.4,0.1-0.6,0.1c-0.2,0.1-0.3,0.1-0.5,0.2c-0.1,0.1-0.2,0.2-0.3,0.4c-0.1,0.1-0.1,0.3-0.1,0.5c0,0.2,0,0.4,0.1,0.6
				c0.1,0.2,0.2,0.3,0.4,0.5c0.2,0.1,0.3,0.2,0.5,0.3c0.2,0.1,0.4,0.1,0.6,0.1c0.2,0,0.5,0,0.7-0.1c0.2-0.1,0.4-0.2,0.6-0.3
				c0.2-0.1,0.3-0.3,0.4-0.5c0.1-0.2,0.2-0.4,0.2-0.6v-1.5L85,424.5z M90.9,420.1h1.3v0.9c0.3-0.4,0.6-0.6,1-0.8
				c0.4-0.2,0.8-0.3,1.3-0.3c0.4,0,0.8,0.1,1.2,0.2c0.3,0.1,0.6,0.3,0.8,0.6c0.2,0.2,0.4,0.5,0.5,0.9c0.1,0.3,0.2,0.7,0.2,1v5.4
				h-1.3v-5c0-0.3,0-0.6-0.1-0.9c-0.1-0.2-0.2-0.4-0.4-0.6c-0.1-0.2-0.3-0.3-0.5-0.3c-0.2-0.1-0.4-0.1-0.6-0.1c-0.2,0-0.5,0-0.7,0.1
				c-0.2,0.1-0.5,0.2-0.7,0.4c-0.2,0.2-0.3,0.4-0.5,0.7c-0.1,0.3-0.2,0.6-0.2,1v4.7h-1.3V420.1z M104.8,427.2
				c-0.2,0.3-0.6,0.6-1,0.8c-0.4,0.2-0.9,0.3-1.4,0.3c-0.5,0-1-0.1-1.4-0.3c-0.4-0.2-0.8-0.5-1.1-0.9c-0.3-0.4-0.5-0.8-0.7-1.3
				c-0.2-0.5-0.2-1.1-0.2-1.7s0.1-1.2,0.2-1.7c0.2-0.5,0.4-0.9,0.7-1.3c0.3-0.4,0.7-0.7,1.1-0.9c0.4-0.2,0.9-0.3,1.4-0.3
				c0.5,0,1,0.1,1.4,0.3c0.4,0.2,0.7,0.5,1,0.8v-4.1h1.3v11.2h-1.3V427.2z M100.4,424.1c0,0.4,0.1,0.8,0.1,1.2
				c0.1,0.4,0.2,0.7,0.4,0.9c0.2,0.3,0.4,0.5,0.7,0.6c0.3,0.2,0.6,0.2,1,0.2c0.3,0,0.7-0.1,0.9-0.2c0.3-0.1,0.5-0.3,0.7-0.5
				c0.2-0.2,0.3-0.5,0.4-0.7c0.1-0.3,0.1-0.6,0.1-0.9v-1.3c0-0.3,0-0.6-0.1-0.9c-0.1-0.3-0.2-0.5-0.4-0.7c-0.2-0.2-0.4-0.4-0.7-0.5
				c-0.3-0.1-0.6-0.2-0.9-0.2c-0.4,0-0.7,0.1-1,0.2c-0.3,0.2-0.5,0.4-0.7,0.6c-0.2,0.3-0.3,0.6-0.4,0.9
				C100.5,423.3,100.4,423.7,100.4,424.1L100.4,424.1z M112.6,424.1c0,0.4,0,0.8,0.1,1.1c0.1,0.4,0.2,0.7,0.4,0.9
				c0.2,0.3,0.4,0.5,0.7,0.6c0.3,0.2,0.6,0.2,1,0.2c0.2,0,0.5,0,0.7-0.1c0.2-0.1,0.4-0.2,0.6-0.3c0.2-0.1,0.3-0.3,0.5-0.4
				c0.1-0.2,0.3-0.3,0.4-0.5l1.1,0.6c-0.1,0.3-0.3,0.5-0.5,0.8c-0.2,0.2-0.4,0.4-0.7,0.6c-0.3,0.2-0.6,0.3-0.9,0.4
				c-0.3,0.1-0.7,0.1-1,0.1c-0.6,0-1.1-0.1-1.5-0.3c-0.4-0.2-0.8-0.5-1.2-0.9c-0.3-0.4-0.6-0.8-0.8-1.3c-0.2-0.5-0.3-1.1-0.3-1.7
				c0-0.6,0.1-1.2,0.3-1.7c0.2-0.5,0.4-0.9,0.8-1.3c0.3-0.4,0.7-0.7,1.2-0.9c0.5-0.2,1-0.3,1.5-0.3c0.4,0,0.7,0,1,0.1
				c0.3,0.1,0.6,0.2,0.9,0.4c0.3,0.2,0.5,0.4,0.7,0.6c0.2,0.2,0.4,0.5,0.5,0.8l-1.1,0.6c-0.1-0.2-0.2-0.4-0.4-0.5
				c-0.1-0.2-0.3-0.3-0.5-0.4c-0.2-0.1-0.4-0.2-0.6-0.3c-0.2-0.1-0.4-0.1-0.7-0.1c-0.4,0-0.7,0.1-1,0.2c-0.3,0.2-0.5,0.4-0.7,0.6
				c-0.2,0.3-0.3,0.6-0.4,0.9C112.6,423.3,112.6,423.7,112.6,424.1L112.6,424.1z M123,420c0.6,0,1.1,0.1,1.5,0.3
				c0.5,0.2,0.8,0.5,1.2,0.9c0.3,0.4,0.6,0.8,0.8,1.3c0.2,0.5,0.3,1.1,0.3,1.7c0,0.6-0.1,1.2-0.3,1.7c-0.2,0.5-0.4,0.9-0.8,1.3
				c-0.3,0.4-0.7,0.7-1.2,0.9c-0.5,0.2-1,0.3-1.5,0.3c-0.6,0-1.1-0.1-1.5-0.3c-0.4-0.2-0.8-0.5-1.2-0.9c-0.3-0.4-0.6-0.8-0.8-1.3
				c-0.2-0.5-0.3-1.1-0.3-1.7c0-0.6,0.1-1.2,0.3-1.7c0.2-0.5,0.4-0.9,0.8-1.3c0.3-0.4,0.7-0.7,1.2-0.9C122,420.1,122.5,420,123,420z
				 M123,427.1c0.4,0,0.7-0.1,1-0.2c0.3-0.2,0.5-0.4,0.7-0.6c0.2-0.3,0.3-0.6,0.4-0.9c0.1-0.4,0.1-0.7,0.1-1.1v-0.1
				c0-0.4,0-0.8-0.1-1.1c-0.1-0.4-0.2-0.7-0.4-0.9c-0.2-0.3-0.4-0.5-0.7-0.6c-0.3-0.2-0.6-0.2-1-0.2c-0.4,0-0.7,0.1-1,0.2
				c-0.3,0.2-0.5,0.4-0.7,0.6c-0.2,0.3-0.3,0.6-0.4,0.9c-0.1,0.4-0.1,0.7-0.1,1.1v0.1c0,0.4,0,0.8,0.1,1.1c0.1,0.4,0.2,0.7,0.4,0.9
				c0.2,0.3,0.4,0.5,0.7,0.6C122.3,427,122.6,427.1,123,427.1z M134.6,428.1h-1.3v-5c0-0.4,0-0.7-0.1-0.9c-0.1-0.2-0.2-0.4-0.3-0.6
				c-0.1-0.2-0.3-0.3-0.5-0.3c-0.2-0.1-0.4-0.1-0.6-0.1c-0.2,0-0.4,0-0.6,0.1c-0.2,0.1-0.4,0.2-0.6,0.4c-0.2,0.2-0.3,0.4-0.4,0.7
				c-0.1,0.3-0.1,0.6-0.1,1v4.7h-1.3v-8h1.3v0.9c0.3-0.4,0.6-0.6,0.9-0.8c0.4-0.2,0.7-0.3,1.2-0.3c0.2,0,0.4,0,0.6,0.1
				c0.2,0,0.4,0.1,0.6,0.2c0.2,0.1,0.4,0.2,0.6,0.4c0.2,0.2,0.3,0.4,0.4,0.6c0.1-0.2,0.3-0.4,0.5-0.6c0.2-0.2,0.4-0.3,0.6-0.4
				c0.2-0.1,0.4-0.2,0.7-0.2c0.2,0,0.5-0.1,0.7-0.1c0.4,0,0.8,0.1,1.1,0.2c0.3,0.1,0.6,0.3,0.8,0.6c0.2,0.2,0.4,0.5,0.5,0.9
				c0.1,0.3,0.2,0.7,0.2,1v5.5H138v-5c0-0.4,0-0.7-0.1-0.9c-0.1-0.2-0.2-0.4-0.4-0.6c-0.2-0.2-0.3-0.3-0.5-0.3
				c-0.2-0.1-0.4-0.1-0.6-0.1c-0.2,0-0.4,0-0.6,0.1c-0.2,0.1-0.4,0.2-0.6,0.4c-0.2,0.2-0.3,0.4-0.4,0.7c-0.1,0.3-0.1,0.6-0.1,1
				V428.1z M143,420.1v0.9c0.2-0.3,0.6-0.6,1-0.8c0.4-0.2,0.9-0.3,1.4-0.3c0.5,0,1,0.1,1.4,0.3c0.4,0.2,0.8,0.5,1.1,0.9
				c0.3,0.4,0.5,0.8,0.7,1.3c0.2,0.5,0.2,1.1,0.2,1.7s-0.1,1.2-0.2,1.7c-0.2,0.5-0.4,0.9-0.7,1.3c-0.3,0.4-0.7,0.7-1.1,0.9
				c-0.4,0.2-0.9,0.3-1.4,0.3c-0.5,0-1-0.1-1.4-0.3c-0.4-0.2-0.7-0.5-1-0.8v3.3h-1.3v-10.4H143z M147.3,424.1c0-0.4,0-0.8-0.1-1.2
				c-0.1-0.4-0.2-0.7-0.4-0.9c-0.2-0.3-0.4-0.5-0.7-0.6c-0.3-0.2-0.6-0.2-1-0.2c-0.3,0-0.7,0.1-0.9,0.2c-0.3,0.1-0.5,0.3-0.7,0.5
				c-0.2,0.2-0.3,0.5-0.4,0.7c-0.1,0.3-0.1,0.6-0.1,0.9v1.3c0,0.3,0,0.6,0.1,0.9c0.1,0.3,0.2,0.5,0.4,0.7c0.2,0.2,0.4,0.4,0.7,0.5
				c0.3,0.1,0.6,0.2,0.9,0.2c0.4,0,0.7-0.1,1-0.2c0.3-0.2,0.5-0.4,0.7-0.6c0.2-0.3,0.3-0.6,0.4-0.9
				C147.3,425,147.3,424.6,147.3,424.1L147.3,424.1z M150.6,416.9h1.3v9.4c0,0.1,0,0.2,0,0.3c0,0.1,0.1,0.2,0.1,0.2
				c0.1,0.1,0.1,0.1,0.2,0.2c0.1,0,0.2,0,0.4,0c0.2,0,0.3,0,0.5,0c0.1,0,0.3,0,0.4,0l0.1,1.1c-0.2,0-0.3,0-0.5,0c-0.1,0-0.3,0-0.4,0
				c-0.2,0-0.3,0-0.4,0c-0.2,0-0.5,0-0.7-0.1c-0.2-0.1-0.4-0.1-0.5-0.3c-0.2-0.1-0.3-0.3-0.4-0.5c-0.1-0.2-0.1-0.4-0.1-0.7V416.9z
				 M155.8,424.5c0,0.4,0.1,0.7,0.2,1c0.1,0.3,0.3,0.6,0.5,0.8c0.2,0.2,0.5,0.4,0.8,0.5c0.3,0.1,0.6,0.2,1,0.2
				c0.4,0,0.8-0.1,1.2-0.2c0.3-0.2,0.6-0.3,0.9-0.6l0.7,0.9c-0.4,0.3-0.8,0.5-1.2,0.7c-0.5,0.2-1,0.3-1.6,0.3
				c-0.6,0-1.1-0.1-1.6-0.3c-0.5-0.2-0.9-0.5-1.2-0.9c-0.3-0.4-0.6-0.8-0.8-1.3c-0.2-0.5-0.3-1.1-0.3-1.7c0-0.6,0.1-1.2,0.3-1.7
				c0.2-0.5,0.4-0.9,0.7-1.3c0.3-0.4,0.7-0.7,1.1-0.9c0.4-0.2,0.9-0.3,1.5-0.3c0.5,0,1,0.1,1.4,0.3c0.4,0.2,0.8,0.5,1.1,0.9
				c0.3,0.4,0.5,0.8,0.7,1.3c0.2,0.5,0.2,1.1,0.2,1.7v0.4H155.8z M157.9,421.1c-0.3,0-0.6,0.1-0.9,0.2c-0.3,0.1-0.5,0.3-0.7,0.5
				c-0.2,0.2-0.3,0.5-0.4,0.8c-0.1,0.3-0.2,0.6-0.2,0.9h4.2c0-0.3-0.1-0.6-0.2-0.9c-0.1-0.3-0.2-0.5-0.4-0.8
				c-0.2-0.2-0.4-0.4-0.6-0.5C158.5,421.2,158.3,421.1,157.9,421.1z M165.2,426.1c0,0.1,0,0.3,0,0.4c0,0.1,0.1,0.2,0.1,0.3
				c0.1,0.1,0.2,0.2,0.3,0.2c0.1,0.1,0.3,0.1,0.6,0.1c0.1,0,0.1,0,0.2,0c0.1,0,0.2,0,0.3,0c0.1,0,0.2,0,0.3,0c0.1,0,0.2,0,0.2,0
				l0.1,1.1c-0.2,0-0.3,0-0.5,0.1c-0.1,0-0.3,0-0.5,0c-0.2,0-0.3,0-0.5,0c-0.3,0-0.6,0-0.9-0.1c-0.2-0.1-0.5-0.2-0.6-0.3
				c-0.2-0.1-0.3-0.3-0.4-0.6c-0.1-0.2-0.1-0.5-0.1-0.9v-5.1h-1.5v-1.2h1.5v-2.6l1.3-0.5v3.1h2.2v1.2h-2.2V426.1z M170,424.5
				c0,0.4,0.1,0.7,0.2,1c0.1,0.3,0.3,0.6,0.5,0.8c0.2,0.2,0.5,0.4,0.8,0.5c0.3,0.1,0.6,0.2,1,0.2c0.4,0,0.8-0.1,1.2-0.2
				c0.3-0.2,0.6-0.3,0.9-0.6l0.7,0.9c-0.4,0.3-0.8,0.5-1.2,0.7c-0.5,0.2-1,0.3-1.6,0.3c-0.6,0-1.1-0.1-1.6-0.3
				c-0.5-0.2-0.9-0.5-1.2-0.9c-0.3-0.4-0.6-0.8-0.8-1.3c-0.2-0.5-0.3-1.1-0.3-1.7c0-0.6,0.1-1.2,0.3-1.7c0.2-0.5,0.4-0.9,0.7-1.3
				c0.3-0.4,0.7-0.7,1.1-0.9c0.4-0.2,0.9-0.3,1.5-0.3c0.5,0,1,0.1,1.4,0.3c0.4,0.2,0.8,0.5,1.1,0.9c0.3,0.4,0.5,0.8,0.7,1.3
				c0.2,0.5,0.2,1.1,0.2,1.7v0.4H170z M172.2,421.1c-0.3,0-0.6,0.1-0.9,0.2c-0.3,0.1-0.5,0.3-0.7,0.5c-0.2,0.2-0.3,0.5-0.4,0.8
				c-0.1,0.3-0.2,0.6-0.2,0.9h4.2c0-0.3-0.1-0.6-0.2-0.9c-0.1-0.3-0.2-0.5-0.4-0.8c-0.2-0.2-0.4-0.4-0.6-0.5
				C172.8,421.2,172.5,421.1,172.2,421.1z M180.6,416.9h1.3v9.4c0,0.1,0,0.2,0,0.3c0,0.1,0.1,0.2,0.1,0.2c0.1,0.1,0.1,0.1,0.2,0.2
				c0.1,0,0.2,0,0.4,0c0.2,0,0.3,0,0.5,0c0.1,0,0.3,0,0.4,0l0.1,1.1c-0.2,0-0.3,0-0.5,0c-0.1,0-0.3,0-0.4,0c-0.2,0-0.3,0-0.4,0
				c-0.2,0-0.5,0-0.7-0.1c-0.2-0.1-0.4-0.1-0.5-0.3c-0.2-0.1-0.3-0.3-0.4-0.5c-0.1-0.2-0.1-0.4-0.1-0.7V416.9z M189.4,427.3
				c-0.2,0.3-0.6,0.5-1,0.7c-0.4,0.2-0.9,0.3-1.4,0.3c-0.4,0-0.8-0.1-1.1-0.2c-0.3-0.1-0.6-0.3-0.9-0.5c-0.2-0.2-0.4-0.5-0.6-0.8
				c-0.1-0.3-0.2-0.6-0.2-1c0-0.3,0.1-0.6,0.1-0.9c0.1-0.3,0.2-0.5,0.4-0.7c0.2-0.2,0.4-0.3,0.7-0.5c0.3-0.1,0.6-0.2,0.9-0.3
				l2.8-0.4v-0.5c0-0.3,0-0.6-0.1-0.8c-0.1-0.2-0.2-0.4-0.4-0.5c-0.2-0.1-0.3-0.2-0.6-0.3c-0.2-0.1-0.4-0.1-0.7-0.1
				c-0.4,0-0.9,0.1-1.3,0.2c-0.4,0.1-0.7,0.3-1,0.4l-0.5-1c0.5-0.3,0.9-0.4,1.4-0.6c0.5-0.1,1-0.2,1.5-0.2c1,0,1.7,0.2,2.2,0.7
				c0.5,0.4,0.8,1.1,0.8,1.9v3.7c0,0.3,0.1,0.5,0.2,0.7c0.1,0.2,0.3,0.3,0.5,0.4l-0.7,0.9c-0.2-0.1-0.5-0.2-0.6-0.3
				C189.7,427.8,189.5,427.6,189.4,427.3L189.4,427.3z M187.1,424.5c-0.2,0-0.4,0.1-0.6,0.1c-0.2,0.1-0.3,0.1-0.5,0.2
				c-0.1,0.1-0.2,0.2-0.3,0.4c-0.1,0.1-0.1,0.3-0.1,0.5c0,0.2,0,0.4,0.1,0.6c0.1,0.2,0.2,0.3,0.4,0.5s0.3,0.2,0.5,0.3
				c0.2,0.1,0.4,0.1,0.6,0.1c0.2,0,0.5,0,0.7-0.1c0.2-0.1,0.4-0.2,0.6-0.3c0.2-0.1,0.3-0.3,0.4-0.5c0.1-0.2,0.2-0.4,0.2-0.6v-1.5
				L187.1,424.5z M195,426.1c0,0.1,0,0.3,0,0.4c0,0.1,0.1,0.2,0.1,0.3c0.1,0.1,0.2,0.2,0.3,0.2c0.1,0.1,0.3,0.1,0.6,0.1
				c0.1,0,0.1,0,0.2,0c0.1,0,0.2,0,0.3,0c0.1,0,0.2,0,0.3,0c0.1,0,0.2,0,0.2,0l0.1,1.1c-0.2,0-0.3,0-0.5,0.1c-0.1,0-0.3,0-0.5,0
				c-0.2,0-0.3,0-0.5,0c-0.3,0-0.6,0-0.9-0.1c-0.2-0.1-0.5-0.2-0.6-0.3s-0.3-0.3-0.4-0.6c-0.1-0.2-0.1-0.5-0.1-0.9v-5.1h-1.5v-1.2
				h1.5v-2.6l1.3-0.5v3.1h2.2v1.2H195V426.1z M199.8,424.5c0,0.4,0.1,0.7,0.2,1c0.1,0.3,0.3,0.6,0.5,0.8c0.2,0.2,0.5,0.4,0.8,0.5
				c0.3,0.1,0.6,0.2,1,0.2c0.4,0,0.8-0.1,1.2-0.2c0.3-0.2,0.6-0.3,0.9-0.6l0.7,0.9c-0.4,0.3-0.8,0.5-1.2,0.7c-0.5,0.2-1,0.3-1.6,0.3
				c-0.6,0-1.1-0.1-1.6-0.3c-0.5-0.2-0.9-0.5-1.2-0.9c-0.3-0.4-0.6-0.8-0.8-1.3c-0.2-0.5-0.3-1.1-0.3-1.7c0-0.6,0.1-1.2,0.3-1.7
				c0.2-0.5,0.4-0.9,0.7-1.3c0.3-0.4,0.7-0.7,1.1-0.9c0.4-0.2,0.9-0.3,1.5-0.3c0.5,0,1,0.1,1.4,0.3c0.4,0.2,0.8,0.5,1.1,0.9
				c0.3,0.4,0.5,0.8,0.7,1.3c0.2,0.5,0.2,1.1,0.2,1.7v0.4H199.8z M201.9,421.1c-0.3,0-0.6,0.1-0.9,0.2c-0.3,0.1-0.5,0.3-0.7,0.5
				c-0.2,0.2-0.3,0.5-0.4,0.8c-0.1,0.3-0.2,0.6-0.2,0.9h4.2c0-0.3-0.1-0.6-0.2-0.9c-0.1-0.3-0.2-0.5-0.4-0.8
				c-0.2-0.2-0.4-0.4-0.6-0.5C202.5,421.2,202.3,421.1,201.9,421.1z M211.3,421.3h-0.2c-0.3,0-0.7,0-1,0.1c-0.3,0.1-0.6,0.2-0.8,0.4
				c-0.2,0.2-0.4,0.5-0.6,0.8c-0.1,0.3-0.2,0.8-0.2,1.3v4.1h-1.3v-8h1.3v1.3c0.1-0.2,0.2-0.4,0.4-0.6c0.2-0.2,0.4-0.3,0.6-0.4
				c0.2-0.1,0.4-0.2,0.7-0.3c0.2-0.1,0.5-0.1,0.7-0.1h0.4V421.3z"/>
			<path class="st8" d="M45,431.1h166.7v1.1H45V431.1z"/>
			<rect x="30" y="16.5" class="st2" width="375" height="110"/>
			<rect x="45" y="126.6" class="st8" width="345" height="10"/>
			<path class="st1" d="M102.5,44.1c0,0.9,0.1,1.8,0.3,2.6c0.2,0.8,0.6,1.6,1,2.2s1,1.1,1.8,1.5c0.7,0.4,1.6,0.6,2.5,0.6
				c0.9,0,1.7-0.2,2.4-0.5c0.6-0.3,1.1-0.7,1.5-1.1c0.4-0.5,0.6-1,0.8-1.5c0.2-0.5,0.2-1,0.2-1.5v-0.2h-5.4V43h9.5v11.5h-3.7v-2.5
				c-0.3,0.4-0.6,0.8-1,1.1c-0.4,0.3-0.8,0.6-1.3,0.9c-0.5,0.2-1,0.4-1.6,0.6c-0.6,0.1-1.2,0.2-1.8,0.2c-1.5,0-2.9-0.3-4.1-0.8
				c-1.2-0.6-2.2-1.3-3-2.3c-0.8-1-1.4-2.1-1.9-3.4c-0.4-1.3-0.6-2.7-0.6-4.2c0-1.5,0.2-2.9,0.7-4.2c0.5-1.3,1.2-2.5,2-3.4
				c0.9-1,1.9-1.7,3.2-2.3c1.2-0.6,2.6-0.8,4.2-0.8c1,0,1.9,0.1,2.8,0.4c0.9,0.2,1.7,0.6,2.4,1c0.7,0.4,1.4,0.9,2,1.5
				c0.6,0.6,1,1.3,1.4,2l-3.7,2.1c-0.2-0.4-0.5-0.9-0.8-1.2c-0.3-0.4-0.7-0.7-1.1-1c-0.4-0.3-0.8-0.5-1.3-0.7
				c-0.5-0.2-1.1-0.2-1.7-0.2c-1,0-1.8,0.2-2.5,0.6c-0.7,0.4-1.3,0.9-1.8,1.5c-0.5,0.6-0.8,1.4-1,2.2c-0.2,0.8-0.3,1.7-0.3,2.6V44.1
				z M129.9,33.3c1.6,0,3,0.3,4.2,0.8c1.2,0.6,2.3,1.3,3.1,2.3c0.9,1,1.5,2.1,2,3.4c0.5,1.3,0.7,2.7,0.7,4.2c0,1.5-0.2,2.9-0.7,4.2
				c-0.4,1.3-1.1,2.5-2,3.4c-0.9,1-1.9,1.7-3.1,2.3c-1.2,0.6-2.6,0.8-4.2,0.8c-1.6,0-3-0.3-4.2-0.8c-1.2-0.6-2.3-1.3-3.1-2.3
				c-0.9-1-1.5-2.1-2-3.4c-0.4-1.3-0.7-2.7-0.7-4.2c0-1.5,0.2-2.9,0.7-4.2c0.5-1.3,1.1-2.5,2-3.4c0.9-1,1.9-1.7,3.1-2.3
				C127,33.5,128.4,33.3,129.9,33.3z M129.9,51c0.9,0,1.7-0.2,2.4-0.5c0.7-0.4,1.3-0.8,1.8-1.5c0.5-0.6,0.8-1.3,1.1-2.2
				c0.2-0.8,0.4-1.8,0.4-2.8V44c0-1-0.1-1.9-0.4-2.7c-0.2-0.8-0.6-1.6-1.1-2.2c-0.5-0.6-1.1-1.1-1.8-1.4c-0.7-0.4-1.5-0.5-2.4-0.5
				c-0.9,0-1.7,0.2-2.4,0.5c-0.7,0.3-1.3,0.8-1.8,1.4c-0.5,0.6-0.8,1.3-1.1,2.2c-0.2,0.8-0.4,1.8-0.4,2.7v0.1c0,1,0.1,1.9,0.4,2.8
				c0.2,0.8,0.6,1.6,1.1,2.2c0.5,0.6,1.1,1.1,1.8,1.5C128.2,50.8,129,51,129.9,51z M147.5,54.5l-5.9-21h4.8l4.1,15.8h0.1l4-15.8h4.7
				l-5.9,21H147.5z M159.8,52.2c0-0.4,0.1-0.7,0.2-1c0.1-0.3,0.3-0.6,0.6-0.8c0.2-0.2,0.5-0.4,0.8-0.6c0.3-0.1,0.7-0.2,1-0.2
				c0.4,0,0.7,0.1,1,0.2c0.3,0.1,0.6,0.3,0.8,0.6c0.2,0.2,0.4,0.5,0.6,0.8c0.1,0.3,0.2,0.6,0.2,1c0,0.4-0.1,0.7-0.2,1
				c-0.1,0.3-0.3,0.6-0.6,0.8c-0.2,0.2-0.5,0.4-0.8,0.6c-0.3,0.1-0.7,0.2-1,0.2c-0.4,0-0.7-0.1-1-0.2c-0.3-0.1-0.6-0.3-0.8-0.6
				c-0.2-0.2-0.4-0.5-0.6-0.8C159.9,52.9,159.8,52.5,159.8,52.2z M177.1,51c0.6,0,1.2-0.1,1.7-0.3c0.5-0.2,1-0.5,1.4-0.8
				c0.4-0.4,0.7-0.8,0.9-1.4c0.2-0.6,0.3-1.2,0.3-2v-13h4.2v13.7c0,1.2-0.2,2.2-0.6,3.2c-0.4,0.9-1,1.8-1.8,2.4
				c-0.8,0.7-1.6,1.2-2.7,1.5c-1,0.4-2.2,0.5-3.4,0.5c-1.2,0-2.4-0.2-3.4-0.5c-1-0.4-1.9-0.9-2.7-1.5c-0.8-0.7-1.4-1.5-1.8-2.4
				c-0.4-0.9-0.6-2-0.6-3.2V33.5h4.2v13c0,0.8,0.1,1.4,0.3,2c0.2,0.6,0.5,1,0.9,1.4c0.4,0.4,0.8,0.6,1.4,0.8
				C175.9,50.9,176.5,51,177.1,51z M189.8,33.5h4.2v9.1l7.5-9.1h5.2l-7.3,8.3l7.8,12.7h-4.9l-5.6-9.4l-2.7,3v6.4h-4.2V33.5z"/>
			<path class="st1" d="M55.2,76.3h8.5v2.1h-3.1v9.1h-2.3v-9.1h-3.1V76.3z M65.7,84.1c0,0.2,0.1,0.5,0.2,0.7
				c0.1,0.2,0.3,0.4,0.5,0.5c0.2,0.1,0.4,0.3,0.6,0.3c0.2,0.1,0.5,0.1,0.8,0.1c0.3,0,0.7-0.1,1-0.2c0.4-0.1,0.7-0.3,1-0.5l1,1.5
				c-0.4,0.3-0.9,0.6-1.4,0.8c-0.6,0.2-1.2,0.3-1.8,0.3c-0.6,0-1.1-0.1-1.6-0.3c-0.5-0.2-1-0.5-1.3-0.9c-0.4-0.4-0.7-0.8-0.9-1.4
				c-0.2-0.5-0.3-1.1-0.3-1.8c0-0.6,0.1-1.2,0.3-1.7c0.2-0.5,0.5-1,0.8-1.4c0.4-0.4,0.8-0.7,1.3-0.9c0.5-0.2,1-0.3,1.6-0.3
				c0.6,0,1.1,0.1,1.5,0.3c0.5,0.2,0.9,0.5,1.2,0.8c0.3,0.4,0.6,0.8,0.8,1.3c0.2,0.5,0.3,1.1,0.3,1.7v1H65.7z M67.5,80.9
				c-0.5,0-0.9,0.2-1.2,0.5c-0.3,0.3-0.5,0.7-0.6,1.1h3.4c0-0.4-0.2-0.8-0.5-1.1S67.9,80.9,67.5,80.9z M72.7,76.3h2.2v8.9
				c0,0.2,0,0.3,0.1,0.4c0.1,0.1,0.3,0.1,0.5,0.1c0.1,0,0.2,0,0.3,0c0.1,0,0.2,0,0.3-0.1l0.2,1.8c-0.1,0-0.3,0-0.5,0.1
				c-0.1,0-0.3,0-0.5,0c-0.2,0-0.4,0-0.6,0c-0.3,0-0.6,0-0.8-0.1c-0.2-0.1-0.5-0.2-0.6-0.3c-0.2-0.2-0.3-0.3-0.4-0.6
				c-0.1-0.2-0.1-0.5-0.1-0.8V76.3z M77.4,76.3h2.2v8.9c0,0.2,0,0.3,0.1,0.4c0.1,0.1,0.3,0.1,0.5,0.1c0.1,0,0.2,0,0.3,0
				c0.1,0,0.2,0,0.3-0.1l0.2,1.8c-0.1,0-0.3,0-0.5,0.1c-0.1,0-0.3,0-0.5,0c-0.2,0-0.4,0-0.6,0c-0.3,0-0.6,0-0.8-0.1
				c-0.2-0.1-0.5-0.2-0.6-0.3c-0.2-0.2-0.3-0.3-0.4-0.6c-0.1-0.2-0.1-0.5-0.1-0.8V76.3z M94.4,81.9c0,0.8-0.1,1.6-0.3,2.3
				c-0.2,0.7-0.6,1.3-1,1.8c-0.4,0.5-1,0.9-1.7,1.1c-0.7,0.3-1.5,0.4-2.4,0.4h-4.1V76.3H89c0.9,0,1.7,0.1,2.4,0.4
				c0.7,0.3,1.2,0.6,1.7,1.1c0.5,0.5,0.8,1.1,1,1.8C94.3,80.3,94.4,81.1,94.4,81.9z M92.1,81.7c0-0.5-0.1-0.9-0.2-1.3
				c-0.1-0.4-0.3-0.8-0.6-1.1c-0.3-0.3-0.6-0.5-1-0.7c-0.4-0.2-0.9-0.3-1.5-0.3h-1.7v7.2h1.7c0.6,0,1.1-0.1,1.5-0.3
				c0.4-0.2,0.7-0.4,1-0.7c0.3-0.3,0.5-0.7,0.6-1.1s0.2-0.9,0.2-1.3V81.7z M98.5,87.5l-3.2-11.2h2.5l2.2,8.4h0.1l2.1-8.4h2.5
				l-3.2,11.2H98.5z M106.2,76.3h2.3v9.1h4.4v2.1h-6.7V76.3z M120.5,85.5h-4.1l-0.6,2.1h-2.4l3.7-11.2h3l3.7,11.2h-2.5L120.5,85.5z
				 M116.9,83.5h2.9l-1.5-4.7h0L116.9,83.5z M127.9,88.5c0.2,0,0.4,0,0.5-0.1c0.1-0.1,0.2-0.2,0.3-0.4l0.1-0.3l-2.9-8.5h2.4L130,85
				l1.4-5.8h2.4l-2.8,9.4c-0.1,0.3-0.2,0.6-0.4,0.8c-0.2,0.2-0.4,0.4-0.6,0.5c-0.2,0.1-0.5,0.3-0.8,0.3c-0.3,0.1-0.6,0.1-0.9,0.1
				c-0.1,0-0.3,0-0.5,0c-0.2,0-0.3,0-0.5,0c-0.2,0-0.4,0-0.5-0.1c-0.2,0-0.3-0.1-0.5-0.1l0.4-1.8c0.1,0,0.3,0.1,0.4,0.1
				c0.1,0,0.2,0,0.4,0C127.6,88.5,127.8,88.5,127.9,88.5z M138.4,79c0.6,0,1.2,0.1,1.7,0.3c0.5,0.2,0.9,0.5,1.3,0.9
				c0.4,0.4,0.6,0.9,0.8,1.4c0.2,0.5,0.3,1.1,0.3,1.7c0,0.6-0.1,1.2-0.3,1.7c-0.2,0.5-0.5,1-0.8,1.4c-0.4,0.4-0.8,0.7-1.3,0.9
				c-0.5,0.2-1.1,0.3-1.7,0.3c-0.6,0-1.2-0.1-1.7-0.3c-0.5-0.2-0.9-0.5-1.3-0.9c-0.4-0.4-0.6-0.8-0.8-1.4c-0.2-0.5-0.3-1.1-0.3-1.7
				c0-0.6,0.1-1.2,0.3-1.7c0.2-0.5,0.5-1,0.8-1.4c0.4-0.4,0.8-0.7,1.3-0.9C137.3,79.1,137.8,79,138.4,79z M138.4,85.7
				c0.3,0,0.6-0.1,0.8-0.2c0.2-0.1,0.4-0.3,0.6-0.5c0.2-0.2,0.3-0.4,0.4-0.7c0.1-0.3,0.1-0.6,0.1-0.9v-0.1c0-0.3,0-0.6-0.1-0.9
				c-0.1-0.3-0.2-0.5-0.4-0.7c-0.2-0.2-0.4-0.4-0.6-0.5c-0.2-0.1-0.5-0.2-0.8-0.2c-0.3,0-0.6,0.1-0.8,0.2c-0.2,0.1-0.4,0.3-0.6,0.5
				c-0.2,0.2-0.3,0.4-0.4,0.7c-0.1,0.3-0.1,0.6-0.1,0.9v0.1c0,0.3,0,0.7,0.1,0.9c0.1,0.3,0.2,0.5,0.4,0.7c0.2,0.2,0.4,0.4,0.6,0.5
				C137.9,85.6,138.1,85.7,138.4,85.7z M151.1,87.5h-2.2v-0.7c-0.1,0.1-0.2,0.2-0.4,0.3c-0.1,0.1-0.3,0.2-0.5,0.3
				c-0.2,0.1-0.4,0.1-0.6,0.2c-0.2,0-0.4,0.1-0.7,0.1c-0.5,0-0.9-0.1-1.2-0.2c-0.4-0.2-0.7-0.4-0.9-0.6c-0.2-0.3-0.4-0.6-0.6-0.9
				c-0.1-0.3-0.2-0.7-0.2-1.1v-5.6h2.2V84c0,0.3,0,0.5,0.1,0.8c0.1,0.2,0.2,0.4,0.3,0.5c0.1,0.1,0.3,0.2,0.4,0.3
				c0.2,0.1,0.3,0.1,0.5,0.1c0.2,0,0.4,0,0.6-0.1c0.2-0.1,0.4-0.2,0.5-0.4c0.1-0.2,0.2-0.4,0.3-0.6c0.1-0.2,0.1-0.5,0.1-0.8v-4.6
				h2.2V87.5z M153,76.3h2.3v4.4H153V76.3z M158.9,87.5l-2.6-8.4h2.4l1.5,5.8l1.5-5.8h2.4l-2.5,8.4H158.9z M167.1,84.1
				c0,0.2,0.1,0.5,0.2,0.7c0.1,0.2,0.3,0.4,0.5,0.5c0.2,0.1,0.4,0.3,0.6,0.3c0.2,0.1,0.5,0.1,0.8,0.1c0.3,0,0.7-0.1,1-0.2
				c0.4-0.1,0.7-0.3,1-0.5l1,1.5c-0.4,0.3-0.9,0.6-1.4,0.8c-0.6,0.2-1.2,0.3-1.8,0.3c-0.6,0-1.1-0.1-1.6-0.3c-0.5-0.2-1-0.5-1.3-0.9
				c-0.4-0.4-0.7-0.8-0.9-1.4c-0.2-0.5-0.3-1.1-0.3-1.8c0-0.6,0.1-1.2,0.3-1.7c0.2-0.5,0.5-1,0.8-1.4c0.4-0.4,0.8-0.7,1.3-0.9
				c0.5-0.2,1-0.3,1.6-0.3c0.6,0,1.1,0.1,1.5,0.3c0.5,0.2,0.9,0.5,1.2,0.8c0.3,0.4,0.6,0.8,0.8,1.3c0.2,0.5,0.3,1.1,0.3,1.7v1H167.1
				z M168.8,80.9c-0.5,0-0.9,0.2-1.2,0.5c-0.3,0.3-0.5,0.7-0.6,1.1h3.4c0-0.4-0.2-0.8-0.5-1.1C169.7,81,169.3,80.9,168.8,80.9z
				 M177.6,84.9c0.3,0.3,0.7,0.5,1.1,0.7s0.9,0.3,1.3,0.3c0.3,0,0.6-0.1,0.8-0.2c0.2-0.1,0.3-0.3,0.3-0.5c0-0.3-0.4-0.6-1.1-0.8
				l-0.6-0.2c-0.3-0.1-0.6-0.2-0.9-0.3c-0.3-0.1-0.6-0.3-0.9-0.5c-0.3-0.2-0.5-0.5-0.6-0.8c-0.2-0.3-0.2-0.7-0.2-1.1
				c0-0.3,0.1-0.7,0.2-1c0.2-0.3,0.4-0.6,0.7-0.8c0.3-0.2,0.6-0.4,1-0.6s0.9-0.2,1.4-0.2c0.7,0,1.3,0.1,1.9,0.3
				c0.6,0.2,1,0.5,1.3,0.8l-1.1,1.4c-0.3-0.2-0.6-0.4-0.9-0.5c-0.4-0.1-0.7-0.2-1.1-0.2c-0.3,0-0.6,0.1-0.8,0.2
				c-0.2,0.1-0.3,0.3-0.3,0.4c0,0.2,0.1,0.3,0.2,0.4c0.2,0.1,0.4,0.2,0.7,0.3l0.9,0.3c0.9,0.2,1.5,0.6,1.9,1
				c0.4,0.4,0.6,0.9,0.6,1.6c0,0.4-0.1,0.7-0.2,1c-0.1,0.3-0.4,0.6-0.6,0.9c-0.3,0.2-0.6,0.4-1,0.6c-0.4,0.1-0.9,0.2-1.4,0.2
				c-0.4,0-0.8,0-1.1-0.1c-0.4-0.1-0.7-0.2-1-0.3c-0.3-0.1-0.6-0.3-0.8-0.4c-0.2-0.2-0.5-0.3-0.6-0.5L177.6,84.9z M188.4,79
				c0.6,0,1.2,0.1,1.7,0.3c0.5,0.2,0.9,0.5,1.3,0.9c0.4,0.4,0.6,0.9,0.8,1.4c0.2,0.5,0.3,1.1,0.3,1.7c0,0.6-0.1,1.2-0.3,1.7
				c-0.2,0.5-0.5,1-0.8,1.4c-0.4,0.4-0.8,0.7-1.3,0.9c-0.5,0.2-1.1,0.3-1.7,0.3c-0.6,0-1.2-0.1-1.7-0.3c-0.5-0.2-0.9-0.5-1.3-0.9
				s-0.6-0.8-0.8-1.4c-0.2-0.5-0.3-1.1-0.3-1.7c0-0.6,0.1-1.2,0.3-1.7c0.2-0.5,0.5-1,0.8-1.4c0.4-0.4,0.8-0.7,1.3-0.9
				C187.2,79.1,187.7,79,188.4,79z M188.4,85.7c0.3,0,0.6-0.1,0.8-0.2c0.2-0.1,0.4-0.3,0.6-0.5c0.2-0.2,0.3-0.4,0.4-0.7
				c0.1-0.3,0.1-0.6,0.1-0.9v-0.1c0-0.3,0-0.6-0.1-0.9c-0.1-0.3-0.2-0.5-0.4-0.7c-0.2-0.2-0.4-0.4-0.6-0.5c-0.2-0.1-0.5-0.2-0.8-0.2
				c-0.3,0-0.6,0.1-0.8,0.2c-0.2,0.1-0.4,0.3-0.6,0.5c-0.2,0.2-0.3,0.4-0.4,0.7c-0.1,0.3-0.1,0.6-0.1,0.9v0.1c0,0.3,0,0.7,0.1,0.9
				c0.1,0.3,0.2,0.5,0.4,0.7c0.2,0.2,0.4,0.4,0.6,0.5C187.8,85.6,188.1,85.7,188.4,85.7z M193.9,76.3h2.2v8.9c0,0.2,0.1,0.3,0.1,0.4
				c0.1,0.1,0.3,0.1,0.5,0.1c0.1,0,0.2,0,0.3,0c0.1,0,0.2,0,0.3-0.1l0.2,1.8c-0.1,0-0.3,0-0.5,0.1c-0.1,0-0.3,0-0.5,0
				c-0.2,0-0.4,0-0.6,0c-0.3,0-0.6,0-0.8-0.1c-0.2-0.1-0.5-0.2-0.6-0.3c-0.2-0.2-0.3-0.3-0.4-0.6c-0.1-0.2-0.1-0.5-0.1-0.8V76.3z
				 M204,87.5v-0.7c-0.1,0.1-0.2,0.2-0.4,0.4c-0.1,0.1-0.3,0.2-0.5,0.3c-0.2,0.1-0.4,0.1-0.6,0.2c-0.2,0-0.4,0.1-0.7,0.1
				c-0.6,0-1.1-0.1-1.5-0.3c-0.5-0.2-0.9-0.5-1.2-0.9s-0.6-0.8-0.8-1.4c-0.2-0.5-0.3-1.1-0.3-1.7c0-0.6,0.1-1.2,0.3-1.7
				c0.2-0.5,0.4-1,0.7-1.4c0.3-0.4,0.7-0.7,1.2-0.9c0.5-0.2,1-0.3,1.5-0.3c0.5,0,0.9,0.1,1.2,0.3c0.3,0.2,0.6,0.4,0.9,0.6v-3.6h2.2
				v11.2H204z M204,82.6c0-0.2,0-0.4-0.1-0.6c-0.1-0.2-0.2-0.4-0.3-0.5c-0.2-0.1-0.3-0.2-0.5-0.3c-0.2-0.1-0.4-0.1-0.7-0.1
				c-0.3,0-0.6,0.1-0.8,0.2c-0.2,0.1-0.4,0.3-0.6,0.5c-0.2,0.2-0.3,0.4-0.4,0.7c-0.1,0.3-0.1,0.6-0.1,0.9v0.1c0,0.3,0,0.6,0.1,0.9
				c0.1,0.3,0.2,0.5,0.4,0.7c0.2,0.2,0.4,0.4,0.6,0.5c0.2,0.1,0.5,0.2,0.8,0.2c0.3,0,0.5,0,0.7-0.1c0.2-0.1,0.4-0.2,0.5-0.3
				c0.2-0.1,0.3-0.3,0.3-0.5c0.1-0.2,0.1-0.4,0.1-0.6V82.6z M209.3,84.9c0.2,0,0.5,0,0.7,0.1c0.2,0.1,0.4,0.2,0.5,0.4
				c0.1,0.2,0.2,0.4,0.3,0.6c0.1,0.2,0.1,0.4,0.1,0.7c0,0.3,0,0.6-0.1,0.9c-0.1,0.3-0.2,0.6-0.4,0.8c-0.2,0.3-0.5,0.5-0.8,0.7
				c-0.3,0.2-0.8,0.3-1.2,0.4l-0.3-0.8l0.2-0.1c0.3-0.1,0.5-0.2,0.7-0.3c0.2-0.1,0.3-0.2,0.4-0.3c0.1-0.1,0.2-0.2,0.2-0.3
				c0.1-0.1,0.1-0.2,0.1-0.3c-0.1,0.1-0.1,0.1-0.2,0.1c-0.1,0-0.2,0-0.3,0c-0.2,0-0.3,0-0.5-0.1c-0.1-0.1-0.3-0.1-0.4-0.2
				c-0.1-0.1-0.2-0.2-0.3-0.4c-0.1-0.2-0.1-0.3-0.1-0.5c0-0.2,0-0.4,0.1-0.5c0.1-0.2,0.2-0.3,0.3-0.4c0.1-0.1,0.3-0.2,0.5-0.3
				C208.9,84.9,209.1,84.9,209.3,84.9z M218.2,85.1c0,0.1,0,0.2,0,0.3c0,0.1,0.1,0.2,0.1,0.2c0.1,0.1,0.2,0.1,0.3,0.1
				c0.1,0,0.3,0.1,0.5,0.1c0.1,0,0.2,0,0.3,0c0.1,0,0.2,0,0.3,0c0.1,0,0.2,0,0.3,0c0.1,0,0.2,0,0.2,0l0.2,1.9c-0.2,0-0.4,0-0.6,0.1
				c-0.2,0-0.4,0-0.6,0c-0.2,0-0.5,0-0.7,0c-0.7,0-1.3-0.2-1.7-0.5c-0.4-0.3-0.6-0.9-0.6-1.6v-4.5h-1.5v-1.9h1.5v-2.4l2.2-0.6v2.9
				h2.2v1.9h-2.2V85.1z M226.5,81.3h-0.2c-0.3,0-0.6,0-0.9,0.1c-0.3,0.1-0.5,0.2-0.7,0.3c-0.2,0.2-0.4,0.4-0.5,0.7
				c-0.1,0.3-0.2,0.7-0.2,1.1v4.1h-2.2v-8.4h2.2v0.9c0.1-0.1,0.2-0.3,0.3-0.4c0.1-0.1,0.3-0.2,0.5-0.3c0.2-0.1,0.4-0.2,0.6-0.2
				c0.2-0.1,0.5-0.1,0.8-0.1h0.3V81.3z M230.5,84.2c-0.3,0-0.5,0.1-0.6,0.3c-0.2,0.1-0.2,0.3-0.2,0.6c0,0.3,0.1,0.5,0.3,0.7
				c0.2,0.2,0.5,0.3,0.9,0.3c0.4,0,0.7-0.1,1-0.4c0.2-0.2,0.4-0.5,0.4-0.9v-0.8L230.5,84.2z M232.5,86.8c-0.1,0.1-0.2,0.2-0.3,0.3
				c-0.1,0.1-0.3,0.2-0.5,0.3c-0.2,0.1-0.4,0.2-0.6,0.2c-0.2,0.1-0.5,0.1-0.8,0.1c-0.4,0-0.8-0.1-1.2-0.2c-0.3-0.1-0.7-0.3-0.9-0.6
				c-0.3-0.2-0.5-0.5-0.6-0.8c-0.2-0.3-0.2-0.7-0.2-1c0-0.7,0.2-1.2,0.6-1.6c0.4-0.4,1-0.7,1.7-0.8l2.4-0.4v-0.2
				c0-0.4-0.1-0.7-0.3-0.9c-0.2-0.2-0.6-0.3-1.1-0.3c-0.2,0-0.4,0-0.6,0.1c-0.2,0-0.4,0.1-0.6,0.2c-0.2,0.1-0.4,0.1-0.6,0.2
				c-0.2,0.1-0.3,0.1-0.5,0.2l-0.8-1.6c0.5-0.3,1-0.5,1.6-0.7c0.6-0.2,1.2-0.3,1.8-0.3c0.4,0,0.8,0,1.2,0.1c0.4,0.1,0.8,0.2,1.1,0.4
				c0.3,0.2,0.6,0.5,0.8,0.9c0.2,0.4,0.3,0.8,0.3,1.4v3.4c0,0.2,0.1,0.4,0.2,0.5c0.1,0.1,0.3,0.2,0.5,0.3l-1,1.5
				c-0.4,0-0.7-0.1-1-0.3C232.8,87.2,232.6,87,232.5,86.8z M236.1,79.2h2.2v0.7c0.1-0.1,0.2-0.2,0.4-0.3c0.1-0.1,0.3-0.2,0.5-0.3
				c0.2-0.1,0.4-0.1,0.6-0.2c0.2-0.1,0.4-0.1,0.7-0.1c0.5,0,0.9,0.1,1.2,0.2c0.4,0.1,0.7,0.3,0.9,0.6c0.2,0.3,0.4,0.6,0.6,0.9
				c0.1,0.3,0.2,0.7,0.2,1.1v5.6h-2.2v-4.9c0-0.3,0-0.5-0.1-0.8c-0.1-0.2-0.2-0.4-0.3-0.5c-0.1-0.1-0.3-0.2-0.4-0.3
				c-0.2-0.1-0.3-0.1-0.5-0.1c-0.2,0-0.4,0-0.6,0.1c-0.2,0.1-0.4,0.2-0.5,0.4c-0.1,0.2-0.2,0.4-0.3,0.6c-0.1,0.2-0.1,0.5-0.1,0.8
				v4.6h-2.2V79.2z M245.7,84.9c0.3,0.3,0.7,0.5,1.1,0.7c0.4,0.2,0.9,0.3,1.3,0.3c0.3,0,0.6-0.1,0.8-0.2c0.2-0.1,0.3-0.3,0.3-0.5
				c0-0.3-0.4-0.6-1.1-0.8l-0.6-0.2c-0.3-0.1-0.6-0.2-0.9-0.3c-0.3-0.1-0.6-0.3-0.9-0.5c-0.3-0.2-0.5-0.5-0.6-0.8
				c-0.2-0.3-0.2-0.7-0.2-1.1c0-0.3,0.1-0.7,0.2-1c0.2-0.3,0.4-0.6,0.7-0.8c0.3-0.2,0.6-0.4,1-0.6c0.4-0.1,0.9-0.2,1.4-0.2
				c0.7,0,1.3,0.1,1.9,0.3c0.6,0.2,1,0.5,1.3,0.8l-1.1,1.4c-0.3-0.2-0.6-0.4-0.9-0.5c-0.4-0.1-0.7-0.2-1.1-0.2
				c-0.3,0-0.6,0.1-0.8,0.2c-0.2,0.1-0.3,0.3-0.3,0.4c0,0.2,0.1,0.3,0.2,0.4c0.2,0.1,0.4,0.2,0.7,0.3l0.9,0.3c0.9,0.2,1.5,0.6,1.9,1
				c0.4,0.4,0.6,0.9,0.6,1.6c0,0.4-0.1,0.7-0.2,1c-0.1,0.3-0.4,0.6-0.6,0.9c-0.3,0.2-0.6,0.4-1,0.6c-0.4,0.1-0.9,0.2-1.4,0.2
				c-0.4,0-0.8,0-1.1-0.1c-0.4-0.1-0.7-0.2-1-0.3c-0.3-0.1-0.6-0.3-0.8-0.4c-0.2-0.2-0.5-0.3-0.6-0.5L245.7,84.9z M255.7,79.2h1.6
				v1.9h-1.6v6.5h-2.2v-6.5h-1.3v-1.9h1.3v-1c0-0.4,0.1-0.7,0.2-0.9c0.1-0.3,0.3-0.5,0.5-0.7c0.2-0.2,0.5-0.3,0.8-0.4
				c0.3-0.1,0.7-0.1,1-0.1c0.2,0,0.4,0,0.5,0s0.3,0,0.5,0c0.2,0,0.3,0,0.4,0c0.1,0,0.2,0,0.3,0l-0.2,1.8c-0.1,0-0.1,0-0.2,0
				c-0.1,0-0.2,0-0.3,0c-0.1,0-0.2,0-0.3,0c-0.1,0-0.2,0-0.2,0c-0.3,0-0.5,0.1-0.7,0.2c-0.1,0.1-0.2,0.3-0.2,0.4V79.2z M260.3,84.1
				c0,0.2,0.1,0.5,0.2,0.7c0.1,0.2,0.3,0.4,0.5,0.5c0.2,0.1,0.4,0.3,0.6,0.3c0.2,0.1,0.5,0.1,0.8,0.1c0.3,0,0.7-0.1,1-0.2
				c0.4-0.1,0.7-0.3,1-0.5l1,1.5c-0.4,0.3-0.9,0.6-1.4,0.8c-0.6,0.2-1.2,0.3-1.8,0.3c-0.6,0-1.1-0.1-1.6-0.3c-0.5-0.2-1-0.5-1.3-0.9
				c-0.4-0.4-0.7-0.8-0.9-1.4c-0.2-0.5-0.3-1.1-0.3-1.8c0-0.6,0.1-1.2,0.3-1.7c0.2-0.5,0.5-1,0.8-1.4c0.4-0.4,0.8-0.7,1.3-0.9
				c0.5-0.2,1-0.3,1.6-0.3c0.6,0,1.1,0.1,1.5,0.3c0.5,0.2,0.9,0.5,1.2,0.8c0.3,0.4,0.6,0.8,0.8,1.3c0.2,0.5,0.3,1.1,0.3,1.7v1H260.3
				z M262.1,80.9c-0.5,0-0.9,0.2-1.2,0.5c-0.3,0.3-0.5,0.7-0.6,1.1h3.4c0-0.4-0.2-0.8-0.5-1.1C262.9,81,262.5,80.9,262.1,80.9z
				 M272,81.3h-0.2c-0.3,0-0.6,0-0.9,0.1c-0.3,0.1-0.5,0.2-0.7,0.3c-0.2,0.2-0.4,0.4-0.5,0.7c-0.1,0.3-0.2,0.7-0.2,1.1v4.1h-2.2
				v-8.4h2.2v0.9c0.1-0.1,0.2-0.3,0.3-0.4c0.1-0.1,0.3-0.2,0.5-0.3c0.2-0.1,0.4-0.2,0.6-0.2s0.5-0.1,0.8-0.1h0.3V81.3z M278.1,81.3
				h-0.2c-0.3,0-0.6,0-0.9,0.1c-0.3,0.1-0.5,0.2-0.7,0.3c-0.2,0.2-0.4,0.4-0.5,0.7c-0.1,0.3-0.2,0.7-0.2,1.1v4.1h-2.2v-8.4h2.2v0.9
				c0.1-0.1,0.2-0.3,0.3-0.4c0.1-0.1,0.3-0.2,0.5-0.3c0.2-0.1,0.4-0.2,0.6-0.2c0.2-0.1,0.5-0.1,0.8-0.1h0.3V81.3z M281.2,84.1
				c0,0.2,0.1,0.5,0.2,0.7c0.1,0.2,0.3,0.4,0.5,0.5c0.2,0.1,0.4,0.3,0.6,0.3c0.2,0.1,0.5,0.1,0.8,0.1c0.3,0,0.7-0.1,1-0.2
				c0.4-0.1,0.7-0.3,1-0.5l1,1.5c-0.4,0.3-0.9,0.6-1.4,0.8c-0.6,0.2-1.2,0.3-1.8,0.3c-0.6,0-1.1-0.1-1.6-0.3c-0.5-0.2-1-0.5-1.3-0.9
				c-0.4-0.4-0.7-0.8-0.9-1.4c-0.2-0.5-0.3-1.1-0.3-1.8c0-0.6,0.1-1.2,0.3-1.7c0.2-0.5,0.5-1,0.8-1.4c0.4-0.4,0.8-0.7,1.3-0.9
				c0.5-0.2,1-0.3,1.6-0.3c0.6,0,1.1,0.1,1.5,0.3c0.5,0.2,0.9,0.5,1.2,0.8c0.3,0.4,0.6,0.8,0.8,1.3c0.2,0.5,0.3,1.1,0.3,1.7v1H281.2
				z M283,80.9c-0.5,0-0.9,0.2-1.2,0.5c-0.3,0.3-0.5,0.7-0.6,1.1h3.4c0-0.4-0.2-0.8-0.5-1.1C283.8,81,283.4,80.9,283,80.9z
				 M293.6,87.5v-0.7c-0.1,0.1-0.2,0.2-0.4,0.4c-0.1,0.1-0.3,0.2-0.5,0.3c-0.2,0.1-0.4,0.1-0.6,0.2c-0.2,0-0.4,0.1-0.7,0.1
				c-0.6,0-1.1-0.1-1.5-0.3c-0.5-0.2-0.9-0.5-1.2-0.9s-0.6-0.8-0.8-1.4c-0.2-0.5-0.3-1.1-0.3-1.7c0-0.6,0.1-1.2,0.3-1.7
				c0.2-0.5,0.4-1,0.7-1.4c0.3-0.4,0.7-0.7,1.2-0.9c0.5-0.2,1-0.3,1.5-0.3c0.5,0,0.9,0.1,1.2,0.3c0.3,0.2,0.6,0.4,0.9,0.6v-3.6h2.2
				v11.2H293.6z M293.7,82.6c0-0.2,0-0.4-0.1-0.6c-0.1-0.2-0.2-0.4-0.3-0.5c-0.2-0.1-0.3-0.2-0.5-0.3c-0.2-0.1-0.4-0.1-0.7-0.1
				c-0.3,0-0.6,0.1-0.8,0.2c-0.2,0.1-0.4,0.3-0.6,0.5c-0.2,0.2-0.3,0.4-0.4,0.7c-0.1,0.3-0.1,0.6-0.1,0.9v0.1c0,0.3,0,0.6,0.1,0.9
				c0.1,0.3,0.2,0.5,0.4,0.7c0.2,0.2,0.4,0.4,0.6,0.5c0.2,0.1,0.5,0.2,0.8,0.2c0.3,0,0.5,0,0.7-0.1c0.2-0.1,0.4-0.2,0.5-0.3
				c0.2-0.1,0.3-0.3,0.3-0.5c0.1-0.2,0.1-0.4,0.1-0.6V82.6z M304.2,79c0.6,0,1.2,0.1,1.7,0.3c0.5,0.2,0.9,0.5,1.3,0.9
				c0.4,0.4,0.6,0.9,0.8,1.4c0.2,0.5,0.3,1.1,0.3,1.7c0,0.6-0.1,1.2-0.3,1.7c-0.2,0.5-0.5,1-0.8,1.4c-0.4,0.4-0.8,0.7-1.3,0.9
				c-0.5,0.2-1.1,0.3-1.7,0.3c-0.6,0-1.2-0.1-1.7-0.3c-0.5-0.2-0.9-0.5-1.3-0.9c-0.4-0.4-0.6-0.8-0.8-1.4c-0.2-0.5-0.3-1.1-0.3-1.7
				c0-0.6,0.1-1.2,0.3-1.7c0.2-0.5,0.5-1,0.8-1.4c0.4-0.4,0.8-0.7,1.3-0.9C303,79.1,303.6,79,304.2,79z M304.2,85.7
				c0.3,0,0.6-0.1,0.8-0.2c0.2-0.1,0.4-0.3,0.6-0.5c0.2-0.2,0.3-0.4,0.4-0.7c0.1-0.3,0.1-0.6,0.1-0.9v-0.1c0-0.3,0-0.6-0.1-0.9
				c-0.1-0.3-0.2-0.5-0.4-0.7c-0.2-0.2-0.4-0.4-0.6-0.5c-0.2-0.1-0.5-0.2-0.8-0.2c-0.3,0-0.6,0.1-0.8,0.2c-0.2,0.1-0.4,0.3-0.6,0.5
				c-0.2,0.2-0.3,0.4-0.4,0.7c-0.1,0.3-0.1,0.6-0.1,0.9v0.1c0,0.3,0,0.7,0.1,0.9c0.1,0.3,0.2,0.5,0.4,0.7c0.2,0.2,0.4,0.4,0.6,0.5
				C303.6,85.6,303.9,85.7,304.2,85.7z M314.5,81.3h-0.2c-0.3,0-0.6,0-0.9,0.1c-0.3,0.1-0.5,0.2-0.7,0.3c-0.2,0.2-0.4,0.4-0.5,0.7
				c-0.1,0.3-0.2,0.7-0.2,1.1v4.1h-2.2v-8.4h2.2v0.9c0.1-0.1,0.2-0.3,0.3-0.4c0.1-0.1,0.3-0.2,0.5-0.3c0.2-0.1,0.4-0.2,0.6-0.2
				c0.2-0.1,0.5-0.1,0.8-0.1h0.3V81.3z M326.3,83.4c0,0.6-0.1,1.2-0.3,1.7c-0.2,0.5-0.4,1-0.8,1.4s-0.7,0.7-1.2,0.9
				c-0.5,0.2-1,0.3-1.5,0.3c-0.2,0-0.5,0-0.7-0.1c-0.2,0-0.4-0.1-0.5-0.2c-0.2-0.1-0.3-0.2-0.5-0.3c-0.1-0.1-0.3-0.2-0.4-0.4v0.7
				h-2.2V76.3h2.2v3.6c0.2-0.2,0.5-0.5,0.9-0.6c0.3-0.2,0.8-0.3,1.2-0.3c0.6,0,1.1,0.1,1.5,0.3c0.5,0.2,0.8,0.5,1.2,0.9
				c0.3,0.4,0.6,0.8,0.8,1.4C326.2,82.2,326.3,82.8,326.3,83.4z M320.4,84.1c0,0.2,0,0.4,0.1,0.6c0.1,0.2,0.2,0.4,0.4,0.5
				c0.2,0.1,0.3,0.2,0.5,0.3c0.2,0.1,0.5,0.1,0.7,0.1c0.3,0,0.6-0.1,0.8-0.2c0.2-0.1,0.4-0.3,0.6-0.5c0.2-0.2,0.3-0.4,0.4-0.7
				c0.1-0.3,0.1-0.6,0.1-0.9v-0.1c0-0.3,0-0.6-0.1-0.9c-0.1-0.3-0.2-0.5-0.4-0.7c-0.2-0.2-0.4-0.4-0.6-0.5c-0.2-0.1-0.5-0.2-0.8-0.2
				c-0.3,0-0.5,0-0.7,0.1c-0.2,0.1-0.4,0.2-0.5,0.3c-0.2,0.1-0.3,0.3-0.4,0.5c-0.1,0.2-0.1,0.4-0.1,0.6V84.1z M331.4,79
				c0.6,0,1.2,0.1,1.7,0.3c0.5,0.2,0.9,0.5,1.3,0.9c0.4,0.4,0.6,0.9,0.8,1.4c0.2,0.5,0.3,1.1,0.3,1.7c0,0.6-0.1,1.2-0.3,1.7
				c-0.2,0.5-0.5,1-0.8,1.4c-0.4,0.4-0.8,0.7-1.3,0.9c-0.5,0.2-1.1,0.3-1.7,0.3c-0.6,0-1.2-0.1-1.7-0.3c-0.5-0.2-0.9-0.5-1.3-0.9
				c-0.4-0.4-0.6-0.8-0.8-1.4c-0.2-0.5-0.3-1.1-0.3-1.7c0-0.6,0.1-1.2,0.3-1.7c0.2-0.5,0.5-1,0.8-1.4c0.4-0.4,0.8-0.7,1.3-0.9
				C330.2,79.1,330.8,79,331.4,79z M331.4,85.7c0.3,0,0.6-0.1,0.8-0.2c0.2-0.1,0.4-0.3,0.6-0.5c0.2-0.2,0.3-0.4,0.4-0.7
				c0.1-0.3,0.1-0.6,0.1-0.9v-0.1c0-0.3,0-0.6-0.1-0.9c-0.1-0.3-0.2-0.5-0.4-0.7c-0.2-0.2-0.4-0.4-0.6-0.5c-0.2-0.1-0.5-0.2-0.8-0.2
				s-0.6,0.1-0.8,0.2c-0.2,0.1-0.4,0.3-0.6,0.5c-0.2,0.2-0.3,0.4-0.4,0.7c-0.1,0.3-0.1,0.6-0.1,0.9v0.1c0,0.3,0,0.7,0.1,0.9
				c0.1,0.3,0.2,0.5,0.4,0.7c0.2,0.2,0.4,0.4,0.6,0.5C330.8,85.6,331.1,85.7,331.4,85.7z M344.1,87.5h-2.2v-0.7
				c-0.1,0.1-0.2,0.2-0.4,0.3c-0.1,0.1-0.3,0.2-0.5,0.3c-0.2,0.1-0.4,0.1-0.6,0.2c-0.2,0-0.4,0.1-0.7,0.1c-0.5,0-0.9-0.1-1.2-0.2
				c-0.4-0.2-0.7-0.4-0.9-0.6c-0.2-0.3-0.4-0.6-0.6-0.9c-0.1-0.3-0.2-0.7-0.2-1.1v-5.6h2.2V84c0,0.3,0,0.5,0.1,0.8
				c0.1,0.2,0.2,0.4,0.3,0.5c0.1,0.1,0.3,0.2,0.4,0.3c0.2,0.1,0.3,0.1,0.5,0.1c0.2,0,0.4,0,0.6-0.1c0.2-0.1,0.4-0.2,0.5-0.4
				c0.1-0.2,0.2-0.4,0.3-0.6s0.1-0.5,0.1-0.8v-4.6h2.2V87.5z M351,86.1c-0.2,0.2-0.5,0.4-0.8,0.6c-0.3,0.1-0.7,0.2-1.1,0.2
				c-0.6,0-1.1-0.1-1.5-0.3c-0.4-0.2-0.8-0.5-1.1-0.8c-0.3-0.3-0.5-0.8-0.7-1.2c-0.2-0.5-0.2-1-0.2-1.6c0-0.6,0.1-1.1,0.2-1.5
				c0.2-0.5,0.4-0.9,0.7-1.2c0.3-0.3,0.7-0.6,1.1-0.8c0.4-0.2,0.9-0.3,1.5-0.3c0.4,0,0.8,0.1,1.1,0.2c0.3,0.1,0.6,0.3,0.8,0.6v-0.6
				h2.2v8.3c0,0.5-0.1,0.9-0.3,1.3c-0.2,0.4-0.5,0.7-0.8,0.9c-0.3,0.2-0.7,0.4-1.2,0.5c-0.4,0.1-0.9,0.2-1.4,0.2
				c-0.6,0-1.2-0.1-1.9-0.2c-0.7-0.1-1.2-0.3-1.7-0.5l0.6-1.7c0.1,0.1,0.3,0.1,0.5,0.2c0.2,0.1,0.4,0.1,0.7,0.2
				c0.2,0.1,0.5,0.1,0.8,0.1c0.3,0,0.5,0.1,0.8,0.1c0.2,0,0.4,0,0.6-0.1c0.2,0,0.4-0.1,0.5-0.2c0.2-0.1,0.3-0.2,0.4-0.4
				c0.1-0.2,0.1-0.4,0.1-0.6V86.1z M347.8,83c0,0.3,0,0.5,0.1,0.8c0.1,0.2,0.2,0.4,0.3,0.6c0.1,0.2,0.3,0.3,0.5,0.4
				c0.2,0.1,0.5,0.1,0.8,0.1c0.6,0,1-0.2,1.3-0.6c0.2-0.4,0.4-0.8,0.4-1.4v-0.1c0-0.3,0-0.5-0.1-0.8c-0.1-0.2-0.2-0.4-0.3-0.6
				c-0.1-0.2-0.3-0.3-0.5-0.4c-0.2-0.1-0.5-0.1-0.8-0.1c-0.6,0-1,0.2-1.3,0.6C347.9,81.9,347.8,82.3,347.8,83L347.8,83z M355.1,76.3
				h2.2v3.6c0.1-0.1,0.2-0.2,0.4-0.3c0.1-0.1,0.3-0.2,0.5-0.3c0.2-0.1,0.4-0.1,0.6-0.2c0.2-0.1,0.4-0.1,0.7-0.1
				c0.5,0,0.9,0.1,1.2,0.2c0.4,0.1,0.7,0.3,0.9,0.6c0.2,0.3,0.4,0.6,0.6,0.9c0.1,0.3,0.2,0.7,0.2,1.1v5.6h-2.2v-4.9
				c0-0.3,0-0.5-0.1-0.8c-0.1-0.2-0.2-0.4-0.3-0.5c-0.1-0.1-0.3-0.2-0.4-0.3c-0.2-0.1-0.3-0.1-0.5-0.1c-0.2,0-0.4,0-0.6,0.1
				c-0.2,0.1-0.4,0.2-0.5,0.4c-0.1,0.2-0.2,0.4-0.3,0.6s-0.1,0.5-0.1,0.8v4.6h-2.2V76.3z M367.1,85.1c0,0.1,0,0.2,0,0.3
				c0,0.1,0.1,0.2,0.1,0.2c0.1,0.1,0.2,0.1,0.3,0.1c0.1,0,0.3,0.1,0.5,0.1c0.1,0,0.2,0,0.3,0c0.1,0,0.2,0,0.3,0c0.1,0,0.2,0,0.3,0
				c0.1,0,0.2,0,0.2,0l0.2,1.9c-0.2,0-0.4,0-0.6,0.1c-0.2,0-0.4,0-0.6,0c-0.2,0-0.5,0-0.7,0c-0.7,0-1.3-0.2-1.7-0.5
				c-0.4-0.3-0.6-0.9-0.6-1.6v-4.5h-1.5v-1.9h1.5v-2.4l2.2-0.6v2.9h2.2v1.9h-2.2V85.1z M58.6,104.2c-0.3,0-0.5,0.1-0.6,0.3
				c-0.2,0.1-0.2,0.3-0.2,0.6c0,0.3,0.1,0.5,0.3,0.7c0.2,0.2,0.5,0.3,0.9,0.3c0.4,0,0.7-0.1,1-0.4c0.2-0.2,0.4-0.5,0.4-0.9v-0.8
				L58.6,104.2z M60.6,106.8c-0.1,0.1-0.2,0.2-0.3,0.3c-0.1,0.1-0.3,0.2-0.5,0.3c-0.2,0.1-0.4,0.2-0.6,0.2c-0.2,0.1-0.5,0.1-0.8,0.1
				c-0.4,0-0.8-0.1-1.2-0.2c-0.3-0.1-0.7-0.3-0.9-0.6c-0.3-0.2-0.5-0.5-0.6-0.8c-0.2-0.3-0.2-0.7-0.2-1c0-0.7,0.2-1.2,0.6-1.6
				c0.4-0.4,1-0.7,1.7-0.8l2.4-0.4v-0.2c0-0.4-0.1-0.7-0.3-0.9c-0.2-0.2-0.6-0.3-1.1-0.3c-0.2,0-0.4,0-0.6,0.1
				c-0.2,0-0.4,0.1-0.6,0.2c-0.2,0.1-0.4,0.1-0.6,0.2c-0.2,0.1-0.3,0.1-0.5,0.2l-0.8-1.6c0.5-0.3,1-0.5,1.6-0.7
				c0.6-0.2,1.2-0.3,1.8-0.3c0.4,0,0.8,0,1.2,0.1c0.4,0.1,0.8,0.2,1.1,0.4c0.3,0.2,0.6,0.5,0.8,0.9c0.2,0.4,0.3,0.8,0.3,1.4v3.4
				c0,0.2,0.1,0.4,0.2,0.5c0.1,0.1,0.3,0.2,0.5,0.3l-1,1.5c-0.4,0-0.7-0.1-1-0.3C60.9,107.2,60.7,107,60.6,106.8z M68.5,107.6
				l-2.6-8.4h2.4l1.5,5.8l1.5-5.8h2.4l-2.5,8.4H68.5z M76.6,104.1c0,0.2,0.1,0.5,0.2,0.7c0.1,0.2,0.3,0.4,0.5,0.5
				c0.2,0.1,0.4,0.3,0.6,0.3c0.2,0.1,0.5,0.1,0.8,0.1c0.3,0,0.7-0.1,1-0.2c0.4-0.1,0.7-0.3,1-0.5l1,1.5c-0.4,0.3-0.9,0.6-1.4,0.8
				c-0.6,0.2-1.2,0.3-1.8,0.3c-0.6,0-1.1-0.1-1.6-0.3c-0.5-0.2-1-0.5-1.3-0.9c-0.4-0.4-0.7-0.8-0.9-1.4c-0.2-0.5-0.3-1.1-0.3-1.8
				c0-0.6,0.1-1.2,0.3-1.7c0.2-0.5,0.5-1,0.8-1.4c0.4-0.4,0.8-0.7,1.3-0.9c0.5-0.2,1-0.3,1.6-0.3c0.6,0,1.1,0.1,1.5,0.3
				c0.5,0.2,0.9,0.5,1.2,0.8c0.3,0.4,0.6,0.8,0.8,1.3c0.2,0.5,0.3,1.1,0.3,1.7v1H76.6z M78.4,100.9c-0.5,0-0.9,0.2-1.2,0.5
				c-0.3,0.3-0.5,0.7-0.6,1.1H80c0-0.4-0.2-0.8-0.5-1.1C79.2,101,78.8,100.9,78.4,100.9z M83.6,96.3h2.2v3.6
				c0.1-0.1,0.2-0.2,0.4-0.3c0.1-0.1,0.3-0.2,0.5-0.3c0.2-0.1,0.4-0.1,0.6-0.2c0.2-0.1,0.4-0.1,0.7-0.1c0.5,0,0.9,0.1,1.2,0.2
				c0.4,0.1,0.7,0.3,0.9,0.6c0.2,0.3,0.4,0.6,0.6,0.9c0.1,0.3,0.2,0.7,0.2,1.1v5.6h-2.2v-4.9c0-0.3,0-0.5-0.1-0.8
				c-0.1-0.2-0.2-0.4-0.3-0.5c-0.1-0.1-0.3-0.2-0.4-0.3c-0.2-0.1-0.3-0.1-0.5-0.1c-0.2,0-0.4,0-0.6,0.1c-0.2,0.1-0.4,0.2-0.5,0.4
				c-0.1,0.2-0.2,0.4-0.3,0.6c-0.1,0.2-0.1,0.5-0.1,0.8v4.6h-2.2V96.3z M94.8,107.6h-2.2v-8.4h2.2V107.6z M92.4,97
				c0-0.2,0-0.3,0.1-0.5c0.1-0.2,0.2-0.3,0.3-0.4c0.1-0.1,0.3-0.2,0.4-0.3c0.2-0.1,0.3-0.1,0.5-0.1c0.2,0,0.3,0,0.5,0.1
				c0.2,0.1,0.3,0.2,0.4,0.3c0.1,0.1,0.2,0.3,0.3,0.4C95,96.6,95,96.8,95,97c0,0.2,0,0.4-0.1,0.5c-0.1,0.2-0.2,0.3-0.3,0.4
				c-0.1,0.1-0.3,0.2-0.4,0.3c-0.2,0.1-0.3,0.1-0.5,0.1c-0.2,0-0.4,0-0.5-0.1c-0.2-0.1-0.3-0.2-0.4-0.3c-0.1-0.1-0.2-0.3-0.3-0.4
				C92.4,97.3,92.4,97.2,92.4,97z M98.4,103.4c0,0.3,0,0.5,0.1,0.8c0.1,0.3,0.2,0.5,0.3,0.7c0.2,0.2,0.3,0.4,0.6,0.5
				c0.2,0.1,0.5,0.2,0.9,0.2c0.2,0,0.4,0,0.6-0.1c0.2-0.1,0.3-0.1,0.5-0.2c0.1-0.1,0.3-0.2,0.4-0.4c0.1-0.1,0.2-0.3,0.3-0.5l1.9,1
				c-0.1,0.3-0.3,0.6-0.6,0.9c-0.2,0.3-0.5,0.5-0.8,0.7c-0.3,0.2-0.7,0.3-1,0.4c-0.4,0.1-0.8,0.2-1.2,0.2c-0.6,0-1.1-0.1-1.6-0.3
				c-0.5-0.2-0.9-0.5-1.3-0.9c-0.4-0.4-0.6-0.8-0.8-1.4c-0.2-0.5-0.3-1.1-0.3-1.7c0-0.6,0.1-1.2,0.3-1.7c0.2-0.5,0.5-1,0.8-1.4
				c0.4-0.4,0.8-0.7,1.3-0.9c0.5-0.2,1-0.3,1.6-0.3c0.4,0,0.8,0.1,1.2,0.2c0.4,0.1,0.7,0.2,1,0.4c0.3,0.2,0.6,0.4,0.8,0.7
				c0.2,0.3,0.4,0.6,0.6,0.9l-1.9,1c-0.1-0.2-0.2-0.3-0.3-0.4c-0.1-0.1-0.2-0.3-0.4-0.4c-0.1-0.1-0.3-0.2-0.5-0.2
				c-0.2-0.1-0.4-0.1-0.6-0.1c-0.3,0-0.6,0.1-0.9,0.2c-0.2,0.1-0.4,0.3-0.6,0.5c-0.2,0.2-0.3,0.5-0.3,0.7
				C98.5,102.8,98.4,103.1,98.4,103.4L98.4,103.4z M105.2,96.3h2.2v8.9c0,0.2,0,0.3,0.1,0.4c0.1,0.1,0.3,0.1,0.5,0.1
				c0.1,0,0.2,0,0.3,0c0.1,0,0.2,0,0.3-0.1l0.2,1.8c-0.1,0-0.3,0-0.5,0.1c-0.1,0-0.3,0-0.5,0c-0.2,0-0.4,0-0.6,0
				c-0.3,0-0.6,0-0.8-0.1c-0.2-0.1-0.5-0.2-0.6-0.3c-0.2-0.2-0.3-0.3-0.4-0.6c-0.1-0.2-0.1-0.5-0.1-0.8V96.3z M111.7,104.1
				c0,0.2,0.1,0.5,0.2,0.7c0.1,0.2,0.3,0.4,0.5,0.5c0.2,0.1,0.4,0.3,0.6,0.3c0.2,0.1,0.5,0.1,0.8,0.1c0.3,0,0.7-0.1,1-0.2
				c0.4-0.1,0.7-0.3,1-0.5l1,1.5c-0.4,0.3-0.9,0.6-1.4,0.8c-0.6,0.2-1.2,0.3-1.8,0.3c-0.6,0-1.1-0.1-1.6-0.3c-0.5-0.2-1-0.5-1.3-0.9
				c-0.4-0.4-0.7-0.8-0.9-1.4c-0.2-0.5-0.3-1.1-0.3-1.8c0-0.6,0.1-1.2,0.3-1.7c0.2-0.5,0.5-1,0.8-1.4c0.4-0.4,0.8-0.7,1.3-0.9
				c0.5-0.2,1-0.3,1.6-0.3c0.6,0,1.1,0.1,1.5,0.3c0.5,0.2,0.9,0.5,1.2,0.8c0.3,0.4,0.6,0.8,0.8,1.3c0.2,0.5,0.3,1.1,0.3,1.7v1H111.7
				z M113.5,100.9c-0.5,0-0.9,0.2-1.2,0.5c-0.3,0.3-0.5,0.7-0.6,1.1h3.4c0-0.4-0.2-0.8-0.5-1.1C114.3,101,113.9,100.9,113.5,100.9z"
				/>
		</g>
	</g>
	<rect x="30.5" y="18.5" class="st9" width="374" height="666"/>
</g>
<path class="st10" d="M78.8,38.6c-1,0.4-2-0.1-2.4-1c-0.4-0.9,0.1-2,1-2.4c0.9-0.4,2,0.1,2.4,1C80.2,37.1,79.7,38.2,78.8,38.6
	 M72.9,45.3c-0.9,0.4-2-0.1-2.4-1c-0.4-0.9,0.1-2,1-2.4c0.9-0.4,2,0.1,2.4,1C74.3,43.8,73.8,44.9,72.9,45.3 M83.7,41.6
	c-1,0.4-2-0.1-2.4-1c-0.4-0.9,0.1-2,1-2.4c0.9-0.4,2,0.1,2.4,1C85.1,40.1,84.7,41.2,83.7,41.6 M87,46.4c-1,0.4-2-0.1-2.4-1
	c-0.4-0.9,0.1-2,1-2.4c0.9-0.4,2,0.1,2.4,1C88.4,44.9,87.9,46,87,46.4 M73.2,32.9l2.3,1.2v-3.4l-2.3,0.7L73,31.2l0.9-3h-3.4l0.9,3
	l-0.2,0.2c-0.1,0.1-2.3-0.7-2.3-0.7v3.4l2.3-1.2c0.1,0.1,0.1,0.2,0.2,0.2l-1.3,4C70,37.3,70,37.5,70,37.7c0,1.1,0.8,2,1.9,2.2h0.7
	c1-0.2,1.9-1.1,1.9-2.1c0-0.2,0-0.4-0.1-0.6l-1.3-4C73,33,73.1,33,73.2,32.9 M65.6,38.6c0.9,0.4,2-0.1,2.4-1c0.4-0.9-0.1-2-1-2.4
	c-0.9-0.4-2,0.1-2.4,1S64.6,38.2,65.6,38.6 M60.6,41.6c0.9,0.4,2-0.1,2.4-1c0.4-0.9-0.1-2-1-2.4c-0.9-0.4-2,0.1-2.4,1
	C59.2,40.1,59.7,41.2,60.6,41.6 M57.4,46.4c0.9,0.4,2-0.1,2.4-1c0.4-0.9-0.1-2-1-2.4c-0.9-0.4-2,0.1-2.4,1
	C56,44.9,56.4,46,57.4,46.4 M72.2,57.4c4.4,0,8.6,0.3,12.3,0.8c1.1-4.5,2.4-7,3.7-8.8l-2.5-0.9c0.2,1.3,0.3,1.9,0,2.7
	c-0.4-0.4-0.8-1.1-1.1-2.3l-1.2,4c0.7-0.5,1.3-0.8,2-0.9c-1.1,2.5-2.6,3.1-3.5,3c-1.1-0.2-1.7-1.2-1.5-2.1c0.3-1.2,1.5-1.5,2.1-0.1
	c1.1-2.3-0.8-3-2-2.3c1.9-1.9,2.1-3.5,0.6-5.6c-2.1,1.6-2.1,3.2-1.2,5.5c-1.2-1.4-3.2-0.6-2.5,1.6c0.9-1.4,2.1-0.5,1.9,0.8
	c-0.2,1.1-1.7,2.1-3.5,1.9c-2.7-0.2-2.9-2.1-2.9-3.6c0.7-0.1,1.9,0.5,2.9,1.9l0.4-4.3c-1.1,1.1-2.1,1.4-3.2,1.4c0.4-1.2,2.1-3,2.1-3
	h-5.4c0,0,1.7,1.9,2.1,3c-1.1,0-2.1-0.2-3.2-1.4L69,53c1-1.4,2.2-2,2.9-1.9c-0.1,1.5-0.2,3.4-2.9,3.6c-1.9,0.2-3.4-0.8-3.5-1.9
	c-0.2-1.3,1-2.2,1.9-0.8c0.7-2.3-1.2-3-2.5-1.6c0.9-2.2,0.9-3.9-1.2-5.5c-1.5,2-1.3,3.7,0.6,5.6c-1.2-0.7-3.1,0-2,2.3
	c0.6-1.4,1.8-1.1,2.1,0.1c0.2,0.9-0.3,1.9-1.5,2.1c-0.9,0.2-2.4-0.5-3.5-3c0.6,0,1.2,0.3,2,0.9l-1.2-4c-0.3,1.1-0.7,1.9-1.1,2.3
	c-0.3-0.8-0.2-1.4,0-2.7l-2.9,0.9c1.3,1.8,2.6,4.3,3.7,8.8C63.6,57.7,67.8,57.4,72.2,57.4"/>
</svg>
