<?xml version="1.0" encoding="UTF-8"?>
<svg id="Layer_2" data-name="Layer 2" xmlns="http://www.w3.org/2000/svg" xmlns:xlink="http://www.w3.org/1999/xlink" width="930" height="600" viewBox="0 0 930 600">
  <defs>
    <style>
      .cls-1 {
        clip-path: url(#clippath);
      }

      .cls-2, .cls-3, .cls-4, .cls-5, .cls-6 {
        fill: none;
      }

      .cls-2, .cls-7, .cls-8, .cls-9, .cls-10, .cls-11, .cls-12, .cls-13, .cls-14, .cls-15, .cls-16, .cls-17, .cls-18, .cls-19, .cls-20, .cls-21, .cls-22 {
        stroke-width: 0px;
      }

      .cls-3 {
        stroke-width: .97px;
      }

      .cls-3, .cls-4, .cls-6 {
        stroke: #1e1e1e;
      }

      .cls-4 {
        stroke-width: 10px;
      }

      .cls-4, .cls-5 {
        stroke-miterlimit: 10;
      }

      .cls-5 {
        stroke: #e6e6e6;
        stroke-width: 1.13px;
      }

      .cls-7 {
        fill-rule: evenodd;
      }

      .cls-7, .cls-20 {
        fill: #fff;
      }

      .cls-6 {
        stroke-width: 1.05px;
      }

      .cls-9 {
        fill: #505a5f;
      }

      .cls-10 {
        fill: #568ec4;
      }

      .cls-11 {
        fill: #1a345c;
      }

      .cls-12 {
        fill: #0b0c0c;
      }

      .cls-13 {
        fill: #1d70b8;
      }

      .cls-14 {
        fill: #1e70b2;
      }

      .cls-15 {
        fill: #1e1e1e;
      }

      .cls-16 {
        fill: #c5c5c5;
      }

      .cls-17 {
        fill: #dbd5e9;
      }

      .cls-18 {
        fill: #ababab;
      }

      .cls-19 {
        fill: #ececec;
      }

      .cls-21 {
        fill: #e6e6e6;
      }

      .cls-22 {
        fill: #00703c;
      }
    </style>
    <clipPath id="clippath">
      <rect class="cls-2" x="437.73" y="82.86" width="84.79" height="161.26" rx="4.41" ry="4.41"/>
    </clipPath>
  </defs>
  <g id="Layer_1-2" data-name="Layer 1">
    <rect class="cls-17" width="960" height="600"/>
    <g>
      <polyline class="cls-4" points="416.62 167.7 237.15 167.7 237.15 272.44"/>
      <polygon class="cls-15" points="396.7 150.75 413.66 167.7 396.7 184.66 411.09 184.66 428.05 167.7 411.09 150.75 396.7 150.75"/>
    </g>
    <g>
      <polyline class="cls-4" points="533.15 167.7 724.05 167.7 724.05 261.01"/>
      <polygon class="cls-15" points="707.09 241.09 724.05 258.05 741 241.09 741 255.48 724.05 272.44 707.09 255.48 707.09 241.09"/>
    </g>
    <g>
      <g>
        <circle class="cls-22" cx="628.57" cy="167.55" r="42"/>
        <path class="cls-17" d="m628.57,127.55c22.09,0,40,17.91,40,40s-17.91,40-40,40-40-17.91-40-40,17.91-40,40-40m0-4c-24.26,0-44,19.74-44,44s19.74,44,44,44,44-19.74,44-44-19.74-44-44-44h0Z"/>
      </g>
      <path class="cls-7" d="m654.25,155.79l-33.88,33.88-17.99-17.98,7.25-7.25,10.73,10.73,26.63-26.63,7.25,7.25Z"/>
    </g>
    <g>
      <g>
        <rect class="cls-15" x="437.73" y="82.86" width="84.79" height="161.26" rx="4.41" ry="4.41"/>
        <rect class="cls-3" x="437.73" y="82.86" width="84.79" height="161.26" rx="4.41" ry="4.41"/>
        <path class="cls-21" d="m518.11,82.86c2.44,0,4.41,1.97,4.41,4.41v152.45c0,2.44-1.97,4.41-4.41,4.41h-75.97c-2.44,0-4.41-1.97-4.41-4.41V87.27c0-2.44,1.97-4.41,4.41-4.41h75.97m0-.97h-75.97c-2.97,0-5.38,2.42-5.38,5.38v152.45c0,2.97,2.42,5.38,5.38,5.38h75.97c2.97,0,5.38-2.42,5.38-5.38V87.27c0-2.97-2.42-5.38-5.38-5.38h0Z"/>
      </g>
      <g class="cls-1">
        <rect class="cls-20" x="435.46" y="98.89" width="89.67" height="129.23"/>
        <rect class="cls-14" x="435.46" y="97.9" width="89.67" height="5.33"/>
        <path class="cls-15" d="m509.11,130.37h-37.42c-1.47-4.95-6.05-8.56-11.47-8.56-6.59,0-11.96,5.36-11.96,11.96s5.36,11.96,11.96,11.96c5.51,0,10.17-3.75,11.54-8.83h20.63v4.51c0,1.8,1.46,3.26,3.26,3.26s3.26-1.46,3.26-3.26v-4.51h.84v7.5c0,1.8,1.46,3.26,3.26,3.26s3.26-1.46,3.26-3.26v-7.5h2.82c1.8,0,3.26-1.46,3.26-3.26s-1.46-3.26-3.26-3.26Zm-48.89,8.83c-2.99,0-5.44-2.44-5.44-5.44s2.44-5.44,5.44-5.44,5.44,2.44,5.44,5.44-2.44,5.44-5.44,5.44Z"/>
        <path class="cls-8" d="m518.11,84.86c1.33,0,2.41,1.08,2.41,2.41v152.45c0,1.33-1.08,2.41-2.41,2.41h-75.97c-1.33,0-2.41-1.08-2.41-2.41V87.27c0-1.33,1.08-2.41,2.41-2.41h75.97m0-2h-75.97c-2.44,0-4.41,1.97-4.41,4.41v152.45c0,2.44,1.97,4.41,4.41,4.41h75.97c2.44,0,4.41-1.97,4.41-4.41V87.27c0-2.44-1.97-4.41-4.41-4.41h0Z"/>
        <path class="cls-15" d="m588.19,324.2h-104.86c-4.11-13.86-16.95-23.99-32.13-23.99-18.48,0-33.51,15.03-33.51,33.51s15.03,33.51,33.51,33.51c15.45,0,28.49-10.51,32.35-24.75h57.82v12.65c0,5.04,4.09,9.14,9.14,9.14s9.14-4.1,9.14-9.14v-12.65h2.36v21.03c0,5.04,4.1,9.14,9.14,9.14s9.14-4.1,9.14-9.14v-21.03h7.91c5.04,0,9.14-4.1,9.14-9.14s-4.1-9.14-9.14-9.14Zm-137,24.75c-8.39,0-15.23-6.84-15.23-15.23s6.84-15.23,15.23-15.23,15.23,6.83,15.23,15.23-6.83,15.23-15.23,15.23Z"/>
        <g>
          <path class="cls-8" d="m453.3,166.31c.49.55,1.02.94,1.58,1.19s1.16.37,1.78.37c.43,0,.81-.05,1.14-.16s.62-.25.85-.44.4-.4.52-.64.18-.49.18-.76c0-.38-.08-.68-.23-.91s-.36-.42-.62-.56-.55-.25-.89-.34-.69-.16-1.05-.23l-.16-.03c-.25-.05-.5-.1-.76-.15s-.52-.12-.78-.21-.5-.19-.74-.31-.45-.27-.63-.46c-.25-.22-.45-.5-.61-.82s-.24-.73-.24-1.21c0-.34.07-.69.22-1.05s.39-.7.71-1,.74-.55,1.25-.74,1.12-.29,1.84-.29c.8,0,1.53.14,2.2.43.28.12.54.26.79.43s.5.37.75.61l-1.04.85c-.39-.39-.83-.67-1.32-.85s-1-.27-1.52-.27c-.37,0-.71.04-1.01.13s-.57.22-.79.38-.39.36-.5.58-.18.46-.18.71c0,.35.08.64.23.86s.36.39.61.53.53.24.85.31.63.14.96.21l.08.02c.52.1,1.02.23,1.51.36s.91.33,1.27.57.65.55.87.91.33.84.33,1.42c0,.41-.09.82-.26,1.22s-.43.76-.77,1.07-.77.56-1.29.74-1.12.28-1.82.28c-.54,0-1.04-.06-1.5-.18s-.88-.27-1.27-.46c-.29-.15-.56-.33-.83-.52s-.54-.43-.8-.71l1.08-.88Z"/>
          <path class="cls-8" d="m463.5,165.32c.03.38.1.72.23,1.04s.3.59.51.82.47.41.77.54.62.19.98.19c.44,0,.83-.07,1.17-.22s.64-.33.93-.56l.67.95c-.36.29-.77.52-1.25.71s-1,.28-1.58.28-1.1-.1-1.57-.31-.87-.49-1.2-.86-.58-.8-.76-1.31-.27-1.06-.27-1.66.09-1.17.26-1.68.42-.95.74-1.31.7-.65,1.14-.86.93-.31,1.48-.31,1,.1,1.42.31.78.49,1.08.86.52.8.68,1.31.24,1.06.24,1.66v.41h-5.66Zm2.2-3.41c-.33,0-.63.07-.89.2s-.48.3-.67.52-.33.47-.44.75-.17.58-.18.88h4.23c-.01-.31-.06-.6-.16-.89s-.23-.53-.41-.75-.39-.39-.63-.52-.53-.2-.85-.2Z"/>
          <path class="cls-8" d="m471.87,164.95c0,.4.05.78.15,1.14s.25.67.44.94.43.48.72.64.63.24,1.01.24c.25,0,.48-.04.69-.11s.4-.17.57-.29.32-.26.45-.43.25-.34.35-.53l1.09.62c-.14.28-.31.54-.52.77s-.45.43-.72.59-.57.29-.89.38-.66.13-1.02.13c-.55,0-1.05-.1-1.5-.31s-.84-.49-1.16-.86-.57-.8-.75-1.31-.27-1.06-.27-1.66.09-1.17.27-1.68.43-.95.75-1.31.71-.65,1.16-.86.95-.31,1.5-.31c.36,0,.7.04,1.02.13s.62.21.89.38.51.36.72.59.38.49.52.77l-1.09.62c-.1-.19-.21-.36-.35-.53s-.28-.31-.45-.43-.36-.21-.57-.29-.44-.11-.69-.11c-.39,0-.72.08-1.01.24s-.53.37-.72.64-.34.58-.44.94-.15.74-.15,1.14v.08Z"/>
          <path class="cls-8" d="m485.42,168.9h-1.31v-.91c-.27.37-.61.64-1,.81s-.84.26-1.33.26c-.44,0-.83-.07-1.16-.22s-.61-.34-.84-.59-.39-.54-.5-.87-.17-.67-.17-1.04v-5.42h1.31v5.01c0,.35.04.65.13.9s.2.44.35.6.32.27.52.34.42.11.64.11c.27,0,.53-.05.78-.14s.46-.23.65-.41.34-.41.45-.69.17-.6.17-.98v-4.73h1.31v7.98Z"/>
          <path class="cls-8" d="m491.91,162.09h-.21c-.34,0-.66.04-.97.12s-.58.22-.81.42-.42.48-.56.83-.21.8-.21,1.35v4.09h-1.31v-7.98h1.31v1.27c.1-.23.23-.44.4-.62s.36-.32.57-.44.44-.2.68-.26.49-.09.74-.09h.38v1.31Z"/>
          <path class="cls-8" d="m493.2,158.61c0-.12.02-.24.07-.35s.11-.21.2-.29.18-.15.29-.2.23-.07.36-.07.24.02.35.07.2.12.29.2.15.18.2.29.07.23.07.35-.02.24-.07.36-.11.21-.2.29-.18.15-.29.2-.23.07-.35.07-.24-.02-.36-.07-.21-.11-.29-.2-.15-.18-.2-.29-.07-.23-.07-.36Zm1.55,10.29h-1.31v-7.98h1.31v7.98Z"/>
          <path class="cls-8" d="m499.22,166.92c0,.14,0,.26.03.38s.06.22.13.31.17.16.31.21.32.08.55.08c.06,0,.14,0,.22,0s.18-.01.27-.02.18-.02.27-.03.16-.02.23-.04l.14,1.15c-.15.02-.31.04-.47.05-.14.02-.29.03-.45.04s-.33.02-.5.02c-.32,0-.6-.03-.86-.1s-.47-.17-.64-.32-.31-.34-.41-.57-.14-.52-.14-.86v-5.13h-1.51v-1.16h1.51v-2.61l1.31-.46v3.07h2.22v1.16h-2.22v4.84Z"/>
          <path class="cls-8" d="m502.18,160.92h1.48l1.97,6.59,1.88-6.59h1.47l-2.91,9.19c-.09.28-.2.51-.34.69s-.3.32-.48.43-.38.18-.6.22-.45.06-.7.06c-.22,0-.45-.01-.68-.04s-.48-.06-.74-.1l.2-1.15c.1.02.22.04.34.05.1.02.21.03.34.04s.25.02.38.02c.29,0,.51-.06.67-.19s.27-.33.34-.61l.08-.37-2.69-8.26Z"/>
          <path class="cls-8" d="m465.33,179.95c0,.4.05.78.15,1.14s.25.67.44.94.43.48.72.64.63.24,1.01.24c.25,0,.48-.04.69-.11s.4-.17.57-.29.32-.26.45-.43.25-.34.35-.53l1.09.62c-.14.28-.31.54-.52.77s-.45.43-.72.59-.57.29-.89.38-.66.13-1.02.13c-.55,0-1.05-.1-1.5-.31s-.84-.49-1.16-.86-.57-.8-.75-1.31-.27-1.06-.27-1.66.09-1.17.27-1.68.43-.95.75-1.31.71-.65,1.16-.86.95-.31,1.5-.31c.36,0,.7.04,1.02.13s.62.21.89.38.51.36.72.59.38.49.52.77l-1.09.62c-.1-.19-.21-.36-.35-.53s-.28-.31-.45-.43-.36-.21-.57-.29-.44-.11-.69-.11c-.39,0-.72.08-1.01.24s-.53.37-.72.64-.34.58-.44.94-.15.74-.15,1.14v.08Z"/>
          <path class="cls-8" d="m475.75,175.76c.55,0,1.05.1,1.51.31s.84.49,1.16.86.57.8.75,1.31.27,1.07.27,1.68-.09,1.15-.27,1.66-.43.95-.75,1.31-.71.65-1.16.86-.96.31-1.51.31-1.05-.1-1.5-.31-.84-.49-1.16-.86-.57-.8-.75-1.31-.27-1.06-.27-1.66.09-1.17.27-1.68.43-.95.75-1.31.71-.65,1.16-.86.95-.31,1.5-.31Zm0,7.15c.38,0,.71-.08,1-.24s.53-.37.73-.64.34-.58.44-.94.15-.73.15-1.12v-.09c0-.4-.05-.78-.15-1.14s-.25-.67-.44-.94-.44-.48-.73-.64-.62-.24-1-.24-.71.08-1,.24-.53.37-.73.64-.34.58-.44.94-.15.74-.15,1.14v.09c0,.39.05.76.15,1.12s.25.67.44.94.44.49.73.64.62.24,1,.24Z"/>
          <path class="cls-8" d="m486.61,182.99c-.23.33-.55.59-.96.78s-.86.29-1.38.29-.98-.1-1.4-.31-.77-.49-1.07-.86-.52-.8-.68-1.31-.24-1.06-.24-1.66.08-1.16.24-1.67.39-.95.68-1.32.65-.66,1.07-.86.88-.31,1.4-.31.98.1,1.38.29.72.45.96.78v-4.13h1.31v11.2h-1.31v-.91Zm-4.37-3.04c0,.42.05.8.15,1.16s.25.67.44.93.43.47.71.62.61.23.98.23c.35,0,.66-.06.92-.18s.48-.28.66-.49.31-.45.4-.74.13-.59.13-.93v-1.3c0-.33-.04-.64-.13-.93s-.22-.53-.4-.74-.4-.37-.66-.49-.57-.18-.92-.18c-.37,0-.7.08-.98.23s-.52.36-.71.62-.34.57-.44.93-.15.75-.15,1.16v.08Z"/>
          <path class="cls-8" d="m491.22,180.32c.03.38.1.72.23,1.04s.3.59.51.82.47.41.77.54.62.19.98.19c.44,0,.83-.07,1.17-.22s.64-.33.93-.56l.67.95c-.36.29-.77.52-1.25.71s-1,.28-1.58.28-1.1-.1-1.57-.31-.87-.49-1.2-.86-.58-.8-.76-1.31-.27-1.06-.27-1.66.09-1.17.26-1.68.42-.95.74-1.31.7-.65,1.14-.86.93-.31,1.48-.31,1,.1,1.42.31.78.49,1.08.86.52.8.68,1.31.24,1.06.24,1.66v.41h-5.66Zm2.2-3.41c-.33,0-.63.07-.89.2s-.48.3-.67.52-.33.47-.44.75-.17.58-.18.88h4.23c-.01-.31-.06-.6-.16-.89s-.23-.53-.41-.75-.39-.39-.63-.52-.53-.2-.85-.2Z"/>
          <path class="cls-8" d="m458.35,190.53v16.8h-3.48v-11.11h-3.05v-3.07h.75c.5,0,.91-.04,1.22-.13s.56-.23.74-.42.3-.43.36-.72.09-.65.09-1.06v-.29h3.35Z"/>
          <path class="cls-8" d="m468.61,193.43c-.46,0-.86.07-1.21.22s-.63.36-.86.62-.39.58-.5.93-.16.74-.16,1.15l-3.48-.32c0-.92.17-1.74.49-2.46s.76-1.32,1.31-1.8,1.21-.86,1.96-1.11,1.58-.38,2.47-.38,1.78.14,2.55.42,1.43.67,1.97,1.17.97,1.1,1.27,1.8.45,1.47.45,2.3c0,.91-.18,1.77-.54,2.56s-.85,1.53-1.45,2.2-1.29,1.29-2.07,1.85-1.59,1.06-2.41,1.51l-.32.16h7.01v3.07h-12.26v-3.05c.63-.34,1.28-.71,1.94-1.1s1.3-.8,1.92-1.22,1.21-.87,1.76-1.33,1.04-.94,1.45-1.44.74-1.01.98-1.54.36-1.07.36-1.63c0-.32-.05-.64-.16-.95s-.27-.59-.49-.83-.49-.44-.82-.59-.72-.22-1.17-.22Z"/>
          <path class="cls-8" d="m481.74,202.2c.12.4.3.74.53,1.04s.49.54.79.73.63.33.98.42.72.13,1.11.13c.53,0,.98-.06,1.35-.19s.67-.3.9-.5.4-.44.5-.7.15-.53.15-.8c0-.66-.28-1.19-.83-1.58s-1.4-.58-2.54-.58h-.94v-2.84h.71c1.03,0,1.84-.17,2.42-.5s.87-.85.87-1.54c0-.3-.07-.56-.2-.8s-.31-.44-.54-.6-.5-.29-.82-.38-.66-.13-1.03-.13c-.42,0-.81.06-1.15.18s-.66.28-.93.48-.51.44-.71.71-.36.56-.47.87l-3-1.21c.18-.66.48-1.24.89-1.75s.9-.94,1.46-1.28,1.17-.61,1.85-.8,1.36-.28,2.05-.28c.87,0,1.67.11,2.41.32s1.39.52,1.94.92.98.9,1.29,1.48.47,1.25.47,2c0,.45-.07.86-.22,1.25s-.34.73-.59,1.04-.54.57-.87.79-.7.39-1.08.5c.43.09.83.25,1.21.47s.7.49.98.82.5.71.66,1.14.24.9.24,1.41c0,.77-.17,1.48-.5,2.11s-.79,1.17-1.37,1.62-1.26.79-2.04,1.04-1.63.37-2.55.37c-.8,0-1.58-.1-2.32-.31s-1.41-.5-2-.89-1.09-.86-1.5-1.42-.68-1.19-.82-1.89l3.23-.86Z"/>
          <path class="cls-8" d="m503.03,207.33v-3.8h-8.38v-3.62l7.44-9.39h4.34v9.94h2.45v3.07h-2.45v3.8h-3.4Zm0-6.87v-6.6l-5.23,6.6h5.23Z"/>
        </g>
      </g>
    </g>
    <g>
      <g>
        <path class="cls-20" d="m682.66,451.09h82.76v24.45h-82.76v-24.45Z"/>
        <path class="cls-15" d="m594.31,468.94v-175.35c0-7.05,5.67-12.75,12.68-12.75h237.1c7.01,0,12.68,5.7,12.68,12.75v175.35"/>
        <path class="cls-21" d="m857.21,468.94h-.75v-175.35c0-6.82-5.52-12.37-12.3-12.37h-237.11c-6.78,0-12.3,5.55-12.3,12.37v175.35h-.75v-175.35c.07-7.2,5.89-13.05,13.05-13.13h237.11c7.16.07,12.97,5.93,13.05,13.13v175.35Z"/>
        <path class="cls-10" d="m613.7,300.34h223.68v142.12h-223.68v-142.12Z"/>
        <path class="cls-12" d="m837.83,442.84h-224.43v-142.87h224.43v142.87Zm-223.68-.75h222.94v-141.38h-222.94v141.38Z"/>
        <path class="cls-9" d="m696.38,461.67h58.61v10.2h-58.61v-10.2Z"/>
        <path class="cls-18" d="m749.47,467.97h-47.79c-2.83,0-5.22-3.07-5.44-6h-140.7v15.75l38.77,4.5h262.46l38.77-4.5v-15.75h-140.62c-.22,3.07-2.54,6-5.44,6Z"/>
        <path class="cls-9" d="m555.54,477.72l38.77,4.5h262.46l38.77-4.5h-340Z"/>
        <path class="cls-5" d="m895.54,461.97h-140.62c-.15,3.07-2.46,6-5.44,6h-47.79c-2.83,0-5.22-3.07-5.44-6h-140.7"/>
        <path class="cls-11" d="m555.54,482.22h340v2.25h-340v-2.25Z"/>
      </g>
      <g>
        <path class="cls-20" d="m631.65,313.65h187.72v115.52h-187.72v-115.52Z"/>
        <rect class="cls-16" x="643.34" y="369.25" width="111.08" height="4.44"/>
        <rect class="cls-16" x="643.34" y="378.13" width="111.08" height="4.44"/>
        <rect class="cls-16" x="643.34" y="387.02" width="95.53" height="4.44"/>
        <path class="cls-13" d="m643.45,331.18h163.72v3.72h-163.72v-3.72Z"/>
        <path class="cls-12" d="m819.02,314.11v114.59h-187.02v-114.59h187.02Zm1.46-1.58h-189.94v117.74h189.94v-117.74Z"/>
        <path class="cls-15" d="m630.54,312.54h190v18.74h-190v-18.74Z"/>
        <path class="cls-22" d="m643.18,401.19h69.93v13.21h-69.93v-13.21Z"/>
        <path class="cls-12" d="m643.18,414.4h69.93v1.47h-69.93v-1.47Z"/>
        <g>
          <path class="cls-8" d="m645.5,352.36c.15.17.34.35.56.52s.46.32.72.45.55.24.86.32c.31.08.65.12,1.01.12.67,0,1.18-.14,1.54-.42.36-.28.54-.62.54-1.03s-.16-.74-.47-.96c-.31-.22-.81-.39-1.49-.52l-.37-.07c-.49-.09-.98-.2-1.46-.34s-.92-.35-1.32-.61-.71-.61-.96-1.03c-.25-.42-.37-.94-.37-1.58,0-.37.08-.76.25-1.16s.42-.78.78-1.12c.36-.34.82-.62,1.38-.84.57-.22,1.25-.33,2.05-.33.95,0,1.79.16,2.54.47.74.31,1.34.73,1.8,1.24l-1.58,1.47c-.32-.35-.73-.63-1.24-.83-.51-.2-1.02-.3-1.56-.3-.62,0-1.1.12-1.44.35s-.52.54-.52.92c0,.25.06.45.17.61.11.16.27.3.47.41.2.11.44.19.73.27s.6.14.95.21l.19.03c.47.09.93.2,1.4.33.46.13.88.33,1.26.59.38.26.69.6.92,1.01.23.42.35.95.35,1.6,0,.59-.12,1.11-.37,1.56s-.57.84-.97,1.16c-.4.32-.87.56-1.4.72-.53.16-1.08.24-1.65.24s-1.11-.05-1.61-.15-.94-.24-1.34-.42c-.4-.18-.76-.38-1.07-.61-.31-.22-.59-.46-.82-.72l1.55-1.57Z"/>
          <path class="cls-8" d="m656.83,352.06c.04.26.12.5.25.72s.29.41.49.56c.2.16.42.28.68.37.26.09.53.13.82.13.33,0,.69-.06,1.08-.19s.74-.32,1.06-.56l1.09,1.58c-.41.34-.91.62-1.51.83s-1.23.32-1.9.32c-.61,0-1.18-.1-1.71-.31s-1-.51-1.4-.9c-.4-.39-.72-.87-.95-1.43s-.35-1.19-.35-1.9c0-.64.1-1.24.31-1.8s.49-1.04.86-1.45c.37-.41.81-.73,1.32-.96.51-.23,1.08-.35,1.7-.35.58,0,1.12.11,1.61.31.5.21.93.51,1.29.88.37.38.65.83.86,1.36.21.53.31,1.11.31,1.75v1.02h-5.92Zm1.83-3.37c-.49,0-.9.16-1.23.49-.34.32-.53.71-.59,1.17h3.53c-.01-.46-.18-.86-.51-1.18s-.73-.48-1.21-.48Z"/>
          <path class="cls-8" d="m669.1,349.09h-.24c-.32,0-.63.03-.92.1-.29.07-.55.18-.77.36-.22.17-.4.41-.54.71-.13.3-.2.68-.2,1.15v4.25h-2.26v-8.76h2.26v.99c.09-.15.21-.29.36-.43s.32-.26.52-.36c.2-.11.42-.19.66-.26s.51-.1.79-.1h.34v2.35Z"/>
          <path class="cls-8" d="m672.36,355.66l-2.68-8.76h2.52l1.57,6.03,1.61-6.03h2.48l-2.67,8.76h-2.83Z"/>
          <path class="cls-8" d="m678.74,344.6c0-.19.04-.36.11-.53s.17-.31.29-.43c.12-.12.27-.22.43-.29s.34-.11.53-.11.36.04.53.11.31.17.43.29c.12.12.22.27.29.43s.11.34.11.53-.04.37-.11.53-.17.31-.29.43c-.12.12-.27.22-.43.29s-.34.11-.53.11-.37-.04-.53-.11-.31-.17-.43-.29c-.12-.12-.22-.27-.29-.43s-.11-.34-.11-.53Zm2.49,11.05h-2.26v-8.76h2.26v8.76Z"/>
          <path class="cls-8" d="m685.05,351.33c0,.28.04.57.11.85.08.29.19.54.35.77s.36.42.61.56c.25.14.54.22.89.22.22,0,.43-.03.61-.09s.35-.14.49-.25c.14-.11.27-.23.39-.38.11-.14.21-.3.29-.47l1.98,1.02c-.14.34-.34.65-.58.93-.25.28-.54.52-.86.71s-.69.35-1.09.45c-.4.11-.82.16-1.27.16-.62,0-1.18-.12-1.7-.35-.52-.23-.96-.55-1.34-.95s-.67-.88-.88-1.43-.32-1.15-.32-1.8.11-1.24.32-1.8.51-1.04.88-1.45.82-.73,1.34-.96c.52-.23,1.08-.35,1.7-.35.45,0,.87.05,1.27.16.4.11.76.26,1.09.46s.61.44.86.71c.25.28.44.59.58.93l-1.98,1.02c-.08-.17-.18-.33-.29-.47-.11-.14-.24-.27-.39-.38-.14-.11-.31-.19-.49-.25s-.39-.09-.61-.09c-.34,0-.64.07-.89.22-.25.15-.45.33-.61.57s-.28.49-.35.78-.11.58-.11.87v.07Z"/>
          <path class="cls-8" d="m694.05,352.06c.04.26.12.5.25.72s.29.41.49.56c.2.16.42.28.68.37.26.09.53.13.82.13.33,0,.69-.06,1.08-.19s.74-.32,1.06-.56l1.09,1.58c-.41.34-.91.62-1.51.83s-1.23.32-1.9.32c-.61,0-1.18-.1-1.71-.31s-1-.51-1.4-.9c-.4-.39-.72-.87-.95-1.43s-.35-1.19-.35-1.9c0-.64.1-1.24.31-1.8s.49-1.04.86-1.45c.37-.41.81-.73,1.32-.96.51-.23,1.08-.35,1.7-.35.58,0,1.12.11,1.61.31.5.21.93.51,1.29.88.37.38.65.83.86,1.36.21.53.31,1.11.31,1.75v1.02h-5.92Zm1.83-3.37c-.49,0-.9.16-1.23.49-.34.32-.53.71-.59,1.17h3.53c-.01-.46-.18-.86-.51-1.18s-.73-.48-1.21-.48Z"/>
        </g>
      </g>
    </g>
    <g>
      <g>
        <path class="cls-20" d="m192.76,451.46h82.76v24.45h-82.76v-24.45Z"/>
        <path class="cls-15" d="m104.4,469.31v-175.35c0-7.05,5.67-12.75,12.68-12.75h237.1c7.01,0,12.68,5.7,12.68,12.75v175.35"/>
        <path class="cls-21" d="m367.31,469.31h-.75v-175.35c0-6.82-5.52-12.37-12.3-12.37H117.15c-6.78,0-12.3,5.55-12.3,12.37v175.35h-.75v-175.35c.07-7.2,5.89-13.05,13.05-13.13h237.11c7.16.07,12.97,5.93,13.05,13.13v175.35Z"/>
        <path class="cls-10" d="m123.79,300.71h223.68v142.12H123.79v-142.12Z"/>
        <path class="cls-12" d="m347.92,443.21H123.49v-142.87h224.43v142.87Zm-223.68-.75h222.94v-141.38H124.24v141.38Z"/>
        <path class="cls-9" d="m206.48,462.03h58.61v10.2h-58.61v-10.2Z"/>
        <path class="cls-18" d="m259.57,468.33h-47.79c-2.83,0-5.22-3.07-5.44-6H65.63v15.75l38.77,4.5h262.46l38.77-4.5v-15.75h-140.62c-.22,3.07-2.54,6-5.44,6Z"/>
        <path class="cls-9" d="m65.63,478.08l38.77,4.5h262.46l38.77-4.5H65.63Z"/>
        <path class="cls-5" d="m405.63,462.33h-140.62c-.15,3.07-2.46,6-5.44,6h-47.79c-2.83,0-5.22-3.07-5.44-6H65.63"/>
        <path class="cls-11" d="m65.63,482.58h340v2.25H65.63v-2.25Z"/>
      </g>
      <g>
        <path class="cls-20" d="m141.74,314.01h187.72v115.52h-187.72v-115.52Z"/>
        <path class="cls-12" d="m329.11,314.47v114.59h-187.02v-114.59h187.02Zm1.46-1.58h-189.94v117.74h189.94v-117.74Z"/>
        <path class="cls-13" d="m153.45,331.18h163.72v3.72h-163.72v-3.72Z"/>
        <path class="cls-15" d="m140.63,312.9h190v18.74h-190v-18.74Z"/>
        <path class="cls-22" d="m153.27,401.55h69.93v13.21h-69.93v-13.21Z"/>
        <path class="cls-12" d="m153.27,414.77h69.93v1.47h-69.93v-1.47Z"/>
        <g>
          <path class="cls-8" d="m155.59,352.73c.15.17.34.35.56.51.22.17.46.32.72.45.26.13.55.24.86.32s.65.12,1.01.12c.67,0,1.18-.14,1.54-.42.36-.28.54-.62.54-1.03s-.16-.74-.47-.96c-.31-.22-.81-.39-1.49-.52l-.37-.07c-.49-.09-.98-.2-1.46-.34-.49-.14-.92-.35-1.32-.61-.39-.27-.71-.61-.96-1.03s-.37-.94-.37-1.58c0-.37.08-.76.25-1.17.16-.41.42-.78.78-1.12.36-.34.82-.62,1.38-.84s1.25-.33,2.05-.33c.95,0,1.79.16,2.54.47s1.34.73,1.8,1.24l-1.58,1.47c-.32-.35-.73-.63-1.24-.83-.5-.2-1.02-.3-1.56-.3-.62,0-1.1.12-1.44.35-.35.23-.52.54-.52.92,0,.25.06.45.17.61.11.16.27.3.47.41.2.11.44.2.73.27.28.07.6.14.95.21l.19.03c.47.09.94.2,1.4.33.46.13.88.33,1.26.59.38.26.68.6.92,1.01s.35.95.35,1.6c0,.59-.12,1.11-.37,1.56-.25.45-.57.84-.97,1.16-.4.32-.87.56-1.4.72-.53.16-1.08.24-1.65.24s-1.11-.05-1.61-.15c-.49-.1-.94-.24-1.34-.42-.4-.18-.76-.38-1.07-.61s-.59-.46-.82-.72l1.55-1.57Z"/>
          <path class="cls-8" d="m164.8,344.97c0-.19.04-.36.11-.53.07-.17.17-.31.29-.43.12-.12.27-.22.43-.29.16-.07.34-.11.53-.11s.36.04.53.11c.17.07.31.17.43.29s.22.27.29.43c.07.17.11.34.11.53s-.04.37-.11.53c-.07.16-.17.31-.29.43-.12.12-.27.22-.43.29-.17.07-.34.11-.53.11s-.37-.04-.53-.11c-.16-.07-.31-.17-.43-.29s-.22-.27-.29-.43c-.07-.16-.11-.34-.11-.53Zm2.49,11.05h-2.26v-8.76h2.26v8.76Z"/>
          <path class="cls-8" d="m174.56,354.47c-.2.25-.48.44-.85.58s-.76.22-1.18.22c-.59,0-1.11-.1-1.57-.31s-.84-.49-1.16-.85-.55-.79-.72-1.29c-.17-.5-.25-1.04-.25-1.63s.08-1.12.25-1.62c.17-.5.41-.94.72-1.3.31-.36.7-.65,1.16-.85s.98-.31,1.57-.31c.43,0,.82.07,1.18.22.36.15.64.34.85.59v-.64h2.26v8.67c0,.53-.1.99-.3,1.38-.2.38-.48.7-.83.94s-.76.42-1.22.54c-.46.11-.96.17-1.48.17-.64,0-1.3-.08-1.99-.22-.69-.15-1.29-.34-1.79-.56l.64-1.83c.15.06.34.14.56.22.22.08.46.15.72.21.26.06.52.11.81.15.28.04.55.06.82.06.23,0,.46-.02.68-.07s.41-.12.58-.23c.17-.11.3-.24.4-.42.1-.17.15-.39.15-.66v-1.15Zm-3.39-3.25c0,.29.03.56.09.81.06.25.16.47.3.65.14.18.32.32.53.42.22.1.48.15.79.15.62,0,1.05-.19,1.31-.58s.39-.87.39-1.44v-.07c0-.29-.03-.56-.09-.81-.06-.25-.16-.47-.29-.65-.14-.18-.31-.32-.53-.42s-.48-.15-.8-.15c-.61,0-1.05.19-1.32.58-.27.39-.4.87-.4,1.45v.07Z"/>
          <path class="cls-8" d="m178.76,347.27h2.26v.75c.12-.12.25-.24.4-.35.15-.11.32-.21.5-.29.18-.08.38-.15.6-.2s.46-.08.73-.08c.47,0,.9.08,1.28.23s.69.37.95.64c.26.27.46.59.59.96.14.37.2.76.2,1.19v5.91h-2.26v-5.09c0-.31-.04-.57-.11-.79-.07-.21-.17-.39-.29-.52-.12-.13-.27-.23-.43-.29s-.35-.09-.54-.09c-.23,0-.44.04-.64.12-.2.08-.37.21-.52.37-.15.17-.26.38-.34.63-.08.25-.12.54-.12.88v4.79h-2.26v-8.76Z"/>
          <path class="cls-8" d="m190.93,344.97c0-.19.04-.36.11-.53.07-.17.17-.31.29-.43.12-.12.27-.22.43-.29.16-.07.34-.11.53-.11s.36.04.53.11c.17.07.31.17.43.29s.22.27.29.43c.07.17.11.34.11.53s-.04.37-.11.53c-.07.16-.17.31-.29.43-.12.12-.27.22-.43.29-.17.07-.34.11-.53.11s-.37-.04-.53-.11c-.16-.07-.31-.17-.43-.29s-.22-.27-.29-.43c-.07-.16-.11-.34-.11-.53Zm2.49,11.05h-2.26v-8.76h2.26v8.76Z"/>
          <path class="cls-8" d="m195.37,347.27h2.26v.75c.12-.12.25-.24.4-.35.15-.11.32-.21.5-.29.18-.08.38-.15.6-.2s.46-.08.73-.08c.47,0,.9.08,1.28.23s.69.37.95.64c.26.27.46.59.59.96.14.37.2.76.2,1.19v5.91h-2.26v-5.09c0-.31-.04-.57-.11-.79-.07-.21-.17-.39-.29-.52-.12-.13-.27-.23-.43-.29s-.35-.09-.54-.09c-.23,0-.44.04-.64.12-.2.08-.37.21-.52.37-.15.17-.26.38-.34.63-.08.25-.12.54-.12.88v4.79h-2.26v-8.76Z"/>
        </g>
        <g>
          <g>
            <rect class="cls-20" x="153.46" y="364.86" width="90.34" height="13.29"/>
            <path class="cls-19" d="m243.17,365.21v12.59h-89.08v-12.59h89.08m1.27-.71h-91.61v14h91.61v-14h0Z"/>
            <rect class="cls-6" x="154.09" y="365.21" width="89.08" height="12.59"/>
          </g>
          <path class="cls-15" d="m158.85,369.75h59.49v3.5h-59.49v-3.5Z"/>
          <g>
            <rect class="cls-20" x="153.46" y="382.39" width="90.34" height="13.29"/>
            <path class="cls-19" d="m243.17,382.74v12.59h-89.08v-12.59h89.08m1.27-.71h-91.61v14h91.61v-14h0Z"/>
            <rect class="cls-6" x="154.09" y="382.74" width="89.08" height="12.59"/>
          </g>
          <circle class="cls-15" cx="160.85" cy="389.04" r="2"/>
          <circle class="cls-15" cx="172.05" cy="389.04" r="2"/>
          <circle class="cls-15" cx="199.85" cy="389.04" r="2"/>
          <circle class="cls-15" cx="194.25" cy="389.04" r="2"/>
          <circle class="cls-15" cx="188.85" cy="389.04" r="2"/>
          <circle class="cls-15" cx="183.25" cy="389.04" r="2"/>
          <circle class="cls-15" cx="177.65" cy="389.04" r="2"/>
          <circle class="cls-15" cx="166.45" cy="389.04" r="2"/>
        </g>
      </g>
    </g>
  </g>
</svg>
